<?xml version="1.0" encoding="UTF-8" standalone="no"?>
<svg
   width="48"
   height="48"
   version="1"
   id="svg54"
   sodipodi:docname="bookmark-missing.svg"
   inkscape:version="1.1 (c4e8f9ed74, 2021-05-24)"
   xmlns:inkscape="http://www.inkscape.org/namespaces/inkscape"
   xmlns:sodipodi="http://sodipodi.sourceforge.net/DTD/sodipodi-0.dtd"
   xmlns:xlink="http://www.w3.org/1999/xlink"
   xmlns="http://www.w3.org/2000/svg"
   xmlns:svg="http://www.w3.org/2000/svg">
  <sodipodi:namedview
     id="namedview56"
     pagecolor="#ffffff"
     bordercolor="#666666"
     borderopacity="1.0"
     inkscape:pageshadow="2"
     inkscape:pageopacity="0.0"
     inkscape:pagecheckerboard="0"
     showgrid="false"
     inkscape:zoom="15.145833"
     inkscape:cx="23.966988"
     inkscape:cy="24"
     inkscape:window-width="1852"
     inkscape:window-height="1052"
     inkscape:window-x="68"
     inkscape:window-y="28"
     inkscape:window-maximized="1"
     inkscape:current-layer="svg54" />
  <defs
     id="defs32">
    <linearGradient
       inkscape:collect="always"
       id="linearGradient1113">
      <stop
         style="stop-color:#1abc93;stop-opacity:1;"
         offset="0"
         id="stop1109" />
      <stop
         style="stop-color:#34be5b;stop-opacity:1"
         offset="1"
         id="stop1111" />
    </linearGradient>
    <linearGradient
       id="linearGradient2788"
       x1="321"
       x2="367"
       y1="70"
       y2="105"
       gradientTransform="translate(-320.07 -60)"
       gradientUnits="userSpaceOnUse">
      <stop
         stop-color="#666"
         offset="0"
         id="stop27" />
      <stop
         stop-color="#7a7a7a"
         offset="1"
         id="stop29" />
    </linearGradient>
    <linearGradient
       inkscape:collect="always"
       xlink:href="#linearGradient1113"
       id="linearGradient1728"
       x1="1.0644531"
       y1="11.499131"
       x2="47.070827"
       y2="11.499131"
       gradientUnits="userSpaceOnUse" />
  </defs>
  <path
     d="m9.812 4.0002c-2.9004 0-5.051-0.095-6.6562 1.1191-0.8135 0.6154-1.3536 1.5422-1.6641 2.7168-0.3093 1.17-0.4278 2.6138-0.4278 4.4883v9.4063 3.2695 12.27c0 1.9523 0.053 3.4414 0.2676 4.6446 0.2154 1.2058 0.6222 2.1845 1.3868 2.8652 0.7626 0.6789 1.7527 0.9599 2.8945 1.0918 1.1408 0.1317 2.4963 0.1289 4.1992 0.1289h28.504c1.6708 0 3.0101 0 4.1445-0.1289 1.1353-0.1319 2.1255-0.4113 2.8946-1.0859 0.7708-0.6763 1.1929-1.653 1.4199-2.8614 0.2265-1.2056 0.2871-2.6992 0.2871-4.6543v-18.539c0-0.2583-0.012-0.4261-0.014-0.6055v-0.012l0.014-1.875c0.013-1.8102 0.019-3.2511-0.1152-4.4551-0.134-1.2042-0.4167-2.2304-1.0957-3.0273-0.682-0.8003-1.6746-1.2403-2.8907-1.4707-1.2123-0.2297-2.7045-0.2852-4.6465-0.2852h-15.902l-3-3z"
     color="#000000"
     color-rendering="auto"
     dominant-baseline="auto"
     image-rendering="auto"
     opacity=".1"
     shape-rendering="auto"
     solid-color="#000000"
     style="font-feature-settings:normal;font-variant-alternates:normal;font-variant-caps:normal;font-variant-ligatures:normal;font-variant-numeric:normal;font-variant-position:normal;isolation:auto;mix-blend-mode:normal;shape-padding:0;text-decoration-color:#000000;text-decoration-line:none;text-decoration-style:solid;text-indent:0;text-orientation:mixed;text-transform:none;white-space:normal"
     id="path34" />
  <path
     id="path36"
     style="font-feature-settings:normal;font-variant-alternates:normal;font-variant-caps:normal;font-variant-ligatures:normal;font-variant-numeric:normal;font-variant-position:normal;isolation:auto;mix-blend-mode:normal;shape-padding:0;text-decoration-color:#000000;text-decoration-line:none;text-decoration-style:solid;text-indent:0;text-orientation:mixed;text-transform:none;white-space:normal;fill-opacity:1.0;fill:url(#linearGradient1728)"
     d="M 9.8125 3 C 6.9121 3 4.76145 2.9050406 3.15625 4.1191406 C 2.34275 4.7345406 1.8026875 5.6613375 1.4921875 6.8359375 C 1.1828875 8.0059375 1.0644531 9.4497187 1.0644531 11.324219 L 1.0644531 20 L 47.064453 20 L 47.064453 17.730469 C 47.064453 17.472169 47.052781 17.3044 47.050781 17.125 L 47.050781 17.113281 L 47.064453 15.238281 C 47.077453 13.428081 47.083419 11.987203 46.949219 10.783203 C 46.815219 9.5790031 46.532616 8.5527594 45.853516 7.7558594 C 45.171616 6.9555594 44.178891 6.5155562 42.962891 6.2851562 C 41.750491 6.0554562 40.258406 6 38.316406 6 L 22.414062 6 L 19.414062 3 L 9.8125 3 z " />
  <path
     d="m23.002 10-3.002 3h-10.187c-6.8128 0-7.748-2e-4 -7.748 7.7305v1c0-7.7307 0.9352-7.7305 7.748-7.7305h10.187l3.002-3h15.314c6.6839 0 7.7481-2e-4 7.7481 7.7305v-1c0-7.7307-1.0642-7.7305-7.7481-7.7305z"
     color="#000000"
     fill="#fff"
     opacity=".3"
     id="path38" />
  <path
     d="m38.254 10c2.9004 0 5.051-0.095 6.6562 1.1191 0.8135 0.6154 1.3536 1.5422 1.6641 2.7168 0.3092 1.17 0.4277 2.6138 0.4277 4.4883v9.4063 4.2695 4.2695c0 1.9523-0.053 3.4414-0.2676 4.6446-0.2153 1.2058-0.6221 2.1845-1.3867 2.8652-0.7627 0.6789-1.7527 0.9599-2.8945 1.0918-1.1408 0.1317-2.4963 0.1289-4.1992 0.1289h-28.504c-1.6707 0-3.0101 0-4.1445-0.1289-1.1352-0.1319-2.1255-0.4113-2.8945-1.0859-0.7709-0.6763-1.193-1.653-1.4199-2.8614-0.2265-1.2056-0.2871-2.6992-0.2871-4.6543v-11.539c0-0.2583 0.012-0.4261 0.014-0.6055v-0.012l-0.014-1.875c-0.013-1.8102-0.019-3.2511 0.1152-4.4551 0.134-1.2042 0.4166-2.2304 1.0957-3.0273 0.6819-0.8003 1.6746-1.2403 2.8906-1.4707 1.2125-0.2297 2.7144-0.4803 4.6466-0.2852h9.9023l3-3z"
     color="#000000"
     color-rendering="auto"
     dominant-baseline="auto"
     fill="url(#linearGradient2788)"
     image-rendering="auto"
     shape-rendering="auto"
     solid-color="#000000"
     style="font-feature-settings:normal;font-variant-alternates:normal;font-variant-caps:normal;font-variant-ligatures:normal;font-variant-numeric:normal;font-variant-position:normal;isolation:auto;mix-blend-mode:normal;shape-padding:0;text-decoration-color:#000000;text-decoration-line:none;text-decoration-style:solid;text-indent:0;text-orientation:mixed;text-transform:none;white-space:normal"
     id="path40" />
  <path
     d="m47 32-12 12h4.6886c6.6316 0 7.3114-0.6795 7.3114-7.2979z"
     color="#000000"
     fill="#fff"
     opacity=".05"
     id="path42" />
  <path
     d="m1.064 35.27v1c0 1.9523 0.053 3.4414 0.2675 4.6446 0.2154 1.2058 0.6222 2.1845 1.3868 2.8652 0.7626 0.6789 1.7527 0.9599 2.8945 1.0918 1.1408 0.1317 2.4963 0.1289 4.1992 0.1289h28.504c1.6708 0 3.0101 0 4.1445-0.1289 1.1353-0.1319 2.1255-0.4113 2.8946-1.0859 0.7708-0.6763 1.1929-1.653 1.4199-2.8614 0.2265-1.2056 0.2871-2.6992 0.2871-4.6543v-1c0 1.9551-0.061 3.4487-0.2871 4.6543-0.227 1.2084-0.6491 2.1851-1.4199 2.8614-0.7691 0.6746-1.7593 0.954-2.8946 1.0859-1.1344 0.1309-2.4737 0.1289-4.1445 0.1289h-28.504c-1.7029 0-3.0584 0-4.1992-0.1289-1.1418-0.1319-2.1319-0.4129-2.8945-1.0918-0.7646-0.6807-1.1714-1.6594-1.3868-2.8652-0.2147-1.2032-0.2676-2.6923-0.2675-4.6446z"
     color="#000000"
     color-rendering="auto"
     dominant-baseline="auto"
     image-rendering="auto"
     opacity=".2"
     shape-rendering="auto"
     solid-color="#000000"
     style="font-feature-settings:normal;font-variant-alternates:normal;font-variant-caps:normal;font-variant-ligatures:normal;font-variant-numeric:normal;font-variant-position:normal;isolation:auto;mix-blend-mode:normal;shape-padding:0;text-decoration-color:#000000;text-decoration-line:none;text-decoration-style:solid;text-indent:0;text-orientation:mixed;text-transform:none;white-space:normal"
     id="path44" />
  <path
     d="m22.72 10-3 3h-9.9023c-1.9322-0.1951-3.4341 0.055-4.6465 0.2852-1.216 0.2304-2.2087 0.6703-2.8906 1.4707-0.6791 0.7969-0.9618 1.8231-1.0957 3.0273-0.073 0.6551-0.1018 1.4-0.1133 2.2168h0.039c0.017-0.4234 0.034-0.8506 0.074-1.2168 0.134-1.2042 0.4166-2.2304 1.0957-3.0273 0.6819-0.8004 1.6746-1.2403 2.8906-1.4707 1.2124-0.2297 2.7143-0.4803 4.6465-0.2852h9.9023l3-3h15.602c2.9004 0 5.051-0.095 6.6562 1.1191 0.8135 0.6154 1.3536 1.5422 1.6641 2.7168 0.3092 1.17 0.4277 2.6138 0.4277 4.4883v-1c0-1.8745-0.1185-3.3183-0.4277-4.4883-0.3105-1.1746-0.8506-2.1014-1.6641-2.7168-1.6052-1.2141-3.7558-1.1191-6.6562-1.1191z"
     color="#000000"
     color-rendering="auto"
     dominant-baseline="auto"
     fill="#fff"
     image-rendering="auto"
     opacity=".2"
     shape-rendering="auto"
     solid-color="#000000"
     style="font-feature-settings:normal;font-variant-alternates:normal;font-variant-caps:normal;font-variant-ligatures:normal;font-variant-numeric:normal;font-variant-position:normal;isolation:auto;mix-blend-mode:normal;shape-padding:0;text-decoration-color:#000000;text-decoration-line:none;text-decoration-style:solid;text-indent:0;text-orientation:mixed;text-transform:none;white-space:normal"
     id="path46" />
  <path
     d="m22.72 9.0002-3 3h-9.9023c-1.9322-0.1951-3.4341 0.055-4.6465 0.2852-1.216 0.2304-2.2087 0.6703-2.8906 1.4707-0.6791 0.7969-0.9618 1.8231-1.0957 3.0273-0.073 0.6551-0.1018 1.4-0.1133 2.2168h0.039c0.017-0.4234 0.034-0.8506 0.074-1.2168 0.134-1.2042 0.4166-2.2304 1.0957-3.0273 0.6819-0.8004 1.6746-1.2403 2.8906-1.4707 1.2124-0.2297 2.7143-0.4803 4.6465-0.2852h9.9023l3-3h15.602c2.9004 0 5.051-0.095 6.6562 1.1191 0.8135 0.6154 1.3536 1.5422 1.6641 2.7168 0.3092 1.17 0.4277 2.6138 0.4277 4.4883v-1c0-1.8745-0.1185-3.3183-0.4277-4.4883-0.3105-1.1746-0.8506-2.1014-1.6641-2.7168-1.6052-1.2141-3.7558-1.1191-6.6562-1.1191z"
     color="#000000"
     color-rendering="auto"
     dominant-baseline="auto"
     fill="#732206"
     image-rendering="auto"
     opacity=".1"
     shape-rendering="auto"
     solid-color="#000000"
     style="font-feature-settings:normal;font-variant-alternates:normal;font-variant-caps:normal;font-variant-ligatures:normal;font-variant-numeric:normal;font-variant-position:normal;isolation:auto;mix-blend-mode:normal;shape-padding:0;text-decoration-color:#000000;text-decoration-line:none;text-decoration-style:solid;text-indent:0;text-orientation:mixed;text-transform:none;white-space:normal"
     id="path48" />
  <path
     d="M 9.812,3.0002 C 6.9116,3.0002 4.761,2.9052 3.1558,4.1193 2.3423,4.7347 1.8022,5.6615 1.4917,6.8361 1.1824,8.0061 1.0639,9.4499 1.0639,11.3244 v 1 c 0,-1.8745 0.1185,-3.3183 0.4278,-4.4883 C 1.8022,6.6615 2.3422,5.7347 3.1558,5.1193 4.761,3.9052 6.9116,4.0002 9.812,4.0002 h 9.6016 l 3,3 h 15.902 c 1.942,0 3.4341,0.055 4.6465,0.2852 1.216,0.2304 2.2087,0.6703 2.8906,1.4707 0.6791,0.7969 0.9617,1.8231 1.0957,3.0273 0.067,0.602 0.1,1.263 0.1133,2 0,-1.1279 -0.019,-2.1528 -0.1133,-3 C 46.8144,9.5792 46.5318,8.553 45.8527,7.7561 45.1708,6.9557 44.1781,6.5158 42.9621,6.2854 41.7497,6.0557 40.2576,6.0002 38.3156,6.0002 h -15.902 l -3,-3 z m 37.244,14.367 -0.01,0.7461 v 0.012 c 0,0.1793 0.014,0.3472 0.014,0.6054 v -1 c 0,-0.1549 0,-0.2514 -0.01,-0.3632 z"
     color="#000000"
     color-rendering="auto"
     dominant-baseline="auto"
     fill="#ffffff"
     image-rendering="auto"
     opacity="0.2"
     shape-rendering="auto"
     solid-color="#000000"
     style="font-variant-ligatures:normal;font-variant-position:normal;font-variant-caps:normal;font-variant-numeric:normal;font-variant-alternates:normal;font-feature-settings:normal;text-indent:0;text-decoration-line:none;text-decoration-style:solid;text-decoration-color:#000000;text-transform:none;text-orientation:mixed;white-space:normal;shape-padding:0;isolation:auto;mix-blend-mode:normal"
     id="path50" />
  <path
     d="m30.6 20.437c-1.5302-0.7084-3.359-0.5242-4.7664 0.3229l-1.5316 3.3458 3.0337 2.6413-3.175 4.2902 1.162-3.9954-3.8874-2.624 1.1447-3.3684c-1.4474-1.0833-3.4912-1.3941-5.1814-0.6124-2.536 1.1766-3.7486 4.1823-1.7449 7.7294 1.4234 2.5227 3.946 4.425 8.3456 7.8334 4.401-3.4084 6.9222-5.3094 8.347-7.8334 2.0037-3.5471 0.7897-6.5528-1.7463-7.7294z"
     enable-background="new"
     fill="#fff"
     opacity=".75"
     stroke-width="3.7797"
     style="isolation:isolate"
     id="path52" />
</svg>
