<?xml version="1.0" encoding="UTF-8" standalone="no"?>
<svg
   width="48"
   height="48"
   version="1"
   id="svg54"
   sodipodi:docname="folder-owncloud.svg"
   inkscape:version="1.1 (c4e8f9ed74, 2021-05-24)"
   xmlns:inkscape="http://www.inkscape.org/namespaces/inkscape"
   xmlns:sodipodi="http://sodipodi.sourceforge.net/DTD/sodipodi-0.dtd"
   xmlns:xlink="http://www.w3.org/1999/xlink"
   xmlns="http://www.w3.org/2000/svg"
   xmlns:svg="http://www.w3.org/2000/svg">
  <sodipodi:namedview
     id="namedview56"
     pagecolor="#ffffff"
     bordercolor="#666666"
     borderopacity="1.0"
     inkscape:pageshadow="2"
     inkscape:pageopacity="0.0"
     inkscape:pagecheckerboard="0"
     showgrid="false"
     inkscape:zoom="15.145833"
     inkscape:cx="23.966988"
     inkscape:cy="24"
     inkscape:window-width="1852"
     inkscape:window-height="1052"
     inkscape:window-x="68"
     inkscape:window-y="28"
     inkscape:window-maximized="1"
     inkscape:current-layer="svg54" />
  <defs
     id="defs32">
    <linearGradient
       id="linearGradient13838"
       x1="321"
       x2="367"
       y1="106"
       y2="63"
       gradientTransform="translate(-320 -60)"
       gradientUnits="userSpaceOnUse">
      <stop
         stop-color="#2c001e"
         offset="0"
         id="stop2" />
      <stop
         stop-color="#2c001e"
         offset=".10865"
         id="stop4" />
      <stop
         stop-color="#370626"
         offset=".1869"
         id="stop6" />
      <stop
         stop-color="#55163b"
         offset=".29807"
         id="stop8" />
      <stop
         stop-color="#772953"
         offset=".37246"
         id="stop10" />
      <stop
         stop-color="#7c2b51"
         offset=".44701"
         id="stop12" />
      <stop
         stop-color="#8b314b"
         offset=".52429"
         id="stop14" />
      <stop
         stop-color="#8b314b"
         offset=".59614"
         id="stop16" />
      <stop
         stop-color="#a33a41"
         offset=".66876"
         id="stop18" />
      <stop
         stop-color="#c44732"
         offset=".79755"
         id="stop20" />
      <stop
         stop-color="#e65524"
         offset=".91251"
         id="stop22" />
      <stop
         stop-color="#e65524"
         offset="1"
         id="stop24" />
    </linearGradient>
    <linearGradient
       id="linearGradient13848"
       x1="321"
       x2="367"
       y1="70"
       y2="105"
       gradientTransform="translate(-320 -60)"
       gradientUnits="userSpaceOnUse">
      <stop
         stop-color="#666"
         offset="0"
         id="stop27" />
      <stop
         stop-color="#7a7a7a"
         offset="1"
         id="stop29" />
    </linearGradient>
    <linearGradient
       inkscape:collect="always"
       xlink:href="#linearGradient1024"
       id="linearGradient1026"
       x1="1.0019531"
       y1="15.499131"
       x2="47.008251"
       y2="15.499131"
       gradientUnits="userSpaceOnUse"
       gradientTransform="translate(0.062838,2.7e-4)" />
    <linearGradient
       inkscape:collect="always"
       id="linearGradient1024">
      <stop
         style="stop-color:#1abc93;stop-opacity:1;"
         offset="0"
         id="stop1020" />
      <stop
         style="stop-color:#34be5b;stop-opacity:1"
         offset="1"
         id="stop1022" />
    </linearGradient>
  </defs>
  <path
     d="m9.8125 4.0002c-2.9004 0-5.051-0.095-6.6562 1.1191-0.8135 0.61532-1.3536 1.5422-1.6641 2.7168-0.3093 1.1699-0.4278 2.6138-0.4278 4.4883v9.4062 3.2695 12.27c0 1.9522 0.053 3.4414 0.2676 4.6445 0.2154 1.2059 0.6222 2.1846 1.3868 2.8652 0.7626 0.67895 1.7527 0.95992 2.8945 1.0918 1.1408 0.13175 2.4963 0.12891 4.1992 0.12891h28.504c1.6708 0 3.0101 2e-3 4.1445-0.12891 1.1353-0.13187 2.1255-0.41132 2.8946-1.0859 0.7708-0.67622 1.1929-1.653 1.4199-2.8613 0.2265-1.2056 0.2871-2.6992 0.2871-4.6543v-18.539c0-0.25826-0.012-0.42611-0.014-0.60547v-0.0117l0.014-1.875c0.013-1.8102 0.019-3.2511-0.1152-4.4551-0.134-1.2042-0.4167-2.2304-1.0957-3.0273-0.682-0.80032-1.6746-1.2402-2.8907-1.4707-1.2123-0.22969-2.7045-0.28516-4.6465-0.28516h-15.902l-3-3z"
     color="#000000"
     color-rendering="auto"
     dominant-baseline="auto"
     image-rendering="auto"
     opacity=".1"
     shape-rendering="auto"
     solid-color="#000000"
     style="font-feature-settings:normal;font-variant-alternates:normal;font-variant-caps:normal;font-variant-ligatures:normal;font-variant-numeric:normal;font-variant-position:normal;isolation:auto;mix-blend-mode:normal;shape-padding:0;text-decoration-color:#000000;text-decoration-line:none;text-decoration-style:solid;text-indent:0;text-orientation:mixed;text-transform:none;white-space:normal"
     id="path34" />
  <path
     id="path38-3"
     style="font-variant-ligatures:normal;font-variant-position:normal;font-variant-caps:normal;font-variant-numeric:normal;font-variant-alternates:normal;font-feature-settings:normal;text-indent:0;text-decoration-line:none;text-decoration-style:solid;text-decoration-color:#000000;text-transform:none;text-orientation:mixed;white-space:normal;shape-padding:0;isolation:auto;mix-blend-mode:normal;fill:url(#linearGradient1026);fill-opacity:1"
     d="m 9.812838,3.00027 c -2.9004,0 -5.05105,-0.094959 -6.65625,1.1191406 -0.8135,0.61532 -1.3535625,1.5421969 -1.6640625,2.7167969 C 1.4152005,7.1287073 1.3498584,7.4367203 1.2952599,7.765895 1.131178,8.7538353 1.064791,9.9176735 1.064791,11.324489 v 8.675781 8 h 46 v -8 -2.269531 c 0,-0.2583 -0.01167,-0.426069 -0.01367,-0.605469 v -0.01172 l 0.01367,-1.875 c 0.0097,-1.35765 0.01527,-2.507822 -0.03906,-3.505859 -0.01811,-0.332681 -0.04262,-0.648219 -0.07617,-0.949219 C 46.865807,10.030848 46.723595,9.3474018 46.463229,8.7463638 46.359082,8.5059434 46.236144,8.2780814 46.090182,8.0647231 46.017201,7.9580452 45.938741,7.8557419 45.853854,7.7561294 45.768288,7.6557072 45.67755,7.560347 45.582369,7.4709731 44.918916,6.8474741 44.027229,6.4871138 42.963229,6.2854262 41.750829,6.0557462 40.258744,6.00027 38.316744,6.00027 H 22.4144 l -3,-3 z" />
  <path
     d="m23.002 10-3.002 3h-10.188c-6.8128 0-7.748-2.1e-4 -7.748 7.7305v1c0-7.7307 0.9352-7.7305 7.748-7.7305h10.188l3.002-3h15.314c6.6839 0 7.7481-2.1e-4 7.7481 7.7305v-1c0-7.7307-1.0642-7.7305-7.7481-7.7305z"
     color="#000000"
     fill="#fff"
     opacity=".3"
     id="path38" />
  <path
     d="m38.323 10c2.9004 0 5.051-0.095 6.6562 1.1191 0.8135 0.61532 1.3536 1.5422 1.6641 2.7168 0.3092 1.1699 0.4277 2.6138 0.4277 4.4883v9.4062 4.2695 4.2695c0 1.9522-0.053 3.4414-0.2676 4.6445-0.2153 1.2059-0.6221 2.1846-1.3867 2.8652-0.7627 0.67895-1.7527 0.95992-2.8945 1.0918-1.1408 0.13175-2.4963 0.12891-4.1992 0.12891h-28.504c-1.6707 0-3.0101 2e-3 -4.1445-0.12891-1.1352-0.13187-2.1255-0.41132-2.8945-1.0859-0.7709-0.67622-1.193-1.653-1.4199-2.8613-0.2265-1.2056-0.2871-2.6992-0.2871-4.6543v-11.539c0-0.25826 0.012-0.42611 0.014-0.60547v-0.0117l-0.014-1.875c-0.013-1.8102-0.019-3.2511 0.1152-4.4551 0.134-1.2042 0.4166-2.2304 1.0957-3.0273 0.6819-0.80032 1.6746-1.2402 2.8906-1.4707 1.2125-0.22968 2.7144-0.48029 4.6466-0.28516h9.9023l3-3z"
     color="#000000"
     color-rendering="auto"
     dominant-baseline="auto"
     fill="url(#linearGradient13848)"
     image-rendering="auto"
     shape-rendering="auto"
     solid-color="#000000"
     style="font-feature-settings:normal;font-variant-alternates:normal;font-variant-caps:normal;font-variant-ligatures:normal;font-variant-numeric:normal;font-variant-position:normal;isolation:auto;mix-blend-mode:normal;shape-padding:0;text-decoration-color:#000000;text-decoration-line:none;text-decoration-style:solid;text-indent:0;text-orientation:mixed;text-transform:none;white-space:normal"
     id="path40" />
  <path
     d="m47 32-12 12h4.6886c6.6316 0 7.3114-0.67952 7.3114-7.2979z"
     color="#000000"
     fill="#fff"
     opacity=".05"
     id="path42" />
  <path
     d="m1.0645 35.27v1c0 1.9522 0.053 3.4414 0.2675 4.6445 0.2154 1.2059 0.6222 2.1846 1.3868 2.8652 0.7626 0.67895 1.7527 0.95992 2.8945 1.0918 1.1408 0.13175 2.4963 0.12891 4.1992 0.12891h28.504c1.6708 0 3.0101 2e-3 4.1445-0.12891 1.1353-0.13187 2.1255-0.41132 2.8946-1.0859 0.7708-0.67622 1.1929-1.653 1.4199-2.8613 0.2265-1.2056 0.2871-2.6992 0.2871-4.6543v-1c0 1.9551-0.061 3.4487-0.2871 4.6543-0.227 1.2083-0.6491 2.1851-1.4199 2.8613-0.7691 0.67461-1.7593 0.95406-2.8946 1.0859-1.1344 0.13091-2.4737 0.12891-4.1445 0.12891h-28.504c-1.7029 0-3.0584 3e-3 -4.1992-0.12891-1.1418-0.13187-2.1319-0.41284-2.8945-1.0918-0.7646-0.68069-1.1714-1.6594-1.3868-2.8652-0.2147-1.2032-0.2676-2.6923-0.2675-4.6445z"
     color="#000000"
     color-rendering="auto"
     dominant-baseline="auto"
     image-rendering="auto"
     opacity=".2"
     shape-rendering="auto"
     solid-color="#000000"
     style="font-feature-settings:normal;font-variant-alternates:normal;font-variant-caps:normal;font-variant-ligatures:normal;font-variant-numeric:normal;font-variant-position:normal;isolation:auto;mix-blend-mode:normal;shape-padding:0;text-decoration-color:#000000;text-decoration-line:none;text-decoration-style:solid;text-indent:0;text-orientation:mixed;text-transform:none;white-space:normal"
     id="path44" />
  <path
     d="m22.721 10-3 3h-9.9023c-1.9322-0.19513-3.4341 0.0555-4.6465 0.28516-1.216 0.23047-2.2087 0.67039-2.8906 1.4707-0.6791 0.79696-0.9618 1.8231-1.0957 3.0273-0.073 0.65514-0.1018 1.4-0.1133 2.2168h0.039c0.017-0.42337 0.034-0.85058 0.074-1.2168 0.134-1.2042 0.4166-2.2304 1.0957-3.0273 0.6819-0.80031 1.6746-1.2402 2.8906-1.4707 1.2124-0.22968 2.7143-0.48029 4.6465-0.28516h9.9023l3-3h15.602c2.9004 0 5.051-0.095 6.6562 1.1191 0.8135 0.61532 1.3536 1.5422 1.6641 2.7168 0.3092 1.1699 0.4277 2.6138 0.4277 4.4883v-1c0-1.8745-0.1185-3.3183-0.4277-4.4883-0.3105-1.1746-0.8506-2.1015-1.6641-2.7168-1.6052-1.2142-3.7558-1.1191-6.6562-1.1191z"
     color="#000000"
     color-rendering="auto"
     dominant-baseline="auto"
     fill="#fff"
     image-rendering="auto"
     opacity=".2"
     shape-rendering="auto"
     solid-color="#000000"
     style="font-feature-settings:normal;font-variant-alternates:normal;font-variant-caps:normal;font-variant-ligatures:normal;font-variant-numeric:normal;font-variant-position:normal;isolation:auto;mix-blend-mode:normal;shape-padding:0;text-decoration-color:#000000;text-decoration-line:none;text-decoration-style:solid;text-indent:0;text-orientation:mixed;text-transform:none;white-space:normal"
     id="path46" />
  <path
     d="m22.721 9.0002-3 3h-9.9023c-1.9322-0.19513-3.4341 0.0555-4.6465 0.28516-1.216 0.23047-2.2087 0.67039-2.8906 1.4707-0.6791 0.79696-0.9618 1.8231-1.0957 3.0273-0.073 0.65514-0.1018 1.4-0.1133 2.2168h0.039c0.017-0.42337 0.034-0.85058 0.074-1.2168 0.134-1.2042 0.4166-2.2304 1.0957-3.0273 0.6819-0.80031 1.6746-1.2402 2.8906-1.4707 1.2124-0.22968 2.7143-0.48029 4.6465-0.28516h9.9023l3-3h15.602c2.9004 0 5.051-0.095 6.6562 1.1191 0.8135 0.61532 1.3536 1.5422 1.6641 2.7168 0.3092 1.1699 0.4277 2.6138 0.4277 4.4883v-1c0-1.8745-0.1185-3.3183-0.4277-4.4883-0.3105-1.1746-0.8506-2.1015-1.6641-2.7168-1.6052-1.2142-3.7558-1.1191-6.6562-1.1191z"
     color="#000000"
     color-rendering="auto"
     dominant-baseline="auto"
     fill="#732206"
     image-rendering="auto"
     opacity=".1"
     shape-rendering="auto"
     solid-color="#000000"
     style="font-feature-settings:normal;font-variant-alternates:normal;font-variant-caps:normal;font-variant-ligatures:normal;font-variant-numeric:normal;font-variant-position:normal;isolation:auto;mix-blend-mode:normal;shape-padding:0;text-decoration-color:#000000;text-decoration-line:none;text-decoration-style:solid;text-indent:0;text-orientation:mixed;text-transform:none;white-space:normal"
     id="path48" />
  <path
     d="m9.8125 3.0002c-2.9004 0-5.051-0.095-6.6562 1.1191-0.8135 0.61532-1.3536 1.5422-1.6641 2.7168-0.3093 1.1699-0.4278 2.6138-0.4278 4.4883v1c0-1.8745 0.1185-3.3183 0.4278-4.4883 0.3105-1.1746 0.8505-2.1015 1.6641-2.7168 1.6052-1.2142 3.7558-1.1191 6.6562-1.1191h9.6016l3 3h15.902c1.942 0 3.4341 0.0555 4.6465 0.28516 1.216 0.23047 2.2087 0.67039 2.8906 1.4707 0.6791 0.79696 0.9617 1.8231 1.0957 3.0273 0.067 0.60198 0.1 1.263 0.1133 2 0-1.1279-0.019-2.1528-0.1133-3-0.134-1.2042-0.4166-2.2304-1.0957-3.0273-0.6819-0.80031-1.6746-1.2402-2.8906-1.4707-1.2124-0.22968-2.7045-0.28516-4.6465-0.28516h-15.902l-3-3zm37.244 14.367-0.01 0.74609v0.0117c0 0.17936 0.014 0.34721 0.014 0.60547v-1c0-0.15495 0-0.25141-0.01-0.36328z"
     color="#000000"
     color-rendering="auto"
     dominant-baseline="auto"
     fill="#fff"
     image-rendering="auto"
     opacity=".2"
     shape-rendering="auto"
     solid-color="#000000"
     style="font-feature-settings:normal;font-variant-alternates:normal;font-variant-caps:normal;font-variant-ligatures:normal;font-variant-numeric:normal;font-variant-position:normal;isolation:auto;mix-blend-mode:normal;shape-padding:0;text-decoration-color:#000000;text-decoration-line:none;text-decoration-style:solid;text-indent:0;text-orientation:mixed;text-transform:none;white-space:normal"
     id="path50" />
  <path
     d="m23.212 25.338c-0.2908 0-0.5811 0.066-0.8444 0.1824-0.1631 0.072-0.4381 0.2556-0.5823 0.3883-0.1539 0.1415-0.3529 0.4058-0.4489 0.5969-0.3511 0.6982-0.3096 1.4882 0.1131 2.1531l0.074 0.1156 0.1722-0.171a3.2993 3.2993 0 0 1 1.7276-0.9006c0.2837-0.052 0.7032-0.061 0.994-0.022 0.2718 0.036 0.6277 0.1281 0.8133 0.2105l0.1165 0.052 0.016-0.077c0.01-0.043 0.016-0.2285 0.015-0.413 0-0.3687-0.03-0.512-0.1546-0.8131-0.2017-0.4857-0.6664-0.9437-1.1642-1.1466-0.2648-0.108-0.5561-0.1593-0.8468-0.1545zm-2.8256 0.9977c-0.2676 0.013-0.5305 0.1253-0.7327 0.3278-0.3338 0.3344-0.4259 0.8205-0.2358 1.2452 0.019 0.043 0.039 0.078 0.043 0.078 0 0 0.071-0.032 0.1486-0.071 0.2932-0.1479 0.7011-0.2438 1.0378-0.2438h0.1909v-0.2253c0-0.2633 0.048-0.5269 0.1313-0.7613 0.067-0.1899 0.071-0.181-0.1111-0.2617-0.1518-0.067-0.3142-0.096-0.4747-0.088zm5.2539 0.7639 0.013 0.2395c0.012 0.2117-0.01 0.4587-0.047 0.6682-0.01 0.049 0.01 0.065 0.1525 0.1582 0.4093 0.26 0.8175 0.6789 1.0375 1.0645 0.038 0.066 0.078 0.116 0.09 0.1111 0.3679-0.1592 0.6146-0.2334 0.8517-0.2554l0.142-0.013v-0.068c0-0.1343-0.1052-0.4837-0.2088-0.6929-0.2908-0.5876-0.8471-1.0226-1.473-1.152-0.091-0.019-0.2533-0.04-0.3613-0.047zm-4.8511 0.8244c-0.156-0.01-0.4831 0.031-0.709 0.097-1.2366 0.3592-1.9546 1.6477-1.6046 2.8795 0.1139 0.4007 0.3643 0.8098 0.6628 1.083 0.082 0.075 0.1522 0.1372 0.1551 0.1372 0 0 0.038-0.05 0.077-0.1119 0.2508-0.3932 0.7111-0.6435 1.1835-0.6435h0.1801v-0.4037c0-0.334 0.01-0.4447 0.047-0.6395 0.083-0.4144 0.254-0.8399 0.4769-1.186l0.091-0.1415-0.1167-0.1795c-0.166-0.2554-0.2437-0.4443-0.3554-0.8645 0-0.015-0.037-0.023-0.089-0.026zm3.3801 0c-0.2785-0.01-0.6332 0.014-0.8093 0.056-1.1803 0.2752-2.0556 1.1654-2.3151 2.3542-0.055 0.2541-0.055 0.9403 0 1.1946 0.2703 1.2384 1.2188 2.1591 2.4512 2.3798 0.2243 0.04 0.7461 0.042 0.9835 0 0.8336-0.1367 1.5993-0.6402 2.0548-1.3508 0.1212-0.189 0.2926-0.5638 0.3514-0.7685 0.1173-0.4087 0.1504-0.9308 0.085-1.3372-0.1116-0.6956-0.4714-1.3434-1.0022-1.8037-0.4359-0.3777-0.996-0.6334-1.5557-0.7099-0.066-0.01-0.1509-0.015-0.2438-0.017zm3.9494 1.4008c-0.3405-0.01-0.6879 0.063-1.0261 0.2097l-0.1071 0.046 0.062 0.1491c0.034 0.082 0.089 0.254 0.121 0.3821 0.2632 1.0451 0.018 2.1175-0.6741 2.9438-0.1663 0.1986-0.1679 0.1788 0.033 0.3599 0.3253 0.2937 0.8002 0.5108 1.2372 0.5656 0.7476 0.094 1.4741-0.1672 1.9906-0.715 0.3328-0.3528 0.5485-0.7912 0.6156-1.2512 0.035-0.2408 0.015-0.6997-0.04-0.919-0.1368-0.5451-0.5037-1.0676-0.9662-1.3761-0.3818-0.2547-0.8082-0.3873-1.2461-0.3952zm-9.9212 0.3097-0.2176 0.012c-0.5005 0.028-0.9751 0.2456-1.3455 0.617-0.7625 0.7646-0.8473 1.9546-0.2005 2.8151 0.3418 0.455 0.8383 0.7504 1.4139 0.8414 0.2101 0.033 0.5998 0.01 0.8338-0.05 0.1902-0.049 0.5301-0.1968 0.6275-0.2733 0.039-0.031 0.038-0.036-0.037-0.1963-0.1333-0.285-0.1715-0.5951-0.1088-0.885 0.029-0.1324 0.028-0.1376-0.016-0.1747-0.5152-0.4306-0.7932-0.8581-0.9494-1.4602-0.084-0.3237-0.09-0.8736-0.013-1.1954zm12.622 1.8559c-0.032 0-0.06 0-0.083 0.01l-0.073 0.014v0.1653c0 0.5764-0.2097 1.1662-0.577 1.6224-0.075 0.094-0.1093 0.1519-0.099 0.1705 0.059 0.1025 0.3566 0.2829 0.5557 0.3366 0.1466 0.04 0.4384 0.04 0.5897 0 0.4022-0.1049 0.7664-0.4842 0.8492-0.884 0.036-0.1727 0.016-0.4925-0.039-0.6466-0.1235-0.3427-0.4362-0.6372-0.7776-0.7318-0.1166-0.032-0.2493-0.051-0.346-0.052zm-10.236 0.127c-0.041-1e-4 -0.084 0-0.1264 0.01-0.6056 0.074-1.0503 0.5621-1.0512 1.1537 0 0.3474 0.101 0.5954 0.3441 0.8392 0.1573 0.1576 0.3301 0.2621 0.5159 0.3122 0.1496 0.04 0.4405 0.041 0.5929 0 0.178-0.047 0.3862-0.1636 0.5142-0.2889 0.1205-0.1182 0.2719-0.3364 0.2707-0.3904 0-0.018-0.057-0.1-0.127-0.1804-0.2702-0.3137-0.4842-0.6953-0.625-1.115-0.046-0.1369-0.084-0.2643-0.084-0.2832 0-0.033-0.102-0.055-0.2244-0.056z"
     enable-background="new"
     fill="#fff"
     opacity=".75"
     style="isolation:isolate"
     id="path52" />
</svg>
