<?xml version="1.0" encoding="UTF-8" standalone="no"?>
<svg
   width="48"
   height="48"
   version="1"
   id="svg57"
   sodipodi:docname="folder-git.svg"
   inkscape:version="1.1 (c4e8f9ed74, 2021-05-24)"
   xmlns:inkscape="http://www.inkscape.org/namespaces/inkscape"
   xmlns:sodipodi="http://sodipodi.sourceforge.net/DTD/sodipodi-0.dtd"
   xmlns:xlink="http://www.w3.org/1999/xlink"
   xmlns="http://www.w3.org/2000/svg"
   xmlns:svg="http://www.w3.org/2000/svg">
  <sodipodi:namedview
     id="namedview59"
     pagecolor="#ffffff"
     bordercolor="#666666"
     borderopacity="1.0"
     inkscape:pageshadow="2"
     inkscape:pageopacity="0.0"
     inkscape:pagecheckerboard="0"
     showgrid="false"
     inkscape:zoom="15.145833"
     inkscape:cx="23.966988"
     inkscape:cy="29.281981"
     inkscape:window-width="1852"
     inkscape:window-height="1052"
     inkscape:window-x="68"
     inkscape:window-y="28"
     inkscape:window-maximized="1"
     inkscape:current-layer="svg57" />
  <defs
     id="defs35">
    <clipPath
       id="a-2-0">
      <path
         d="m0 0h92v92h-92z"
         id="path2" />
    </clipPath>
    <linearGradient
       id="linearGradient13838"
       x1="321"
       x2="367"
       y1="106"
       y2="63"
       gradientTransform="translate(-320 -60)"
       gradientUnits="userSpaceOnUse">
      <stop
         stop-color="#2c001e"
         offset="0"
         id="stop5" />
      <stop
         stop-color="#2c001e"
         offset=".10865"
         id="stop7" />
      <stop
         stop-color="#370626"
         offset=".1869"
         id="stop9" />
      <stop
         stop-color="#55163b"
         offset=".29807"
         id="stop11" />
      <stop
         stop-color="#772953"
         offset=".37246"
         id="stop13" />
      <stop
         stop-color="#7c2b51"
         offset=".44701"
         id="stop15" />
      <stop
         stop-color="#8b314b"
         offset=".52429"
         id="stop17" />
      <stop
         stop-color="#8b314b"
         offset=".59614"
         id="stop19" />
      <stop
         stop-color="#a33a41"
         offset=".66876"
         id="stop21" />
      <stop
         stop-color="#c44732"
         offset=".79755"
         id="stop23" />
      <stop
         stop-color="#e65524"
         offset=".91251"
         id="stop25" />
      <stop
         stop-color="#e65524"
         offset="1"
         id="stop27" />
    </linearGradient>
    <linearGradient
       id="linearGradient13848"
       x1="321"
       x2="367"
       y1="70"
       y2="105"
       gradientTransform="translate(-320 -60)"
       gradientUnits="userSpaceOnUse">
      <stop
         stop-color="#666"
         offset="0"
         id="stop30" />
      <stop
         stop-color="#7a7a7a"
         offset="1"
         id="stop32" />
    </linearGradient>
    <linearGradient
       inkscape:collect="always"
       xlink:href="#linearGradient1024"
       id="linearGradient1026"
       x1="1.0019531"
       y1="15.499131"
       x2="47.008251"
       y2="15.499131"
       gradientUnits="userSpaceOnUse"
       gradientTransform="translate(0.062538,2e-4)" />
    <linearGradient
       inkscape:collect="always"
       id="linearGradient1024">
      <stop
         style="stop-color:#1abc93;stop-opacity:1;"
         offset="0"
         id="stop1020" />
      <stop
         style="stop-color:#34be5b;stop-opacity:1"
         offset="1"
         id="stop1022" />
    </linearGradient>
  </defs>
  <path
     d="m9.8125 4.0002c-2.9004 0-5.051-0.095-6.6562 1.1191-0.8135 0.61532-1.3536 1.5422-1.6641 2.7168-0.3093 1.1699-0.4278 2.6138-0.4278 4.4883v9.4062 3.2695 12.27c0 1.9522 0.053 3.4414 0.2676 4.6445 0.2154 1.2059 0.6222 2.1846 1.3868 2.8652 0.7626 0.67895 1.7527 0.95992 2.8945 1.0918 1.1408 0.13175 2.4963 0.12891 4.1992 0.12891h28.504c1.6708 0 3.0101 2e-3 4.1445-0.12891 1.1353-0.13187 2.1255-0.41132 2.8946-1.0859 0.7708-0.67622 1.1929-1.653 1.4199-2.8613 0.2265-1.2056 0.2871-2.6992 0.2871-4.6543v-18.539c0-0.25826-0.012-0.42611-0.014-0.60547v-0.0117l0.014-1.875c0.013-1.8102 0.019-3.2511-0.1152-4.4551-0.134-1.2042-0.4167-2.2304-1.0957-3.0273-0.682-0.80032-1.6746-1.2402-2.8907-1.4707-1.2123-0.22969-2.7045-0.28516-4.6465-0.28516h-15.902l-3-3z"
     color="#000000"
     color-rendering="auto"
     dominant-baseline="auto"
     image-rendering="auto"
     opacity=".1"
     shape-rendering="auto"
     solid-color="#000000"
     style="font-feature-settings:normal;font-variant-alternates:normal;font-variant-caps:normal;font-variant-ligatures:normal;font-variant-numeric:normal;font-variant-position:normal;isolation:auto;mix-blend-mode:normal;shape-padding:0;text-decoration-color:#000000;text-decoration-line:none;text-decoration-style:solid;text-indent:0;text-orientation:mixed;text-transform:none;white-space:normal"
     id="path37" />
  <path
     id="path38-3"
     style="font-variant-ligatures:normal;font-variant-position:normal;font-variant-caps:normal;font-variant-numeric:normal;font-variant-alternates:normal;font-feature-settings:normal;text-indent:0;text-decoration-line:none;text-decoration-style:solid;text-decoration-color:#000000;text-transform:none;text-orientation:mixed;white-space:normal;shape-padding:0;isolation:auto;mix-blend-mode:normal;fill:url(#linearGradient1026);fill-opacity:1"
     d="m 9.812538,3.0002 c -2.9004,0 -5.05105,-0.094959 -6.65625,1.1191406 -0.8135,0.61532 -1.353562,1.5421969 -1.664063,2.7167969 C 1.414905,7.1286373 1.349558,7.4366503 1.29496,7.765825 1.130878,8.7537649 1.064491,9.9176039 1.064491,11.324419 v 8.675781 8 h 46 v -8 -2.269531 c 0,-0.2583 -0.01167,-0.426069 -0.01367,-0.605469 v -0.01172 l 0.01367,-1.875 c 0.0097,-1.35765 0.01527,-2.507822 -0.03906,-3.505859 -0.01811,-0.332681 -0.04262,-0.648219 -0.07617,-0.949219 C 46.865511,10.030778 46.723295,9.3473319 46.462929,8.7462939 46.358782,8.5058734 46.235844,8.2780114 46.089882,8.0646531 46.016901,7.9579752 45.938441,7.8556719 45.853554,7.7560594 45.767988,7.6556372 45.67725,7.560277 45.582069,7.4709031 44.918616,6.8474041 44.026929,6.4870438 42.962929,6.2853562 41.750529,6.0556762 40.258444,6.0002 38.316444,6.0002 H 22.4141 l -3,-3 z" />
  <path
     d="m23.002 10-3.002 3h-10.187c-6.8128 0-7.748-2.1e-4 -7.748 7.7305v1c0-7.7307 0.9352-7.7305 7.748-7.7305h10.187l3.002-3h15.314c6.6839 0 7.7481-2.1e-4 7.7481 7.7305v-1c0-7.7307-1.0642-7.7305-7.7481-7.7305z"
     color="#000000"
     fill="#fff"
     opacity=".3"
     id="path41" />
  <path
     d="m38.323 10c2.9004 0 5.051-0.095 6.6562 1.1191 0.8135 0.61532 1.3536 1.5422 1.6641 2.7168 0.3092 1.1699 0.4277 2.6138 0.4277 4.4883v9.4062 4.2695 4.2695c0 1.9522-0.053 3.4414-0.2676 4.6445-0.2153 1.2059-0.6221 2.1846-1.3867 2.8652-0.7627 0.67895-1.7527 0.95992-2.8945 1.0918-1.1408 0.13175-2.4963 0.12891-4.1992 0.12891h-28.504c-1.6707 0-3.0101 2e-3 -4.1445-0.12891-1.1352-0.13187-2.1255-0.41132-2.8945-1.0859-0.7709-0.67622-1.193-1.653-1.4199-2.8613-0.2265-1.2056-0.2871-2.6992-0.2871-4.6543v-11.539c0-0.25826 0.012-0.42611 0.014-0.60547v-0.0117l-0.014-1.875c-0.013-1.8102-0.019-3.2511 0.1152-4.4551 0.134-1.2042 0.4166-2.2304 1.0957-3.0273 0.6819-0.80032 1.6746-1.2402 2.8906-1.4707 1.2125-0.22968 2.7144-0.48029 4.6466-0.28516h9.9023l3-3z"
     color="#000000"
     color-rendering="auto"
     dominant-baseline="auto"
     fill="url(#linearGradient13848)"
     image-rendering="auto"
     shape-rendering="auto"
     solid-color="#000000"
     style="font-feature-settings:normal;font-variant-alternates:normal;font-variant-caps:normal;font-variant-ligatures:normal;font-variant-numeric:normal;font-variant-position:normal;isolation:auto;mix-blend-mode:normal;shape-padding:0;text-decoration-color:#000000;text-decoration-line:none;text-decoration-style:solid;text-indent:0;text-orientation:mixed;text-transform:none;white-space:normal"
     id="path43" />
  <path
     d="m47 32-12 12h4.6886c6.6316 0 7.3114-0.67952 7.3114-7.2979z"
     color="#000000"
     fill="#fff"
     opacity=".05"
     id="path45" />
  <path
     d="m1.0645 35.27v1c0 1.9522 0.053 3.4414 0.2675 4.6445 0.2154 1.2059 0.6222 2.1846 1.3868 2.8652 0.7626 0.67895 1.7527 0.95992 2.8945 1.0918 1.1408 0.13175 2.4963 0.12891 4.1992 0.12891h28.504c1.6708 0 3.0101 2e-3 4.1445-0.12891 1.1353-0.13187 2.1255-0.41132 2.8946-1.0859 0.7708-0.67622 1.1929-1.653 1.4199-2.8613 0.2265-1.2056 0.2871-2.6992 0.2871-4.6543v-1c0 1.9551-0.061 3.4487-0.2871 4.6543-0.227 1.2083-0.6491 2.1851-1.4199 2.8613-0.7691 0.67461-1.7593 0.95406-2.8946 1.0859-1.1344 0.13091-2.4737 0.12891-4.1445 0.12891h-28.504c-1.7029 0-3.0584 3e-3 -4.1992-0.12891-1.1418-0.13187-2.1319-0.41284-2.8945-1.0918-0.7646-0.68069-1.1714-1.6594-1.3868-2.8652-0.2147-1.2032-0.2676-2.6923-0.2675-4.6445z"
     color="#000000"
     color-rendering="auto"
     dominant-baseline="auto"
     image-rendering="auto"
     opacity=".2"
     shape-rendering="auto"
     solid-color="#000000"
     style="font-feature-settings:normal;font-variant-alternates:normal;font-variant-caps:normal;font-variant-ligatures:normal;font-variant-numeric:normal;font-variant-position:normal;isolation:auto;mix-blend-mode:normal;shape-padding:0;text-decoration-color:#000000;text-decoration-line:none;text-decoration-style:solid;text-indent:0;text-orientation:mixed;text-transform:none;white-space:normal"
     id="path47" />
  <path
     d="m22.721 10-3 3h-9.9023c-1.9322-0.19513-3.4341 0.0555-4.6465 0.28516-1.216 0.23047-2.2087 0.67039-2.8906 1.4707-0.6791 0.79696-0.9618 1.8231-1.0957 3.0273-0.073 0.65514-0.1018 1.4-0.1133 2.2168h0.039c0.017-0.42337 0.034-0.85058 0.074-1.2168 0.134-1.2042 0.4166-2.2304 1.0957-3.0273 0.6819-0.80031 1.6746-1.2402 2.8906-1.4707 1.2124-0.22968 2.7143-0.48029 4.6465-0.28516h9.9023l3-3h15.602c2.9004 0 5.051-0.095 6.6562 1.1191 0.8135 0.61532 1.3536 1.5422 1.6641 2.7168 0.3092 1.1699 0.4277 2.6138 0.4277 4.4883v-1c0-1.8745-0.1185-3.3183-0.4277-4.4883-0.3105-1.1746-0.8506-2.1015-1.6641-2.7168-1.6052-1.2142-3.7558-1.1191-6.6562-1.1191z"
     color="#000000"
     color-rendering="auto"
     dominant-baseline="auto"
     fill="#fff"
     image-rendering="auto"
     opacity=".2"
     shape-rendering="auto"
     solid-color="#000000"
     style="font-feature-settings:normal;font-variant-alternates:normal;font-variant-caps:normal;font-variant-ligatures:normal;font-variant-numeric:normal;font-variant-position:normal;isolation:auto;mix-blend-mode:normal;shape-padding:0;text-decoration-color:#000000;text-decoration-line:none;text-decoration-style:solid;text-indent:0;text-orientation:mixed;text-transform:none;white-space:normal"
     id="path49" />
  <path
     d="m22.721 9.0002-3 3h-9.9023c-1.9322-0.19513-3.4341 0.0555-4.6465 0.28516-1.216 0.23047-2.2087 0.67039-2.8906 1.4707-0.6791 0.79696-0.9618 1.8231-1.0957 3.0273-0.073 0.65514-0.1018 1.4-0.1133 2.2168h0.039c0.017-0.42337 0.034-0.85058 0.074-1.2168 0.134-1.2042 0.4166-2.2304 1.0957-3.0273 0.6819-0.80031 1.6746-1.2402 2.8906-1.4707 1.2124-0.22968 2.7143-0.48029 4.6465-0.28516h9.9023l3-3h15.602c2.9004 0 5.051-0.095 6.6562 1.1191 0.8135 0.61532 1.3536 1.5422 1.6641 2.7168 0.3092 1.1699 0.4277 2.6138 0.4277 4.4883v-1c0-1.8745-0.1185-3.3183-0.4277-4.4883-0.3105-1.1746-0.8506-2.1015-1.6641-2.7168-1.6052-1.2142-3.7558-1.1191-6.6562-1.1191z"
     color="#000000"
     color-rendering="auto"
     dominant-baseline="auto"
     fill="#732206"
     image-rendering="auto"
     opacity=".1"
     shape-rendering="auto"
     solid-color="#000000"
     style="font-feature-settings:normal;font-variant-alternates:normal;font-variant-caps:normal;font-variant-ligatures:normal;font-variant-numeric:normal;font-variant-position:normal;isolation:auto;mix-blend-mode:normal;shape-padding:0;text-decoration-color:#000000;text-decoration-line:none;text-decoration-style:solid;text-indent:0;text-orientation:mixed;text-transform:none;white-space:normal"
     id="path51" />
  <path
     d="m9.8125 3.0002c-2.9004 0-5.051-0.095-6.6562 1.1191-0.8135 0.61532-1.3536 1.5422-1.6641 2.7168-0.3093 1.1699-0.4278 2.6138-0.4278 4.4883v1c0-1.8745 0.1185-3.3183 0.4278-4.4883 0.3105-1.1746 0.8505-2.1015 1.6641-2.7168 1.6052-1.2142 3.7558-1.1191 6.6562-1.1191h9.6016l3 3h15.902c1.942 0 3.4341 0.0555 4.6465 0.28516 1.216 0.23047 2.2087 0.67039 2.8906 1.4707 0.6791 0.79696 0.9617 1.8231 1.0957 3.0273 0.067 0.60198 0.1 1.263 0.1133 2 0-1.1279-0.019-2.1528-0.1133-3-0.134-1.2042-0.4166-2.2304-1.0957-3.0273-0.6819-0.80031-1.6746-1.2402-2.8906-1.4707-1.2124-0.22968-2.7045-0.28516-4.6465-0.28516h-15.902l-3-3zm37.244 14.367-0.01 0.74609v0.0117c0 0.17936 0.014 0.34721 0.014 0.60547v-1c0-0.15495 0-0.25141-0.01-0.36328z"
     color="#000000"
     color-rendering="auto"
     dominant-baseline="auto"
     fill="#fff"
     image-rendering="auto"
     opacity=".2"
     shape-rendering="auto"
     solid-color="#000000"
     style="font-feature-settings:normal;font-variant-alternates:normal;font-variant-caps:normal;font-variant-ligatures:normal;font-variant-numeric:normal;font-variant-position:normal;isolation:auto;mix-blend-mode:normal;shape-padding:0;text-decoration-color:#000000;text-decoration-line:none;text-decoration-style:solid;text-indent:0;text-orientation:mixed;text-transform:none;white-space:normal"
     id="path53" />
  <path
     transform="matrix(.61529 0 0 .61529 14.164 18.156)"
     d="m28.497 14.84-11.354-11.353c-0.653-0.654-1.714-0.654-2.368 0l-2.357 2.358 2.99 2.991c0.695-0.235 1.492-0.077 2.046 0.477 0.557 0.558 0.713 1.361 0.473 2.059l2.882 2.882c0.698-0.241 1.502-0.085 2.059 0.473 0.778 0.778 0.778 2.039 0 2.818-0.779 0.779-2.04 0.779-2.819 0-0.586-0.586-0.73-1.446-0.434-2.167l-2.688-2.688v7.074c0.19 0.094 0.369 0.219 0.527 0.377 0.778 0.778 0.778 2.039 0 2.819-0.778 0.778-2.04 0.778-2.818 0-0.778-0.779-0.778-2.04 0-2.819 0.192-0.192 0.415-0.338 0.653-0.435v-7.14c-0.237-0.097-0.46-0.241-0.653-0.435-0.589-0.589-0.731-1.455-0.429-2.179l-2.948-2.949-7.785 7.785c-0.654 0.655-0.654 1.715 0 2.369l11.354 11.353c0.654 0.654 1.714 0.654 2.369 0l11.3-11.301c0.654-0.654 0.654-1.715 0-2.369"
     clip-path="url(#a-2-0)"
     enable-background="new"
     fill="#fff"
     opacity=".75"
     id="path55" />
</svg>
