<?xml version="1.0" encoding="UTF-8" standalone="no"?>
<svg
   width="48"
   height="48"
   version="1.1"
   id="svg26"
   sodipodi:docname="user-desktop.svg"
   inkscape:version="1.1 (c4e8f9ed74, 2021-05-24)"
   xmlns:inkscape="http://www.inkscape.org/namespaces/inkscape"
   xmlns:sodipodi="http://sodipodi.sourceforge.net/DTD/sodipodi-0.dtd"
   xmlns="http://www.w3.org/2000/svg"
   xmlns:svg="http://www.w3.org/2000/svg">
  <sodipodi:namedview
     id="namedview28"
     pagecolor="#ffffff"
     bordercolor="#666666"
     borderopacity="1.0"
     inkscape:pageshadow="2"
     inkscape:pageopacity="0.0"
     inkscape:pagecheckerboard="0"
     showgrid="false"
     inkscape:zoom="15.145833"
     inkscape:cx="23.966988"
     inkscape:cy="24"
     inkscape:window-width="1852"
     inkscape:window-height="1052"
     inkscape:window-x="68"
     inkscape:window-y="28"
     inkscape:window-maximized="1"
     inkscape:current-layer="svg26" />
  <defs
     id="defs16">
    <linearGradient
       id="linearGradient962"
       x1="512"
       x2="-1e-6"
       y1="397.99"
       y2="125.99"
       gradientTransform="matrix(.11328 0 0 .11328 -4.0007 -9.4892)"
       gradientUnits="userSpaceOnUse">
      <stop
         stop-color="#fb7c38"
         offset="0"
         id="stop2"
         style="stop-color:#34be5b;stop-opacity:1" />
      <stop
         stop-color="#9b33ae"
         offset="1"
         id="stop4"
         style="stop-color:#1abc93;stop-opacity:1" />
    </linearGradient>
    <linearGradient
       id="linearGradient945"
       x1="348"
       x2="348"
       y1="65"
       y2="105"
       gradientTransform="translate(-320,-60)"
       gradientUnits="userSpaceOnUse">
      <stop
         stop-color="#fff"
         offset="0"
         id="stop7" />
      <stop
         stop-color="#fff"
         stop-opacity=".098039"
         offset=".125"
         id="stop9" />
      <stop
         stop-color="#fff"
         stop-opacity=".098039"
         offset=".925"
         id="stop11" />
      <stop
         stop-opacity=".49804"
         offset="1"
         id="stop13" />
    </linearGradient>
  </defs>
  <path
     d="m0.99928 35.269c0 2.2232 0.0512 3.9737 0.29297 5.4141 0.24178 1.4404 0.69529 2.619 1.5566 3.4824 0.86134 0.86337 2.0395 1.3191 3.4805 1.5586 1.441 0.23953 3.1954 0.28629 5.4238 0.27539h12.246 12.252c2.2251 0.0108 3.9785-0.0361 5.418-0.27539 1.441-0.23953 2.6191-0.69522 3.4805-1.5586 0.86134-0.86338 1.3149-2.042 1.5566-3.4824 0.24179-1.4404 0.29297-3.1909 0.29297-5.4141v-16.539c0-2.2232-0.0511-3.9728-0.29297-5.4102-0.24189-1.4374-0.69694-2.6125-1.5586-3.4727-0.86165-0.8602-2.0389-1.3132-3.4785-1.5547-1.4396-0.24149-3.1904-0.29297-5.418-0.29297h-12.252-12.252c-2.2276 0-3.9784 0.0515-5.418 0.29297-1.4396 0.24149-2.6169 0.69449-3.4785 1.5547-0.86165 0.86019-1.3167 2.0353-1.5586 3.4727-0.24189 1.4374-0.29297 3.187-0.29297 5.4102z"
     color="#000000"
     color-rendering="auto"
     dominant-baseline="auto"
     image-rendering="auto"
     opacity=".1"
     shape-rendering="auto"
     solid-color="#000000"
     style="font-feature-settings:normal;font-variant-alternates:normal;font-variant-caps:normal;font-variant-ligatures:normal;font-variant-numeric:normal;font-variant-position:normal;isolation:auto;mix-blend-mode:normal;shape-padding:0;text-decoration-color:#000000;text-decoration-line:none;text-decoration-style:solid;text-indent:0;text-orientation:mixed;text-transform:none;white-space:normal"
     id="path18" />
  <path
     d="m11.748 5c-2.227 0-3.981 0.04964-5.4199 0.29102-1.4403 0.2416-2.6144 0.69396-3.4766 1.5547-0.86248 0.86102-1.3166 2.0367-1.5586 3.4746-0.08614 0.51187-0.14148 1.0808-0.18555 1.6797-0.07958 1.0817-0.10742 2.2998-0.10742 3.7305v18.539c0 2.2228 0.0514 3.9747 0.29297 5.4141 0.24191 1.4411 0.69492 2.6167 1.5566 3.4805 0.86187 0.86391 2.0388 1.319 3.4805 1.5586 1.4392 0.23922 3.1928 0.2882 5.4199 0.27734h12.25 12.248c2.2271 0.0108 3.9827-0.0381 5.4219-0.27734 1.4416-0.23964 2.6166-0.69468 3.4785-1.5586 0.86171-0.86375 1.3147-2.0394 1.5566-3.4805 0.24161-1.4393 0.29492-3.1912 0.29492-5.4141v-18.539c0-1.4306-0.0273-2.6488-0.10742-3.7305-0.0444-0.59894-0.10136-1.1678-0.1875-1.6797-0.24198-1.438-0.69415-2.6136-1.5566-3.4746-0.86218-0.86073-2.0382-1.3131-3.4785-1.5547-1.4299-0.23988-2.9603-0.29102-5.418-0.29102h-12.252z"
     color="#000000"
     fill="url(#linearGradient962)"
     id="path20" />
  <path
     d="m10.673 5.002c-1.9733 0.0018-3.5448 0.052-4.8295 0.28906-1.3093 0.2416-2.3767 0.69396-3.1605 1.5547-0.78408 0.86102-1.1969 2.0367-1.4169 3.4746-0.07828 0.51188-0.12862 1.0808-0.16869 1.6797-0.07234 1.0817-0.09765 2.2998-0.09765 3.7305v18.539c0 2.2228 0.0467 3.9747 0.26634 5.4141 0.21991 1.4411 0.63174 2.6167 1.4151 3.4805 0.78352 0.86391 1.8535 1.319 3.1641 1.5586 1.3083 0.23922 2.9025 0.2882 4.9272 0.27734h0.22727v-39.998z"
     enable-background="new"
     opacity=".3"
     id="path22" />
  <path
     d="m1.4993 34.269c0 2.2146 0.0547 3.9472 0.28711 5.332 0.23246 1.3848 0.65434 2.4455 1.418 3.2109s1.8223 1.1878 3.207 1.418 3.1184 0.28039 5.3379 0.26953h12.25 12.252c2.2183 0.0108 3.9518-0.0394 5.3359-0.26953 1.3847-0.23017 2.4434-0.65253 3.207-1.418s1.1855-1.8261 1.418-3.2109c0.23246-1.3848 0.28711-3.1174 0.28711-5.332v-18.539c0-2.2146-0.0546-3.9445-0.28711-5.3262-0.2325-1.3816-0.65418-2.4406-1.418-3.2031-0.76378-0.76249-1.823-1.1838-3.207-1.416-1.384-0.23217-2.8855-0.28516-5.3359-0.28516h-12.252-12.252c-2.2191 0-3.952 0.053-5.3359 0.28516s-2.4432 0.65352-3.207 1.416-1.1855 1.8215-1.418 3.2031c-0.2325 1.3816-0.28711 3.1116-0.28711 5.3262z"
     color="#000000"
     fill="none"
     opacity=".3"
     stroke="url(#linearGradient945)"
     id="path24" />
</svg>
