<?xml version="1.0" encoding="UTF-8" standalone="no"?>
<svg
   width="48"
   height="48"
   version="1"
   id="svg66"
   sodipodi:docname="user-home-open.svg"
   inkscape:version="1.1 (c4e8f9ed74, 2021-05-24)"
   xmlns:inkscape="http://www.inkscape.org/namespaces/inkscape"
   xmlns:sodipodi="http://sodipodi.sourceforge.net/DTD/sodipodi-0.dtd"
   xmlns:xlink="http://www.w3.org/1999/xlink"
   xmlns="http://www.w3.org/2000/svg"
   xmlns:svg="http://www.w3.org/2000/svg">
  <sodipodi:namedview
     id="namedview68"
     pagecolor="#ffffff"
     bordercolor="#666666"
     borderopacity="1.0"
     inkscape:pageshadow="2"
     inkscape:pageopacity="0.0"
     inkscape:pagecheckerboard="0"
     showgrid="false"
     inkscape:zoom="15.145833"
     inkscape:cx="23.966988"
     inkscape:cy="24"
     inkscape:window-width="1852"
     inkscape:window-height="1052"
     inkscape:window-x="68"
     inkscape:window-y="28"
     inkscape:window-maximized="1"
     inkscape:current-layer="svg66" />
  <defs
     id="defs32">
    <linearGradient
       inkscape:collect="always"
       id="linearGradient1024">
      <stop
         style="stop-color:#1abc93;stop-opacity:1;"
         offset="0"
         id="stop1020" />
      <stop
         style="stop-color:#34be5b;stop-opacity:1"
         offset="1"
         id="stop1022" />
    </linearGradient>
    <linearGradient
       id="linearGradient6525"
       x1="321"
       x2="367"
       y1="106"
       y2="63"
       gradientTransform="translate(-320.06 -60.001)"
       gradientUnits="userSpaceOnUse">
      <stop
         stop-color="#2c001e"
         offset="0"
         id="stop2" />
      <stop
         stop-color="#2c001e"
         offset=".10865"
         id="stop4" />
      <stop
         stop-color="#370626"
         offset=".1869"
         id="stop6" />
      <stop
         stop-color="#55163b"
         offset=".29807"
         id="stop8" />
      <stop
         stop-color="#772953"
         offset=".37246"
         id="stop10" />
      <stop
         stop-color="#7c2b51"
         offset=".44701"
         id="stop12" />
      <stop
         stop-color="#8b314b"
         offset=".52429"
         id="stop14" />
      <stop
         stop-color="#8b314b"
         offset=".59614"
         id="stop16" />
      <stop
         stop-color="#a33a41"
         offset=".66876"
         id="stop18" />
      <stop
         stop-color="#c44732"
         offset=".79755"
         id="stop20" />
      <stop
         stop-color="#e65524"
         offset=".91251"
         id="stop22" />
      <stop
         stop-color="#e65524"
         offset="1"
         id="stop24" />
    </linearGradient>
    <linearGradient
       id="linearGradient6527"
       x1="321.35"
       x2="367"
       y1="75.834"
       y2="105"
       gradientTransform="translate(-320.06 -59.897)"
       gradientUnits="userSpaceOnUse">
      <stop
         stop-color="#666"
         offset="0"
         id="stop27" />
      <stop
         stop-color="#7a7a7a"
         offset="1"
         id="stop29" />
    </linearGradient>
    <linearGradient
       inkscape:collect="always"
       xlink:href="#linearGradient1024"
       id="linearGradient1026"
       x1="1.0019531"
       y1="15.499131"
       x2="47.00825"
       y2="15.499131"
       gradientUnits="userSpaceOnUse" />
  </defs>
  <path
     d="m9.8138 3.9995c-2.9004 0-5.051-0.095-6.6562 1.1191-0.8135 0.61532-1.3536 1.5422-1.6641 2.7168-0.3092 1.1699-0.4277 2.6138-0.4277 4.4883v9.4062 3.2695 12.27c0 1.9522 0.053 3.4414 0.2676 4.6445 0.2153 1.2059 0.6221 2.1846 1.3867 2.8652 0.7627 0.67895 1.7527 0.95992 2.8945 1.0918 1.1408 0.13175 2.4963 0.12891 4.1993 0.12891h28.504c1.6707 0 3.0101 2e-3 4.1445-0.12891 1.1353-0.13187 2.1255-0.41132 2.8945-1.0859 0.7709-0.67622 1.193-1.653 1.4199-2.8613 0.2265-1.2056 0.2872-2.6992 0.2872-4.6543v-18.539c0-0.25826-0.012-0.42611-0.014-0.60547v-0.0117l0.014-1.875c0.013-1.8102 0.019-3.2511-0.1153-4.4551-0.134-1.2042-0.4166-2.2304-1.0957-3.0273-0.6819-0.80032-1.6746-1.2402-2.8906-1.4707-1.2124-0.22971-2.7045-0.28518-4.6465-0.28518h-15.902l-3-3z"
     color="#000000"
     color-rendering="auto"
     dominant-baseline="auto"
     image-rendering="auto"
     opacity=".1"
     shape-rendering="auto"
     solid-color="#000000"
     style="font-feature-settings:normal;font-variant-alternates:normal;font-variant-caps:normal;font-variant-ligatures:normal;font-variant-numeric:normal;font-variant-position:normal;isolation:auto;mix-blend-mode:normal;shape-padding:0;text-decoration-color:#000000;text-decoration-line:none;text-decoration-style:solid;text-indent:0;text-orientation:mixed;text-transform:none;white-space:normal"
     id="path34" />
  <path
     d="m47.001 32.999-12 12h4.6886c6.6316 0 7.3114-0.67952 7.3114-7.2979z"
     color="#000000"
     fill="#fff"
     opacity=".05"
     id="path36" />
  <path
     id="path38"
     style="font-feature-settings:normal;font-variant-alternates:normal;font-variant-caps:normal;font-variant-ligatures:normal;font-variant-numeric:normal;font-variant-position:normal;isolation:auto;mix-blend-mode:normal;shape-padding:0;text-decoration-color:#000000;text-decoration-line:none;text-decoration-style:solid;text-indent:0;text-orientation:mixed;text-transform:none;white-space:normal;fill:url(#linearGradient1026);fill-opacity:1"
     d="M 9.75 3 C 6.8496 3 4.69895 2.9050406 3.09375 4.1191406 C 2.28025 4.7344606 1.7401875 5.6613375 1.4296875 6.8359375 C 1.3523625 7.1284373 1.2870204 7.4364503 1.2324219 7.765625 C 1.0683401 8.7535653 1.0019531 9.9174035 1.0019531 11.324219 L 1.0019531 20 L 1.0019531 28 L 47.001953 28 L 47.001953 20 L 47.001953 17.730469 C 47.001953 17.472169 46.990281 17.3044 46.988281 17.125 L 46.988281 17.113281 L 47.001953 15.238281 C 47.011703 13.880631 47.01722 12.730459 46.962891 11.732422 C 46.944784 11.399741 46.920269 11.084203 46.886719 10.783203 C 46.802969 10.030578 46.660757 9.3471318 46.400391 8.7460938 C 46.296244 8.5056734 46.173306 8.2778114 46.027344 8.0644531 C 45.954363 7.9577752 45.875903 7.8554719 45.791016 7.7558594 C 45.70545 7.6554372 45.614712 7.560077 45.519531 7.4707031 C 44.856078 6.8472041 43.964391 6.4868438 42.900391 6.2851562 C 41.687991 6.0554762 40.195906 6 38.253906 6 L 22.351562 6 L 19.351562 3 L 9.75 3 z " />
  <path
     d="m22.751 15.099-3 3h-9.9023c-2.0553 0.0479-3.434 0.0555-4.6465 0.28516-1.216 0.23047-2.2087 0.67039-2.8906 1.4707-0.6791 0.79696-0.9617 1.8231-1.0957 3.0273-0.073 0.65514-0.1018 1.4-0.1133 2.2168h0.039c0.017-0.42337 0.034-0.85058 0.074-1.2168 0.134-1.2042 0.4166-2.2304 1.0958-3.0273 0.6819-0.80031 1.6746-1.2402 2.8905-1.4707 1.2125-0.22968 2.7144-0.48029 4.6466-0.28516h9.9022l3-3h15.602c2.9004 0 5.051-0.095 6.6562 1.1191 0.8135 0.61532 1.3535 1.5422 1.6641 2.7168 0.3092 1.1699 0.4277 2.6138 0.4277 4.4883v-1c0-1.8745-0.1186-3.3183-0.4277-4.4883-0.3106-1.1746-0.8506-2.1015-1.6641-2.7168-1.6052-1.2142-3.7558-1.1191-6.6562-1.1191z"
     color="#000000"
     color-rendering="auto"
     dominant-baseline="auto"
     fill="#732206"
     image-rendering="auto"
     opacity=".1"
     shape-rendering="auto"
     solid-color="#000000"
     style="font-feature-settings:normal;font-variant-alternates:normal;font-variant-caps:normal;font-variant-ligatures:normal;font-variant-numeric:normal;font-variant-position:normal;isolation:auto;mix-blend-mode:normal;shape-padding:0;text-decoration-color:#000000;text-decoration-line:none;text-decoration-style:solid;text-indent:0;text-orientation:mixed;text-transform:none;white-space:normal"
     id="path40" />
  <path
     d="m9.7134 2.999c-2.9004 0-5.0509-0.095-6.6561 1.1191-0.8135 0.61532-1.3536 1.5422-1.6641 2.7168-0.3094 1.1699-0.4278 2.6138-0.4278 4.4883v1c0-1.8745 0.1184-3.3183 0.4278-4.4883 0.3105-1.1746 0.8505-2.1015 1.6641-2.7168 1.6052-1.2142 3.7557-1.1191 6.6561-1.1191h9.6017l3 3h15.902c1.942 0 3.4341 0.0555 4.6464 0.28516 1.2161 0.23047 2.2088 0.67039 2.8907 1.4707 0.679 0.79696 0.9616 1.8231 1.0956 3.0273 0.067 0.60198 0.1 1.263 0.1133 2 0-1.1279-0.019-2.1528-0.1133-3-0.134-1.2042-0.4166-2.2304-1.0956-3.0273-0.8145-0.80031-1.6747-1.2402-2.8907-1.4707-1.2123-0.22968-2.7044-0.28516-4.6464-0.28516h-15.902l-3-3zm37.244 14.367-0.01 0.74609v0.0117c0 0.17936 0.014 0.34721 0.014 0.60547v-1c0-0.15495 0-0.25141-0.01-0.36328z"
     color="#000000"
     color-rendering="auto"
     dominant-baseline="auto"
     fill="#fff"
     image-rendering="auto"
     opacity=".2"
     shape-rendering="auto"
     solid-color="#000000"
     style="font-feature-settings:normal;font-variant-alternates:normal;font-variant-caps:normal;font-variant-ligatures:normal;font-variant-numeric:normal;font-variant-position:normal;isolation:auto;mix-blend-mode:normal;shape-padding:0;text-decoration-color:#000000;text-decoration-line:none;text-decoration-style:solid;text-indent:0;text-orientation:mixed;text-transform:none;white-space:normal"
     id="path42" />
  <path
     d="m1.1866 35.393v1c0 1.9522 0.053 3.4414 0.2675 4.6445 0.2154 1.2059 0.6222 2.1846 1.3868 2.8652 0.7626 0.67895 1.7527 0.95992 2.8945 1.0918 1.1408 0.13175 2.4963 0.12891 4.1992 0.12891h28.504c1.6708 0 3.0101 2e-3 4.1445-0.12891 1.1353-0.13187 2.1255-0.41132 2.8946-1.0859 0.7708-0.67622 1.1929-1.653 1.4199-2.8613 0.2265-1.2056 0.2871-2.6992 0.2871-4.6543v-1c0 1.9551-0.061 3.4487-0.2871 4.6543-0.227 1.2083-0.6491 2.1851-1.4199 2.8613-0.7691 0.67461-1.7593 0.95406-2.8946 1.0859-1.1344 0.13091-2.4737 0.12891-4.1445 0.12891h-28.504c-1.7029 0-3.0584 3e-3 -4.1992-0.12891-1.1418-0.13187-2.1319-0.41284-2.8945-1.0918-0.7646-0.68069-1.1714-1.6594-1.3868-2.8652-0.2147-1.2032-0.2676-2.6923-0.2675-4.6445z"
     color="#000000"
     color-rendering="auto"
     dominant-baseline="auto"
     image-rendering="auto"
     opacity=".2"
     shape-rendering="auto"
     solid-color="#000000"
     style="font-feature-settings:normal;font-variant-alternates:normal;font-variant-caps:normal;font-variant-ligatures:normal;font-variant-numeric:normal;font-variant-position:normal;isolation:auto;mix-blend-mode:normal;shape-padding:0;text-decoration-color:#000000;text-decoration-line:none;text-decoration-style:solid;text-indent:0;text-orientation:mixed;text-transform:none;white-space:normal"
     id="path44" />
  <path
     d="m38.26 16.103c2.9004 0 5.0511-0.095 6.6563 1.1191 0.8135 0.61532 1.3536 1.5422 1.6641 2.7168 0.3091 1.1699 0.4276 2.6138 0.4276 4.4883v9.4062-1.7305 4.2695c0 1.9522-0.053 3.4414-0.2676 4.6445-0.2152 1.2059-0.6221 2.1846-1.3867 2.8652-0.7626 0.67895-1.7527 0.95992-2.8945 1.0918-1.1408 0.13175-2.4963 0.12891-4.1992 0.12891h-28.504c-1.6708 0-3.0102 2e-3 -4.1446-0.12891-1.1352-0.13187-2.1254-0.41132-2.8945-1.0859-0.7709-0.67622-1.1929-1.653-1.4199-2.8613-0.2265-1.2056-0.2871-2.6992-0.2871-4.6543v-5.5391c0-0.25826 0.012-0.42611 0.014-0.60547v-0.0117l-0.014-1.875c-0.013-1.8102-0.019-3.2511 0.1152-4.4551 0.134-1.2042 0.4166-2.2304 1.0957-3.0273 0.682-0.80032 1.6747-1.2402 2.8906-1.4707 1.2126-0.22968 3.0082-0.28516 4.6466-0.28516h9.9023l3-3z"
     color="#000000"
     color-rendering="auto"
     dominant-baseline="auto"
     fill="url(#linearGradient6527)"
     image-rendering="auto"
     shape-rendering="auto"
     solid-color="#000000"
     style="font-feature-settings:normal;font-variant-alternates:normal;font-variant-caps:normal;font-variant-ligatures:normal;font-variant-numeric:normal;font-variant-position:normal;isolation:auto;mix-blend-mode:normal;shape-padding:0;text-decoration-color:#000000;text-decoration-line:none;text-decoration-style:solid;text-indent:0;text-orientation:mixed;text-transform:none;white-space:normal"
     id="path46" />
  <path
     d="m47.118 32.103-12 12h4.6886c6.6316 0 7.3114-0.67952 7.3114-7.2979z"
     color="#000000"
     fill="#fff"
     opacity=".05"
     id="path48" />
  <path
     d="m1.0013 35.372v1c0 1.9522 0.053 3.4414 0.2676 4.6445 0.2153 1.2059 0.6221 2.1846 1.3867 2.8652 0.7626 0.67895 1.7527 0.95992 2.8946 1.0918 1.1407 0.13175 2.4963 0.12891 4.1992 0.12891h28.504c1.6709 0 3.0101 2e-3 4.1446-0.12891 1.1353-0.13187 2.1254-0.41132 2.8945-1.0859 0.7709-0.67622 1.1929-1.653 1.42-2.8613 0.2265-1.2056 0.2871-2.6992 0.2871-4.6543v-1c0 1.9551-0.061 3.4487-0.2871 4.6543-0.2271 1.2083-0.6491 2.1851-1.42 2.8613-0.7691 0.67461-1.7593 0.95406-2.8945 1.0859-1.1345 0.13091-2.4737 0.12891-4.1446 0.12891h-28.504c-1.7029 0-3.0584 3e-3 -4.1992-0.12891-1.1418-0.13187-2.1319-0.41284-2.8945-1.0918-0.7646-0.68069-1.1714-1.6594-1.3868-2.8652-0.2147-1.2032-0.2676-2.6923-0.2676-4.6445z"
     color="#000000"
     color-rendering="auto"
     dominant-baseline="auto"
     image-rendering="auto"
     opacity=".2"
     shape-rendering="auto"
     solid-color="#000000"
     style="font-feature-settings:normal;font-variant-alternates:normal;font-variant-caps:normal;font-variant-ligatures:normal;font-variant-numeric:normal;font-variant-position:normal;isolation:auto;mix-blend-mode:normal;shape-padding:0;text-decoration-color:#000000;text-decoration-line:none;text-decoration-style:solid;text-indent:0;text-orientation:mixed;text-transform:none;white-space:normal"
     id="path50" />
  <path
     d="m22.658 16.103-3 3h-9.9024c-1.7554-0.10674-3.4341 0.0555-4.6464 0.28516-1.2161 0.23047-2.2088 0.67039-2.8907 1.4707-0.679 0.79696-0.9617 1.8231-1.0956 3.0273-0.073 0.65514-0.1019 1.4-0.1133 2.2168h0.039c0.017-0.42337 0.034-0.85058 0.074-1.2168 0.134-1.2042 0.4166-2.2304 1.0957-3.0273 0.682-0.80031 1.6747-1.2402 2.8906-1.4707 1.2125-0.22968 2.7144-0.48029 4.6466-0.28516h9.9022l3-3h15.602c2.9004 0 5.0511-0.095 6.6563 1.1191 0.8135 0.61532 1.3536 1.5422 1.6641 2.7168 0.3091 1.1699 0.4276 2.6138 0.4276 4.4883v-1c0-1.8745-0.1185-3.3183-0.4276-4.4883-0.3106-1.1746-0.8506-2.1015-1.6641-2.7168-1.6052-1.2142-3.7559-1.1191-6.6563-1.1191z"
     color="#000000"
     color-rendering="auto"
     dominant-baseline="auto"
     fill="#fff"
     image-rendering="auto"
     opacity=".2"
     shape-rendering="auto"
     solid-color="#000000"
     style="font-feature-settings:normal;font-variant-alternates:normal;font-variant-caps:normal;font-variant-ligatures:normal;font-variant-numeric:normal;font-variant-position:normal;isolation:auto;mix-blend-mode:normal;shape-padding:0;text-decoration-color:#000000;text-decoration-line:none;text-decoration-style:solid;text-indent:0;text-orientation:mixed;text-transform:none;white-space:normal"
     id="path52" />
  <g
     transform="translate(0,3)"
     id="g64">
    <rect
       transform="rotate(90)"
       x="20"
       y="-32"
       width="16"
       height="16"
       color="#000000"
       fill="none"
       opacity=".75"
       id="rect54" />
    <path
       d="m30 25v-2h-2.0018z"
       color="#000000"
       fill="#fff"
       opacity=".75"
       id="path56" />
    <path
       d="m18 27v8h9v-1h-8v-7.6667zm11.002-1v9h1v-8z"
       enable-background="new"
       fill="#fff"
       opacity=".75"
       id="path58" />
    <path
       d="m24 28.986c0.1524-0.038 0.3548-0.0786 0.6071-0.12143 0.2524-0.0428 0.5429-0.0643 0.8714-0.0643 0.2953 0 0.5405 0.0428 0.7357 0.12857 0.1953 0.0809 0.35 0.19762 0.4643 0.35 0.1191 0.14761 0.2024 0.32618 0.25 0.53571 0.048 0.20952 0.072 0.44047 0.072 0.69284v3.6928l-3-3e-5z"
       enable-background="new"
       fill="#fff"
       opacity=".75"
       id="path60" />
    <path
       d="m24 20.293-7.8535 7.8535 0.707 0.70704 7.1465-7.1465 7.1465 7.1465 0.707-0.70704z"
       color="#000000"
       color-rendering="auto"
       dominant-baseline="auto"
       fill="#fff"
       fill-rule="evenodd"
       image-rendering="auto"
       opacity=".75"
       shape-rendering="auto"
       solid-color="#000000"
       style="font-feature-settings:normal;font-variant-alternates:normal;font-variant-caps:normal;font-variant-ligatures:normal;font-variant-numeric:normal;font-variant-position:normal;isolation:auto;mix-blend-mode:normal;shape-padding:0;text-decoration-color:#000000;text-decoration-line:none;text-decoration-style:solid;text-indent:0;text-orientation:mixed;text-transform:none;white-space:normal"
       id="path62" />
  </g>
</svg>
