<svg width="32" height="32" version="1" xmlns="http://www.w3.org/2000/svg" xmlns:xlink="http://www.w3.org/1999/xlink">
 <defs>
  <linearGradient id="linearGradient1080" x1="350.98" x2="321.02" y1="148.02" y2="148.02" gradientUnits="userSpaceOnUse">
   <stop stop-color="#fff" offset="0"/>
   <stop stop-color="#fff" stop-opacity=".098039" offset=".125"/>
   <stop stop-color="#fff" stop-opacity=".098039" offset=".925"/>
   <stop stop-color="#fff" stop-opacity=".49804" offset="1"/>
  </linearGradient>
  <clipPath id="clipPath1070">
   <path d="m351 153c0 5-1.9565 4.9417-7 5h-16c-5.0435-0.0583-7 0-7-5v-11c0-5 1.9565-4.9417 7-5h16c5.0435 0.0583 7 0 7 5z" color="#000000" fill="#cdcdcd" opacity=".2"/>
  </clipPath>
  <linearGradient id="linearGradient13869" x1="329" x2="343" y1="137" y2="158" gradientTransform="matrix(.90476 0 0 1 -288 -132)" gradientUnits="userSpaceOnUse">
   <stop stop-color="#9a9a9a" offset="0"/>
   <stop stop-color="#c5c5c5" offset="1"/>
  </linearGradient>
 </defs>
 <path d="m20.714 1.0002c4.2857 0 4.2357 1.9565 4.2857 7v16c-0.0499 5.0435 0 7-4.2857 7h-9.4286c-4.2857 0-4.2357-1.9565-4.2857-7v-16c0.0499-5.0435 0-7 4.2857-7z" color="#000000" fill="none" opacity=".2" stroke="#000" stroke-width="2"/>
 <path d="m6.4998 23.248c0.0252 2.4378-0.0131 4.1752 0.6123 5.4454 0.31271 0.6351 0.81569 1.1181 1.4962 1.4044 0.6805 0.28624 1.5338 0.4026 2.6415 0.4026h9.5c1.1077 0 1.961-0.11636 2.6415-0.4026 0.68051-0.28624 1.1835-0.76926 1.4962-1.4044 0.62542-1.2702 0.58714-3.0076 0.61229-5.4454v-4e-3 -15.488-4e-3c-0.0251-2.4378 0.0131-4.1752-0.61229-5.4454-0.31272-0.6351-0.81569-1.1181-1.4962-1.4044-0.6805-0.28563-1.5338-0.40217-2.6415-0.40217h-9.5c-1.1077 0-1.961 0.11636-2.6415 0.4026-0.68051 0.28624-1.1835 0.76926-1.4962 1.4044-0.62542 1.2702-0.58714 3.0076-0.6123 5.4454v4e-3 15.488z" color="#000000" fill="#4d4d4d"/>
 <path d="m6.4998 23.248c0.0252 2.4378-0.0131 4.1752 0.6123 5.4454 0.31271 0.6351 0.81569 1.1181 1.4962 1.4044 0.6805 0.28624 1.5338 0.4026 2.6415 0.4026h9.5c1.1077 0 1.961-0.11636 2.6415-0.4026 0.68051-0.28624 1.1835-0.76926 1.4962-1.4044 0.62542-1.2702 0.58714-3.0076 0.61229-5.4454v-4e-3 -15.488-4e-3c-0.0251-2.4378 0.0131-4.1752-0.61229-5.4454-0.31272-0.6351-0.81569-1.1181-1.4962-1.4044-0.6805-0.28563-1.5338-0.40217-2.6415-0.40217h-9.5c-1.1077 0-1.961 0.11636-2.6415 0.4026-0.68051 0.28624-1.1835 0.76926-1.4962 1.4044-0.62542 1.2702-0.58714 3.0076-0.6123 5.4454v4e-3 15.488z" color="#000000" fill="none" opacity=".3" stroke="#000"/>
 <path d="m11.25 0.5c-1.1077 0-1.9613 0.1161-2.6418 0.40234-0.68051 0.28624-1.184 0.7692-1.4968 1.4043-0.62542 1.2702-0.58626 3.0075-0.61142 5.4453v4e-3 15.488 4e-3c0.0252 2.4378-0.014 4.1751 0.61142 5.4453 0.31272 0.6351 0.81624 1.1181 1.4968 1.4043 0.6805 0.28624 1.5341 0.40234 2.6418 0.40234h4.75v-30z" color="#000000" opacity=".03"/>
 <path transform="matrix(0 -.96667 .85713 0 -110.43 340.3)" d="m351 153c0 5-1.9565 4.9417-7 5h-16c-5.0435-0.0583-7 0-7-5v-11c0-5 1.9565-4.9417 7-5h16c5.0435 0.0583 7 0 7 5z" clip-path="url(#clipPath1070)" color="#000000" fill="none" opacity=".3" stroke="url(#linearGradient1080)" stroke-width="2.1972"/>
 <path d="m14.766 5-6.9091 15.273v4.7727c0 0.52881 0.38518 0.95454 0.86364 0.95454h3.2078l9.5-21z" enable-background="new" fill="#fff" opacity=".15"/>
 <rect x="7.857" y="5" width="16.286" height="21" rx="1" ry="1" enable-background="new" fill="url(#linearGradient13869)"/>
 <rect x="14" y="2" width="4" height="1" rx=".5" ry=".5" enable-background="new" opacity=".3"/>
 <path d="m14.766 5-6.9091 15.273v4.7727c0 0.52881 0.38518 0.95454 0.86364 0.95454h3.2078l9.5-21z" enable-background="new" fill="#fff" opacity=".1"/>
 <path d="m8.7617 5c-0.50124 0-0.90476 0.446-0.90476 1v14.273l6.9094-15.273z" enable-background="new" fill="#f9f9f9" opacity=".2"/>
 <path d="m16.522 9.2542-2.6808 0.46704v9.2333l2.6669-0.34377-0.0139-4.1618 3.1461 4.6062 3.0905-0.44447-3.5558-4.7677 3.568-4.0003-3.1287-0.57644-3.12 4.0003zm-5.6376 2.3578c-0.0258 2e-3 -0.05 0.0134-0.0695 0.033l-0.9202 0.93062c-0.04 0.0402-0.0466 0.10306-0.0157 0.15106l1.1112 1.7067c-0.20962 0.37201-0.36802 0.7799-0.47052 1.2067l-1.9185 0.47052c-0.0532 0.0131-0.0937 0.0612-0.0937 0.11633v1.2119c0 0.0551 0.0405 0.10326 0.0938 0.11633l1.9185 0.47052c0.10251 0.42679 0.2609 0.83468 0.47052 1.2067l-1.1112 1.7067c-0.031 0.048-0.0244 0.11079 0.0157 0.15106l0.92021 0.93061c0.0388 0.0391 0.099 0.0424 0.14584 0.0139l1.7414-1.0678c0.34165 0.19903 0.87608 0.35917 1.2657 0.46531l0.40802 1.9706c0.0113 0.0568 0.0565 0.0972 0.11286 0.0972h1.3716c0.0564 0 0.10152-0.0403 0.11286-0.0972l0.40801-1.9706c0.38965-0.10614 0.92408-0.26628 1.2657-0.46531l1.7414 1.0678c0.0468 0.0285 0.10704 0.0253 0.14584-0.0139l0.9202-0.93063c0.04-0.0403 0.0466-0.10304 0.0157-0.15105l-0.9254-1.422-0.1146 0.0174-0.64934-0.95145c-0.66322 1.3903-2.0658 2.2763-3.6062 2.2779-2.2093 0-4.0003-1.791-4.0003-4.0003 1e-3 -1.5185 0.86216-2.9053 2.2224-3.5801v-0.87333c-0.25357 0.0846-0.50271 0.17996-0.6945 0.29169l-1.7414-1.0678c-0.0234-0.0143-0.0506-0.0212-0.0764-0.0191z" enable-background="new" fill="#fff"/>
</svg>
