<?xml version="1.0" encoding="UTF-8" standalone="no"?>
<svg
   width="32"
   height="32"
   version="1"
   id="svg43"
   sodipodi:docname="dayfolder.svg"
   inkscape:version="1.1 (c4e8f9ed74, 2021-05-24)"
   xmlns:inkscape="http://www.inkscape.org/namespaces/inkscape"
   xmlns:sodipodi="http://sodipodi.sourceforge.net/DTD/sodipodi-0.dtd"
   xmlns:xlink="http://www.w3.org/1999/xlink"
   xmlns="http://www.w3.org/2000/svg"
   xmlns:svg="http://www.w3.org/2000/svg">
  <sodipodi:namedview
     id="namedview45"
     pagecolor="#ffffff"
     bordercolor="#666666"
     borderopacity="1.0"
     inkscape:pageshadow="2"
     inkscape:pageopacity="0.0"
     inkscape:pagecheckerboard="0"
     showgrid="false"
     inkscape:zoom="8.0322911"
     inkscape:cx="6.5361177"
     inkscape:cy="26.642461"
     inkscape:window-width="1852"
     inkscape:window-height="1052"
     inkscape:window-x="68"
     inkscape:window-y="28"
     inkscape:window-maximized="1"
     inkscape:current-layer="svg43" />
  <defs
     id="defs23">
    <linearGradient
       id="linearGradient1688-3"
       x1="320"
       x2="352"
       y1="164"
       y2="164"
       gradientTransform="rotate(90 242 -78)"
       gradientUnits="userSpaceOnUse">
      <stop
         stop-color="#2b898f"
         offset="0"
         id="stop2" />
      <stop
         stop-color="#5bdbc1"
         offset="1"
         id="stop4" />
    </linearGradient>
    <linearGradient
       id="linearGradient998"
       x1="16"
       x2="16"
       y1="304"
       y2="208"
       gradientTransform="matrix(.046875 0 0 .052083 1.5001 2.6667)"
       gradientUnits="userSpaceOnUse"
       xlink:href="#linearGradient4245" />
    <linearGradient
       id="linearGradient4245">
      <stop
         stop-color="#d9d9d9"
         offset="0"
         id="stop8" />
      <stop
         stop-color="#ececec"
         offset="1"
         id="stop10" />
    </linearGradient>
    <linearGradient
       id="linearGradient21969"
       x1="16"
       x2="16"
       y1="304"
       y2="208"
       gradientTransform="matrix(.046875 0 0 .052083 -.49993 2.6667)"
       gradientUnits="userSpaceOnUse"
       xlink:href="#linearGradient4245" />
    <linearGradient
       id="linearGradient1688-4"
       x1="322"
       x2="350"
       y1="148"
       y2="148"
       gradientTransform="rotate(90 242 -78)"
       gradientUnits="userSpaceOnUse">
      <stop
         stop-color="#fff"
         offset="0"
         id="stop14" />
      <stop
         stop-color="#fff"
         stop-opacity=".098039"
         offset=".125"
         id="stop16" />
      <stop
         stop-color="#fff"
         stop-opacity=".098039"
         offset=".925"
         id="stop18" />
      <stop
         stop-color="#fff"
         stop-opacity=".49804"
         offset="1"
         id="stop20" />
    </linearGradient>
  </defs>
  <path
     d="m9.301 2c-1.6395 0-2.9408 0.0308-4.045 0.19141-1.1042 0.16064-2.067 0.4726-2.7831 1.0918s-1.0805 1.4561-1.2642 2.4141c-0.18374 0.95795-0.21537 2.087-0.20733 3.5117v7.791 7.7969c-9e-3 1.4213 0.0239 2.5495 0.20733 3.5058 0.18371 0.95796 0.5481 1.7949 1.2642 2.4141s1.6789 0.93115 2.7831 1.0918c1.1042 0.16065 2.4056 0.19141 4.045 0.19141h13.402c1.6395 0 2.9384-0.0307 4.0405-0.19141 1.1022-0.16075 2.0627-0.47425 2.7763-1.0938 0.71357-0.6195 1.0746-1.4536 1.2597-2.4102 0.18515-0.95653 0.22086-2.084 0.22086-3.5078v-7.7969-7.7969c0-1.4238-0.0358-2.5513-0.22086-3.5078-0.18512-0.95653-0.54612-1.7906-1.2597-2.4102-0.71359-0.61951-1.6741-0.933-2.7763-1.0938-1.1022-0.16076-2.401-0.19141-4.0405-0.19141z"
     color="#000000"
     color-rendering="auto"
     dominant-baseline="auto"
     image-rendering="auto"
     opacity=".1"
     shape-rendering="auto"
     solid-color="#000000"
     style="font-feature-settings:normal;font-variant-alternates:normal;font-variant-caps:normal;font-variant-ligatures:normal;font-variant-numeric:normal;font-variant-position:normal;isolation:auto;mix-blend-mode:normal;shape-padding:0;text-decoration-color:#000000;text-decoration-line:none;text-decoration-style:solid;text-indent:0;text-orientation:mixed;text-transform:none;white-space:normal"
     id="path25" />
  <path
     d="m9.1272 1.5c-6.4516 0-7.6603 0.58409-7.6264 6.2823v8.2176 8.2178c-0.034 5.6982 1.1748 6.2823 7.6264 6.2823h13.747c6.45 0 7.6264-0.58403 7.6264-6.2823v-8.2178-8.2176c0-5.6982-1.1764-6.2823-7.6264-6.2823z"
     color="#000000"
     fill="url(#linearGradient1688-3)"
     id="path27" />
  <path
     d="m2.0001 13v6h1v-6z"
     color="#000000"
     fill="url(#linearGradient998)"
     id="path33" />
  <path
     d="m29 13v6h1v-6z"
     color="#000000"
     fill="url(#linearGradient21969)"
     id="path35" />
  <path
     d="m9.1272 1.5c-6.4516 0-7.6603 0.58409-7.6264 6.2823v8.2176 8.2178c-0.034 5.6982 1.1748 6.2823 7.6264 6.2823h13.747c6.45 0 7.6264-0.58403 7.6264-6.2823v-8.2178-8.2176c0-5.6982-1.1764-6.2823-7.6264-6.2823z"
     color="#000000"
     fill="none"
     opacity=".4"
     stroke="#000"
     id="path39" />
  <path
     d="m9.127 2c-3.2107 0-5.0326 0.19514-5.9375 0.89844-0.45247 0.35165-0.74178 0.83286-0.93359 1.6172-0.19176 0.78433-0.26386 1.8569-0.25586 3.2637v2e-3 8.2188 8.2188 2e-3c-8e-3 1.4068 0.0641 2.4794 0.25586 3.2637 0.1918 0.78431 0.48112 1.2655 0.93359 1.6172 0.90496 0.7033 2.7268 0.89844 5.9375 0.89844h13.746c3.2099 0 5.0246-0.19551 5.9258-0.89844 0.45058-0.35146 0.73805-0.83201 0.93164-1.6172 0.19363-0.7853 0.26953-1.8603 0.26953-3.2677v-8.2168-8.2168c0-1.4074-0.0759-2.4824-0.26953-3.2676-0.19359-0.78517-0.48106-1.2657-0.93164-1.6172-0.90117-0.70293-2.7159-0.89844-5.9258-0.89844zm6.498 1.0469c3.4565 0.0171 6.9142-0.0268 10.361 0.0918 0.8211 0.13276 1.8066 0.14835 2.3906 0.82617 0.67884 1.1647 0.51296 2.5878 0.56446 3.873 0.0431 6.0289 0.0678 12.067-0.0332 18.088-0.0775 0.77792-0.12055 1.6726-0.67968 2.2754-0.70249 0.51038-1.6183 0.59683-2.459 0.67383-4.0474 0.0864-8.1622 0.0456-12.24 0.0606-2.4519-0.0199-4.914 0.0317-7.3535-0.0606-0.87784-0.12055-1.915-0.14021-2.5606-0.83398-0.64775-1.0259-0.50264-2.3052-0.56054-3.4648-0.035-5.6558-0.0351-11.355 0-17.01 0.0632-1.2215-0.10864-2.5772 0.59179-3.6524 0.6025-0.62665 1.5562-0.63986 2.3594-0.77344 2.7374-0.10739 5.4808-0.0704 8.2266-0.0918 0.46403-2.9e-4 0.92855-2e-3 1.3926-2e-3z"
     color="#000000"
     fill="url(#linearGradient1688-4)"
     id="path41" />
  <path
     id="path10791"
     style="font-size:4.58611px;line-height:1.25;font-family:'Google Sans';-inkscape-font-specification:'Google Sans';fill:#ececec;fill-opacity:1;stroke-width:1.29698"
     d="m 11.357422,10.140628 c -0.693334,0 -1.294291,0.144694 -1.802734,0.433594 C 9.046244,10.851542 8.642242,11.1932 8.341797,11.59766 8.041353,11.99056 7.834305,12.372431 7.71875,12.742191 L 9.070313,13.2793 c 0.115556,-0.42756 0.356784,-0.821457 0.726562,-1.179687 0.381333,-0.36976 0.885767,-0.554688 1.509766,-0.554688 0.473778,0 0.877779,0.0984 1.21289,0.294922 0.346666,0.18489 0.605963,0.434084 0.779297,0.746094 0.184889,0.30042 0.277344,0.624023 0.277344,0.970703 -10e-7,0.50845 -0.1045,0.940608 -0.3125,1.298828 -0.17602,0.303151 -0.49636,0.712765 -0.945313,1.214844 h 1.867188 c 0.587253,-0.86229 0.880859,-1.706456 0.880859,-2.53125 0,-0.6009 -0.154797,-1.161661 -0.466797,-1.681641 -0.312,-0.52002 -0.752137,-0.936057 -1.318359,-1.248047 -0.554667,-0.31201 -1.195828,-0.468749 -1.923828,-0.46875 z m 9.464844,0.002 c -0.693333,0 -1.31838,0.144683 -1.873047,0.433593 -0.543111,0.28888 -0.96925,0.686863 -1.28125,1.195313 -0.300444,0.50845 -0.451172,1.075219 -0.451172,1.699219 0,0.49688 0.144706,0.97529 0.433594,1.4375 0.300445,0.45067 0.680356,0.814457 1.142578,1.091797 v 0.07031 h 4.05664 V 16 c 0.450667,-0.277341 0.820486,-0.641127 1.109375,-1.091797 0.300445,-0.46221 0.451172,-0.94062 0.451172,-1.4375 0,-0.624 -0.15675,-1.190769 -0.46875,-1.699219 -0.300445,-0.50845 -0.728537,-0.906433 -1.283203,-1.195313 -0.543111,-0.28891 -1.154159,-0.433593 -1.835937,-0.433593 z m 0,1.402343 c 0.600889,0 1.097345,0.174825 1.490234,0.521485 0.404444,0.33512 0.607422,0.79135 0.607422,1.36914 0,0.57777 -0.196956,1.046067 -0.589844,1.404297 -0.392889,0.35822 -0.895367,0.53711 -1.507812,0.53711 -0.612444,0 -1.120947,-0.17889 -1.525391,-0.53711 -0.392889,-0.35823 -0.589844,-0.826527 -0.589844,-1.404297 0,-0.57779 0.196955,-1.03402 0.589844,-1.36914 0.404444,-0.34666 0.912947,-0.521485 1.525391,-0.521485 z m -6.925782,4.917969 c -0.04152,0.05327 -0.08321,0.106754 -0.126953,0.160156 0.04386,-0.05357 0.08532,-0.106731 0.126953,-0.160156 z m -0.232422,0.285156 c -0.033,0.03884 -0.06739,0.07827 -0.101562,0.117188 0.03417,-0.03892 0.06856,-0.07834 0.101562,-0.117188 z m 6.183594,0.154297 c -0.148756,0.05188 -0.290742,0.115449 -0.425781,0.19336 0.135039,-0.07791 0.277026,-0.14148 0.425781,-0.19336 z m 1.945313,0 c 0.14728,0.05188 0.287072,0.11545 0.419922,0.19336 -0.13285,-0.07791 -0.272642,-0.141479 -0.419922,-0.19336 z m -4.140625,0.002 c -0.106058,0.113324 -0.204431,0.234216 -0.296875,0.361328 0.09244,-0.127112 0.190818,-0.248004 0.296875,-0.361328 z m -0.423828,0.552735 c -0.07835,0.129602 -0.145226,0.263901 -0.201172,0.404297 0.05562,-0.139576 0.12341,-0.275389 0.201172,-0.404297 z m -0.201172,0.404297 c -0.08392,0.210593 -0.14223,0.432979 -0.175782,0.667968 0.03355,-0.234989 0.09186,-0.457375 0.175782,-0.667968 z m 6.005859,0.01172 c 0.151788,0.245687 0.243048,0.520831 0.273438,0.824219 -0.03039,-0.303387 -0.12165,-0.578533 -0.273438,-0.824219 z m 0.273438,1.298828 c -0.03039,0.314095 -0.12165,0.596267 -0.273438,0.84961 0.151788,-0.253342 0.243048,-0.535515 0.273438,-0.84961 z m -6.480469,0.08789 c 0.01081,0.16106 0.03201,0.318816 0.06445,0.472656 -0.03244,-0.153841 -0.05364,-0.311596 -0.06445,-0.472656 z m 0.195312,0.923828 c 0.08117,0.219928 0.186407,0.4311 0.316407,0.634766 -0.13,-0.203666 -0.235239,-0.414838 -0.316407,-0.634766 z m 0.601563,1.013672 c 0.05199,0.05996 0.105911,0.117341 0.162109,0.173828 -0.05584,-0.05617 -0.110433,-0.11423 -0.162109,-0.173828 z" />
  <path
     id="path10791-6"
     style="font-size:4.58611px;line-height:1.25;font-family:'Google Sans';-inkscape-font-specification:'Google Sans';fill:#f9f9f9;fill-opacity:1;stroke-width:1.29698"
     d="m 12.318359,16.07036 c -0.08157,0.09122 -0.159387,0.179627 -0.25,0.277344 -0.416,0.45067 -1.155639,1.218477 -2.2187496,2.304687 -1.063111,1.07467 -1.7726374,1.790208 -2.1308594,2.148438 v 1.474609 h 7.486328 V 20.871141 H 9.6074219 l 3.5527341,-3.570312 c 0.407039,-0.414446 0.748753,-0.82427 1.025391,-1.230469 z m 6.47461,0 c -0.589333,0.2889 -1.067722,0.686863 -1.4375,1.195312 -0.358222,0.496881 -0.53711,1.07979 -0.53711,1.75 0,0.658671 0.172866,1.259625 0.519532,1.802735 0.346667,0.53156 0.827009,0.953635 1.439453,1.265625 0.612445,0.31201 1.293811,0.46875 2.044922,0.46875 0.739555,0 1.414898,-0.15674 2.027343,-0.46875 0.612444,-0.31199 1.092788,-0.734065 1.439453,-1.265625 0.358223,-0.54311 0.53711,-1.144064 0.53711,-1.802735 0,-0.67021 -0.18491,-1.253119 -0.554688,-1.75 -0.358222,-0.508449 -0.832542,-0.906412 -1.421875,-1.195312 z m 2.029297,0.675781 c 0.704889,0 1.293801,0.207047 1.767578,0.623047 0.485333,0.40446 0.728515,0.925007 0.728515,1.560547 0,0.65867 -0.243182,1.195328 -0.728515,1.611328 -0.473777,0.40443 -1.062689,0.607422 -1.767578,0.607422 -0.704888,0 -1.299824,-0.202992 -1.785157,-0.607422 -0.485333,-0.416 -0.728515,-0.952658 -0.728515,-1.611328 0,-0.63554 0.243182,-1.156087 0.728515,-1.560547 0.485333,-0.416 1.080269,-0.623047 1.785157,-0.623047 z" />
  <path
     d="m1.5001 16v8.2168c0 5.6982 1.1769 6.2832 7.627 6.2832h13.746c6.4516 0 7.661-0.58502 7.627-6.2832v-8.2168z"
     enable-background="new"
     fill="#fff"
     opacity=".08"
     id="path37" />
</svg>
