<?xml version="1.0" encoding="UTF-8" standalone="no"?>
<svg
   width="32"
   height="32"
   version="1"
   id="svg53"
   sodipodi:docname="org.gnome.Software.svg"
   inkscape:version="1.1 (c4e8f9ed74, 2021-05-24)"
   xmlns:inkscape="http://www.inkscape.org/namespaces/inkscape"
   xmlns:sodipodi="http://sodipodi.sourceforge.net/DTD/sodipodi-0.dtd"
   xmlns:xlink="http://www.w3.org/1999/xlink"
   xmlns="http://www.w3.org/2000/svg"
   xmlns:svg="http://www.w3.org/2000/svg">
  <sodipodi:namedview
     id="namedview55"
     pagecolor="#ffffff"
     bordercolor="#666666"
     borderopacity="1.0"
     inkscape:pageshadow="2"
     inkscape:pageopacity="0.0"
     inkscape:pagecheckerboard="0"
     showgrid="false"
     inkscape:zoom="22.71875"
     inkscape:cx="15.977992"
     inkscape:cy="16"
     inkscape:window-width="1852"
     inkscape:window-height="1052"
     inkscape:window-x="68"
     inkscape:window-y="28"
     inkscape:window-maximized="1"
     inkscape:current-layer="svg53" />
  <defs
     id="defs19">
    <linearGradient
       inkscape:collect="always"
       id="linearGradient2253">
      <stop
         style="stop-color:#404ce6;stop-opacity:1;"
         offset="0"
         id="stop2249" />
      <stop
         style="stop-color:#c061cb;stop-opacity:1"
         offset="1"
         id="stop2251" />
    </linearGradient>
    <linearGradient
       inkscape:collect="always"
       id="linearGradient1915">
      <stop
         style="stop-color:#33d1c6;stop-opacity:1;"
         offset="0"
         id="stop1911" />
      <stop
         style="stop-color:#1c25d8;stop-opacity:1"
         offset="1"
         id="stop1913" />
    </linearGradient>
    <linearGradient
       inkscape:collect="always"
       id="linearGradient1417">
      <stop
         style="stop-color:#ed336c;stop-opacity:1;"
         offset="0"
         id="stop1413" />
      <stop
         style="stop-color:#ffa348;stop-opacity:1"
         offset="1"
         id="stop1415" />
    </linearGradient>
    <linearGradient
       id="linearGradient4882"
       x1="319.22"
       x2="355.71"
       y1="170.98"
       y2="121.71"
       gradientTransform="rotate(90,242,-78)"
       gradientUnits="userSpaceOnUse">
      <stop
         stop-color="#e8e8e8"
         offset="0"
         id="stop2" />
      <stop
         stop-color="#f5f5f5"
         offset="1"
         id="stop4" />
    </linearGradient>
    <linearGradient
       id="linearGradient1004-8"
       x1="344"
       x2="344"
       y1="66.714"
       y2="101.29"
       gradientTransform="matrix(0 -1.0476 .95458 0 263.82 444.37)"
       gradientUnits="userSpaceOnUse">
      <stop
         stop-color="#fff"
         offset="0"
         id="stop7" />
      <stop
         stop-color="#fff"
         stop-opacity=".098039"
         offset=".125"
         id="stop9" />
      <stop
         stop-color="#fff"
         stop-opacity=".098039"
         offset=".925"
         id="stop11" />
      <stop
         stop-color="#fff"
         stop-opacity=".49804"
         offset="1"
         id="stop13" />
    </linearGradient>
    <clipPath
       id="clipPath994-1">
      <path
         d="m335.73 62c-8.8242 0-9.7736 0.90635-9.7304 9.7484v12.252 12.252c-0.0433 8.842 0.90622 9.7484 9.7304 9.7484h16.539c8.8242 0 9.7304-0.90625 9.7304-9.7484v-12.252-12.252c0-8.8421-0.90622-9.7484-9.7304-9.7484z"
         color="#000000"
         fill="#cdcdcd"
         id="path16" />
    </clipPath>
    <linearGradient
       inkscape:collect="always"
       xlink:href="#linearGradient1417"
       id="linearGradient1419"
       x1="6.7632031"
       y1="17.131283"
       x2="13.763203"
       y2="17.131283"
       gradientUnits="userSpaceOnUse" />
    <linearGradient
       inkscape:collect="always"
       xlink:href="#linearGradient1915"
       id="linearGradient1917"
       x1="18.904291"
       y1="19.448261"
       x2="18.859287"
       y2="24.630739"
       gradientUnits="userSpaceOnUse" />
    <linearGradient
       inkscape:collect="always"
       xlink:href="#linearGradient2253"
       id="linearGradient2255"
       x1="20.555958"
       y1="9.0692368"
       x2="20.489433"
       y2="16.094919"
       gradientUnits="userSpaceOnUse" />
  </defs>
  <path
     d="m31 11.194c0-1.421-0.0308-2.5488-0.19141-3.5059-0.16064-0.95703-0.4726-1.7915-1.0918-2.4121s-1.4561-0.93647-2.4141-1.0957c-0.95795-0.15924-2.087-0.18666-3.5117-0.17969h-7.791-7.7969c-1.4213-7e-3 -2.5495 0.0207-3.5058 0.17969-0.95796 0.15923-1.7949 0.47505-2.4141 1.0957s-0.93115 1.4551-1.0918 2.4121c-0.16065 0.95703-0.19141 2.0849-0.19141 3.5059v11.615c0 1.421 0.0307 2.5467 0.19141 3.502 0.16075 0.95527 0.47425 1.7878 1.0938 2.4062 0.6195 0.61845 1.4536 0.93134 2.4102 1.0918 0.95653 0.16046 2.084 0.19141 3.5078 0.19141h7.7969 7.7969c1.4238 0 2.5513-0.031 3.5078-0.19141 0.95653-0.16045 1.7906-0.47334 2.4102-1.0918 0.61951-0.61846 0.933-1.451 1.0938-2.4062 0.16076-0.95527 0.19141-2.081 0.19141-3.502z"
     color="#000000"
     color-rendering="auto"
     dominant-baseline="auto"
     image-rendering="auto"
     opacity=".1"
     shape-rendering="auto"
     solid-color="#000000"
     style="font-feature-settings:normal;font-variant-alternates:normal;font-variant-caps:normal;font-variant-ligatures:normal;font-variant-numeric:normal;font-variant-position:normal;isolation:auto;mix-blend-mode:normal;shape-padding:0;text-decoration-color:#000000;text-decoration-line:none;text-decoration-style:solid;text-indent:0;text-orientation:mixed;text-transform:none;white-space:normal"
     id="path21" />
  <path
     d="m30.5 10.075c0-5.5618-0.58409-6.6037-6.2823-6.5745h-8.2176-8.2178c-5.6982-0.0293-6.2823 1.0127-6.2823 6.5745v11.85c0 5.5604 0.58403 6.5745 6.2823 6.5745h8.2178 8.2176c5.6982 0 6.2823-1.0141 6.2823-6.5745z"
     color="#000000"
     fill="url(#linearGradient4882)"
     id="path23" />
  <path
     d="m30.5 10.075c0-5.5618-0.58409-6.6037-6.2823-6.5745h-8.2176-8.2178c-5.6982-0.0293-6.2823 1.0127-6.2823 6.5745v11.85c0 5.5604 0.58403 6.5745 6.2823 6.5745h8.2178 8.2176c5.6982 0 6.2823-1.0141 6.2823-6.5745z"
     color="#000000"
     fill="none"
     opacity=".4"
     stroke="#000"
     id="path47" />
  <path
     transform="matrix(0 .66664 -.63636 0 69.455 -213.32)"
     d="m335.73 62c-8.8242 0-9.7736 0.90635-9.7304 9.7484v12.252 12.252c-0.0433 8.842 0.90622 9.7484 9.7304 9.7484h16.539c8.8242 0 9.7304-0.90625 9.7304-9.7484v-12.252-12.252c0-8.8421-0.90622-9.7484-9.7304-9.7484z"
     clip-path="url(#clipPath994-1)"
     color="#000000"
     fill="none"
     opacity=".9"
     stroke="url(#linearGradient1004-8)"
     stroke-width="3.0707"
     id="path49" />
  <path
     d="m11 6s0-5 5-5 5 5 5 5"
     enable-background="new"
     fill="none"
     stroke="#80a3fa"
     stroke-linecap="round"
     stroke-width="1.5"
     id="path51"
     style="stroke:#666666;stroke-opacity:1" />
  <path
     id="rect1064"
     style="stroke-width:1.28561;fill:url(#linearGradient1419);fill-opacity:1"
     d="m 8.027724,13.631283 h 4.470958 c 0.700545,0 1.264521,0.563976 1.264521,1.264521 v 4.470958 c 0,0.700544 -0.563976,1.264521 -1.264521,1.264521 H 8.027724 c -0.7005445,0 -1.2645209,-0.563977 -1.2645209,-1.264521 v -4.470958 c 0,-0.700545 0.5639764,-1.264521 1.2645209,-1.264521 z" />
  <path
     id="path1700"
     style="fill:url(#linearGradient1917);fill-opacity:1"
     inkscape:transform-center-x="0.77685945"
     inkscape:transform-center-y="0.0093081456"
     transform="matrix(0,1,1,0,0.39840981,3.155309)"
     d="m 23.012322,22.672474 c -0.344325,0.603295 -6.596004,0.634366 -6.946309,0.03452 -0.350306,-0.599842 2.748625,-6.02949 3.443256,-6.032942 0.694631,-0.0035 3.847379,5.395124 3.503053,5.998418 z" />
  <path
     id="path2059"
     style="fill:url(#linearGradient2255);stroke-width:1.05775"
     d="M 24,12.5 A 3.5,3.5 0 0 1 20.5,16 3.5,3.5 0 0 1 17,12.5 3.5,3.5 0 0 1 20.5,9 3.5,3.5 0 0 1 24,12.5 Z" />
</svg>
