<?xml version="1.0" encoding="UTF-8" standalone="no"?>
<svg
   width="24"
   height="24"
   version="1"
   id="svg47"
   sodipodi:docname="folder-orange-open.svg"
   inkscape:version="1.1 (c4e8f9ed74, 2021-05-24)"
   xmlns:inkscape="http://www.inkscape.org/namespaces/inkscape"
   xmlns:sodipodi="http://sodipodi.sourceforge.net/DTD/sodipodi-0.dtd"
   xmlns:xlink="http://www.w3.org/1999/xlink"
   xmlns="http://www.w3.org/2000/svg"
   xmlns:svg="http://www.w3.org/2000/svg">
  <sodipodi:namedview
     id="namedview49"
     pagecolor="#ffffff"
     bordercolor="#666666"
     borderopacity="1.0"
     inkscape:pageshadow="2"
     inkscape:pageopacity="0.0"
     inkscape:pagecheckerboard="0"
     showgrid="false"
     inkscape:zoom="30.291667"
     inkscape:cx="11.983494"
     inkscape:cy="12"
     inkscape:window-width="1852"
     inkscape:window-height="1052"
     inkscape:window-x="68"
     inkscape:window-y="28"
     inkscape:window-maximized="1"
     inkscape:current-layer="svg47" />
  <defs
     id="defs27">
    <linearGradient
       inkscape:collect="always"
       id="linearGradient1155">
      <stop
         style="stop-color:#1abc93;stop-opacity:1;"
         offset="0"
         id="stop1151" />
      <stop
         style="stop-color:#34be5e;stop-opacity:1"
         offset="1"
         id="stop1153" />
    </linearGradient>
    <linearGradient
       id="linearGradient1831"
       x1="320"
       x2="344"
       y1="-148"
       y2="-171"
       gradientTransform="translate(-320 172)"
       gradientUnits="userSpaceOnUse">
      <stop
         stop-color="#2c001e"
         offset="0"
         id="stop2" />
      <stop
         stop-color="#2c001e"
         offset=".10865"
         id="stop4" />
      <stop
         stop-color="#370626"
         offset=".1869"
         id="stop6" />
      <stop
         stop-color="#55163b"
         offset=".29807"
         id="stop8" />
      <stop
         stop-color="#772953"
         offset=".37246"
         id="stop10" />
      <stop
         stop-color="#7c2b51"
         offset=".44701"
         id="stop12" />
      <stop
         stop-color="#8b314b"
         offset=".52429"
         id="stop14" />
      <stop
         stop-color="#8b314b"
         offset=".59614"
         id="stop16" />
      <stop
         stop-color="#a33a41"
         offset=".66876"
         id="stop18" />
      <stop
         stop-color="#c44732"
         offset=".79755"
         id="stop20" />
      <stop
         stop-color="#e65524"
         offset=".91251"
         id="stop22" />
      <stop
         stop-color="#e65524"
         offset="1"
         id="stop24" />
    </linearGradient>
    <linearGradient
       inkscape:collect="always"
       xlink:href="#linearGradient1155"
       id="linearGradient1157"
       x1="0.50010985"
       y1="11.999868"
       x2="23.502466"
       y2="11.999868"
       gradientUnits="userSpaceOnUse" />
  </defs>
  <path
     d="m5.0015 2c-1.4879 0-2.7468-0.0902-3.7617 0.71484-0.52424 0.41584-0.85138 1.0282-1.0254 1.7344-0.17218 0.69874-0.22409 1.5202-0.21289 2.5625v11.988c0 1.0408 0.0606 1.8596 0.23438 2.5547 0.17542 0.70174 0.49501 1.3101 1.0156 1.7266 1.0084 0.80675 2.2618 0.71875 3.75 0.71875h14c1.0408 0 1.8596-0.0606 2.5547-0.23438 0.70174-0.17542 1.3101-0.49501 1.7266-1.0156 0.80675-1.0084 0.71875-2.2618 0.71875-3.75v-10c0-1.0408-0.0606-1.8596-0.23438-2.5547-0.17542-0.70174-0.49501-1.3101-1.0156-1.7266-1.0084-0.80675-2.2618-0.71875-3.75-0.71875h-7.5586l-2.0312-2z"
     color="#000000"
     color-rendering="auto"
     dominant-baseline="auto"
     fill="#491706"
     image-rendering="auto"
     opacity=".1"
     shape-rendering="auto"
     solid-color="#000000"
     style="font-feature-settings:normal;font-variant-alternates:normal;font-variant-caps:normal;font-variant-ligatures:normal;font-variant-numeric:normal;font-variant-position:normal;isolation:auto;mix-blend-mode:normal;shape-padding:0;text-decoration-color:#000000;text-decoration-line:none;text-decoration-style:solid;text-indent:0;text-orientation:mixed;text-transform:none;white-space:normal"
     id="path29" />
  <path
     d="m5.0015 1.5c-1.5 0-2.6169-0.0543-3.4512 0.60742-0.41712 0.33086-0.69393 0.82918-0.84961 1.4609s-0.2102 1.4158-0.19922 2.4375v11.994c0 1.0208 0.0612 1.8035 0.21875 2.4336 0.15753 0.63014 0.42967 1.1258 0.84375 1.457 0.82815 0.66253 1.9375 0.60938 3.4375 0.60938h14c1.0208 0 1.8035-0.0612 2.4336-0.21875 0.63014-0.15753 1.1258-0.42967 1.457-0.84375 0.66253-0.82815 0.60938-1.9375 0.60938-3.4375v-10c0-1.0208-0.0612-1.8035-0.21875-2.4336-0.15753-0.63014-0.42967-1.1258-0.84375-1.457-0.82815-0.66253-1.9375-0.60938-3.4375-0.60938h-7.7637l-2.0312-2z"
     color="#000000"
     color-rendering="auto"
     dominant-baseline="auto"
     fill="url(#linearGradient1831)"
     image-rendering="auto"
     shape-rendering="auto"
     solid-color="#000000"
     style="font-feature-settings:normal;font-variant-alternates:normal;font-variant-caps:normal;font-variant-ligatures:normal;font-variant-numeric:normal;font-variant-position:normal;isolation:auto;mix-blend-mode:normal;shape-padding:0;text-decoration-color:#000000;text-decoration-line:none;text-decoration-style:solid;text-indent:0;text-orientation:mixed;text-transform:none;white-space:normal;fill:url(#linearGradient1157);fill-opacity:1"
     id="path31" />
  <path
     d="m23.066 15.936-6.0644 6.0644h1.1894c4.4211 0 4.875-0.45302 4.875-4.8652z"
     color="#000000"
     fill="#fff"
     opacity=".2"
     id="path33" />
  <path
     d="m12.035 8-2.0332 2-4.5293 0.0664c-4.4204 0.0733-4.875 0.45496-4.875 4.8672v1c0-4.4122 0.45455-4.7939 4.875-4.8672l4.5293-0.0664 2.0332-2h6.6563c4.4211 0 4.875 0.45301 4.875 4.8652v-1c0-4.4122-0.45393-4.8652-4.875-4.8652z"
     color="#000000"
     fill="#903906"
     opacity=".2"
     id="path35" />
  <path
     d="m12 9-2.0312 2h-5.4375c-3 0-4 0-4 4v3.7617c0.0267 0.64369 0.078 1.2163 0.1914 1.6699 0.15753 0.63014 0.42967 1.1258 0.84375 1.457 0.82815 0.66253 1.9375 0.60938 3.4375 0.60938h14c1.0208 0 1.8035-0.0612 2.4336-0.21875 0.63014-0.15753 1.1258-0.42967 1.457-0.84375 0.49089-0.61361 0.58764-1.3827 0.60547-2.3496v-6.0859c0.043-4-1-4-4-4z"
     color="#000000"
     fill="#666"
     id="path37" />
  <path
     d="m12 9-2.0312 2h-5.4375c-3 0-4 0-4 4v1c0-4 1-4 4-4h5.4375l2.0312-2h7.5c3 0 4.043 0 4 4v-1c0.043-4-1-4-4-4z"
     color="#000000"
     fill="#fff"
     opacity=".3"
     id="path39" />
  <path
     d="m5.0015 1.5c-1.5 0-2.6169-0.0543-3.4512 0.60742-0.41712 0.33086-0.69393 0.82918-0.84961 1.4609s-0.2102 1.4158-0.19922 2.4375v11.994c0 1.0208 0.0612 1.8035 0.21875 2.4336 0.15753 0.63014 0.42967 1.1258 0.84375 1.457 0.82815 0.66253 1.9375 0.60938 3.4375 0.60938h14c1.0208 0 1.8035-0.0612 2.4336-0.21875 0.63014-0.15753 1.1258-0.42967 1.457-0.84375 0.66253-0.82815 0.60938-1.9375 0.60938-3.4375v-10c0-1.0208-0.0612-1.8035-0.21875-2.4336-0.15753-0.63014-0.42967-1.1258-0.84375-1.457-0.82815-0.66253-1.9375-0.60938-3.4375-0.60938h-7.7637l-2.0312-2z"
     color="#000000"
     color-rendering="auto"
     dominant-baseline="auto"
     fill="none"
     image-rendering="auto"
     opacity=".4"
     shape-rendering="auto"
     solid-color="#000000"
     stroke="#000"
     style="font-feature-settings:normal;font-variant-alternates:normal;font-variant-caps:normal;font-variant-ligatures:normal;font-variant-numeric:normal;font-variant-position:normal;isolation:auto;mix-blend-mode:normal;shape-padding:0;text-decoration-color:#000000;text-decoration-line:none;text-decoration-style:solid;text-indent:0;text-orientation:mixed;text-transform:none;white-space:normal"
     id="path41" />
  <path
     d="m9.0008 2 2.0312 2h7.9688c3 0 4 0 4 4v1c0-4-1-4-4-4h-7.9688l-2.0312-2h-4c-3 0-4.043 0-4 4v-1c-0.043-4 1-4 4-4z"
     color="#000000"
     fill="#fec589"
     opacity=".4"
     id="path43" />
  <path
     d="m23 15.002-6.998 6.998h2.998c3 0 4 0 4-4z"
     color="#000000"
     fill="#fff"
     opacity=".05"
     id="path45" />
</svg>
