<?xml version="1.0" encoding="UTF-8" standalone="no"?>
<svg
   width="24"
   height="24"
   version="1"
   id="svg52"
   sodipodi:docname="folder-orange.svg"
   inkscape:version="1.1 (c4e8f9ed74, 2021-05-24)"
   xmlns:inkscape="http://www.inkscape.org/namespaces/inkscape"
   xmlns:sodipodi="http://sodipodi.sourceforge.net/DTD/sodipodi-0.dtd"
   xmlns:xlink="http://www.w3.org/1999/xlink"
   xmlns="http://www.w3.org/2000/svg"
   xmlns:svg="http://www.w3.org/2000/svg">
  <sodipodi:namedview
     id="namedview54"
     pagecolor="#ffffff"
     bordercolor="#666666"
     borderopacity="1.0"
     inkscape:pageshadow="2"
     inkscape:pageopacity="0.0"
     inkscape:pagecheckerboard="0"
     showgrid="false"
     inkscape:zoom="30.291667"
     inkscape:cx="11.983494"
     inkscape:cy="11.933975"
     inkscape:window-width="1852"
     inkscape:window-height="1052"
     inkscape:window-x="68"
     inkscape:window-y="28"
     inkscape:window-maximized="1"
     inkscape:current-layer="svg52" />
  <defs
     id="defs32">
    <linearGradient
       inkscape:collect="always"
       id="linearGradient1001">
      <stop
         style="stop-color:#1abc93;stop-opacity:1;"
         offset="0"
         id="stop997" />
      <stop
         style="stop-color:#34be5e;stop-opacity:1"
         offset="1"
         id="stop999" />
    </linearGradient>
    <linearGradient
       id="linearGradient13836"
       x1="320"
       x2="344"
       y1="212"
       y2="189"
       gradientTransform="translate(-320 -188)"
       gradientUnits="userSpaceOnUse">
      <stop
         stop-color="#2c001e"
         offset="0"
         id="stop2" />
      <stop
         stop-color="#2c001e"
         offset=".10865"
         id="stop4" />
      <stop
         stop-color="#370626"
         offset=".1869"
         id="stop6" />
      <stop
         stop-color="#55163b"
         offset=".29807"
         id="stop8" />
      <stop
         stop-color="#772953"
         offset=".37246"
         id="stop10" />
      <stop
         stop-color="#7c2b51"
         offset=".44701"
         id="stop12" />
      <stop
         stop-color="#8b314b"
         offset=".52429"
         id="stop14" />
      <stop
         stop-color="#8b314b"
         offset=".59614"
         id="stop16" />
      <stop
         stop-color="#a33a41"
         offset=".66876"
         id="stop18" />
      <stop
         stop-color="#c44732"
         offset=".79755"
         id="stop20" />
      <stop
         stop-color="#e65524"
         offset=".91251"
         id="stop22" />
      <stop
         stop-color="#e65524"
         offset="1"
         id="stop24" />
    </linearGradient>
    <linearGradient
       id="linearGradient13844"
       x1="320"
       x2="344"
       y1="194"
       y2="211"
       gradientTransform="translate(-320 -188)"
       gradientUnits="userSpaceOnUse">
      <stop
         stop-color="#666"
         offset="0"
         id="stop27" />
      <stop
         stop-color="#7a7a7a"
         offset="1"
         id="stop29" />
    </linearGradient>
    <linearGradient
       inkscape:collect="always"
       xlink:href="#linearGradient1001"
       id="linearGradient1003"
       x1="0.50013495"
       y1="12.000068"
       x2="23.502518"
       y2="12.000068"
       gradientUnits="userSpaceOnUse" />
  </defs>
  <path
     d="m5.0015 2.0002c-1.4879 0-2.7468-0.0902-3.7617 0.71484-0.5243 0.41584-0.8514 1.0282-1.0254 1.7344-0.1722 0.69874-0.2241 1.5202-0.2129 2.5625v11.988c0 1.0408 0.061 1.8596 0.2344 2.5547 0.1754 0.70174 0.495 1.3101 1.0156 1.7266 1.0084 0.80675 2.2618 0.71875 3.75 0.71875h14c1.0408 0 1.8596-0.0606 2.5547-0.23438 0.7017-0.17542 1.3101-0.49501 1.7266-1.0156 0.8067-1.0084 0.7187-2.2618 0.7187-3.75v-10c0-1.0408-0.061-1.8596-0.2344-2.5547-0.1754-0.70174-0.495-1.3101-1.0156-1.7266-1.0084-0.80675-2.2618-0.71875-3.75-0.71875h-7.5586l-2.0312-2z"
     color="#000000"
     color-rendering="auto"
     dominant-baseline="auto"
     fill="#491706"
     image-rendering="auto"
     opacity=".1"
     shape-rendering="auto"
     solid-color="#000000"
     style="font-feature-settings:normal;font-variant-alternates:normal;font-variant-caps:normal;font-variant-ligatures:normal;font-variant-numeric:normal;font-variant-position:normal;isolation:auto;mix-blend-mode:normal;shape-padding:0;text-decoration-color:#000000;text-decoration-line:none;text-decoration-style:solid;text-indent:0;text-orientation:mixed;text-transform:none;white-space:normal"
     id="path34" />
  <path
     d="m5.0015 1.5002c-1.5 0-2.6169-0.0543-3.4512 0.60742-0.4171 0.33086-0.6939 0.82918-0.8496 1.4609s-0.2102 1.4158-0.1992 2.4375v11.994c0 1.0208 0.061 1.8035 0.2188 2.4336 0.1575 0.63014 0.4296 1.1258 0.8437 1.457 0.8282 0.66253 1.9375 0.60938 3.4375 0.60938h14c1.0208 0 1.8035-0.0612 2.4336-0.21875 0.6301-0.15753 1.1258-0.42967 1.457-0.84375 0.6626-0.82815 0.6094-1.9375 0.6094-3.4375v-10c0-1.0208-0.061-1.8035-0.2187-2.4336-0.1576-0.63014-0.4297-1.1258-0.8438-1.457-0.8281-0.66253-1.9375-0.60938-3.4375-0.60938h-7.7637l-2.0312-2z"
     color="#000000"
     color-rendering="auto"
     dominant-baseline="auto"
     fill="url(#linearGradient13836)"
     image-rendering="auto"
     shape-rendering="auto"
     solid-color="#000000"
     style="font-feature-settings:normal;font-variant-alternates:normal;font-variant-caps:normal;font-variant-ligatures:normal;font-variant-numeric:normal;font-variant-position:normal;isolation:auto;mix-blend-mode:normal;shape-padding:0;text-decoration-color:#000000;text-decoration-line:none;text-decoration-style:solid;text-indent:0;text-orientation:mixed;text-transform:none;white-space:normal;fill:url(#linearGradient1003);fill-opacity:1"
     id="path36" />
  <path
     d="m23.066 15.936-6.0645 6.0644h1.1895c4.421 0 4.875-0.45302 4.875-4.8652z"
     color="#000000"
     fill="#fff"
     opacity=".2"
     id="path38" />
  <path
     d="m12.035 5.0002-2.0332 2-4.5603 0.0664c-4.4204 0.0733-4.875 0.45496-4.875 4.8672v1c0-4.4122 0.4546-4.7939 4.875-4.8672l4.5603-0.0664 2.0332-2h6.6563c4.4211 0 4.875 0.45301 4.875 4.8652v-1c0-4.4122-0.4539-4.8652-4.875-4.8652z"
     color="#000000"
     fill="#903906"
     opacity=".2"
     id="path40" />
  <path
     d="m11.999 5.9996-2.0316 2h-5.4697c-2.9644 0-3.9729 0.0155-3.9967 3.873-3e-4 2.5301 0.01 5.0607 0.068 7.5898-0.022 1.0902 0.4293 2.3092 1.4964 2.7695 0.8311 0.4034 1.7843 0.18731 2.6723 0.25391 5.3659 0.0234 10.734 0.0159 16.098-6e-3 0.8643-0.19868 1.8649-0.47721 2.2797-1.3496 0.5363-1.0223 0.2883-2.217 0.3673-3.3203 0-1.6857 0.016-3.3706 0.017-5.0566v-0.72852c-8e-4 -1.1256-0.023-2.2517-0.039-3.377-0.2191-2.6438-1.3479-2.6484-3.9617-2.6484z"
     color="#000000"
     fill="url(#linearGradient13844)"
     id="path42" />
  <path
     d="m12 6.0002-2.0313 2h-5.4685c-3 0-4 0-4 4v1c0-4 1-4 4-4h5.4685l2.0313-2h7.5c3 0 4.043 0 4 4v-1c0.043-4-1-4-4-4z"
     color="#000000"
     fill="#fff"
     opacity=".3"
     id="path44" />
  <path
     d="m5.0015 1.5002c-1.5 0-2.6169-0.0543-3.4512 0.60742-0.4171 0.33086-0.6939 0.82918-0.8496 1.4609s-0.2102 1.4158-0.1992 2.4375v11.994c0 1.0208 0.061 1.8035 0.2188 2.4336 0.1575 0.63014 0.4296 1.1258 0.8437 1.457 0.8282 0.66253 1.9375 0.60938 3.4375 0.60938h14c1.0208 0 1.8035-0.0612 2.4336-0.21875 0.6301-0.15753 1.1258-0.42967 1.457-0.84375 0.6626-0.82815 0.6094-1.9375 0.6094-3.4375v-10c0-1.0208-0.061-1.8035-0.2187-2.4336-0.1576-0.63014-0.4297-1.1258-0.8438-1.457-0.8281-0.66253-1.9375-0.60938-3.4375-0.60938h-7.7637l-2.0312-2z"
     color="#000000"
     color-rendering="auto"
     dominant-baseline="auto"
     fill="none"
     image-rendering="auto"
     opacity=".4"
     shape-rendering="auto"
     solid-color="#000000"
     stroke="#000"
     style="font-feature-settings:normal;font-variant-alternates:normal;font-variant-caps:normal;font-variant-ligatures:normal;font-variant-numeric:normal;font-variant-position:normal;isolation:auto;mix-blend-mode:normal;shape-padding:0;text-decoration-color:#000000;text-decoration-line:none;text-decoration-style:solid;text-indent:0;text-orientation:mixed;text-transform:none;white-space:normal"
     id="path46" />
  <path
     d="m9.0008 2.0002 2.0313 2h7.9687c3 0 4 0 4 4v1c0-4-1-4-4-4h-7.9687l-2.0313-2h-4c-3 0-4.0429 0-4 4v-1c-0.043-4 1-4 4-4z"
     color="#000000"
     fill="#fec589"
     opacity=".4"
     id="path48" />
  <path
     d="m23 15.002-6.9981 6.998h2.9981c3 0 4 0 4-4z"
     color="#000000"
     fill="#fff"
     opacity=".05"
     id="path50" />
</svg>
