<svg width="24" height="24" version="1" xmlns="http://www.w3.org/2000/svg" xmlns:xlink="http://www.w3.org/1999/xlink">
 <defs>
  <linearGradient id="linearGradient916" x1="441.38" x2="52.966" y1="240.3" y2="386.31" gradientTransform="matrix(0 -.059215 .059783 0 -6.7293 26.641)" gradientUnits="userSpaceOnUse">
   <stop stop-color="#bc1938" offset="0"/>
   <stop stop-color="#da1636" offset="1"/>
  </linearGradient>
  <linearGradient id="linearGradient981" x1="332" x2="332" y1="189" y2="211" gradientUnits="userSpaceOnUse">
   <stop stop-color="#fff" offset="0"/>
   <stop stop-color="#fff" stop-opacity=".098039" offset=".125"/>
   <stop stop-color="#fff" stop-opacity=".098039" offset=".925"/>
   <stop stop-color="#fff" stop-opacity=".49804" offset="1"/>
  </linearGradient>
  <clipPath id="clipPath971">
   <path d="m327.87 189c-4.4121 0-4.8868 0.45318-4.8652 4.8742v6.1258 6.1258c-0.0217 4.421 0.45311 4.8742 4.8652 4.8742h8.2696c4.4121 0 4.8652-0.45312 4.8652-4.8742v-6.1258-6.1258c0-4.4211-0.45312-4.8742-4.8652-4.8742z" color="#000000" fill="#46a926"/>
  </clipPath>
 </defs>
 <path d="m7.866 1.0046c-1.1201 0-2.0152 0.0241-2.791 0.1543-0.77577 0.13022-1.4801 0.38763-2.0098 0.91601-0.52962 0.52838-0.79079 1.2369-0.91992 2.0137-0.12912 0.77681-0.15002 1.6717-0.14453 2.7949v6.1211 6.125c-5e-3 1.121 0.0156 2.0153 0.14453 2.791 0.12912 0.77681 0.39029 1.4853 0.91992 2.0137 0.52964 0.52838 1.234 0.78579 2.0098 0.91601s1.6709 0.1543 2.791 0.1543h8.2695c1.1201 0 2.0126-0.024 2.7871-0.1543 0.77446-0.13033 1.48-0.38927 2.0078-0.91797 0.5278-0.52869 0.78594-1.2344 0.91601-2.0098 0.13007-0.77539 0.1543-1.6706 0.1543-2.793v-6.125-6.125c0-1.1224-0.0242-2.0176-0.1543-2.793-0.13007-0.77538-0.38821-1.4811-0.91601-2.0098-0.5278-0.5287-1.2333-0.78764-2.0078-0.91797-0.77448-0.13033-1.667-0.1543-2.7871-0.1543z" color="#000000" color-rendering="auto" dominant-baseline="auto" image-rendering="auto" opacity=".1" shape-rendering="auto" solid-color="#000000" style="font-feature-settings:normal;font-variant-alternates:normal;font-variant-caps:normal;font-variant-ligatures:normal;font-variant-numeric:normal;font-variant-position:normal;isolation:auto;mix-blend-mode:normal;shape-padding:0;text-decoration-color:#000000;text-decoration-line:none;text-decoration-style:solid;text-indent:0;text-orientation:mixed;text-transform:none;white-space:normal"/>
 <path d="m7.6368 0.50459c-4.657 0-5.1581 0.47378-5.1353 5.0958v6.4042 6.4043c-0.0229 4.622 0.47827 5.0957 5.1353 5.0957h8.7287c4.657 0 5.1353-0.47372 5.1353-5.0957v-6.4043-6.4042c0-4.622-0.47828-5.0958-5.1353-5.0958z" color="#000000" fill="url(#linearGradient916)"/>
 <path transform="translate(-320 -188)" d="m327.87 189c-4.4121 0-4.8868 0.45318-4.8652 4.8742v6.1258 6.1258c-0.0217 4.421 0.45311 4.8742 4.8652 4.8742h8.2696c4.4121 0 4.8652-0.45312 4.8652-4.8742v-6.1258-6.1258c0-4.4211-0.45312-4.8742-4.8652-4.8742z" clip-path="url(#clipPath971)" color="#000000" fill="none" opacity=".4" stroke="url(#linearGradient981)" stroke-width="2"/>
 <path d="m16.509 23.516c4.2321 0 5.025-0.46371 5.0028-4.9876v-6.5241-6.5242c0.0222-4.5239-0.77061-4.9876-5.0028-4.9876h-9.0174c-4.2311 0-5.0028 0.46366-5.0028 4.9876v6.5242 6.5241c0 4.5239 0.77167 4.9876 5.0028 4.9876z" color="#000000" fill="none" opacity=".4" stroke="#000" stroke-width=".97653"/>
 <path d="m6.0008 0.54171c-3.1344 0.1657-3.5198 1.0516-3.5 5.0586v12.809c-0.0199 4.007 0.36563 4.8929 3.5 5.0586z" enable-background="new" opacity=".15"/>
 <path d="m2.5006 12.005v7.4042c-8e-3 1.5759 0.0506 2.6609 0.30859 3.418 1.1692 0.53766 2.9068 0.67773 5.4766 0.67773h7.4297c2.5589 0 4.2939-0.13791 5.4629-0.66992 0.26013-0.75735 0.32227-1.8445 0.32227-3.4258v-7.4042z" enable-background="new" fill="#fff" opacity=".03"/>
 <path d="m15.8 13.004c-0.41434 0-0.77062 0.0289-1.0689 0.0869-0.29003 0.058-0.5055 0.12014-0.64638 0.18643l0.11182 0.70852c0.10773-0.0414 0.27759-0.0952 0.50962-0.16149 0.23203-0.0663 0.58432-0.0996 1.0567-0.0996 0.33146 0 0.59653 0.054 0.7954 0.1617 0.20717 0.0994 0.36469 0.23626 0.47242 0.41027 0.11601 0.16573 0.19049 0.35632 0.22363 0.57177 0.0332 0.20717 0.0497 0.42244 0.0497 0.64618v0.39781c-0.0332-0.0166-0.0953-0.0331-0.18643-0.0497-0.0829-0.0249-0.18642-0.0456-0.31072-0.0621-0.11601-0.0249-0.24027-0.0414-0.37286-0.0497-0.1243-0.0166-0.24438-0.0249-0.36041-0.0249-0.38947 0-0.74991 0.0372-1.0814 0.11182-0.33146 0.0746-0.61743 0.19486-0.85773 0.36059-0.24032 0.15745-0.42672 0.36039-0.55931 0.60898-0.13258 0.24861-0.1989 0.54693-0.1989 0.89496 0 0.36461 0.058 0.67548 0.17397 0.93237 0.12429 0.24859 0.28999 0.45571 0.49715 0.62144 0.21546 0.15744 0.46418 0.27335 0.74594 0.34792 0.29003 0.0746 0.60488 0.11203 0.94463 0.11203 0.26516 0 0.52207-0.0126 0.77067-0.0374 0.25689-0.0166 0.48889-0.0414 0.69606-0.0746 0.20716-0.0331 0.38938-0.062 0.54683-0.0869 0.15744-0.0332 0.27773-0.0622 0.36059-0.0871v-4.052c0-0.33976-0.0415-0.6548-0.12429-0.94484-0.0829-0.29002-0.2155-0.53856-0.3978-0.74572-0.18231-0.21545-0.42268-0.38115-0.721-0.49716-0.29003-0.1243-0.6463-0.18644-1.0689-0.18644zm0.24857 3.4181c0.34804 0 0.62147 0.0249 0.82035 0.0746 0.19887 0.0414 0.34385 0.0829 0.435 0.12428v2.2623c-0.16573 0.0332-0.36866 0.062-0.60896 0.0869-0.23203 0.0166-0.50547 0.0249-0.82035 0.0249-0.25689 0-0.4889-0.0207-0.69606-0.0621-0.19887-0.0498-0.37293-0.12439-0.52211-0.22382-0.14085-0.0994-0.25277-0.23188-0.33564-0.39761-0.0746-0.16574-0.11183-0.36887-0.11183-0.60918 0-0.27345 0.058-0.49312 0.17397-0.65884 0.11601-0.16573 0.26517-0.294 0.44747-0.38516 0.18231-0.0994 0.38126-0.16176 0.59671-0.18662 0.21545-0.0332 0.42256-0.0497 0.62144-0.0497z" enable-background="new" fill="#fa9381"/>
</svg>
