<svg width="24" height="24" version="1" xmlns="http://www.w3.org/2000/svg" xmlns:xlink="http://www.w3.org/1999/xlink">
 <defs>
  <linearGradient id="linearGradient1690" x1="320" x2="344" y1="212" y2="212" gradientTransform="rotate(90 266 -54)" gradientUnits="userSpaceOnUse">
   <stop stop-color="#4d4d4d" offset="0"/>
   <stop stop-color="#4d4d4d" offset="1"/>
  </linearGradient>
  <linearGradient id="linearGradient4627" x1="340" x2="340" y1="188" y2="212" gradientTransform="matrix(1 0 0 1.4286 -320 -273.71)" gradientUnits="userSpaceOnUse">
   <stop stop-color="#f9af18" offset="0"/>
   <stop stop-color="#fecf3b" offset="1"/>
  </linearGradient>
  <linearGradient id="linearGradient1690-9-3" x1="321" x2="343" y1="200" y2="200" gradientTransform="rotate(90 266 -54)" gradientUnits="userSpaceOnUse">
   <stop stop-color="#fff" offset="0"/>
   <stop stop-color="#fff" stop-opacity=".098039" offset=".125"/>
   <stop stop-color="#fff" stop-opacity=".098039" offset=".925"/>
   <stop stop-color="#fff" stop-opacity=".49804" offset="1"/>
  </linearGradient>
 </defs>
 <path d="m6.4524 1c-1.2321 0-2.2167 0.0221-3.07 0.14144-0.85332 0.11937-1.6281 0.35533-2.2107 0.83967-0.58256 0.48436-0.86983 1.1338-1.0119 1.8459-0.14202 0.71207-0.16501 1.5324-0.15897 2.562v7.6107 4.6143c-6e-3 1.0276 0.0171 1.8474 0.15897 2.5584 0.14203 0.71208 0.42931 1.3615 1.0119 1.8459 0.58258 0.48434 1.3573 0.7203 2.2107 0.83967 0.85331 0.11936 1.8379 0.14144 3.07 0.14144h11.095c1.2321 0 2.2138-0.022 3.0657-0.14144 0.85187-0.11947 1.628-0.35683 2.2085-0.84146 0.58057-0.48464 0.86451-1.1315 1.0076-1.8423 0.14307-0.71077 0.16972-1.5314 0.16972-2.5602v-4.6143-7.6142c0-1.0288-0.0266-1.8495-0.16972-2.5602-0.14307-0.71076-0.42701-1.3576-1.0076-1.8423-0.58055-0.48464-1.3566-0.722-2.2085-0.84147-0.8519-0.11947-1.8336-0.14144-3.0657-0.14144z" color="#000000" color-rendering="auto" dominant-baseline="auto" image-rendering="auto" opacity=".1" shape-rendering="auto" solid-color="#000000" style="font-feature-settings:normal;font-variant-alternates:normal;font-variant-caps:normal;font-variant-ligatures:normal;font-variant-numeric:normal;font-variant-position:normal;isolation:auto;mix-blend-mode:normal;shape-padding:0;text-decoration-color:#000000;text-decoration-line:none;text-decoration-style:solid;text-indent:0;text-orientation:mixed;text-transform:none;white-space:normal"/>
 <path d="m6.1773 0.49952c-5.1467 0-5.701 0.43187-5.6758 4.6523v5.8477 7.8477c-0.0253 4.2205 0.52912 4.6543 5.6758 4.6543h5.8223v-23.002z" color="#000000" fill="url(#linearGradient1690)"/>
 <path d="m12 0.49738v23.004h5.8227c5.1467 0 5.701-0.43381 5.6758-4.6543v-13.696c0.0253-4.2205-0.49845-4.6543-5.6758-4.6543z" enable-background="new" fill="url(#linearGradient4627)"/>
 <path d="m6 4.9995v2h-2v1h2v2h1v-2h2v-1h-2v-2z" color="#000000" fill="#f2f2f2"/>
 <path d="m9 17v-1h-5v1z" color="#000000" fill="#f2f2f2"/>
 <path d="m15 9.9995v1h5v-1zm0 3v1h5v-1z" color="#000000" fill="#fff"/>
 <path d="m0.49972 12v6.8478c0 4.2205 0.49989 4.6543 5.6758 4.6543h5.8245v-11.502z" enable-background="new" fill="#fff" opacity=".1"/>
 <path d="m11.5 0.99932v22" enable-background="new" fill="none" opacity=".1" stroke="#000" stroke-width="1px"/>
 <path d="m17.976 23.5c4.6719 0 5.5471-0.42296 5.5226-4.5492v-7.9504-5.9508c0.0245-4.1263-0.85068-4.5492-5.5226-4.5492h-11.954c-4.6707 0-5.5226 0.42291-5.5226 4.5492v5.9508 7.9504c0 4.1263 0.85185 4.5492 5.5226 4.5492z" color="#000000" fill="none" opacity=".4" stroke="#000"/>
 <path d="m6.0234 1c-2.3203 0-3.6094 0.15494-4.207 0.62109-0.29882 0.23308-0.48964 0.54668-0.625 1.0957-0.13541 0.54902-0.19141 1.3176-0.19141 2.332v5.9512 7.9508c0 1.0144 0.056 1.783 0.19141 2.332 0.13536 0.54903 0.32618 0.86263 0.625 1.0957 0.59762 0.46615 1.8868 0.62109 4.207 0.62109h11.952c2.3208 0 3.6165-0.15457 4.2168-0.62109 0.30014-0.23327 0.49095-0.54754 0.625-1.0957 0.13404-0.54816 0.18764-1.3162 0.18164-2.3301v-7.9528-5.9531c6e-3 -1.0139-0.0476-1.7819-0.18164-2.3301-0.13406-0.54817-0.32486-0.86244-0.625-1.0957-0.60028-0.46652-1.896-0.62109-4.2168-0.62109zm4.9586 1.0098c1.5798-2e-3 4.1601-3.9e-4 5.7399 0.0117 1.5002 0.0511 3.0224-0.0712 4.5 0.28321 0.55111 0.0919 0.61303 0.71807 0.67773 1.166 0.1117 4.3083 0.075 10.626 0.0508 14.941-0.0716 0.99089 0.13687 2.0761-0.30078 3.0137-0.34356 0.40964-0.9694 0.35958-1.4512 0.45509-3.9541 0.0823-9.9294 0.0499-13.894 0.0371-1.1691-0.0622-2.3729 0.11291-3.5176-0.22266-0.57935-0.098-0.6137-0.75914-0.6875-1.2207-0.1146-4.1184-0.0751-10.245-0.0547-14.369 0.0572-1.063-0.0797-2.1673 0.18164-3.2148 0.10495-0.6386 0.8614-0.66043 1.3672-0.74023 2.1305-0.19658 5.2407-0.10662 7.3883-0.14062z" color="#000000" fill="url(#linearGradient1690-9-3)"/>
</svg>
