<svg width="24" height="24" version="1" xmlns="http://www.w3.org/2000/svg" xmlns:xlink="http://www.w3.org/1999/xlink">
 <defs>
  <linearGradient id="linearGradient1690" x1="320" x2="344" y1="212" y2="212" gradientTransform="rotate(90 266 -54)" gradientUnits="userSpaceOnUse">
   <stop stop-color="#fff" offset="0"/>
   <stop stop-color="#fff" offset="1"/>
  </linearGradient>
  <linearGradient id="linearGradient1690-9-3" x1="321" x2="343" y1="200" y2="200" gradientTransform="rotate(90 266 -54)" gradientUnits="userSpaceOnUse">
   <stop stop-color="#fff" offset="0"/>
   <stop stop-color="#fff" stop-opacity=".098039" offset=".125"/>
   <stop stop-color="#fff" stop-opacity=".098039" offset=".925"/>
   <stop stop-color="#fff" stop-opacity=".49804" offset="1"/>
  </linearGradient>
 </defs>
 <path d="m6.4528 1.0005c-1.2321 0-2.2167 0.0221-3.07 0.14144-0.85332 0.11937-1.6281 0.35533-2.2107 0.83967-0.58256 0.48436-0.86983 1.1338-1.0119 1.8459-0.14202 0.71207-0.16501 1.5324-0.15897 2.562v7.6107 4.6143c-6e-3 1.0276 0.0171 1.8474 0.15897 2.5584 0.14203 0.71208 0.42931 1.3615 1.0119 1.8459 0.58258 0.48434 1.3573 0.7203 2.2107 0.83967 0.85331 0.11936 1.8379 0.14144 3.07 0.14144h11.095c1.2321 0 2.2138-0.022 3.0657-0.14144 0.85187-0.11947 1.628-0.35683 2.2085-0.84146 0.58057-0.48464 0.86451-1.1315 1.0076-1.8423 0.14307-0.71077 0.16972-1.5314 0.16972-2.5602v-4.6143-7.6142c0-1.0288-0.0266-1.8495-0.16972-2.5602-0.14307-0.71076-0.42701-1.3576-1.0076-1.8423-0.58055-0.48464-1.3566-0.722-2.2085-0.84147-0.8519-0.11947-1.8336-0.14144-3.0657-0.14144z" color="#000000" color-rendering="auto" dominant-baseline="auto" image-rendering="auto" opacity=".1" shape-rendering="auto" solid-color="#000000" style="font-feature-settings:normal;font-variant-alternates:normal;font-variant-caps:normal;font-variant-ligatures:normal;font-variant-numeric:normal;font-variant-position:normal;isolation:auto;mix-blend-mode:normal;shape-padding:0;text-decoration-color:#000000;text-decoration-line:none;text-decoration-style:solid;text-indent:0;text-orientation:mixed;text-transform:none;white-space:normal"/>
 <path d="m6.1769 0.49945c-5.1467 0-5.7004 0.43262-5.6752 4.6531v5.8479 7.8476c-0.0253 4.2205 0.52855 4.6531 5.6752 4.6531h11.646c5.1466 0 5.6752-0.43255 5.6752-4.6531v-7.8476-5.8479c0-4.2205-0.52857-4.6531-5.6752-4.6531z" color="#000000" fill="url(#linearGradient1690)"/>
 <path d="m15.79 10.222c0 0.54457 0.0196 1.0859-7e-3 1.6304-0.0261 0.61956 0.16305 1.151 0.55432 1.6206 0.0456 0.0554 0.0881 0.11087 0.12716 0.16958 0.14024 0.21196 0.11414 0.35867-0.0782 0.52173-0.41089 0.34566-0.81848 0.69455-1.2293 1.0402-0.24457 0.20542-0.39782 0.20217-0.64564 0-0.33259-0.27064-0.59347-0.60324-0.82497-0.9587-0.0554-0.0848-0.0848-0.0815-0.15326-0.0163-0.41089 0.40107-0.84456 0.77281-1.3956 0.9587-0.85108 0.2902-1.7152 0.33587-2.5695 0.0326-0.82172-0.29348-1.3141-0.9-1.4967-1.7445-0.20217-0.94239-0.0978-1.8391 0.48258-2.638 0.44022-0.60325 1.05-0.95868 1.751-1.1771 0.7239-0.22173 1.4706-0.30651 2.2206-0.38151 0.21197-0.0228 0.42066-0.0424 0.6326-0.0619 0.0522-3e-3 0.0978-0.01 0.0946-0.0783-6e-3 -0.34563 0.0294-0.69782-0.0522-1.0369-0.10435-0.43367-0.38806-0.68802-0.82173-0.7826-0.30976-0.0685-0.61628-0.0489-0.91628 0.0522-0.4565 0.15651-0.74021 0.47282-0.85433 0.94236-0.062 0.25761-0.18261 0.34891-0.43369 0.32281-0.53477-0.0554-1.0695-0.11087-1.601-0.1663-0.21848-0.0228-0.3326-0.18913-0.28696-0.4011 0.27717-1.3532 1.1641-2.113 2.4424-2.4619 0.98151-0.26737 1.9761-0.28368 2.9608-7e-3 0.79237 0.22173 1.4576 0.61304 1.8293 1.3891 0.21197 0.44021 0.26088 0.91628 0.2674 1.3924 7e-3 0.60982 0 1.2261 3e-3 1.8391-3e-3 0 0 0 0 0zm-2.5369 1.0174c0-0.16305-6e-3 -0.32607 3e-3 -0.48913 7e-3 -0.1011-0.0293-0.13697-0.13043-0.12718-0.24784 0.0228-0.49889 0.0261-0.74673 0.0587-0.43367 0.0554-0.8576 0.16306-1.2098 0.43695-0.51196 0.40109-0.61956 0.9489-0.5348 1.5652 0.1011 0.72387 0.74674 1.125 1.438 0.88368 0.46954-0.16306 0.75647-0.50867 0.9554-0.94239 0.20869-0.44016 0.22501-0.91298 0.22501-1.3858z" enable-background="new" fill="#050606" stroke-width=".26222"/>
 <path d="m12.047 18.599c-2.488-0.0163-4.7216-0.6554-6.7401-2.0021-0.41087-0.27392-0.80217-0.57392-1.1739-0.90324-0.0326-0.0293-0.0652-0.0587-0.0913-0.0946-0.0359-0.0489-0.062-0.10759-0.0196-0.1663 0.0424-0.0652 0.11414-0.0717 0.17609-0.0424 0.14347 0.0685 0.28044 0.14346 0.42063 0.21521 1.2848 0.67824 2.638 1.1674 4.0564 1.4771 1.2848 0.28044 2.5825 0.41089 3.8999 0.37499 1.8815-0.0522 3.6945-0.43042 5.439-1.1315 0.0848-0.0358 0.17285-0.0717 0.26088-0.0913 0.12393-0.0228 0.24784-7e-3 0.30327 0.12717 0.0522 0.12391-0.0163 0.22174-0.10762 0.3-0.0652 0.0554-0.14022 0.10107-0.21521 0.14999-1.125 0.73042-2.3576 1.2-3.6619 1.4902-0.86088 0.19571-1.7348 0.29024-2.5467 0.29678z" enable-background="new" fill="#f6a61f" stroke-width=".26222"/>
 <path d="m18.324 15.694c-0.37499-3e-3 -0.7467 0.0456-1.1184 0.0848-0.0717 7e-3 -0.15326 0.0261-0.18586-0.0522-0.0391-0.0881 0.0359-0.14022 0.0978-0.18261 0.46305-0.30649 0.98151-0.42715 1.5261-0.45651 0.37499-0.0228 0.74671-6e-3 1.1119 0.10435 0.1663 0.0489 0.24781 0.14674 0.24457 0.31631-0.0196 0.90649-0.32283 1.6956-0.97824 2.338-0.0228 0.0228-0.0489 0.0424-0.075 0.0619-0.0587 0.0424-0.13042 0.0815-0.1924 0.0293-0.0587-0.0489-0.0261-0.12066 0-0.17934 0.1924-0.47933 0.38805-0.9554 0.48258-1.4674 0.0131-0.0652 0.0163-0.13043 0.0196-0.19241 3e-3 -0.21196-0.0717-0.30324-0.28044-0.3554-0.21849-0.0587-0.43697-0.0489-0.65219-0.0489z" enable-background="new" fill="#f6a61f" stroke-width=".26222"/>
 <path d="m17.977 23.5c4.6719 0 5.5471-0.42296 5.5226-4.5492v-7.9504-5.9508c0.0245-4.1263-0.85068-4.5492-5.5226-4.5492h-11.954c-4.6707 0-5.5226 0.42291-5.5226 4.5492v5.9508 7.9504c0 4.1263 0.85185 4.5492 5.5226 4.5492z" color="#000000" fill="none" opacity=".4" stroke="#000"/>
 <path d="m6.0238 1.0005c-2.3203 0-3.6094 0.15494-4.207 0.62109-0.29882 0.23308-0.48964 0.54668-0.625 1.0957-0.13541 0.54902-0.19141 1.3176-0.19141 2.332v5.9512 7.9508c0 1.0144 0.056 1.783 0.19141 2.332 0.13536 0.54903 0.32618 0.86263 0.625 1.0957 0.59762 0.46615 1.8868 0.62109 4.207 0.62109h11.952c2.3208 0 3.6165-0.15457 4.2168-0.62109 0.30014-0.23327 0.49095-0.54754 0.625-1.0957 0.13404-0.54816 0.18764-1.3162 0.18164-2.3301v-7.9528-5.9531c6e-3 -1.0139-0.0476-1.7819-0.18164-2.3301-0.13406-0.54817-0.32486-0.86244-0.625-1.0957-0.60028-0.46652-1.896-0.62109-4.2168-0.62109zm4.9586 1.0098c1.5798-2e-3 4.1601-3.9e-4 5.7399 0.0117 1.5002 0.0511 3.0224-0.0712 4.5 0.28321 0.55111 0.0919 0.61303 0.71807 0.67773 1.166 0.1117 4.3083 0.075 10.626 0.0508 14.941-0.0716 0.99089 0.13687 2.0761-0.30078 3.0137-0.34356 0.40964-0.9694 0.35958-1.4512 0.45509-3.9541 0.0823-9.9294 0.0499-13.894 0.0371-1.1691-0.0622-2.3729 0.11291-3.5176-0.22266-0.57935-0.098-0.6137-0.75914-0.6875-1.2207-0.1146-4.1184-0.0751-10.245-0.0547-14.369 0.0572-1.063-0.0797-2.1673 0.18164-3.2148 0.10495-0.6386 0.8614-0.66043 1.3672-0.74023 2.1305-0.19658 5.2407-0.10662 7.3883-0.14062z" color="#000000" fill="url(#linearGradient1690-9-3)"/>
</svg>
