<svg width="24" height="24" version="1" xmlns="http://www.w3.org/2000/svg" xmlns:xlink="http://www.w3.org/1999/xlink">
 <defs>
  <linearGradient id="linearGradient916" x1="459.03" x2="35.31" y1="419.23" y2="207.37" gradientTransform="matrix(0 -.056641 -.056639 0 29.745 26)" gradientUnits="userSpaceOnUse">
   <stop stop-color="#76c22b" offset="0"/>
   <stop stop-color="#a6d74f" offset="1"/>
  </linearGradient>
  <linearGradient id="linearGradient981" x1="332" x2="332" y1="189" y2="211" gradientUnits="userSpaceOnUse">
   <stop stop-color="#fff" offset="0"/>
   <stop stop-color="#fff" stop-opacity=".098039" offset=".125"/>
   <stop stop-color="#fff" stop-opacity=".098039" offset=".925"/>
   <stop stop-color="#fff" stop-opacity=".49804" offset="1"/>
  </linearGradient>
  <clipPath id="clipPath971">
   <path d="m327.87 189c-4.4121 0-4.8868 0.45318-4.8652 4.8742v6.1258 6.1258c-0.0217 4.421 0.45311 4.8742 4.8652 4.8742h8.2696c4.4121 0 4.8652-0.45312 4.8652-4.8742v-6.1258-6.1258c0-4.4211-0.45312-4.8742-4.8652-4.8742z" color="#000000" fill="#46a926"/>
  </clipPath>
 </defs>
 <path d="m16.135 0.5c1.1116 0 1.9868 0.0256 2.707 0.14648 0.72019 0.1209 1.3105 0.34863 1.7422 0.7793 0.43169 0.43067 0.65954 1.0197 0.7793 1.7402 0.11977 0.72049 0.14217 1.5967 0.13672 2.7109v6.123 6.125c5e-3 1.1131-0.017 1.989-0.13672 2.709-0.11976 0.72051-0.3476 1.3096-0.7793 1.7402-0.43169 0.43067-1.022 0.6584-1.7422 0.7793-0.7202 0.12089-1.5954 0.14648-2.707 0.14648h-8.2695c-1.1116 0-1.9864-0.0255-2.7051-0.14648-0.7187-0.12095-1.3062-0.34848-1.7363-0.7793-0.4301-0.43083-0.6566-1.0185-0.77735-1.7383-0.12074-0.71979-0.14648-1.5971-0.14648-2.7109v-6.125-6.125c0-1.1138 0.0257-1.9912 0.14648-2.7109 0.12075-0.71979 0.34725-1.3074 0.77735-1.7383 0.4301-0.43082 1.0176-0.65835 1.7363-0.7793 0.7187-0.12094 1.5935-0.14648 2.7051-0.14648z" color="#000000" fill="url(#linearGradient916)"/>
 <g transform="translate(-320 -188)" enable-background="new">
  <path d="m331.23 202.57c-0.0442-0.44394-0.31035-0.63029-1.3268-0.92915-0.67532-0.19856-0.79723-0.24259-1.1403-0.41189-0.28374-0.14001-0.34327-0.18152-0.53871-0.3757-0.17681-0.17567-0.24044-0.26065-0.32584-0.43521-0.15642-0.31973-0.18164-0.49564-0.18236-1.2718l-6.1e-4 -0.65489-0.1038-0.0766c-0.47655-0.35151-0.52562-1.0944-0.10037-1.5196 0.45967-0.45967 1.2241-0.37645 1.5746 0.17142 0.26119 0.40832 0.18586 0.97261-0.17292 1.2952-0.0715 0.0643-0.14131 0.11684-0.15519 0.11684-0.0163 0-0.0217 0.23862-0.0154 0.66989 9e-3 0.63953 0.0126 0.67542 0.0694 0.79181 0.11692 0.23935 0.38679 0.39737 1.0103 0.59157 0.79209 0.24672 1.1776 0.37594 1.2951 0.43411l0.12122 0.06v-5.916h-0.49764c-0.28613 0-0.49763-0.01-0.49763-0.0235 0-0.043 1.4797-2.4902 1.5057-2.4902s1.5057 2.4472 1.5057 2.4902c0 0.0135-0.21151 0.0235-0.49764 0.0235h-0.49763v4.4668l0.12122-0.0613c0.19683-0.0996 0.61805-0.23355 1.2468-0.39656 1.0881-0.28211 1.4219-0.43765 1.5556-0.72479 0.0594-0.12752 0.0617-0.15365 0.0619-0.70027l2e-4 -0.56782h-0.48488v-2.0416h2.0161v2.0416h-0.47876l-0.0128 0.64438c-0.01 0.48722-0.023 0.68094-0.0546 0.79432-0.13646 0.48939-0.49845 0.88504-1.04 1.1368-0.30366 0.14112-0.58933 0.23335-1.2695 0.40986-1.0898 0.28281-1.4119 0.42734-1.5766 0.7076l-0.0719 0.12229-8e-3 0.88044-8e-3 0.88042-2e-3 0.3781c-0.69083 0.84546-0.94379 0.29588-1.0241-0.51016z" opacity=".1" stroke-width="3.7797"/>
  <g transform="matrix(.11324 0 0 .11324 327.92 175.32)" opacity=".1" stroke-width="12.26">
   <path d="m15.221 259.2c-1.6268 0-2.9365 1.1218-2.9365 2.5175v12.585c0 1.3938 1.3097 2.5156 2.9365 2.5156 1.6268 0 2.9365-1.1217 2.9365-2.5175v-12.584c0-1.3958-1.3097-2.5175-2.9365-2.5175z"/>
   <path transform="matrix(.26458 0 0 .26458 0 229.27)" d="m97.934 27.83c-0.3271 0.01923-0.65837 0.07121-0.98828 0.16211-2.6396 0.70752-4.1936 3.4014-3.4863 6.041l6.2324 23.256c-31.035 14.902-31.061 53.385-31.061 53.385v62.805c0 11.661 8.799 21.051 19.732 21.051h9.8633v19.732c0 5.4605 5.6314 9.8633 11.092 9.8633 5.4678 0 11.1-4.4028 11.1-9.8633v-19.73h14.797v19.73c-8e-3 5.4605 5.6318 9.8633 11.1 9.8633 5.4604 0 11.098-4.4028 11.098-9.8633v-19.732h9.8672c10.936 0 19.732-9.3902 19.732-21.051v-62.805s-0.0275-38.479-31.07-53.381l6.2305-23.26c0.71027-2.64-0.84289-5.3336-3.4844-6.041-2.6414-0.70749-5.3346 0.84839-6.0449 3.4883l-5.9863 22.369c-5.5048-1.5004-11.735-2.3691-18.838-2.3691-7.1034 0-13.333 0.87077-18.834 2.3711l-5.9863-22.373c-0.53271-1.9792-2.1829-3.3486-4.0918-3.6113h-0.0039c-0.3174-0.04195-0.64165-0.05634-0.96875-0.03711zm0.28711 48.312a7.3989 7.3989 0 0 1 7.3984 7.3984 7.3989 7.3989 0 0 1-7.3984 7.3984 7.3989 7.3989 0 0 1-7.3984-7.3984 7.3989 7.3989 0 0 1 7.3984-7.3984zm59.191 0a7.3989 7.3989 0 0 1 7.3984 7.3984 7.3989 7.3989 0 0 1-7.3984 7.3984 7.3989 7.3989 0 0 1-7.3984-7.3984 7.3989 7.3989 0 0 1 7.3984-7.3984zm-71.77 29.596h84.348c1.2297 0 2.2207 1.6497 2.2207 3.6992s-0.991 3.6992-2.2207 3.6992h-84.348c-1.2282 0-2.2207-1.6497-2.2207-3.6992s0.99248-3.6992 2.2207-3.6992z"/>
   <path d="m52.416 259.2c-1.6268 0-2.9365 1.1218-2.9365 2.5175v12.585c0 1.3938 1.3097 2.5156 2.9365 2.5156 1.6268 0 2.9365-1.1217 2.9365-2.5175v-12.585c0-1.3938-1.3097-2.5156-2.9365-2.5156z"/>
  </g>
  <g transform="matrix(.10268 0 0 .10268 316.39 183.78)" fill="#f9f9f9">
   <path d="m144.51 178.14c-0.43086-4.3236-3.0226-6.1386-12.922-9.0492-6.577-1.9338-7.7643-2.3626-11.106-4.0114-2.7635-1.3636-3.3432-1.7679-5.2466-3.659-1.722-1.7108-2.3417-2.5386-3.1734-4.2386-1.5234-3.1138-1.769-4.8271-1.776-12.387l-6e-3 -6.3781-1.0109-0.74559c-4.6412-3.4234-5.1191-10.658-0.97754-14.8 4.4768-4.4768 11.921-3.6663 15.335 1.6695 2.5438 3.9767 1.8102 9.4723-1.684 12.614-0.6961 0.62582-1.3762 1.1379-1.5114 1.1379-0.15826 0-0.21159 2.3239-0.14976 6.5242 0.0917 6.2284 0.12232 6.578 0.67606 7.7115 1.1387 2.331 3.767 3.87 9.8392 5.7613 7.7143 2.4028 11.469 3.6614 12.613 4.2278l1.1806 0.58439v-57.617h-4.8465c-2.7867 0-4.8465-0.0973-4.8465-0.22879 0-0.4188 14.411-24.252 14.664-24.252 0.25324 0 14.664 23.834 14.664 24.252 0 0.13181-2.0598 0.22879-4.8465 0.22879h-4.8465v43.503l1.1806-0.59718c1.917-0.96979 6.0193-2.2746 12.143-3.8622 10.597-2.7475 13.848-4.2623 15.15-7.0588 0.57821-1.2419 0.60071-1.4964 0.60306-6.82l2e-3 -5.53h-4.7224v-19.883h19.635v19.883h-4.6627l-0.1247 6.2756c-0.0943 4.7452-0.22402 6.6318-0.53191 7.7361-1.329 4.7662-4.8545 8.6195-10.129 11.071-2.9573 1.3744-5.7396 2.2726-12.364 3.9917-10.614 2.7543-13.75 4.1619-15.355 6.8914l-0.7001 1.191-0.0742 8.5747-0.0742 8.5746-0.0237 3.6824c-6.7281 8.234-9.1918 2.8816-9.9741-4.9685z" stroke-width="36.811"/>
   <g transform="matrix(1.1029 0 0 1.1029 112.23 -87.256)" stroke-width="12.26">
    <path d="m15.221 259.2c-1.6268 0-2.9365 1.1218-2.9365 2.5175v12.585c0 1.3938 1.3097 2.5156 2.9365 2.5156 1.6268 0 2.9365-1.1217 2.9365-2.5175v-12.584c0-1.3958-1.3097-2.5175-2.9365-2.5175z"/>
    <path transform="matrix(.26458 0 0 .26458 0 229.27)" d="m97.934 27.83c-0.3271 0.01923-0.65837 0.07121-0.98828 0.16211-2.6396 0.70752-4.1936 3.4014-3.4863 6.041l6.2324 23.256c-31.035 14.902-31.061 53.385-31.061 53.385v62.805c0 11.661 8.799 21.051 19.732 21.051h9.8633v19.732c0 5.4605 5.6314 9.8633 11.092 9.8633 5.4678 0 11.1-4.4028 11.1-9.8633v-19.73h14.797v19.73c-8e-3 5.4605 5.6318 9.8633 11.1 9.8633 5.4604 0 11.098-4.4028 11.098-9.8633v-19.732h9.8672c10.936 0 19.732-9.3902 19.732-21.051v-62.805s-0.0275-38.479-31.07-53.381l6.2305-23.26c0.71027-2.64-0.84289-5.3336-3.4844-6.041-2.6414-0.70749-5.3346 0.84839-6.0449 3.4883l-5.9863 22.369c-5.5048-1.5004-11.735-2.3691-18.838-2.3691-7.1034 0-13.333 0.87077-18.834 2.3711l-5.9863-22.373c-0.53271-1.9792-2.1829-3.3486-4.0918-3.6113h-0.0039c-0.3174-0.04195-0.64165-0.05634-0.96875-0.03711zm0.28711 48.312a7.3989 7.3989 0 0 1 7.3984 7.3984 7.3989 7.3989 0 0 1-7.3984 7.3984 7.3989 7.3989 0 0 1-7.3984-7.3984 7.3989 7.3989 0 0 1 7.3984-7.3984zm59.191 0a7.3989 7.3989 0 0 1 7.3984 7.3984 7.3989 7.3989 0 0 1-7.3984 7.3984 7.3989 7.3989 0 0 1-7.3984-7.3984 7.3989 7.3989 0 0 1 7.3984-7.3984zm-71.77 29.596h84.348c1.2297 0 2.2207 1.6497 2.2207 3.6992s-0.991 3.6992-2.2207 3.6992h-84.348c-1.2282 0-2.2207-1.6497-2.2207-3.6992s0.99248-3.6992 2.2207-3.6992z"/>
    <path d="m52.416 259.2c-1.6268 0-2.9365 1.1218-2.9365 2.5175v12.585c0 1.3938 1.3097 2.5156 2.9365 2.5156 1.6268 0 2.9365-1.1217 2.9365-2.5175v-12.585c0-1.3938-1.3097-2.5156-2.9365-2.5156z"/>
   </g>
  </g>
 </g>
 <path d="m3.0008 12v6.125c-0.0217 4.421 0.45314 4.875 4.8652 4.875h8.2695c4.4121 0 4.8652-0.45393 4.8652-4.875v-6.125z" color="#000000" fill="#fff" opacity=".08"/>
 <path d="m12.001 1v22h4.1348c4.4121 0 4.8652-0.45393 4.8652-4.875v-6.125-6.125c0-4.4211-0.45314-4.875-4.8652-4.875z" color="#000000" fill="#fff" opacity=".08"/>
 <path d="m7.866 0.5c-1.1116 0-1.9868 0.0256-2.707 0.14648-0.72019 0.1209-1.3105 0.34863-1.7422 0.7793-0.43169 0.43067-0.65954 1.0197-0.7793 1.7402-0.11977 0.72049-0.14217 1.5967-0.13672 2.7109v6.123 6.125c-5e-3 1.1131 0.017 1.989 0.13672 2.709 0.11976 0.72051 0.3476 1.3096 0.7793 1.7402 0.43169 0.43067 1.022 0.6584 1.7422 0.7793 0.7202 0.12089 1.5954 0.14648 2.707 0.14648h8.2695c1.1116 0 1.9864-0.0255 2.7051-0.14648 0.7187-0.12095 1.3062-0.34848 1.7363-0.7793 0.4301-0.43083 0.6566-1.0185 0.77735-1.7383 0.12074-0.71979 0.14648-1.5971 0.14648-2.7109v-6.125-6.125c0-1.1138-0.0257-1.9912-0.14648-2.7109-0.12075-0.71979-0.34725-1.3074-0.77735-1.7383-0.4301-0.43082-1.0176-0.65835-1.7363-0.7793-0.7187-0.12094-1.5935-0.14648-2.7051-0.14648z" color="#000000" fill="none" opacity=".4" stroke="#000"/>
 <path transform="translate(-320 -188)" d="m327.87 189c-4.4121 0-4.8868 0.45318-4.8652 4.8742v6.1258 6.1258c-0.0217 4.421 0.45311 4.8742 4.8652 4.8742h8.2696c4.4121 0 4.8652-0.45312 4.8652-4.8742v-6.1258-6.1258c0-4.4211-0.45312-4.8742-4.8652-4.8742z" clip-path="url(#clipPath971)" color="#000000" fill="none" opacity=".4" stroke="url(#linearGradient981)" stroke-width="2"/>
</svg>
