<svg width="24" height="24" version="1" xmlns="http://www.w3.org/2000/svg" xmlns:xlink="http://www.w3.org/1999/xlink">
 <defs>
  <linearGradient id="linearGradient4641" x1="340" x2="340" y1="202" y2="211" gradientTransform="translate(-320 -188)" gradientUnits="userSpaceOnUse">
   <stop stop-color="#a2bcfe" offset="0"/>
   <stop stop-color="#fff" offset="1"/>
  </linearGradient>
  <linearGradient id="linearGradient981" x1="332" x2="332" y1="191" y2="209" gradientTransform="rotate(-90 332 200)" gradientUnits="userSpaceOnUse">
   <stop stop-color="#fff" offset="0"/>
   <stop stop-color="#fff" stop-opacity=".098039" offset=".125"/>
   <stop stop-color="#fff" stop-opacity=".098039" offset=".925"/>
   <stop stop-color="#fff" stop-opacity=".49804" offset="1"/>
  </linearGradient>
  <clipPath id="clipPath971">
   <path d="m327.87 189c-4.4121 0-4.8868 0.45318-4.8652 4.8742v6.1258 6.1258c-0.0217 4.421 0.45311 4.8742 4.8652 4.8742h8.2696c4.4121 0 4.8652-0.45312 4.8652-4.8742v-6.1258-6.1258c0-4.4211-0.45312-4.8742-4.8652-4.8742z" color="#000000" fill="#46a926"/>
  </clipPath>
 </defs>
 <path d="m24 8.8656c0-1.1201-0.0241-2.0152-0.1543-2.791-0.13022-0.77577-0.38763-1.4801-0.91601-2.0098-0.52838-0.52962-1.2369-0.79079-2.0137-0.91992-0.77681-0.12912-1.6717-0.15002-2.7949-0.14453h-6.1211-6.125c-1.121-5e-3 -2.0153 0.0156-2.791 0.14453-0.77681 0.12912-1.4853 0.39029-2.0137 0.91992-0.52838 0.52964-0.78579 1.234-0.91601 2.0098s-0.1543 1.6709-0.1543 2.791v8.2695c0 1.1201 0.024 2.0126 0.1543 2.7871 0.13033 0.77446 0.38927 1.48 0.91797 2.0078 0.52869 0.5278 1.2344 0.78594 2.0098 0.91601 0.77539 0.13007 1.6706 0.1543 2.793 0.1543h6.125 6.125c1.1224 0 2.0176-0.0242 2.793-0.1543 0.77538-0.13007 1.4811-0.38821 2.0098-0.91601 0.5287-0.5278 0.78764-1.2333 0.91797-2.0078 0.13033-0.77448 0.1543-1.667 0.1543-2.7871z" color="#000000" color-rendering="auto" dominant-baseline="auto" image-rendering="auto" opacity=".1" shape-rendering="auto" solid-color="#000000" style="font-feature-settings:normal;font-variant-alternates:normal;font-variant-caps:normal;font-variant-ligatures:normal;font-variant-numeric:normal;font-variant-position:normal;isolation:auto;mix-blend-mode:normal;shape-padding:0;text-decoration-color:#000000;text-decoration-line:none;text-decoration-style:solid;text-indent:0;text-orientation:mixed;text-transform:none;white-space:normal"/>
 <path d="m23.5 7.636c0-4.657-0.47377-5.1581-5.0957-5.1353h-6.4043-6.4042c-4.622-0.0229-5.0957 0.47826-5.0957 5.1353v8.7287c0 4.657 0.47371 5.1353 5.0957 5.1353h6.4042 6.4043c4.622 0 5.0957-0.47827 5.0957-5.1353z" color="#000000" fill="#3b3b3b"/>
 <path d="m1.5004 13.5h3.4217l2.2956-5.2722 3.0609 8.2379 1.913-4.9427 0.76522 1.9771 0.76522 1.8123 0.76522-1.8123h8.013" enable-background="new" fill="none" stroke="#a2bcfe" stroke-linecap="square"/>
 <path d="m7.2172 8.2285-2.2949 5.2715h-3.9219l-0.5 0.0234v1.2012c0 3.1961 0.22439 5.0947 1.1582 6.2207 0.74665 0.46457 1.9605 0.55469 3.9375 0.55469h12.809c1.977 0 3.1908-0.0901 3.9375-0.55469 0.93381-1.126 1.1582-3.0246 1.1582-6.2207v-0.85938c-0.13165-0.09556-0.5-0.36519-0.5-0.36519h-8.5137l-0.76367 1.8125-0.76563-1.8125-0.76562-1.9766-1.9141 4.9434z" enable-background="new" fill="url(#linearGradient4641)" opacity=".1"/>
 <path d="m23.512 7.4916c0-4.2321-0.46371-5.025-4.9876-5.0028h-6.5241-6.5242c-4.5239-0.0222-4.9876 0.77061-4.9876 5.0028v9.0174c0 4.2311 0.46366 5.0028 4.9876 5.0028h6.5242 6.5241c4.5239 0 4.9876-0.77167 4.9876-5.0028z" color="#000000" fill="none" opacity=".4" stroke="#000" stroke-width=".97653"/>
 <path transform="rotate(90 266 -54)" d="m327.87 189c-4.4121 0-4.8868 0.45318-4.8652 4.8742v6.1258 6.1258c-0.0217 4.421 0.45311 4.8742 4.8652 4.8742h8.2696c4.4121 0 4.8652-0.45312 4.8652-4.8742v-6.1258-6.1258c0-4.4211-0.45312-4.8742-4.8652-4.8742z" clip-path="url(#clipPath971)" color="#000000" fill="none" opacity=".3" stroke="url(#linearGradient981)" stroke-width="2"/>
</svg>
