<svg width="24" height="24" version="1" xmlns="http://www.w3.org/2000/svg">
 <defs>
  <linearGradient id="linearGradient8588-0-1" x1="13.735" x2="38.1" y1="249.69" y2="292.77" gradientTransform="matrix(.48294 0 0 .48294 -.01112 -119.42)" gradientUnits="userSpaceOnUse">
   <stop stop-color="#8c59d9" offset="0"/>
   <stop stop-color="#a7a7f1" offset="1"/>
  </linearGradient>
  <linearGradient id="linearGradient8590-3-3" x1="96" x2="96" y1="4" y2="188" gradientTransform="matrix(.11957 0 0 .11957 .52176 .52174)" gradientUnits="userSpaceOnUse">
   <stop stop-color="#fff" offset="0"/>
   <stop stop-color="#fff" stop-opacity=".098039" offset=".125"/>
   <stop stop-color="#fff" stop-opacity=".098039" offset=".925"/>
   <stop stop-color="#fff" stop-opacity=".49804" offset="1"/>
  </linearGradient>
  <linearGradient id="linearGradient1230" x1="344" x2="366" y1="94" y2="94" gradientTransform="matrix(.52381 0 0 .52381 -178.95 -56.238)" gradientUnits="userSpaceOnUse">
   <stop stop-color="#fff" offset="0"/>
   <stop stop-color="#fff" stop-opacity="0" offset="1"/>
  </linearGradient>
 </defs>
 <ellipse transform="scale(-1)" cx="-12" cy="-12.523" rx="12" ry="11.477" enable-background="new" opacity=".1"/>
 <ellipse cx="12" cy="12" rx="11.5" ry="11.5" enable-background="new" fill="url(#linearGradient8588-0-1)"/>
 <ellipse cx="12" cy="11.977" rx="11.455" ry="11.477" enable-background="new" fill="none" opacity=".4" stroke="#000" stroke-dashoffset="6.6" stroke-linejoin="round"/>
 <path d="m12 1c-6.0751 0-11 4.9249-11 11s4.9249 11 11 11 11-4.9249 11-11-4.9249-11-11-11zm0 1a10 10 0 0 1 10 10 10 10 0 0 1-10 10 10 10 0 0 1-10-10 10 10 0 0 1 10-10z" enable-background="new" fill="url(#linearGradient8590-3-3)"/>
 <path d="m6.8618 1.203a11.5 11.774 0 0 0-0.56901 0.32194c-0.13346 2.2901-0.15801 4.5424-0.0109 6.7082-1.387-0.88109-2.7252-1.7945-4.0344-2.7135a11.5 11.774 0 0 0-0.28664 0.47962c1.2735 0.89445 2.5766 1.7858 3.9274 2.6478-1.8648 0.71196-3.655 1.6056-5.3714 2.7179a11.5 11.774 0 0 0-0.0169 0.36574 11.5 11.774 0 0 0 0.0109 0.31537c1.8532-1.2376 3.7963-2.2174 5.8356-2.9741 0.12658 1.4296 0.31927 2.8244 0.60537 4.1633 0.31164 1.4583 0.73966 2.847 1.2706 4.1677-0.78261 0.26556-1.5656 0.47739-2.3231 0.63731-1.2271 0.25909-2.3386 0.36341-3.3306 0.40516a11.5 11.774 0 0 0 0.37863 0.54095c0.93721-0.0568 1.9497-0.1613 3.0632-0.3964 0.78912-0.16661 1.6069-0.3864 2.4258-0.66578 0.90196 2.0857 2.1059 3.9684 3.6772 5.5759a11.5 11.774 0 0 0 0.76366-0.0329c-1.6966-1.6238-2.9843-3.5581-3.9296-5.7358 2.2846-0.85234 4.5365-2.1981 6.2206-4.2597 2.4831 0.95276 5.0645 1.6475 7.7415 1.9557a11.5 11.774 0 0 0 0.1583-0.54533c-5.7362-0.63832-11.053-3.1146-15.904-6.1015 3.0853-1.0494 6.3849-1.6332 9.8636-1.9798-0.49314 2.0328-1.182 4.0007-2.0386 5.8781l0.49627 0.23653c0.89759-1.9673 1.6131-4.037 2.1177-6.1782 1.5191-0.13872 3.0828-0.22679 4.6697-0.29567a11.5 11.774 0 0 0-0.30376-0.55408c-1.4353 0.0647-2.852 0.14883-4.2355 0.27157 0.2986-1.3868 0.50189-2.8048 0.59895-4.2465a11.5 11.774 0 0 0-0.53692-0.33727c-0.089 1.5799-0.30134 3.1323-0.63747 4.6473-3.6336 0.35191-7.0864 0.95855-10.319 2.0762-0.1607-2.2801-0.13041-4.6645 0.0235-7.0958zm0.0514 8.0835c2.4473 1.5061 5.0067 2.8982 7.7009 3.9793-1.5968 1.8821-3.7148 3.1413-5.8784 3.9465-0.52114-1.2936-0.9416-2.6579-1.2492-4.0976-0.26313-1.2313-0.44796-2.512-0.57329-3.8282z" color="#000000" color-rendering="auto" dominant-baseline="auto" fill="#fff" fill-rule="evenodd" image-rendering="auto" opacity=".5" shape-rendering="auto" solid-color="#000000" style="font-feature-settings:normal;font-variant-alternates:normal;font-variant-caps:normal;font-variant-ligatures:normal;font-variant-numeric:normal;font-variant-position:normal;isolation:auto;mix-blend-mode:normal;shape-padding:0;text-decoration-color:#000000;text-decoration-line:none;text-decoration-style:solid;text-indent:0;text-orientation:mixed;text-transform:none;white-space:normal"/>
 <ellipse cx="6.3259" cy="8.7985" rx="1.2977" ry="1.327" enable-background="new" fill="#fff"/>
 <ellipse cx="8.9192" cy="17.596" rx="1.2977" ry="1.327" enable-background="new" fill="#fff"/>
 <ellipse cx="17.571" cy="6.9802" rx="1.2977" ry="1.327" enable-background="new" fill="#fff"/>
 <ellipse cx="14.975" cy="13.173" rx="1.2977" ry="1.327" enable-background="new" fill="#fff"/>
 <ellipse cx="17" cy="17" rx="6.5" ry="6.5" fill="#e95420" stroke="#000" stroke-dashoffset="1" stroke-linecap="round" stroke-linejoin="round" stroke-opacity=".4"/>
 <circle transform="rotate(90)" cx="17" cy="-17" r="5.5" fill="none" opacity=".3" stroke="url(#linearGradient1230)" stroke-dashoffset="1" stroke-linecap="round" stroke-linejoin="round" stroke-opacity=".4"/>
 <path d="m17.654 13-1.3161 9.3e-5v0.87533c0.4341-0.08937 0.88202-0.08851 1.3161 0.0027v-0.87783zm-2.6929 0.59676-1.0027 0.85453 0.494 0.59022c0.2747-0.3488 0.618-0.63723 1.0087-0.84744zm4.0643 0.0064-0.49642 0.5932c0.02865 0.0147 0.05708 0.02981 0.08528 0.04536 0.3553 0.20693 0.66829 0.47956 0.92228 0.80339l0.50256-0.6003zm-5.805 2.1135-0.22028 1.3008 0.75768 0.13402c-0.01365-0.44438 0.06378-0.88668 0.22754-1.2995zm7.5429 0.0014-0.7614 0.13458c0.165 0.41259 0.2439 0.85456 0.23183 1.2986l0.76643-0.13518zm-6.8412 2.353-0.67574 0.39124h-2.25e-4l0.66551 1.1383 0.66904-0.38713c-0.29503-0.3319-0.51918-0.72069-0.65862-1.1424zm6.1504 0.0014c-0.06808 0.21164-0.15768 0.41567-0.26739 0.60888-0.11042 0.1914-0.24007 0.37097-0.38694 0.5359l0.66941 0.3875 0.65079-1.1468zm-4.7784 1.74-0.2674 0.73619 1.2398 0.44332 0.26292-0.72443c-0.4056-0.05953-0.7964-0.19559-1.1517-0.40095-0.02815-0.0176-0.05602-0.03564-0.08361-0.05413zm3.4066 0.0077c-0.37724 0.23328-0.79838 0.3864-1.2373 0.44985l0.26515 0.73003 1.2338-0.45937z" color="#000000" fill="#fff"/>
 <path d="m16.987 13.865a3.1373 3.1449 0 0 0-3.1372 3.1448 3.1373 3.1449 0 0 0 3.1372 3.1448 3.1373 3.1449 0 0 0 3.1372-3.1448 3.1373 3.1449 0 0 0-3.1372-3.1448zm0 0.4192a2.719 2.7256 0 0 1 2.719 2.7256 2.719 2.7256 0 0 1-2.719 2.7256 2.719 2.7256 0 0 1-2.719-2.7256 2.719 2.7256 0 0 1 2.719-2.7256z" enable-background="new" fill="#fff" stroke="#fff" stroke-linecap="round" stroke-linejoin="round" stroke-width=".4902"/>
</svg>
