<svg width="24" height="24" version="1" xmlns="http://www.w3.org/2000/svg" xmlns:xlink="http://www.w3.org/1999/xlink">
 <defs>
  <linearGradient id="linearGradient8590-3-3" x1="96" x2="96" y1="4" y2="188" gradientTransform="matrix(.11957 0 0 .11957 .52176 .52174)" gradientUnits="userSpaceOnUse">
   <stop stop-color="#fff" offset="0"/>
   <stop stop-color="#fff" stop-opacity=".098039" offset=".125"/>
   <stop stop-color="#fff" stop-opacity=".098039" offset=".925"/>
   <stop stop-color="#fff" stop-opacity=".49804" offset="1"/>
  </linearGradient>
 </defs>
 <rect transform="matrix(0,-1,-1,0,0,0)" x="-24" y="-23" width="22" height="22" rx="11" ry="11" enable-background="new" opacity=".2"/>
 <rect transform="matrix(0,-1,-1,0,0,0)" x="-23" y="-22.913" width="22" height="22" rx="11" ry="11" enable-background="new" fill="#f76363"/>
 <ellipse cx="11.913" cy="12" rx="11" ry="11.021" enable-background="new" fill="none" opacity=".4" stroke="#000" stroke-dashoffset="6.6" stroke-linejoin="round"/>
 <path d="m11.913 1.5c-5.799 0-10.5 4.701-10.5 10.5 0 5.799 4.701 10.5 10.5 10.5s10.5-4.701 10.5-10.5c0-5.799-4.701-10.5-10.5-10.5zm0 0.95454a9.5455 9.5455 0 0 1 9.5454 9.5455 9.5455 9.5455 0 0 1-9.5454 9.5454 9.5455 9.5455 0 0 1-9.5455-9.5454 9.5455 9.5455 0 0 1 9.5455-9.5455z" enable-background="new" fill="url(#linearGradient8590-3-3)"/>
 <path d="m8.8714 6.2286a3.6109 3.6109 0 0 0-3.61 3.5301c0 0.90778 0.23778 1.6163 0.48133 2.2709 1.1427 2.7051 3.3693 4.9654 6.2573 7.6762 2.888-2.7108 5.1146-4.9712 6.2573-7.6762 0.24355-0.65462 0.48133-1.3631 0.48133-2.2719a3.6109 3.6109 0 0 0-6.7386-1.7193 3.6081 3.6081 0 0 0-3.1286-1.8098z" color="#000000" enable-background="new" fill="#fff" overflow="visible" stroke-width=".96266"/>
</svg>
