<svg width="24" height="24" version="1" xmlns="http://www.w3.org/2000/svg" xmlns:xlink="http://www.w3.org/1999/xlink">
 <defs>
  <linearGradient id="linearGradient4880" x1="319.61" x2="344.89" y1="215.81" y2="184.1" gradientTransform="rotate(90 266 -54)" gradientUnits="userSpaceOnUse">
   <stop stop-color="#1a7fd4" offset="0"/>
   <stop stop-color="#6dc7f1" offset="1"/>
  </linearGradient>
  <linearGradient id="linearGradient928" x1="256" x2="256" y1="375" y2="135.28" gradientTransform="matrix(.041662 0 0 .041662 1.1928 1.335)" gradientUnits="userSpaceOnUse">
   <stop stop-color="#f5f5f5" offset="0"/>
   <stop stop-color="#f1d7e9" offset="1"/>
  </linearGradient>
  <linearGradient id="linearGradient981" x1="332" x2="332" y1="191" y2="209" gradientTransform="rotate(-90 332 200)" gradientUnits="userSpaceOnUse">
   <stop stop-color="#fff" offset="0"/>
   <stop stop-color="#fff" stop-opacity=".098039" offset=".125"/>
   <stop stop-color="#fff" stop-opacity=".098039" offset=".925"/>
   <stop stop-color="#fff" stop-opacity=".49804" offset="1"/>
  </linearGradient>
  <clipPath id="clipPath971">
   <path d="m327.87 189c-4.4121 0-4.8868 0.45318-4.8652 4.8742v6.1258 6.1258c-0.0217 4.421 0.45311 4.8742 4.8652 4.8742h8.2696c4.4121 0 4.8652-0.45312 4.8652-4.8742v-6.1258-6.1258c0-4.4211-0.45312-4.8742-4.8652-4.8742z" color="#000000" fill="#46a926"/>
  </clipPath>
 </defs>
 <path d="m24 8.8656c0-1.1201-0.0241-2.0152-0.1543-2.791-0.13022-0.77577-0.38763-1.4801-0.91601-2.0098-0.52838-0.52962-1.2369-0.79079-2.0137-0.91992-0.77681-0.12912-1.6717-0.15002-2.7949-0.14453h-6.1211-6.125c-1.121-5e-3 -2.0153 0.0156-2.791 0.14453-0.77681 0.12912-1.4853 0.39029-2.0137 0.91992-0.52838 0.52964-0.78579 1.234-0.91601 2.0098s-0.1543 1.6709-0.1543 2.791v8.2695c0 1.1201 0.024 2.0126 0.1543 2.7871 0.13033 0.77446 0.38927 1.48 0.91797 2.0078 0.52869 0.5278 1.2344 0.78594 2.0098 0.91601 0.77539 0.13007 1.6706 0.1543 2.793 0.1543h6.125 6.125c1.1224 0 2.0176-0.0242 2.793-0.1543 0.77538-0.13007 1.4811-0.38821 2.0098-0.91601 0.5287-0.5278 0.78764-1.2333 0.91797-2.0078 0.13033-0.77448 0.1543-1.667 0.1543-2.7871z" color="#000000" color-rendering="auto" dominant-baseline="auto" image-rendering="auto" opacity=".1" shape-rendering="auto" solid-color="#000000" style="font-feature-settings:normal;font-variant-alternates:normal;font-variant-caps:normal;font-variant-ligatures:normal;font-variant-numeric:normal;font-variant-position:normal;isolation:auto;mix-blend-mode:normal;shape-padding:0;text-decoration-color:#000000;text-decoration-line:none;text-decoration-style:solid;text-indent:0;text-orientation:mixed;text-transform:none;white-space:normal"/>
 <path d="m23.5 7.636c0-4.657-0.47377-5.1581-5.0957-5.1353h-6.4043-6.4042c-4.622-0.0229-5.0957 0.47826-5.0957 5.1353v8.7287c0 4.657 0.47371 5.1353 5.0957 5.1353h6.4042 6.4043c4.622 0 5.0957-0.47827 5.0957-5.1353z" color="#000000" fill="url(#linearGradient4880)"/>
 <path d="m1.1635 12v3.8477c-0.0253 4.2205 0.52718 4.6543 5.6738 4.6543l10.325 3e-5c5.1466 1e-5 5.6758-0.43378 5.6758-4.6543v-3.8477z" color="#000000" fill="#fff" opacity=".1"/>
 <path d="m8.0004 8.0011v9.9989s4.7385-2.0497 8.8825-5.0026c0-6.8e-4 -7.2e-4 -1e-3 -7.2e-4 -3e-3 -3.3e-4 -1e-3 -9.9e-4 -2e-3 -3e-3 -4e-3 -7.2e-4 -7.1e-4 -9.9e-4 -2e-3 -2e-3 -4e-3 -7.2e-4 -1e-3 -7.2e-4 -3e-3 -7.2e-4 -4e-3 -4.3703-3.047-8.8757-4.9838-8.8757-4.9838z" color="#000000" opacity=".1"/>
 <path d="m8.0004 7.0011v9.9989s4.7385-2.0497 8.8825-5.0026c0-6.8e-4 -7.2e-4 -1e-3 -7.2e-4 -3e-3 -3.3e-4 -1e-3 -9.9e-4 -2e-3 -3e-3 -4e-3 -7.2e-4 -7.1e-4 -9.9e-4 -2e-3 -2e-3 -4e-3 -7.2e-4 -1e-3 -7.2e-4 -3e-3 -7.2e-4 -4e-3 -4.3703-3.047-8.8757-4.9838-8.8757-4.9838z" color="#000000" fill="url(#linearGradient928)"/>
 <path d="m23.512 7.4916c0-4.2321-0.46371-5.025-4.9876-5.0028h-6.5241-6.5242c-4.5239-0.0222-4.9876 0.77061-4.9876 5.0028v9.0174c0 4.2311 0.46366 5.0028 4.9876 5.0028h6.5242 6.5241c4.5239 0 4.9876-0.77167 4.9876-5.0028z" color="#000000" fill="none" opacity=".4" stroke="#000" stroke-width=".97653"/>
 <path transform="rotate(90 266 -54)" d="m327.87 189c-4.4121 0-4.8868 0.45318-4.8652 4.8742v6.1258 6.1258c-0.0217 4.421 0.45311 4.8742 4.8652 4.8742h8.2696c4.4121 0 4.8652-0.45312 4.8652-4.8742v-6.1258-6.1258c0-4.4211-0.45312-4.8742-4.8652-4.8742z" clip-path="url(#clipPath971)" color="#000000" fill="none" opacity=".7" stroke="url(#linearGradient981)" stroke-width="2"/>
 <path d="m21.486 9.0036c-0.11528-8e-3 -0.25052 2e-3 -0.41015 0.0156l-6.209 1.125c-0.81332 0.0828-0.90176 0.46246-0.89453 0.93554v8.5195c-0.41338-0.27155-0.85577-0.46484-1.4453-0.46484-0.75911 0-1.2123 0.29098-1.4863 0.67383-0.27403 0.38285-0.36524 0.86524-0.36524 1.2383 0 0.44983 0.15511 0.92907 0.48829 1.2949s0.84551 0.62304 1.582 0.62305c0.83169 0 1.4154-0.23199 1.7461-0.68555 0.26039-0.35711 0.40565-0.83534 0.45703-1.4238 7e-3 -0.0714 0.0111-0.14515 0.0156-0.2207 4e-3 -0.0599 3e-3 -0.1018 4e-3 -0.17187h4e-3v-6.7031c0.0221-0.61938 0.58398-0.71094 0.58398-0.71094l4.8535-0.91406c0.56193-0.17179 0.5625 0.52343 0.5625 0.52343v5.9414c-0.41338-0.27156-0.85577-0.46484-1.4453-0.46485-0.75911 0-1.2123 0.29098-1.4863 0.67383-0.27403 0.38285-0.36524 0.86525-0.36524 1.2383 0 0.44983 0.15511 0.92907 0.48829 1.2949 0.33318 0.36585 0.84551 0.62303 1.582 0.62304 0.83169 0 1.4154-0.23198 1.7461-0.68554 0.26039-0.35711 0.40565-0.83535 0.45703-1.4238 7e-3 -0.0714 0.0111-0.14515 0.0156-0.22071 4e-3 -0.0599 3e-3 -0.1018 4e-3 -0.17187h4e-3v-9.5684c0.0119-0.68564-0.14049-0.86619-0.48633-0.89062z" color="#000000" color-rendering="auto" dominant-baseline="auto" fill-rule="evenodd" image-rendering="auto" opacity=".05" shape-rendering="auto" solid-color="#000000" stroke="#000" stroke-linejoin="round" stroke-width="2" style="font-feature-settings:normal;font-variant-alternates:normal;font-variant-caps:normal;font-variant-ligatures:normal;font-variant-numeric:normal;font-variant-position:normal;isolation:auto;mix-blend-mode:normal;shape-padding:0;text-decoration-color:#000000;text-decoration-line:none;text-decoration-style:solid;text-indent:0;text-orientation:mixed;text-transform:none;white-space:normal"/>
 <path d="m21.486 10.004c-0.11528-8e-3 -0.25052 2e-3 -0.41015 0.0156l-6.209 1.125c-0.81332 0.0828-0.90176 0.46246-0.89453 0.93554v8.5195c-0.41338-0.27155-0.85577-0.46484-1.4453-0.46484-0.75911 0-1.2123 0.29098-1.4863 0.67383-0.27403 0.38285-0.36524 0.86524-0.36524 1.2383 0 0.44983 0.15511 0.92907 0.48829 1.2949s0.84551 0.62304 1.582 0.62305c0.83169 0 1.4154-0.23199 1.7461-0.68555 0.26039-0.35711 0.40565-0.83534 0.45703-1.4238 7e-3 -0.0714 0.0111-0.14515 0.0156-0.2207 4e-3 -0.0599 3e-3 -0.1018 4e-3 -0.17187h4e-3v-6.7031c0.0221-0.61938 0.58398-0.71094 0.58398-0.71094l4.8535-0.91406c0.56193-0.17179 0.5625 0.52343 0.5625 0.52343v5.9414c-0.41338-0.27156-0.85577-0.46484-1.4453-0.46485-0.75911 0-1.2123 0.29098-1.4863 0.67383-0.27403 0.38285-0.36524 0.86525-0.36524 1.2383 0 0.44983 0.15511 0.92907 0.48829 1.2949 0.33318 0.36585 0.84551 0.62303 1.582 0.62304 0.83169 0 1.4154-0.23198 1.7461-0.68554 0.26039-0.35711 0.40565-0.83535 0.45703-1.4238 7e-3 -0.0714 0.0111-0.14515 0.0156-0.22071 4e-3 -0.0599 3e-3 -0.1018 4e-3 -0.17187h4e-3v-9.5684c0.0119-0.68564-0.14049-0.86619-0.48633-0.89062z" color="#000000" color-rendering="auto" dominant-baseline="auto" fill-rule="evenodd" image-rendering="auto" opacity=".1" shape-rendering="auto" solid-color="#000000" style="font-feature-settings:normal;font-variant-alternates:normal;font-variant-caps:normal;font-variant-ligatures:normal;font-variant-numeric:normal;font-variant-position:normal;isolation:auto;mix-blend-mode:normal;shape-padding:0;text-decoration-color:#000000;text-decoration-line:none;text-decoration-style:solid;text-indent:0;text-orientation:mixed;text-transform:none;white-space:normal"/>
 <path d="m21.486 9.0036c-0.11528-8e-3 -0.25052 2e-3 -0.41015 0.0156l-6.209 1.125c-0.81332 0.0828-0.90176 0.46246-0.89453 0.93554v8.5195c-0.41338-0.27155-0.85577-0.46484-1.4453-0.46484-0.75911 0-1.2123 0.29098-1.4863 0.67383-0.27403 0.38285-0.36524 0.86524-0.36524 1.2383 0 0.44983 0.15511 0.92907 0.48829 1.2949s0.84551 0.62304 1.582 0.62305c0.83169 0 1.4154-0.23199 1.7461-0.68555 0.26039-0.35711 0.40565-0.83534 0.45703-1.4238 7e-3 -0.0714 0.0111-0.14515 0.0156-0.2207 4e-3 -0.0599 3e-3 -0.1018 4e-3 -0.17187h4e-3v-6.7031c0.0221-0.61938 0.58398-0.71094 0.58398-0.71094l4.8535-0.91406c0.56193-0.17179 0.5625 0.52343 0.5625 0.52343v5.9414c-0.41338-0.27156-0.85577-0.46484-1.4453-0.46485-0.75911 0-1.2123 0.29098-1.4863 0.67383-0.27403 0.38285-0.36524 0.86525-0.36524 1.2383 0 0.44983 0.15511 0.92907 0.48829 1.2949 0.33318 0.36585 0.84551 0.62303 1.582 0.62304 0.83169 0 1.4154-0.23198 1.7461-0.68554 0.26039-0.35711 0.40565-0.83535 0.45703-1.4238 7e-3 -0.0714 0.0111-0.14515 0.0156-0.22071 4e-3 -0.0599 3e-3 -0.1018 4e-3 -0.17187h4e-3v-9.5684c0.0119-0.68564-0.14049-0.86619-0.48633-0.89062z" color="#000000" color-rendering="auto" dominant-baseline="auto" fill="#34be5d" fill-rule="evenodd" image-rendering="auto" shape-rendering="auto" solid-color="#000000" style="font-feature-settings:normal;font-variant-alternates:normal;font-variant-caps:normal;font-variant-ligatures:normal;font-variant-numeric:normal;font-variant-position:normal;isolation:auto;mix-blend-mode:normal;shape-padding:0;text-decoration-color:#000000;text-decoration-line:none;text-decoration-style:solid;text-indent:0;text-orientation:mixed;text-transform:none;white-space:normal"/>
</svg>
