<svg width="24" height="24" version="1" xmlns="http://www.w3.org/2000/svg">
 <defs>
  <linearGradient id="linearGradient981" x1="332" x2="332" y1="191" y2="209" gradientTransform="rotate(-90 332 200)" gradientUnits="userSpaceOnUse">
   <stop stop-color="#fff" offset="0"/>
   <stop stop-color="#fff" stop-opacity=".098039" offset=".125"/>
   <stop stop-color="#fff" stop-opacity=".098039" offset=".925"/>
   <stop stop-color="#fff" stop-opacity=".49804" offset="1"/>
  </linearGradient>
  <clipPath id="clipPath971">
   <path d="m327.87 189c-4.4121 0-4.8868 0.45318-4.8652 4.8742v12.252c-0.0217 4.421 0.45311 4.8742 4.8652 4.8742h8.2696c4.4121 0 4.8652-0.45312 4.8652-4.8742v-12.252c0-4.4211-0.45312-4.8742-4.8652-4.8742z" color="#000000" fill="#46a926"/>
  </clipPath>
  <linearGradient id="linearGradient1230" x1="344" x2="366" y1="94" y2="94" gradientTransform="matrix(.52381 0 0 .52381 -178.95 -56.238)" gradientUnits="userSpaceOnUse">
   <stop stop-color="#fff" offset="0"/>
   <stop stop-color="#fff" stop-opacity="0" offset="1"/>
  </linearGradient>
 </defs>
 <path d="m5.5961 2.5c-1.9675-0.01-3.1782 0.0807-3.9258 0.54102-0.11794 0.14051-0.22382 0.29315-0.32031 0.45898-0.19298 0.33166-0.34617 0.71673-0.46484 1.1621-0.0593 0.22269-0.11067 0.46061-0.1543 0.71484-0.0432 0.25175-0.0777 0.51999-0.10742 0.80469-2e-3 0.0224-4e-3 0.0477-6e-3 0.0703-0.0263 0.26362-0.0479 0.53892-0.0645 0.83203-0.0363 0.65597-0.0527 1.3764-0.0527 2.1914v5.4492c0 0.82368 0.0156 1.5535 0.0527 2.2148 0.0174 0.30195 0.0405 0.59079 0.0684 0.86133 0.0291 0.28225 0.0632 0.5469 0.10547 0.79688 8.4e-4 5e-3 1e-3 0.0107 2e-3 0.0156 0.0425 0.24952 0.0928 0.48198 0.15039 0.70117 9.6e-4 4e-3 9.8e-4 8e-3 2e-3 0.0117 0.0586 0.22169 0.12716 0.42851 0.20312 0.6211 0.0745 0.18889 0.15703 0.3645 0.25 0.52734 3e-3 6e-3 6e-3 0.0119 0.01 0.0176 0.0946 0.1635 0.1992 0.31415 0.31445 0.45312 0.74665 0.46459 1.9606 0.55469 3.9375 0.55469h6.4041v-19z" enable-background="new" fill="#f6f5f4"/>
 <path d="m24 8.8656c0-1.1201-0.0241-2.0152-0.1543-2.791-0.13022-0.77577-0.38763-1.4801-0.91601-2.0098-0.52838-0.52962-1.2369-0.79079-2.0137-0.91992-0.77681-0.12912-1.6717-0.15002-2.7949-0.14453h-12.246c-1.121-5e-3 -2.0153 0.0156-2.791 0.14453-0.77681 0.12912-1.4853 0.39029-2.0137 0.91992-0.52838 0.52964-0.78579 1.234-0.91601 2.0098s-0.1543 1.6709-0.1543 2.791v8.2695c0 1.1201 0.024 2.0126 0.1543 2.7871 0.13033 0.77446 0.38927 1.48 0.91797 2.0078 0.52869 0.5278 1.2344 0.78594 2.0098 0.91601 0.77539 0.13007 1.6706 0.1543 2.793 0.1543h12.25c1.1224 0 2.0176-0.0242 2.793-0.1543 0.77538-0.13007 1.4811-0.38821 2.0098-0.91601s0.78764-1.2333 0.91797-2.0078c0.13033-0.77448 0.1543-1.667 0.1543-2.7871z" color="#000000" color-rendering="auto" dominant-baseline="auto" image-rendering="auto" opacity=".1" shape-rendering="auto" solid-color="#000000" style="font-feature-settings:normal;font-variant-alternates:normal;font-variant-caps:normal;font-variant-ligatures:normal;font-variant-numeric:normal;font-variant-position:normal;isolation:auto;mix-blend-mode:normal;shape-padding:0;text-decoration-color:#000000;text-decoration-line:none;text-decoration-style:solid;text-indent:0;text-orientation:mixed;text-transform:none;white-space:normal"/>
 <path d="m23.5 7.636c0-4.657-0.47377-5.1581-5.0957-5.1353h-12.808c-4.622-0.0229-5.0957 0.47826-5.0957 5.1353v8.7287c0 4.657 0.47371 5.1353 5.0957 5.1353h12.808c4.622 0 5.0957-0.47827 5.0957-5.1353z" color="#000000" fill="#f6f5f4"/>
 <path d="m12 2.5v19h6.4043c1.977 0 3.1908-0.0901 3.9375-0.55469 0.93381-1.126 1.1582-3.0246 1.1582-6.2207v-5.4492c0-3.2092-0.22635-5.1102-1.1699-6.2344-0.74757-0.46034-1.9582-0.55073-3.9258-0.54102z" enable-background="new" fill="#3584e4"/>
 <path d="m12 12v9.5h6.4043c1.977 0 3.1908-0.0901 3.9375-0.55469 0.93381-1.126 1.1582-3.0246 1.1582-6.2207v-2.7246z" enable-background="new" fill="#fff" opacity=".1"/>
 <path d="m12.5 2.5v19" enable-background="new" fill="none" opacity=".1" stroke="#000" stroke-width="1px"/>
 <path d="m7.9906 15q-0.1212-0.35497-0.25109-0.7013-0.1299-0.34632-0.25108-0.70995h-2.5281q-0.12119 0.36364-0.25108 0.71861-0.1212 0.34632-0.24243 0.69264h-1.1342q0.33766-0.96104 0.64069-1.7749t0.58873-1.5411q0.29438-0.72728 0.58009-1.3853 0.28571-0.658 0.58875-1.2987h1.0303q0.30303 0.6407 0.58875 1.2987 0.28572 0.65802 0.57143 1.3853 0.29438 0.72725 0.5974 1.5411 0.31169 0.81386 0.64936 1.7749zm-1.7662-4.8398q-0.19915 0.45888-0.45889 1.1169-0.25108 0.658-0.52813 1.4286h1.974q-0.27707-0.77057-0.53682-1.4372-0.25972-0.66668-0.4502-1.1082z" enable-background="new" fill="#77767b"/>
 <path d="m17.258 7.9645v1.2215h-3.2576v0.81435h1.3474c0.48467 1.251 1.0799 2.3118 1.7812 3.1776-0.81592 0.84501-1.7603 1.413-2.8349 1.7245l0.22686 0.78214c1.1942-0.34621 2.2442-0.9846 3.1442-1.9036 0.89998 0.91905 1.95 1.5574 3.1442 1.9036l0.22685-0.78214c-1.0746-0.31154-2.019-0.87949-2.8349-1.7245 0.70129-0.8658 1.2965-1.9267 1.7812-3.1776h1.3475v-0.81435h-3.2576v-1.2215zm-1.0338 2.0359h2.882c-0.41344 1.0065-0.89371 1.8566-1.441 2.5592-0.5473-0.7026-1.0276-1.5527-1.441-2.5592z" enable-background="new" fill="#fff" stroke="#fff" stroke-linecap="round" stroke-width=".25"/>
 <path d="m23.512 7.4916c0-4.2321-0.46371-5.025-4.9876-5.0028h-13.048c-4.5239-0.0222-4.9876 0.77061-4.9876 5.0028v9.0174c0 4.2311 0.46366 5.0028 4.9876 5.0028h13.048c4.5239 0 4.9876-0.77167 4.9876-5.0028z" color="#000000" fill="none" opacity=".4" stroke="#000" stroke-width=".97653"/>
 <path transform="rotate(90 266 -54)" d="m327.87 189c-4.4121 0-4.8868 0.45318-4.8652 4.8742v12.252c-0.0217 4.421 0.45311 4.8742 4.8652 4.8742h8.2696c4.4121 0 4.8652-0.45312 4.8652-4.8742v-12.252c0-4.4211-0.45312-4.8742-4.8652-4.8742z" clip-path="url(#clipPath971)" color="#000000" fill="none" opacity=".7" stroke="url(#linearGradient981)" stroke-width="2"/>
 <ellipse cx="14.975" cy="13.173" rx="1.2977" ry="1.327" enable-background="new" fill="#fff"/>
 <circle cx="17" cy="17" r="6.5" fill="#e95420" stroke="#000" stroke-dashoffset="1" stroke-linecap="round" stroke-linejoin="round" stroke-opacity=".4"/>
 <circle transform="rotate(90)" cx="17" cy="-17" r="5.5" fill="none" opacity=".3" stroke="url(#linearGradient1230)" stroke-dashoffset="1" stroke-linecap="round" stroke-linejoin="round" stroke-opacity=".4"/>
 <path d="m17.654 13-1.3161 9.3e-5v0.87533c0.4341-0.08937 0.88202-0.08851 1.3161 0.0027v-0.87783zm-2.6929 0.59676-1.0027 0.85453 0.494 0.59022c0.2747-0.3488 0.618-0.63723 1.0087-0.84744zm4.0643 0.0064-0.49642 0.5932c0.02865 0.0147 0.05708 0.02981 0.08528 0.04536 0.3553 0.20693 0.66829 0.47956 0.92228 0.80339l0.50256-0.6003zm-5.805 2.1135-0.22028 1.3008 0.75768 0.13402c-0.01365-0.44438 0.06378-0.88668 0.22754-1.2995zm7.5429 0.0014-0.7614 0.13458c0.165 0.41259 0.2439 0.85456 0.23183 1.2986l0.76643-0.13518zm-6.8412 2.353-0.67574 0.39124h-2.25e-4l0.66551 1.1383 0.66904-0.38713c-0.29503-0.3319-0.51918-0.72069-0.65862-1.1424zm6.1504 0.0014c-0.06808 0.21164-0.15768 0.41567-0.26739 0.60888-0.11042 0.1914-0.24007 0.37097-0.38694 0.5359l0.66941 0.3875 0.65079-1.1468zm-4.7784 1.74-0.2674 0.73619 1.2398 0.44332 0.26292-0.72443c-0.4056-0.05953-0.7964-0.19559-1.1517-0.40095-0.02815-0.0176-0.05602-0.03564-0.08361-0.05413zm3.4066 0.0077c-0.37724 0.23328-0.79838 0.3864-1.2373 0.44985l0.26515 0.73003 1.2338-0.45937z" color="#000000" fill="#fff"/>
 <path d="m16.987 13.865a3.1373 3.1449 0 0 0-3.1372 3.1448 3.1373 3.1449 0 0 0 3.1372 3.1448 3.1373 3.1449 0 0 0 3.1372-3.1448 3.1373 3.1449 0 0 0-3.1372-3.1448zm0 0.4192a2.719 2.7256 0 0 1 2.719 2.7256 2.719 2.7256 0 0 1-2.719 2.7256 2.719 2.7256 0 0 1-2.719-2.7256 2.719 2.7256 0 0 1 2.719-2.7256z" enable-background="new" fill="#fff" stroke="#fff" stroke-linecap="round" stroke-linejoin="round" stroke-width=".4902"/>
</svg>
