<svg width="24" height="24" version="1" xmlns="http://www.w3.org/2000/svg" xmlns:xlink="http://www.w3.org/1999/xlink">
 <defs>
  <linearGradient id="linearGradient1690" x1="320" x2="344" y1="212" y2="212" gradientTransform="rotate(90 266 -54)" gradientUnits="userSpaceOnUse">
   <stop stop-color="#f7f7f7" offset="0"/>
   <stop stop-color="#f7f7f7" offset="1"/>
  </linearGradient>
  <linearGradient id="linearGradient1690-9" x1="321" x2="343" y1="200" y2="200" gradientTransform="rotate(90 266 -54)" gradientUnits="userSpaceOnUse">
   <stop stop-color="#fff" offset="0"/>
   <stop stop-color="#fff" stop-opacity=".098039" offset=".125"/>
   <stop stop-color="#fff" stop-opacity=".098039" offset=".925"/>
   <stop stop-color="#fff" stop-opacity=".49804" offset="1"/>
  </linearGradient>
 </defs>
 <path d="m6.4524 1c-1.2321 0-2.2167 0.0221-3.07 0.14144-0.85332 0.11937-1.6281 0.35533-2.2107 0.83967-0.58256 0.48436-0.86983 1.1338-1.0119 1.8459-0.14202 0.71207-0.16501 1.5324-0.15897 2.562v7.6107 4.6143c-6e-3 1.0276 0.0171 1.8474 0.15897 2.5584 0.14203 0.71208 0.42931 1.3615 1.0119 1.8459 0.58258 0.48434 1.3573 0.7203 2.2107 0.83967 0.85331 0.11936 1.8379 0.14144 3.07 0.14144h11.095c1.2321 0 2.2138-0.022 3.0657-0.14144 0.85187-0.11947 1.628-0.35683 2.2085-0.84146 0.58057-0.48464 0.86451-1.1315 1.0076-1.8423 0.14307-0.71077 0.16972-1.5314 0.16972-2.5602v-4.6143-7.6142c0-1.0288-0.0266-1.8495-0.16972-2.5602-0.14307-0.71076-0.42701-1.3576-1.0076-1.8423-0.58055-0.48464-1.3566-0.722-2.2085-0.84147-0.8519-0.11947-1.8336-0.14144-3.0657-0.14144z" color="#000000" color-rendering="auto" dominant-baseline="auto" image-rendering="auto" opacity=".1" shape-rendering="auto" solid-color="#000000" style="font-feature-settings:normal;font-variant-alternates:normal;font-variant-caps:normal;font-variant-ligatures:normal;font-variant-numeric:normal;font-variant-position:normal;isolation:auto;mix-blend-mode:normal;shape-padding:0;text-decoration-color:#000000;text-decoration-line:none;text-decoration-style:solid;text-indent:0;text-orientation:mixed;text-transform:none;white-space:normal"/>
 <path d="m6.1765 0.49897c-5.1467 0-5.7004 0.43262-5.6752 4.6531v5.8479 7.8476c-0.0253 4.2205 0.52855 4.6531 5.6752 4.6531h11.646c5.1466 0 5.6752-0.43255 5.6752-4.6531v-7.8476-5.8479c0-4.2205-0.52857-4.6531-5.6752-4.6531z" color="#000000" fill="url(#linearGradient1690)"/>
 <path d="m13.638 7.6628a0.29058 0.29058 0 1 1-0.58116-1e-4 0.29058 0.29058 0 0 1 0.58116 1e-4zm-4.5777-0.81784a0.25202 0.25202 0 1 1-0.50405 0 0.25202 0.25202 0 0 1 0.50405 0zm-1.2143 4.4854a0.21788 0.21788 0 1 1-0.43576 0 0.21788 0.21788 0 0 1 0.43576 0zm9.9304 4.2124a0.31646 0.31646 0 1 1-0.63291-2e-4 0.31646 0.31646 0 0 1 0.63291 2e-4zm-10.856 1.8157a0.23596 0.23596 0 1 1-0.47192 0 0.23596 0.23596 0 0 1 0.47192 0zm4.8115-0.98048a0.25423 0.25423 0 1 1-0.50836 0.0103 0.25423 0.25423 0 0 1 0.50836-0.0103zm5.0658-5.2655a0.21788 0.21788 0 1 1-0.43576 0 0.21788 0.21788 0 0 1 0.43576 0zm-10.658 2.7598a0.19971 0.19971 0 1 1-0.39942 0 0.19971 0.19971 0 0 1 0.39942 0zm8.1523-3.5224a0.25413 0.25413 0 1 1-0.50826 2e-4 0.25413 0.25413 0 0 1 0.50826-2e-4zm-0.79884 1.9973c0 0.84227-0.68281 1.5251-1.5252 1.5251-0.84227 0-1.5251-0.68281-1.5251-1.5251 0-0.84238 0.68281-1.5252 1.5251-1.5252 0.84238 0 1.5252 0.68281 1.5252 1.5252zm3.5722 1.8966c-0.29716-0.61423-0.69791-1.2692-1.1905-1.9385 0.49255-0.66926 0.8933-1.3242 1.1904-1.9386 1.3328 0.49398 2.1611 1.1804 2.1611 1.9386s-0.82831 1.4446-2.161 1.9385zm0.0445 3.1713c-0.53609 0.53608-1.6071 0.43576-2.8988-0.15741 0.22425-0.64441 0.40404-1.391 0.529-2.2125 0.82143-0.12486 1.5681-0.30465 2.2124-0.5289 0.59317 1.2916 0.69349 2.3627 0.15741 2.8988m-5.1098 2.1165c-0.75818 0-1.4446-0.82831-1.9386-2.1611 0.61432-0.29705 1.2694-0.6978 1.9386-1.1904 0.66926 0.49255 1.3242 0.8933 1.9386 1.1904-0.49399 1.3328-1.1804 2.1611-1.9386 2.1611zm-5.1098-2.1165c-0.53609-0.53609-0.43577-1.6072 0.1573-2.8988 0.64441 0.22425 1.3911 0.40404 2.2125 0.5289 0.12496 0.82164 0.30475 1.5681 0.529 2.2125-1.2917 0.59317-2.3627 0.69349-2.8988 0.15741zm-2.1165-5.1098c0-0.75818 0.82831-1.4446 2.1611-1.9386 0.29705 0.61432 0.6978 1.2693 1.1904 1.9386-0.49255 0.66926-0.8933 1.3242-1.1904 1.9385-1.3327-0.49389-2.161-1.1803-2.161-1.9385zm2.1165-5.1098c0.53608-0.53609 1.6072-0.43577 2.8988 0.1574-0.22425 0.64431-0.40404 1.3909-0.529 2.2124-0.82143 0.12496-1.5681 0.30465-2.2125 0.529-0.59307-1.2916-0.69339-2.3627-0.1573-2.8988zm5.1098-2.1165c0.75818 0 1.4446 0.82831 1.9386 2.1611-0.61433 0.29695-1.2694 0.6978-1.9386 1.1904-0.66916-0.49255-1.3242-0.8934-1.9386-1.1904 0.49398-1.3328 1.1804-2.1611 1.9386-2.1611zm2.9023 6.0242c-0.0279-0.45282-0.0716-0.89064-0.12917-1.3105 0.77163 0.12126 1.4763 0.2912 2.0858 0.50004-0.28329 0.5786-0.66145 1.197-1.1214 1.8284a17.626 17.626 0 0 0-0.83529-1.018zm0.0183 2.0505c0.012-0.27816 0.0187-0.56083 0.0187-0.84833s-7e-3 -0.57018-0.0187-0.84833a17.072 17.072 0 0 1 0.68055 0.84833 17.072 17.072 0 0 1-0.68055 0.84833zm-0.0183 0.35383a17.626 17.626 0 0 0 0.83529-1.018c0.4599 0.63137 0.83806 1.2498 1.1214 1.8284-0.6095 0.20885-1.3142 0.37878-2.0858 0.50004 0.0576-0.41985 0.10124-0.85767 0.12917-1.3105zm-1.437 1.4629a19.818 19.818 0 0 0 0.61299-0.5866c0.20331-0.20331 0.3985-0.40795 0.58671-0.6131-0.0288 0.3717-0.069 0.73251-0.11859 1.0811-0.3486 0.0496-0.70941 0.0896-1.0811 0.11859zm-0.26316 0.23729c0.45291-0.0279 0.89073-0.0715 1.3105-0.12917-0.12116 0.77163-0.29119 1.4763-0.50004 2.0857-0.57859-0.28319-1.197-0.66125-1.8284-1.1212 0.34962-0.26563 0.68918-0.5442 1.018-0.83529m-2.0505 0.0183c0.27815 0.0119 0.56083 0.0186 0.84833 0.0186s0.57017-7e-3 0.84833-0.0186a17.132 17.132 0 0 1-0.84833 0.68055 17.132 17.132 0 0 1-0.84833-0.68055zm-0.35383-0.0183a17.593 17.593 0 0 0 1.018 0.83529c-0.63147 0.46-1.2499 0.83806-1.8285 1.1212-0.20884-0.6094-0.37888-1.3141-0.50004-2.0857 0.41975 0.0577 0.85757 0.10124 1.3105 0.12917zm-1.4629-1.437a19.818 19.818 0 0 0 0.58661 0.61299c0.2033 0.20331 0.40794 0.3985 0.61309 0.58671-0.3717-0.029-0.73251-0.069-1.0811-0.11859a17.118 17.118 0 0 1-0.1186-1.0811zm-0.23729-0.26316c0.0279 0.45281 0.0716 0.89063 0.12917 1.3105-0.77163-0.12126-1.4763-0.29119-2.0858-0.50004 0.28329-0.57859 0.66146-1.197 1.1214-1.8284 0.26563 0.34962 0.5442 0.68918 0.83529 1.018zm-0.0183-2.0505a19.814 19.814 0 0 0-0.0187 0.84833c0 0.2875 7e-3 0.57017 0.0187 0.84833a17.072 17.072 0 0 1-0.68056-0.84833 17.132 17.132 0 0 1 0.68056-0.84833m0.0183-0.35383a17.592 17.592 0 0 0-0.83529 1.018c-0.46-0.63137-0.83806-1.2498-1.1214-1.8284 0.6095-0.20884 1.3142-0.37888 2.0858-0.50004a17.638 17.638 0 0 0-0.12917 1.3105zm1.437-1.4629a19.704 19.704 0 0 0-0.61309 0.58671 19.818 19.818 0 0 0-0.58661 0.61299c0.029-0.3717 0.069-0.73251 0.1186-1.0811 0.34859-0.0496 0.7094-0.0896 1.0811-0.1186zm0.26317-0.23729c-0.45292 0.0279-0.89074 0.0715-1.3105 0.12917 0.12116-0.77163 0.2912-1.4763 0.50004-2.0858 0.5786 0.28329 1.197 0.66135 1.8284 1.1214a17.626 17.626 0 0 0-1.018 0.83529m2.0505-0.0183a19.814 19.814 0 0 0-0.84833-0.0187c-0.2875 0-0.57018 7e-3 -0.84833 0.0187 0.28329-0.24232 0.56678-0.46914 0.84833-0.68056a17.132 17.132 0 0 1 0.84833 0.68056zm0.35383 0.0183a17.626 17.626 0 0 0-1.018-0.83529c0.63137-0.46 1.2498-0.83806 1.8284-1.1212 0.20885 0.6094 0.37888 1.3141 0.50004 2.0857a17.577 17.577 0 0 0-1.3105-0.12917m0.87615 0.8239a19.818 19.818 0 0 0-0.61299-0.58661c0.3717 0.029 0.73251 0.069 1.0811 0.1186 0.0496 0.34859 0.0896 0.7094 0.11859 1.0811a19.704 19.704 0 0 0-0.58671-0.61309zm0.64308 2.0784c0 0.37878-0.0112 0.75068-0.0324 1.1138a19.063 19.063 0 0 1-1.5752 1.5752c-0.74185 0.0434-1.4856 0.0434-2.2275 0a19.063 19.063 0 0 1-1.5752-1.5752 19.07 19.07 0 0 1 0-2.2276 19.057 19.057 0 0 1 0.76465-0.81044 19.062 19.062 0 0 1 0.81054-0.76465c0.74186-0.0434 1.4858-0.0434 2.2276 0a19.057 19.057 0 0 1 0.81045 0.76465 19.057 19.057 0 0 1 0.76464 0.81044c0.0213 0.36328 0.0324 0.73518 0.0324 1.1139zm2.3884-5.1098c0.53608 0.53608 0.43576 1.6072-0.15731 2.8988-0.64441-0.22435-1.3911-0.40404-2.2125-0.529-0.12496-0.82153-0.30475-1.568-0.529-2.2124 1.2916-0.59317 2.3627-0.69349 2.8988-0.1574zm2.3344 5.1098c0-0.85008-0.87133-1.6046-2.2863-2.1364 0.62439-1.3768 0.70704-2.5264 0.10596-3.1274-0.60108-0.60108-1.7507-0.51853-3.1274 0.10596-0.53198-1.415-1.2864-2.2863-2.1364-2.2863-0.85008 0-1.6046 0.87133-2.1364 2.2863-1.3767-0.62449-2.5263-0.70704-3.1274-0.10596-0.60108 0.60098-0.51842 1.7506 0.10596 3.1274-1.415 0.53188-2.2863 1.2864-2.2863 2.1364 0 0.85007 0.87133 1.6044 2.2863 2.1364-0.62449 1.3767-0.70704 2.5263-0.10596 3.1274s1.7507 0.51853 3.1274-0.10596c0.53188 1.415 1.2864 2.2863 2.1364 2.2863 0.85007 0 1.6046-0.87133 2.1364-2.2864 1.3767 0.62459 2.5263 0.70714 3.1274 0.10606s0.51853-1.7507-0.10596-3.1274c1.4151-0.53198 2.2863-1.2864 2.2863-2.1364z" enable-background="new" opacity=".1" stroke="#000" stroke-width=".5" style="isolation:isolate"/>
 <g transform="translate(-320 -188.19)" enable-background="new">
  <path d="m337.07 201.94c-0.29716-0.61423-0.69791-1.2692-1.1905-1.9385 0.49255-0.66926 0.8933-1.3242 1.1904-1.9386 1.3328 0.49398 2.1611 1.1804 2.1611 1.9386s-0.82831 1.4446-2.161 1.9385zm0.0445 3.1713c-0.53609 0.53608-1.6071 0.43576-2.8988-0.15741 0.22425-0.64441 0.40404-1.391 0.529-2.2125 0.82143-0.12486 1.5681-0.30465 2.2124-0.5289 0.59317 1.2916 0.69349 2.3627 0.15741 2.8988m-5.1098 2.1165c-0.75818 0-1.4446-0.82831-1.9386-2.1611 0.61432-0.29705 1.2694-0.6978 1.9386-1.1904 0.66926 0.49255 1.3242 0.8933 1.9386 1.1904-0.49399 1.3328-1.1804 2.1611-1.9386 2.1611zm-5.1098-2.1165c-0.53609-0.53609-0.43577-1.6072 0.1573-2.8988 0.64441 0.22425 1.3911 0.40404 2.2125 0.5289 0.12496 0.82164 0.30475 1.5681 0.529 2.2125-1.2917 0.59317-2.3627 0.69349-2.8988 0.15741zm-2.1165-5.1098c0-0.75818 0.82831-1.4446 2.1611-1.9386 0.29705 0.61432 0.6978 1.2693 1.1904 1.9386-0.49255 0.66926-0.8933 1.3242-1.1904 1.9385-1.3327-0.49389-2.161-1.1803-2.161-1.9385zm2.1165-5.1098c0.53608-0.53609 1.6072-0.43577 2.8988 0.1574-0.22425 0.64431-0.40404 1.3909-0.529 2.2124-0.82143 0.12496-1.5681 0.30465-2.2125 0.529-0.59307-1.2916-0.69339-2.3627-0.1573-2.8988zm5.1098-2.1165c0.75818 0 1.4446 0.82831 1.9386 2.1611-0.61433 0.29695-1.2694 0.6978-1.9386 1.1904-0.66916-0.49255-1.3242-0.8934-1.9386-1.1904 0.49398-1.3328 1.1804-2.1611 1.9386-2.1611zm2.9023 6.0242c-0.0279-0.45282-0.0716-0.89064-0.12917-1.3105 0.77163 0.12126 1.4763 0.2912 2.0858 0.50004-0.28329 0.5786-0.66145 1.197-1.1214 1.8284a17.626 17.626 0 0 0-0.83529-1.018zm0.0183 2.0505c0.012-0.27816 0.0187-0.56083 0.0187-0.84833s-7e-3 -0.57018-0.0187-0.84833a17.072 17.072 0 0 1 0.68055 0.84833 17.072 17.072 0 0 1-0.68055 0.84833zm-0.0183 0.35383a17.626 17.626 0 0 0 0.83529-1.018c0.4599 0.63137 0.83806 1.2498 1.1214 1.8284-0.6095 0.20885-1.3142 0.37878-2.0858 0.50004 0.0576-0.41985 0.10124-0.85767 0.12917-1.3105zm-1.437 1.4629a19.818 19.818 0 0 0 0.61299-0.5866c0.20331-0.20331 0.3985-0.40795 0.58671-0.6131-0.0288 0.3717-0.069 0.73251-0.11859 1.0811-0.3486 0.0496-0.70941 0.0896-1.0811 0.11859zm-0.26316 0.23729c0.45291-0.0279 0.89073-0.0715 1.3105-0.12917-0.12116 0.77163-0.29119 1.4763-0.50004 2.0857-0.57859-0.28319-1.197-0.66125-1.8284-1.1212 0.34962-0.26563 0.68918-0.5442 1.018-0.83529m-2.0505 0.0183c0.27815 0.0119 0.56083 0.0186 0.84833 0.0186s0.57017-7e-3 0.84833-0.0186a17.132 17.132 0 0 1-0.84833 0.68055 17.132 17.132 0 0 1-0.84833-0.68055zm-0.35383-0.0183a17.593 17.593 0 0 0 1.018 0.83529c-0.63147 0.46-1.2499 0.83806-1.8285 1.1212-0.20884-0.6094-0.37888-1.3141-0.50004-2.0857 0.41975 0.0577 0.85757 0.10124 1.3105 0.12917zm-1.4629-1.437a19.818 19.818 0 0 0 0.58661 0.61299c0.2033 0.20331 0.40794 0.3985 0.61309 0.58671-0.3717-0.029-0.73251-0.069-1.0811-0.11859a17.118 17.118 0 0 1-0.1186-1.0811zm-0.23729-0.26316c0.0279 0.45281 0.0716 0.89063 0.12917 1.3105-0.77163-0.12126-1.4763-0.29119-2.0858-0.50004 0.28329-0.57859 0.66146-1.197 1.1214-1.8284 0.26563 0.34962 0.5442 0.68918 0.83529 1.018zm-0.0183-2.0505a19.814 19.814 0 0 0-0.0187 0.84833c0 0.2875 7e-3 0.57017 0.0187 0.84833a17.072 17.072 0 0 1-0.68056-0.84833 17.132 17.132 0 0 1 0.68056-0.84833m0.0183-0.35383a17.592 17.592 0 0 0-0.83529 1.018c-0.46-0.63137-0.83806-1.2498-1.1214-1.8284 0.6095-0.20884 1.3142-0.37888 2.0858-0.50004a17.638 17.638 0 0 0-0.12917 1.3105zm1.437-1.4629a19.704 19.704 0 0 0-0.61309 0.58671 19.818 19.818 0 0 0-0.58661 0.61299c0.029-0.3717 0.069-0.73251 0.1186-1.0811 0.34859-0.0496 0.7094-0.0896 1.0811-0.1186zm0.26317-0.23729c-0.45292 0.0279-0.89074 0.0715-1.3105 0.12917 0.12116-0.77163 0.2912-1.4763 0.50004-2.0858 0.5786 0.28329 1.197 0.66135 1.8284 1.1214a17.626 17.626 0 0 0-1.018 0.83529m2.0505-0.0183a19.814 19.814 0 0 0-0.84833-0.0187c-0.2875 0-0.57018 7e-3 -0.84833 0.0187 0.28329-0.24232 0.56678-0.46914 0.84833-0.68056a17.132 17.132 0 0 1 0.84833 0.68056zm0.35383 0.0183a17.626 17.626 0 0 0-1.018-0.83529c0.63137-0.46 1.2498-0.83806 1.8284-1.1212 0.20885 0.6094 0.37888 1.3141 0.50004 2.0857a17.577 17.577 0 0 0-1.3105-0.12917m0.87615 0.8239a19.818 19.818 0 0 0-0.61299-0.58661c0.3717 0.029 0.73251 0.069 1.0811 0.1186 0.0496 0.34859 0.0896 0.7094 0.11859 1.0811a19.704 19.704 0 0 0-0.58671-0.61309zm0.64308 2.0784c0 0.37878-0.0112 0.75068-0.0324 1.1138a19.063 19.063 0 0 1-1.5752 1.5752c-0.74185 0.0434-1.4856 0.0434-2.2275 0a19.063 19.063 0 0 1-1.5752-1.5752 19.07 19.07 0 0 1 0-2.2276 19.057 19.057 0 0 1 0.76465-0.81044 19.062 19.062 0 0 1 0.81054-0.76465c0.74186-0.0434 1.4858-0.0434 2.2276 0a19.057 19.057 0 0 1 0.81045 0.76465 19.057 19.057 0 0 1 0.76464 0.81044c0.0213 0.36328 0.0324 0.73518 0.0324 1.1139zm2.3884-5.1098c0.53608 0.53608 0.43576 1.6072-0.15731 2.8988-0.64441-0.22435-1.3911-0.40404-2.2125-0.529-0.12496-0.82153-0.30475-1.568-0.529-2.2124 1.2916-0.59317 2.3627-0.69349 2.8988-0.1574zm2.3344 5.1098c0-0.85008-0.87133-1.6046-2.2863-2.1364 0.62439-1.3768 0.70704-2.5264 0.10596-3.1274-0.60108-0.60108-1.7507-0.51853-3.1274 0.10596-0.53198-1.415-1.2864-2.2863-2.1364-2.2863-0.85008 0-1.6046 0.87133-2.1364 2.2863-1.3767-0.62449-2.5263-0.70704-3.1274-0.10596-0.60108 0.60098-0.51842 1.7506 0.10596 3.1274-1.415 0.53188-2.2863 1.2864-2.2863 2.1364 0 0.85007 0.87133 1.6044 2.2863 2.1364-0.62449 1.3767-0.70704 2.5263-0.10596 3.1274s1.7507 0.51853 3.1274-0.10596c0.53188 1.415 1.2864 2.2863 2.1364 2.2863 0.85007 0 1.6046-0.87133 2.1364-2.2864 1.3767 0.62459 2.5263 0.70714 3.1274 0.10606s0.51853-1.7507-0.10596-3.1274c1.4151-0.53198 2.2863-1.2864 2.2863-2.1364z" fill="#f34f17" stroke="#f34f17" stroke-width=".5" style="isolation:isolate"/>
  <path d="m333.49 200.04c0 0.84227-0.68281 1.5251-1.5252 1.5251-0.84227 0-1.5251-0.68281-1.5251-1.5251 0-0.84238 0.68281-1.5252 1.5251-1.5252 0.84238 0 1.5252 0.68281 1.5252 1.5252z" fill="#46a926" style="isolation:isolate"/>
  <path d="m333.64 195.36a0.29058 0.29058 0 1 1-0.58116-1e-4 0.29058 0.29058 0 0 1 0.58116 1e-4zm-4.5777-0.81784a0.25202 0.25202 0 1 1-0.50405 0 0.25202 0.25202 0 0 1 0.50405 0zm-1.2143 4.4854a0.21788 0.21788 0 1 1-0.43576 0 0.21788 0.21788 0 0 1 0.43576 0zm9.9304 4.2124a0.31646 0.31646 0 1 1-0.63291-2e-4 0.31646 0.31646 0 0 1 0.63291 2e-4zm-10.856 1.8157a0.23596 0.23596 0 1 1-0.47192 0 0.23596 0.23596 0 0 1 0.47192 0zm4.8115-0.98048a0.25423 0.25423 0 1 1-0.50836 0.0103 0.25423 0.25423 0 0 1 0.50836-0.0103zm5.0658-5.2655a0.21788 0.21788 0 1 1-0.43576 0 0.21788 0.21788 0 0 1 0.43576 0zm-10.658 2.7598a0.19971 0.19971 0 1 1-0.39942 0 0.19971 0.19971 0 0 1 0.39942 0zm8.1523-3.5224a0.25413 0.25413 0 1 1-0.50826 2e-4 0.25413 0.25413 0 0 1 0.50826-2e-4z" fill="#111" stroke="#111" stroke-width=".5" style="isolation:isolate"/>
 </g>
 <path d="m17.976 23.5c4.6719 0 5.5471-0.42296 5.5226-4.5492v-7.9504-5.9508c0.0245-4.1263-0.85068-4.5492-5.5226-4.5492h-11.954c-4.6707 0-5.5226 0.42291-5.5226 4.5492v5.9508 7.9504c0 4.1263 0.85185 4.5492 5.5226 4.5492z" color="#000000" fill="none" opacity=".4" stroke="#000"/>
 <path d="m6.0234 1c-2.3203 0-3.6094 0.15494-4.207 0.62109-0.29882 0.23308-0.48964 0.54668-0.625 1.0957-0.13541 0.54902-0.19141 1.3176-0.19141 2.332v5.9512 7.9508c0 1.0144 0.056 1.783 0.19141 2.332 0.13536 0.54903 0.32618 0.86263 0.625 1.0957 0.59762 0.46615 1.8868 0.62109 4.207 0.62109h11.952c2.3208 0 3.6165-0.15457 4.2168-0.62109 0.30014-0.23327 0.49095-0.54754 0.625-1.0957 0.13404-0.54816 0.18764-1.3162 0.18164-2.3301v-7.9528-5.9531c6e-3 -1.0139-0.0476-1.7819-0.18164-2.3301-0.13406-0.54817-0.32486-0.86244-0.625-1.0957-0.60028-0.46652-1.896-0.62109-4.2168-0.62109zm4.9586 1.0098c1.5798-2e-3 4.1601-3.9e-4 5.7399 0.0117 1.5002 0.0511 3.0224-0.0712 4.5 0.28321 0.55111 0.0919 0.61303 0.71807 0.67773 1.166 0.1117 4.3083 0.075 10.626 0.0508 14.941-0.0716 0.99089 0.13687 2.0761-0.30078 3.0137-0.34356 0.40964-0.9694 0.35958-1.4512 0.45509-3.9541 0.0823-9.9294 0.0499-13.894 0.0371-1.1691-0.0622-2.3729 0.11291-3.5176-0.22266-0.57935-0.098-0.6137-0.75914-0.6875-1.2207-0.1146-4.1184-0.0751-10.245-0.0547-14.369 0.0572-1.063-0.0797-2.1673 0.18164-3.2148 0.10495-0.6386 0.8614-0.66043 1.3672-0.74023 2.1305-0.19658 5.2407-0.10662 7.3883-0.14062z" color="#000000" fill="url(#linearGradient1690-9)"/>
</svg>
