<svg width="24" height="24" version="1" xmlns="http://www.w3.org/2000/svg">
 <defs>
  <linearGradient id="linearGradient1690" x1="320" x2="344" y1="212" y2="188" gradientTransform="rotate(90 266 -54)" gradientUnits="userSpaceOnUse">
   <stop stop-color="#948b74" offset="0"/>
   <stop stop-color="#aea795" offset="1"/>
  </linearGradient>
  <linearGradient id="linearGradient1690-9" x1="321" x2="343" y1="200" y2="200" gradientTransform="rotate(90 266 -54)" gradientUnits="userSpaceOnUse">
   <stop stop-color="#fff" offset="0"/>
   <stop stop-color="#fff" stop-opacity=".098039" offset=".125"/>
   <stop stop-color="#fff" stop-opacity=".098039" offset=".925"/>
   <stop stop-color="#fff" stop-opacity=".49804" offset="1"/>
  </linearGradient>
  <linearGradient id="linearGradient1230" x1="344" x2="366" y1="94" y2="94" gradientTransform="matrix(.52381 0 0 .52381 -178.95 -56.238)" gradientUnits="userSpaceOnUse">
   <stop stop-color="#fff" offset="0"/>
   <stop stop-color="#fff" stop-opacity="0" offset="1"/>
  </linearGradient>
 </defs>
 <path d="m6.4528 1.0005c-1.2321 0-2.2167 0.0221-3.07 0.14144-0.85332 0.11937-1.6281 0.35533-2.2107 0.83967-0.58256 0.48436-0.86983 1.1338-1.0119 1.8459-0.14202 0.71207-0.16501 1.5324-0.15897 2.562v12.225c-6e-3 1.0276 0.0171 1.8474 0.15897 2.5584 0.14203 0.71208 0.42931 1.3615 1.0119 1.8459 0.58258 0.48434 1.3573 0.7203 2.2107 0.83967 0.85331 0.11936 1.8379 0.14144 3.07 0.14144h11.095c1.2321 0 2.2138-0.022 3.0657-0.14144 0.85187-0.11947 1.628-0.35683 2.2085-0.84146 0.58057-0.48464 0.86451-1.1315 1.0076-1.8423 0.14307-0.71077 0.16972-1.5314 0.16972-2.5602v-12.228c0-1.0288-0.0266-1.8495-0.16972-2.5602-0.14307-0.71076-0.42701-1.3576-1.0076-1.8423-0.58055-0.48464-1.3566-0.722-2.2085-0.84147s-1.8336-0.14144-3.0657-0.14144z" color="#000000" color-rendering="auto" dominant-baseline="auto" image-rendering="auto" opacity=".1" shape-rendering="auto" solid-color="#000000" style="font-feature-settings:normal;font-variant-alternates:normal;font-variant-caps:normal;font-variant-ligatures:normal;font-variant-numeric:normal;font-variant-position:normal;isolation:auto;mix-blend-mode:normal;shape-padding:0;text-decoration-color:#000000;text-decoration-line:none;text-decoration-style:solid;text-indent:0;text-orientation:mixed;text-transform:none;white-space:normal"/>
 <path d="m6.1769 0.49945c-5.1467 0-5.7004 0.43262-5.6752 4.6531v13.696c-0.0253 4.2205 0.52855 4.6531 5.6752 4.6531h11.646c5.1466 0 5.6752-0.43255 5.6752-4.6531v-13.696c0-4.2205-0.52857-4.6531-5.6752-4.6531z" color="#000000" fill="url(#linearGradient1690)"/>
 <path d="m7.9941 5c-1.2582 0.0145-2.1788-0.0286-2.9316 0.38672-0.37641 0.20767-0.67518 0.55747-0.83984 0.99609-0.16465 0.43863-0.22266 0.95961-0.22266 1.6172v8.0002c0 0.65759 0.0583 1.1786 0.22266 1.6172 0.16466 0.43862 0.46343 0.79036 0.83984 0.99804 0.75281 0.41537 1.6734 0.37027 2.9316 0.38477h8.012c1.2582-0.0145 2.1788 0.0306 2.9316-0.38477 0.37641-0.20768 0.67518-0.55942 0.83984-0.99804 0.16438-0.43862 0.2224-0.9596 0.22238-1.6172v-7.0002c0-0.65759-0.058-1.1786-0.22266-1.6172-0.0205-0.0546-0.0479-0.10399-0.0742-0.15429-0.01-0.0185-0.0178-0.038-0.0273-0.0566-0.084-0.16387-0.18591-0.31083-0.30664-0.43946-0.0104-0.0114-0.0206-0.0221-0.0312-0.0332-0.11537-0.11696-0.24221-0.22094-0.38281-0.30078-6e-3 -4e-3 -0.0111-0.0101-0.0176-0.0137-0.18822-0.10384-0.38777-0.17802-0.59961-0.23243-0.63551-0.16321-1.3884-0.14143-2.332-0.15234h-4.0056l-1-1h-3.0044z" color="#000000" color-rendering="auto" image-rendering="auto" opacity=".1" shape-rendering="auto" solid-color="#000000" stroke="#000" stroke-linejoin="round" stroke-width="2" style="font-feature-settings:normal;font-variant-alternates:normal;font-variant-caps:normal;font-variant-ligatures:none;font-variant-numeric:normal;font-variant-position:normal;isolation:auto;mix-blend-mode:normal;shape-padding:0;text-decoration-color:#000000;text-decoration-line:none;text-decoration-style:solid;text-indent:0;text-transform:none;white-space:normal"/>
 <path d="m7.9941 6c-1.2582 0.0145-2.1788-0.0286-2.9316 0.38672-0.37641 0.20767-0.67518 0.55747-0.83984 0.99609-0.16465 0.43863-0.22266 0.95961-0.22266 1.6172v8.0002c0 0.65759 0.0583 1.1786 0.22266 1.6172 0.16466 0.43862 0.46343 0.79036 0.83984 0.99804 0.75281 0.41537 1.6734 0.37027 2.9316 0.38477h8.012c1.2582-0.0145 2.1788 0.0306 2.9316-0.38477 0.37641-0.20768 0.67518-0.55942 0.83984-0.99804 0.16438-0.43862 0.2224-0.9596 0.22238-1.6172v-7.0002c0-0.65759-0.058-1.1786-0.22266-1.6172-0.0205-0.0546-0.0479-0.10399-0.0742-0.15429-0.01-0.0185-0.0178-0.038-0.0273-0.0566-0.084-0.16387-0.18591-0.31083-0.30664-0.43946-0.0104-0.0114-0.0206-0.0221-0.0312-0.0332-0.11537-0.11696-0.24221-0.22094-0.38281-0.30078-6e-3 -4e-3 -0.0111-0.0101-0.0176-0.0137-0.18822-0.10384-0.38777-0.17802-0.59961-0.23243-0.63551-0.16321-1.3884-0.14143-2.332-0.15234h-4.0056l-1-1h-3.0044z" color="#000000" color-rendering="auto" image-rendering="auto" opacity=".1" shape-rendering="auto" solid-color="#000000" style="font-feature-settings:normal;font-variant-alternates:normal;font-variant-caps:normal;font-variant-ligatures:none;font-variant-numeric:normal;font-variant-position:normal;isolation:auto;mix-blend-mode:normal;shape-padding:0;text-decoration-color:#000000;text-decoration-line:none;text-decoration-style:solid;text-indent:0;text-transform:none;white-space:normal"/>
 <path d="m7.9941 5c-1.2582 0.0145-2.1788-0.0286-2.9316 0.38673-0.37641 0.20767-0.67518 0.55746-0.83984 0.99608-0.16465 0.43863-0.22266 0.95961-0.22266 1.6172v5.6002h16v-4.6002c0-0.65759-0.058-1.1786-0.22266-1.6172-0.0205-0.0546-0.0479-0.10399-0.0742-0.15429-0.01-0.0185-0.0178-0.0381-0.0273-0.0567-0.1727-0.33875-0.42547-0.61452-0.73828-0.7871-0.75287-0.41536-1.6734-0.37023-2.9316-0.38477h-6e-3l-3.9996 3e-5 -1-1-3.0044-3e-5z" color="#000000" color-rendering="auto" fill="#e3dfd5" image-rendering="auto" shape-rendering="auto" solid-color="#000000" style="font-feature-settings:normal;font-variant-alternates:normal;font-variant-caps:normal;font-variant-ligatures:none;font-variant-numeric:normal;font-variant-position:normal;isolation:auto;mix-blend-mode:normal;shape-padding:0;text-decoration-color:#000000;text-decoration-line:none;text-decoration-style:solid;text-indent:0;text-transform:none;white-space:normal"/>
 <path d="m16.006 6c1.2582 0.0145 2.1788-0.0286 2.9316 0.38672 0.37641 0.20768 0.67518 0.55747 0.83984 0.99609 0.16465 0.43862 0.22265 0.9596 0.22266 1.6172l1.4e-4 7.0002c1e-5 0.6576-0.058 1.1786-0.22266 1.6172s-0.46343 0.79036-0.83984 0.99804c-0.75281 0.41535-1.6734 0.37023-2.9316 0.38477h-8.012c-1.2582-0.0145-2.1788 0.0306-2.9316-0.38477-0.37641-0.20768-0.67518-0.55942-0.83984-0.99804-0.16438-0.43862-0.22238-0.9596-0.22238-1.6172v-0.6l-1.4e-4 -5.4024c-2e-5 -0.65759 0.058-1.1786 0.22266-1.6172 0.0205-0.0546 0.0479-0.10399 0.0742-0.1543 0.01-0.0185 0.0178-0.038 0.0273-0.0566 0.1727-0.33875 0.42547-0.61452 0.73828-0.7871 0.75287-0.41536 1.6735-0.37023 2.9317-0.38477h6e-3l3.0003 2e-3 1-1 4.0036 4e-5z" color="#000000" color-rendering="auto" fill="#faf8f6" image-rendering="auto" shape-rendering="auto" solid-color="#000000" style="font-feature-settings:normal;font-variant-alternates:normal;font-variant-caps:normal;font-variant-ligatures:none;font-variant-numeric:normal;font-variant-position:normal;isolation:auto;mix-blend-mode:normal;shape-padding:0;text-decoration-color:#000000;text-decoration-line:none;text-decoration-style:solid;text-indent:0;text-transform:none;white-space:normal"/>
 <path d="m17.977 23.5c4.6719 0 5.5471-0.42296 5.5226-4.5492v-13.901c0.0245-4.1263-0.85068-4.5492-5.5226-4.5492h-11.954c-4.6707 0-5.5226 0.42291-5.5226 4.5492v13.901c0 4.1263 0.85185 4.5492 5.5226 4.5492z" color="#000000" fill="none" opacity=".4" stroke="#000"/>
 <path d="m6.0238 1.0005c-2.3203 0-3.6094 0.15494-4.207 0.62109-0.29882 0.23308-0.48964 0.54668-0.625 1.0957-0.13541 0.54902-0.19141 1.3176-0.19141 2.332v13.902c0 1.0144 0.056 1.783 0.19141 2.332 0.13536 0.54903 0.32618 0.86263 0.625 1.0957 0.59762 0.46615 1.8868 0.62109 4.207 0.62109h11.952c2.3208 0 3.6165-0.15457 4.2168-0.62109 0.30014-0.23327 0.49095-0.54754 0.625-1.0957 0.13404-0.54816 0.18764-1.3162 0.18164-2.3301v-13.906c6e-3 -1.0139-0.0476-1.7819-0.18164-2.3301-0.13406-0.54817-0.32486-0.86244-0.625-1.0957-0.60028-0.46652-1.896-0.62109-4.2168-0.62109zm4.9586 1.0098c1.5798-2e-3 4.1601-3.9e-4 5.7399 0.0117 1.5002 0.0511 3.0224-0.0712 4.5 0.28321 0.55111 0.0919 0.61303 0.71807 0.67773 1.166 0.1117 4.3083 0.075 10.626 0.0508 14.941-0.0716 0.99089 0.13687 2.0761-0.30078 3.0137-0.34356 0.40964-0.9694 0.35958-1.4512 0.45509-3.9541 0.0823-9.9294 0.0499-13.894 0.0371-1.1691-0.0622-2.3729 0.11291-3.5176-0.22266-0.57935-0.098-0.6137-0.75914-0.6875-1.2207-0.1146-4.1184-0.0751-10.245-0.0547-14.369 0.0572-1.063-0.0797-2.1673 0.18164-3.2148 0.10495-0.6386 0.8614-0.66043 1.3672-0.74023 2.1305-0.19658 5.2407-0.10662 7.3883-0.14062z" color="#000000" fill="url(#linearGradient1690-9)"/>
 <ellipse cx="14.975" cy="13.173" rx="1.2977" ry="1.327" enable-background="new" fill="#fff"/>
 <circle cx="17" cy="17" r="6.5" fill="#e95420" stroke="#000" stroke-dashoffset="1" stroke-linecap="round" stroke-linejoin="round" stroke-opacity=".4"/>
 <circle transform="rotate(90)" cx="17" cy="-17" r="5.5" fill="none" opacity=".3" stroke="url(#linearGradient1230)" stroke-dashoffset="1" stroke-linecap="round" stroke-linejoin="round" stroke-opacity=".4"/>
 <path d="m17.654 13-1.3161 9.3e-5v0.87533c0.4341-0.08937 0.88202-0.08851 1.3161 0.0027v-0.87783zm-2.6929 0.59676-1.0027 0.85453 0.494 0.59022c0.2747-0.3488 0.618-0.63723 1.0087-0.84744zm4.0643 0.0064-0.49642 0.5932c0.02865 0.0147 0.05708 0.02981 0.08528 0.04536 0.3553 0.20693 0.66829 0.47956 0.92228 0.80339l0.50256-0.6003zm-5.805 2.1135-0.22028 1.3008 0.75768 0.13402c-0.01365-0.44438 0.06378-0.88668 0.22754-1.2995zm7.5429 0.0014-0.7614 0.13458c0.165 0.41259 0.2439 0.85456 0.23183 1.2986l0.76643-0.13518zm-6.8412 2.353-0.67574 0.39124h-2.25e-4l0.66551 1.1383 0.66904-0.38713c-0.29503-0.3319-0.51918-0.72069-0.65862-1.1424zm6.1504 0.0014c-0.06808 0.21164-0.15768 0.41567-0.26739 0.60888-0.11042 0.1914-0.24007 0.37097-0.38694 0.5359l0.66941 0.3875 0.65079-1.1468zm-4.7784 1.74-0.2674 0.73619 1.2398 0.44332 0.26292-0.72443c-0.4056-0.05953-0.7964-0.19559-1.1517-0.40095-0.02815-0.0176-0.05602-0.03564-0.08361-0.05413zm3.4066 0.0077c-0.37724 0.23328-0.79838 0.3864-1.2373 0.44985l0.26515 0.73003 1.2338-0.45937z" color="#000000" fill="#fff"/>
 <path d="m16.987 13.865a3.1373 3.1449 0 0 0-3.1372 3.1448 3.1373 3.1449 0 0 0 3.1372 3.1448 3.1373 3.1449 0 0 0 3.1372-3.1448 3.1373 3.1449 0 0 0-3.1372-3.1448zm0 0.4192a2.719 2.7256 0 0 1 2.719 2.7256 2.719 2.7256 0 0 1-2.719 2.7256 2.719 2.7256 0 0 1-2.719-2.7256 2.719 2.7256 0 0 1 2.719-2.7256z" enable-background="new" fill="#fff" stroke="#fff" stroke-linecap="round" stroke-linejoin="round" stroke-width=".4902"/>
</svg>
