<svg width="24" height="24" version="1" xmlns="http://www.w3.org/2000/svg">
 <defs>
  <linearGradient id="linearGradient1690" x1="321" x2="343" y1="203" y2="197" gradientTransform="rotate(90 266 -54)" gradientUnits="userSpaceOnUse">
   <stop stop-color="#4d4d4d" offset="0"/>
   <stop stop-color="#4d4d4d" offset="1"/>
  </linearGradient>
  <filter id="filter194" x="-.020441" y="-.020359" width="1.0409" height="1.0407" color-interpolation-filters="sRGB">
   <feFlood flood-color="rgb(0,0,0)" flood-opacity=".49804" result="flood"/>
   <feComposite in="flood" in2="SourceGraphic" operator="in" result="composite1"/>
   <feGaussianBlur in="composite1" result="blur" stdDeviation="1.0220649"/>
   <feOffset dx="0" dy="2" result="offset"/>
   <feComposite in="SourceGraphic" in2="offset" result="composite2"/>
  </filter>
  <linearGradient id="linearGradient1278" x1="61.291" x2="77.655" y1="17.635" y2="17.635" gradientTransform="matrix(6.0385 4.5357 -13.477 17.943 1596.5 -2589.7)" gradientUnits="userSpaceOnUse">
   <stop stop-color="#fff" offset="0"/>
   <stop stop-color="#EDEDED" offset="1"/>
  </linearGradient>
  <linearGradient id="linearGradient1690-9" x1="321" x2="343" y1="200" y2="200" gradientTransform="rotate(90 266 -54)" gradientUnits="userSpaceOnUse">
   <stop stop-color="#fff" offset="0"/>
   <stop stop-color="#fff" stop-opacity=".098039" offset=".125"/>
   <stop stop-color="#fff" stop-opacity=".098039" offset=".925"/>
   <stop stop-color="#fff" stop-opacity=".49804" offset="1"/>
  </linearGradient>
 </defs>
 <path d="m6.4528 1.0005c-1.2321 0-2.2167 0.0221-3.07 0.14144-0.85332 0.11937-1.6281 0.35533-2.2107 0.83967-0.58256 0.48436-0.86983 1.1338-1.0119 1.8459-0.14202 0.71207-0.16501 1.5324-0.15897 2.562v12.225c-6e-3 1.0276 0.0171 1.8474 0.15897 2.5584 0.14203 0.71208 0.42931 1.3615 1.0119 1.8459 0.58258 0.48434 1.3573 0.7203 2.2107 0.83967 0.85331 0.11936 1.8379 0.14144 3.07 0.14144h11.095c1.2321 0 2.2138-0.022 3.0657-0.14144 0.85187-0.11947 1.628-0.35683 2.2085-0.84146 0.58057-0.48464 0.86451-1.1315 1.0076-1.8423 0.14307-0.71077 0.16972-1.5314 0.16972-2.5602v-12.228c0-1.0288-0.0266-1.8495-0.16972-2.5602-0.14307-0.71076-0.42701-1.3576-1.0076-1.8423-0.58055-0.48464-1.3566-0.722-2.2085-0.84147s-1.8336-0.14144-3.0657-0.14144z" color="#000000" color-rendering="auto" dominant-baseline="auto" image-rendering="auto" opacity=".1" shape-rendering="auto" solid-color="#000000" style="font-feature-settings:normal;font-variant-alternates:normal;font-variant-caps:normal;font-variant-ligatures:normal;font-variant-numeric:normal;font-variant-position:normal;isolation:auto;mix-blend-mode:normal;shape-padding:0;text-decoration-color:#000000;text-decoration-line:none;text-decoration-style:solid;text-indent:0;text-orientation:mixed;text-transform:none;white-space:normal"/>
 <path d="m6.1769 0.49945c-5.1467 0-5.7004 0.43262-5.6752 4.6531v13.696c-0.0253 4.2205 0.52855 4.6531 5.6752 4.6531h11.646c5.1466 0 5.6752-0.43255 5.6752-4.6531v-13.696c0-4.2205-0.52857-4.6531-5.6752-4.6531z" color="#000000" fill="url(#linearGradient1690)"/>
 <path d="m8.2771 20.864c-0.54481 0.85864-1.7725 1.1334-2.6314 0.58841-0.85888-0.54496-1.1332-1.7728-0.58841-2.6314 0.54481-0.85865 1.7725-1.1334 2.6314-0.58843 0.85889 0.54497 1.1332 1.7728 0.58842 2.6314z" enable-background="new" opacity=".1" stroke-width="3.7797"/>
 <path d="m6.0011 13.774c-0.54481 0.85864-1.7728 1.1332-2.6314 0.58842-0.85863-0.5448-1.1332-1.7728-0.58842-2.6314 0.54479-0.85862 1.7728-1.1332 2.6314-0.58842 0.85862 0.5448 1.1332 1.7728 0.58841 2.6314z" enable-background="new" opacity=".1" stroke-width="3.7797"/>
 <path d="m9.5763 8.1396c-0.54481 0.85864-1.7728 1.1332-2.6314 0.58842-0.85863-0.54481-1.1332-1.7728-0.58842-2.6314 0.54479-0.85862 1.7728-1.1332 2.6314-0.58842 0.85862 0.5448 1.1332 1.7728 0.58841 2.6314z" enable-background="new" opacity=".1" stroke-width="3.7797"/>
 <path d="m16.96 7.1793c-0.54481 0.85865-1.7728 1.1332-2.6314 0.58842-0.85862-0.5448-1.1332-1.7728-0.58841-2.6314 0.54479-0.85862 1.7728-1.1332 2.6314-0.58843 0.85861 0.54479 1.1332 1.7728 0.58842 2.6314z" enable-background="new" opacity=".1" stroke-width="3.7797"/>
 <path d="m14.544 14.336c-0.82435-0.0691-2.0623 0.49444-2.6681 1.5822-1.073 1.927-0.22961 4.8467-2.5478 4.3374 3.0642 2.345 7.2606-1.1553 7.2913-3.3884 7e-3 -0.48309-0.0961-0.8866-0.265-1.22z" enable-background="new" fill-rule="evenodd" opacity=".1" stroke-width="3.7797"/>
 <path d="m9.7532 20.54c3.0126 1.744 6.8367-1.5418 6.8661-3.6732 7e-3 -0.48309-0.0961-0.8866-0.265-1.22l-1.7524-1.2691c-0.4655 0.26765-0.89992 0.63857-1.2334 1.1128-1.5634 2.2236-0.90579 5.9108-3.6815 4.9879 0.022 0.0208 0.0441 0.0413 0.0662 0.0616z" enable-background="new" fill-rule="evenodd" opacity=".1" stroke-width="3.7797"/>
 <path d="m11.054 20.994c2.7086 0.39286 5.5404-2.2939 5.5656-4.1269 7e-3 -0.48309-0.0961-0.8866-0.265-1.22l-1.7391-1.2594c-0.37461 0.3254-0.70381 0.73462-0.93019 1.2176-1.1149 2.3789 0.12987 5.778-2.667 5.3654 0.0119 8e-3 0.0237 0.0156 0.0356 0.0233z" enable-background="new" fill-rule="evenodd" opacity=".1" stroke-width="3.7797"/>
 <path d="m14.372 20.112c1.3014-0.87104 2.2329-2.1978 2.2474-3.2457 7e-3 -0.48309-0.0961-0.8866-0.265-1.22l-1.7267-1.2505c-0.18958 0.3258-0.33291 0.69169-0.40308 1.0852-0.30633 1.7178 0.62193 3.6175 0.14743 4.631z" enable-background="new" fill-rule="evenodd" opacity=".1" stroke-width="3.7797"/>
 <path d="m16.354 17.907c0.16658-0.3591 0.26045-0.71335 0.26496-1.0404 7e-3 -0.48309-0.0961-0.8866-0.265-1.22l-1.6397-1.1875c0.012 0.0892 0.0288 0.17856 0.0508 0.2676 0.31676 1.2811 1.5042 2.3187 1.5889 3.1803z" enable-background="new" fill-rule="evenodd" opacity=".1" stroke-width="3.7797"/>
 <g transform="matrix(.99679 .74874 -.74874 .99679 182.45 -229.32)" enable-background="new" opacity=".1" stroke-width="10.442">
  <path d="m10.2 231.51h1.0829v3.8806h-1.0829zm-0.21415 4.2265 1.3657-4e-3c0.15807-4.7e-4 0.29716 0.10426 0.34038 0.2563l0.24753 0.87061c0.05328 0.18741-0.05545 0.38253-0.24285 0.43581-0.03138 9e-3 -0.06385 0.0135-0.09648 0.0135h-1.8395c-0.19483 0-0.35278-0.15795-0.35278-0.35278 0-0.0301 0.00385-0.06 0.011448-0.0891l0.2263-0.86671c0.040458-0.15491 0.18017-0.26316 0.34028-0.26363zm0.21415-4.5793v-1.0583c0-0.19483 0.15794-0.35278 0.35278-0.35278h0.37739c0.19483 0 0.35278 0.15795 0.35278 0.35278v1.0583z"/>
  <path d="m10.2 231.51h1.0829v3.8806h-1.0829zm-0.21415 4.2265 1.3657-4e-3c0.15807-4.7e-4 0.29716 0.10426 0.34038 0.2563l0.24753 0.87061c0.05328 0.18741-0.05545 0.38253-0.24285 0.43581-0.03138 9e-3 -0.06385 0.0135-0.09648 0.0135h-1.8395c-0.19483 0-0.35278-0.15795-0.35278-0.35278 0-0.0301 0.00385-0.06 0.011448-0.0891l0.2263-0.86671c0.040458-0.15491 0.18017-0.26316 0.34028-0.26363zm0.21415-4.5793v-1.0583c0-0.19483 0.15794-0.35278 0.35278-0.35278h0.37739c0.19483 0 0.35278 0.15795 0.35278 0.35278v1.0583z"/>
 </g>
 <rect transform="matrix(0 .095765 -.095765 0 -2.5558 -2.9391)" x="96.353" y="-211.89" width="119.89" height="119.89" color="#000000" fill="none" filter="url(#filter194)" stroke-width="10.442"/>
 <path d="m8.2771 19.864c-0.54481 0.85864-1.7725 1.1334-2.6314 0.58841-0.85887-0.54496-1.1332-1.7727-0.58841-2.6313 0.54481-0.85864 1.7725-1.1334 2.6313-0.58842 0.85889 0.54496 1.1332 1.7727 0.58843 2.6314z" fill="#fff" opacity=".5" stroke-width="3.7796"/>
 <path d="m6.0011 12.775c-0.54481 0.85864-1.7728 1.1332-2.6313 0.58842-0.85863-0.54481-1.1332-1.7728-0.58843-2.6314 0.54479-0.85862 1.7728-1.1332 2.6314-0.58842 0.85862 0.5448 1.1332 1.7728 0.58841 2.6314z" fill="#fff" opacity=".5" stroke-width="3.7796"/>
 <path d="m9.5767 7.1402c-0.54481 0.85864-1.7728 1.1332-2.6313 0.58842-0.85863-0.54481-1.1332-1.7728-0.58843-2.6314 0.5448-0.85862 1.7728-1.1332 2.6314-0.58842 0.85861 0.5448 1.1332 1.7728 0.58841 2.6314z" fill="#fff" opacity=".5" stroke-width="3.7796"/>
 <path d="m16.96 6.1795c-0.54481 0.85864-1.7728 1.1332-2.6314 0.58842-0.85861-0.54479-1.1332-1.7728-0.58841-2.6313 0.5448-0.85862 1.7728-1.1332 2.6313-0.58842 0.85861 0.54479 1.1332 1.7728 0.58842 2.6314z" fill="#fff" opacity=".5" stroke-width="3.7796"/>
 <path d="m14.544 13.336c-0.82435-0.06913-2.0623 0.49444-2.668 1.5822-1.073 1.927-0.22962 4.8467-2.5478 4.3374 3.0642 2.3449 7.2605-1.1553 7.2913-3.3885 0.0067-0.48309-0.09606-0.88659-0.265-1.22z" fill="#fff" fill-rule="evenodd" opacity=".5" stroke-width="3.7796"/>
 <path d="m19.28 8.0965 1.0795 0.81081-2.9056 3.8683-1.0795-0.81081zm-3.378 4.0527 1.3643 1.0186c0.15792 0.11788 0.21815 0.32642 0.1474 0.51034l-0.40512 1.0532c-0.08721 0.22671-0.34169 0.3398-0.56838 0.25259-0.03802-0.01452-0.07375-0.03435-0.10628-0.05878l-1.8336-1.3773c-0.19421-0.14588-0.23339-0.42159-0.08752-0.6158 0.02254-0.03 0.04876-0.05693 0.07812-0.08024l0.87452-0.69451c0.15632-0.12412 0.37664-0.12742 0.53659-8e-3zm3.6422-4.4044 0.79239-1.0549c0.14588-0.19421 0.42158-0.2334 0.6158-0.087517l0.37619 0.28257c0.19421 0.14588 0.23339 0.42159 0.08752 0.6158l-0.79239 1.0549z" fill="url(#linearGradient1278)" stroke-width="13.018"/>
 <path d="m19.28 8.0965 1.0795 0.81081-2.9056 3.8683-1.0795-0.81081zm-3.378 4.0527 1.3643 1.0186c0.15792 0.11788 0.21815 0.32642 0.1474 0.51034l-0.40512 1.0532c-0.08721 0.22671-0.34169 0.3398-0.56838 0.25259-0.03802-0.01452-0.07375-0.03435-0.10628-0.05878l-1.8336-1.3773c-0.19421-0.14588-0.23339-0.42159-0.08752-0.6158 0.02254-0.03 0.04876-0.05693 0.07812-0.08024l0.87452-0.69451c0.15632-0.12412 0.37664-0.12742 0.53659-8e-3zm3.6422-4.4044 0.79239-1.0549c0.14588-0.19421 0.42158-0.2334 0.6158-0.087517l0.37619 0.28257c0.19421 0.14588 0.23339 0.42159 0.08752 0.6158l-0.79239 1.0549z" fill="#828282" stroke-width="13.018"/>
 <path d="m17.977 23.5c4.6719 0 5.5471-0.42296 5.5226-4.5492v-13.901c0.0245-4.1263-0.85068-4.5492-5.5226-4.5492h-11.954c-4.6707 0-5.5226 0.42291-5.5226 4.5492v13.901c0 4.1263 0.85185 4.5492 5.5226 4.5492z" color="#000000" fill="none" opacity=".4" stroke="#000"/>
 <path d="m6.0238 1.0005c-2.3203 0-3.6094 0.15494-4.207 0.62109-0.29882 0.23308-0.48964 0.54668-0.625 1.0957-0.13541 0.54902-0.19141 1.3176-0.19141 2.332v13.902c0 1.0144 0.056 1.783 0.19141 2.332 0.13536 0.54903 0.32618 0.86263 0.625 1.0957 0.59762 0.46615 1.8868 0.62109 4.207 0.62109h11.952c2.3208 0 3.6165-0.15457 4.2168-0.62109 0.30014-0.23327 0.49095-0.54754 0.625-1.0957 0.13404-0.54816 0.18764-1.3162 0.18164-2.3301v-13.906c6e-3 -1.0139-0.0476-1.7819-0.18164-2.3301-0.13406-0.54817-0.32486-0.86244-0.625-1.0957-0.60028-0.46652-1.896-0.62109-4.2168-0.62109zm4.9586 1.0098c1.5798-2e-3 4.1601-3.9e-4 5.7399 0.0117 1.5002 0.0511 3.0224-0.0712 4.5 0.28321 0.55111 0.0919 0.61303 0.71807 0.67773 1.166 0.1117 4.3083 0.075 10.626 0.0508 14.941-0.0716 0.99089 0.13687 2.0761-0.30078 3.0137-0.34356 0.40964-0.9694 0.35958-1.4512 0.45509-3.9541 0.0823-9.9294 0.0499-13.894 0.0371-1.1691-0.0622-2.3729 0.11291-3.5176-0.22266-0.57935-0.098-0.6137-0.75914-0.6875-1.2207-0.1146-4.1184-0.0751-10.245-0.0547-14.369 0.0572-1.063-0.0797-2.1673 0.18164-3.2148 0.10495-0.6386 0.8614-0.66043 1.3672-0.74023 2.1305-0.19658 5.2407-0.10662 7.3883-0.14062z" color="#000000" fill="url(#linearGradient1690-9)"/>
</svg>
