<svg width="24" height="24" version="1" xmlns="http://www.w3.org/2000/svg" xmlns:xlink="http://www.w3.org/1999/xlink">
 <defs>
  <linearGradient id="linearGradient1690" x1="321" x2="343" y1="203" y2="197" gradientTransform="rotate(90 266 -54)" gradientUnits="userSpaceOnUse">
   <stop stop-color="#31c6b7" offset="0"/>
   <stop stop-color="#5bdbc1" offset="1"/>
  </linearGradient>
  <linearGradient id="linearGradient1690-9" x1="321" x2="343" y1="200" y2="200" gradientTransform="rotate(90 266 -54)" gradientUnits="userSpaceOnUse">
   <stop stop-color="#fff" offset="0"/>
   <stop stop-color="#fff" stop-opacity=".098039" offset=".125"/>
   <stop stop-color="#fff" stop-opacity=".098039" offset=".925"/>
   <stop stop-color="#fff" stop-opacity=".49804" offset="1"/>
  </linearGradient>
 </defs>
 <path d="m6.4524 1c-1.2321 0-2.2167 0.0221-3.07 0.14144-0.85332 0.11937-1.6281 0.35533-2.2107 0.83967-0.58256 0.48436-0.86983 1.1338-1.0119 1.8459-0.14202 0.71207-0.16501 1.5324-0.15897 2.562v7.6107 4.6143c-6e-3 1.0276 0.0171 1.8474 0.15897 2.5584 0.14203 0.71208 0.42931 1.3615 1.0119 1.8459 0.58258 0.48434 1.3573 0.7203 2.2107 0.83967 0.85331 0.11936 1.8379 0.14144 3.07 0.14144h11.095c1.2321 0 2.2138-0.022 3.0657-0.14144 0.85187-0.11947 1.628-0.35683 2.2085-0.84146 0.58057-0.48464 0.86451-1.1315 1.0076-1.8423 0.14307-0.71077 0.16972-1.5314 0.16972-2.5602v-4.6143-7.6142c0-1.0288-0.0266-1.8495-0.16972-2.5602-0.14307-0.71076-0.42701-1.3576-1.0076-1.8423-0.58055-0.48464-1.3566-0.722-2.2085-0.84147-0.8519-0.11947-1.8336-0.14144-3.0657-0.14144z" color="#000000" color-rendering="auto" dominant-baseline="auto" image-rendering="auto" opacity=".1" shape-rendering="auto" solid-color="#000000" style="font-feature-settings:normal;font-variant-alternates:normal;font-variant-caps:normal;font-variant-ligatures:normal;font-variant-numeric:normal;font-variant-position:normal;isolation:auto;mix-blend-mode:normal;shape-padding:0;text-decoration-color:#000000;text-decoration-line:none;text-decoration-style:solid;text-indent:0;text-orientation:mixed;text-transform:none;white-space:normal"/>
 <path d="m6.1765 0.49897c-5.1467 0-5.7004 0.43262-5.6752 4.6531v5.8479 7.8476c-0.0253 4.2205 0.52855 4.6531 5.6752 4.6531h11.646c5.1466 0 5.6752-0.43255 5.6752-4.6531v-7.8476-5.8479c0-4.2205-0.52857-4.6531-5.6752-4.6531z" color="#000000" fill="url(#linearGradient1690)"/>
 <g transform="matrix(.020858 0 0 .020857 2.0973 2.2753)" clip-rule="evenodd" enable-background="new" fill-rule="evenodd" image-rendering="optimizeQuality" opacity=".2" shape-rendering="geometricPrecision" stroke-width="11.111">
  <g transform="translate(-36.773 1.6764)" stroke-width="11.111">
   <path transform="matrix(4.3151 0 0 4.3151 -60.568 -34.286)" d="m125.89 26.715c-2.9107 0.19698-5.79 0.52026-8.6289 0.96289l-4.1504 20.809c-7.7287 2.0254-15.003 5.1261-21.633 9.2188l-17.771-11.871c-8.3497 6.125-15.726 13.507-21.842 21.863l12.176 18.254c-3.7102 6.4448-6.6537 13.453-8.459 20.869l-21.803 4.3047c-0.79257 5.0497-1.2051 10.216-1.2051 15.475 0 5.2745 0.41374 10.459 1.2109 15.518l22.227 4.3906c1.9003 7.1192 4.8065 13.849 8.4727 20.041l-12.615 18.957c6.1273 8.3683 13.517 15.761 21.883 21.891l18.979-12.646c6.1922 3.6662 12.924 6.6251 20.043 8.5254l4.3965 22.227c5.0613 0.7972 10.243 1.2129 15.518 1.2129 5.2583 0 10.426-0.41287 15.471-1.2031l4.3086-21.803c7.4158-1.8053 14.428-4.6941 20.873-8.4043l18.236 12.131c8.366-6.1227 15.759-13.506 21.889-21.867l-11.832-17.752c4.0926-6.6325 7.1425-13.908 9.168-21.637l20.805-4.1562c0.44495-2.8389 0.76591-5.7162 0.96289-8.627v-13.596c-0.19698-2.8945-0.51671-5.7555-0.95703-8.5781l-20.393-4.0703c-1.9188-8.0323-4.9965-15.591-9.1309-22.48l11.379-17.033c-6.1204-8.3474-13.498-15.724-21.848-21.84l-17.012 11.346c-6.8874-4.1366-14.446-7.1612-22.479-9.0801l-4.0644-20.393c-2.8226-0.44031-5.6856-0.76005-8.5801-0.95703zm9.1992 41.604c15.543 0 30.163 6.0457 41.166 17.023l-16.039 16.074c-6.716-6.6997-15.639-10.393-25.127-10.393-19.615 0-35.574 15.959-35.574 35.576 0 19.615 15.957 35.574 35.574 35.574 9.4876 0 18.411-3.6886 25.127-10.391l16.039 16.072c-11.003 10.978-25.623 17.025-41.166 17.025-15.569 0-30.203-6.0625-41.211-17.07-11.008-11.008-17.07-25.645-17.07-41.211 0-15.569 6.0625-30.205 17.07-41.213 11.008-11.008 25.645-17.068 41.211-17.068z" stroke-width="11.111"/>
  </g>
 </g>
 <g transform="matrix(.020858 0 0 .020857 2.0973 1.2756)" clip-rule="evenodd" enable-background="new" fill="#fff" fill-rule="evenodd" image-rendering="optimizeQuality" shape-rendering="geometricPrecision" stroke-width="11.111">
  <g transform="translate(-36.773 1.6764)" fill="#fff" stroke-width="11.111">
   <path transform="matrix(4.3151 0 0 4.3151 -60.568 -34.286)" d="m125.89 26.715c-2.9107 0.19698-5.79 0.52026-8.6289 0.96289l-4.1504 20.809c-7.7287 2.0254-15.003 5.1261-21.633 9.2188l-17.771-11.871c-8.3497 6.125-15.726 13.507-21.842 21.863l12.176 18.254c-3.7102 6.4448-6.6537 13.453-8.459 20.869l-21.803 4.3047c-0.79257 5.0497-1.2051 10.216-1.2051 15.475 0 5.2745 0.41374 10.459 1.2109 15.518l22.227 4.3906c1.9003 7.1192 4.8065 13.849 8.4727 20.041l-12.615 18.957c6.1273 8.3683 13.517 15.761 21.883 21.891l18.979-12.646c6.1922 3.6662 12.924 6.6251 20.043 8.5254l4.3965 22.227c5.0613 0.7972 10.243 1.2129 15.518 1.2129 5.2583 0 10.426-0.41287 15.471-1.2031l4.3086-21.803c7.4158-1.8053 14.428-4.6941 20.873-8.4043l18.236 12.131c8.366-6.1227 15.759-13.506 21.889-21.867l-11.832-17.752c4.0926-6.6325 7.1425-13.908 9.168-21.637l20.805-4.1562c0.44495-2.8389 0.76591-5.7162 0.96289-8.627v-13.596c-0.19698-2.8945-0.51671-5.7555-0.95703-8.5781l-20.393-4.0703c-1.9188-8.0323-4.9965-15.591-9.1309-22.48l11.379-17.033c-6.1204-8.3474-13.498-15.724-21.848-21.84l-17.012 11.346c-6.8874-4.1366-14.446-7.1612-22.479-9.0801l-4.0644-20.393c-2.8226-0.44031-5.6856-0.76005-8.5801-0.95703zm9.1992 41.604c15.543 0 30.163 6.0457 41.166 17.023l-16.039 16.074c-6.716-6.6997-15.639-10.393-25.127-10.393-19.615 0-35.574 15.959-35.574 35.576 0 19.615 15.957 35.574 35.574 35.574 9.4876 0 18.411-3.6886 25.127-10.391l16.039 16.072c-11.003 10.978-25.623 17.025-41.166 17.025-15.569 0-30.203-6.0625-41.211-17.07-11.008-11.008-17.07-25.645-17.07-41.211 0-15.569 6.0625-30.205 17.07-41.213 11.008-11.008 25.645-17.068 41.211-17.068z" fill="#fff" stroke-width="11.111"/>
  </g>
 </g>
 <path d="m17.976 23.5c4.6719 0 5.5471-0.42296 5.5226-4.5492v-7.9504-5.9508c0.0245-4.1263-0.85068-4.5492-5.5226-4.5492h-11.954c-4.6707 0-5.5226 0.42291-5.5226 4.5492v5.9508 7.9504c0 4.1263 0.85185 4.5492 5.5226 4.5492z" color="#000000" fill="none" opacity=".4" stroke="#000"/>
 <path d="m6.0234 1c-2.3203 0-3.6094 0.15494-4.207 0.62109-0.29882 0.23308-0.48964 0.54668-0.625 1.0957-0.13541 0.54902-0.19141 1.3176-0.19141 2.332v5.9512 7.9508c0 1.0144 0.056 1.783 0.19141 2.332 0.13536 0.54903 0.32618 0.86263 0.625 1.0957 0.59762 0.46615 1.8868 0.62109 4.207 0.62109h11.952c2.3208 0 3.6165-0.15457 4.2168-0.62109 0.30014-0.23327 0.49095-0.54754 0.625-1.0957 0.13404-0.54816 0.18764-1.3162 0.18164-2.3301v-7.9528-5.9531c6e-3 -1.0139-0.0476-1.7819-0.18164-2.3301-0.13406-0.54817-0.32486-0.86244-0.625-1.0957-0.60028-0.46652-1.896-0.62109-4.2168-0.62109zm4.9586 1.0098c1.5798-2e-3 4.1601-3.9e-4 5.7399 0.0117 1.5002 0.0511 3.0224-0.0712 4.5 0.28321 0.55111 0.0919 0.61303 0.71807 0.67773 1.166 0.1117 4.3083 0.075 10.626 0.0508 14.941-0.0716 0.99089 0.13687 2.0761-0.30078 3.0137-0.34356 0.40964-0.9694 0.35958-1.4512 0.45509-3.9541 0.0823-9.9294 0.0499-13.894 0.0371-1.1691-0.0622-2.3729 0.11291-3.5176-0.22266-0.57935-0.098-0.6137-0.75914-0.6875-1.2207-0.1146-4.1184-0.0751-10.245-0.0547-14.369 0.0572-1.063-0.0797-2.1673 0.18164-3.2148 0.10495-0.6386 0.8614-0.66043 1.3672-0.74023 2.1305-0.19658 5.2407-0.10662 7.3883-0.14062z" color="#000000" fill="url(#linearGradient1690-9)"/>
</svg>
