<svg width="24" height="24" version="1" xmlns="http://www.w3.org/2000/svg" xmlns:xlink="http://www.w3.org/1999/xlink">
 <defs>
  <linearGradient id="linearGradient1690" x1="321.5" x2="342.5" y1="200" y2="200" gradientTransform="rotate(90 266 -54)" gradientUnits="userSpaceOnUse">
   <stop stop-color="#2f5fdd" offset="0"/>
   <stop stop-color="#5884f4" offset="1"/>
  </linearGradient>
  <linearGradient id="linearGradient981" x1="332" x2="332" y1="189" y2="211" gradientUnits="userSpaceOnUse">
   <stop stop-color="#fff" offset="0"/>
   <stop stop-color="#fff" stop-opacity=".098039" offset=".125"/>
   <stop stop-color="#fff" stop-opacity=".098039" offset=".925"/>
   <stop stop-color="#fff" stop-opacity=".49804" offset="1"/>
  </linearGradient>
  <clipPath id="clipPath971">
   <path d="m327.87 189c-4.4121 0-4.8868 0.45318-4.8652 4.8742v6.1258 6.1258c-0.0217 4.421 0.45311 4.8742 4.8652 4.8742h8.2696c4.4121 0 4.8652-0.45312 4.8652-4.8742v-6.1258-6.1258c0-4.4211-0.45312-4.8742-4.8652-4.8742z" color="#000000" fill="#46a926"/>
  </clipPath>
 </defs>
 <path d="m7.2457 1c-1.2881 0-2.3174 0.0231-3.2095 0.14787-0.8921 0.12479-1.7021 0.37148-2.3111 0.87784-0.60904 0.50637-0.90937 1.1853-1.0579 1.9298-0.14848 0.74444-0.17251 1.602-0.1662 2.6785v5.866 5.8698c-6e-3 1.0743 0.0179 1.9313 0.1662 2.6747 0.14848 0.74444 0.44882 1.4234 1.0579 1.9298 0.60906 0.50636 1.419 0.75304 2.3111 0.87784 0.8921 0.12479 1.9214 0.14787 3.2095 0.14787h9.5096c1.2881 0 2.3144-0.023 3.205-0.14787 0.89059-0.1249 1.702-0.37305 2.3089-0.87972 0.60695-0.50666 0.9038-1.183 1.0534-1.926 0.14958-0.74308 0.17744-1.601 0.17744-2.6766v-5.8698-5.8698c0-1.0756-0.0278-1.9335-0.17744-2.6766-0.14957-0.74307-0.44642-1.4194-1.0534-1.926-0.60694-0.50667-1.4183-0.75482-2.3089-0.87972-0.89062-0.1249-1.9169-0.14787-3.205-0.14787z" color="#000000" color-rendering="auto" dominant-baseline="auto" image-rendering="auto" opacity=".1" shape-rendering="auto" solid-color="#000000" style="font-feature-settings:normal;font-variant-alternates:normal;font-variant-caps:normal;font-variant-ligatures:normal;font-variant-numeric:normal;font-variant-position:normal;isolation:auto;mix-blend-mode:normal;shape-padding:0;text-decoration-color:#000000;text-decoration-line:none;text-decoration-style:solid;text-indent:0;text-orientation:mixed;text-transform:none;white-space:normal"/>
 <path d="m7.1765 1.499c-5.1467 0-5.7004 0.43262-5.6752 4.6531v5.8479 5.8479c-0.0253 4.2205 0.52855 4.6531 5.6752 4.6531h9.6464c5.1466 0 5.6752-0.43256 5.6752-4.6531v-5.8479-5.8479c0-4.2205-0.52857-4.6531-5.6752-4.6531z" color="#000000" fill="url(#linearGradient1690)"/>
 <g transform="matrix(.46667 0 0 .46667 .79931 1.833)" enable-background="new" opacity=".1" stroke-width="2.1429">
  <path d="m26.028 7.0004-5.028 0.4969v21.282l5-0.779v-9l7 10 5.943-2-7.943-9 8-9-6-2-7 10v-10z"/>
  <path d="m14.701 13.002c-0.0615 0.0075-0.12733 0.02186-0.17383 0.06836l-2.1328 2.1191c-0.08948 0.08925-0.09898 0.22403-0.0332 0.33203l2.2676 3.7207c-0.53334 0.86612-0.9446 1.8131-1.2227 2.8164l-4.1855 0.86328c-0.1271 0.026-0.2205 0.148-0.2205 0.278v2.9922c0 0.12675 0.097403 0.23442 0.2207 0.26367l4.0586 0.97852c0.25531 1.1288 0.68686 2.1887 1.2598 3.1562l-2.3652 3.5762c-0.0717 0.10875-0.05731 0.25345 0.03516 0.3457l2.1309 2.1172c0.09 0.08925 0.22989 0.10041 0.33789 0.03516l3.6934-2.2266c0.9117 0.54494 1.9071 0.96098 2.9648 1.2246l0.86133 4.1191c0.027 0.127 0.135 0.219 0.266 0.219h3.0137c0.126 0 0.23563-0.08478 0.26563-0.20703l1.0234-4.1445c1.0661-0.27618 2.0598-0.72303 2.9746-1.2852l3.709 2.4141c0.1095 0.0705 0.2527 0.05755 0.3457-0.0332l2.1211-2.1172c0.09-0.08925 0.11092-0.22673 0.04492-0.33398l-1.4473-2.3711-0.47461 0.15039c-0.069 0.021-0.14505-0.01106-0.18555-0.07031 0 0-0.4496-0.60826-0.80664-1.0918-0.16655-0.25344-0.97368-1.4388-1.8066-2.5254-1.314 2.814-4.137 4.613-7.241 4.616-4.4183 0-8-3.5817-8-8 0.0029-3.0337 1.4205-5.7296 4-7.0803v-3.2342c-0.55787 0.20737-0.92465 0.46281-1.4355 0.75391l-3.6914-2.4004c-0.05475-0.036-0.11113-0.04311-0.17188-0.03711z"/>
 </g>
 <g transform="matrix(.46667 0 0 .46667 .79931 .83301)" enable-background="new" fill="#faf8f6" stroke-width="2.1429">
  <path d="m26.028 7.0004-5.028 0.4969v21.282l5-0.779v-9l7 10 5.943-2-7.943-9 8-9-6-2-7 10v-10z"/>
  <path d="m14.701 13.002c-0.0615 0.0075-0.12733 0.02186-0.17383 0.06836l-2.1328 2.1191c-0.08948 0.08925-0.09898 0.22403-0.0332 0.33203l2.2676 3.7207c-0.53334 0.86612-0.9446 1.8131-1.2227 2.8164l-4.1855 0.86328c-0.1271 0.026-0.2205 0.148-0.2205 0.278v2.9922c0 0.12675 0.097403 0.23442 0.2207 0.26367l4.0586 0.97852c0.25531 1.1288 0.68686 2.1887 1.2598 3.1562l-2.3652 3.5762c-0.0717 0.10875-0.05731 0.25345 0.03516 0.3457l2.1309 2.1172c0.09 0.08925 0.22989 0.10041 0.33789 0.03516l3.6934-2.2266c0.9117 0.54494 1.9071 0.96098 2.9648 1.2246l0.86133 4.1191c0.027 0.127 0.135 0.219 0.266 0.219h3.0137c0.126 0 0.23563-0.08478 0.26563-0.20703l1.0234-4.1445c1.0661-0.27618 2.0598-0.72303 2.9746-1.2852l3.709 2.4141c0.1095 0.0705 0.2527 0.05755 0.3457-0.0332l2.1211-2.1172c0.09-0.08925 0.11092-0.22673 0.04492-0.33398l-1.4473-2.3711-0.47461 0.15039c-0.069 0.021-0.14505-0.01106-0.18555-0.07031 0 0-0.4496-0.60826-0.80664-1.0918-0.16655-0.25344-0.97368-1.4388-1.8066-2.5254-1.314 2.814-4.137 4.613-7.241 4.616-4.4183 0-8-3.5817-8-8 0.0029-3.0337 1.4205-5.7296 4-7.0803v-3.2342c-0.55787 0.20737-0.92465 0.46281-1.4355 0.75391l-3.6914-2.4004c-0.05475-0.036-0.11113-0.04311-0.17188-0.03711z"/>
 </g>
 <path transform="matrix(1.1051 0 0 .91313 -354.91 -170.63)" d="m327.87 189c-4.4121 0-4.8868 0.45318-4.8652 4.8742v6.1258 6.1258c-0.0217 4.421 0.45311 4.8742 4.8652 4.8742h8.2696c4.4121 0 4.8652-0.45312 4.8652-4.8742v-6.1258-6.1258c0-4.4211-0.45312-4.8742-4.8652-4.8742z" clip-path="url(#clipPath971)" color="#000000" fill="none" opacity=".7" stroke="url(#linearGradient981)" stroke-width="1.9909"/>
 <path d="m16.982 22.512c4.6771 0 5.5533-0.42343 5.5287-4.5543v-5.9574-5.9575c0.0245-4.1309-0.85163-4.5543-5.5287-4.5543h-9.9655c-4.6759 0-5.5287 0.42338-5.5287 4.5543v5.9575 5.9574c0 4.1309 0.8528 4.5543 5.5287 4.5543z" color="#000000" fill="none" opacity=".4" stroke="#000" stroke-width=".97653"/>
</svg>
