<svg width="24" height="24" version="1" xmlns="http://www.w3.org/2000/svg" xmlns:xlink="http://www.w3.org/1999/xlink">
 <defs>
  <linearGradient id="linearGradient1690" x1="321.5" x2="342.5" y1="200" y2="200" gradientTransform="rotate(90 266 -54)" gradientUnits="userSpaceOnUse">
   <stop stop-color="#76c22b" offset="0"/>
   <stop stop-color="#a6d74f" offset="1"/>
  </linearGradient>
  <linearGradient id="linearGradient981" x1="332" x2="332" y1="189" y2="211" gradientUnits="userSpaceOnUse">
   <stop stop-color="#fff" offset="0"/>
   <stop stop-color="#fff" stop-opacity=".098039" offset=".125"/>
   <stop stop-color="#fff" stop-opacity=".098039" offset=".925"/>
   <stop stop-color="#fff" stop-opacity=".49804" offset="1"/>
  </linearGradient>
  <clipPath id="clipPath971-3">
   <path d="m327.87 189c-4.4121 0-4.8868 0.45318-4.8652 4.8742v6.1258 6.1258c-0.0217 4.421 0.45311 4.8742 4.8652 4.8742h8.2696c4.4121 0 4.8652-0.45312 4.8652-4.8742v-6.1258-6.1258c0-4.4211-0.45312-4.8742-4.8652-4.8742z" color="#000000" fill="#46a926"/>
  </clipPath>
 </defs>
 <path d="m7.2457 1c-1.2881 0-2.3174 0.0231-3.2095 0.14787-0.8921 0.12479-1.7021 0.37148-2.3111 0.87784-0.60904 0.50637-0.90937 1.1853-1.0579 1.9298-0.14848 0.74444-0.17251 1.602-0.1662 2.6785v5.866 5.8698c-6e-3 1.0743 0.0179 1.9313 0.1662 2.6747 0.14848 0.74444 0.44882 1.4234 1.0579 1.9298 0.60906 0.50636 1.419 0.75304 2.3111 0.87784 0.8921 0.12479 1.9214 0.14787 3.2095 0.14787h9.5096c1.2881 0 2.3144-0.023 3.205-0.14787 0.89059-0.1249 1.702-0.37305 2.3089-0.87972 0.60695-0.50666 0.9038-1.183 1.0534-1.926 0.14958-0.74308 0.17744-1.601 0.17744-2.6766v-5.8698-5.8698c0-1.0756-0.0278-1.9335-0.17744-2.6766-0.14957-0.74307-0.44642-1.4194-1.0534-1.926-0.60694-0.50667-1.4183-0.75482-2.3089-0.87972-0.89062-0.1249-1.9169-0.14787-3.205-0.14787z" color="#000000" color-rendering="auto" dominant-baseline="auto" image-rendering="auto" opacity=".1" shape-rendering="auto" solid-color="#000000" style="font-feature-settings:normal;font-variant-alternates:normal;font-variant-caps:normal;font-variant-ligatures:normal;font-variant-numeric:normal;font-variant-position:normal;isolation:auto;mix-blend-mode:normal;shape-padding:0;text-decoration-color:#000000;text-decoration-line:none;text-decoration-style:solid;text-indent:0;text-orientation:mixed;text-transform:none;white-space:normal"/>
 <path d="m7.1765 1.499c-5.1467 0-5.7004 0.43262-5.6752 4.6531v5.8479 5.8479c-0.0253 4.2205 0.52855 4.6531 5.6752 4.6531h9.6464c5.1466 0 5.6752-0.43256 5.6752-4.6531v-5.8479-5.8479c0-4.2205-0.52857-4.6531-5.6752-4.6531z" color="#000000" fill="url(#linearGradient1690)"/>
 <path class="ColorScheme-Text" d="m16.561 5c-2.9299 0-3.4796 4.451-1.8311 4.451 1.6478 0 4.7613-4.451 1.8311-4.451zm-4.5117 0.68429c-0.0462-2.1e-4 -0.0966-2.4e-4 -0.14857 0.0107-1.6603 0.20968-1.0764 3.0196-0.19253 3.072 0.85586 0.0514 1.7914-3.0754 0.33901-3.0804zm-2.8795 1.038c-0.10157-0.0107-0.21382 0.0135-0.33901 0.0649-1.3346 0.54792-0.20301 2.8097 0.5441 2.6576 0.67812-0.13778 0.77563-2.6588-0.20509-2.7225zm-2.1784 1.8499c-0.116 0-0.24073 0.0361-0.37459 0.13603-1.0682 0.79725 0.35917 2.724 0.98772 2.4254 0.54981-0.26153 0.19905-2.532-0.61313-2.5614zm6.3093 1.8373c-2.3146-0.0396-5.3678 1.1351-5.8887 3.4947-0.56366 2.5529 2.3216 6.0958 5.332 6.0958 1.4809 0 3.1895-1.3538 3.5093-3.0678 0.24404-1.3069-2.8741-0.78292-2.7623 0.0816 0.13442 1.0366-0.74997 1.5491-1.6176 0.881-2.7618-2.1273 4.5729-3.1896 4.089-6.0958-0.15058-0.90472-1.273-1.3657-2.6618-1.3895z" clip-rule="evenodd" enable-background="new" fill-rule="evenodd" image-rendering="optimizeQuality" opacity=".1" shape-rendering="geometricPrecision"/>
 <path class="ColorScheme-Text" d="m16.561 4c-2.9299 0-3.4796 4.451-1.8311 4.451 1.6478 0 4.7613-4.451 1.8311-4.451zm-4.5117 0.68429c-0.0462-2.1e-4 -0.0966-2.4e-4 -0.14857 0.0107-1.6603 0.20968-1.0764 3.0196-0.19253 3.072 0.85586 0.0514 1.7914-3.0754 0.33901-3.0804zm-2.8795 1.038c-0.10157-0.0107-0.21382 0.0135-0.33901 0.0649-1.3346 0.54792-0.20301 2.8097 0.5441 2.6576 0.67812-0.13778 0.77563-2.6588-0.20509-2.7225zm-2.1784 1.8499c-0.116 0-0.24073 0.0361-0.37459 0.13603-1.0682 0.79725 0.35917 2.724 0.98772 2.4254 0.54981-0.26153 0.19905-2.532-0.61313-2.5614zm6.3093 1.8373c-2.3146-0.0396-5.3678 1.1351-5.8887 3.4947-0.56366 2.5529 2.3216 6.0958 5.332 6.0958 1.4809 0 3.1895-1.3538 3.5093-3.0678 0.24404-1.3069-2.8741-0.78292-2.7623 0.0816 0.13442 1.0366-0.74997 1.5491-1.6176 0.881-2.7618-2.1273 4.5729-3.1896 4.089-6.0958-0.15058-0.90472-1.273-1.3657-2.6618-1.3895z" clip-rule="evenodd" enable-background="new" fill="#faf8f6" fill-rule="evenodd" image-rendering="optimizeQuality" shape-rendering="geometricPrecision"/>
 <path transform="matrix(1.1051 0 0 .91313 -354.91 -170.63)" d="m327.87 189c-4.4121 0-4.8868 0.45318-4.8652 4.8742v6.1258 6.1258c-0.0217 4.421 0.45311 4.8742 4.8652 4.8742h8.2696c4.4121 0 4.8652-0.45312 4.8652-4.8742v-6.1258-6.1258c0-4.4211-0.45312-4.8742-4.8652-4.8742z" clip-path="url(#clipPath971-3)" color="#000000" fill="none" opacity=".7" stroke="url(#linearGradient981)" stroke-width="1.9909"/>
 <path d="m16.982 22.512c4.6771 0 5.5533-0.42343 5.5287-4.5543v-5.9574-5.9575c0.0245-4.1309-0.85163-4.5543-5.5287-4.5543h-9.9655c-4.6759 0-5.5287 0.42338-5.5287 4.5543v5.9575 5.9574c0 4.1309 0.8528 4.5543 5.5287 4.5543z" color="#000000" fill="none" opacity=".4" stroke="#000" stroke-width=".97653"/>
</svg>
