<svg width="24" height="24" version="1" xmlns="http://www.w3.org/2000/svg" xmlns:xlink="http://www.w3.org/1999/xlink">
 <defs>
  <linearGradient id="linearGradient916" x1="441.38" x2="52.966" y1="240.3" y2="386.31" gradientTransform="matrix(0 -.059215 .059783 0 -6.7301 26.636)" gradientUnits="userSpaceOnUse">
   <stop stop-color="#b3b3b3" offset="0"/>
   <stop stop-color="#d9d9d9" offset="1"/>
  </linearGradient>
  <linearGradient id="linearGradient981" x1="332" x2="332" y1="189" y2="211" gradientUnits="userSpaceOnUse">
   <stop stop-color="#fff" offset="0"/>
   <stop stop-color="#fff" stop-opacity=".098039" offset=".125"/>
   <stop stop-color="#fff" stop-opacity=".098039" offset=".925"/>
   <stop stop-color="#fff" stop-opacity=".49804" offset="1"/>
  </linearGradient>
  <clipPath id="clipPath971">
   <path d="m327.87 189c-4.4121 0-4.8868 0.45318-4.8652 4.8742v6.1258 6.1258c-0.0217 4.421 0.45311 4.8742 4.8652 4.8742h8.2696c4.4121 0 4.8652-0.45312 4.8652-4.8742v-6.1258-6.1258c0-4.4211-0.45312-4.8742-4.8652-4.8742z" color="#000000" fill="#46a926"/>
  </clipPath>
  <linearGradient id="linearGradient2535" x1="77" x2="227" y1="156" y2="156" gradientTransform="rotate(90,152,156)" gradientUnits="userSpaceOnUse">
   <stop stop-color="#e6e6e6" offset="0"/>
   <stop stop-color="#f2f2f2" offset="1"/>
  </linearGradient>
 </defs>
 <path d="m7.8652 1c-1.1201 0-2.0152 0.0241-2.791 0.1543-0.77577 0.13022-1.4801 0.38763-2.0098 0.91601-0.52962 0.52838-0.79079 1.2369-0.91992 2.0137-0.12912 0.77681-0.15002 1.6717-0.14453 2.7949v6.1211 6.125c-5e-3 1.121 0.0156 2.0153 0.14453 2.791 0.12912 0.77681 0.39029 1.4853 0.91992 2.0137 0.52964 0.52838 1.234 0.78579 2.0098 0.91601s1.6709 0.1543 2.791 0.1543h8.2695c1.1201 0 2.0126-0.024 2.7871-0.1543 0.77446-0.13033 1.48-0.38927 2.0078-0.91797 0.5278-0.52869 0.78594-1.2344 0.91601-2.0098 0.13007-0.77539 0.1543-1.6706 0.1543-2.793v-6.125-6.125c0-1.1224-0.0242-2.0176-0.1543-2.793-0.13007-0.77538-0.38821-1.4811-0.91601-2.0098-0.5278-0.5287-1.2333-0.78764-2.0078-0.91797-0.77448-0.13033-1.667-0.1543-2.7871-0.1543z" color="#000000" color-rendering="auto" dominant-baseline="auto" image-rendering="auto" opacity=".1" shape-rendering="auto" solid-color="#000000" style="font-feature-settings:normal;font-variant-alternates:normal;font-variant-caps:normal;font-variant-ligatures:normal;font-variant-numeric:normal;font-variant-position:normal;isolation:auto;mix-blend-mode:normal;shape-padding:0;text-decoration-color:#000000;text-decoration-line:none;text-decoration-style:solid;text-indent:0;text-orientation:mixed;text-transform:none;white-space:normal"/>
 <path d="m7.636 0.49999c-4.657 0-5.1581 0.47378-5.1353 5.0958v6.4042 6.4043c-0.0229 4.622 0.47827 5.0957 5.1353 5.0957h8.7287c4.657 0 5.1353-0.47372 5.1353-5.0957v-6.4043-6.4042c0-4.622-0.47828-5.0958-5.1353-5.0958z" color="#000000" fill="url(#linearGradient916)"/>
 <path transform="translate(-320,-188)" d="m327.87 189c-4.4121 0-4.8868 0.45318-4.8652 4.8742v6.1258 6.1258c-0.0217 4.421 0.45311 4.8742 4.8652 4.8742h8.2696c4.4121 0 4.8652-0.45312 4.8652-4.8742v-6.1258-6.1258c0-4.4211-0.45312-4.8742-4.8652-4.8742z" clip-path="url(#clipPath971)" color="#000000" fill="none" opacity=".7" stroke="url(#linearGradient981)" stroke-width="2"/>
 <path d="m16.508 23.512c4.2321 0 5.025-0.46371 5.0028-4.9876v-6.5241-6.5242c0.0222-4.5239-0.77061-4.9876-5.0028-4.9876h-9.0174c-4.2311 0-5.0028 0.46366-5.0028 4.9876v6.5242 6.5241c0 4.5239 0.77167 4.9876 5.0028 4.9876z" color="#000000" fill="none" opacity=".4" stroke="#000" stroke-width=".97653"/>
 <circle cx="12" cy="11" r="8" color="#000000" fill="#4d4d4d"/>
 <g transform="matrix(.093333 0 0 .093333 -2.1865 -3.56)" enable-background="new" stroke-width="10.714">
  <path d="m152 231c-41.421 0-75-33.579-75-75s33.579-75 75-75 75 33.579 75 75-33.579 75-75 75z" enable-background="new" fill="url(#linearGradient2535)"/>
  <ellipse cx="152" cy="156" rx="32" ry="32" enable-background="new" opacity=".05"/>
  <ellipse cx="152" cy="156" rx="20" ry="20" enable-background="new" fill="#fff"/>
  <g opacity=".1" stroke-width="10.714">
   <circle transform="rotate(-30)" cx="53.636" cy="185.1" r="2" opacity="1"/>
   <circle transform="rotate(-30)" cx="53.636" cy="237.1" r="2" opacity="1"/>
   <circle transform="rotate(-60)" cx="-59.1" cy="183.64" r="2" opacity="1"/>
   <circle transform="rotate(-60)" cx="-59.1" cy="235.64" r="2" opacity="1"/>
   <circle transform="rotate(-90)" cx="-156" cy="126" r="2" opacity="1"/>
   <circle transform="rotate(-90)" cx="-156" cy="178" r="2" opacity="1"/>
   <circle transform="rotate(240)" cx="-211.1" cy="27.636" r="2" opacity="1"/>
   <circle transform="rotate(240)" cx="-211.1" cy="79.636" r="2" opacity="1"/>
   <circle transform="rotate(210 152 156)" cx="152" cy="130" r="2" enable-background="new" opacity="1"/>
   <circle transform="rotate(210 152 156)" cx="152" cy="182" r="2" enable-background="new" opacity="1"/>
   <circle transform="scale(-1)" cx="-152" cy="-182" r="2" opacity="1"/>
   <circle transform="scale(-1)" cx="-152" cy="-130" r="2" opacity="1"/>
  </g>
  <ellipse cx="152" cy="156" rx="16" ry="16" enable-background="new" opacity=".1"/>
  <ellipse cx="152" cy="156" rx="4" ry="4" enable-background="new" fill="#888"/>
 </g>
 <g transform="matrix(.078533 -.024767 .024767 .078533 -19.555 12.164)" enable-background="new" opacity=".4" stroke-width="12.144">
  <path d="m392.75 156.92s-117.99 44.04-124.4 45.755c-6.4016 1.7153-12.982-2.0837-14.697-8.4853-1.7153-6.4016 2.0837-12.982 8.4853-14.697 6.4016-1.7153 130.61-22.573 130.61-22.573z" enable-background="new" opacity="1"/>
  <circle cx="265.25" cy="191.08" r="4" enable-background="new" opacity="1"/>
 </g>
 <g transform="matrix(.078378 -.025253 .025253 .078378 -19.619 11.348)" enable-background="new" stroke-width="12.144">
  <path d="m392.75 156.92s-117.99 44.04-124.4 45.755c-6.4016 1.7153-12.982-2.0837-14.697-8.4853-1.7153-6.4016 2.0837-12.982 8.4853-14.697 6.4016-1.7153 130.61-22.573 130.61-22.573z" enable-background="new" fill="#fff"/>
  <circle cx="265.25" cy="191.08" r="4" enable-background="new" fill="#808080"/>
 </g>
</svg>
