<svg width="24" height="24" version="1" xmlns="http://www.w3.org/2000/svg" xmlns:xlink="http://www.w3.org/1999/xlink">
 <defs>
  <linearGradient id="linearGradient8588-0-1" x1="13.735" x2="38.1" y1="249.69" y2="292.77" gradientTransform="matrix(.48294 0 0 .48294 -.0111 -119.42)" gradientUnits="userSpaceOnUse">
   <stop stop-color="#cdcdcd" offset="0"/>
   <stop stop-color="#d9d9d9" offset="1"/>
  </linearGradient>
  <linearGradient id="linearGradient8590-3-3" x1="96" x2="96" y1="4" y2="188" gradientTransform="matrix(.11957 0 0 .11957 .52176 .52174)" gradientUnits="userSpaceOnUse">
   <stop stop-color="#fff" offset="0"/>
   <stop stop-color="#fff" stop-opacity=".098039" offset=".125"/>
   <stop stop-color="#fff" stop-opacity=".098039" offset=".925"/>
   <stop stop-color="#fff" stop-opacity=".49804" offset="1"/>
  </linearGradient>
 </defs>
 <ellipse transform="scale(-1)" cx="-12" cy="-12.523" rx="12" ry="11.477" enable-background="new" opacity=".1"/>
 <circle cx="12" cy="12" r="11.5" enable-background="new" fill="url(#linearGradient8588-0-1)"/>
 <g transform="matrix(.10268 0 0 .10268 -31.127 1.4894)" enable-background="new" stroke-width=".91304">
  <path d="m420.02-9.6363a112 112 0 0 0-112 112h112zm0 112v112a112 112 0 0 0 112-112z" enable-background="new" fill="#fff" opacity=".2"/>
  <path d="m499.22 23.168a112 112 0 0 0-158.39 0l79.196 79.196zm-79.196 79.196-79.196 79.196a112 112 0 0 0 158.39 0z" enable-background="new" opacity=".02"/>
  <path d="m389.47-5.3872a112 112 0 0 0-2.0337 0.68848 112 112 0 0 1 5.4161-1.4674 112 112 0 0 0-3.3824 0.77892zm8.8196-2.0316a112 112 0 0 1 5.5173-0.91622 112 112 0 0 0-5.5173 0.91622zm-16.139 4.5084a112 112 0 0 0-5.237 1.9998 112 112 0 0 1 5.237-1.9998zm27.22-6.1308a112 112 0 0 1 5.5588-0.36119 112 112 0 0 0-5.5588 0.36119zm-37.531 10.435a112 112 0 0 0-5.034 2.5236 112 112 0 0 1 5.034-2.5236zm48.706-10.944a112 112 0 0 1 5.5858 0.19977 112 112 0 0 0-5.5858-0.19977zm-58.536 16.255a112 112 0 0 0-4.7628 3.0151 112 112 0 0 1 4.7628-3.0151zm69.688-15.646a112 112 0 0 1 5.553 0.75653 112 112 0 0 0-5.553-0.75653zm-78.949 21.917a112 112 0 0 0-4.4385 3.4782 112 112 0 0 1 4.4385-3.4782zm90.023-20.193a112 112 0 0 1 5.411 1.2981 112 112 0 0 0-5.411-1.2981zm-100.22 28.792a112 112 0 0 0-1.2702 1.1835 112 112 0 0 1 1.2702-1.1835zm-1.6759 1.6238a112 112 0 0 0-17.831 23.164l96.994 56zm79.163 79.164 79.163 79.164a112 112 0 0 0 17.831-23.164zm33.56-106.76a112 112 0 0 1 5.2655 1.8344 112 112 0 0 0-5.2655-1.8344zm10.485 3.8815a112 112 0 0 1 5.0821 2.3648 112 112 0 0 0-5.0821-2.3648zm10.051 4.9116a112 112 0 0 1 1.8372 1.091l0.0663-0.11482a112 112 0 0 0-1.9034-0.97616zm-110.03 194.85-0.0663 0.11482a112 112 0 0 0 1.9034 0.97616 112 112 0 0 1-1.8372-1.091zm6.8062 3.6378a112 112 0 0 0 5.0821 2.3648 112 112 0 0 1-5.0821-2.3648zm10.301 4.4118a112 112 0 0 0 5.2655 1.8344 112 112 0 0 1-5.2655-1.8344zm117.58-25.325a112 112 0 0 1-1.2702 1.1835 112 112 0 0 0 1.2702-1.1835zm-106.91 28.678a112 112 0 0 0 5.411 1.2981 112 112 0 0 1-5.411-1.2981zm99.872-22.373a112 112 0 0 1-4.4385 3.4782 112 112 0 0 0 4.4385-3.4782zm-88.941 24.638a112 112 0 0 0 5.553 0.75653 112 112 0 0 1-5.553-0.75653zm80.004-17.905a112 112 0 0 1-4.7628 3.0151 112 112 0 0 0 4.7628-3.0151zm-68.884 19.07a112 112 0 0 0 5.5858 0.19978 112 112 0 0 1-5.5858-0.19978zm59.326-13.268a112 112 0 0 1-5.034 2.5236 112 112 0 0 0 5.034-2.5236zm-48.124 13.319a112 112 0 0 0 5.5588-0.36119 112 112 0 0 1-5.5588 0.36119zm38.015-8.4918a112 112 0 0 1-5.237 1.9998 112 112 0 0 0 5.237-1.9998zm-26.893 7.4244a112 112 0 0 0 5.5173-0.91622 112 112 0 0 1-5.5173 0.91622zm16.371-3.6363a112 112 0 0 1-5.4161 1.4674 112 112 0 0 0 5.4161-1.4674z" enable-background="new" fill="#faf8f6"/>
  <circle transform="scale(1,-1)" cx="420.02" cy="-102.36" r="40" enable-background="new" fill="#aea795"/>
  <circle cx="420.02" cy="102.36" r="36" enable-background="new" fill="#faf8f6"/>
  <circle cx="420.02" cy="102.36" r="14" enable-background="new" fill="#4d4d4d"/>
 </g>
 <g transform="matrix(.37381 0 0 .37381 -.61378 -85.515)" enable-background="new" fill="#4d4d4d" stroke-width="10.111">
  <path d="m34.383 240.13c-0.56577 0.38831-1.0914 0.79614-1.5822 1.2195-2.78e-4 3.5e-4 -7.5e-4 6.5e-4 -1e-3 1e-3v3.5e-4l-0.0027 3e-3s-1.3473 1.2432-1.9037 1.9662c-0.80343 1.0439-1.4887 2.1882-2.0408 3.3842-0.54747 1.1861-0.95904 2.4418-1.2411 3.7174-0.29554 1.3366-0.45352 2.7116-0.46303 4.0805-0.01394 2.0058 0.15208 4.0889 0.59529 5.9879l0.0024 0.0254h0.0038c0.4241 1.8076 0.50465 2.6612 1.3126 4.1041 9.1637-1.6063 15.237 5.4764 13.188 13.123-1.0808 4.0336-4.4089 5.9763-7.6002 6.7049-4.4976 0.78204-8.2898-1.6457-9.2028-5.0529-0.17824-1.1236 0.09916-2.6338 0.74162-3.0149-0.37102 0.12926-0.82268 0.27779-1.3637 0.78797-0.91113 0.85899-0.93351 1.1625-2.1246 1.496 0.5829-1.6427-2.6168-2.9782-2.0389-6.5019 0.01318-0.0816-0.14458 0.67468-0.13211 0.59088-1.4097 7.7862 6.5656 16.551 15.414 14.18 5.9954-1.4965 9.5693-5.8987 10.751-10.868 0.68239-2.8694 0.47145-5.8283-0.14838-8.3117-0.5049-2.0227-1.536-4.1568-3.0874-6.1164-0.49705-0.62784-1.0152-1.2026-1.5437-1.7371l-0.01217-0.0152-0.04512-0.0406c-1.1897-1.1951-2.4232-2.1827-3.605-3.117 0 0-2.3909-1.9556-3.5006-3.0273-0.06831-0.066-0.13271-0.13611-0.19375-0.20886-0.38663-0.46079-0.75716-0.93712-1.0897-1.4384-0.09123-0.13752-0.17861-0.27883-0.24733-0.42887-0.35151-0.76743-0.65632-1.5658-0.83471-2.3908-0.23267-1.076-0.32722-2.1889-0.29681-3.2894 0.02589-0.9372 0.15417-1.8802 0.40707-2.7831 0.45781-1.0719 1.2025-2.0619 1.885-3.0298z"/>
  <path d="m37.034 244.1c-0.30107 0.48158-0.52836 1.0243-0.79247 1.5365-0.23443 0.45466-0.50801 0.89119-0.70315 1.364-0.4269 1.0344-0.67573 2.1337-1.014 3.2004-0.04062 0.12809-0.1381 0.25084-0.12197 0.38425 0.12206 1.0092 0.96935 1.7972 1.589 2.603 0.23825 0.30982 0.81032 0.84744 0.81032 0.84744 0.09672 0.10696 0.19598 0.21241 0.30157 0.31582 0 0-0.1971-1.2226-0.28373-1.8356-0.0076-0.054-0.01701-0.10784-0.02078-0.16222-0.1508-2.1752-0.25347-4.3681-0.07214-6.541 0.04823-0.578 0.30731-1.7127 0.30731-1.7127z"/>
  <path d="m21.398 261.42s0.36431 2.4006 0.10716 3.5594c-0.12169 0.54839-0.61971 0.96055-0.75846 1.5049-0.21881 0.85845-0.29064 1.7944-0.08587 2.6563 0.11679 0.49157 0.49078 0.88344 0.72513 1.331 0.05474 0.10455 0.10524 0.21393 0.15902 0.31633 0.29002-1.2994 1.239-2.3543 1.6141-3.6216 0.14506-0.49003 0.2643-1.004 0.23871-1.5145-0.0456-0.90964-0.2788-1.8319-0.69319-2.6429-0.312-0.61065-1.3066-1.589-1.3066-1.589z"/>
  <path d="m31.954 266.02c-5.0927 0-9.2211 4.1284-9.2211 9.2211 0.0019 0.47449 0.04055 0.94847 0.11528 1.4172 0.10417 0.16171 0.2118 0.32139 0.29863 0.49223 0.07741 0.15208 0.11644 0.3295 0.16764 0.50287 0.02788-0.0203 0.10068-0.0355 0.12836-0.0578 0.19821-0.16526 0.45081-0.45725 0.93259-0.91166 0.6256-0.58976 1.2098-0.86153 1.5927-0.94041 0.84951-0.17489 1.0763-0.0203 1.8133 0.0938-0.60043 0.24891-0.78515 0.52275-1.2475 1.114-0.01622 0.0203-0.26994 0.32495-0.37721 0.80162-0.10519 0.46739-0.11812 1.0477-0.04968 1.5063 0.83391 3.014 4.2423 5.2519 8.4274 4.5242 0.88502-0.20429 1.7644-0.51677 2.6013-0.92738 2.5232-1.714 4.0354-4.565 4.0395-7.6153 0-5.0927-4.1284-9.2211-9.2211-9.2211z"/>
  <path d="m37.515 234.41s0.03784 1.2402-0.16348 1.8123c-0.09528 0.2708-0.37309 0.44951-0.47677 0.71721-0.16351 0.42217-0.25728 0.89262-0.20612 1.3424 0.02918 0.25652 0.19093 0.47975 0.28647 0.71959 0.07691 0.19307 0.15477 0.40453 0.23086 0.57917l0.15284 0.38425 0.33868-1.1934c0.05211-0.17794 0.10326-0.35587 0.15319-0.541 0 0 0.40243-1.0148 0.44002-1.5509 0.03255-0.46429-0.02937-0.94646-0.18995-1.3833-0.12094-0.329-0.56574-0.88642-0.56574-0.88642z"/>
 </g>
 <ellipse cx="12" cy="11.977" rx="11.455" ry="11.477" enable-background="new" fill="none" opacity=".4" stroke="#000" stroke-dashoffset="6.6" stroke-linejoin="round"/>
 <path d="m12 1c-6.0751 0-11 4.9249-11 11 0 6.0751 4.9249 11 11 11s11-4.9249 11-11c0-6.0751-4.9249-11-11-11zm0 1a10 10 0 0 1 10 10 10 10 0 0 1-10 10 10 10 0 0 1-10-10 10 10 0 0 1 10-10z" enable-background="new" fill="url(#linearGradient8590-3-3)"/>
</svg>
