<svg width="24" height="24" version="1" xmlns="http://www.w3.org/2000/svg" xmlns:xlink="http://www.w3.org/1999/xlink">
 <defs>
  <linearGradient id="linearGradient8588-0-1" x1="13.735" x2="38.1" y1="249.69" y2="292.77" gradientTransform="matrix(.48294 0 0 .48294 -.011133 -119.42)" gradientUnits="userSpaceOnUse">
   <stop stop-color="#76c22b" offset="0"/>
   <stop stop-color="#a6d74f" offset="1"/>
  </linearGradient>
  <linearGradient id="linearGradient8590-3-3" x1="96" x2="96" y1="4" y2="188" gradientTransform="matrix(.11957 0 0 .11957 .52175 .52172)" gradientUnits="userSpaceOnUse">
   <stop stop-color="#fff" offset="0"/>
   <stop stop-color="#fff" stop-opacity=".098039" offset=".125"/>
   <stop stop-color="#fff" stop-opacity=".098039" offset=".925"/>
   <stop stop-color="#fff" stop-opacity=".49804" offset="1"/>
  </linearGradient>
 </defs>
 <ellipse transform="scale(-1)" cx="-12" cy="-12.523" rx="12" ry="11.477" enable-background="new" opacity=".1"/>
 <ellipse cx="12" cy="12" rx="11.5" ry="11.5" enable-background="new" fill="url(#linearGradient8588-0-1)"/>
 <path d="m12 0.49998c-6.3399 0-11.5 5.1601-11.5 11.5s5.1601 11.5 11.5 11.5c6.3399 0 11.5-5.1601 11.5-11.5s-5.1601-11.5-11.5-11.5zm0 1.9166c5.3041 0 9.5834 4.2793 9.5834 9.5834s-4.2793 9.5834-9.5834 9.5834c-5.3041 0-9.5834-4.2793-9.5834-9.5834s4.2793-9.5834 9.5834-9.5834z" color="#000000" color-rendering="auto" dominant-baseline="auto" fill="#fff" image-rendering="auto" shape-rendering="auto" solid-color="#000000" style="font-feature-settings:normal;font-variant-alternates:normal;font-variant-caps:normal;font-variant-ligatures:normal;font-variant-numeric:normal;font-variant-position:normal;isolation:auto;mix-blend-mode:normal;shape-padding:0;text-decoration-color:#000000;text-decoration-line:none;text-decoration-style:solid;text-indent:0;text-orientation:mixed;text-transform:none;white-space:normal"/>
 <g transform="matrix(.055289 0 0 .055289 1.3846 1.4999)" enable-background="new" opacity=".1">
  <path d="m80 104v144c0 35.157 28.843 64 64 64h96c35.157 0 64-28.843 64-64v-80c0-26.32-21.68-48-48-48-12.296 0-23.467 4.8602-32 12.586-8.5332-7.7257-19.704-12.586-32-12.586-26.32 0-48 21.68-48 48v80h32v-80c0-9.0261 6.9739-16 16-16s16 6.9739 16 16v80h32v-80c0-9.0261 6.9739-16 16-16s16 6.9739 16 16v80c0 17.863-14.137 32-32 32h-96c-17.863 0-32-14.137-32-32v-144z" color="#000000" color-rendering="auto" dominant-baseline="auto" enable-background="accumulate" image-rendering="auto" opacity="1" shape-rendering="auto" solid-color="#000000" style="font-feature-settings:normal;font-variant-alternates:normal;font-variant-caps:normal;font-variant-ligatures:normal;font-variant-numeric:normal;font-variant-position:normal;isolation:auto;mix-blend-mode:normal;shape-padding:0;text-decoration-color:#000000;text-decoration-line:none;text-decoration-style:solid;text-indent:0;text-orientation:mixed;text-transform:none;white-space:normal"/>
 </g>
 <g transform="matrix(.055289 0 0 .055289 1.3846 .49993)" enable-background="new" fill="#92b372">
  <path d="m80 104v144c0 35.157 28.843 64 64 64h96c35.157 0 64-28.843 64-64v-80c0-26.32-21.68-48-48-48-12.296 0-23.467 4.8602-32 12.586-8.5332-7.7257-19.704-12.586-32-12.586-26.32 0-48 21.68-48 48v80h32v-80c0-9.0261 6.9739-16 16-16s16 6.9739 16 16v80h32v-80c0-9.0261 6.9739-16 16-16s16 6.9739 16 16v80c0 17.863-14.137 32-32 32h-96c-17.863 0-32-14.137-32-32v-144z" color="#000000" color-rendering="auto" dominant-baseline="auto" enable-background="accumulate" fill="#fff" image-rendering="auto" shape-rendering="auto" solid-color="#000000" style="font-feature-settings:normal;font-variant-alternates:normal;font-variant-caps:normal;font-variant-ligatures:normal;font-variant-numeric:normal;font-variant-position:normal;isolation:auto;mix-blend-mode:normal;shape-padding:0;text-decoration-color:#000000;text-decoration-line:none;text-decoration-style:solid;text-indent:0;text-orientation:mixed;text-transform:none;white-space:normal"/>
 </g>
 <ellipse cx="12" cy="11.977" rx="11.455" ry="11.477" enable-background="new" fill="none" opacity=".4" stroke="#000" stroke-dashoffset="6.6" stroke-linejoin="round"/>
 <path d="m12 0.99998c-6.0751 0-11 4.9249-11 11 0 6.0751 4.9249 11 11 11 6.0751 0 11-4.9249 11-11 0-6.0751-4.9249-11-11-11zm0 1a10 10 0 0 1 10 10 10 10 0 0 1-10 10 10 10 0 0 1-10-10 10 10 0 0 1 10-10z" enable-background="new" fill="url(#linearGradient8590-3-3)"/>
</svg>
