<svg width="24" height="24" version="1" xmlns="http://www.w3.org/2000/svg" xmlns:xlink="http://www.w3.org/1999/xlink">
 <defs>
  <linearGradient id="linearGradient916" x1="459.03" x2="35.31" y1="419.23" y2="207.37" gradientTransform="matrix(.056641 0 0 .056639 -2 -4.7449)" gradientUnits="userSpaceOnUse">
   <stop stop-color="#34be5d" offset="0"/>
   <stop stop-color="#1abc93" offset="1"/>
  </linearGradient>
  <linearGradient id="linearGradient399" x1="34.107" x2="34.117" y1="248.32" y2="277.59" gradientTransform="matrix(9.7391 0 0 9.7391 -923.53 -2456.1)" gradientUnits="userSpaceOnUse">
   <stop stop-color="#e6eaef" offset="0"/>
   <stop stop-color="#e6eaef" offset="1"/>
  </linearGradient>
  <linearGradient id="linearGradient981" x1="333" x2="333" y1="192" y2="208" gradientTransform="rotate(90 332 200)" gradientUnits="userSpaceOnUse">
   <stop stop-color="#fff" offset="0"/>
   <stop stop-color="#fff" stop-opacity=".098039" offset=".125"/>
   <stop stop-color="#fff" stop-opacity=".098039" offset=".925"/>
   <stop stop-color="#fff" stop-opacity=".49804" offset="1"/>
  </linearGradient>
  <clipPath id="clipPath971">
   <path d="m327.87 189c-4.4121 0-4.8868 0.45318-4.8652 4.8742v6.1258 6.1258c-0.0217 4.421 0.45311 4.8742 4.8652 4.8742h8.2696c4.4121 0 4.8652-0.45312 4.8652-4.8742v-6.1258-6.1258c0-4.4211-0.45312-4.8742-4.8652-4.8742z" color="#000000" fill="#46a926"/>
  </clipPath>
 </defs>
 <path d="m5.8754 4c-1.1215 0-2.0212 0.0225-2.7949 0.15234-0.77661 0.13029-1.4782 0.38927-2.0078 0.91797-0.52965 0.52877-0.78935 1.2299-0.91993 2.0059-0.13004 0.77282-0.15234 1.6698-0.15234 2.7891v8.2695c0 1.1192 0.0224 2.015 0.15234 2.7891 0.13049 0.77729 0.39053 1.483 0.91993 2.0137 0.52954 0.5308 1.2335 0.78862 2.0117 0.91797 0.77469 0.12878 1.6718 0.14998 2.793 0.14453h6.123 6.123c1.1209 5e-3 2.018-0.0157 2.793-0.14453 0.77821-0.12935 1.4822-0.38716 2.0117-0.91797 0.52939-0.53064 0.78749-1.2364 0.91797-2.0137 0.12993-0.77406 0.1543-1.6698 0.1543-2.7891v-8.2695c0-1.1192-0.0242-2.0162-0.1543-2.7891-0.13058-0.77592-0.38832-1.4771-0.91797-2.0059-0.5296-0.5287-1.2332-0.78768-2.0098-0.91797-0.77373-0.12978-1.6715-0.15234-2.793-0.15234h-6.125z" color="#000000" color-rendering="auto" dominant-baseline="auto" image-rendering="auto" opacity=".1" shape-rendering="auto" solid-color="#000000" style="font-feature-settings:normal;font-variant-alternates:normal;font-variant-caps:normal;font-variant-ligatures:normal;font-variant-numeric:normal;font-variant-position:normal;isolation:auto;mix-blend-mode:normal;shape-padding:0;text-decoration-color:#000000;text-decoration-line:none;text-decoration-style:solid;text-indent:0;text-orientation:mixed;text-transform:none;white-space:normal"/>
 <path d="m5.8754 3.5c-1.1131-5e-3 -1.989 0.017-2.709 0.13672-0.72051 0.11976-1.3096 0.3476-1.7402 0.7793-0.43067 0.43169-0.6584 1.022-0.7793 1.7422-0.086 0.51249-0.11622 1.143-0.13086 1.8418-6e-3 0.28323-0.0156 0.54464-0.0156 0.86523v8.2695c0 1.1116 0.0255 1.9864 0.14648 2.7051 0.12095 0.7187 0.34848 1.3062 0.7793 1.7363 0.43083 0.4301 1.0185 0.6566 1.7383 0.77735 0.71979 0.12074 1.5971 0.14648 2.7109 0.14648h6.125 6.125c1.1138 0 1.9912-0.0257 2.7109-0.14648 0.71979-0.12075 1.3074-0.34725 1.7383-0.77735 0.43082-0.4301 0.65835-1.0176 0.7793-1.7363 0.12094-0.7187 0.14648-1.5935 0.14648-2.7051v-8.2695c0-0.32059-0.01-0.582-0.0156-0.86523-0.0146-0.6988-0.0448-1.3293-0.13086-1.8418-0.1209-0.72019-0.34863-1.3105-0.7793-1.7422-0.43067-0.43169-1.0197-0.65954-1.7402-0.7793-0.72049-0.11977-1.5967-0.14217-2.7109-0.13672h-6.1231z" color="#000000" fill="url(#linearGradient916)"/>
 <g transform="matrix(.35852 0 0 .35852 -.14138 -81.159)" enable-background="new" stroke-width="9.7391">
  <rect x="12.7" y="247.42" width="42.333" height="30.427" rx="1.027" ry="1.071" fill="#00132b" opacity=".3"/>
  <rect x="12.7" y="247.42" width="42.333" height="30.427" rx="1.027" ry="1.071" fill="url(#linearGradient399)" opacity=".7"/>
  <rect x="19.32" y="262.91" width="29.087" height="5.801" rx="1.058" ry="1.058" fill="#fff" opacity=".7"/>
  <path d="m24.119 256.07h0.40005l0.31609-1.4224c0.01482-0.0741 0.04445-0.19756 0.0642-0.29634 0.01482 0.0988 0.04445 0.22719 0.05927 0.30128l0.32597 1.4175h0.39511l0.64206-2.5238h-0.46426l-0.33584 1.4619c-0.01975 0.084-0.03457 0.15804-0.04939 0.24694-0.01482-0.0889-0.0247-0.16792-0.04445-0.24694l-0.33584-1.4619h-0.38523l-0.33091 1.4619c-0.01975 0.079-0.02963 0.14816-0.04445 0.23212-0.0099-0.084-0.02469-0.1531-0.04445-0.22719l-0.34572-1.4668h-0.46426z" opacity=".8"/>
  <path d="m29.064 254.69c0-0.82974-0.48401-1.2051-1.0717-1.2051-0.71614 0-1.1804 0.48895-1.1804 1.3187 0 0.77047 0.43956 1.3236 1.1804 1.3236 0.36054 0 0.66181-0.14816 0.86924-0.3556l-0.2914-0.31609c-0.17286 0.16299-0.36054 0.22719-0.57291 0.22719-0.38029 0-0.61736-0.2667-0.6865-0.68156h1.7385c0.01482-0.12348 0.01482-0.23707 0.01482-0.31115zm-1.7632-0.11854c0.04939-0.40005 0.27164-0.65193 0.69144-0.65193 0.2667 0 0.56303 0.16298 0.58279 0.65193z" opacity=".8"/>
  <path d="m31.223 255.63v-3.1263h-1.3187l0.22719 0.43462h0.5976v2.6917h-0.72602v0.43956h1.941v-0.43956z" opacity=".8"/>
  <path d="m34.069 256.13c0.52352 0 0.87418-0.24694 1.0125-0.69144l-0.46426-0.14817c-0.07902 0.23707-0.26176 0.37536-0.54328 0.37536-0.40005 0-0.61242-0.32103-0.61242-0.85443 0-0.52352 0.20743-0.85937 0.62724-0.85937 0.27164 0 0.42968 0.13829 0.50871 0.33091l0.46426-0.16298c-0.15311-0.42475-0.49389-0.63218-0.97296-0.63218-0.69638 0-1.1359 0.49883-1.1359 1.3236 0 0.83467 0.43462 1.3187 1.1162 1.3187z" opacity=".8"/>
  <path d="m37.053 256.13c0.73096 0 1.1952-0.50376 1.1952-1.3236 0-0.81492-0.46426-1.3187-1.1952-1.3187-0.73096 0-1.1952 0.5087-1.1952 1.3236 0 0.81986 0.46426 1.3187 1.1952 1.3187zm0-0.46425c-0.44944 0-0.69144-0.33585-0.69144-0.85443 0-0.53834 0.242-0.85937 0.69144-0.85937 0.45438 0 0.69638 0.33585 0.69638 0.85443 0 0.52352-0.25188 0.85937-0.69638 0.85937z" opacity=".8"/>
  <path d="m40.764 253.48c-0.26176 0-0.44944 0.1778-0.55809 0.37535-0.05927-0.18274-0.22225-0.37535-0.47413-0.37535-0.23707 0-0.40005 0.13829-0.49389 0.39017v-0.33091h-0.43462v2.5238h0.46426v-1.5261c0-0.35066 0.12347-0.58773 0.34078-0.58773 0.20743 0 0.26176 0.22225 0.26176 0.53834v1.5755h0.46426v-1.5261c0-0.35066 0.10372-0.58773 0.32103-0.58773 0.21237 0 0.26176 0.18274 0.26176 0.57291v1.5409h0.46426v-1.6694c0-0.66181-0.2025-0.91369-0.61736-0.91369z" opacity=".8"/>
  <path d="m44.257 254.69c0-0.82974-0.48401-1.2051-1.0717-1.2051-0.71614 0-1.1804 0.48895-1.1804 1.3187 0 0.77047 0.43956 1.3236 1.1804 1.3236 0.36054 0 0.66181-0.14816 0.86924-0.3556l-0.29139-0.31609c-0.17286 0.16299-0.36054 0.22719-0.57291 0.22719-0.38029 0-0.61736-0.2667-0.6865-0.68156h1.7385c0.01482-0.12348 0.01482-0.23707 0.01482-0.31115zm-1.7632-0.11854c0.04939-0.40005 0.27164-0.65193 0.69144-0.65193 0.2667 0 0.56303 0.16298 0.58279 0.65193z" opacity=".8"/>
  <path d="m21.035 263.93v3.9688h0.26367v-3.9688z" opacity=".8"/>
 </g>
 <path d="m0.5 17.134c0 1.1116 0.0256 1.9868 0.14648 2.707 0.1209 0.72019 0.34863 1.3105 0.7793 1.7422 0.43067 0.43169 1.0197 0.65954 1.7402 0.7793 0.72049 0.11977 1.5967 0.14217 2.7109 0.13672h6.123 6.125c1.1131 5e-3 1.989-0.017 2.709-0.13672 0.72051-0.11976 1.3096-0.3476 1.7402-0.7793 0.43067-0.43169 0.6584-1.022 0.7793-1.7422 0.12089-0.7202 0.14648-1.5954 0.14648-2.707v-8.2695c0-1.1116-0.0255-1.9864-0.14648-2.7051-0.12095-0.7187-0.34848-1.3062-0.7793-1.7363-0.43083-0.4301-1.0185-0.6566-1.7383-0.77735-0.71979-0.12074-1.5971-0.14648-2.7109-0.14648h-6.125-6.125c-1.1138 0-1.9912 0.0257-2.7109 0.14648-0.71979 0.12075-1.3074 0.34725-1.7383 0.77735-0.43082 0.4301-0.65835 1.0176-0.7793 1.7363-0.12094 0.7187-0.14648 1.5935-0.14648 2.7051z" color="#000000" fill="none" opacity=".4" stroke="#000"/>
 <path transform="rotate(-90 78.5 266.5)" d="m327.87 189c-4.4121 0-4.8868 0.45318-4.8652 4.8742v6.1258 6.1258c-0.0217 4.421 0.45311 4.8742 4.8652 4.8742h8.2696c4.4121 0 4.8652-0.45312 4.8652-4.8742v-6.1258-6.1258c0-4.4211-0.45312-4.8742-4.8652-4.8742z" clip-path="url(#clipPath971)" color="#000000" fill="none" opacity=".3" stroke="url(#linearGradient981)" stroke-width="2"/>
</svg>
