<svg width="24" height="24" version="1" xmlns="http://www.w3.org/2000/svg" xmlns:xlink="http://www.w3.org/1999/xlink">
 <defs>
  <linearGradient id="linearGradient1690" x1="321" x2="343" y1="203" y2="197" gradientTransform="rotate(90 266 -54)" gradientUnits="userSpaceOnUse">
   <stop stop-color="#e7e7df" offset="0"/>
   <stop stop-color="#e7e7df" offset="1"/>
  </linearGradient>
  <linearGradient id="linearGradient1690-9" x1="321" x2="343" y1="200" y2="200" gradientTransform="rotate(90 266 -54)" gradientUnits="userSpaceOnUse">
   <stop stop-color="#fff" offset="0"/>
   <stop stop-color="#fff" stop-opacity=".098039" offset=".125"/>
   <stop stop-color="#fff" stop-opacity=".098039" offset=".925"/>
   <stop stop-color="#fff" stop-opacity=".49804" offset="1"/>
  </linearGradient>
 </defs>
 <path d="m6.4528 1.0005c-1.2321 0-2.2167 0.0221-3.07 0.14144-0.85332 0.11937-1.6281 0.35533-2.2107 0.83967-0.58256 0.48436-0.86983 1.1338-1.0119 1.8459-0.14202 0.71207-0.16501 1.5324-0.15897 2.562v7.6107 4.6143c-6e-3 1.0276 0.0171 1.8474 0.15897 2.5584 0.14203 0.71208 0.42931 1.3615 1.0119 1.8459 0.58258 0.48434 1.3573 0.7203 2.2107 0.83967 0.85331 0.11936 1.8379 0.14144 3.07 0.14144h11.095c1.2321 0 2.2138-0.022 3.0657-0.14144 0.85187-0.11947 1.628-0.35683 2.2085-0.84146 0.58057-0.48464 0.86451-1.1315 1.0076-1.8423 0.14307-0.71077 0.16972-1.5314 0.16972-2.5602v-4.6143-7.6142c0-1.0288-0.0266-1.8495-0.16972-2.5602-0.14307-0.71076-0.42701-1.3576-1.0076-1.8423-0.58055-0.48464-1.3566-0.722-2.2085-0.84147-0.8519-0.11947-1.8336-0.14144-3.0657-0.14144z" color="#000000" color-rendering="auto" dominant-baseline="auto" image-rendering="auto" opacity=".1" shape-rendering="auto" solid-color="#000000" style="font-feature-settings:normal;font-variant-alternates:normal;font-variant-caps:normal;font-variant-ligatures:normal;font-variant-numeric:normal;font-variant-position:normal;isolation:auto;mix-blend-mode:normal;shape-padding:0;text-decoration-color:#000000;text-decoration-line:none;text-decoration-style:solid;text-indent:0;text-orientation:mixed;text-transform:none;white-space:normal"/>
 <path d="m6.1769 0.49945c-5.1467 0-5.7004 0.43262-5.6752 4.6531v5.8479 7.8476c-0.0253 4.2205 0.52855 4.6531 5.6752 4.6531h11.646c5.1466 0 5.6752-0.43255 5.6752-4.6531v-7.8476-5.8479c0-4.2205-0.52857-4.6531-5.6752-4.6531z" color="#000000" fill="url(#linearGradient1690)"/>
 <rect x="7.9999" y="2" width="1" height="20" enable-background="new" fill="#847d6c"/>
 <rect x="15" y="2" width="1" height="20" enable-background="new" fill="#847d6c"/>
 <rect transform="rotate(-90)" x="-16" y="2" width="1" height="20" enable-background="new" fill="#847d6c"/>
 <rect transform="rotate(-90)" x="-8" y="2" width="1" height="20" enable-background="new" fill="#847d6c"/>
 <rect x="2.9999" y="8" width="5" height="7" enable-background="new" fill="#f2f2f2"/>
 <g transform="matrix(.10859 0 0 .11553 -4.0256 -6.4872)" enable-background="new" fill="#1a1a1a" stroke="#1a1a1a" stroke-width="1.7857" aria-label="2">
  <path d="m98.848 146.5q0 2.048-0.832 3.968-0.768 1.92-2.112 3.776-1.28 1.856-2.944 3.648t-3.392 3.52q-0.96 0.96-2.24 2.304t-2.432 2.752-1.92 2.752-0.768 2.304h18.24v4.48h-24q-0.064-0.32-0.064-0.64 0-0.384 0-0.704 0-2.688 0.896-4.992t2.304-4.352 3.136-3.84q1.792-1.856 3.52-3.584 1.408-1.408 2.688-2.752 1.344-1.344 2.304-2.688 1.024-1.344 1.6-2.752 0.64-1.472 0.64-3.008 0-1.728-0.576-2.944-0.512-1.216-1.472-1.984-0.896-0.832-2.112-1.216t-2.624-0.384q-1.664 0-3.072 0.448-1.344 0.448-2.432 1.088-1.024 0.64-1.792 1.28-0.768 0.576-1.152 0.96l-2.624-3.712q0.512-0.576 1.536-1.408t2.432-1.536q1.472-0.768 3.264-1.28t3.84-0.512q6.208 0 9.152 2.88 3.008 2.816 3.008 8.128z" fill="#1a1a1a" stroke="#1a1a1a" stroke-width="1.7857"/>
 </g>
 <g transform="matrix(.10702 0 0 .11507 -4.6251 -6.5041)" enable-background="new" fill="#847d6c" stroke="#847d6c" stroke-width="1.8023" aria-label="6">
  <path d="m203.42 160.13q0-5.76 1.536-10.176 1.6-4.48 4.48-7.488 2.944-3.008 7.104-4.608t9.408-1.664l0.448 4.48q-3.392 0.064-6.208 0.768-2.752 0.64-4.928 2.176-2.176 1.472-3.648 3.84t-2.24 5.824q1.536-0.704 3.328-1.152 1.856-0.448 3.904-0.448 3.328 0 5.632 1.024 2.368 1.024 3.776 2.752 1.408 1.664 2.048 3.904t0.64 4.608q0 2.176-0.704 4.48-0.704 2.24-2.176 4.16-1.472 1.856-3.776 3.072-2.304 1.152-5.504 1.152-6.592 0-9.856-4.416t-3.264-12.288zm12.608-4.096q-2.048 0-3.776 0.384-1.664 0.384-3.392 1.152-0.064 0.64-0.064 1.28 0 0.576 0 1.28 0 2.496 0.32 4.736 0.384 2.176 1.216 3.904 0.896 1.664 2.368 2.688 1.472 0.96 3.776 0.96 1.92 0 3.2-0.768 1.28-0.832 2.112-2.048t1.152-2.688q0.384-1.536 0.384-2.88 0-3.904-1.792-5.952-1.728-2.048-5.504-2.048z" fill="#847d6c" stroke="#847d6c" stroke-width="1.8023"/>
 </g>
 <path d="m17.977 23.5c4.6719 0 5.5471-0.42296 5.5226-4.5492v-7.9504-5.9508c0.0245-4.1263-0.85068-4.5492-5.5226-4.5492h-11.954c-4.6707 0-5.5226 0.42291-5.5226 4.5492v5.9508 7.9504c0 4.1263 0.85185 4.5492 5.5226 4.5492z" color="#000000" fill="none" opacity=".4" stroke="#000"/>
 <path d="m6.0238 1.0005c-2.3203 0-3.6094 0.15494-4.207 0.62109-0.29882 0.23308-0.48964 0.54668-0.625 1.0957-0.13541 0.54902-0.19141 1.3176-0.19141 2.332v5.9512 7.9508c0 1.0144 0.056 1.783 0.19141 2.332 0.13536 0.54903 0.32618 0.86263 0.625 1.0957 0.59762 0.46615 1.8868 0.62109 4.207 0.62109h11.952c2.3208 0 3.6165-0.15457 4.2168-0.62109 0.30014-0.23327 0.49095-0.54754 0.625-1.0957 0.13404-0.54816 0.18764-1.3162 0.18164-2.3301v-7.9528-5.9531c6e-3 -1.0139-0.0476-1.7819-0.18164-2.3301-0.13406-0.54817-0.32486-0.86244-0.625-1.0957-0.60028-0.46652-1.896-0.62109-4.2168-0.62109zm4.9586 1.0098c1.5798-2e-3 4.1601-3.9e-4 5.7399 0.0117 1.5002 0.0511 3.0224-0.0712 4.5 0.28321 0.55111 0.0919 0.61303 0.71807 0.67773 1.166 0.1117 4.3083 0.075 10.626 0.0508 14.941-0.0716 0.99089 0.13687 2.0761-0.30078 3.0137-0.34356 0.40964-0.9694 0.35958-1.4512 0.45509-3.9541 0.0823-9.9294 0.0499-13.894 0.0371-1.1691-0.0622-2.3729 0.11291-3.5176-0.22266-0.57935-0.098-0.6137-0.75914-0.6875-1.2207-0.1146-4.1184-0.0751-10.245-0.0547-14.369 0.0572-1.063-0.0797-2.1673 0.18164-3.2148 0.10495-0.6386 0.8614-0.66043 1.3672-0.74023 2.1305-0.19658 5.2407-0.10662 7.3883-0.14062z" color="#000000" fill="url(#linearGradient1690-9)"/>
</svg>
