<svg width="24" height="24" version="1" xmlns="http://www.w3.org/2000/svg" xmlns:xlink="http://www.w3.org/1999/xlink">
 <defs>
  <linearGradient id="linearGradient916" x1="441.38" x2="52.966" y1="240.3" y2="386.31" gradientTransform="matrix(0 -.059215 .059783 0 -6.7301 26.636)" gradientUnits="userSpaceOnUse">
   <stop stop-color="#e8e8e8" offset="0"/>
   <stop stop-color="#f5f5f5" offset="1"/>
  </linearGradient>
  <linearGradient id="linearGradient981" x1="332" x2="332" y1="189" y2="211" gradientUnits="userSpaceOnUse">
   <stop stop-color="#fff" offset="0"/>
   <stop stop-color="#fff" stop-opacity=".098039" offset=".125"/>
   <stop stop-color="#fff" stop-opacity=".098039" offset=".925"/>
   <stop stop-color="#fff" stop-opacity=".49804" offset="1"/>
  </linearGradient>
  <clipPath id="clipPath971">
   <path d="m327.87 189c-4.4121 0-4.8868 0.45318-4.8652 4.8742v6.1258 6.1258c-0.0217 4.421 0.45311 4.8742 4.8652 4.8742h8.2696c4.4121 0 4.8652-0.45312 4.8652-4.8742v-6.1258-6.1258c0-4.4211-0.45312-4.8742-4.8652-4.8742z" color="#000000" fill="#46a926"/>
  </clipPath>
  <linearGradient id="linearGradient5663-9-2-9" x1="126.75" x2="169.5" y1="99.032" y2="214.25" gradientTransform="matrix(.10714 0 0 .10714 315.81 183.18)" gradientUnits="userSpaceOnUse" xlink:href="#linearGradient5661"/>
  <linearGradient id="linearGradient5661">
   <stop stop-color="#5884f4" offset="0"/>
   <stop stop-color="#80a3fa" offset="1"/>
  </linearGradient>
 </defs>
 <path d="m7.8652 1c-1.1201 0-2.0152 0.0241-2.791 0.1543-0.77577 0.13022-1.4801 0.38763-2.0098 0.91601-0.52962 0.52838-0.79079 1.2369-0.91992 2.0137-0.12912 0.77681-0.15002 1.6717-0.14453 2.7949v6.1211 6.125c-5e-3 1.121 0.0156 2.0153 0.14453 2.791 0.12912 0.77681 0.39029 1.4853 0.91992 2.0137 0.52964 0.52838 1.234 0.78579 2.0098 0.91601s1.6709 0.1543 2.791 0.1543h8.2695c1.1201 0 2.0126-0.024 2.7871-0.1543 0.77446-0.13033 1.48-0.38927 2.0078-0.91797 0.5278-0.52869 0.78594-1.2344 0.91601-2.0098 0.13007-0.77539 0.1543-1.6706 0.1543-2.793v-6.125-6.125c0-1.1224-0.0242-2.0176-0.1543-2.793-0.13007-0.77538-0.38821-1.4811-0.91601-2.0098-0.5278-0.5287-1.2333-0.78764-2.0078-0.91797-0.77448-0.13033-1.667-0.1543-2.7871-0.1543z" color="#000000" color-rendering="auto" dominant-baseline="auto" image-rendering="auto" opacity=".1" shape-rendering="auto" solid-color="#000000" style="font-feature-settings:normal;font-variant-alternates:normal;font-variant-caps:normal;font-variant-ligatures:normal;font-variant-numeric:normal;font-variant-position:normal;isolation:auto;mix-blend-mode:normal;shape-padding:0;text-decoration-color:#000000;text-decoration-line:none;text-decoration-style:solid;text-indent:0;text-orientation:mixed;text-transform:none;white-space:normal"/>
 <path d="m7.636 0.49999c-4.657 0-5.1581 0.47378-5.1353 5.0958v6.4042 6.4043c-0.0229 4.622 0.47827 5.0957 5.1353 5.0957h8.7287c4.657 0 5.1353-0.47372 5.1353-5.0957v-6.4043-6.4042c0-4.622-0.47828-5.0958-5.1353-5.0958z" color="#000000" fill="url(#linearGradient916)"/>
 <path transform="translate(-320,-188)" d="m327.87 189c-4.4121 0-4.8868 0.45318-4.8652 4.8742v6.1258 6.1258c-0.0217 4.421 0.45311 4.8742 4.8652 4.8742h8.2696c4.4121 0 4.8652-0.45312 4.8652-4.8742v-6.1258-6.1258c0-4.4211-0.45312-4.8742-4.8652-4.8742z" clip-path="url(#clipPath971)" color="#000000" fill="none" opacity=".7" stroke="url(#linearGradient981)" stroke-width="2"/>
 <path d="m16.508 23.512c4.2321 0 5.025-0.46371 5.0028-4.9876v-6.5241-6.5242c0.0222-4.5239-0.77061-4.9876-5.0028-4.9876h-9.0174c-4.2311 0-5.0028 0.46366-5.0028 4.9876v6.5242 6.5241c0 4.5239 0.77167 4.9876 5.0028 4.9876z" color="#000000" fill="none" opacity=".4" stroke="#000" stroke-width=".97653"/>
 <g transform="translate(-320,-188)" enable-background="new" fill="url(#linearGradient5663-9-2-9)" aria-label="æ±">
  <path d="m332.53 196.12v0.91072h3.6429v5.0357h-1.0714v-0.32143h-2.1964q2.25 1.875 5.1964 2.625l-0.53572 1.2857q-2.4643-0.64286-5.0357-3.0536v3.5357h-1.0714v-3.3214q-1.875 2.0357-4.8214 3l-0.53571-1.125q3.2143-1.0178 5.0893-2.9464h-2.3036v0.48215h-1.0714v-5.1964h3.6429v-0.91072h-5.3036v-1.0178h5.3036v-1.2322h1.0179q0.42857 0.0536 0.0536 0.32143v0.91072h5.1964v1.0178zm0 4.7679h2.5714v-1.0714h-2.5714zm0-1.9286h2.5714v-1.0714h-2.5714zm-3.6429 1.9286h2.5714v-1.0714h-2.5714zm0-1.9286h2.5714v-1.0714h-2.5714z" fill="url(#linearGradient5663-9-2-9)" stroke-width=".38044"/>
 </g>
</svg>
