<svg width="24" height="24" version="1" xmlns="http://www.w3.org/2000/svg" xmlns:xlink="http://www.w3.org/1999/xlink">
 <defs>
  <linearGradient id="linearGradient3755" x1="332" x2="332" y1="209.5" y2="190.5" gradientTransform="translate(-320 -188)" gradientUnits="userSpaceOnUse">
   <stop stop-color="#f7f7f7" offset="0"/>
   <stop stop-color="#e6e6e6" offset="1"/>
  </linearGradient>
  <linearGradient id="linearGradient981" x1="332" x2="332" y1="191" y2="209" gradientTransform="rotate(-90 332 200)" gradientUnits="userSpaceOnUse">
   <stop stop-color="#fff" offset="0"/>
   <stop stop-color="#fff" stop-opacity=".098039" offset=".125"/>
   <stop stop-color="#fff" stop-opacity=".098039" offset=".925"/>
   <stop stop-color="#fff" stop-opacity=".49804" offset="1"/>
  </linearGradient>
  <clipPath id="clipPath971">
   <path d="m327.87 189c-4.4121 0-4.8868 0.45318-4.8652 4.8742v6.1258 6.1258c-0.0217 4.421 0.45311 4.8742 4.8652 4.8742h8.2696c4.4121 0 4.8652-0.45312 4.8652-4.8742v-6.1258-6.1258c0-4.4211-0.45312-4.8742-4.8652-4.8742z" color="#000000" fill="#46a926"/>
  </clipPath>
 </defs>
 <path d="m24 8.8656c0-1.1201-0.0241-2.0152-0.1543-2.791-0.13022-0.77577-0.38763-1.4801-0.91601-2.0098-0.52838-0.52962-1.2369-0.79079-2.0137-0.91992-0.77681-0.12912-1.6717-0.15002-2.7949-0.14453h-6.1211-6.125c-1.121-5e-3 -2.0153 0.0156-2.791 0.14453-0.77681 0.12912-1.4853 0.39029-2.0137 0.91992-0.52838 0.52964-0.78579 1.234-0.91601 2.0098s-0.1543 1.6709-0.1543 2.791v8.2695c0 1.1201 0.024 2.0126 0.1543 2.7871 0.13033 0.77446 0.38927 1.48 0.91797 2.0078 0.52869 0.5278 1.2344 0.78594 2.0098 0.91601 0.77539 0.13007 1.6706 0.1543 2.793 0.1543h6.125 6.125c1.1224 0 2.0176-0.0242 2.793-0.1543 0.77538-0.13007 1.4811-0.38821 2.0098-0.91601 0.5287-0.5278 0.78764-1.2333 0.91797-2.0078 0.13033-0.77448 0.1543-1.667 0.1543-2.7871z" color="#000000" color-rendering="auto" dominant-baseline="auto" image-rendering="auto" opacity=".1" shape-rendering="auto" solid-color="#000000" style="font-feature-settings:normal;font-variant-alternates:normal;font-variant-caps:normal;font-variant-ligatures:normal;font-variant-numeric:normal;font-variant-position:normal;isolation:auto;mix-blend-mode:normal;shape-padding:0;text-decoration-color:#000000;text-decoration-line:none;text-decoration-style:solid;text-indent:0;text-orientation:mixed;text-transform:none;white-space:normal"/>
 <path d="m23.5 7.636c0-4.657-0.47377-5.1581-5.0957-5.1353h-6.4043-6.4042c-4.622-0.0229-5.0957 0.47826-5.0957 5.1353v8.7287c0 4.657 0.47371 5.1353 5.0957 5.1353h6.4042 6.4043c4.622 0 5.0957-0.47827 5.0957-5.1353z" color="#000000" fill="url(#linearGradient3755)"/>
 <path d="m1.0004 7.519h4.2651c3.8897-0.0284 2.2268 8.7906 5.1364 9.0235h0.90068 1.0007c3.2971 0 1.9757-10.452 4.2802-10.452 2.1807 0 1.7617 6.8468 3.1322 6.8468 1.163 0 0.78105-3.4181 1.837-3.4181h1.4477" color="#000000" color-rendering="auto" fill="none" image-rendering="auto" opacity=".5" shape-rendering="auto" solid-color="#000000" stroke="#1a7fd4" style="isolation:auto;mix-blend-mode:normal;paint-order:normal"/>
 <path d="m23 16.492h-2.165c-1.056 0-1.1523-4.1456-2.3153-4.1456-1.1169 0-0.49973 1.0598-1.7953 1.0412-1.2428-0.0178-0.52206-5.9366-3.2259-5.8617h-0.90069-0.90068c-3.2971 0-1.9757 10.008-4.2802 10.008-2.1807 0-1.7617-6.0945-3.1323-6.0945-1.163 0-0.78104 3.0722-1.837 3.0722h-1.4476" color="#000000" color-rendering="auto" fill="none" image-rendering="auto" shape-rendering="auto" solid-color="#000000" stroke="#da1636" style="isolation:auto;mix-blend-mode:normal;paint-order:normal"/>
 <path d="m23.512 7.4916c0-4.2321-0.46371-5.025-4.9876-5.0028h-6.5241-6.5242c-4.5239-0.0222-4.9876 0.77061-4.9876 5.0028v9.0174c0 4.2311 0.46366 5.0028 4.9876 5.0028h6.5242 6.5241c4.5239 0 4.9876-0.77167 4.9876-5.0028z" color="#000000" fill="none" opacity=".4" stroke="#000" stroke-width=".97653"/>
 <path transform="rotate(90 266 -54)" d="m327.87 189c-4.4121 0-4.8868 0.45318-4.8652 4.8742v6.1258 6.1258c-0.0217 4.421 0.45311 4.8742 4.8652 4.8742h8.2696c4.4121 0 4.8652-0.45312 4.8652-4.8742v-6.1258-6.1258c0-4.4211-0.45312-4.8742-4.8652-4.8742z" clip-path="url(#clipPath971)" color="#000000" fill="none" opacity=".7" stroke="url(#linearGradient981)" stroke-width="2"/>
</svg>
