<svg width="24" height="24" version="1" xmlns="http://www.w3.org/2000/svg" xmlns:xlink="http://www.w3.org/1999/xlink">
 <defs>
  <linearGradient id="linearGradient1690" x1="320" x2="344" y1="212" y2="188" gradientTransform="rotate(90 266 -54)" gradientUnits="userSpaceOnUse">
   <stop stop-color="#f4843f" offset="0"/>
   <stop stop-color="#f8ae34" offset="1"/>
  </linearGradient>
  <linearGradient id="linearGradient1050" x1="46.869" x2="254.15" y1="150.12" y2="150.12" gradientTransform="matrix(10.182 0 0 10.182 -3529.6 -1903.4)" gradientUnits="userSpaceOnUse" xlink:href="#linearGradient4289"/>
  <linearGradient id="linearGradient4289">
   <stop stop-color="#fdfdfb" offset="0"/>
   <stop stop-color="#f0e9df" offset="1"/>
  </linearGradient>
  <linearGradient id="linearGradient1690-9" x1="321" x2="343" y1="200" y2="200" gradientTransform="rotate(90 266 -54)" gradientUnits="userSpaceOnUse">
   <stop stop-color="#fff" offset="0"/>
   <stop stop-color="#fff" stop-opacity=".098039" offset=".125"/>
   <stop stop-color="#fff" stop-opacity=".098039" offset=".925"/>
   <stop stop-color="#fff" stop-opacity=".49804" offset="1"/>
  </linearGradient>
 </defs>
 <path d="m6.4528 1.0005c-1.2321 0-2.2167 0.0221-3.07 0.14144-0.85332 0.11937-1.6281 0.35533-2.2107 0.83967-0.58256 0.48436-0.86983 1.1338-1.0119 1.8459-0.14202 0.71207-0.16501 1.5324-0.15897 2.562v7.6107 4.6143c-6e-3 1.0276 0.0171 1.8474 0.15897 2.5584 0.14203 0.71208 0.42931 1.3615 1.0119 1.8459 0.58258 0.48434 1.3573 0.7203 2.2107 0.83967 0.85331 0.11936 1.8379 0.14144 3.07 0.14144h11.095c1.2321 0 2.2138-0.022 3.0657-0.14144 0.85187-0.11947 1.628-0.35683 2.2085-0.84146 0.58057-0.48464 0.86451-1.1315 1.0076-1.8423 0.14307-0.71077 0.16972-1.5314 0.16972-2.5602v-4.6143-7.6142c0-1.0288-0.0266-1.8495-0.16972-2.5602-0.14307-0.71076-0.42701-1.3576-1.0076-1.8423-0.58055-0.48464-1.3566-0.722-2.2085-0.84147-0.8519-0.11947-1.8336-0.14144-3.0657-0.14144z" color="#000000" color-rendering="auto" dominant-baseline="auto" image-rendering="auto" opacity=".1" shape-rendering="auto" solid-color="#000000" style="font-feature-settings:normal;font-variant-alternates:normal;font-variant-caps:normal;font-variant-ligatures:normal;font-variant-numeric:normal;font-variant-position:normal;isolation:auto;mix-blend-mode:normal;shape-padding:0;text-decoration-color:#000000;text-decoration-line:none;text-decoration-style:solid;text-indent:0;text-orientation:mixed;text-transform:none;white-space:normal"/>
 <path d="m6.1769 0.49945c-5.1467 0-5.7004 0.43262-5.6752 4.6531v5.8479 7.8476c-0.0253 4.2205 0.52855 4.6531 5.6752 4.6531h11.646c5.1466 0 5.6752-0.43255 5.6752-4.6531v-7.8476-5.8479c0-4.2205-0.52857-4.6531-5.6752-4.6531z" color="#000000" fill="url(#linearGradient1690)"/>
 <g transform="matrix(.083814 0 0 .083814 -.61551 -.5819)" enable-background="new" fill="url(#linearGradient1050)" stroke-width="10.182">
  <path d="m90.494 180.2h-43.625v-9.9295c7.8238-7.8223 30.474-25.409 28.15-35.53-3.0721-9.6888-16.516-3.1041-18.497 1.3179l-9.606-7.34c9.9051-15.277 40.548-13.517 41.418 6.1608 0.13417 15.553-15.328 25.09-24.344 33.668v0.59536h26.504z"/>
  <path d="m145.69 150.12c0.0631 17.934-5.1146 31.485-23.027 31.6-19.083-0.0356-23.56-13.743-23.495-31.488-0.0649-17.78 4.7813-31.58 23.495-31.614 18.066 0.0335 22.964 13.854 23.027 31.502zm-33.734 0.11236c0.11555 7.0266 0.67599 20.614 10.483 20.711 9.7053 0.11164 10.513-14.386 10.538-20.823-0.12683-6.991-0.48779-20.502-10.426-20.57-10.098-0.18412-10.528 13.963-10.595 20.682z"/>
  <path d="m231.71 118.61c8.5245 0.0453 20.45 3.7255 20.459 14.803-9e-3 8.758-3.6498 10.729-10.64 14.548 7.695 4.6453 12.534 8.1112 12.623 17.241-0.0892 11.956-11.652 16.271-22.443 16.351-11.363-0.0799-22.57-4.1346-22.744-16.523 0.17894-8.9376 5.4196-14.001 11.103-16.861-6.4909-3.9806-9.5333-6.0364-9.3731-14.84-0.1602-10.907 11.817-14.673 21.014-14.719zm-10.534 45.347c-0.0432 5.6839 4.6963 7.7436 10.41 7.6954 5.5049 0.0482 9.6719-2.2453 9.7399-7.1674 0.0479-8.2667-9.7344-11.879-9.7344-11.879s-10.459 3.6126-10.416 11.351zm10.441-34.982c-4.7979-0.0409-9.1512 1.0398-9.1739 5.677 0.0227 5.3995 9.0774 9.104 9.0774 9.104s8.3311-3.6544 8.4594-9.4847c-0.1918-4.2526-3.8086-5.3372-8.3629-5.2963z"/>
  <path d="m202.22 170.07h-7.77v10.088h-11.51v-10.08h-30.06v-11.137l29.332-38.853h12.238v39.776h7.77zm-19.28-33.723-18.038 23.517h18.038z"/>
 </g>
 <path d="m17.977 23.5c4.6719 0 5.5471-0.42296 5.5226-4.5492v-7.9504-5.9508c0.0245-4.1263-0.85068-4.5492-5.5226-4.5492h-11.954c-4.6707 0-5.5226 0.42291-5.5226 4.5492v5.9508 7.9504c0 4.1263 0.85185 4.5492 5.5226 4.5492z" color="#000000" fill="none" opacity=".4" stroke="#000"/>
 <path d="m6.0238 1.0005c-2.3203 0-3.6094 0.15494-4.207 0.62109-0.29882 0.23308-0.48964 0.54668-0.625 1.0957-0.13541 0.54902-0.19141 1.3176-0.19141 2.332v5.9512 7.9508c0 1.0144 0.056 1.783 0.19141 2.332 0.13536 0.54903 0.32618 0.86263 0.625 1.0957 0.59762 0.46615 1.8868 0.62109 4.207 0.62109h11.952c2.3208 0 3.6165-0.15457 4.2168-0.62109 0.30014-0.23327 0.49095-0.54754 0.625-1.0957 0.13404-0.54816 0.18764-1.3162 0.18164-2.3301v-7.9528-5.9531c6e-3 -1.0139-0.0476-1.7819-0.18164-2.3301-0.13406-0.54817-0.32486-0.86244-0.625-1.0957-0.60028-0.46652-1.896-0.62109-4.2168-0.62109zm4.9586 1.0098c1.5798-2e-3 4.1601-3.9e-4 5.7399 0.0117 1.5002 0.0511 3.0224-0.0712 4.5 0.28321 0.55111 0.0919 0.61303 0.71807 0.67773 1.166 0.1117 4.3083 0.075 10.626 0.0508 14.941-0.0716 0.99089 0.13687 2.0761-0.30078 3.0137-0.34356 0.40964-0.9694 0.35958-1.4512 0.45509-3.9541 0.0823-9.9294 0.0499-13.894 0.0371-1.1691-0.0622-2.3729 0.11291-3.5176-0.22266-0.57935-0.098-0.6137-0.75914-0.6875-1.2207-0.1146-4.1184-0.0751-10.245-0.0547-14.369 0.0572-1.063-0.0797-2.1673 0.18164-3.2148 0.10495-0.6386 0.8614-0.66043 1.3672-0.74023 2.1305-0.19658 5.2407-0.10662 7.3883-0.14062z" color="#000000" fill="url(#linearGradient1690-9)"/>
</svg>
