<svg width="24" height="24" version="1" xmlns="http://www.w3.org/2000/svg" xmlns:xlink="http://www.w3.org/1999/xlink">
 <defs>
  <linearGradient id="linearGradient8588-0-1" x1="13.735" x2="38.1" y1="249.69" y2="292.77" gradientTransform="matrix(.48294 0 0 .48294 -.01112 -119.42)" gradientUnits="userSpaceOnUse">
   <stop stop-color="#325fd1" offset="0"/>
   <stop stop-color="#6e98ff" offset="1"/>
  </linearGradient>
  <clipPath id="clipPath1231-6">
   <path d="m335.72 189.5c6.8108 1e-5 7.7842 0.97093 7.7842 7.7754v5.4489c0 6.8044-0.97337 7.7754-7.7842 7.7754h-7.4316c-6.8108 0-7.7842-0.97095-7.7842-7.7754v-5.4489c0-6.8045 0.97337-7.7754 7.7842-7.7754z" fill="#325fd1"/>
  </clipPath>
  <linearGradient id="linearGradient8590-3-3" x1="96" x2="96" y1="4" y2="188" gradientTransform="matrix(.11957 0 0 .11957 .52176 .52174)" gradientUnits="userSpaceOnUse">
   <stop stop-color="#fff" offset="0"/>
   <stop stop-color="#fff" stop-opacity=".098039" offset=".125"/>
   <stop stop-color="#fff" stop-opacity=".098039" offset=".925"/>
   <stop stop-color="#fff" stop-opacity=".49804" offset="1"/>
  </linearGradient>
 </defs>
 <ellipse transform="scale(-1)" cx="-12" cy="-12.523" rx="12" ry="11.477" enable-background="new" opacity=".1"/>
 <ellipse cx="12" cy="12" rx="11.5" ry="11.5" enable-background="new" fill="url(#linearGradient8588-0-1)"/>
 <path transform="matrix(1.0476 0 0 1.0454 -335.81 -197.11)" d="m329.55 189.98-1.3125 1.5 1.125 1.125v1.1758l1.3125 1.4492h0.75v-0.75l1.125-1.125v-0.75l0.75-0.75v-1.125l-0.75-0.75zm-2.625 0.83789a10.5 10.5 0 0 0-1.5449 1.0371h1.5449zm-2.3692 1.7871a10.5 10.5 0 0 0-0.0684 0.0742v1.0508h-0.89454a10.5 10.5 0 0 0-2.0898 6.2656 10.5 10.5 0 0 0 0.0234 0.71094l0.52344 0.52344h1.125l1.875 1.875v-2.25l1.125-1.125h0.75l1.125-1.125h1.125l-0.5625-0.5625 1.125-1.3125-1.125-1.125h-1.6875v1.5h-0.75l-0.75-0.75v-0.75l1.125-1.125h0.9375v-0.75l-1.125-1.125zm12.869 0.75-1.125 1.125v0.9375h1.125v-0.5625h0.75v0.75l-0.375 0.375-1.5 0.0254-0.5625 0.53711h-0.75v0.75l-0.5625 0.5625v1.125h1.125l0.75-0.75h0.75v0.375l0.75 0.75h0.375v-0.375l-0.75-0.75h0.75l0.75 0.75h0.9375l-0.5625-0.5625 0.5625-0.5625h0.5625l0.5625 0.5625h-0.5625l-0.5625 0.5625 0.55273 0.55273 0.01 0.57227h-0.75l2.25 2.25h0.29882a10.5 10.5 0 0 0 0.27907-2.3594 10.5 10.5 0 0 0-1.9277-6.041l-0.15039 0.1504-0.75-0.75zm2.25 6.75h-2.25l-0.375-0.375h-2.25l-1.3125 1.3125v1.875l0.9375 0.9375h1.3125l0.5625 0.5625v0.5625l0.375 0.375v2.25l1.0957 1.1582a10.5 10.5 0 0 0 2.6738-2.543l-0.0195-1.6152 1.6445-1.6445a10.5 10.5 0 0 0 0.0586-0.23046h-0.57812l-1.875-1.875zm-7.3125-5.25v0.5625h1.125l-0.5625-0.5625zm3.375 0.1875-0.5625 0.5625v0.5625h0.5625zm-5.8125 2.0625-0.5625 0.5625h0.5625l0.1875 0.1875h0.1875l0.1875-0.1875zm-3.1875 3.9375-0.5625 0.5625h1.125v-0.5625zm-0.5625 1.6875-0.75 0.75v1.875l1.5058 1.3184-6e-3 1.6816-0.51368 0.51367a10.5 10.5 0 0 0 1.8125 0.91211l1.1387-1.0508v-0.75l1.125-1.125v-0.5625l0.5625-0.5625v-1.5l-0.75-0.75h-1.5l-0.75-0.75z" clip-path="url(#clipPath1231-6)" color="#000000" fill="#fff" opacity=".18"/>
 <path d="m19 5.0001-8.8672 5.1328-5.1328 8.8672 8.8672-5.1328z" color="#000000" opacity=".05" stroke="#000" stroke-linejoin="round" stroke-width="2"/>
 <path d="m19 5.9999-8.8672 5.1328-5.1328 8.8672 8.8672-5.1328z" color="#000000" opacity=".1"/>
 <path d="m10.133 10.133 8.8667-5.1333-5.1333 8.8667z" color="#000000" fill="#e93549"/>
 <path d="m10.133 10.133-5.1333 8.8667 8.8667-5.1333z" color="#000000" fill="#dfdfdf"/>
 <path d="m19 4.9999-8.8666 5.1334-5.1334 8.8666 0.3266-0.18913 6.7421-6.7421 6.7421-6.7421z" color="#000000" fill="#fff" opacity=".2"/>
 <circle transform="matrix(0,1,1,0,0,0)" cx="13" cy="12" r="4" color="#000000" opacity=".1"/>
 <circle transform="matrix(0,1,1,0,0,0)" cx="12" cy="12" r="4" color="#000000" opacity=".05" stroke="#000" stroke-linejoin="round" stroke-width="2"/>
 <circle transform="matrix(0,1,1,0,0,0)" cx="12" cy="12" r="4" color="#000000" fill="#f2f2f2"/>
 <ellipse cx="12" cy="11.977" rx="11.455" ry="11.477" enable-background="new" fill="none" opacity=".4" stroke="#000" stroke-dashoffset="6.6" stroke-linejoin="round"/>
 <path d="m12 1c-6.0751 0-11 4.9249-11 11 0 6.0751 4.9249 11 11 11 6.0751 0 11-4.9249 11-11 0-6.0751-4.9249-11-11-11zm0 1a10 10 0 0 1 10 10 10 10 0 0 1-10 10 10 10 0 0 1-10-10 10 10 0 0 1 10-10z" enable-background="new" fill="url(#linearGradient8590-3-3)"/>
</svg>
