<svg width="24" height="24" version="1" xmlns="http://www.w3.org/2000/svg" xmlns:xlink="http://www.w3.org/1999/xlink">
 <defs>
  <linearGradient id="linearGradient4880" x1="319.61" x2="344.89" y1="215.81" y2="184.1" gradientTransform="rotate(90 266 -54)" gradientUnits="userSpaceOnUse">
   <stop stop-color="#80a3fa" offset="0"/>
   <stop stop-color="#a2bcfe" offset="1"/>
  </linearGradient>
  <clipPath id="clipPath4657">
   <path d="m415.54-130.08c90.811 1.3e-4 103.79 12.946 103.79 103.67v72.652c0 90.726-12.978 103.67-103.79 103.67h-99.089c-90.811 0-103.79-12.946-103.79-103.67v-72.652c0-90.726 12.978-103.67 103.79-103.67z" enable-background="new" fill="#f22c42"/>
  </clipPath>
  <clipPath id="clipPath4851">
   <path d="m335.72 189.5c6.8108 1e-5 7.7842 0.97093 7.7842 7.7754v5.4489c0 6.8044-0.97337 7.7754-7.7842 7.7754h-7.4316c-6.8108 0-7.7842-0.97095-7.7842-7.7754v-5.4489c0-6.8045 0.97337-7.7754 7.7842-7.7754z" enable-background="new" fill="#46a926"/>
  </clipPath>
  <linearGradient id="linearGradient981" x1="332" x2="332" y1="191" y2="209" gradientTransform="rotate(-90 332 200)" gradientUnits="userSpaceOnUse">
   <stop stop-color="#fff" offset="0"/>
   <stop stop-color="#fff" stop-opacity=".098039" offset=".125"/>
   <stop stop-color="#fff" stop-opacity=".098039" offset=".925"/>
   <stop stop-color="#fff" stop-opacity=".49804" offset="1"/>
  </linearGradient>
  <clipPath id="clipPath971">
   <path d="m327.87 189c-4.4121 0-4.8868 0.45318-4.8652 4.8742v6.1258 6.1258c-0.0217 4.421 0.45311 4.8742 4.8652 4.8742h8.2696c4.4121 0 4.8652-0.45312 4.8652-4.8742v-6.1258-6.1258c0-4.4211-0.45312-4.8742-4.8652-4.8742z" color="#000000" fill="#46a926"/>
  </clipPath>
 </defs>
 <path d="m24 8.8656c0-1.1201-0.0241-2.0152-0.1543-2.791-0.13022-0.77577-0.38763-1.4801-0.91601-2.0098-0.52838-0.52962-1.2369-0.79079-2.0137-0.91992-0.77681-0.12912-1.6717-0.15002-2.7949-0.14453h-6.1211-6.125c-1.121-5e-3 -2.0153 0.0156-2.791 0.14453-0.77681 0.12912-1.4853 0.39029-2.0137 0.91992-0.52838 0.52964-0.78579 1.234-0.91601 2.0098s-0.1543 1.6709-0.1543 2.791v8.2695c0 1.1201 0.024 2.0126 0.1543 2.7871 0.13033 0.77446 0.38927 1.48 0.91797 2.0078 0.52869 0.5278 1.2344 0.78594 2.0098 0.91601 0.77539 0.13007 1.6706 0.1543 2.793 0.1543h6.125 6.125c1.1224 0 2.0176-0.0242 2.793-0.1543 0.77538-0.13007 1.4811-0.38821 2.0098-0.91601 0.5287-0.5278 0.78764-1.2333 0.91797-2.0078 0.13033-0.77448 0.1543-1.667 0.1543-2.7871z" color="#000000" color-rendering="auto" dominant-baseline="auto" image-rendering="auto" opacity=".1" shape-rendering="auto" solid-color="#000000" style="font-feature-settings:normal;font-variant-alternates:normal;font-variant-caps:normal;font-variant-ligatures:normal;font-variant-numeric:normal;font-variant-position:normal;isolation:auto;mix-blend-mode:normal;shape-padding:0;text-decoration-color:#000000;text-decoration-line:none;text-decoration-style:solid;text-indent:0;text-orientation:mixed;text-transform:none;white-space:normal"/>
 <path d="m23.5 7.636c0-4.657-0.47377-5.1581-5.0957-5.1353h-6.4043-6.4042c-4.622-0.0229-5.0957 0.47826-5.0957 5.1353v8.7287c0 4.657 0.47371 5.1353 5.0957 5.1353h6.4042 6.4043c4.622 0 5.0957-0.47827 5.0957-5.1353z" color="#000000" fill="url(#linearGradient4880)"/>
 <path d="m5.8336 5.0004c-0.71483-9e-3 -1.1952 0.15161-1.4417 0.44743-0.25884 0.30814-0.39149 0.8137-0.39149 1.5163v12.036h16v-12.036c0-0.70257-0.13265-1.2081-0.39149-1.5163-0.24651-0.29582-0.73424-0.44743-1.4417-0.44743h-9.4875z" enable-background="new" fill="#faf8f6"/>
 <g transform="matrix(.075 0 0 .075 -15.45 11.256)" clip-path="url(#clipPath4657)" enable-background="new" stroke-width="13.333">
  <g fill-rule="evenodd" stroke-width="13.333">
   <path d="m526 169.92v-207.17l-160 75-160-75v207.17z" enable-background="new" fill="#a2bcfe"/>
   <path d="m526 169.92-3.5e-4 -207.17-320 149.38 3.5e-4 57.792z" enable-background="new" fill="#fff" opacity=".2"/>
  </g>
 </g>
 <path d="m7.0004 8v1h10v-1zm0 2v1h5v-1z" color="#000000" fill="#80a3fa" fill-opacity=".99608" opacity=".5"/>
 <g transform="translate(-320 -188)" clip-path="url(#clipPath4851)" enable-background="new">
  <path d="m320 204.12 2 0.8789v4l-2-0.87891z" color="#000000" enable-background="accumulate" fill="#87a6f3"/>
  <path d="m320 198.12 2 0.8789v4l-2-0.8789z" color="#000000" enable-background="accumulate" fill="#e93549"/>
  <path d="m344 204.12-2 0.8789v4l2-0.87891z" color="#000000" enable-background="accumulate" fill="#87a6f3"/>
  <path d="m344 198.12-2 0.8789v4l2-0.8789z" color="#000000" enable-background="accumulate" fill="#e93549"/>
 </g>
 <path d="m23.512 7.4916c0-4.2321-0.46371-5.025-4.9876-5.0028h-6.5241-6.5242c-4.5239-0.0222-4.9876 0.77061-4.9876 5.0028v9.0174c0 4.2311 0.46366 5.0028 4.9876 5.0028h6.5242 6.5241c4.5239 0 4.9876-0.77167 4.9876-5.0028z" color="#000000" fill="none" opacity=".4" stroke="#000" stroke-width=".97653"/>
 <path transform="rotate(90 266 -54)" d="m327.87 189c-4.4121 0-4.8868 0.45318-4.8652 4.8742v6.1258 6.1258c-0.0217 4.421 0.45311 4.8742 4.8652 4.8742h8.2696c4.4121 0 4.8652-0.45312 4.8652-4.8742v-6.1258-6.1258c0-4.4211-0.45312-4.8742-4.8652-4.8742z" clip-path="url(#clipPath971)" color="#000000" fill="none" opacity=".7" stroke="url(#linearGradient981)" stroke-width="2"/>
</svg>
