<svg width="24" height="24" version="1" xmlns="http://www.w3.org/2000/svg" xmlns:xlink="http://www.w3.org/1999/xlink">
 <defs>
  <linearGradient id="linearGradient916" x1="459.03" x2="35.31" y1="419.23" y2="207.37" gradientTransform="matrix(0 -.056641 .056639 0 -5.7453 26)" gradientUnits="userSpaceOnUse">
   <stop stop-color="#f2f2f2" offset="0"/>
   <stop stop-color="#f9f9f9" offset="1"/>
  </linearGradient>
  <linearGradient id="linearGradient981" x1="332" x2="332" y1="189" y2="211" gradientUnits="userSpaceOnUse">
   <stop stop-color="#fff" offset="0"/>
   <stop stop-color="#fff" stop-opacity=".098039" offset=".125"/>
   <stop stop-color="#fff" stop-opacity=".098039" offset=".925"/>
   <stop stop-color="#fff" stop-opacity=".49804" offset="1"/>
  </linearGradient>
  <clipPath id="clipPath971">
   <path d="m327.87 189c-4.4121 0-4.8868 0.45318-4.8652 4.8742v6.1258 6.1258c-0.0217 4.421 0.45311 4.8742 4.8652 4.8742h8.2696c4.4121 0 4.8652-0.45312 4.8652-4.8742v-6.1258-6.1258c0-4.4211-0.45312-4.8742-4.8652-4.8742z" color="#000000" fill="#46a926"/>
  </clipPath>
 </defs>
 <path d="m7.8652 1c-1.1201 0-2.0152 0.0241-2.791 0.1543-0.77577 0.13022-1.4801 0.38763-2.0098 0.91601-0.52962 0.52838-0.79079 1.2369-0.91992 2.0137-0.12912 0.77681-0.15002 1.6717-0.14453 2.7949v6.1211 6.125c-5e-3 1.121 0.0156 2.0153 0.14453 2.791 0.12912 0.77681 0.39029 1.4853 0.91992 2.0137 0.52964 0.52838 1.234 0.78579 2.0098 0.91601s1.6709 0.1543 2.791 0.1543h8.2695c1.1201 0 2.0126-0.024 2.7871-0.1543 0.77446-0.13033 1.48-0.38927 2.0078-0.91797 0.5278-0.52869 0.78594-1.2344 0.91601-2.0098 0.13007-0.77539 0.1543-1.6706 0.1543-2.793v-6.125-6.125c0-1.1224-0.0242-2.0176-0.1543-2.793-0.13007-0.77538-0.38821-1.4811-0.91601-2.0098-0.5278-0.5287-1.2333-0.78764-2.0078-0.91797-0.77448-0.13033-1.667-0.1543-2.7871-0.1543z" color="#000000" color-rendering="auto" dominant-baseline="auto" image-rendering="auto" opacity=".1" shape-rendering="auto" solid-color="#000000" style="font-feature-settings:normal;font-variant-alternates:normal;font-variant-caps:normal;font-variant-ligatures:normal;font-variant-numeric:normal;font-variant-position:normal;isolation:auto;mix-blend-mode:normal;shape-padding:0;text-decoration-color:#000000;text-decoration-line:none;text-decoration-style:solid;text-indent:0;text-orientation:mixed;text-transform:none;white-space:normal"/>
 <path d="m7.8652 1c-4.4121 0-4.8868 0.45318-4.8652 4.8742v6.1258 6.1258c-0.0217 4.421 0.45311 4.8742 4.8652 4.8742h8.2696c4.4121 0 4.8652-0.45312 4.8652-4.8742v-6.1258-6.1258c0-4.4211-0.45312-4.8742-4.8652-4.8742z" color="#000000" fill="none" opacity=".2" stroke="#000" stroke-width="2"/>
 <path d="m7.8652 1c-4.4121 0-4.8868 0.45318-4.8652 4.8742v6.1258 6.1258c-0.0217 4.421 0.45311 4.8742 4.8652 4.8742h8.2696c4.4121 0 4.8652-0.45312 4.8652-4.8742v-6.1258-6.1258c0-4.4211-0.45312-4.8742-4.8652-4.8742z" color="#000000" fill="url(#linearGradient916)"/>
 <path d="m13.249 3c0.67051 2.6415-2.3651 3.4393-3.4607 5.0844-0.74607 1.1208 0.36622 2.3253 1.8827 3.6934-0.59135-1.3368-2.5968-2.5061 5.8e-4 -4.5579 3.2392-2.5568 1.5771-4.2199 1.5771-4.2199z" clip-rule="evenodd" enable-background="new" fill="#dd4f37" fill-rule="evenodd" stroke-width="3.8358"/>
 <path d="m15.253 6.2681c3e-5 0-5.4773 1.3676-2.8615 4.382 0.77221 0.88893-0.20257 1.6882-0.20257 1.6882s1.9596-1.0114 1.0598-2.2786c-0.84069-1.1812-1.4851-1.768 2.0042-3.7916z" clip-rule="evenodd" enable-background="new" fill="#dd4f37" fill-rule="evenodd" stroke-width="3.8358"/>
 <path d="m16.223 11.652c-0.19246 5.7e-4 -0.3968 0.0341-0.60645 0.10769-0.16808 0.0596-0.25627 0.19783-0.25627 0.19783s0.10626-0.0427 0.34319-0.0922c0.96887-0.20188 2.3571 1.297-0.64495 2.8566-0.0139 0.0372-0.06 0.0788-0.06 0.0788 3.5702-0.93855 2.7916-3.1516 1.2245-3.1487z" clip-rule="evenodd" enable-background="new" fill="#73a1fb" fill-rule="evenodd" stroke-width="3.8358"/>
 <path d="m9.7911 11.805c-0.23517-6e-3 -1.2518 0.01-2.4667 0.59737-1.6425 0.79417 4.062 1.156 7.0154 0.37918 0.30705-0.20954 0.73118-0.39146 0.73118-0.39146s-1.2079 0.21596-2.4116 0.31697c-1.4732 0.12359-3.0534 0.14799-3.8467 0.0419-1.8781-0.25109 1.0296-0.94182 1.0296-0.94182s-0.0176-2e-3 -0.0512-2e-3z" clip-rule="evenodd" enable-background="new" fill="#73a1fb" fill-rule="evenodd" stroke-width="3.8358"/>
 <path d="m9.1652 13.622c-2.7094 0.89922 1.5083 1.9197 5.2949 0.81209-0.40232-0.14182-0.65778-0.40137-0.65778-0.40137-1.8514 0.35631-2.9208 0.34493-4.2754 0.20509-1.0472-0.10824-0.36175-0.61581-0.36175-0.61581z" clip-rule="evenodd" enable-background="new" fill="#73a1fb" fill-rule="evenodd" stroke-width="3.8358"/>
 <path d="m9.5482 15.373c-2.4601 0.68739 1.4968 2.1073 4.6292 0.76522-0.51303-0.19938-0.881-0.42956-0.881-0.42956-1.3969 0.26405-2.0448 0.28485-3.3128 0.14007-1.0464-0.12002-0.4354-0.47573-0.4354-0.47573z" clip-rule="evenodd" enable-background="new" fill="#73a1fb" fill-rule="evenodd" stroke-width="3.8358"/>
 <path d="m7.8395 16.535c-1.1048 0.0341-3.2654 1.0274-1.2895 1.3481 6.3861 1.0351 11.641-0.46625 9.9847-1.2136 0 0 0.45243 0.37302-0.49819 0.66142-1.8076 0.54752-7.5249 0.71265-9.1129 0.0219-0.57044-0.24847 0.49976-0.59287 0.8365-0.66559 0.3511-0.076 0.55162-0.0621 0.55162-0.0621-0.0992-0.0699-0.26766-0.0964-0.47224-0.0901z" clip-rule="evenodd" enable-background="new" fill="#73a1fb" fill-rule="evenodd" stroke-width="3.8358"/>
 <path d="m17.548 17.484s-0.20129 0.51683-2.3811 0.92691c-2.4592 0.46299-5.493 0.409-7.2917 0.11203 0 0 0.36842 0.30502 2.2619 0.42688 2.881 0.18419 7.3063-0.10247 7.411-1.4658z" clip-rule="evenodd" enable-background="new" fill="#73a1fb" fill-rule="evenodd" stroke-width="3.8358"/>
 <path d="m3 12v6.125c-0.0217 4.421 0.45314 4.875 4.8652 4.875h8.2695c4.4121 0 4.8652-0.45393 4.8652-4.875v-6.125z" color="#000000" fill="#fff" opacity=".2"/>
 <path d="m12 1v22h4.1348c4.4121 0 4.8652-0.45393 4.8652-4.875v-6.125-6.125c0-4.4211-0.45314-4.875-4.8652-4.875z" color="#000000" fill="#fff" opacity=".2"/>
 <path transform="translate(-320,-188)" d="m327.87 189c-4.4121 0-4.8868 0.45318-4.8652 4.8742v6.1258 6.1258c-0.0217 4.421 0.45311 4.8742 4.8652 4.8742h8.2696c4.4121 0 4.8652-0.45312 4.8652-4.8742v-6.1258-6.1258c0-4.4211-0.45312-4.8742-4.8652-4.8742z" clip-path="url(#clipPath971)" color="#000000" fill="none" opacity=".4" stroke="url(#linearGradient981)" stroke-width="2"/>
</svg>
