<svg width="24" height="24" version="1" xmlns="http://www.w3.org/2000/svg" xmlns:xlink="http://www.w3.org/1999/xlink">
 <defs>
  <linearGradient id="linearGradient1250" x1="341.07" x2="322.93" y1="200" y2="200" gradientUnits="userSpaceOnUse">
   <stop stop-color="#fff" offset="0"/>
   <stop stop-color="#fff" stop-opacity=".098039" offset=".125"/>
   <stop stop-color="#fff" stop-opacity=".098039" offset=".925"/>
   <stop stop-color="#fff" stop-opacity=".49804" offset="1"/>
  </linearGradient>
  <clipPath id="clipPath1238">
   <path d="m338 194c1.2585 0.0147 2.0891 0.0598 2.4551 0.26172 0.18341 0.10119 0.28716 0.21275 0.38476 0.47266 0.09756 0.25989 0.16016 0.67323 0.16016 1.2656v8c0 0.59239-0.0626 1.0057-0.16016 1.2656-0.0976 0.25992-0.20135 0.37147-0.38476 0.47266-0.36596 0.20192-1.1966 0.24702-2.4551 0.26172h-6e-3 -11.994c-1.2585-0.0147-2.0891-0.0598-2.4551-0.26172-0.18341-0.10119-0.28716-0.21275-0.38476-0.47266-0.09756-0.25989-0.16016-0.67323-0.16016-1.2656v-8c0-0.59239 0.0627-1.0057 0.16016-1.2656 0.0976-0.25992 0.20331-0.37146 0.38672-0.47266 0.36594-0.20192 1.1946-0.24702 2.4531-0.26172z" color="#000000" fill="url(#linearGradient1242)"/>
  </clipPath>
  <linearGradient id="linearGradient13867" x1="328" x2="336" y1="192" y2="207" gradientTransform="translate(-320 -188)" gradientUnits="userSpaceOnUse">
   <stop stop-color="#9a9a9a" offset="0"/>
   <stop stop-color="#c5c5c5" offset="1"/>
  </linearGradient>
 </defs>
 <path d="m7.4286 1c-0.75156 0-1.3469 0.0689-1.8482 0.2583-0.50133 0.18936-0.90329 0.53075-1.1406 0.96357-0.47467 0.86567-0.42314 1.9245-0.43973 3.3714v5e-3 13.807 2e-3c0.0166 1.4469-0.035 2.5057 0.43973 3.3714 0.23733 0.43282 0.63929 0.77421 1.1406 0.96357 0.50134 0.18921 1.0967 0.25814 1.8482 0.25814h9.1428c0.75156 0 1.3469-0.0689 1.8482-0.2583 0.50133-0.18937 0.9033-0.53075 1.1406-0.96358 0.47465-0.86566 0.42308-1.9245 0.43974-3.3714v-2e-3 -13.807-5e-3c-0.0166-1.4469 0.035-2.5057-0.43974-3.3714-0.23733-0.43282-0.63929-0.7742-1.1406-0.96357-0.50134-0.18921-1.0967-0.25814-1.8482-0.25814z" color="#000000" color-rendering="auto" dominant-baseline="auto" image-rendering="auto" opacity=".2" shape-rendering="auto" solid-color="#000000" style="font-feature-settings:normal;font-variant-alternates:normal;font-variant-caps:normal;font-variant-ligatures:normal;font-variant-numeric:normal;font-variant-position:normal;isolation:auto;mix-blend-mode:normal;shape-padding:0;text-decoration-color:#000000;text-decoration-line:none;text-decoration-style:solid;text-indent:0;text-orientation:mixed;text-transform:none;white-space:normal"/>
 <path d="m16.615 0.5c2.8846 0 2.851 1.1327 2.8846 4.0526v13.895c-0.0337 2.9199 0 4.0526-2.8846 4.0526h-9.2308c-2.8846 0-2.851-1.1327-2.8846-4.0526v-13.895c0.0336-2.9199 0-4.0526 2.8846-4.0526z" color="#000000" fill="#4d4d4d"/>
 <path d="m16.615 0.5c2.8846 0 2.851 1.1327 2.8846 4.0526v13.895c-0.0337 2.9199 0 4.0526-2.8846 4.0526h-9.2308c-2.8846 0-2.851-1.1327-2.8846-4.0526v-13.895c0.0336-2.9199 0-4.0526 2.8846-4.0526z" color="#000000" fill="none" opacity=".3" stroke="#000"/>
 <path transform="matrix(0 -1.1579 1.1538 0 -218.77 395.92)" d="m326 194c-1.2585 0.0147-2.0891 0.0598-2.4551 0.26172-0.18341 0.10119-0.28716 0.21275-0.38476 0.47266-0.09756 0.25989-0.16016 0.67323-0.16016 1.2656v8c0 0.59239 0.0626 1.0057 0.16016 1.2656 0.0976 0.25992 0.20135 0.37147 0.38476 0.47266 0.36596 0.20192 1.1966 0.24702 2.4551 0.26172h6e-3 11.994c1.2585-0.0147 2.0891-0.0598 2.4551-0.26172 0.18341-0.10119 0.28716-0.21275 0.38476-0.47266 0.09756-0.25989 0.16016-0.67323 0.16016-1.2656v-8c0-0.59239-0.0627-1.0057-0.16016-1.2656-0.0976-0.25992-0.20331-0.37146-0.38672-0.47266-0.36594-0.20192-1.1946-0.24702-2.4531-0.26172z" clip-path="url(#clipPath1238)" color="#000000" fill="none" opacity=".3" stroke="url(#linearGradient1250)" stroke-width="1.7303"/>
 <rect x="6" y="4" width="12" height="15" rx="1" ry="1" enable-background="new" fill="url(#linearGradient13867)"/>
 <rect x="10" y="2" width="4" height="1" rx=".5" ry=".5" enable-background="new" opacity=".3"/>
 <path d="m11.455 4-5.4545 10.909v3.4091c0 0.37772 0.30409 0.68181 0.68182 0.68181h2.5325l7.5-15z" enable-background="new" fill="#fff" opacity=".1"/>
 <path d="m7 3.9996c-0.554-5e-5 -1 0.446-1 1v9.9004l5.45-10.9z" enable-background="new" fill="#f9f9f9" opacity=".2"/>
 <path d="m12.692 6.0032-2.0687 0.36041v7.1253l2.058-0.26529-0.0107-3.2116 2.4278 3.5546 2.3849-0.343-2.744-3.6792 2.7534-3.087-2.4144-0.44483-2.4077 3.087zm-4.3505 1.8195c-0.0199 2e-3 -0.0386 0.0103-0.0536 0.0255l-0.71012 0.71816c-0.0309 0.031-0.036 0.0795-0.0121 0.11657l0.85751 1.3171c-0.16177 0.28708-0.284 0.60185-0.3631 0.93119l-1.4805 0.3631c-0.041 0.0101-0.0723 0.0472-0.0723 0.0898v0.93522c0 0.0425 0.0313 0.0797 0.0724 0.0898l1.4805 0.3631c0.0791 0.32935 0.20133 0.64412 0.3631 0.9312l-0.8575 1.3171c-0.0239 0.037-0.0188 0.0855 0.0121 0.11657l0.71012 0.71815c0.03 0.0302 0.0764 0.0327 0.11255 0.0107l1.3439-0.82399c0.26365 0.15359 0.67607 0.27717 0.97675 0.35908l0.31487 1.5207c9e-3 0.0438 0.0436 0.075 0.0871 0.075h1.0585c0.0435 0 0.0783-0.0311 0.0871-0.075l0.31486-1.5207c0.30069-0.0819 0.71311-0.20549 0.97676-0.35908l1.3438 0.824c0.0361 0.022 0.0826 0.0195 0.11255-0.0107l0.71011-0.71817c0.0309-0.0311 0.036-0.0795 0.0121-0.11656l-0.71413-1.0973-0.0884 0.0134-0.50109-0.73424c-0.5118 1.0729-1.5942 1.7566-2.7829 1.7579-1.7049 0-3.087-1.3821-3.087-3.087 7.7e-4 -1.1718 0.66533-2.242 1.715-2.7628v-0.67395c-0.19568 0.0653-0.38794 0.13887-0.53594 0.2251l-1.3439-0.82401c-0.0181-0.011-0.039-0.0164-0.0589-0.0147z" enable-background="new" fill="#fff"/>
</svg>
