<svg width="24" height="24" version="1" xmlns="http://www.w3.org/2000/svg" xmlns:xlink="http://www.w3.org/1999/xlink">
 <defs>
  <linearGradient id="linearGradient1690" x1="320" x2="344" y1="212" y2="212" gradientTransform="rotate(90 266 -54)" gradientUnits="userSpaceOnUse">
   <stop stop-color="#2b898f" offset="0"/>
   <stop stop-color="#5bdbc1" offset="1"/>
  </linearGradient>
  <linearGradient id="linearGradient1690-9" x1="321" x2="343" y1="200" y2="200" gradientTransform="rotate(90 266 -54)" gradientUnits="userSpaceOnUse">
   <stop stop-color="#fff" offset="0"/>
   <stop stop-color="#fff" stop-opacity=".098039" offset=".125"/>
   <stop stop-color="#fff" stop-opacity=".098039" offset=".925"/>
   <stop stop-color="#fff" stop-opacity=".49804" offset="1"/>
  </linearGradient>
 </defs>
 <path d="m6.4527 1.0005c-1.2321 0-2.2167 0.0221-3.07 0.14144-0.85332 0.11937-1.6281 0.35533-2.2107 0.83967-0.58256 0.48436-0.86983 1.1338-1.0119 1.8459-0.14202 0.71207-0.16501 1.5324-0.15897 2.562v7.6107 4.6143c-6e-3 1.0276 0.0171 1.8474 0.15897 2.5584 0.14203 0.71208 0.42931 1.3615 1.0119 1.8459 0.58258 0.48434 1.3573 0.7203 2.2107 0.83967 0.85331 0.11936 1.8379 0.14144 3.07 0.14144h11.095c1.2321 0 2.2138-0.022 3.0657-0.14144 0.85187-0.11947 1.628-0.35683 2.2085-0.84146 0.58057-0.48464 0.86451-1.1315 1.0076-1.8423 0.14307-0.71077 0.16972-1.5314 0.16972-2.5602v-4.6143-7.6142c0-1.0288-0.0266-1.8495-0.16972-2.5602-0.14307-0.71076-0.42701-1.3576-1.0076-1.8423-0.58055-0.48464-1.3566-0.722-2.2085-0.84147-0.8519-0.11947-1.8336-0.14144-3.0657-0.14144z" color="#000000" color-rendering="auto" dominant-baseline="auto" image-rendering="auto" opacity=".1" shape-rendering="auto" solid-color="#000000" style="font-feature-settings:normal;font-variant-alternates:normal;font-variant-caps:normal;font-variant-ligatures:normal;font-variant-numeric:normal;font-variant-position:normal;isolation:auto;mix-blend-mode:normal;shape-padding:0;text-decoration-color:#000000;text-decoration-line:none;text-decoration-style:solid;text-indent:0;text-orientation:mixed;text-transform:none;white-space:normal"/>
 <path d="m6.1769 0.49945c-5.1467 0-5.7004 0.43262-5.6752 4.6531v5.8479 7.8476c-0.0253 4.2205 0.52855 4.6531 5.6752 4.6531h11.646c5.1466 0 5.6752-0.43255 5.6752-4.6531v-7.8476-5.8479c0-4.2205-0.52857-4.6531-5.6752-4.6531z" color="#000000" fill="url(#linearGradient1690)"/>
 <path d="m0.5 10.044 7.8e-4 9.8005c-0.0177 3.3156 0.37222 3.6555 3.9963 3.6555h15.007c3.6241 0 3.9966-0.33989 3.9963-3.6555l-8e-4 -9.8005s-3.8137 0.74997-5.7498 0.74997c-3.8721 0-7.6275-1.4999-11.5-1.4999-1.9361 0-5.7498 0.74997-5.7498 0.74997z" color="#000000" fill="#81e9c0" opacity=".2"/>
 <path d="m6.25 9.2731c-1.9361 0-5.75 0.75-5.75 0.75v1s3.8139-0.75 5.75-0.75c3.8721 0 7.6279 1.5 11.5 1.5 1.9361 0 5.75-0.75 5.75-0.75v-1s-3.8139 0.75-5.75 0.75c-3.8721 0-7.6279-1.5-11.5-1.5z" color="#000000" fill="#fff" opacity=".3"/>
 <path d="m11.82 5.4784c-0.46902-5e-3 -0.63325 0.013-0.69922 0.58007l-0.0254 0.19922c-0.0579 0.36781-0.0681 0.53487-0.41601 0.625-0.0233 5e-3 -0.0471 0.01-0.0703 0.0156-5e-3 1e-3 -0.01 2e-3 -0.0156 4e-3 -0.0879 0.0212-0.17367 0.0447-0.25977 0.0703-0.0144 5e-3 -0.0274 0.01-0.041 0.0137-0.013 4e-3 -0.0261 8e-3 -0.0391 0.0117-0.041 0.0115-0.0689 9e-3 -0.10351 0.0137a5.2689 5.2689 0 0 0-1.832 1.0664c-0.0331 0.0393-0.058 0.0763-0.10938 0.1211l0.01-2e-3c-0.0687 0.0651-0.13608 0.1325-0.20117 0.20117l2e-3 -0.01c-0.29021 0.33227-0.43445 0.25732-0.8086 0.11328l-0.1875-0.0781c-0.16377-0.0708-0.28535-0.10633-0.38281-0.10938-0.2144-7e-3 -0.30867 0.14473-0.46679 0.42578-0.23903 0.40357-0.30776 0.55384 0.15039 0.89454l0.16211 0.12109c0.29069 0.23493 0.43013 0.32804 0.33203 0.67773-4e-3 0.013-0.01 0.026-0.0137 0.0391-4e-3 0.0136-7e-3 0.0266-0.0117 0.041-0.0256 0.0861-0.0491 0.17191-0.0703 0.25977-1e-3 6e-3 -2e-3 0.0101-4e-3 0.0156-6e-3 0.0232-0.0103 0.047-0.0156 0.0703-5e-3 0.0194-0.014 0.0276-0.0195 0.0449a5.2689 5.2689 0 0 0-0.12695 1.0957 5.2689 5.2689 0 0 0 0.10742 1.0449 5.2689 5.2689 0 0 0 0 2e-3c0.0126 0.0318 0.0287 0.0536 0.0391 0.0937 5e-3 0.0233 0.01 0.0471 0.0156 0.0703 1e-3 5e-3 2e-3 0.01 4e-3 0.0156 0.0211 0.0873 0.0449 0.17622 0.0703 0.26172 5e-3 0.0137 0.01 0.026 0.0137 0.0391 4e-3 0.013 8e-3 0.0261 0.0117 0.0391 0.0981 0.34969-0.0414 0.4428-0.33203 0.67773l-0.16016 0.12109c-0.45815 0.34069-0.39136 0.49292-0.15234 0.89649 0.23 0.40879 0.32547 0.54087 0.8496 0.31445l0.1875-0.0781c0.37413-0.14403 0.51839-0.21899 0.8086 0.11328l-2e-3 -8e-3c0.0651 0.0687 0.1325 0.13412 0.20117 0.19921l-0.01-2e-3c0.0402 0.0351 0.057 0.0642 0.0859 0.0957a5.2689 5.2689 0 0 0 1.8945 1.0977c0.023 5e-3 0.0389 3e-3 0.0644 0.01 0.013 4e-3 0.026 8e-3 0.0391 0.0117 0.0136 4e-3 0.0266 7e-3 0.041 0.0117 0.0861 0.0256 0.17191 0.0491 0.25977 0.0703 6e-3 1e-3 0.0101 2e-3 0.0156 4e-3 0.0232 6e-3 0.047 0.0104 0.0703 0.0156 0.348 0.0901 0.35812 0.25719 0.41601 0.625l0.0254 0.20117c0.066 0.56712 0.2302 0.58334 0.69922 0.57812 0.46902 5e-3 0.63325-0.011 0.69922-0.57812l0.0254-0.20117c0.0579-0.36781 0.0681-0.53487 0.41601-0.625 0.0233-5e-3 0.0471-0.01 0.0703-0.0156 5e-3 -1e-3 0.01-2e-3 0.0156-4e-3 0.0879-0.0212 0.17368-0.0447 0.25977-0.0703 0.0144-5e-3 0.0274-8e-3 0.041-0.0117 0.013-4e-3 0.0261-8e-3 0.0391-0.0117 0.0441-0.0124 0.0746-0.0106 0.11132-0.0156a5.2689 5.2689 0 0 0 1.7969-1.0352c0.0362-0.0478 0.0727-0.0964 0.13672-0.15234l-0.01 2e-3c0.0687-0.0651 0.13608-0.1325 0.20117-0.20117l-2e-3 0.01c0.29021-0.33227 0.43446-0.25731 0.8086-0.11328l0.1875 0.0781c0.52411 0.22643 0.6196 0.0944 0.8496-0.31445 0.23902-0.40358 0.30776-0.5558-0.15039-0.89649l-0.16211-0.12109c-0.29069-0.23493-0.43013-0.32803-0.33203-0.67773 4e-3 -0.013 0.01-0.026 0.0137-0.0391 4e-3 -0.0136 7e-3 -0.0266 0.0117-0.041 0.0256-0.0861 0.0491-0.17191 0.0703-0.25977 1e-3 -6e-3 2e-3 -0.0101 4e-3 -0.0156 6e-3 -0.0232 0.0104-0.047 0.0156-0.0703 0.0112-0.0434 0.0272-0.0679 0.041-0.10156a5.2689 5.2689 0 0 0 0.11745-1.0392 5.2689 5.2689 0 0 0-0.10351-1.0078c-0.0193-0.0405-0.04-0.076-0.0547-0.13281-5e-3 -0.0233-0.01-0.0471-0.0156-0.0703-1e-3 -5e-3 -2e-3 -0.01-4e-3 -0.0156-0.0212-0.0879-0.0447-0.17368-0.0703-0.25977-5e-3 -0.0144-8e-3 -0.0274-0.0117-0.041-4e-3 -0.013-0.01-0.0261-0.0137-0.0391-0.0981-0.34969 0.0414-0.4428 0.33203-0.67773l0.16211-0.12109c0.45815-0.34069 0.38941-0.49096 0.15039-0.89454-0.15812-0.28104-0.25239-0.43249-0.46679-0.42578-0.0975 3e-3 -0.21902 0.0386-0.38281 0.10938l-0.1875 0.0781c-0.37413 0.14403-0.51839 0.21899-0.8086-0.11328l2e-3 0.01c-0.0651-0.0687-0.1325-0.13607-0.20117-0.20117l0.01 2e-3c-0.0665-0.0581-0.10599-0.10679-0.14258-0.15625a5.2689 5.2689 0 0 0-1.8027-1.0312c-0.0335-5e-3 -0.0601-3e-3 -0.0996-0.0137-0.013-4e-3 -0.026-8e-3 -0.0391-0.0117-0.0136-4e-3 -0.0266-9e-3 -0.041-0.0137-0.0861-0.0256-0.17191-0.0491-0.25977-0.0703-6e-3 -1e-3 -0.0101-2e-3 -0.0156-4e-3 -0.0232-6e-3 -0.047-0.0104-0.0703-0.0156-0.348-0.0901-0.35812-0.25719-0.41601-0.625l-0.0254-0.19922c-0.0659-0.56711-0.2302-0.58529-0.69922-0.58007z" color="#000000" fill="#313131"/>
 <path d="m11.82 5.4784c-0.46902-5e-3 -0.63325 0.013-0.69922 0.58007l-0.0254 0.19922c-0.0579 0.36781-0.0681 0.53487-0.41601 0.625-0.0233 5e-3 -0.0471 0.01-0.0703 0.0156-5e-3 1e-3 -0.01 2e-3 -0.0156 4e-3 -0.0879 0.0212-0.17367 0.0447-0.25977 0.0703-0.0144 5e-3 -0.0274 0.01-0.041 0.0137-0.013 4e-3 -0.0261 8e-3 -0.0391 0.0117-0.041 0.0115-0.0689 9e-3 -0.10351 0.0137a5.2689 5.2689 0 0 0-1.832 1.0664c-0.0331 0.0393-0.058 0.0763-0.10938 0.1211l0.01-2e-3c-0.0687 0.0651-0.13608 0.1325-0.20117 0.20117l2e-3 -0.01c-0.29021 0.33227-0.43445 0.25732-0.8086 0.11328l-0.1875-0.0781c-0.16376-0.0708-0.28535-0.10633-0.38281-0.10938-0.2144-7e-3 -0.30867 0.14473-0.46679 0.42578-0.22703 0.3833-0.28611 0.54314 0.0996 0.84961 0.10587-0.16747 0.20307-0.28075 0.36719-0.27539 0.0975 3e-3 0.21905 0.0386 0.38281 0.10938l0.1875 0.0781c0.37415 0.14404 0.51839 0.21899 0.8086-0.11328l-2e-3 0.01c0.0651-0.0687 0.13247-0.13607 0.20117-0.20117l-0.01 2e-3c0.0514-0.0448 0.0763-0.0818 0.10938-0.1211a5.2689 5.2689 0 0 1 1.832-1.0664c0.0346-5e-3 0.0625-2e-3 0.10351-0.0137 0.013-4e-3 0.0261-8e-3 0.0391-0.0117 0.0136-4e-3 0.0266-9e-3 0.041-0.0137 0.0861-0.0256 0.17187-0.0491 0.25977-0.0703 6e-3 -2e-3 0.0106-3e-3 0.0156-4e-3 0.0232-6e-3 0.047-0.0106 0.0703-0.0156 0.34791-0.0901 0.35811-0.25719 0.41601-0.625l0.0254-0.19922c0.066-0.56707 0.2302-0.58507 0.69922-0.58007 0.46902-5e-3 0.63332 0.013 0.69922 0.58007l0.0254 0.19922c0.0579 0.36781 0.068 0.5349 0.41601 0.625 0.0233 5e-3 0.0471 0.01 0.0703 0.0156 5e-3 2e-3 0.01 3e-3 0.0156 4e-3 0.0879 0.0212 0.17367 0.0447 0.25977 0.0703 0.0144 5e-3 0.0274 0.01 0.041 0.0137 0.0131 4e-3 0.0261 8e-3 0.0391 0.0117 0.0395 0.0107 0.0661 9e-3 0.0996 0.0137a5.2689 5.2689 0 0 1 1.8027 1.0312c0.0366 0.0495 0.0761 0.0982 0.14258 0.15625l-0.01-2e-3c0.0687 0.0651 0.13607 0.13247 0.20117 0.20117l-2e-3 -0.01c0.29021 0.33227 0.43447 0.25731 0.8086 0.11328l0.1875-0.0781c0.16379-0.0708 0.28531-0.10638 0.38281-0.10938 0.16412-5e-3 0.26132 0.10799 0.36719 0.27539 0.38571-0.30647 0.32662-0.4663 0.0996-0.84961-0.15812-0.28104-0.25239-0.43249-0.46679-0.42578-0.0975 3e-3 -0.21902 0.0386-0.38281 0.10938l-0.1875 0.0781c-0.37413 0.14403-0.51839 0.21899-0.8086-0.11328l2e-3 0.01c-0.0651-0.0687-0.1325-0.13607-0.20117-0.20117l0.01 2e-3c-0.0665-0.0581-0.10599-0.10679-0.14258-0.15625a5.2689 5.2689 0 0 0-1.8027-1.0312c-0.0335-5e-3 -0.0601-3e-3 -0.0996-0.0137-0.013-4e-3 -0.026-8e-3 -0.0391-0.0117-0.0136-4e-3 -0.0266-9e-3 -0.041-0.0137-0.0861-0.0256-0.17191-0.0491-0.25977-0.0703-6e-3 -1e-3 -0.0101-2e-3 -0.0156-4e-3 -0.0232-6e-3 -0.047-0.0104-0.0703-0.0156-0.348-0.0901-0.35812-0.25719-0.41601-0.625l-0.0254-0.19922c-0.0659-0.56711-0.2302-0.58529-0.69922-0.58007zm5.1484 5.4551c-0.13538 0.13041-0.21535 0.25454-0.14649 0.5 4e-3 0.013 0.01 0.0261 0.0137 0.0391 4e-3 0.0136 7e-3 0.0266 0.0117 0.041 0.0256 0.0861 0.0491 0.17187 0.0703 0.25977 2e-3 6e-3 3e-3 0.0106 4e-3 0.0156 6e-3 0.0232 0.0106 0.047 0.0156 0.0703 0.0147 0.0568 0.0354 0.0923 0.0547 0.13281a5.2689 5.2689 0 0 1 0.0742 0.47851 5.2689 5.2689 0 0 0 0.0293-0.4707 5.2689 5.2689 0 0 0-0.10351-1.0078c-8e-3 -0.0178-0.015-0.0405-0.0234-0.0586zm-10.291 4e-3a5.2689 5.2689 0 0 0-0.12109 1.0625 5.2689 5.2689 0 0 0 0.0293 0.53711 5.2689 5.2689 0 0 1 0.0977-0.63281c6e-3 -0.0173 0.0145-0.0255 0.0195-0.0449 5e-3 -0.0233 0.01-0.0471 0.0156-0.0703 2e-3 -6e-3 3e-3 -0.01 4e-3 -0.0156 0.0212-0.0879 0.0447-0.17367 0.0703-0.25977 5e-3 -0.0144 8e-3 -0.0274 0.0117-0.041 4e-3 -0.0131 0.01-0.0261 0.0137-0.0391 0.068-0.24231-9e-3 -0.36762-0.14063-0.49609zm-6e-3 3.1289c-0.0575 0.0554-0.0989 0.10771-0.18554 0.17773l-0.16016 0.12109c-0.45815 0.34069-0.39136 0.49292-0.15234 0.89649 0.035 0.0622 0.0649 0.10517 0.0957 0.1543 0.0225-0.0181 0.0308-0.0316 0.0566-0.0508l0.16016-0.12109c0.29063-0.23493 0.43013-0.32804 0.33203-0.67773-4e-3 -0.013-8e-3 -0.0261-0.0117-0.0391-4e-3 -0.0131-9e-3 -0.0254-0.0137-0.0391-0.0254-0.0855-0.0492-0.17442-0.0703-0.26172-2e-3 -6e-3 -3e-3 -0.0106-4e-3 -0.0156-6e-3 -0.0232-0.0106-0.047-0.0156-0.0703-8e-3 -0.0318-0.0204-0.0513-0.0312-0.0742zm10.295 2e-3c-0.0103 0.0219-0.0213 0.0414-0.0293 0.0723-5e-3 0.0233-0.01 0.0471-0.0156 0.0703-2e-3 6e-3 -3e-3 0.01-4e-3 0.0156-0.0212 0.0879-0.0447 0.17367-0.0703 0.25977-5e-3 0.0144-8e-3 0.0274-0.0117 0.041-4e-3 0.0131-0.01 0.0261-0.0137 0.0391-0.0981 0.3497 0.0413 0.4428 0.33203 0.67773l0.16211 0.12109c0.0253 0.0188 0.0325 0.033 0.0547 0.0508 0.0308-0.0491 0.0607-0.0921 0.0957-0.1543 0.23902-0.40358 0.30776-0.5558-0.15039-0.89649l-0.16211-0.12109c-0.0869-0.0703-0.12992-0.12023-0.1875-0.17578z" color="#000000" fill="#fff" opacity=".6"/>
 <rect x="11.25" y="19" width="1" height="1" rx=".5" ry=".5" enable-background="new" fill="#313131"/>
 <rect x="11.25" y="20" width="1" height="1" rx=".5" ry=".5" enable-background="new" fill="#313131"/>
 <rect x="11.25" y="21" width="1" height="1" rx=".5" ry=".5" enable-background="new" fill="#313131"/>
 <path d="m0.5 12 7.8e-4 7.8443c-0.0177 3.3156 0.37222 3.6555 3.9963 3.6555h15.007c3.6241 0 3.9966-0.33989 3.9963-3.6555l-8e-4 -7.8443s-3.8137 0.74998-5.7498 0.74998c-3.8721 0-7.6275-1.4999-11.5-1.4999-1.936 0-5.7498 0.74996-5.7498 0.74996z" color="#000000" fill="#81e9c0" opacity=".2"/>
 <path d="m0.5 14.067 7.8e-4 5.7775c-0.0177 3.3156 0.37222 3.6555 3.9963 3.6555h15.007c3.6241 0 3.9968-0.33989 3.9963-3.6555l-8e-4 -5.7775s-3.8137 0.74997-5.7498 0.74997c-3.8721 0-7.6275-1.4999-11.5-1.4999-1.9361 0-5.7498 0.74997-5.7498 0.74997z" color="#000000" fill="#81e9c0" opacity=".2"/>
 <path d="m0.5 16.023 7.8e-4 3.8212c-0.0177 3.3156 0.37222 3.6555 3.9963 3.6555h15.007c3.6241 0 3.997-0.33989 3.9963-3.6555l-8e-4 -3.8212s-3.8137 0.74997-5.7498 0.74997c-3.8721 0-7.6275-1.4999-11.5-1.4999-1.9361 0-5.7498 0.74997-5.7498 0.74997z" color="#000000" fill="#81e9c0" opacity=".2"/>
 <path d="m6.25 15.273c-1.9361 0-5.75 0.75-5.75 0.75v1s3.8139-0.75 5.75-0.75c3.8721 0 7.6279 1.5 11.5 1.5 1.9361 0 5.75-0.75 5.75-0.75v-1s-3.8139 0.75-5.75 0.75c-3.8721 0-7.6279-1.5-11.5-1.5z" color="#000000" fill="#fff" opacity=".3"/>
 <path d="m6.25 13.273c-1.9361 0-5.75 0.75-5.75 0.75v1s3.8139-0.75 5.75-0.75c3.8721 0 7.6279 1.5 11.5 1.5 1.9361 0 5.75-0.75 5.75-0.75v-1s-3.8139 0.75-5.75 0.75c-3.8721 0-7.6279-1.5-11.5-1.5z" color="#000000" fill="#fff" opacity=".3"/>
 <path d="m6.25 11.273c-1.9361 0-5.75 0.75-5.75 0.75v1s3.8139-0.75 5.75-0.75c3.8721 0 7.6279 1.5 11.5 1.5 1.9361 0 5.75-0.75 5.75-0.75v-1s-3.8139 0.75-5.75 0.75c-3.8721 0-7.6279-1.5-11.5-1.5z" color="#000000" fill="#fff" opacity=".3"/>
 <path d="m17.977 23.5c4.6719 0 5.5471-0.42296 5.5226-4.5492v-7.9504-5.9508c0.0245-4.1263-0.85068-4.5492-5.5226-4.5492h-11.954c-4.6707 0-5.5226 0.42291-5.5226 4.5492v5.9508 7.9504c0 4.1263 0.85185 4.5492 5.5226 4.5492z" color="#000000" fill="none" opacity=".4" stroke="#000"/>
 <path d="m6.0238 1.0005c-2.3203 0-3.6094 0.15494-4.207 0.62109-0.29882 0.23308-0.48964 0.54668-0.625 1.0957-0.13541 0.54902-0.19141 1.3176-0.19141 2.332v5.9512 7.9508c0 1.0144 0.056 1.783 0.19141 2.332 0.13536 0.54903 0.32618 0.86263 0.625 1.0957 0.59762 0.46615 1.8868 0.62109 4.207 0.62109h11.952c2.3208 0 3.6165-0.15457 4.2168-0.62109 0.30014-0.23327 0.49095-0.54754 0.625-1.0957 0.13404-0.54816 0.18764-1.3162 0.18164-2.3301v-7.9528-5.9531c6e-3 -1.0139-0.0476-1.7819-0.18164-2.3301-0.13406-0.54817-0.32486-0.86244-0.625-1.0957-0.60028-0.46652-1.896-0.62109-4.2168-0.62109zm4.9586 1.0098c1.5798-2e-3 4.1601-3.9e-4 5.7399 0.0117 1.5002 0.0511 3.0224-0.0712 4.5 0.28321 0.55111 0.0919 0.61303 0.71807 0.67773 1.166 0.1117 4.3083 0.075 10.626 0.0508 14.941-0.0716 0.99089 0.13687 2.0761-0.30078 3.0137-0.34356 0.40964-0.9694 0.35958-1.4512 0.45509-3.9541 0.0823-9.9294 0.0499-13.894 0.0371-1.1691-0.0622-2.3729 0.11291-3.5176-0.22266-0.57935-0.098-0.6137-0.75914-0.6875-1.2207-0.1146-4.1184-0.0751-10.245-0.0547-14.369 0.0572-1.063-0.0797-2.1673 0.18164-3.2148 0.10495-0.6386 0.8614-0.66043 1.3672-0.74023 2.1305-0.19658 5.2407-0.10662 7.3883-0.14062z" color="#000000" fill="url(#linearGradient1690-9)"/>
</svg>
