<svg width="24" height="24" version="1" xmlns="http://www.w3.org/2000/svg">
 <defs>
  <linearGradient id="linearGradient8588-0-1" x1="13.735" x2="38.1" y1="249.69" y2="292.77" gradientTransform="matrix(.48294 0 0 .48294 -.01112 -119.42)" gradientUnits="userSpaceOnUse">
   <stop stop-color="#da1636" offset="0"/>
   <stop stop-color="#f22c42" offset="1"/>
  </linearGradient>
  <linearGradient id="linearGradient8590-3-3" x1="96" x2="96" y1="4" y2="188" gradientTransform="matrix(.11957 0 0 .11957 .52176 .52174)" gradientUnits="userSpaceOnUse">
   <stop stop-color="#fff" offset="0"/>
   <stop stop-color="#fff" stop-opacity=".098039" offset=".125"/>
   <stop stop-color="#fff" stop-opacity=".098039" offset=".925"/>
   <stop stop-color="#fff" stop-opacity=".49804" offset="1"/>
  </linearGradient>
 </defs>
 <ellipse transform="scale(-1)" cx="-12" cy="-12.523" rx="12" ry="11.477" enable-background="new" opacity=".1"/>
 <ellipse cx="12" cy="12" rx="11.5" ry="11.5" enable-background="new" fill="url(#linearGradient8588-0-1)"/>
 <path d="m8.7936 15.962c-0.2601-0.035-0.72279-0.1856-1.0314-0.3342-2.0108-0.9635-2.8331-3.3902-1.8427-5.4342 1.1315-2.3372 4.2187-2.933 6.0764-1.1726 0.53722 0.5082 0.77581 0.942 1.5846 2.8649 0.84434 2.011 1.0004 2.3272 1.274 2.5953 0.29312 0.2852 0.56473 0.3812 1.0844 0.3812 0.85384 0 1.4636-0.5278 1.4636-1.2641 0-0.6233-0.21909-0.8229-1.3365-1.2196-1.7017-0.6138-2.2529-1.1686-2.2549-2.2827 0-0.5943 0.15056-0.9905 0.53321-1.4012 0.54922-0.5863 1.4966-0.7799 2.3349-0.4887 0.35764 0.127 1.1059 0.7894 1.1059 0.979 0 0.092-0.43367 0.3732-0.67427 0.4397-0.12705 0.033-0.2366-0.01-0.38315-0.1506-0.29712-0.2851-0.4982-0.3732-0.85384-0.3732-0.61374 0-0.9944 0.3692-0.9944 0.9655 0 0.5943 0.2421 0.7954 1.4516 1.2036 1.6667 0.5628 2.1589 1.071 2.1689 2.2471 0.01 1.016-0.44768 1.7489-1.358 2.1826-0.41416 0.1956-0.55472 0.2206-1.231 0.2206-0.96539 0-1.3991-0.1796-1.9403-0.7894-0.36365-0.4102-0.73279-1.1801-1.9148-3.9905-0.4902-1.1645-1.1194-1.7353-2.1689-1.9599-0.53171-0.1136-1.272-0.01-1.7547 0.2461-0.47069 0.2461-0.9964 0.8014-1.2445 1.3091-0.20508 0.4122-0.22459 0.5278-0.22459 1.2447 0 0.6838 0.02751 0.8459 0.19908 1.2211 0.2601 0.5728 0.77181 1.102 1.3345 1.3872 0.40666 0.2051 0.53321 0.2306 1.182 0.2306 0.62325 0 0.78331-0.029 1.155-0.2071 0.42417-0.2071 0.9944-0.7154 1.227-1.0961l0.12105-0.1976 0.2386 0.5453c0.13305 0.3012 0.2401 0.5843 0.2401 0.6353 0 0.1506-0.53922 0.6428-1.0334 0.9495-0.7503 0.4632-1.6121 0.6368-2.5325 0.5117" fill="#fff"/>
 <path d="m1.054 13a11 11 0 0 0 10.946 10 11 11 0 0 0 10.95-10z" enable-background="new" fill="#fff" opacity=".05"/>
 <ellipse cx="12" cy="11.977" rx="11.455" ry="11.477" enable-background="new" fill="none" opacity=".4" stroke="#000" stroke-dashoffset="6.6" stroke-linejoin="round"/>
 <path d="m12 1c-6.0751 0-11 4.9249-11 11s4.9249 11 11 11 11-4.9249 11-11-4.9249-11-11-11zm0 1a10 10 0 0 1 10 10 10 10 0 0 1-10 10 10 10 0 0 1-10-10 10 10 0 0 1 10-10z" enable-background="new" fill="url(#linearGradient8590-3-3)"/>
</svg>
