<svg width="24" height="24" version="1" xmlns="http://www.w3.org/2000/svg" xmlns:xlink="http://www.w3.org/1999/xlink">
 <defs>
  <linearGradient id="linearGradient916" x1="459.03" x2="35.31" y1="419.23" y2="207.37" gradientTransform="matrix(0 -.056641 -.056639 0 29.745 26)" gradientUnits="userSpaceOnUse">
   <stop stop-color="#0369a3" offset="0"/>
   <stop stop-color="#047fc6" offset="1"/>
  </linearGradient>
  <linearGradient id="linearGradient1311" x1="328" x2="336" y1="188" y2="212" gradientTransform="translate(-320 -188)" gradientUnits="userSpaceOnUse">
   <stop stop-color="#f2f2f2" offset="0"/>
   <stop stop-color="#fff" offset="1"/>
  </linearGradient>
  <linearGradient id="_Linear11" x2="1" gradientTransform="matrix(0,20,-20,0,753,484)" gradientUnits="userSpaceOnUse">
   <stop stop-color="#0369a3" offset="0"/>
   <stop stop-color="#047fc6" offset="1"/>
  </linearGradient>
  <linearGradient id="_Linear25" x2="1" gradientTransform="matrix(0,20,-20,0,753,483)" gradientUnits="userSpaceOnUse">
   <stop stop-color="#0369a3" offset="0"/>
   <stop stop-color="#047fc6" offset="1"/>
  </linearGradient>
  <linearGradient id="_Linear26" x2="1" gradientTransform="matrix(0 1.5 -1.5 0 758 490)" gradientUnits="userSpaceOnUse">
   <stop stop-color="#aadcf7" offset="0"/>
   <stop stop-color="#aadcf7" offset="1"/>
  </linearGradient>
 </defs>
 <path d="m16.135 0.5c1.1116 0 1.9868 0.0256 2.707 0.14648 0.72019 0.1209 1.3105 0.34863 1.7422 0.7793 0.43169 0.43067 0.65954 1.0197 0.7793 1.7402 0.11977 0.72049 0.14217 1.5967 0.13672 2.7109v6.123 6.125c5e-3 1.1131-0.017 1.989-0.13672 2.709-0.11976 0.72051-0.3476 1.3096-0.7793 1.7402-0.43169 0.43067-1.022 0.6584-1.7422 0.7793-0.7202 0.12089-1.5954 0.14648-2.707 0.14648h-8.2695c-1.1116 0-1.9864-0.0255-2.7051-0.14648-0.7187-0.12095-1.3062-0.34848-1.7363-0.7793-0.4301-0.43083-0.6566-1.0185-0.77735-1.7383-0.12074-0.71979-0.14648-1.5971-0.14648-2.7109v-6.125-6.125c0-1.1138 0.0257-1.9912 0.14648-2.7109 0.12075-0.71979 0.34725-1.3074 0.77735-1.7383 0.4301-0.43082 1.0176-0.65835 1.7363-0.7793 0.7187-0.12094 1.5935-0.14648 2.7051-0.14648z" color="#000000" fill="url(#linearGradient916)"/>
 <path d="m7.8657 2c-1.0886 0-1.9003 0.0312-2.459 0.125-0.54887 0.0921-0.79683 0.22878-0.93164 0.36328-0.13436 0.13404-0.26642 0.37645-0.35742 0.92383-0.0925 0.55627-0.12219 1.3667-0.11719 2.457v4e-3 6.127 6.1289 2e-3c-5e-3 1.0898 0.0249 1.9019 0.11719 2.457 0.091 0.5474 0.22306 0.78979 0.35742 0.92383 0.13484 0.13452 0.38277 0.27118 0.93164 0.36328 0.55862 0.0938 1.3704 0.125 2.459 0.125h8.2695c1.0886 0 1.9008-0.0314 2.457-0.125 0.54703-0.0921 0.78777-0.227 0.92187-0.36133 0.13429-0.13451 0.26913-0.37646 0.36133-0.92578 0.0936-0.55811 0.125-1.3723 0.125-2.463v-6.125-3l-7.0005-7z" color="#000000" color-rendering="auto" dominant-baseline="auto" fill="url(#linearGradient1311)" image-rendering="auto" shape-rendering="auto" solid-color="#000000" style="font-feature-settings:normal;font-variant-alternates:normal;font-variant-caps:normal;font-variant-ligatures:normal;font-variant-numeric:normal;font-variant-position:normal;isolation:auto;mix-blend-mode:normal;shape-padding:0;text-decoration-color:#000000;text-decoration-line:none;text-decoration-style:solid;text-indent:0;text-orientation:mixed;text-transform:none;white-space:normal"/>
 <path d="m3.0005 12v6.125c-0.0217 4.421 0.45314 4.875 4.8652 4.875h8.2695c4.4121 0 4.8652-0.45393 4.8652-4.875v-6.125z" color="#000000" fill="#fff" opacity=".1"/>
 <path d="m12 0.5v23h4.1348c1.1116 0 1.9868-0.0256 2.707-0.14648 0.72019-0.1209 1.3105-0.34863 1.7422-0.7793 0.4317-0.43067 0.65954-1.0197 0.7793-1.7402 0.11972-0.71998 0.14172-1.5959 0.13672-2.709v-6.125-6.123c5e-3 -1.1142-0.017-1.9904-0.13672-2.7109-0.11976-0.7205-0.34761-1.3096-0.7793-1.7402-0.43168-0.43067-1.022-0.6584-1.7422-0.7793-0.7202-0.12088-1.5954-0.14648-2.707-0.14648z" color="#000000" fill="#fff" opacity=".1"/>
 <g transform="translate(-741 -480)" clip-rule="evenodd" enable-background="new" fill-rule="evenodd">
  <path d="m747.5 489c-0.276 0-0.5 0.224-0.5 0.5s0.224 0.5 0.5 0.5h3c0.277 0 0.5-0.224 0.5-0.5s-0.223-0.5-0.5-0.5zm0 2c-0.276 0-0.5 0.224-0.5 0.5s0.224 0.5 0.5 0.5h3c0.277 0 0.5-0.224 0.5-0.5s-0.223-0.5-0.5-0.5zm0 2c-0.276 0-0.5 0.224-0.5 0.5s0.224 0.5 0.5 0.5h3c0.277 0 0.5-0.224 0.5-0.5s-0.223-0.5-0.5-0.5zm0 2c-0.276 0-0.5 0.224-0.5 0.5s0.224 0.5 0.5 0.5h11c0.277 0 0.5-0.224 0.5-0.5s-0.223-0.5-0.5-0.5zm0 2c-0.276 0-0.5 0.224-0.5 0.5s0.224 0.5 0.5 0.5h11c0.277 0 0.5-0.224 0.5-0.5s-0.223-0.5-0.5-0.5zm0 2c-0.276 0-0.5 0.224-0.5 0.5s0.224 0.5 0.5 0.5h5c0.277 0 0.5-0.224 0.5-0.5s-0.223-0.5-0.5-0.5z" fill="url(#_Linear11)" fill-rule="nonzero"/>
  <path d="m753.2 489c-0.662 0-1.198 0.536-1.198 1.198v2.604c0 0.662 0.536 1.198 1.198 1.198h4.604c0.662 0 1.198-0.536 1.198-1.198v-2.604c0-0.662-0.536-1.198-1.198-1.198z" fill="url(#_Linear25)" fill-rule="nonzero"/>
  <path d="m757.46 490h-3.912c-0.3 0-0.544 0.244-0.544 0.544v1.912c0 0.3 0.244 0.544 0.544 0.544h3.912c0.3 0 0.544-0.244 0.544-0.544v-1.912c0-0.3-0.244-0.544-0.544-0.544z" fill="url(#_Linear26)" fill-rule="nonzero"/>
  <path d="m757.99 492.83-0.624-0.762c-0.301-0.368-0.863-0.373-1.171-0.011l-0.193 0.228c-0.046 0.054-0.13 0.05-0.171-7e-3l-0.698-0.962c-0.321-0.444-0.993-0.413-1.272 0.059l-0.861 1.452c0.041 0.26 0.266 0.458 0.538 0.458h3.914c0.271 0 0.495-0.197 0.538-0.455z" fill="#0474b4"/>
 </g>
</svg>
