<svg width="24" height="24" version="1" xmlns="http://www.w3.org/2000/svg" xmlns:xlink="http://www.w3.org/1999/xlink">
 <defs>
  <linearGradient id="linearGradient981" x1="332" x2="332" y1="191" y2="209" gradientTransform="rotate(-90 332 200)" gradientUnits="userSpaceOnUse">
   <stop stop-color="#fff" offset="0"/>
   <stop stop-color="#fff" stop-opacity=".098039" offset=".125"/>
   <stop stop-color="#fff" stop-opacity=".098039" offset=".925"/>
   <stop stop-color="#fff" stop-opacity=".49804" offset="1"/>
  </linearGradient>
  <clipPath id="clipPath971">
   <path d="m327.87 189c-4.4121 0-4.8868 0.45318-4.8652 4.8742v6.1258 6.1258c-0.0217 4.421 0.45311 4.8742 4.8652 4.8742h8.2696c4.4121 0 4.8652-0.45312 4.8652-4.8742v-6.1258-6.1258c0-4.4211-0.45312-4.8742-4.8652-4.8742z" color="#000000" fill="#46a926"/>
  </clipPath>
 </defs>
 <path d="m24 8.8656c0-1.1201-0.0241-2.0152-0.1543-2.791-0.13022-0.77577-0.38763-1.4801-0.91601-2.0098-0.52838-0.52962-1.2369-0.79079-2.0137-0.91992-0.77681-0.12912-1.6717-0.15002-2.7949-0.14453h-6.1211-6.125c-1.121-5e-3 -2.0153 0.0156-2.791 0.14453-0.77681 0.12912-1.4853 0.39029-2.0137 0.91992-0.52838 0.52964-0.78579 1.234-0.91601 2.0098s-0.1543 1.6709-0.1543 2.791v8.2695c0 1.1201 0.024 2.0126 0.1543 2.7871 0.13033 0.77446 0.38927 1.48 0.91797 2.0078 0.52869 0.5278 1.2344 0.78594 2.0098 0.91601 0.77539 0.13007 1.6706 0.1543 2.793 0.1543h6.125 6.125c1.1224 0 2.0176-0.0242 2.793-0.1543 0.77538-0.13007 1.4811-0.38821 2.0098-0.91601 0.5287-0.5278 0.78764-1.2333 0.91797-2.0078 0.13033-0.77448 0.1543-1.667 0.1543-2.7871z" color="#000000" color-rendering="auto" dominant-baseline="auto" image-rendering="auto" opacity=".1" shape-rendering="auto" solid-color="#000000" style="font-feature-settings:normal;font-variant-alternates:normal;font-variant-caps:normal;font-variant-ligatures:normal;font-variant-numeric:normal;font-variant-position:normal;isolation:auto;mix-blend-mode:normal;shape-padding:0;text-decoration-color:#000000;text-decoration-line:none;text-decoration-style:solid;text-indent:0;text-orientation:mixed;text-transform:none;white-space:normal"/>
 <path d="m5.5961 2.5c-1.9675-0.01-3.1782 0.0807-3.9258 0.54102-0.94334 1.1241-1.1699 3.0251-1.1699 6.2344v5.4492c0 3.1961 0.22462 5.0947 1.1582 6.2207 0.74665 0.46457 1.9605 0.55469 3.9375 0.55469h12.809c1.977 0 3.1908-0.0901 3.9375-0.55469 0.93358-1.126 1.1582-3.0246 1.1582-6.2207v-5.4492c0-3.2092-0.22658-5.1102-1.1699-6.2344-0.74757-0.46034-1.9582-0.55073-3.9258-0.54102h-6.4043z" enable-background="new" fill="#6dc7f1"/>
 <path d="m12.944 2.5-3.7695 14.98 3.8184 4.0195h5.4121c4.622 0 5.0957-0.47774 5.0957-5.1348v-8.7285c0-4.657-0.47373-5.1595-5.0957-5.1367z" color="#000000" fill="#e3dfd5"/>
 <path d="m5.5961 2.5c-4.622-0.0229-5.0957 0.47969-5.0957 5.1367v0.8789l8.9297 9.1934 13.371-14.254c-0.66564-0.8252-1.9444-0.96719-4.3965-0.95508h-6.4043z" color="#000000" fill="#a6d74f"/>
 <path d="m0.5082 7.1699c-2e-3 0.16288-8e-3 0.29246-8e-3 0.4668v2.2441l11.36 11.619h0.14062 2.5195z" color="#000000" fill="#f9f9f9" fill-opacity=".99608"/>
 <path d="m22.309 3.0293-18.516 18.416c0.52299 0.0349 1.1017 0.0547 1.8027 0.0547h0.83399l16.889-16.799c-0.16176-0.82044-0.46426-1.3446-1.0098-1.6719z" color="#000000" fill="#fdc92b"/>
 <path d="m1.0004 12v4.1348c0 4.4121 0.45198 4.8652 4.873 4.8652h12.252c4.4211 0 4.875-0.45314 4.875-4.8652v-4.1348z" enable-background="new" fill="#fff" opacity=".1"/>
 <rect x="8.0004" y="2" width="8" height="20" enable-background="new" fill="#fff" opacity=".1"/>
 <path d="m15.988 4.0062c-2.0611 0-3.7319 1.6708-3.7319 3.7319 0 0.40923 0.069 0.8019 0.1908 1.1703 0.012 0.0375 0.022 0.0759 0.036 0.1128 0.095 0.31453 1.4883 4.8858 3.5093 8.985 5e-4 0 1e-3 -3.7e-4 0-9.4e-4 9e-4 -3.6e-4 1e-3 -1e-3 0-2e-3 9e-4 -8.4e-4 1e-3 -2e-3 0-2e-3 9e-4 -5.6e-4 1e-3 -1e-3 0-1e-3 2.1593-4.4771 3.5319-9.0915 3.5319-9.0915h-9e-4c0.1215-0.36824 0.1883-0.76141 0.1883-1.1704 0-2.0611-1.6708-3.7319-3.7319-3.7319z" color="#000000" opacity=".05"/>
 <path d="m15.988 5.0062c-2.0611 0-3.7319 1.6708-3.7319 3.7319 0 0.40923 0.069 0.8019 0.1908 1.1703 0.012 0.0375 0.022 0.0759 0.036 0.1128 0.095 0.31453 1.4883 4.8858 3.5093 8.985 5e-4 0 1e-3 -3.7e-4 0-9.4e-4 9e-4 -3.6e-4 1e-3 -1e-3 0-2e-3 9e-4 -8.4e-4 1e-3 -2e-3 0-2e-3 9e-4 -5.6e-4 1e-3 -1e-3 0-1e-3 2.1593-4.4771 3.5319-9.0915 3.5319-9.0915h-9e-4c0.1215-0.36824 0.1883-0.76141 0.1883-1.1704 0-2.0611-1.6708-3.7319-3.7319-3.7319z" color="#000000" fill="#f22c42"/>
 <circle cx="15.959" cy="8.7816" r="1.8416" color="#000000" fill="#bc1938"/>
 <path d="m23.512 7.4916c0-4.2321-0.46371-5.025-4.9876-5.0028h-6.5241-6.5242c-4.5239-0.0222-4.9876 0.77061-4.9876 5.0028v9.0174c0 4.2311 0.46366 5.0028 4.9876 5.0028h6.5242 6.5241c4.5239 0 4.9876-0.77167 4.9876-5.0028z" color="#000000" fill="none" opacity=".4" stroke="#000" stroke-width=".97653"/>
 <path transform="rotate(90 266 -54)" d="m327.87 189c-4.4121 0-4.8868 0.45318-4.8652 4.8742v6.1258 6.1258c-0.0217 4.421 0.45311 4.8742 4.8652 4.8742h8.2696c4.4121 0 4.8652-0.45312 4.8652-4.8742v-6.1258-6.1258c0-4.4211-0.45312-4.8742-4.8652-4.8742z" clip-path="url(#clipPath971)" color="#000000" fill="none" opacity=".7" stroke="url(#linearGradient981)" stroke-width="2"/>
</svg>
