<svg width="24" height="24" version="1" xmlns="http://www.w3.org/2000/svg" xmlns:xlink="http://www.w3.org/1999/xlink">
 <defs>
  <linearGradient id="linearGradient3755" x1="332" x2="332" y1="209.5" y2="190.5" gradientTransform="translate(-320 -188)" gradientUnits="userSpaceOnUse" xlink:href="#linearGradient3797-5"/>
  <linearGradient id="linearGradient3797-5">
   <stop stop-color="#f7f7f7" offset="0"/>
   <stop stop-color="#e6e6e6" offset="1"/>
  </linearGradient>
  <linearGradient id="linearGradient1094" x1="332" x2="332" y1="209.5" y2="190.5" gradientTransform="translate(-320 -188)" gradientUnits="userSpaceOnUse" xlink:href="#linearGradient982"/>
  <linearGradient id="linearGradient982">
   <stop stop-color="#8ad600" offset="0"/>
   <stop stop-color="#70ad00" offset="1"/>
  </linearGradient>
  <linearGradient id="linearGradient1085" x1="144" x2="144" y1="68" y2="244" gradientTransform="matrix(.1 0 0 .1 -2.4996 -3.6349)" gradientUnits="userSpaceOnUse">
   <stop stop-color="#fff" offset="0"/>
   <stop stop-color="#f2f2f2" offset="1"/>
  </linearGradient>
  <linearGradient id="linearGradient1087" x1="135" x2="135" y1="248.92" y2="63.777" gradientTransform="matrix(.1 0 0 .1 -2.4996 -3.6349)" gradientUnits="userSpaceOnUse" xlink:href="#linearGradient982"/>
  <linearGradient id="linearGradient981" x1="332" x2="332" y1="191" y2="209" gradientTransform="rotate(-90 332 200)" gradientUnits="userSpaceOnUse">
   <stop stop-color="#fff" offset="0"/>
   <stop stop-color="#fff" stop-opacity=".098039" offset=".125"/>
   <stop stop-color="#fff" stop-opacity=".098039" offset=".925"/>
   <stop stop-color="#fff" stop-opacity=".49804" offset="1"/>
  </linearGradient>
  <clipPath id="clipPath971">
   <path d="m327.87 189c-4.4121 0-4.8868 0.45318-4.8652 4.8742v6.1258 6.1258c-0.0217 4.421 0.45311 4.8742 4.8652 4.8742h8.2696c4.4121 0 4.8652-0.45312 4.8652-4.8742v-6.1258-6.1258c0-4.4211-0.45312-4.8742-4.8652-4.8742z" color="#000000" fill="#46a926"/>
  </clipPath>
 </defs>
 <path d="m24 8.8656c0-1.1201-0.0241-2.0152-0.1543-2.791-0.13022-0.77577-0.38763-1.4801-0.91601-2.0098-0.52838-0.52962-1.2369-0.79079-2.0137-0.91992-0.77681-0.12912-1.6717-0.15002-2.7949-0.14453h-6.1211-6.125c-1.121-5e-3 -2.0153 0.0156-2.791 0.14453-0.77681 0.12912-1.4853 0.39029-2.0137 0.91992-0.52838 0.52964-0.78579 1.234-0.91601 2.0098s-0.1543 1.6709-0.1543 2.791v8.2695c0 1.1201 0.024 2.0126 0.1543 2.7871 0.13033 0.77446 0.38927 1.48 0.91797 2.0078 0.52869 0.5278 1.2344 0.78594 2.0098 0.91601 0.77539 0.13007 1.6706 0.1543 2.793 0.1543h6.125 6.125c1.1224 0 2.0176-0.0242 2.793-0.1543 0.77538-0.13007 1.4811-0.38821 2.0098-0.91601 0.5287-0.5278 0.78764-1.2333 0.91797-2.0078 0.13033-0.77448 0.1543-1.667 0.1543-2.7871z" color="#000000" color-rendering="auto" dominant-baseline="auto" image-rendering="auto" opacity=".1" shape-rendering="auto" solid-color="#000000" style="font-feature-settings:normal;font-variant-alternates:normal;font-variant-caps:normal;font-variant-ligatures:normal;font-variant-numeric:normal;font-variant-position:normal;isolation:auto;mix-blend-mode:normal;shape-padding:0;text-decoration-color:#000000;text-decoration-line:none;text-decoration-style:solid;text-indent:0;text-orientation:mixed;text-transform:none;white-space:normal"/>
 <path d="m23.5 7.636c0-4.657-0.47377-5.1581-5.0957-5.1353h-6.4043-6.4042c-4.622-0.0229-5.0957 0.47826-5.0957 5.1353v8.7287c0 4.657 0.47371 5.1353 5.0957 5.1353h6.4042 6.4043c4.622 0 5.0957-0.47827 5.0957-5.1353z" color="#000000" fill="url(#linearGradient3755)"/>
 <path d="m11 2.5004v19h1 6.4043c4.622 0 5.0957-0.47774 5.0957-5.1348v-8.7285c0-4.657-0.47373-5.1595-5.0957-5.1367h-6.4043z" color="#000000" fill="url(#linearGradient1094)"/>
 <path d="m11 8.1245c0.11428-9e-3 0.22853-0.0163 0.34343-0.0202 4.4258-0.14916 7.3096 3.63 7.3096 3.63s-3.3121 4.0273-6.7626 4.0273c-0.31625 0-0.61234-0.0294-0.89041-0.0785l5e-5 1.0746c0.23778 0.0302 0.48429 0.048 0.74156 0.048 3.211 0 5.5331-1.6398 7.7816-3.5807 0.37279 0.29855 1.899 1.0248 2.2128 1.3429-2.1379 1.7899-7.1205 3.2327-9.9452 3.2327-0.27228 0-0.53372-0.0164-0.79075-0.0412zm0.49177 0.92199c-0.0492 1.9e-4 -0.0986 1e-3 -0.14834 2e-3 -0.11639 4e-3 -0.23032 0.01-0.34343 0.0178v1.1638c0.20814-0.0223 0.42019-0.038 0.64195-0.038 2.0386 0 3.248 1.5861 3.248 1.5861l-1.6567 1.397c-0.74488-1.2415-0.99423-1.7888-2.2332-1.9385v3.5288c0.28081 0.0944 0.59278 0.15033 0.94077 0.15033 2.4181 0 4.6733-3.1322 4.6733-3.1322s-2.0234-2.747-5.1223-2.7375z" enable-background="new" opacity=".2" stroke-miterlimit="10" stroke-width="0"/>
 <path d="m11 8.1c-3.8929 0.31265-7.264 3.6098-7.264 3.6098s1.9094 5.5196 7.264 6.025v-1.0016c-3.9296-0.49442-5.275-4.8252-5.275-4.8252s1.7604-2.5972 5.275-2.8658zm0 2.0976c-2.3682 0.25609-3.7941 1.8358-3.7941 1.8358s0.82429 3.0873 3.7941 3.6168v-0.91738c-1.6744-0.56255-2.2186-2.5174-2.2186-2.5174s0.97107-1.1611 2.2141-1.0119c1e-3 0 2e-3 5.2e-4 5e-3 5.2e-4z" enable-background="new" opacity=".3" stroke-miterlimit="10" stroke-width="0"/>
 <path d="m11 7.1742c0.11428-9e-3 0.22853-0.0163 0.34343-0.0202 4.4258-0.14916 7.3096 3.63 7.3096 3.63s-3.3121 4.0273-6.7626 4.0273c-0.31625 0-0.61234-0.0294-0.89041-0.0785l5e-5 1.0746c0.23778 0.0302 0.48429 0.048 0.74156 0.048 3.211 0 5.5331-1.6398 7.7816-3.5807 0.37279 0.29855 1.899 1.0248 2.2128 1.3429-2.1379 1.7899-7.1205 3.2327-9.9452 3.2327-0.27228 0-0.53372-0.0164-0.79075-0.0412zm0.49177 0.92199c-0.0492 1.9e-4 -0.0986 1e-3 -0.14834 2e-3 -0.11639 4e-3 -0.23032 0.01-0.34343 0.0178v1.1638c0.20814-0.0223 0.42019-0.038 0.64195-0.038 2.0386 0 3.248 1.5861 3.248 1.5861l-1.6567 1.397c-0.74488-1.2415-0.99423-1.7888-2.2332-1.9385v3.5288c0.28081 0.0944 0.59278 0.15033 0.94077 0.15033 2.4181 0 4.6733-3.1322 4.6733-3.1322s-2.0234-2.747-5.1223-2.7375z" enable-background="new" fill="url(#linearGradient1085)" stroke-miterlimit="10" stroke-width="0"/>
 <path d="m11 7.1826c-3.8929 0.31265-7.264 3.6098-7.264 3.6098s1.9094 5.5196 7.264 6.025v-1.0016c-3.9296-0.49442-5.275-4.8252-5.275-4.8252s1.7604-2.5972 5.275-2.8658zm0 2.0976c-2.3682 0.25609-3.7941 1.8358-3.7941 1.8358s0.82429 3.0873 3.7941 3.6168v-0.91738c-1.6744-0.56255-2.2186-2.5174-2.2186-2.5174s0.97107-1.1611 2.2141-1.0119c1e-3 0 2e-3 5.2e-4 5e-3 5.2e-4z" enable-background="new" fill="url(#linearGradient1087)" stroke-miterlimit="10" stroke-width="0"/>
 <path d="m0.50039 10.784v5.5812c0 4.657 0.47367 5.1348 5.0957 5.1348h6.4043 6.4043c4.622 0 5.0957-0.47774 5.0957-5.1348v-5.5812z" color="#000000" fill="url(#linearGradient3755)" opacity=".2"/>
 <path d="m23.512 7.4916c0-4.2321-0.46371-5.025-4.9876-5.0028h-6.5241-6.5242c-4.5239-0.0222-4.9876 0.77061-4.9876 5.0028v9.0174c0 4.2311 0.46366 5.0028 4.9876 5.0028h6.5242 6.5241c4.5239 0 4.9876-0.77167 4.9876-5.0028z" color="#000000" fill="none" opacity=".4" stroke="#000" stroke-width=".97653"/>
 <path transform="rotate(90 266 -54)" d="m327.87 189c-4.4121 0-4.8868 0.45318-4.8652 4.8742v6.1258 6.1258c-0.0217 4.421 0.45311 4.8742 4.8652 4.8742h8.2696c4.4121 0 4.8652-0.45312 4.8652-4.8742v-6.1258-6.1258c0-4.4211-0.45312-4.8742-4.8652-4.8742z" clip-path="url(#clipPath971)" color="#000000" fill="none" opacity=".7" stroke="url(#linearGradient981)" stroke-width="2"/>
</svg>
