<?xml version="1.0" encoding="UTF-8" standalone="no"?>
<svg
   width="24"
   height="24"
   version="1"
   id="svg42"
   sodipodi:docname="calendar-app.svg"
   inkscape:version="1.1 (c4e8f9ed74, 2021-05-24)"
   xmlns:inkscape="http://www.inkscape.org/namespaces/inkscape"
   xmlns:sodipodi="http://sodipodi.sourceforge.net/DTD/sodipodi-0.dtd"
   xmlns:xlink="http://www.w3.org/1999/xlink"
   xmlns="http://www.w3.org/2000/svg"
   xmlns:svg="http://www.w3.org/2000/svg">
  <sodipodi:namedview
     id="namedview44"
     pagecolor="#ffffff"
     bordercolor="#666666"
     borderopacity="1.0"
     inkscape:pageshadow="2"
     inkscape:pageopacity="0.0"
     inkscape:pagecheckerboard="0"
     showgrid="false"
     inkscape:zoom="30.291667"
     inkscape:cx="11.983494"
     inkscape:cy="12"
     inkscape:window-width="1852"
     inkscape:window-height="1052"
     inkscape:window-x="68"
     inkscape:window-y="28"
     inkscape:window-maximized="1"
     inkscape:current-layer="svg42" />
  <defs
     id="defs22">
    <linearGradient
       id="linearGradient1690-3"
       x1="320"
       x2="344"
       y1="212"
       y2="212"
       gradientTransform="rotate(90 266 -54)"
       gradientUnits="userSpaceOnUse">
      <stop
         stop-color="#2b898f"
         offset="0"
         id="stop2" />
      <stop
         stop-color="#5bdbc1"
         offset="1"
         id="stop4" />
    </linearGradient>
    <linearGradient
       id="linearGradient4251-3"
       x1="16"
       x2="16"
       y1="304"
       y2="208"
       gradientTransform="matrix(.03125 0 0 .034722 .66628 3.1106)"
       gradientUnits="userSpaceOnUse"
       xlink:href="#linearGradient4245" />
    <linearGradient
       id="linearGradient4245">
      <stop
         stop-color="#d9d9d9"
         offset="0"
         id="stop8" />
      <stop
         stop-color="#ececec"
         offset="1"
         id="stop10" />
    </linearGradient>
    <linearGradient
       id="linearGradient1690-9"
       x1="321"
       x2="343"
       y1="200"
       y2="200"
       gradientTransform="rotate(90 266 -54)"
       gradientUnits="userSpaceOnUse">
      <stop
         stop-color="#fff"
         offset="0"
         id="stop13" />
      <stop
         stop-color="#fff"
         stop-opacity=".098039"
         offset=".125"
         id="stop15" />
      <stop
         stop-color="#fff"
         stop-opacity=".098039"
         offset=".925"
         id="stop17" />
      <stop
         stop-color="#fff"
         stop-opacity=".49804"
         offset="1"
         id="stop19" />
    </linearGradient>
  </defs>
  <path
     d="m6.4524 1c-1.2321 0-2.2167 0.0221-3.07 0.14144-0.85332 0.11937-1.6281 0.35533-2.2107 0.83967-0.58256 0.48436-0.86983 1.1338-1.0119 1.8459-0.14202 0.71207-0.16501 1.5324-0.15897 2.562v7.6107 4.6143c-6e-3 1.0276 0.0171 1.8474 0.15897 2.5584 0.14203 0.71208 0.42931 1.3615 1.0119 1.8459 0.58258 0.48434 1.3573 0.7203 2.2107 0.83967 0.85331 0.11936 1.8379 0.14144 3.07 0.14144h11.095c1.2321 0 2.2138-0.022 3.0657-0.14144 0.85187-0.11947 1.628-0.35683 2.2085-0.84146 0.58057-0.48464 0.86451-1.1315 1.0076-1.8423 0.14307-0.71077 0.16972-1.5314 0.16972-2.5602v-4.6143-7.6142c0-1.0288-0.0266-1.8495-0.16972-2.5602-0.14307-0.71076-0.42701-1.3576-1.0076-1.8423-0.58055-0.48464-1.3566-0.722-2.2085-0.84147-0.8519-0.11947-1.8336-0.14144-3.0657-0.14144z"
     color="#000000"
     color-rendering="auto"
     dominant-baseline="auto"
     image-rendering="auto"
     opacity=".1"
     shape-rendering="auto"
     solid-color="#000000"
     style="font-feature-settings:normal;font-variant-alternates:normal;font-variant-caps:normal;font-variant-ligatures:normal;font-variant-numeric:normal;font-variant-position:normal;isolation:auto;mix-blend-mode:normal;shape-padding:0;text-decoration-color:#000000;text-decoration-line:none;text-decoration-style:solid;text-indent:0;text-orientation:mixed;text-transform:none;white-space:normal"
     id="path24" />
  <path
     d="m6.1765 0.49897c-5.1467 0-5.7004 0.43262-5.6752 4.6531v5.8479 7.8476c-0.0253 4.2205 0.52855 4.6531 5.6752 4.6531h11.646c5.1466 0 5.6752-0.43255 5.6752-4.6531v-7.8476-5.8479c0-4.2205-0.52857-4.6531-5.6752-4.6531z"
     color="#000000"
     fill="url(#linearGradient1690-3)"
     id="path26" />
  <path
     d="m0.99961 9.9995v4h1v-4z"
     color="#000000"
     fill="url(#linearGradient4251-3)"
     id="path32" />
  <path
     d="m22 9.9995v4h1v-4z"
     color="#000000"
     fill="url(#linearGradient4251-3)"
     id="path34" />
  <path
     id="path36-7"
     d="M 9.0449219 12 C 8.9635315 12.091957 8.8820998 12.184824 8.7890625 12.285156 C 8.4486255 12.654038 7.842662 13.281014 6.9726562 14.169922 C 6.1026505 15.04938 5.5216697 15.63651 5.2285156 15.929688 L 5.2285156 17.134766 L 11.355469 17.134766 L 11.355469 15.986328 L 6.7753906 15.986328 L 9.6816406 13.064453 C 10.0341 12.705572 10.32561 12.351319 10.558594 12 L 9.0449219 12 z M 14.291016 12 L 14.291016 12.056641 C 13.80873 12.293239 13.417845 12.619067 13.115234 13.035156 C 12.822079 13.441796 12.675781 13.918312 12.675781 14.466797 C 12.675781 15.005833 12.817864 15.498925 13.101562 15.943359 C 13.385262 16.378383 13.778098 16.723209 14.279297 16.978516 C 14.780496 17.234012 15.338447 17.361328 15.953125 17.361328 C 16.558346 17.361328 17.110128 17.234012 17.611328 16.978516 C 18.112526 16.72302 18.505365 16.378382 18.789062 15.943359 C 19.082217 15.498925 19.228516 15.005833 19.228516 14.466797 C 19.228516 13.918312 19.078003 13.441796 18.775391 13.035156 C 18.482236 12.619068 18.093613 12.29305 17.611328 12.056641 L 17.611328 12 L 14.291016 12 z M 15.953125 12.611328 C 16.529977 12.611328 17.010717 12.780558 17.398438 13.121094 C 17.795613 13.452181 17.996094 13.876384 17.996094 14.396484 C 17.996094 14.935521 17.795613 15.376376 17.398438 15.716797 C 17.010717 16.047883 16.529977 16.212891 15.953125 16.212891 C 15.376274 16.212891 14.889363 16.047959 14.492188 15.716797 C 14.095012 15.376261 13.894531 14.93552 13.894531 14.396484 C 13.894531 13.876384 14.095012 13.452105 14.492188 13.121094 C 14.889363 12.780559 15.376274 12.611328 15.953125 12.611328 z "
     style="fill:#f9f9f9;fill-opacity:1" />
  <path
     d="m17.976 23.5c4.6719 0 5.5471-0.42296 5.5226-4.5492v-7.9504-5.9508c0.0245-4.1263-0.85068-4.5492-5.5226-4.5492h-11.954c-4.6707 0-5.5226 0.42291-5.5226 4.5492v5.9508 7.9504c0 4.1263 0.85185 4.5492 5.5226 4.5492z"
     color="#000000"
     fill="none"
     opacity=".4"
     stroke="#000"
     id="path38" />
  <path
     d="m6.0234 1c-2.3203 0-3.6094 0.15494-4.207 0.62109-0.29882 0.23308-0.48964 0.54668-0.625 1.0957-0.13541 0.54902-0.19141 1.3176-0.19141 2.332v5.9512 7.9508c0 1.0144 0.056 1.783 0.19141 2.332 0.13536 0.54903 0.32618 0.86263 0.625 1.0957 0.59762 0.46615 1.8868 0.62109 4.207 0.62109h11.952c2.3208 0 3.6165-0.15457 4.2168-0.62109 0.30014-0.23327 0.49095-0.54754 0.625-1.0957 0.13404-0.54816 0.18764-1.3162 0.18164-2.3301v-7.9528-5.9531c6e-3 -1.0139-0.0476-1.7819-0.18164-2.3301-0.13406-0.54817-0.32486-0.86244-0.625-1.0957-0.60028-0.46652-1.896-0.62109-4.2168-0.62109zm4.9586 1.0098c1.5798-2e-3 4.1601-3.9e-4 5.7399 0.0117 1.5002 0.0511 3.0224-0.0712 4.5 0.28321 0.55111 0.0919 0.61303 0.71807 0.67773 1.166 0.1117 4.3083 0.075 10.626 0.0508 14.941-0.0716 0.99089 0.13687 2.0761-0.30078 3.0137-0.34356 0.40964-0.9694 0.35958-1.4512 0.45509-3.9541 0.0823-9.9294 0.0499-13.894 0.0371-1.1691-0.0622-2.3729 0.11291-3.5176-0.22266-0.57935-0.098-0.6137-0.75914-0.6875-1.2207-0.1146-4.1184-0.0751-10.245-0.0547-14.369 0.0572-1.063-0.0797-2.1673 0.18164-3.2148 0.10495-0.6386 0.8614-0.66043 1.3672-0.74023 2.1305-0.19658 5.2407-0.10662 7.3883-0.14062z"
     color="#000000"
     fill="url(#linearGradient1690-9)"
     id="path40" />
  <path
     id="path10791-6"
     style="font-size:4.58611px;line-height:1.25;font-family:'Google Sans';-inkscape-font-specification:'Google Sans';stroke-width:1.06139;fill:#ececec;fill-opacity:1"
     d="M 8.2081825,7.2050811 C 7.640787,7.2050811 7.1477093,7.3239514 6.73162,7.5605499 6.3155306,7.7873215 5.9853044,8.0655142 5.7394325,8.3964874 5.4935629,8.7181252 5.3242326,9.0313984 5.2296669,9.3339874 L 6.3351356,9.7734405 C 6.4297032,9.4234562 6.628226,9.1017369 6.9308388,8.8085968 7.2429068,8.5058567 7.6545592,8.3535186 8.1652138,8.3535186 c 0.3877202,0 0.7198996,0.08118 0.9941406,0.2421875 0.2836946,0.1511811 0.4948696,0.3560211 0.6367186,0.6113281 0.151306,0.2460472 0.226563,0.5092397 0.226563,0.7929688 -1e-6,0.416088 -0.08564,0.771313 -0.25586,1.064453 -0.143901,0.247948 -0.4046747,0.581904 -0.7714841,0.992188 h 1.5273441 c 0.479845,-0.705101 0.720703,-1.395842 0.720703,-2.0703129 0,-0.4917543 -0.127483,-0.9514161 -0.382812,-1.3769531 C 10.605198,8.1838032 10.245774,7.8432384 9.782401,7.5878936 9.3284843,7.3323975 8.8039471,7.2050811 8.2081825,7.2050811 Z m 7.7441415,0.00195 c -0.567395,0 -1.077333,0.1169172 -1.53125,0.3535157 -0.444459,0.2362204 -0.7935,0.5624274 -1.048828,0.9785156 -0.24587,0.4160882 -0.369141,0.879973 -0.369141,1.390625 0,0.4066396 0.117099,0.7994786 0.353516,1.1777346 0.245873,0.368881 0.557283,0.665617 0.935547,0.892578 v 0.05664 H 17.61248 V 12 c 0.368806,-0.22715 0.671788,-0.523734 0.908203,-0.892578 0.245869,-0.378256 0.369141,-0.771095 0.369141,-1.1777346 0,-0.510652 -0.129437,-0.9745368 -0.384766,-1.390625 C 18.259188,8.1229747 17.910146,7.7969593 17.45623,7.5605499 17.011771,7.3239514 16.510263,7.2070342 15.952324,7.2070342 Z m 0,1.1464844 c 0.491742,0 0.899179,0.1441942 1.220703,0.4277344 0.330981,0.2743937 0.496094,0.6482371 0.496094,1.1210938 0,0.4728193 -0.160896,0.8552973 -0.482422,1.1484373 -0.321524,0.293291 -0.733176,0.439453 -1.234375,0.439453 -0.501199,0 -0.917067,-0.146162 -1.248047,-0.439453 -0.321525,-0.293292 -0.482422,-0.675617 -0.482422,-1.1484373 0,-0.4728568 0.160896,-0.8468513 0.482422,-1.1210938 0.33098,-0.2838426 0.746848,-0.4277344 1.248047,-0.4277344 z" />
  <path
     d="m0.49972 12v6.8478c0 4.2205 0.52913 4.6523 5.6758 4.6523h11.646c5.1467 0 5.6991-0.43188 5.6738-4.6523v-6.8478z"
     enable-background="new"
     fill="#fff"
     opacity=".08"
     id="path36" />
</svg>
