<svg width="24" height="24" version="1" xmlns="http://www.w3.org/2000/svg" xmlns:xlink="http://www.w3.org/1999/xlink">
 <defs>
  <linearGradient id="linearGradient1205" x1="77" x2="227" y1="156" y2="156" gradientTransform="matrix(0 -.15333 -.15333 0 35.92 35.307)" gradientUnits="userSpaceOnUse">
   <stop stop-color="#e6e6e6" offset="0"/>
   <stop stop-color="#f2f2f2" offset="1"/>
  </linearGradient>
  <linearGradient id="linearGradient8590-3-3" x1="96" x2="96" y1="4" y2="188" gradientTransform="matrix(.11957 0 0 .11957 .52176 .52174)" gradientUnits="userSpaceOnUse">
   <stop stop-color="#fff" offset="0"/>
   <stop stop-color="#fff" stop-opacity=".098039" offset=".125"/>
   <stop stop-color="#fff" stop-opacity=".098039" offset=".925"/>
   <stop stop-color="#fff" stop-opacity=".49804" offset="1"/>
  </linearGradient>
 </defs>
 <ellipse transform="scale(-1)" cx="-12" cy="-12.523" rx="12" ry="11.477" enable-background="new" opacity=".1"/>
 <g transform="matrix(.15333 0 0 .15333 -11.307 -11.92)" enable-background="new" stroke-width="6.5218">
  <g stroke-width="6.5218">
   <path d="m153.36 230.99a75 75 0 0 1-74.784-59.692 75 75 0 0 1 44.728-84.589 75 75 0 0 1 91.436 28.2l-62.74 41.093z" fill="#f76363"/>
   <path d="m209.45 107.79a75 75 0 0 1 5.5636 88.877l-63.017-40.668z" fill="#5884f4"/>
   <path d="m195.04 217.42a75 75 0 0 1-62.45 11.023l19.411-72.444z" fill="#76c22b"/>
   <path d="m219.97 187.7a75 75 0 0 1-30.473 33.256l-37.5-64.952z" fill="#fdc92b"/>
  </g>
 </g>
 <path d="m12 0.5c-6.3513 0-11.5 5.1487-11.5 11.5s5.1487 11.5 11.5 11.5c6.3513 0 11.5-5.1487 11.5-11.5s-5.1487-11.5-11.5-11.5z" enable-background="new" fill="url(#linearGradient1205)" opacity=".2"/>
 <ellipse cx="12" cy="11.977" rx="11.455" ry="11.477" enable-background="new" fill="none" opacity=".4" stroke="#000" stroke-dashoffset="6.6" stroke-linejoin="round"/>
 <path d="m12 1c-6.0751 0-11 4.9249-11 11 0 6.0751 4.9249 11 11 11s11-4.9249 11-11c0-6.0751-4.9249-11-11-11zm0 1a10 10 0 0 1 10 10 10 10 0 0 1-10 10 10 10 0 0 1-10-10 10 10 0 0 1 10-10z" enable-background="new" fill="url(#linearGradient8590-3-3)"/>
</svg>
