<svg width="24" height="24" version="1" xmlns="http://www.w3.org/2000/svg" xmlns:xlink="http://www.w3.org/1999/xlink">
 <defs>
  <linearGradient id="linearGradient1690-3" x1="320" x2="344" y1="204" y2="196" gradientTransform="rotate(90 266 -54)" gradientUnits="userSpaceOnUse">
   <stop stop-color="#4d4d4d" offset="0"/>
   <stop stop-color="#4d4d4d" offset="1"/>
  </linearGradient>
  <linearGradient id="linearGradient1686-7-5-6" x1="320" x2="368" y1="92" y2="76" gradientTransform="matrix(0 .51111 -.51111 0 54.933 -163.82)" gradientUnits="userSpaceOnUse">
   <stop stop-color="#46a926" offset="0"/>
   <stop stop-color="#a6d74f" offset="1"/>
  </linearGradient>
  <linearGradient id="linearGradient1690-9" x1="321" x2="343" y1="200" y2="200" gradientTransform="rotate(90 266 -54)" gradientUnits="userSpaceOnUse">
   <stop stop-color="#fff" offset="0"/>
   <stop stop-color="#fff" stop-opacity=".098039" offset=".125"/>
   <stop stop-color="#fff" stop-opacity=".098039" offset=".925"/>
   <stop stop-color="#fff" stop-opacity=".49804" offset="1"/>
  </linearGradient>
 </defs>
 <path d="m6.4528 1.0005c-1.2321 0-2.2167 0.0221-3.07 0.14144-0.85332 0.11937-1.6281 0.35533-2.2107 0.83967-0.58256 0.48436-0.86983 1.1338-1.0119 1.8459-0.14202 0.71207-0.16501 1.5324-0.15897 2.562v7.6107 4.6143c-6e-3 1.0276 0.0171 1.8474 0.15897 2.5584 0.14203 0.71208 0.42931 1.3615 1.0119 1.8459 0.58258 0.48434 1.3573 0.7203 2.2107 0.83967 0.85331 0.11936 1.8379 0.14144 3.07 0.14144h11.095c1.2321 0 2.2138-0.022 3.0657-0.14144 0.85187-0.11947 1.628-0.35683 2.2085-0.84146 0.58057-0.48464 0.86451-1.1315 1.0076-1.8423 0.14307-0.71077 0.16972-1.5314 0.16972-2.5602v-4.6143-7.6142c0-1.0288-0.0266-1.8495-0.16972-2.5602-0.14307-0.71076-0.42701-1.3576-1.0076-1.8423-0.58055-0.48464-1.3566-0.722-2.2085-0.84147-0.8519-0.11947-1.8336-0.14144-3.0657-0.14144z" color="#000000" color-rendering="auto" dominant-baseline="auto" image-rendering="auto" opacity=".1" shape-rendering="auto" solid-color="#000000" style="font-feature-settings:normal;font-variant-alternates:normal;font-variant-caps:normal;font-variant-ligatures:normal;font-variant-numeric:normal;font-variant-position:normal;isolation:auto;mix-blend-mode:normal;shape-padding:0;text-decoration-color:#000000;text-decoration-line:none;text-decoration-style:solid;text-indent:0;text-orientation:mixed;text-transform:none;white-space:normal"/>
 <path d="m6.1769 0.49945c-5.1467 0-5.7004 0.43262-5.6752 4.6531v5.8479 7.8476c-0.0253 4.2205 0.52855 4.6531 5.6752 4.6531h11.646c5.1466 0 5.6752-0.43255 5.6752-4.6531v-7.8476-5.8479c0-4.2205-0.52857-4.6531-5.6752-4.6531z" color="#000000" fill="url(#linearGradient1690-3)"/>
 <path d="m12 0.5v0.0547 2.916 1.7109c-0.31492-0.19003-0.694-0.3014-1.0879-0.31836h-2e-3c-1.0937-0.0442-2.0248 0.62898-2.0801 1.5039-0.056 0.87494 0.78522 1.6213 1.8789 1.666 0.46308 0.0186 0.92032-0.0936 1.291-0.3164v4.2832h11.445l0.0527-0.19727v-0.80273-5.8477c0-4.2205-0.52913-4.6523-5.6758-4.6523zm0 11.5h-4.2832c0.22279 0.3707 0.335 0.82599 0.3164 1.2891v2e-3c-0.0454 1.0931-0.79153 1.9349-1.666 1.8789-0.87493-0.0553-1.5482-0.98642-1.5039-2.0801 0.0167-0.39443 0.1281-0.77448 0.31836-1.0898h-4.6797v6.8477c-0.0253 4.2205 0.52912 4.6543 5.6758 4.6543h5.8145l0.0078-2e-3v-0.0547-4.625c0.3707 0.22279 0.82795 0.33501 1.291 0.31641 1.0937-0.0447 1.9349-0.79109 1.8789-1.666-0.0553-0.87493-0.98642-1.5481-2.0801-1.5039h-2e-3c-0.39388 0.017-0.77298 0.12832-1.0879 0.31836z" color="#000000" fill="#fff" opacity=".1"/>
 <path d="m17.582 8.8281c-0.0372-9.6e-4 -0.0742-3.4e-4 -0.11133 2e-3 -0.87493 0.0553-1.5481 0.98642-1.5039 2.0801 0.0167 0.39441 0.1281 0.7745 0.31836 1.0898h-4.2852v4.2852c0.31492-0.19003 0.694-0.3014 1.0879-0.31836h2e-3c1.0937-0.0442 2.0248 0.62897 2.0801 1.5039 0.056 0.87494-0.78522 1.6213-1.8789 1.666-0.46308 0.0186-0.92031-0.0936-1.291-0.31641v4.6796l8e-3 2e-3h5.8145c5.1466 0 5.6758-0.43377 5.6758-4.6543v-6.8477h-0.0527-4.625c0.22279-0.3707 0.33501-0.82795 0.31641-1.291v-2e-3c-0.0434-1.0388-0.72072-1.859-1.5527-1.8789z" color="#000000" fill="url(#linearGradient1686-7-5-6)"/>
 <path d="m17.977 23.5c4.6719 0 5.5471-0.42296 5.5226-4.5492v-7.9504-5.9508c0.0245-4.1263-0.85068-4.5492-5.5226-4.5492h-11.954c-4.6707 0-5.5226 0.42291-5.5226 4.5492v5.9508 7.9504c0 4.1263 0.85185 4.5492 5.5226 4.5492z" color="#000000" fill="none" opacity=".4" stroke="#000"/>
 <path d="m6.0238 1.0005c-2.3203 0-3.6094 0.15494-4.207 0.62109-0.29882 0.23308-0.48964 0.54668-0.625 1.0957-0.13541 0.54902-0.19141 1.3176-0.19141 2.332v5.9512 7.9508c0 1.0144 0.056 1.783 0.19141 2.332 0.13536 0.54903 0.32618 0.86263 0.625 1.0957 0.59762 0.46615 1.8868 0.62109 4.207 0.62109h11.952c2.3208 0 3.6165-0.15457 4.2168-0.62109 0.30014-0.23327 0.49095-0.54754 0.625-1.0957 0.13404-0.54816 0.18764-1.3162 0.18164-2.3301v-7.9528-5.9531c6e-3 -1.0139-0.0476-1.7819-0.18164-2.3301-0.13406-0.54817-0.32486-0.86244-0.625-1.0957-0.60028-0.46652-1.896-0.62109-4.2168-0.62109zm4.9586 1.0098c1.5798-2e-3 4.1601-3.9e-4 5.7399 0.0117 1.5002 0.0511 3.0224-0.0712 4.5 0.28321 0.55111 0.0919 0.61303 0.71807 0.67773 1.166 0.1117 4.3083 0.075 10.626 0.0508 14.941-0.0716 0.99089 0.13687 2.0761-0.30078 3.0137-0.34356 0.40964-0.9694 0.35958-1.4512 0.45509-3.9541 0.0823-9.9294 0.0499-13.894 0.0371-1.1691-0.0622-2.3729 0.11291-3.5176-0.22266-0.57935-0.098-0.6137-0.75914-0.6875-1.2207-0.1146-4.1184-0.0751-10.245-0.0547-14.369 0.0572-1.063-0.0797-2.1673 0.18164-3.2148 0.10495-0.6386 0.8614-0.66043 1.3672-0.74023 2.1305-0.19658 5.2407-0.10662 7.3883-0.14062z" color="#000000" fill="url(#linearGradient1690-9)"/>
</svg>
