<svg width="24" height="24" version="1" xmlns="http://www.w3.org/2000/svg" xmlns:xlink="http://www.w3.org/1999/xlink">
 <defs>
  <linearGradient id="linearGradient1690" x1="321" x2="343" y1="203" y2="197" gradientTransform="rotate(90 266 -54)" gradientUnits="userSpaceOnUse">
   <stop stop-color="#37a6e6" offset="0"/>
   <stop stop-color="#6dc7f1" offset="1"/>
  </linearGradient>
  <filter id="filter974" x="-.05" y="-.04" width="1.102" height="1.091" color-interpolation-filters="sRGB">
   <feGaussianBlur stdDeviation=".72"/>
  </filter>
  <linearGradient id="linearGradient1690-9" x1="321" x2="343" y1="200" y2="200" gradientTransform="rotate(90 266 -54)" gradientUnits="userSpaceOnUse">
   <stop stop-color="#fff" offset="0"/>
   <stop stop-color="#fff" stop-opacity=".098039" offset=".125"/>
   <stop stop-color="#fff" stop-opacity=".098039" offset=".925"/>
   <stop stop-color="#fff" stop-opacity=".49804" offset="1"/>
  </linearGradient>
 </defs>
 <path d="m6.4527 1.0005c-1.2321 0-2.2167 0.0221-3.07 0.14144-0.85332 0.11937-1.6281 0.35533-2.2107 0.83967-0.58256 0.48436-0.86983 1.1338-1.0119 1.8459-0.14202 0.71207-0.16501 1.5324-0.15897 2.562v7.6107 4.6143c-6e-3 1.0276 0.0171 1.8474 0.15897 2.5584 0.14203 0.71208 0.42931 1.3615 1.0119 1.8459 0.58258 0.48434 1.3573 0.7203 2.2107 0.83967 0.85331 0.11936 1.8379 0.14144 3.07 0.14144h11.095c1.2321 0 2.2138-0.022 3.0657-0.14144 0.85187-0.11947 1.628-0.35683 2.2085-0.84146 0.58057-0.48464 0.86451-1.1315 1.0076-1.8423 0.14307-0.71077 0.16972-1.5314 0.16972-2.5602v-4.6143-7.6142c0-1.0288-0.0266-1.8495-0.16972-2.5602-0.14307-0.71076-0.42701-1.3576-1.0076-1.8423-0.58055-0.48464-1.3566-0.722-2.2085-0.84147-0.8519-0.11947-1.8336-0.14144-3.0657-0.14144z" color="#000000" color-rendering="auto" dominant-baseline="auto" image-rendering="auto" opacity=".1" shape-rendering="auto" solid-color="#000000" style="font-feature-settings:normal;font-variant-alternates:normal;font-variant-caps:normal;font-variant-ligatures:normal;font-variant-numeric:normal;font-variant-position:normal;isolation:auto;mix-blend-mode:normal;shape-padding:0;text-decoration-color:#000000;text-decoration-line:none;text-decoration-style:solid;text-indent:0;text-orientation:mixed;text-transform:none;white-space:normal"/>
 <path d="m6.1769 0.49945c-5.1467 0-5.7004 0.43262-5.6752 4.6531v5.8479 7.8476c-0.0253 4.2205 0.52855 4.6531 5.6752 4.6531h11.646c5.1466 0 5.6752-0.43255 5.6752-4.6531v-7.8476-5.8479c0-4.2205-0.52857-4.6531-5.6752-4.6531z" color="#000000" fill="url(#linearGradient1690)"/>
 <g transform="matrix(.41077 0 0 .41077 -.50667 -1.6654)" enable-background="new" stroke-width="9.7391">
  <path d="m30.413 15.277c-2.3504 0-4.2507 1.8881-4.25 4.2188-5.49e-4 1.8111 1.6342 3.307 3.25 3.9062 2e-3 0.29164-2e-3 0.58336 0 0.875h-7.5313c-0.26107 0-0.46875 0.20768-0.46875 0.46875v1.0625c0 0.26107 0.20768 0.46875 0.46875 0.46875h7.5313c0.0345 6.8119 0.0425 13.625 0 20.438 0.0107 0.16805-0.55059 0.33823-0.6875 0.4375-0.38758 0.28766-0.83623 0.39284-1.3125 0.40625-0.75734-0.0046-1.2441-0.20708-1.9688-0.40625-1.6364-0.47538-3.1878-1.142-4.6875-1.9375-0.6314-0.34777-1.2507-0.67378-1.8125-1.125-0.24214-0.20523-0.52574-0.50457-0.5-0.84375 0.03271-0.25676 0.15285-0.51553 0.4375-0.5625 0.25655-0.04037 0.49189 0.07118 0.71875 0.15625 0.19557 0.08379 0.34378-0.11976 0.3125-0.28125-0.03148-0.42544-0.18439-0.81924-0.40625-1.1875-0.46158-0.75428-1.169-1.3301-1.9062-1.8125-0.78716-0.4994-1.6263-1.045-2.125-1.8438-0.0992-0.14762-0.21524-0.39098-0.4375-0.3125-0.30897 0.09957-0.47367 0.39692-0.625 0.65625-0.42579 0.80499-0.65178 1.6794-0.84375 2.5625-0.15781 0.70262-0.18012 1.4403-0.125 2.1562 0.05707 0.71633 0.11423 1.4248 0.40625 2.0938 0.1839 0.4396 0.52134 0.81225 0.84375 1.1562 0.20573-0.2161 0.38328-0.44458 0.59375-0.65625 0.27274-0.27202 0.63207-0.45905 1.0312-0.40625 0.5433 0.06947 1.0418 0.40609 1.4688 0.71875 0.6014 0.4646 1.1685 0.95515 1.7812 1.4062 0.9696 0.73614 2.0264 1.2586 3.125 1.7812 0.91532 0.42228 1.8626 0.84407 2.8125 1.1875 0.1701 0.07381 0.35807 0.06351 0.53125 0.125 1.7095 0.70633 3.1604 1.5267 4.3438 3 2e-3 0.02022-2e-3 0.07448 0 0.09375 0.0136-0.01747 0.0176-0.01397 0.0312-0.03125 0.0136 0.01728 0.0177 0.01378 0.0312 0.03125 9e-3 -0.04069-9e-3 -0.08414 0-0.125 1.1796-1.4562 2.6446-2.2667 4.3438-2.9688 0.17318-0.06149 0.36114-0.05119 0.53125-0.125 0.94986-0.34343 1.8972-0.76522 2.8125-1.1875 1.0986-0.5227 2.1554-1.0451 3.125-1.7812 0.61275-0.4511 1.1798-0.94164 1.7812-1.4062 0.42695-0.31266 0.92545-0.64928 1.4688-0.71875 0.39917-0.0528 0.7585 0.13423 1.0312 0.40625 0.21047 0.21167 0.38802 0.44016 0.59375 0.65625 0.32241-0.344 0.65984-0.71665 0.84375-1.1562 0.29202-0.66895 0.34918-1.3774 0.40625-2.0938 0.0551-0.71592 0.0328-1.4536-0.125-2.1562-0.19197-0.88307-0.41796-1.7575-0.84375-2.5625-0.15134-0.25933-0.31603-0.55668-0.625-0.65625-0.22226-0.07848-0.3383 0.16488-0.4375 0.3125-0.4987 0.79874-1.3378 1.3443-2.125 1.8438-0.73727 0.48241-1.4447 1.0582-1.9062 1.8125-0.22186 0.36826-0.37478 0.76206-0.40625 1.1875-0.0313 0.16149 0.11693 0.36504 0.3125 0.28125 0.22686-0.08507 0.46219-0.19662 0.71875-0.15625 0.28465 0.04697 0.40479 0.30574 0.4375 0.5625 0.0257 0.33918-0.25786 0.63852-0.5 0.84375-0.5618 0.45123-1.1811 0.77723-1.8125 1.125-1.4997 0.79548-3.0511 1.4621-4.6875 1.9375-0.72461 0.19918-1.2114 0.4016-1.9688 0.40625-0.47627-0.0134-0.92492-0.11859-1.3125-0.40625-0.13692-0.09927-0.69818-0.26945-0.6875-0.4375v-20.438h7.5312c0.26106 0 0.46875-0.20768 0.46875-0.46875v-1.0625c0-0.26107-0.20768-0.46875-0.46875-0.46875h-7.5312v-0.875c1.6158-0.59925 3.2506-2.0952 3.25-3.9062 7e-4 -2.3306-1.8996-4.2188-4.25-4.2188zm-0.0937 2.0625c1.141 1e-6 2.0941 0.89988 2.0938 2.0312 3.4e-4 1.1314-0.95278 2.0625-2.0938 2.0625-1.141-1e-6 -2.0628-0.93112-2.0625-2.0625-3.5e-4 -1.1314 0.92152-2.0312 2.0625-2.0312z" fill="#181818" filter="url(#filter974)" opacity=".3"/>
  <path d="m30.413 15.277c-2.3504 0-4.2507 1.8881-4.25 4.2188-5.49e-4 1.8111 1.6342 3.307 3.25 3.9062 2e-3 0.29164-2e-3 0.58336 0 0.875h-7.5313c-0.26107 0-0.46875 0.20768-0.46875 0.46875v1.0625c0 0.26107 0.20768 0.46875 0.46875 0.46875h7.5313c0.0345 6.8119 0.0425 13.625 0 20.438 0.0107 0.16805-0.55059 0.33823-0.6875 0.4375-0.38758 0.28766-0.83623 0.39284-1.3125 0.40625-0.75734-0.0046-1.2441-0.20708-1.9688-0.40625-1.6364-0.47538-3.1878-1.142-4.6875-1.9375-0.6314-0.34777-1.2507-0.67378-1.8125-1.125-0.24214-0.20523-0.52574-0.50457-0.5-0.84375 0.03271-0.25676 0.15285-0.51553 0.4375-0.5625 0.25655-0.04037 0.49189 0.07118 0.71875 0.15625 0.19557 0.08379 0.34378-0.11976 0.3125-0.28125-0.03148-0.42544-0.18439-0.81924-0.40625-1.1875-0.46158-0.75428-1.169-1.3301-1.9062-1.8125-0.78716-0.4994-1.6263-1.045-2.125-1.8438-0.0992-0.14762-0.21524-0.39098-0.4375-0.3125-0.30897 0.09957-0.47367 0.39692-0.625 0.65625-0.42579 0.80499-0.65178 1.6794-0.84375 2.5625-0.15781 0.70262-0.18012 1.4403-0.125 2.1562 0.05707 0.71633 0.11423 1.4248 0.40625 2.0938 0.1839 0.4396 0.52134 0.81225 0.84375 1.1562 0.20573-0.2161 0.38328-0.44458 0.59375-0.65625 0.27274-0.27202 0.63207-0.45905 1.0312-0.40625 0.5433 0.06947 1.0418 0.40609 1.4688 0.71875 0.6014 0.4646 1.1685 0.95515 1.7812 1.4062 0.9696 0.73614 2.0264 1.2586 3.125 1.7812 0.91532 0.42228 1.8626 0.84407 2.8125 1.1875 0.1701 0.07381 0.35807 0.06351 0.53125 0.125 1.7095 0.70633 3.1604 1.5267 4.3438 3 2e-3 0.02022-2e-3 0.07448 0 0.09375 0.0136-0.01747 0.0176-0.01397 0.0312-0.03125 0.0136 0.01728 0.0177 0.01378 0.0312 0.03125 9e-3 -0.04069-9e-3 -0.08414 0-0.125 1.1796-1.4562 2.6446-2.2667 4.3438-2.9688 0.17318-0.06149 0.36114-0.05119 0.53125-0.125 0.94986-0.34343 1.8972-0.76522 2.8125-1.1875 1.0986-0.5227 2.1554-1.0451 3.125-1.7812 0.61275-0.4511 1.1798-0.94164 1.7812-1.4062 0.42695-0.31266 0.92545-0.64928 1.4688-0.71875 0.39917-0.0528 0.7585 0.13423 1.0312 0.40625 0.21047 0.21167 0.38802 0.44016 0.59375 0.65625 0.32241-0.344 0.65984-0.71665 0.84375-1.1562 0.29202-0.66895 0.34918-1.3774 0.40625-2.0938 0.0551-0.71592 0.0328-1.4536-0.125-2.1562-0.19197-0.88307-0.41796-1.7575-0.84375-2.5625-0.15134-0.25933-0.31603-0.55668-0.625-0.65625-0.22226-0.07848-0.3383 0.16488-0.4375 0.3125-0.4987 0.79874-1.3378 1.3443-2.125 1.8438-0.73727 0.48241-1.4447 1.0582-1.9062 1.8125-0.22186 0.36826-0.37478 0.76206-0.40625 1.1875-0.0313 0.16149 0.11693 0.36504 0.3125 0.28125 0.22686-0.08507 0.46219-0.19662 0.71875-0.15625 0.28465 0.04697 0.40479 0.30574 0.4375 0.5625 0.0257 0.33918-0.25786 0.63852-0.5 0.84375-0.5618 0.45123-1.1811 0.77723-1.8125 1.125-1.4997 0.79548-3.0511 1.4621-4.6875 1.9375-0.72461 0.19918-1.2114 0.4016-1.9688 0.40625-0.47627-0.0134-0.92492-0.11859-1.3125-0.40625-0.13692-0.09927-0.69818-0.26945-0.6875-0.4375v-20.438h7.5312c0.26106 0 0.46875-0.20768 0.46875-0.46875v-1.0625c0-0.26107-0.20768-0.46875-0.46875-0.46875h-7.5312v-0.875c1.6158-0.59925 3.2506-2.0952 3.25-3.9062 7e-4 -2.3306-1.8996-4.2188-4.25-4.2188zm-0.0937 2.0625c1.141 1e-6 2.0941 0.89988 2.0938 2.0312 3.4e-4 1.1314-0.95278 2.0625-2.0938 2.0625-1.141-1e-6 -2.0628-0.93112-2.0625-2.0625-3.5e-4 -1.1314 0.92152-2.0312 2.0625-2.0312z" fill="#2f739b"/>
 </g>
 <path d="m17.977 23.5c4.6719 0 5.5471-0.42296 5.5226-4.5492v-7.9504-5.9508c0.0245-4.1263-0.85068-4.5492-5.5226-4.5492h-11.954c-4.6707 0-5.5226 0.42291-5.5226 4.5492v5.9508 7.9504c0 4.1263 0.85185 4.5492 5.5226 4.5492z" color="#000000" fill="none" opacity=".4" stroke="#000"/>
 <path d="m6.0238 1.0005c-2.3203 0-3.6094 0.15494-4.207 0.62109-0.29882 0.23308-0.48964 0.54668-0.625 1.0957-0.13541 0.54902-0.19141 1.3176-0.19141 2.332v5.9512 7.9508c0 1.0144 0.056 1.783 0.19141 2.332 0.13536 0.54903 0.32618 0.86263 0.625 1.0957 0.59762 0.46615 1.8868 0.62109 4.207 0.62109h11.952c2.3208 0 3.6165-0.15457 4.2168-0.62109 0.30014-0.23327 0.49095-0.54754 0.625-1.0957 0.13404-0.54816 0.18764-1.3162 0.18164-2.3301v-7.9528-5.9531c6e-3 -1.0139-0.0476-1.7819-0.18164-2.3301-0.13406-0.54817-0.32486-0.86244-0.625-1.0957-0.60028-0.46652-1.896-0.62109-4.2168-0.62109zm4.9586 1.0098c1.5798-2e-3 4.1601-3.9e-4 5.7399 0.0117 1.5002 0.0511 3.0224-0.0712 4.5 0.28321 0.55111 0.0919 0.61303 0.71807 0.67773 1.166 0.1117 4.3083 0.075 10.626 0.0508 14.941-0.0716 0.99089 0.13687 2.0761-0.30078 3.0137-0.34356 0.40964-0.9694 0.35958-1.4512 0.45509-3.9541 0.0823-9.9294 0.0499-13.894 0.0371-1.1691-0.0622-2.3729 0.11291-3.5176-0.22266-0.57935-0.098-0.6137-0.75914-0.6875-1.2207-0.1146-4.1184-0.0751-10.245-0.0547-14.369 0.0572-1.063-0.0797-2.1673 0.18164-3.2148 0.10495-0.6386 0.8614-0.66043 1.3672-0.74023 2.1305-0.19658 5.2407-0.10662 7.3883-0.14062z" color="#000000" fill="url(#linearGradient1690-9)"/>
</svg>
