<svg width="24" height="24" version="1" xmlns="http://www.w3.org/2000/svg" xmlns:xlink="http://www.w3.org/1999/xlink">
 <defs>
  <linearGradient id="linearGradient916" x1="441.38" x2="52.966" y1="240.3" y2="386.31" gradientTransform="matrix(0 -.059215 .059783 0 -6.7301 26.636)" gradientUnits="userSpaceOnUse">
   <stop stop-color="#8c59d9" offset="0"/>
   <stop stop-color="#a7a7f1" offset="1"/>
  </linearGradient>
  <linearGradient id="linearGradient981" x1="332" x2="332" y1="189" y2="211" gradientUnits="userSpaceOnUse">
   <stop stop-color="#fff" offset="0"/>
   <stop stop-color="#fff" stop-opacity=".098039" offset=".125"/>
   <stop stop-color="#fff" stop-opacity=".098039" offset=".925"/>
   <stop stop-color="#fff" stop-opacity=".49804" offset="1"/>
  </linearGradient>
  <clipPath id="clipPath971">
   <path d="m327.87 189c-4.4121 0-4.8868 0.45318-4.8652 4.8742v6.1258 6.1258c-0.0217 4.421 0.45311 4.8742 4.8652 4.8742h8.2696c4.4121 0 4.8652-0.45312 4.8652-4.8742v-6.1258-6.1258c0-4.4211-0.45312-4.8742-4.8652-4.8742z" color="#000000" fill="#46a926"/>
  </clipPath>
  <linearGradient id="linearGradient1136" x1="262.94" x2="274.94" y1="551.45" y2="551.45" gradientTransform="matrix(1.1063 0 0 1.1063 34.47 -410.04)" gradientUnits="userSpaceOnUse" xlink:href="#linearGradient4289"/>
  <linearGradient id="linearGradient4289">
   <stop stop-color="#fdfdfb" offset="0"/>
   <stop stop-color="#f0e9df" offset="1"/>
  </linearGradient>
  <linearGradient id="linearGradient1138" x1="154.03" x2="186.61" y1="226.23" y2="226.23" gradientTransform="matrix(.095879 0 0 .095879 317.43 184.97)" gradientUnits="userSpaceOnUse" xlink:href="#linearGradient4289"/>
 </defs>
 <path d="m7.8652 1c-1.1201 0-2.0152 0.0241-2.791 0.1543-0.77577 0.13022-1.4801 0.38763-2.0098 0.91601-0.52962 0.52838-0.79079 1.2369-0.91992 2.0137-0.12912 0.77681-0.15002 1.6717-0.14453 2.7949v6.1211 6.125c-5e-3 1.121 0.0156 2.0153 0.14453 2.791 0.12912 0.77681 0.39029 1.4853 0.91992 2.0137 0.52964 0.52838 1.234 0.78579 2.0098 0.91601s1.6709 0.1543 2.791 0.1543h8.2695c1.1201 0 2.0126-0.024 2.7871-0.1543 0.77446-0.13033 1.48-0.38927 2.0078-0.91797 0.5278-0.52869 0.78594-1.2344 0.91601-2.0098 0.13007-0.77539 0.1543-1.6706 0.1543-2.793v-6.125-6.125c0-1.1224-0.0242-2.0176-0.1543-2.793-0.13007-0.77538-0.38821-1.4811-0.91601-2.0098-0.5278-0.5287-1.2333-0.78764-2.0078-0.91797-0.77448-0.13033-1.667-0.1543-2.7871-0.1543z" color="#000000" color-rendering="auto" dominant-baseline="auto" image-rendering="auto" opacity=".1" shape-rendering="auto" solid-color="#000000" style="font-feature-settings:normal;font-variant-alternates:normal;font-variant-caps:normal;font-variant-ligatures:normal;font-variant-numeric:normal;font-variant-position:normal;isolation:auto;mix-blend-mode:normal;shape-padding:0;text-decoration-color:#000000;text-decoration-line:none;text-decoration-style:solid;text-indent:0;text-orientation:mixed;text-transform:none;white-space:normal"/>
 <path d="m7.636 0.49999c-4.657 0-5.1581 0.47378-5.1353 5.0958v6.4042 6.4043c-0.0229 4.622 0.47827 5.0957 5.1353 5.0957h8.7287c4.657 0 5.1353-0.47372 5.1353-5.0957v-6.4043-6.4042c0-4.622-0.47828-5.0958-5.1353-5.0958z" color="#000000" fill="url(#linearGradient916)"/>
 <path transform="translate(-320,-188)" d="m327.87 189c-4.4121 0-4.8868 0.45318-4.8652 4.8742v6.1258 6.1258c-0.0217 4.421 0.45311 4.8742 4.8652 4.8742h8.2696c4.4121 0 4.8652-0.45312 4.8652-4.8742v-6.1258-6.1258c0-4.4211-0.45312-4.8742-4.8652-4.8742z" clip-path="url(#clipPath971)" color="#000000" fill="none" opacity=".7" stroke="url(#linearGradient981)" stroke-width="2"/>
 <path d="m16.508 23.512c4.2321 0 5.025-0.46371 5.0028-4.9876v-6.5241-6.5242c0.0222-4.5239-0.77061-4.9876-5.0028-4.9876h-9.0174c-4.2311 0-5.0028 0.46366-5.0028 4.9876v6.5242 6.5241c0 4.5239 0.77167 4.9876 5.0028 4.9876z" color="#000000" fill="none" opacity=".4" stroke="#000" stroke-width=".97653"/>
 <path d="m2.4999 12v6.4043c-8e-3 1.5759 0.0506 2.6609 0.30859 3.418 1.1692 0.53766 2.9068 0.67773 5.4766 0.67773h7.4297c2.5589 0 4.2939-0.13791 5.4629-0.66992 0.26013-0.75735 0.32227-1.8445 0.32227-3.4258v-6.4043z" enable-background="new" fill="#fff" opacity=".2"/>
 <g transform="translate(-320 -188)" enable-background="new">
  <path d="m332 192.84c-2.444 0-3.6841 1.6594-4.4252 4.4252l-1.1063 5.5315c-0.11982 0.59912-0.49531 1.1063-1.1063 1.1063v1.1063h13.276v-1.1063c-0.611 0-0.98648-0.50717-1.1063-1.1063l-1.1063-5.5315c-0.5867-2.7657-1.9812-4.4252-4.4252-4.4252z" fill="url(#linearGradient1136)" style="paint-order:normal"/>
  <path d="m332.19 206.11a1.6594 1.6594 0 0 0 1.5622 1.1063 1.6594 1.6594 0 0 0 1.5622-1.1063z" fill="url(#linearGradient1138)" style="paint-order:normal"/>
 </g>
</svg>
