<svg width="24" height="24" version="1" xmlns="http://www.w3.org/2000/svg" xmlns:xlink="http://www.w3.org/1999/xlink">
 <defs>
  <linearGradient id="linearGradient11807" x1="297.99" x2="299.4" y1="344.07" y2="141.4" gradientTransform="matrix(.04375 0 0 .04375 .75056 1.2228)" gradientUnits="userSpaceOnUse" xlink:href="#linearGradient4155"/>
  <linearGradient id="linearGradient4155">
   <stop stop-color="#f3e6d2" stop-opacity=".99608" offset="0"/>
   <stop stop-color="#f7f4ee" offset="1"/>
  </linearGradient>
  <linearGradient id="linearGradient11809" x1="211.4" x2="211.4" y1="344.74" y2="375.68" gradientTransform="matrix(.32425 0 0 .32425 -58.548 -104.15)" gradientUnits="userSpaceOnUse">
   <stop stop-color="#fdfdfb" offset="0"/>
   <stop stop-color="#f0e9df" offset="1"/>
  </linearGradient>
  <linearGradient id="linearGradient1403" x1="72.419" x2="138.57" y1="112.48" y2="112.48" gradientTransform="matrix(.10714 0 0 .10714 315.7 183.95)" gradientUnits="userSpaceOnUse" xlink:href="#linearGradient4155"/>
  <linearGradient id="linearGradient1690-9" x1="321" x2="343" y1="200" y2="200" gradientTransform="rotate(90 266 -54)" gradientUnits="userSpaceOnUse">
   <stop stop-color="#fff" offset="0"/>
   <stop stop-color="#fff" stop-opacity=".098039" offset=".125"/>
   <stop stop-color="#fff" stop-opacity=".098039" offset=".925"/>
   <stop stop-color="#fff" stop-opacity=".49804" offset="1"/>
  </linearGradient>
  <linearGradient id="linearGradient1690-3" x1="320" x2="344" y1="212" y2="188" gradientTransform="rotate(90 266 -54)" gradientUnits="userSpaceOnUse">
   <stop stop-color="#948b74" offset="0"/>
   <stop stop-color="#aea795" offset="1"/>
  </linearGradient>
 </defs>
 <path d="m6.4527 1.0005c-1.2321 0-2.2167 0.0221-3.07 0.14144-0.85332 0.11937-1.6281 0.35533-2.2107 0.83967-0.58256 0.48436-0.86983 1.1338-1.0119 1.8459-0.14202 0.71207-0.16501 1.5324-0.15897 2.562v12.225c-6e-3 1.0276 0.0171 1.8474 0.15897 2.5584 0.14203 0.71208 0.42931 1.3615 1.0119 1.8459 0.58258 0.48434 1.3573 0.7203 2.2107 0.83967 0.85331 0.11936 1.8379 0.14144 3.07 0.14144h11.095c1.2321 0 2.2138-0.022 3.0657-0.14144 0.85187-0.11947 1.628-0.35683 2.2085-0.84146 0.58057-0.48464 0.86451-1.1315 1.0076-1.8423 0.14307-0.71077 0.16972-1.5314 0.16972-2.5602v-12.228c0-1.0288-0.0266-1.8495-0.16972-2.5602-0.14307-0.71076-0.42701-1.3576-1.0076-1.8423-0.58055-0.48464-1.3566-0.722-2.2085-0.84147s-1.8336-0.14144-3.0657-0.14144z" color="#000000" color-rendering="auto" dominant-baseline="auto" image-rendering="auto" opacity=".1" shape-rendering="auto" solid-color="#000000" style="font-feature-settings:normal;font-variant-alternates:normal;font-variant-caps:normal;font-variant-ligatures:normal;font-variant-numeric:normal;font-variant-position:normal;isolation:auto;mix-blend-mode:normal;shape-padding:0;text-decoration-color:#000000;text-decoration-line:none;text-decoration-style:solid;text-indent:0;text-orientation:mixed;text-transform:none;white-space:normal"/>
 <path d="m6.176 0.5c-5.1467 0-5.7004 0.43262-5.6752 4.6531v13.696c-0.0253 4.2205 0.52855 4.6531 5.6752 4.6531h11.646c5.1466 0 5.6752-0.43255 5.6752-4.6531v-13.696c0-4.2205-0.52857-4.6531-5.6752-4.6531z" color="#000000" fill="url(#linearGradient1690-3)"/>
 <path d="m12.969 11.01c-0.20734 0.27281-0.44121 0.52127-0.69922 0.74609-0.0656 0.0578-0.13454 0.11166-0.20312 0.16602-0.1621 0.12698-0.32859 0.24504-0.50586 0.35156-0.14592 0.089-0.29598 0.1703-0.45117 0.24414-0.0946 0.0443-0.18747 0.0885-0.28516 0.12695-0.23809 0.0953-0.4835 0.17291-0.73828 0.23047-0.14022 0.0311-0.2814 0.0571-0.42578 0.0762-0.0269 4e-3 -0.053 0.0105-0.0801 0.0137-0.19039 0.0219-0.38373 0.0351-0.58006 0.0351s-0.38965-0.0131-0.58008-0.0352c-0.0271-3e-3 -0.0532-0.01-0.0801-0.0137-0.10793-0.0143-0.21306-0.0354-0.31836-0.0566-0.32984 0.06853-0.67128 0.1055-1.0215 0.1055-0.7325 0-1.4219-0.16622-2.0488-0.44922v2.7461c0 0.61474 0.11531 1.0565 0.3418 1.3262 0.2157 0.25884 0.63619 0.39062 1.2617 0.39062h1.4863l1.959 1.3848 1.959-1.3848h5.3867c0.62553 0 1.046-0.13178 1.2617-0.39062 0.22648-0.26963 0.34375-0.71144 0.34375-1.3262v-4.2871z" enable-background="new" fill="url(#linearGradient11807)"/>
 <path d="m11.898 6.9922c0.0666 0.32549 0.10156 0.66263 0.10156 1.0078 0 2.7614-2.2386 5-5 5-0.36603 0-0.72079-0.0445-1.0644-0.11914-0.2369-0.0532-0.46406-0.12781-0.6875-0.21289-0.10022-0.0377-0.19984-0.0734-0.29688-0.11719v2.5293l3.0898 1.9336 1.959 1.3848 1.959-1.3848 6.9922-5.3086v-2.9863c0-0.61475-0.11727-1.0585-0.34375-1.3281-0.2157-0.25882-0.63619-0.39843-1.2617-0.39843h-1.043z" enable-background="new" fill="url(#linearGradient11809)"/>
 <g transform="matrix(.8 0 0 .8 -254.6 -148.8)" enable-background="new">
  <path d="m327 191c-2.7614 0-5 2.2386-5 5s2.2386 5 5 5 5-2.2386 5-5-2.2386-5-5-5z" enable-background="new" fill="#1abc93" stroke-width="1.4286"/>
  <path d="m326.23 192.37h1.4993l-0.0909 1.9991a0.29008 0.29008 0 0 0 0 0.0909 0.29008 0.29008 0 0 0 0 0.0454 0.29008 0.29008 0 0 0 0.18173 0.18174 0.29008 0.29008 0 0 0 0.0454 0 0.29008 0.29008 0 0 0 0.0909 0 0.29008 0.29008 0 0 0 0.0909 0 0.29008 0.29008 0 0 0 0.0454-0.0454l1.681-1.0904 0.72694 1.3176-1.772 0.90868a0.29008 0.29008 0 0 0-0.0454 0 0.29008 0.29008 0 0 0-0.0454 0.0454 0.29008 0.29008 0 0 0-0.0454 0.13622 0.29008 0.29008 0 0 0 0 0.0909 0.29008 0.29008 0 0 0 0 0.0454 0.29008 0.29008 0 0 0 0.0454 0.0909 0.29008 0.29008 0 0 0 0.0454 0.0454 0.29008 0.29008 0 0 0 0.0454 0.0454l1.8174 0.90868-0.77239 1.3176-1.681-1.1355a0.29008 0.29008 0 0 0-0.0454 0 0.29008 0.29008 0 0 0-0.0909-0.0454 0.29008 0.29008 0 0 0-0.0909 0 0.29008 0.29008 0 0 0-0.18174 0.13623 0.29008 0.29008 0 0 0-0.0454 0.0454 0.29008 0.29008 0 0 0 0 0.0454 0.29008 0.29008 0 0 0 0 0.0909l0.0909 1.9993h-1.4993l0.13624-1.9991a0.29008 0.29008 0 0 0-0.0454-0.13623 0.29008 0.29008 0 0 0-0.0454-0.0909 0.29008 0.29008 0 0 0-0.0909-0.0454 0.29008 0.29008 0 0 0-0.0909-0.0454 0.29008 0.29008 0 0 0-0.0454 0 0.29008 0.29008 0 0 0-0.13623 0.0454l-1.7265 1.1359-0.72695-1.3176 1.8174-0.90868a0.29008 0.29008 0 0 0 0.0454-0.0454 0.29008 0.29008 0 0 0 0.0454-0.0454 0.29008 0.29008 0 0 0 0.0454-0.0909 0.29008 0.29008 0 0 0 0-0.0454 0.29008 0.29008 0 0 0 0-0.0909 0.29008 0.29008 0 0 0 0-0.0454 0.29008 0.29008 0 0 0-0.0454-0.0909 0.29008 0.29008 0 0 0-0.0454-0.0454 0.29008 0.29008 0 0 0-0.0454 0l-1.8174-0.90868 0.72695-1.3176 1.7265 1.0904a0.29008 0.29008 0 0 0 0.0454 0.0454 0.29008 0.29008 0 0 0 0.0909 0 0.29008 0.29008 0 0 0 0.0909 0 0.29008 0.29008 0 0 0 0.0454 0 0.29008 0.29008 0 0 0 0.0454-0.0454 0.29008 0.29008 0 0 0 0.0454-0.0454 0.29008 0.29008 0 0 0 0.0454-0.0454 0.29008 0.29008 0 0 0 0-0.0454 0.29008 0.29008 0 0 0 0.0454-0.0909 0.29008 0.29008 0 0 0 0-0.0454l-0.13085-2.0064z" enable-background="new" fill="url(#linearGradient1403)" stroke-width="1.4539"/>
 </g>
 <path d="m17.977 23.5c4.6719 0 5.5471-0.42296 5.5226-4.5492v-13.901c0.0245-4.1263-0.85068-4.5492-5.5226-4.5492h-11.954c-4.6707 0-5.5226 0.42291-5.5226 4.5492v13.901c0 4.1263 0.85185 4.5492 5.5226 4.5492z" color="#000000" fill="none" opacity=".4" stroke="#000"/>
 <path d="m6.0238 1.0005c-2.3203 0-3.6094 0.15494-4.207 0.62109-0.29882 0.23308-0.48964 0.54668-0.625 1.0957-0.13541 0.54902-0.19141 1.3176-0.19141 2.332v13.902c0 1.0144 0.056 1.783 0.19141 2.332 0.13536 0.54903 0.32618 0.86263 0.625 1.0957 0.59762 0.46615 1.8868 0.62109 4.207 0.62109h11.952c2.3208 0 3.6165-0.15457 4.2168-0.62109 0.30014-0.23327 0.49095-0.54754 0.625-1.0957 0.13404-0.54816 0.18764-1.3162 0.18164-2.3301v-13.906c6e-3 -1.0139-0.0476-1.7819-0.18164-2.3301-0.13406-0.54817-0.32486-0.86244-0.625-1.0957-0.60028-0.46652-1.896-0.62109-4.2168-0.62109zm4.9586 1.0098c1.5798-2e-3 4.1601-3.9e-4 5.7399 0.0117 1.5002 0.0511 3.0224-0.0712 4.5 0.28321 0.55111 0.0919 0.61303 0.71807 0.67773 1.166 0.1117 4.3083 0.075 10.626 0.0508 14.941-0.0716 0.99089 0.13687 2.0761-0.30078 3.0137-0.34356 0.40964-0.9694 0.35958-1.4512 0.45509-3.9541 0.0823-9.9294 0.0499-13.894 0.0371-1.1691-0.0622-2.3729 0.11291-3.5176-0.22266-0.57935-0.098-0.6137-0.75914-0.6875-1.2207-0.1146-4.1184-0.0751-10.245-0.0547-14.369 0.0572-1.063-0.0797-2.1673 0.18164-3.2148 0.10495-0.6386 0.8614-0.66043 1.3672-0.74023 2.1305-0.19658 5.2407-0.10662 7.3883-0.14062z" color="#000000" fill="url(#linearGradient1690-9)"/>
</svg>
