<svg width="24" height="24" version="1" xmlns="http://www.w3.org/2000/svg" xmlns:xlink="http://www.w3.org/1999/xlink">
 <defs>
  <linearGradient id="linearGradient981" x1="332" x2="332" y1="189" y2="211" gradientUnits="userSpaceOnUse">
   <stop stop-color="#fff" offset="0"/>
   <stop stop-color="#fff" stop-opacity=".098039" offset=".125"/>
   <stop stop-color="#fff" stop-opacity=".098039" offset=".925"/>
   <stop stop-color="#fff" stop-opacity=".49804" offset="1"/>
  </linearGradient>
  <clipPath id="clipPath971">
   <path d="m327.87 189c-4.4121 0-4.8868 0.45318-4.8652 4.8742v6.1258 6.1258c-0.0217 4.421 0.45311 4.8742 4.8652 4.8742h8.2696c4.4121 0 4.8652-0.45312 4.8652-4.8742v-6.1258-6.1258c0-4.4211-0.45312-4.8742-4.8652-4.8742z" color="#000000" fill="#46a926"/>
  </clipPath>
 </defs>
 <path d="m7.2457 1c-1.2881 0-2.3174 0.0231-3.2095 0.14787-0.8921 0.12479-1.7021 0.37148-2.3111 0.87784-0.60904 0.50637-0.90937 1.1853-1.0579 1.9298-0.14848 0.74444-0.17251 1.602-0.1662 2.6785v5.866 5.8698c-6e-3 1.0743 0.0179 1.9313 0.1662 2.6747 0.14848 0.74444 0.44882 1.4234 1.0579 1.9298 0.60906 0.50636 1.419 0.75304 2.3111 0.87784 0.8921 0.12479 1.9214 0.14787 3.2095 0.14787h9.5096c1.2881 0 2.3144-0.023 3.205-0.14787 0.89059-0.1249 1.702-0.37305 2.3089-0.87972 0.60695-0.50666 0.9038-1.183 1.0534-1.926 0.14958-0.74308 0.17744-1.601 0.17744-2.6766v-5.8698-5.8698c0-1.0756-0.0278-1.9335-0.17744-2.6766-0.14957-0.74307-0.44642-1.4194-1.0534-1.926-0.60694-0.50667-1.4183-0.75482-2.3089-0.87972-0.89062-0.1249-1.9169-0.14787-3.205-0.14787z" color="#000000" color-rendering="auto" dominant-baseline="auto" image-rendering="auto" opacity=".1" shape-rendering="auto" solid-color="#000000" style="font-feature-settings:normal;font-variant-alternates:normal;font-variant-caps:normal;font-variant-ligatures:normal;font-variant-numeric:normal;font-variant-position:normal;isolation:auto;mix-blend-mode:normal;shape-padding:0;text-decoration-color:#000000;text-decoration-line:none;text-decoration-style:solid;text-indent:0;text-orientation:mixed;text-transform:none;white-space:normal"/>
 <path d="m7.1765 1.499c-5.1467 0-5.7004 0.43262-5.6752 4.6531v5.8479 5.8479c-0.0253 4.2205 0.52855 4.6531 5.6752 4.6531h9.6464c5.1466 0 5.6752-0.43256 5.6752-4.6531v-5.8479-5.8479c0-4.2205-0.52857-4.6531-5.6752-4.6531z" color="#000000" fill="#f7f7f7"/>
 <path d="m8.7989 4.9996c-0.41434 0-0.77062 0.0289-1.0689 0.0869-0.29003 0.058-0.5055 0.12014-0.64638 0.18643l0.11182 0.70852c0.10773-0.0414 0.27759-0.0952 0.50962-0.16149 0.23203-0.0663 0.58432-0.0996 1.0567-0.0996 0.33146 0 0.59653 0.054 0.7954 0.1617 0.20717 0.0994 0.36469 0.23626 0.47242 0.41027 0.11601 0.16573 0.19049 0.35632 0.22363 0.57177 0.0332 0.20717 0.0497 0.42244 0.0497 0.64618v0.39781c-0.0332-0.0166-0.0953-0.0331-0.18643-0.0497-0.0829-0.0249-0.18642-0.0456-0.31072-0.0621-0.11601-0.0249-0.24027-0.0414-0.37286-0.0497-0.1243-0.0166-0.24438-0.0249-0.36041-0.0249-0.38947 0-0.74991 0.0372-1.0814 0.11182-0.33146 0.0746-0.61743 0.19486-0.85773 0.36059-0.24032 0.15745-0.42672 0.36039-0.55931 0.60898-0.13258 0.24861-0.1989 0.54693-0.1989 0.89496 0 0.36461 0.058 0.67548 0.17397 0.93237 0.12429 0.24859 0.28999 0.45571 0.49715 0.62144 0.21546 0.15744 0.46418 0.27335 0.74594 0.34792 0.29003 0.0746 0.60488 0.11203 0.94463 0.11203 0.26516 0 0.52207-0.0126 0.77067-0.0374 0.25689-0.0166 0.48889-0.0414 0.69606-0.0746 0.20716-0.0331 0.38938-0.062 0.54683-0.0869 0.15744-0.0332 0.27773-0.0622 0.36059-0.0871v-4.052c0-0.33976-0.0415-0.6548-0.12429-0.94484-0.0829-0.29002-0.2155-0.53856-0.3978-0.74572-0.18231-0.21545-0.42268-0.38115-0.721-0.49716-0.29003-0.1243-0.6463-0.18644-1.0689-0.18644zm4.605 3.2402v8.7946h0.94305l0.2941-0.3796c0.58794 0.34296 1.1759 0.50211 1.7761 0.50211 1.7638 0 2.8048-1.3106 2.8048-3.0989s-0.72264-3.05-2.5355-3.05c-0.69818 0-1.2739 0.17166-1.7761 0.42888v-3.1971zm-4.3564 0.17792c0.34804 0 0.62147 0.0249 0.82035 0.0746 0.19887 0.0414 0.34385 0.0829 0.435 0.12428v2.2623c-0.16573 0.0332-0.36866 0.062-0.60896 0.0869-0.23203 0.0166-0.50547 0.0249-0.82035 0.0249-0.25689 0-0.4889-0.0207-0.69606-0.0621-0.19887-0.0498-0.37293-0.12439-0.52211-0.22382-0.14085-0.0994-0.25277-0.23188-0.33564-0.39761-0.0746-0.16574-0.11183-0.36887-0.11183-0.60918 0-0.27345 0.058-0.49312 0.17397-0.65884 0.11601-0.16573 0.26517-0.294 0.44747-0.38516 0.18231-0.0994 0.38126-0.16176 0.59671-0.18662 0.21545-0.0332 0.42256-0.0497 0.62144-0.0497zm7.2715 3.8152c1.0534 0 1.3965 0.75946 1.3965 1.9108s-0.53892 1.8251-1.5433 1.8251c-0.48995 0-0.90647-0.1224-1.2617-0.40413v-3.0009c0.29397-0.12248 0.86959-0.33091 1.4085-0.33091zm-7.2436 1.6736c-0.62592 0-1.202 0.0981-1.7282 0.29409-0.52618 0.19603-0.9801 0.47809-1.3618 0.84607-0.3783 0.368-0.67422 0.81848-0.88744 1.3516-0.21323 0.53306-0.31983 1.1349-0.31983 1.8056 0 0.41957 0.0654 0.80121 0.19613 1.1451 0.13067 0.34391 0.32321 0.63791 0.57771 0.8821 0.25449 0.24416 0.56918 0.43347 0.94403 0.5676 0.37487 0.13413 0.80829 0.20108 1.3001 0.20108 0.23043 0 0.4626-0.0137 0.69646-0.0412 0.23387-0.0241 0.46071-0.057 0.68083-0.0982 0.2201-0.0447 0.42818-0.0946 0.62421-0.14962 0.19947-0.055 0.38004-0.11174 0.54168-0.1702l0.31468-1.6249h-0.33526l-0.37149 1.0369c-0.1066 0.0825-0.23388 0.16164-0.38177 0.2373-0.14788 0.0722-0.3112 0.13746-0.49003 0.19594-0.17539 0.0585-0.36451 0.10494-0.56742 0.13932-0.2029 0.0344-0.41098 0.0516-0.62421 0.0516-0.36799 0-0.68267-0.0567-0.94404-0.17021-0.26137-0.11349-0.47627-0.26997-0.64479-0.46944-0.16852-0.20291-0.2924-0.44381-0.37149-0.72237-0.0757-0.27857-0.1136-0.58111-0.1136-0.90783 0-0.60528 0.081-1.1538 0.24264-1.6456 0.16163-0.49181 0.38508-0.91137 0.67053-1.2587 0.28888-0.34736 0.63107-0.61385 1.0266-0.79956 0.3955-0.18916 0.82723-0.28381 1.2949-0.28381 0.33016 0 0.64655 0.0414 0.94919 0.12389 0.30265 0.0791 0.56041 0.19253 0.77363 0.34042v0.89772h0.33547l0.23215-1.5117c-0.30608-0.0688-0.64144-0.12889-1.006-0.18049-0.36454-0.055-0.78241-0.0825-1.2536-0.0825z" enable-background="new" fill="#fff"/>
 <path d="m8.7989 3.9996c-0.41434 0-0.77062 0.0289-1.0689 0.0869-0.29003 0.058-0.5055 0.12014-0.64638 0.18643l0.11182 0.70852c0.10773-0.0414 0.27759-0.0952 0.50962-0.16149 0.23203-0.0663 0.58432-0.0996 1.0567-0.0996 0.33146 0 0.59653 0.054 0.7954 0.1617 0.20717 0.0994 0.36469 0.23626 0.47242 0.41027 0.11601 0.16573 0.19049 0.35632 0.22363 0.57177 0.0332 0.20717 0.0497 0.42244 0.0497 0.64618v0.39781c-0.0332-0.0166-0.0953-0.0331-0.18643-0.0497-0.0829-0.0249-0.18642-0.0456-0.31072-0.0621-0.11601-0.0249-0.24027-0.0414-0.37286-0.0497-0.1243-0.0166-0.24438-0.0249-0.36041-0.0249-0.38947 0-0.74991 0.0372-1.0814 0.11182-0.33146 0.0746-0.61743 0.19486-0.85773 0.36059-0.24032 0.15745-0.42672 0.36039-0.55931 0.60898-0.13258 0.24861-0.1989 0.54693-0.1989 0.89496 0 0.36461 0.058 0.67548 0.17397 0.93237 0.12429 0.24859 0.28999 0.45571 0.49715 0.62144 0.21546 0.15744 0.46418 0.27335 0.74594 0.34792 0.29003 0.0746 0.60488 0.11203 0.94463 0.11203 0.26516 0 0.52207-0.0126 0.77067-0.0374 0.25689-0.0166 0.48889-0.0414 0.69606-0.0746 0.20716-0.0331 0.38938-0.062 0.54683-0.0869 0.15744-0.0332 0.27773-0.0622 0.36059-0.0871v-4.052c0-0.33976-0.0415-0.6548-0.12429-0.94484-0.0829-0.29002-0.2155-0.53856-0.3978-0.74572-0.18231-0.21545-0.42268-0.38115-0.721-0.49716-0.29003-0.1243-0.6463-0.18644-1.0689-0.18644zm4.605 3.2402v8.7946h0.94305l0.2941-0.3796c0.58794 0.34296 1.1759 0.50211 1.7761 0.50211 1.7638 0 2.8048-1.3106 2.8048-3.0989s-0.72264-3.05-2.5355-3.05c-0.69818 0-1.2739 0.17166-1.7761 0.42888v-3.1971zm-4.3564 0.17792c0.34804 0 0.62147 0.0249 0.82035 0.0746 0.19887 0.0414 0.34385 0.0829 0.435 0.12428v2.2623c-0.16573 0.0332-0.36866 0.062-0.60896 0.0869-0.23203 0.0166-0.50547 0.0249-0.82035 0.0249-0.25689 0-0.4889-0.0207-0.69606-0.0621-0.19887-0.0498-0.37293-0.12439-0.52211-0.22382-0.14085-0.0994-0.25277-0.23188-0.33564-0.39761-0.0746-0.16574-0.11183-0.36887-0.11183-0.60918 0-0.27345 0.058-0.49312 0.17397-0.65884 0.11601-0.16573 0.26517-0.294 0.44747-0.38516 0.18231-0.0994 0.38126-0.16176 0.59671-0.18662 0.21545-0.0332 0.42256-0.0497 0.62144-0.0497zm7.2715 3.8152c1.0534 0 1.3965 0.75946 1.3965 1.9108s-0.53892 1.8251-1.5433 1.8251c-0.48995 0-0.90647-0.1224-1.2617-0.40413v-3.0009c0.29397-0.12248 0.86959-0.33091 1.4085-0.33091zm-7.2436 1.6736c-0.62592 0-1.202 0.0981-1.7282 0.29409-0.52618 0.19603-0.9801 0.47809-1.3618 0.84607-0.3783 0.368-0.67422 0.81848-0.88744 1.3516-0.21323 0.53306-0.31983 1.1349-0.31983 1.8056 0 0.41957 0.0654 0.80121 0.19613 1.1451 0.13067 0.34391 0.32321 0.63791 0.57771 0.8821 0.25449 0.24416 0.56918 0.43347 0.94403 0.5676 0.37487 0.13413 0.80829 0.20108 1.3001 0.20108 0.23043 0 0.4626-0.0137 0.69646-0.0412 0.23387-0.0241 0.46071-0.057 0.68083-0.0982 0.2201-0.0447 0.42818-0.0946 0.62421-0.14962 0.19947-0.055 0.38004-0.11174 0.54168-0.1702l0.31468-1.6249h-0.33526l-0.37149 1.0369c-0.1066 0.0825-0.23388 0.16164-0.38177 0.2373-0.14788 0.0722-0.3112 0.13746-0.49003 0.19594-0.17539 0.0585-0.36451 0.10494-0.56742 0.13932-0.2029 0.0344-0.41098 0.0516-0.62421 0.0516-0.36799 0-0.68267-0.0567-0.94404-0.17021-0.26137-0.11349-0.47627-0.26997-0.64479-0.46944-0.16852-0.20291-0.2924-0.44381-0.37149-0.72237-0.0757-0.27857-0.1136-0.58111-0.1136-0.90783 0-0.60528 0.081-1.1538 0.24264-1.6456 0.16163-0.49181 0.38508-0.91137 0.67053-1.2587 0.28888-0.34736 0.63107-0.61385 1.0266-0.79956 0.3955-0.18916 0.82723-0.28381 1.2949-0.28381 0.33016 0 0.64655 0.0414 0.94919 0.12389 0.30265 0.0791 0.56041 0.19253 0.77363 0.34042v0.89772h0.33547l0.23215-1.5117c-0.30608-0.0688-0.64144-0.12889-1.006-0.18049-0.36454-0.055-0.78241-0.0825-1.2536-0.0825z" enable-background="new" fill="#5d5d5d"/>
 <path transform="matrix(1.1051 0 0 .91313 -354.91 -170.63)" d="m327.87 189c-4.4121 0-4.8868 0.45318-4.8652 4.8742v6.1258 6.1258c-0.0217 4.421 0.45311 4.8742 4.8652 4.8742h8.2696c4.4121 0 4.8652-0.45312 4.8652-4.8742v-6.1258-6.1258c0-4.4211-0.45312-4.8742-4.8652-4.8742z" clip-path="url(#clipPath971)" color="#000000" fill="none" opacity=".7" stroke="url(#linearGradient981)" stroke-width="1.9909"/>
 <path d="m16.982 22.512c4.6771 0 5.5533-0.42343 5.5287-4.5543v-5.9574-5.9575c0.0245-4.1309-0.85163-4.5543-5.5287-4.5543h-9.9655c-4.6759 0-5.5287 0.42338-5.5287 4.5543v5.9575 5.9574c0 4.1309 0.8528 4.5543 5.5287 4.5543z" color="#000000" fill="none" opacity=".4" stroke="#000" stroke-width=".97653"/>
</svg>
