<svg width="24" height="24" version="1" xmlns="http://www.w3.org/2000/svg">
 <rect transform="matrix(0,-1,-1,0,0,0)" x="-24" y="-23" width="22" height="22" rx="11" ry="11" enable-background="new" opacity=".2"/>
 <rect transform="matrix(0,-1,-1,0,0,0)" x="-23" y="-23" width="22" height="22" rx="11" ry="11" enable-background="new" fill="#5d5d5d"/>
 <rect transform="rotate(90)" x="3.6355" y="-20.399" width="16.812" height="16.812" color="#000000" fill="none"/>
 <path d="m12.088 3.7461-1.4727 0.21875v1.4219a6.8189 6.8064 43.146 0 1 1.4727-0.13281zm-4.3652 1.0566-2.1074 1.791 1.0391 1.2383a6.8189 6.8064 43.146 0 1 2.1191-1.7773zm-3.6582 4.4453-0.46289 2.7266 1.5918 0.28125a6.8189 6.8064 43.146 0 1 0.47852-2.7246zm1.4746 4.9355-1.4199 0.82032 1.3984 2.3867 1.4062-0.8125a6.8189 6.8064 43.146 0 1-1.3848-2.3945zm2.8828 3.6504-0.5625 1.543 2.6055 0.92969 0.55274-1.5176a6.8189 6.8064 43.146 0 1-2.4199-0.84179 6.8189 6.8064 43.146 0 1-0.17578-0.11329z" color="#000000" fill="#faf8f6"/>
 <path d="m12.008 4.9258a7.0115 7.0115 0 0 0-7.0117 7.0117 7.0115 7.0115 0 0 0 7.0117 7.0117 7.0115 7.0115 0 0 0 0.0801-2e-3v-14.018a7.0115 7.0115 0 0 0-0.0801-4e-3z" enable-background="new" fill="#faf8f6"/>
</svg>
