<svg width="24" height="24" version="1" xmlns="http://www.w3.org/2000/svg" xmlns:xlink="http://www.w3.org/1999/xlink">
 <defs>
  <linearGradient id="linearGradient16527" x1="321" x2="343.45" y1="204.13" y2="195.08" gradientTransform="matrix(-1 0 0 1 344 -188)" gradientUnits="userSpaceOnUse">
   <stop stop-color="#34be5d" offset="0"/>
   <stop stop-color="#1abc93" offset="1"/>
  </linearGradient>
  <linearGradient id="linearGradient981-5" x1="332" x2="332" y1="191" y2="209" gradientTransform="rotate(-90 332 200)" gradientUnits="userSpaceOnUse">
   <stop stop-color="#fff" offset="0"/>
   <stop stop-color="#fff" stop-opacity=".098039" offset=".125"/>
   <stop stop-color="#fff" stop-opacity=".098039" offset=".925"/>
   <stop stop-color="#fff" stop-opacity=".49804" offset="1"/>
  </linearGradient>
  <clipPath id="clipPath971-9">
   <path d="m327.87 189c-4.4121 0-4.8868 0.45318-4.8652 4.8742v6.1258 6.1258c-0.0217 4.421 0.45311 4.8742 4.8652 4.8742h8.2696c4.4121 0 4.8652-0.45312 4.8652-4.8742v-6.1258-6.1258c0-4.4211-0.45312-4.8742-4.8652-4.8742z" color="#000000" fill="#46a926"/>
  </clipPath>
 </defs>
 <path d="m5.5961 2.4997c-1.9675-0.01-3.1782 0.0807-3.9258 0.54102-0.11794 0.14051-0.22382 0.29315-0.32031 0.45898-0.19298 0.33166-0.34617 0.71673-0.46484 1.1621-0.0593 0.22269-0.11067 0.46061-0.1543 0.71484-0.0432 0.25175-0.0777 0.51999-0.10742 0.80469-2e-3 0.0224-4e-3 0.0477-6e-3 0.0703-0.0263 0.26362-0.0479 0.53892-0.0645 0.83203-0.0363 0.65597-0.0527 1.3764-0.0527 2.1914v5.4492c0 0.82368 0.0156 1.5535 0.0527 2.2148 0.0174 0.30195 0.0405 0.59079 0.0684 0.86133 0.0291 0.28225 0.0632 0.5469 0.10547 0.79688 8.4e-4 5e-3 1e-3 0.0107 2e-3 0.0156 0.0425 0.24952 0.0928 0.48198 0.15039 0.70117 9.6e-4 4e-3 9.8e-4 8e-3 2e-3 0.0117 0.0586 0.22169 0.12716 0.42851 0.20312 0.6211 0.0745 0.18889 0.15703 0.3645 0.25 0.52734 3e-3 6e-3 6e-3 0.0119 0.01 0.0176 0.0946 0.1635 0.1992 0.31415 0.31445 0.45312 0.74665 0.46459 1.9606 0.55469 3.9375 0.55469h6.4041v-19z" enable-background="new" fill="#f6f5f4"/>
 <path d="m24 8.8653c0-1.1201-0.0241-2.0152-0.1543-2.791-0.13022-0.77577-0.38763-1.4801-0.91601-2.0098-0.52838-0.52962-1.2369-0.79079-2.0137-0.91992-0.77681-0.12912-1.6717-0.15002-2.7949-0.14453h-6.1211-6.125c-1.121-5e-3 -2.0153 0.0156-2.791 0.14453-0.77681 0.12912-1.4853 0.39029-2.0137 0.91992-0.52838 0.52964-0.78579 1.234-0.91601 2.0098s-0.1543 1.6709-0.1543 2.791v8.2695c0 1.1201 0.024 2.0126 0.1543 2.7871 0.13033 0.77446 0.38927 1.48 0.91797 2.0078 0.52869 0.5278 1.2344 0.78594 2.0098 0.91601 0.77539 0.13007 1.6706 0.1543 2.793 0.1543h6.125 6.125c1.1224 0 2.0176-0.0242 2.793-0.1543 0.77538-0.13007 1.4811-0.38821 2.0098-0.91601 0.5287-0.5278 0.78764-1.2333 0.91797-2.0078 0.13033-0.77448 0.1543-1.667 0.1543-2.7871z" color="#000000" color-rendering="auto" dominant-baseline="auto" image-rendering="auto" opacity=".1" shape-rendering="auto" solid-color="#000000" style="font-feature-settings:normal;font-variant-alternates:normal;font-variant-caps:normal;font-variant-ligatures:normal;font-variant-numeric:normal;font-variant-position:normal;isolation:auto;mix-blend-mode:normal;shape-padding:0;text-decoration-color:#000000;text-decoration-line:none;text-decoration-style:solid;text-indent:0;text-orientation:mixed;text-transform:none;white-space:normal"/>
 <path d="m0.50038 7.6357c0-4.657 0.47377-5.1581 5.0957-5.1353h6.4043 6.4042c4.622-0.0229 5.0957 0.47826 5.0957 5.1353v8.7287c0 4.657-0.47371 5.1353-5.0957 5.1353h-6.4042-6.4043c-4.622 0-5.0957-0.47827-5.0957-5.1353z" color="#000000" fill="url(#linearGradient16527)"/>
 <path d="m5.4656 2.5c-1.013 8.5e-4 -1.8197 0.0247-2.4792 0.13731-0.67211 0.11476-1.22 0.32963-1.6224 0.73848-0.40249 0.409-0.61442 0.96743-0.72734 1.6505-0.0401 0.24314-0.066 0.51337-0.0866 0.79786-0.0371 0.5138-0.0501 1.0924-0.0501 1.772v8.8062c0 1.0559 0.024 1.888 0.13672 2.5717 0.11289 0.68453 0.3243 1.243 0.72643 1.6532 0.40221 0.41037 0.95147 0.62652 1.6242 0.74035 0.6716 0.11363 1.49 0.1369 2.5293 0.13174l0.48333 4.7e-4v-19z" enable-background="new" opacity=".3"/>
 <path d="m14.5 2.5 9 9v-3.126c0-4.4804 0.11648-5.3066-3.012-5.7314-1.5505-0.0801-1.0486-0.14255-1.0486-0.14255z" color="#000000" fill="#5d5d5d"/>
 <path d="m15.342 2.5c-0.80915 0.53622-1.3418 1.4525-1.3418 2.5v4c0 1.662 1.338 3 3 3h4c1.0475 0 1.9638-0.53265 2.5-1.3418v-3.0234c0-4.657-0.47373-5.1577-5.0957-5.1348z" enable-background="new" opacity=".3"/>
 <path d="m23.001 11-8-8v2.126c0 4.4804-0.11648 5.3066 3.012 5.7314 1.5505 0.0801 1.0486 0.14255 1.0486 0.14255z" color="#000000" fill="#faf8f6"/>
 <path d="m23.512 7.4913c0-4.2321-0.46371-5.025-4.9876-5.0028h-6.5241-6.5242c-4.5239-0.0222-4.9876 0.77061-4.9876 5.0028v9.0174c0 4.2311 0.46366 5.0028 4.9876 5.0028h6.5242 6.5241c4.5239 0 4.9876-0.77167 4.9876-5.0028z" color="#000000" fill="none" opacity=".4" stroke="#000" stroke-width=".97653"/>
 <path transform="rotate(90 266 -54)" d="m327.87 189c-4.4121 0-4.8868 0.45318-4.8652 4.8742v6.1258 6.1258c-0.0217 4.421 0.45311 4.8742 4.8652 4.8742h8.2696c4.4121 0 4.8652-0.45312 4.8652-4.8742v-6.1258-6.1258c0-4.4211-0.45312-4.8742-4.8652-4.8742z" clip-path="url(#clipPath971-9)" color="#000000" fill="none" opacity=".5" stroke="url(#linearGradient981-5)" stroke-width="2"/>
</svg>
