<svg width="24" height="24" version="1" xmlns="http://www.w3.org/2000/svg" xmlns:xlink="http://www.w3.org/1999/xlink">
 <defs>
  <linearGradient id="linearGradient916" x1="441.38" x2="52.966" y1="240.3" y2="386.31" gradientTransform="matrix(0 -.059215 .059783 0 -6.7308 26.636)" gradientUnits="userSpaceOnUse">
   <stop stop-color="#5884f4" offset="0"/>
   <stop stop-color="#80a3fa" offset="1"/>
  </linearGradient>
  <linearGradient id="linearGradient981" x1="332" x2="332" y1="189" y2="211" gradientUnits="userSpaceOnUse">
   <stop stop-color="#fff" offset="0"/>
   <stop stop-color="#fff" stop-opacity=".098039" offset=".125"/>
   <stop stop-color="#fff" stop-opacity=".098039" offset=".925"/>
   <stop stop-color="#fff" stop-opacity=".49804" offset="1"/>
  </linearGradient>
  <clipPath id="clipPath971">
   <path d="m327.87 189c-4.4121 0-4.8868 0.45318-4.8652 4.8742v6.1258 6.1258c-0.0217 4.421 0.45311 4.8742 4.8652 4.8742h8.2696c4.4121 0 4.8652-0.45312 4.8652-4.8742v-6.1258-6.1258c0-4.4211-0.45312-4.8742-4.8652-4.8742z" color="#000000" fill="#46a926"/>
  </clipPath>
 </defs>
 <path d="m7.8652 1c-1.1201 0-2.0152 0.0241-2.791 0.1543-0.77577 0.13022-1.4801 0.38763-2.0098 0.91601-0.52962 0.52838-0.79079 1.2369-0.91992 2.0137-0.12912 0.77681-0.15002 1.6717-0.14453 2.7949v6.1211 6.125c-5e-3 1.121 0.0156 2.0153 0.14453 2.791 0.12912 0.77681 0.39029 1.4853 0.91992 2.0137 0.52964 0.52838 1.234 0.78579 2.0098 0.91601s1.6709 0.1543 2.791 0.1543h8.2695c1.1201 0 2.0126-0.024 2.7871-0.1543 0.77446-0.13033 1.48-0.38927 2.0078-0.91797 0.5278-0.52869 0.78594-1.2344 0.91601-2.0098 0.13007-0.77539 0.1543-1.6706 0.1543-2.793v-6.125-6.125c0-1.1224-0.0242-2.0176-0.1543-2.793-0.13007-0.77538-0.38821-1.4811-0.91601-2.0098-0.5278-0.5287-1.2333-0.78764-2.0078-0.91797-0.77448-0.13033-1.667-0.1543-2.7871-0.1543z" color="#000000" color-rendering="auto" dominant-baseline="auto" image-rendering="auto" opacity=".1" shape-rendering="auto" solid-color="#000000" style="font-feature-settings:normal;font-variant-alternates:normal;font-variant-caps:normal;font-variant-ligatures:normal;font-variant-numeric:normal;font-variant-position:normal;isolation:auto;mix-blend-mode:normal;shape-padding:0;text-decoration-color:#000000;text-decoration-line:none;text-decoration-style:solid;text-indent:0;text-orientation:mixed;text-transform:none;white-space:normal"/>
 <path d="m7.6353 0.49999c-4.657 0-5.1581 0.47378-5.1353 5.0958v6.4042 6.4043c-0.0229 4.622 0.47827 5.0957 5.1353 5.0957h8.7287c4.657 0 5.1353-0.47372 5.1353-5.0957v-6.4043-6.4042c0-4.622-0.47828-5.0958-5.1353-5.0958z" color="#000000" fill="url(#linearGradient916)"/>
 <g transform="matrix(.36158 0 0 .36158 -26.579 -30.352)" enable-background="new" fill="#5884f4" aria-label="@">
  <path d="m115.28 129.11q-1.28 0-2.12-0.36t-1.4-0.96q-0.88 0.48-2.12 0.84-1.24 0.32-2.48 0.32-1.92 0-3.52-0.6-1.56-0.6-2.72-1.76-1.16-1.2-1.8-2.92t-0.64-4q0-1.92 0.6-3.6 0.6-1.72 1.76-2.96 1.2-1.28 2.88-2 1.72-0.72 3.88-0.72 2.04 0 3.72 0.32 1.72 0.32 2.64 0.64v12.24q0 1.28 0.44 1.8t1.16 0.52q1.04 0 1.8-0.72 0.8-0.72 1.28-1.88 0.52-1.16 0.76-2.6 0.24-1.48 0.24-3 0-2.52-0.88-4.72-0.88-2.24-2.52-3.92t-4-2.64q-2.32-0.96-5.24-0.96t-5.36 1q-2.44 0.96-4.2 2.8-1.76 1.8-2.76 4.44-0.96 2.64-0.96 6 0 3.52 1.04 6.2 1.04 2.64 2.88 4.44 1.88 1.76 4.4 2.64 2.56 0.92 5.6 0.92 2.36 0 3.88-0.28 1.56-0.28 2-0.44l0.4 2.96q-0.68 0.24-2.48 0.52-1.76 0.28-3.8 0.28-3.56 0-6.72-1.04-3.16-1-5.52-3.12-2.36-2.08-3.76-5.32-1.36-3.28-1.36-7.76 0-4.32 1.36-7.56t3.64-5.36q2.32-2.16 5.32-3.24 3.04-1.08 6.4-1.08 3.28 0 6.2 1.08 2.92 1.04 5.12 3.08 2.2 2 3.48 4.88 1.28 2.84 1.28 6.44 0 2.72-0.64 4.8-0.6 2.08-1.64 3.52-1.04 1.4-2.48 2.12t-3.04 0.72zm-8-3.24q0.84 0 1.68-0.16 0.88-0.2 1.56-0.56-0.12-0.52-0.16-1.04t-0.04-1v-9.4q-0.24-0.08-0.92-0.16t-1.52-0.08q-2.84 0-4.24 1.76t-1.4 4.44q0 2.84 1.36 4.52t3.68 1.68z" fill="#5884f4"/>
 </g>
 <g transform="matrix(.36158 0 0 .36158 -26.579 -30.852)" enable-background="new" fill="#fff" aria-label="@">
  <path d="m115.28 129.11q-1.28 0-2.12-0.36t-1.4-0.96q-0.88 0.48-2.12 0.84-1.24 0.32-2.48 0.32-1.92 0-3.52-0.6-1.56-0.6-2.72-1.76-1.16-1.2-1.8-2.92t-0.64-4q0-1.92 0.6-3.6 0.6-1.72 1.76-2.96 1.2-1.28 2.88-2 1.72-0.72 3.88-0.72 2.04 0 3.72 0.32 1.72 0.32 2.64 0.64v12.24q0 1.28 0.44 1.8t1.16 0.52q1.04 0 1.8-0.72 0.8-0.72 1.28-1.88 0.52-1.16 0.76-2.6 0.24-1.48 0.24-3 0-2.52-0.88-4.72-0.88-2.24-2.52-3.92t-4-2.64q-2.32-0.96-5.24-0.96t-5.36 1q-2.44 0.96-4.2 2.8-1.76 1.8-2.76 4.44-0.96 2.64-0.96 6 0 3.52 1.04 6.2 1.04 2.64 2.88 4.44 1.88 1.76 4.4 2.64 2.56 0.92 5.6 0.92 2.36 0 3.88-0.28 1.56-0.28 2-0.44l0.4 2.96q-0.68 0.24-2.48 0.52-1.76 0.28-3.8 0.28-3.56 0-6.72-1.04-3.16-1-5.52-3.12-2.36-2.08-3.76-5.32-1.36-3.28-1.36-7.76 0-4.32 1.36-7.56t3.64-5.36q2.32-2.16 5.32-3.24 3.04-1.08 6.4-1.08 3.28 0 6.2 1.08 2.92 1.04 5.12 3.08 2.2 2 3.48 4.88 1.28 2.84 1.28 6.44 0 2.72-0.64 4.8-0.6 2.08-1.64 3.52-1.04 1.4-2.48 2.12t-3.04 0.72zm-8-3.24q0.84 0 1.68-0.16 0.88-0.2 1.56-0.56-0.12-0.52-0.16-1.04t-0.04-1v-9.4q-0.24-0.08-0.92-0.16t-1.52-0.08q-2.84 0-4.24 1.76t-1.4 4.44q0 2.84 1.36 4.52t3.68 1.68z" fill="#fff"/>
 </g>
 <path transform="translate(-320,-188)" d="m327.87 189c-4.4121 0-4.8868 0.45318-4.8652 4.8742v6.1258 6.1258c-0.0217 4.421 0.45311 4.8742 4.8652 4.8742h8.2696c4.4121 0 4.8652-0.45312 4.8652-4.8742v-6.1258-6.1258c0-4.4211-0.45312-4.8742-4.8652-4.8742z" clip-path="url(#clipPath971)" color="#000000" fill="none" opacity=".7" stroke="url(#linearGradient981)" stroke-width="2"/>
 <path d="m16.508 23.512c4.2321 0 5.025-0.46371 5.0028-4.9876v-6.5241-6.5242c0.0222-4.5239-0.77061-4.9876-5.0028-4.9876h-9.0174c-4.2311 0-5.0028 0.46366-5.0028 4.9876v6.5242 6.5241c0 4.5239 0.77167 4.9876 5.0028 4.9876z" color="#000000" fill="none" opacity=".4" stroke="#000" stroke-width=".97653"/>
</svg>
