<svg width="24" height="24" version="1" xmlns="http://www.w3.org/2000/svg" xmlns:xlink="http://www.w3.org/1999/xlink">
 <defs>
  <linearGradient id="linearGradient1690" x1="321.5" x2="342.5" y1="200" y2="200" gradientTransform="rotate(90 266 -54)" gradientUnits="userSpaceOnUse">
   <stop stop-color="#eab305" offset="0"/>
   <stop stop-color="#ffda64" offset="1"/>
  </linearGradient>
  <linearGradient id="linearGradient985" x1="873.98" x2="885.52" y1="468" y2="468" gradientUnits="userSpaceOnUse" xlink:href="#linearGradient898"/>
  <linearGradient id="linearGradient898">
   <stop stop-color="#111" offset="0"/>
   <stop stop-color="#4d4d4d" offset="1"/>
  </linearGradient>
  <linearGradient id="linearGradient981" x1="332" x2="332" y1="189" y2="211" gradientUnits="userSpaceOnUse">
   <stop stop-color="#fff" offset="0"/>
   <stop stop-color="#fff" stop-opacity=".098039" offset=".125"/>
   <stop stop-color="#fff" stop-opacity=".098039" offset=".925"/>
   <stop stop-color="#fff" stop-opacity=".49804" offset="1"/>
  </linearGradient>
  <clipPath id="clipPath971">
   <path d="m327.87 189c-4.4121 0-4.8868 0.45318-4.8652 4.8742v6.1258 6.1258c-0.0217 4.421 0.45311 4.8742 4.8652 4.8742h8.2696c4.4121 0 4.8652-0.45312 4.8652-4.8742v-6.1258-6.1258c0-4.4211-0.45312-4.8742-4.8652-4.8742z" color="#000000" fill="#46a926"/>
  </clipPath>
 </defs>
 <path d="m7.2457 1c-1.2881 0-2.3174 0.0231-3.2095 0.14787-0.8921 0.12479-1.7021 0.37148-2.3111 0.87784-0.60904 0.50637-0.90937 1.1853-1.0579 1.9298-0.14848 0.74444-0.17251 1.602-0.1662 2.6785v5.866 5.8698c-6e-3 1.0743 0.0179 1.9313 0.1662 2.6747 0.14848 0.74444 0.44882 1.4234 1.0579 1.9298 0.60906 0.50636 1.419 0.75304 2.3111 0.87784 0.8921 0.12479 1.9214 0.14787 3.2095 0.14787h9.5096c1.2881 0 2.3144-0.023 3.205-0.14787 0.89059-0.1249 1.702-0.37305 2.3089-0.87972 0.60695-0.50666 0.9038-1.183 1.0534-1.926 0.14958-0.74308 0.17744-1.601 0.17744-2.6766v-5.8698-5.8698c0-1.0756-0.0278-1.9335-0.17744-2.6766-0.14957-0.74307-0.44642-1.4194-1.0534-1.926-0.60694-0.50667-1.4183-0.75482-2.3089-0.87972-0.89062-0.1249-1.9169-0.14787-3.205-0.14787z" color="#000000" color-rendering="auto" dominant-baseline="auto" image-rendering="auto" opacity=".1" shape-rendering="auto" solid-color="#000000" style="font-feature-settings:normal;font-variant-alternates:normal;font-variant-caps:normal;font-variant-ligatures:normal;font-variant-numeric:normal;font-variant-position:normal;isolation:auto;mix-blend-mode:normal;shape-padding:0;text-decoration-color:#000000;text-decoration-line:none;text-decoration-style:solid;text-indent:0;text-orientation:mixed;text-transform:none;white-space:normal"/>
 <path d="m7.1765 1.499c-5.1467 0-5.7004 0.43262-5.6752 4.6531v5.8479 5.8479c-0.0253 4.2205 0.52855 4.6531 5.6752 4.6531h9.6464c5.1466 0 5.6752-0.43256 5.6752-4.6531v-5.8479-5.8479c0-4.2205-0.52857-4.6531-5.6752-4.6531z" color="#000000" fill="url(#linearGradient1690)"/>
 <g transform="matrix(.99697 0 0 1 -865.08 -455)" enable-background="new" fill="#fff" opacity=".2" stroke-width="10.301">
  <path d="m877 461c-0.554 0-1 0.446-1 1v1c0 0.554 0.446 1 1 1h1c0.554 0 1-0.446 1-1v-1c0-0.554-0.446-1-1-1zm-0.472 4-0.528 0.383-1.947 3.894c-0.335 0.61 0.61 1.08 0.894 0.446l1.053-2.106 0.38-1.125-0.38 3.508v5h1v-4h1v4h1v-5l-0.528-3.512 0.528 1.13 1.053 2.105a0.5 0.5 0 0 0 0.224 0.224l1.723 0.862v4.191h2v-3.293l0.646 0.647c0.472 0.49 1.198-0.236 0.708-0.708l-1.354-1.353v-0.293h-1.383l-1.744-0.873-1.873-3.744-0.693-0.383zm5.472 2v2h2v-2z" fill="#fff" stroke-width="10.301"/>
 </g>
 <g transform="matrix(.99697 0 0 1 -865.08 -456)" enable-background="new" fill="url(#linearGradient985)" stroke-width="10.301">
  <path d="m877 461c-0.554 0-1 0.446-1 1v1c0 0.554 0.446 1 1 1h1c0.554 0 1-0.446 1-1v-1c0-0.554-0.446-1-1-1zm-0.472 4-0.528 0.383-1.947 3.894c-0.335 0.61 0.61 1.08 0.894 0.446l1.053-2.106 0.38-1.125-0.38 3.508v5h1v-4h1v4h1v-5l-0.528-3.512 0.528 1.13 1.053 2.105a0.5 0.5 0 0 0 0.224 0.224l1.723 0.862v4.191h2v-3.293l0.646 0.647c0.472 0.49 1.198-0.236 0.708-0.708l-1.354-1.353v-0.293h-1.383l-1.744-0.873-1.873-3.744-0.693-0.383zm5.472 2v2h2v-2z" fill="url(#linearGradient985)" stroke-width="10.301"/>
 </g>
 <path transform="matrix(1.1051 0 0 .91313 -354.91 -170.63)" d="m327.87 189c-4.4121 0-4.8868 0.45318-4.8652 4.8742v6.1258 6.1258c-0.0217 4.421 0.45311 4.8742 4.8652 4.8742h8.2696c4.4121 0 4.8652-0.45312 4.8652-4.8742v-6.1258-6.1258c0-4.4211-0.45312-4.8742-4.8652-4.8742z" clip-path="url(#clipPath971)" color="#000000" fill="none" opacity=".7" stroke="url(#linearGradient981)" stroke-width="1.9909"/>
 <path d="m16.982 22.512c4.6771 0 5.5533-0.42343 5.5287-4.5543v-5.9574-5.9575c0.0245-4.1309-0.85163-4.5543-5.5287-4.5543h-9.9655c-4.6759 0-5.5287 0.42338-5.5287 4.5543v5.9575 5.9574c0 4.1309 0.8528 4.5543 5.5287 4.5543z" color="#000000" fill="none" opacity=".4" stroke="#000" stroke-width=".97653"/>
</svg>
