<svg width="24" height="24" version="1" xmlns="http://www.w3.org/2000/svg" xmlns:xlink="http://www.w3.org/1999/xlink">
 <defs>
  <linearGradient id="linearGradient8590-3-3" x1="96" x2="96" y1="4" y2="188" gradientTransform="matrix(.11957 0 0 .11957 .52176 .52174)" gradientUnits="userSpaceOnUse">
   <stop stop-color="#fff" offset="0"/>
   <stop stop-color="#fff" stop-opacity=".098039" offset=".125"/>
   <stop stop-color="#fff" stop-opacity=".098039" offset=".925"/>
   <stop stop-color="#fff" stop-opacity=".49804" offset="1"/>
  </linearGradient>
 </defs>
 <ellipse transform="scale(-1)" cx="-12" cy="-12.523" rx="12" ry="11.477" enable-background="new" opacity=".1"/>
 <path d="m12 0.5a11.5 11.5 0 0 0-1.0117 0.0527 11.5 11.5 0 0 0-0.43359 0.0527 11.5 11.5 0 0 0-0.73633 0.11328 11.5 11.5 0 0 0-0.32227 0.0723 11.5 11.5 0 0 0-0.83203 0.21484 11.5 11.5 0 0 0-0.18359 0.0605 11.5 11.5 0 0 0-0.93555 0.34375 11.5 11.5 0 0 0-0.0703 0.0312 11.5 11.5 0 0 0-0.98438 0.47851 11.5 11.5 0 0 0-5.9902 10.08 11.5 11.5 0 0 0 5.9902 10.08 11.5 11.5 0 0 0 0.98438 0.47851 11.5 11.5 0 0 0 0.0703 0.0312 11.5 11.5 0 0 0 0.93555 0.34375 11.5 11.5 0 0 0 0.18359 0.0605 11.5 11.5 0 0 0 0.83203 0.21484 11.5 11.5 0 0 0 0.32227 0.0723 11.5 11.5 0 0 0 0.73633 0.11328 11.5 11.5 0 0 0 0.43359 0.0527 11.5 11.5 0 0 0 1.0117 0.05284 11.5 11.5 0 0 0 1.0117-0.0527 11.5 11.5 0 0 0 0.43359-0.0527 11.5 11.5 0 0 0 0.73633-0.11328 11.5 11.5 0 0 0 0.32227-0.0723 11.5 11.5 0 0 0 0.83203-0.21484 11.5 11.5 0 0 0 0.18359-0.0605 11.5 11.5 0 0 0 0.93555-0.34375 11.5 11.5 0 0 0 0.0703-0.0312 11.5 11.5 0 0 0 0.98438-0.47851 11.5 11.5 0 0 0 5.9902-10.08 11.5 11.5 0 0 0-5.9902-10.08 11.5 11.5 0 0 0-0.98438-0.47851 11.5 11.5 0 0 0-0.0703-0.0312 11.5 11.5 0 0 0-0.93555-0.34375 11.5 11.5 0 0 0-0.18359-0.0605 11.5 11.5 0 0 0-0.83203-0.21484 11.5 11.5 0 0 0-0.32227-0.0723 11.5 11.5 0 0 0-0.73633-0.11328 11.5 11.5 0 0 0-0.43359-0.0527 11.5 11.5 0 0 0-1.0117-0.05284zm0 2.5a9 9 0 0 1 0.78906 0.0391 9 9 0 0 1 0.45313 0.0586 9 9 0 0 1 0.43359 0.0645 9 9 0 0 1 0.45117 0.10351 9 9 0 0 1 0.41797 0.10743 9 9 0 0 1 0.4707 0.1582 9 9 0 0 1 0.37305 0.13672 9 9 0 0 1 0.46875 0.21289 9 9 0 0 1 2.8379 2.1191 9 9 0 0 1 0.18555 0.21289 9 9 0 0 1 0.5 0.65625 9 9 0 0 1 0.0547 0.0742 9 9 0 0 1 0.42773 0.70117 9 9 0 0 1 0.0371 0.0606 9 9 0 0 1 0.3457 0.71289 9 9 0 0 1 0.0508 0.11523 9 9 0 0 1 0.24609 0.67188 9 9 0 0 1 0.0684 0.20117 9 9 0 0 1 0.15234 0.59375 9 9 0 0 1 0.0703 0.31055 9 9 0 0 1 0.0801 0.5332 9 9 0 0 1 0.0449 0.37695 9 9 0 0 1 0.04098 0.77918 9 9 0 0 1-0.041 0.7793 9 9 0 0 1-0.0449 0.37695 9 9 0 0 1-0.0801 0.5332 9 9 0 0 1-0.0703 0.31055 9 9 0 0 1-0.15234 0.59375 9 9 0 0 1-0.0684 0.20117 9 9 0 0 1-0.24609 0.67188 9 9 0 0 1-0.0508 0.11523 9 9 0 0 1-0.3457 0.71289 9 9 0 0 1-0.0371 0.0606 9 9 0 0 1-0.42773 0.70117 9 9 0 0 1-0.0547 0.0742 9 9 0 0 1-0.5 0.65625 9 9 0 0 1-0.18555 0.21289 9 9 0 0 1-2.8379 2.1191 9 9 0 0 1-0.46875 0.21289 9 9 0 0 1-0.37305 0.13672 9 9 0 0 1-0.4707 0.1582 9 9 0 0 1-0.41797 0.10743 9 9 0 0 1-0.45117 0.10351 9 9 0 0 1-0.43359 0.0645 9 9 0 0 1-0.45313 0.0586 9 9 0 0 1-0.78904 0.03898 9 9 0 0 1-0.78906-0.0391 9 9 0 0 1-0.45313-0.0586 9 9 0 0 1-0.43359-0.0645 9 9 0 0 1-0.45117-0.10351 9 9 0 0 1-0.41797-0.10743 9 9 0 0 1-0.4707-0.1582 9 9 0 0 1-0.37305-0.13672 9 9 0 0 1-0.46875-0.21289 9 9 0 0 1-2.8379-2.1191 9 9 0 0 1-0.18555-0.21289 9 9 0 0 1-0.5-0.65625 9 9 0 0 1-0.0547-0.0742 9 9 0 0 1-0.42773-0.70117 9 9 0 0 1-0.0371-0.0606 9 9 0 0 1-0.3457-0.71289 9 9 0 0 1-0.0508-0.11523 9 9 0 0 1-0.24609-0.67188 9 9 0 0 1-0.0684-0.20117 9 9 0 0 1-0.15234-0.59375 9 9 0 0 1-0.0703-0.31055 9 9 0 0 1-0.0801-0.5332 9 9 0 0 1-0.0449-0.37695 9 9 0 0 1-0.04098-0.77918 9 9 0 0 1 0.041-0.7793 9 9 0 0 1 0.0449-0.37695 9 9 0 0 1 0.0801-0.5332 9 9 0 0 1 0.0703-0.31055 9 9 0 0 1 0.15234-0.59375 9 9 0 0 1 0.0684-0.20117 9 9 0 0 1 0.24609-0.67188 9 9 0 0 1 0.0508-0.11523 9 9 0 0 1 0.3457-0.71289 9 9 0 0 1 0.0371-0.0606 9 9 0 0 1 0.42773-0.70117 9 9 0 0 1 0.0547-0.0742 9 9 0 0 1 0.5-0.65625 9 9 0 0 1 0.18555-0.21289 9 9 0 0 1 2.8379-2.1191 9 9 0 0 1 0.46875-0.21289 9 9 0 0 1 0.37305-0.13672 9 9 0 0 1 0.4707-0.1582 9 9 0 0 1 0.41797-0.10743 9 9 0 0 1 0.45117-0.10351 9 9 0 0 1 0.43359-0.0645 9 9 0 0 1 0.45313-0.0586 9 9 0 0 1 0.78904-0.03898z" enable-background="new" fill="#ebebeb"/>
 <circle transform="matrix(.25882 .96593 .96593 -.25882 0 0)" cx="14.697" cy="8.4853" r="9" enable-background="new" fill="#641c5d"/>
 <path d="m1.054 13c0.51675 5.6607 5.2613 9.9954 10.946 10 5.6859-2e-3 10.433-4.3376 10.95-10z" enable-background="new" fill="#fff" opacity=".1"/>
 <path d="m10.858 5c-0.46754 0.97402-0.91557 1.9611-1.3441 2.9611-0.42856 0.98701-0.86381 2.026-1.3054 3.117-0.42857 1.0909-1.3246 3.4675-1.3246 3.4675l-1.011 2.4545h2.563l0.92722-2.5478 5.3626 0.29775 0.975 2.25h2.5525l-1.1054-2.4155s-0.90259-2.3702-1.3442-3.4481c-0.42857-1.0909-0.85721-2.1363-1.2858-3.1363-0.42857-1-1.3635-3.0001-1.3635-3.0001h-1.1545zm2.0648 4.9285c0.46753 1.1558 0.94797 2.4026 1.4415 3.7403l-4.6055-0.17526c0.4026-1.1299 0.80525-2.2207 1.2078-3.2726 0.33184-0.85031 0.6767-1.6704 1.0334-2.4628v-0.0152s0.52273 1.1981 0.92282 2.1856z" enable-background="new" fill="#ececec"/>
 <path d="m13.155 5-1.1287 2.775s0.5131 1.2044 0.89702 2.1535c0.46753 1.1558 0.94796 2.4026 1.4415 3.7403l2.464 0.0665c-0.34524-0.9078-0.68679-1.7747-1.0244-2.5989-0.42857-1.0909-0.85721-2.1363-1.2858-3.1363-0.42857-1-1.3635-3.0001-1.3635-3.0001zm-0.36042 9.6641 1.9792 0.13465 0.9268 2.2013h2.5506l-0.95425-2.1949-0.0208-0.055z" enable-background="new" fill="#c43ac4" opacity=".2"/>
 <rect x="5.0001" y="12" width="14" height="3" rx="1.5" ry="1.5" color="#000000" fill="#f8f8f8"/>
 <path d="m6.5 13c-0.277 0-0.5 0.223-0.5 0.5s0.223 0.5 0.5 0.5h3.9336 3.0664 4.0664c0.24027 0 0.43359-0.19332 0.43359-0.43359v-0.13282c0-0.24027-0.19332-0.43359-0.43359-0.43359h-4.0664-3.0664z" color="#000000" fill="#999"/>
 <path d="m6.5 13c-0.277 0-0.5 0.223-0.5 0.5s0.223 0.5 0.5 0.5h1.9336 3.0664 2.0664c0.24027 0 0.43359-0.19332 0.43359-0.43359v-0.13282c0-0.24027-0.19332-0.43359-0.43359-0.43359h-2.0664-3.0664z" color="#000000" fill="#77216f"/>
 <circle cx="13.5" cy="13.5" r="2.5" enable-background="new" opacity=".4"/>
 <circle cx="13.5" cy="13.5" r="1.5" enable-background="new" fill="#ebebeb"/>
 <ellipse cx="12" cy="11.977" rx="11.455" ry="11.477" enable-background="new" fill="none" opacity=".4" stroke="#000" stroke-dashoffset="6.6" stroke-linejoin="round"/>
 <path d="m12 1c-6.0751 0-11 4.9249-11 11 0 6.0751 4.9249 11 11 11s11-4.9249 11-11c0-6.0751-4.9249-11-11-11zm0 1a10 10 0 0 1 10 10 10 10 0 0 1-10 10 10 10 0 0 1-10-10 10 10 0 0 1 10-10z" enable-background="new" fill="url(#linearGradient8590-3-3)"/>
</svg>
