<svg width="24" height="24" version="1" xmlns="http://www.w3.org/2000/svg" xmlns:xlink="http://www.w3.org/1999/xlink">
 <defs>
  <linearGradient id="linearGradient4880" x1="319.61" x2="344.89" y1="215.81" y2="184.1" gradientTransform="rotate(-90 78 266)" gradientUnits="userSpaceOnUse">
   <stop stop-color="#f37e40" offset="0"/>
   <stop stop-color="#f34f17" offset="1"/>
  </linearGradient>
  <linearGradient id="linearGradient981" x1="332" x2="332" y1="191" y2="209" gradientTransform="rotate(-90 332 200)" gradientUnits="userSpaceOnUse">
   <stop stop-color="#fff" offset="0"/>
   <stop stop-color="#fff" stop-opacity=".098039" offset=".125"/>
   <stop stop-color="#fff" stop-opacity=".098039" offset=".925"/>
   <stop stop-color="#fff" stop-opacity=".49804" offset="1"/>
  </linearGradient>
  <clipPath id="clipPath971">
   <path d="m327.87 189c-4.4121 0-4.8868 0.45318-4.8652 4.8742v6.1258 6.1258c-0.0217 4.421 0.45311 4.8742 4.8652 4.8742h8.2696c4.4121 0 4.8652-0.45312 4.8652-4.8742v-6.1258-6.1258c0-4.4211-0.45312-4.8742-4.8652-4.8742z" color="#000000" fill="#46a926"/>
  </clipPath>
 </defs>
 <path d="m24 8.8656c0-1.1201-0.0241-2.0152-0.1543-2.791-0.13022-0.77577-0.38763-1.4801-0.91601-2.0098-0.52838-0.52962-1.2369-0.79079-2.0137-0.91992-0.77681-0.12912-1.6717-0.15002-2.7949-0.14453h-6.1211-6.125c-1.121-5e-3 -2.0153 0.0156-2.791 0.14453-0.77681 0.12912-1.4853 0.39029-2.0137 0.91992-0.52838 0.52964-0.78579 1.234-0.91601 2.0098s-0.1543 1.6709-0.1543 2.791v8.2695c0 1.1201 0.024 2.0126 0.1543 2.7871 0.13033 0.77446 0.38927 1.48 0.91797 2.0078 0.52869 0.5278 1.2344 0.78594 2.0098 0.91601 0.77539 0.13007 1.6706 0.1543 2.793 0.1543h6.125 6.125c1.1224 0 2.0176-0.0242 2.793-0.1543 0.77538-0.13007 1.4811-0.38821 2.0098-0.91601 0.5287-0.5278 0.78764-1.2333 0.91797-2.0078 0.13033-0.77448 0.1543-1.667 0.1543-2.7871z" color="#000000" color-rendering="auto" dominant-baseline="auto" image-rendering="auto" opacity=".1" shape-rendering="auto" solid-color="#000000" style="font-feature-settings:normal;font-variant-alternates:normal;font-variant-caps:normal;font-variant-ligatures:normal;font-variant-numeric:normal;font-variant-position:normal;isolation:auto;mix-blend-mode:normal;shape-padding:0;text-decoration-color:#000000;text-decoration-line:none;text-decoration-style:solid;text-indent:0;text-orientation:mixed;text-transform:none;white-space:normal"/>
 <path d="m0.50038 16.364c0 4.657 0.47377 5.1581 5.0957 5.1353h6.4043 6.4042c4.622 0.0229 5.0957-0.47826 5.0957-5.1353v-8.7287c0-4.657-0.47371-5.1353-5.0957-5.1353h-6.4042-6.4043c-4.622 0-5.0957 0.47827-5.0957 5.1353z" color="#000000" fill="url(#linearGradient4880)"/>
 <path d="m1.1635 12v3.8477c-0.0253 4.2205 0.52718 4.6543 5.6738 4.6543l10.325 3e-5c5.1466 1e-5 5.6758-0.43378 5.6758-4.6543v-3.8477z" color="#000000" fill="#fff" opacity=".1"/>
 <path d="m10.858 6c-0.46754 0.97402-0.91557 1.9611-1.3441 2.9611-0.42857 0.98701-0.86381 2.026-1.3054 3.117-0.42857 1.0909-1.3246 3.4675-1.3246 3.4675l-1.011 2.4545h2.563l0.92722-2.5478 5.3626 0.29775 0.975 2.25h2.5525l-1.1054-2.4155s-0.90259-2.3702-1.3442-3.4481c-0.42857-1.0909-0.85721-2.1363-1.2858-3.1363-0.42857-1-1.3635-3.0001-1.3635-3.0001h-1.1545zm2.0648 4.9285c0.46753 1.1558 0.94796 2.4026 1.4415 3.7403l-4.6055-0.17526c0.4026-1.1299 0.80525-2.2207 1.2078-3.2726 0.33183-0.85031 0.6767-1.6704 1.0334-2.4628v-0.0152s0.52272 1.1981 0.92282 2.1856z" enable-background="new" fill="#fff9f2"/>
 <path d="m13.155 6-1.1288 2.775s0.51311 1.2044 0.89703 2.1535c0.46753 1.1558 0.94796 2.4026 1.4415 3.7403l2.464 0.0665c-0.34524-0.9078-0.68679-1.7747-1.0244-2.5989-0.42857-1.0909-0.85721-2.1363-1.2858-3.1363-0.42857-1-1.3635-3.0001-1.3635-3.0001zm-0.36042 9.6641 1.9792 0.13465 0.9268 2.2013h2.5506l-0.95425-2.1949-0.0208-0.055z" enable-background="new" fill="#f34f17" opacity=".1"/>
 <rect x="5.0005" y="13" width="14" height="3" rx="1.5" ry="1.5" color="#000000" fill="#f8f8f8"/>
 <path d="m6.5004 14c-0.277 0-0.5 0.223-0.5 0.5s0.223 0.5 0.5 0.5h3.9336 3.0664 4.0664c0.24027 0 0.43359-0.19332 0.43359-0.43359v-0.13282c0-0.24027-0.19332-0.43359-0.43359-0.43359h-4.0664-3.0664z" color="#000000" fill="#f34f17" opacity=".2"/>
 <path d="m23.512 7.4916c0-4.2321-0.46371-5.025-4.9876-5.0028h-6.5241-6.5242c-4.5239-0.0222-4.9876 0.77061-4.9876 5.0028v9.0174c0 4.2311 0.46366 5.0028 4.9876 5.0028h6.5242 6.5241c4.5239 0 4.9876-0.77167 4.9876-5.0028z" color="#000000" fill="none" opacity=".4" stroke="#000" stroke-width=".97653"/>
 <path transform="rotate(90 266 -54)" d="m327.87 189c-4.4121 0-4.8868 0.45318-4.8652 4.8742v6.1258 6.1258c-0.0217 4.421 0.45311 4.8742 4.8652 4.8742h8.2696c4.4121 0 4.8652-0.45312 4.8652-4.8742v-6.1258-6.1258c0-4.4211-0.45312-4.8742-4.8652-4.8742z" clip-path="url(#clipPath971)" color="#000000" fill="none" opacity=".7" stroke="url(#linearGradient981)" stroke-width="2"/>
 <path d="m8.0004 4s0-3.5 4-3.5 4 3.5 4 3.5" enable-background="new" fill="none" stroke="#fee8bc" stroke-linecap="round"/>
</svg>
