<svg width="24" height="24" version="1" xmlns="http://www.w3.org/2000/svg" xmlns:xlink="http://www.w3.org/1999/xlink">
 <defs>
  <linearGradient id="linearGradient8590-3-3-9" x1="96" x2="96" y1="4" y2="188" gradientTransform="matrix(.11957 0 0 .11957 .52176 .52175)" gradientUnits="userSpaceOnUse">
   <stop stop-color="#fff" offset="0"/>
   <stop stop-color="#fff" stop-opacity=".098039" offset=".125"/>
   <stop stop-color="#fff" stop-opacity=".098039" offset=".925"/>
   <stop stop-color="#fff" stop-opacity=".49804" offset="1"/>
  </linearGradient>
 </defs>
 <ellipse transform="scale(-1)" cx="-12" cy="-12.523" rx="12" ry="11.477" enable-background="new" opacity=".1"/>
 <path d="m12 0.5a11.5 11.5 0 0 0-1.0117 0.0527 11.5 11.5 0 0 1 1.0117-0.0527zm0.96484 0.0469a11.5 11.5 0 0 1 0.63086 0.0781 11.5 11.5 0 0 0-0.63086-0.0781zm-2.4102 0.0586a11.5 11.5 0 0 0-0.73633 0.11328 11.5 11.5 0 0 1 0.73633-0.11328zm3.5449 0.0957a11.5 11.5 0 0 1 0.61914 0.13867 11.5 11.5 0 0 0-0.61914-0.13867zm-4.6035 0.0899a11.5 11.5 0 0 0-0.83203 0.21484 11.5 11.5 0 0 1 0.83203-0.21484zm5.7305 0.17773a11.5 11.5 0 0 1 0.54688 0.18164 11.5 11.5 0 0 0-0.54688-0.18164zm-6.7461 0.0977a11.5 11.5 0 0 0-0.93555 0.34375 11.5 11.5 0 0 1 0.93555-0.34375zm7.8496 0.28711a11.5 11.5 0 0 1 0.51172 0.23046 11.5 11.5 0 0 0-0.51172-0.23046zm-8.8555 0.0879a11.5 11.5 0 0 0-0.98438 0.47851 11.5 11.5 0 0 1 0.98438-0.47851zm-0.98438 0.47851a11.5 11.5 0 0 0-5.9902 10.08 11.5 11.5 0 0 1 3.5-8.2441v2.2441h1.3047a9 9 0 0 0-2.3047 6 9 9 0 0 0 9 9 9 9 0 0 0 4.1191-1h1.8809v1.7949a11.5 11.5 0 0 1-0.49023 0.28516 11.5 11.5 0 0 0 5.9902-10.08 11.5 11.5 0 0 1-3.5 8.2441v-2.2441h-1.3047a9 9 0 0 0 2.3047-6 9 9 0 0 0-9-9 9 9 0 0 0-4.1191 1h-1.8809v-1.7949a11.5 11.5 0 0 1 0.49023-0.28516zm17.01 10.08a11.5 11.5 0 0 0-0.0469-0.96484 11.5 11.5 0 0 1 0.0469 0.96484zm-5.9902 10.08a11.5 11.5 0 0 1-0.98438 0.47851 11.5 11.5 0 0 0 0.98438-0.47851zm-17.01-10.08a11.5 11.5 0 0 0 0.0469 0.96484 11.5 11.5 0 0 1-0.0469-0.96484zm16.861-10.166a11.5 11.5 0 0 1 0.5039 0.28907 11.5 11.5 0 0 0-0.5039-0.28907zm0.98047 0.58204a11.5 11.5 0 0 1 0.49218 0.3496 11.5 11.5 0 0 0-0.49218-0.3496zm0.93554 0.68945a11.5 11.5 0 0 1 0.41797 0.36719 11.5 11.5 0 0 0-0.41797-0.36719zm0.84961 0.76758a11.5 11.5 0 0 1 0.40039 0.43164 11.5 11.5 0 0 0-0.40039-0.43164zm0.76758 0.84961a11.5 11.5 0 0 1 0.33985 0.44336 11.5 11.5 0 0 0-0.33985-0.44336zm0.68945 0.93554a11.5 11.5 0 0 1 0.29297 0.47657 11.5 11.5 0 0 0-0.29297-0.47657zm0.58204 0.98047a11.5 11.5 0 0 1 0.25 0.51953 11.5 11.5 0 0 0-0.25-0.51953zm0.48046 1.0312a11.5 11.5 0 0 1 0.20313 0.55664 11.5 11.5 0 0 0-0.20313-0.55664zm0.38477 1.1035a11.5 11.5 0 0 1 0.12891 0.50781 11.5 11.5 0 0 0-0.12891-0.50781zm0.26758 1.127a11.5 11.5 0 0 1 0.0762 0.50391 11.5 11.5 0 0 0-0.0762-0.50391zm-22.674 3.6953a11.5 11.5 0 0 0 0.0762 0.50391 11.5 11.5 0 0 1-0.0762-0.50391zm0.21484 1.123a11.5 11.5 0 0 0 0.12891 0.50781 11.5 11.5 0 0 1-0.12891-0.50781zm0.31055 1.0547a11.5 11.5 0 0 0 0.20313 0.55664 11.5 11.5 0 0 1-0.20313-0.55664zm0.43359 1.0684a11.5 11.5 0 0 0 0.25 0.51953 11.5 11.5 0 0 1-0.25-0.51953zm0.53907 1.0234a11.5 11.5 0 0 0 0.29297 0.47657 11.5 11.5 0 0 1-0.29297-0.47657zm0.64257 0.96875a11.5 11.5 0 0 0 0.33985 0.44336 11.5 11.5 0 0 1-0.33985-0.44336zm0.70704 0.86133a11.5 11.5 0 0 0 0.40039 0.43164 11.5 11.5 0 0 1-0.40039-0.43164zm0.83203 0.83203a11.5 11.5 0 0 0 0.41797 0.36719 11.5 11.5 0 0 1-0.41797-0.36719zm0.86133 0.70704a11.5 11.5 0 0 0 0.49218 0.3496 11.5 11.5 0 0 1-0.49218-0.3496zm0.96875 0.64257a11.5 11.5 0 0 0 0.5039 0.28907 11.5 11.5 0 0 1-0.5039-0.28907zm1.0234 0.53907a11.5 11.5 0 0 0 0.51172 0.23046 11.5 11.5 0 0 1-0.51172-0.23046zm9.2969 0.17382a11.5 11.5 0 0 1-0.93555 0.34375 11.5 11.5 0 0 0 0.93555-0.34375zm-8.2285 0.25977a11.5 11.5 0 0 0 0.54688 0.18164 11.5 11.5 0 0 1-0.54688-0.18164zm7.1094 0.14453a11.5 11.5 0 0 1-0.83203 0.21484 11.5 11.5 0 0 0 0.83203-0.21484zm-6.0547 0.16602a11.5 11.5 0 0 0 0.61914 0.13867 11.5 11.5 0 0 1-0.61914-0.13867zm4.9004 0.12109a11.5 11.5 0 0 1-0.73633 0.11328 11.5 11.5 0 0 0 0.73633-0.11328zm-3.7773 0.0937a11.5 11.5 0 0 0 0.63086 0.0781 11.5 11.5 0 0 1-0.63086-0.0781zm2.6074 0.0723a11.5 11.5 0 0 1-1.0117 0.05275 11.5 11.5 0 0 0 1.0117-0.0527z" enable-background="new" fill="#4d4d4d"/>
 <path d="m12 0.5a11.5 11.5 0 0 0-6 1.7051v1.7949h1.8809a9 9 0 0 1 4.1191-1 9 9 0 0 1 9 9 9 9 0 0 1-2.3047 6h1.3047v2.2441a11.5 11.5 0 0 0 3.5-8.2441 11.5 11.5 0 0 0-11.5-11.5zm-8 3.2559a11.5 11.5 0 0 0-3.5 8.2441 11.5 11.5 0 0 0 11.5 11.5 11.5 11.5 0 0 0 6-1.7051v-1.7949h-1.8809a9 9 0 0 1-4.1191 1 9 9 0 0 1-9-9 9 9 0 0 1 2.3047-6h-1.3047z" enable-background="new" fill="#ebebeb"/>
 <circle cx="12" cy="12" r="9" enable-background="new" fill="#babeb4" opacity=".1"/>
 <path d="m1.054 13c0.51675 5.6607 5.2613 9.9954 10.946 10 5.6859-2e-3 10.433-4.3376 10.95-10z" enable-background="new" fill="#fff" opacity=".1"/>
 <path d="m10.858 5c-0.46754 0.97402-0.91557 1.9611-1.3441 2.9611-0.42856 0.98701-0.86381 2.026-1.3054 3.117-0.42857 1.0909-1.3246 3.4675-1.3246 3.4675l-1.011 2.4545h2.563l0.92722-2.5478 5.3626 0.29775 0.975 2.25h2.5525l-1.1054-2.4155s-0.90259-2.3702-1.3442-3.4481c-0.42857-1.0909-0.85721-2.1363-1.2858-3.1363-0.42857-1-1.3635-3.0001-1.3635-3.0001h-1.1545zm2.0648 4.9285c0.46753 1.1558 0.94797 2.4026 1.4415 3.7403l-4.6055-0.17526c0.4026-1.1299 0.80525-2.2207 1.2078-3.2726 0.33184-0.85031 0.6767-1.6704 1.0334-2.4628v-0.0152s0.52273 1.1981 0.92282 2.1856z" enable-background="new" fill="#ececec"/>
 <path d="m13.155 5-1.1287 2.775s0.5131 1.2044 0.89702 2.1535c0.46753 1.1558 0.94796 2.4026 1.4415 3.7403l2.464 0.0665c-0.34524-0.9078-0.68679-1.7747-1.0244-2.5989-0.42857-1.0909-0.85721-2.1363-1.2858-3.1363-0.42857-1-1.3635-3.0001-1.3635-3.0001zm-0.36042 9.6641 1.9792 0.13465 0.9268 2.2013h2.5506l-0.95425-2.1949-0.0208-0.055z" enable-background="new" fill="#1f1f1f" opacity=".1"/>
 <rect x="5.0001" y="12" width="14" height="3" rx="1.5" ry="1.5" color="#000000" fill="#f8f8f8"/>
 <path d="m6.5 13c-0.277 0-0.5 0.223-0.5 0.5s0.223 0.5 0.5 0.5h3.9336 3.0664 4.0664c0.24027 0 0.43359-0.19332 0.43359-0.43359v-0.13282c0-0.24027-0.19332-0.43359-0.43359-0.43359h-4.0664-3.0664z" color="#000000" fill="#1f1f1f" opacity=".2"/>
 <rect transform="scale(-1,1)" x="-14" y="13" width="8" height="1" rx=".5" ry=".5" color="#000000" fill="#77216f"/>
 <ellipse cx="12" cy="11.977" rx="11.455" ry="11.477" enable-background="new" fill="none" opacity=".4" stroke="#000" stroke-dashoffset="6.6" stroke-linejoin="round"/>
 <path d="m12 1c-2.2151 0-4.2737 0.66061-6 1.7871v1.2129h0.0156a10 10 0 0 1 5.9844-2 10 10 0 0 1 10 10 10 10 0 0 1-2.0156 6h0.01562v1.5332c1.855-1.9691 3-4.6144 3-7.5332 0-6.0751-4.9249-11-11-11zm-8 3.4668c-1.855 1.9691-3 4.6144-3 7.5332 0 6.0751 4.9249 11 11 11 2.2151 0 4.2737-0.66061 6-1.7871v-1.2129h-0.0156a10 10 0 0 1-5.9844 2 10 10 0 0 1-10-10 10 10 0 0 1 2.0156-6h-0.01562z" enable-background="new" fill="url(#linearGradient8590-3-3-9)"/>
</svg>
