<svg width="24" height="24" version="1" xmlns="http://www.w3.org/2000/svg" xmlns:xlink="http://www.w3.org/1999/xlink">
 <defs>
  <linearGradient id="linearGradient8588-0-1" x1="13.735" x2="38.1" y1="249.69" y2="292.77" gradientTransform="matrix(.48294 0 0 .48294 -.01112 -119.42)" gradientUnits="userSpaceOnUse">
   <stop stop-color="#1a7fd4" offset="0"/>
   <stop stop-color="#37a6e6" offset="1"/>
  </linearGradient>
  <linearGradient id="linearGradient8590-3-3" x1="96" x2="96" y1="4" y2="188" gradientTransform="matrix(.11957 0 0 .11957 .52176 .52174)" gradientUnits="userSpaceOnUse">
   <stop stop-color="#fff" offset="0"/>
   <stop stop-color="#fff" stop-opacity=".098039" offset=".125"/>
   <stop stop-color="#fff" stop-opacity=".098039" offset=".925"/>
   <stop stop-color="#fff" stop-opacity=".49804" offset="1"/>
  </linearGradient>
 </defs>
 <ellipse transform="scale(-1)" cx="-12" cy="-12.523" rx="12" ry="11.477" enable-background="new" opacity=".1"/>
 <ellipse cx="12" cy="12" rx="11.5" ry="11.5" enable-background="new" fill="url(#linearGradient8588-0-1)"/>
 <path d="m1.054 13a11 11 0 0 0 10.946 10 11 11 0 0 0 10.95-10z" enable-background="new" fill="#fff" opacity=".1"/>
 <path d="m12.313 5.5055 1e-3 1e-3c-0.60361 5e-5 -1.1746 0.0692-1.7129 0.207-0.48872 0.12798-0.92166 0.30271-1.3216 0.50473l0.40853 1.13c0.77898-0.39542 1.578-0.61187 2.3959-0.61187 0.68767 0 1.2332 0.18178 1.6087 0.5568 0.37059 0.35733 0.5583 0.83424 0.5583 1.3996 0 0.35247-0.0825 0.68239-0.24614 0.98275-0.14631 0.29198-0.33814 0.57009-0.57488 0.83315-0.23188 0.25763-0.47625 0.51521-0.73363 0.77259l-1e-3 1e-3 -3e-3 1e-3c-0.25083 0.2383-0.48908 0.50197-0.71554 0.79134l-9.9e-4 1e-3 -4.8e-4 9.9e-4c-0.22274 0.27224-0.40791 0.569-0.55664 0.89088-0.1324 0.31391-0.20037 0.66515-0.20037 1.0582 0 0.23576 0.0273 0.4569 0.064 0.67275h1.231c-1e-3 -0.0264-7e-3 -0.05-7e-3 -0.0774v-0.21131c0-0.4388 0.0871-0.83768 0.26273-1.1899 0.17066-0.35445 0.38124-0.6769 0.63112-0.96667l1e-3 -9.9e-4c4.7e-4 -4.7e-4 4.7e-4 -9.7e-4 1e-3 -3e-3 0.2466-0.29828 0.51913-0.58303 0.81688-0.85486 0.2898-0.26461 0.5541-0.5418 0.79301-0.831 0.23633-0.28608 0.4346-0.59045 0.59612-0.91309v-4.7e-4c0.15667-0.32555 0.23636-0.69425 0.23636-1.112 0-0.33055-0.0548-0.67554-0.16653-1.0353l-1e-3 -3e-3 -4.7e-4 -3e-3c-0.0967-0.3629-0.27673-0.68823-0.54487-0.98076-0.26561-0.28976-0.6249-0.52837-1.0838-0.71439l-6e-3 -0.00198c-0.43654-0.19402-1.0136-0.29554-1.73-0.29559zm-0.30552 11.283c-0.36787 0-0.63599 0.11237-0.84078 0.33986-0.21032 0.23367-0.31118 0.49698-0.31118 0.81274s0.10092 0.57957 0.31118 0.81325c0.20479 0.22755 0.47291 0.33919 0.84078 0.33919 0.36788 0 0.63645-0.1117 0.84127-0.33919 0.21028-0.23366 0.31116-0.49749 0.31116-0.81325s-0.10082-0.57907-0.31116-0.81274c-0.20482-0.22757-0.47339-0.33986-0.84127-0.33986z" enable-background="new" fill="#fff"/>
 <ellipse cx="12" cy="11.977" rx="11.455" ry="11.477" enable-background="new" fill="none" opacity=".4" stroke="#000" stroke-dashoffset="6.6" stroke-linejoin="round"/>
 <path d="m12 1c-6.0751 0-11 4.9249-11 11 0 6.0751 4.9249 11 11 11s11-4.9249 11-11c0-6.0751-4.9249-11-11-11zm0 1a10 10 0 0 1 10 10 10 10 0 0 1-10 10 10 10 0 0 1-10-10 10 10 0 0 1 10-10z" enable-background="new" fill="url(#linearGradient8590-3-3)"/>
</svg>
