<svg width="24" height="24" version="1" xmlns="http://www.w3.org/2000/svg" xmlns:xlink="http://www.w3.org/1999/xlink">
 <defs>
  <linearGradient id="linearGradient8588-0-1" x1="13.735" x2="38.1" y1="249.69" y2="292.77" gradientTransform="matrix(.48294 0 0 .48294 -.01112 -119.42)" gradientUnits="userSpaceOnUse">
   <stop stop-color="#da1636" offset="0"/>
   <stop stop-color="#f22c42" offset="1"/>
  </linearGradient>
  <linearGradient id="linearGradient8590-3-3" x1="96" x2="96" y1="4" y2="188" gradientTransform="matrix(.11957 0 0 .11957 .52176 .52174)" gradientUnits="userSpaceOnUse">
   <stop stop-color="#fff" offset="0"/>
   <stop stop-color="#fff" stop-opacity=".098039" offset=".125"/>
   <stop stop-color="#fff" stop-opacity=".098039" offset=".925"/>
   <stop stop-color="#fff" stop-opacity=".49804" offset="1"/>
  </linearGradient>
 </defs>
 <ellipse transform="scale(-1)" cx="-12" cy="-12.523" rx="12" ry="11.477" enable-background="new" opacity=".1"/>
 <ellipse cx="12" cy="12" rx="11.5" ry="11.5" enable-background="new" fill="url(#linearGradient8588-0-1)"/>
 <path d="m1.054 13a11 11 0 0 0 10.946 10 11 11 0 0 0 10.95-10z" enable-background="new" fill="#fff" opacity=".05"/>
 <path d="m11.794 18.388c-2.2815-0.63287-3.1583-3.3488-1.9575-6.0639 0.18653-0.42177 0.33853-0.8054 0.33778-0.85251-7.2e-4 -0.0471-0.46951-0.0986-1.0417-0.11447-1.8422-0.0511-3.3124-0.70826-3.8345-1.7141-0.29726-0.57263-0.30349-1.8168-0.0119-2.3783 0.37254-0.71749 1.099-1.2479 1.9516-1.4249 0.9153-0.19002 0.9788-0.1801 4.5123 0.70487 2.4978 0.62557 2.8464 0.68091 3.9704 0.63026 1.0077-0.0454 1.3727-0.12588 2.0036-0.44165 0.42487-0.21267 0.87075-0.34798 0.99261-0.30122 0.98922 0.3796-1.6821 1.7614-3.7711 1.9508-1.2429 0.11263-2.4207-0.0608-5.2031-0.76605-2.6683-0.67634-3.1147-0.69154-3.5936-0.12232-0.26837 0.31893-0.35445 0.57346-0.35445 1.048 0 0.55321 0.0643 0.68799 0.54792 1.148 0.71366 0.67888 1.6154 0.9431 3.2078 0.93994l1.2416-2e-3 0.45369-0.69369c0.34584-0.5288 0.6194-0.76683 1.1508-1.0013 0.38338-0.16919 0.83785-0.28071 1.0099-0.24781 0.31008 0.0593 0.30848 0.0664-0.1789 0.80048-0.27048 0.40737-0.46704 0.76148-0.4368 0.7869 0.0302 0.0254 0.48625-0.0632 1.0134-0.1969 0.87426-0.22176 0.9732-0.22398 1.1272-0.0253 0.32141 0.41469-0.0705 0.60778-2.0856 1.0275l-0.82147 0.17113-0.48796 0.98422c-1.4487 2.922-0.92162 5.5191 1.12 5.5191 0.40448 0 0.8922-0.10851 1.205-0.26809 1.7943-0.91537 2.8584-4.1131 1.3687-4.1131-0.8076 0-1.7908 0.81463-2.2915 1.8985-0.26587 0.57561-0.40706 0.70502-0.66233 0.60706-0.66122-0.25373 0.59667-2.3365 1.7738-2.937 1.498-0.76422 2.8935-1e-3 2.8929 1.5817-8.2e-4 2.3435-2.8705 4.4985-5.1487 3.8666z" enable-background="new" opacity=".1" stroke-width="3.7797"/>
 <path d="m11.794 17.888c-2.2815-0.63287-3.1583-3.3488-1.9575-6.0639 0.18653-0.42177 0.33853-0.8054 0.33778-0.85251-7.2e-4 -0.0471-0.46951-0.0986-1.0417-0.11447-1.8422-0.0511-3.3124-0.70826-3.8345-1.7141-0.29726-0.57263-0.30349-1.8168-0.0119-2.3783 0.37254-0.71749 1.099-1.2479 1.9516-1.4249 0.9153-0.19002 0.9788-0.1801 4.5123 0.70487 2.4978 0.62557 2.8464 0.68091 3.9704 0.63026 1.0077-0.0454 1.3727-0.12588 2.0036-0.44165 0.42487-0.21267 0.87075-0.34798 0.99261-0.30122 0.98922 0.3796-1.6821 1.7614-3.7711 1.9508-1.2429 0.11263-2.4207-0.0608-5.2031-0.76605-2.6683-0.67634-3.1147-0.69154-3.5936-0.12232-0.26837 0.31893-0.35445 0.57346-0.35445 1.048 0 0.55321 0.0643 0.68799 0.54792 1.148 0.71366 0.67888 1.6154 0.9431 3.2078 0.93994l1.2416-2e-3 0.45369-0.69369c0.34584-0.5288 0.6194-0.76683 1.1508-1.0013 0.38338-0.16919 0.83785-0.28071 1.0099-0.24781 0.31008 0.0593 0.30848 0.0664-0.1789 0.80048-0.27048 0.40737-0.46704 0.76148-0.4368 0.7869 0.0302 0.0254 0.48625-0.0632 1.0134-0.1969 0.87426-0.22176 0.9732-0.22398 1.1272-0.0253 0.32141 0.41469-0.0705 0.60778-2.0856 1.0275l-0.82147 0.17113-0.48796 0.98422c-1.4487 2.922-0.92162 5.5191 1.12 5.5191 0.40448 0 0.8922-0.10851 1.205-0.26809 1.7943-0.91537 2.8584-4.1131 1.3687-4.1131-0.8076 0-1.7908 0.81463-2.2915 1.8985-0.26587 0.57561-0.40706 0.70502-0.66233 0.60706-0.66122-0.25373 0.59667-2.3365 1.7738-2.937 1.498-0.76422 2.8935-1e-3 2.8929 1.5817-8.2e-4 2.3435-2.8705 4.4985-5.1487 3.8666z" enable-background="new" fill="#fff" stroke-width="3.7797"/>
 <ellipse cx="12" cy="11.977" rx="11.455" ry="11.477" enable-background="new" fill="none" opacity=".4" stroke="#000" stroke-dashoffset="6.6" stroke-linejoin="round"/>
 <path d="m12 1c-6.0751 0-11 4.9249-11 11 0 6.0751 4.9249 11 11 11s11-4.9249 11-11c0-6.0751-4.9249-11-11-11zm0 1a10 10 0 0 1 10 10 10 10 0 0 1-10 10 10 10 0 0 1-10-10 10 10 0 0 1 10-10z" enable-background="new" fill="url(#linearGradient8590-3-3)"/>
</svg>
