<svg width="24" height="24" version="1" xmlns="http://www.w3.org/2000/svg" xmlns:xlink="http://www.w3.org/1999/xlink">
 <defs>
  <linearGradient id="linearGradient1690" x1="321" x2="343" y1="200" y2="200" gradientTransform="matrix(0 1 1 0 -188 -320)" gradientUnits="userSpaceOnUse">
   <stop stop-color="#8c8c8c" offset="0"/>
   <stop stop-color="#b8b8b8" offset="1"/>
  </linearGradient>
  <linearGradient id="linearGradient4655-4-4" x1="72" x2="232" y1="156" y2="156" gradientTransform="matrix(0 -.1 .1 0 -3.6 27.1)" gradientUnits="userSpaceOnUse">
   <stop stop-color="#fdfdfd" offset="0"/>
   <stop stop-color="#f1f0e9" offset="1"/>
  </linearGradient>
  <filter id="filter2357-4" x="-1.5603e-9" y="-4.8628e-9" width="1" height="1" color-interpolation-filters="sRGB">
   <feGaussianBlur stdDeviation="1.0806258e-07"/>
  </filter>
  <linearGradient id="linearGradient1690-9" x1="321" x2="343" y1="200" y2="200" gradientTransform="rotate(90 266 -54)" gradientUnits="userSpaceOnUse">
   <stop stop-color="#fff" offset="0"/>
   <stop stop-color="#fff" stop-opacity=".098039" offset=".125"/>
   <stop stop-color="#fff" stop-opacity=".098039" offset=".925"/>
   <stop stop-color="#fff" stop-opacity=".49804" offset="1"/>
  </linearGradient>
 </defs>
 <path d="m6.4527 1.0005c-1.2321 0-2.2167 0.0221-3.07 0.14144-0.85332 0.11937-1.6281 0.35533-2.2107 0.83967-0.58256 0.48436-0.86983 1.1338-1.0119 1.8459-0.14202 0.71207-0.16501 1.5324-0.15897 2.562v7.6107 4.6143c-6e-3 1.0276 0.0171 1.8474 0.15897 2.5584 0.14203 0.71208 0.42931 1.3615 1.0119 1.8459 0.58258 0.48434 1.3573 0.7203 2.2107 0.83967 0.85331 0.11936 1.8379 0.14144 3.07 0.14144h11.095c1.2321 0 2.2138-0.022 3.0657-0.14144 0.85187-0.11947 1.628-0.35683 2.2085-0.84146 0.58057-0.48464 0.86451-1.1315 1.0076-1.8423 0.14307-0.71077 0.16972-1.5314 0.16972-2.5602v-4.6143-7.6142c0-1.0288-0.0266-1.8495-0.16972-2.5602-0.14307-0.71076-0.42701-1.3576-1.0076-1.8423-0.58055-0.48464-1.3566-0.722-2.2085-0.84147-0.8519-0.11947-1.8336-0.14144-3.0657-0.14144z" color="#000000" color-rendering="auto" dominant-baseline="auto" image-rendering="auto" opacity=".1" shape-rendering="auto" solid-color="#000000" style="font-feature-settings:normal;font-variant-alternates:normal;font-variant-caps:normal;font-variant-ligatures:normal;font-variant-numeric:normal;font-variant-position:normal;isolation:auto;mix-blend-mode:normal;shape-padding:0;text-decoration-color:#000000;text-decoration-line:none;text-decoration-style:solid;text-indent:0;text-orientation:mixed;text-transform:none;white-space:normal"/>
 <path d="m17.822 0.49945c5.1467 0 5.7004 0.43262 5.6752 4.6531v5.8479 7.8476c0.0253 4.2205-0.52855 4.6531-5.6752 4.6531h-11.646c-5.1466 0-5.6752-0.43255-5.6752-4.6531v-7.8476-5.8479c0-4.2205 0.52857-4.6531 5.6752-4.6531z" color="#000000" fill="url(#linearGradient1690)"/>
 <path d="m12 0.5v23.002h5.8223c5.1467 0 5.699-0.43382 5.6738-4.6543v-13.695c0.0253-4.2205-0.52716-4.6523-5.6738-4.6523z" enable-background="new" opacity=".04" stroke-width="4"/>
 <path d="m4.8 7.2c-0.4432 0-0.8 0.3568-0.8 0.8v12.2c0 0.44321 0.3568 0.8 0.8 0.8h14.4c0.4432 0 0.8-0.35679 0.8-0.8v-12.2c0-0.4432-0.3568-0.8-0.8-0.8zm9.2 1.8v5h2.8l-4.8 6-4.8-6h2.8v-5h0.59754z" enable-background="new" opacity=".1" stroke-width=".4"/>
 <path d="m4.8 6.2c-0.4432 0-0.8 0.35681-0.8 0.80001v12.2c0 0.44321 0.3568 0.80001 0.8 0.80001h14.4c0.4432 0 0.8-0.3568 0.8-0.80001v-12.2c0-0.44321-0.3568-0.80001-0.8-0.80001zm9.2 2.8v4h2.8l-4.8 6-4.8-6h2.8v-4z" enable-background="new" fill="url(#linearGradient4655-4-4)" stroke-width=".4"/>
 <path d="m4.8 6.3c-0.4432 0-0.8 0.35681-0.8 0.80001v5.9h6v-4h4v4h6v-5.9c0-0.4432-0.3568-0.80001-0.8-0.80001z" enable-background="new" opacity=".06" stroke-width=".4"/>
 <circle cx="5.75" cy="18.25" r=".75" enable-background="new" fill="#c8c4b7" stroke-width=".375"/>
 <circle cx="18.25" cy="18.25" r=".75" enable-background="new" fill="#c8c4b7" stroke-width=".375"/>
 <path d="m12 4.5c-1.108 0-2 0.223-2 0.5h-2.1465c-2.2971 0-3.6347 0.3861-3.7461 0.83398 0 0-0.0272 0.12319-0.0391 0.16602h-0.25c-0.45323 0-0.81832 0.669-0.81832 1.5s0.36509 1.5 0.81836 1.5h0.25c0.0119 0.0428 0.0391 0.16602 0.0391 0.16602 0 0.46166 1.449 0.83398 3.7461 0.83398h2.1464c0 0.277 0.892 0.5 2 0.5s2-0.223 2-0.5h2.1465c2.2971 0 3.6347-0.3861 3.7461-0.83398 0 0 0.0243-0.12686 0.0332-0.16602h0.25586c0.45327 0 0.81836-0.669 0.81836-1.5s-0.36509-1.5-0.81836-1.5h-0.25586c-9e-3 -0.0392-0.0332-0.16602-0.0332-0.16602 0-0.46166-1.449-0.83398-3.7461-0.83398h-2.1465c0-0.277-0.892-0.5-2-0.5z" enable-background="new" opacity=".25" stroke-width=".39168"/>
 <g transform="matrix(.10227 0 0 .09375 -33.818 7.25)" enable-background="new">
  <g transform="translate(296 -108)" enable-background="new">
   <rect x="64" y="84" width="176" height="32" rx="8" ry="16" enable-background="new" fill="#fdfdfd" stroke-width="4"/>
   <path d="m111.46 73.333h81.084c22.46 0 36.628 3.9644 36.628 8.8889 0 0 2.0271 8.8889 2.0271 17.778 0 8.8889-2.0271 17.778-2.0271 17.778-1.0895 4.7774-14.167 8.8889-36.628 8.8889h-81.084c-22.46 0-36.628-3.9644-36.628-8.8889 0 0-2.0271-6.6667-2.0271-17.778s2.0271-17.778 2.0271-17.778c1.0895-4.7774 14.167-8.8889 36.628-8.8889z" enable-background="new" fill="#ff2a2a" filter="url(#filter2357-4)" stroke-width="4.2448"/>
   <rect x="132.44" y="68" width="39.111" height="64" rx="19.556" ry="5.3333" enable-background="new" fill="#fdfdfd" stroke-width="4.3818"/>
  </g>
 </g>
 <path d="m12 3.5c-1.108 0-2 0.223-2 0.5h-2.1465c-2.2971 0-3.6347 0.3861-3.7461 0.83398 0 0-0.0272 0.12319-0.0391 0.16602h-0.25c-0.45323 0-0.81832 0.669-0.81832 1.5 0 0.17785 0.024 0.34196 0.0547 0.5 0.11286-0.58039 0.40744-1 0.76367-1h0.25c0.0119-0.0428 0.0391-0.16602 0.0391-0.16602 0.11138-0.44788 1.449-0.83398 3.746-0.83398h2.1465c0-0.277 0.892-0.5 2-0.5s2 0.223 2 0.5h2.1465c2.2971 0 3.7461 0.37232 3.7461 0.83398 0 0 0.0242 0.12682 0.0332 0.16602h0.25586c0.35626 0 0.65081 0.41961 0.76367 1 0.0307-0.15804 0.0547-0.32215 0.0547-0.5 0-0.831-0.36509-1.5-0.81836-1.5h-0.25586c-9e-3 -0.0392-0.0332-0.16602-0.0332-0.16602 0-0.46166-1.449-0.83398-3.7461-0.83398h-2.1465c0-0.277-0.892-0.5-2-0.5z" enable-background="new" fill="#fdfdfd" opacity=".6" stroke-width=".39168"/>
 <path d="m17.977 23.5c4.6719 0 5.5471-0.42296 5.5226-4.5492v-7.9504-5.9508c0.0245-4.1263-0.85068-4.5492-5.5226-4.5492h-11.954c-4.6707 0-5.5226 0.42291-5.5226 4.5492v5.9508 7.9504c0 4.1263 0.85185 4.5492 5.5226 4.5492z" color="#000000" fill="none" opacity=".5" stroke="#000"/>
 <path d="m6.0238 1.0005c-2.3203 0-3.6094 0.15494-4.207 0.62109-0.29882 0.23308-0.48964 0.54668-0.625 1.0957-0.13541 0.54902-0.19141 1.3176-0.19141 2.332v5.9512 7.9508c0 1.0144 0.056 1.783 0.19141 2.332 0.13536 0.54903 0.32618 0.86263 0.625 1.0957 0.59762 0.46615 1.8868 0.62109 4.207 0.62109h11.952c2.3208 0 3.6165-0.15457 4.2168-0.62109 0.30014-0.23327 0.49095-0.54754 0.625-1.0957 0.13404-0.54816 0.18764-1.3162 0.18164-2.3301v-7.9528-5.9531c6e-3 -1.0139-0.0476-1.7819-0.18164-2.3301-0.13406-0.54817-0.32486-0.86244-0.625-1.0957-0.60028-0.46652-1.896-0.62109-4.2168-0.62109zm4.9586 1.0098c1.5798-2e-3 4.1601-3.9e-4 5.7399 0.0117 1.5002 0.0511 3.0224-0.0712 4.5 0.28321 0.55111 0.0919 0.61303 0.71807 0.67773 1.166 0.1117 4.3083 0.075 10.626 0.0508 14.941-0.0716 0.99089 0.13687 2.0761-0.30078 3.0137-0.34356 0.40964-0.9694 0.35958-1.4512 0.45509-3.9541 0.0823-9.9294 0.0499-13.894 0.0371-1.1691-0.0622-2.3729 0.11291-3.5176-0.22266-0.57935-0.098-0.6137-0.75914-0.6875-1.2207-0.1146-4.1184-0.0751-10.245-0.0547-14.369 0.0572-1.063-0.0797-2.1673 0.18164-3.2148 0.10495-0.6386 0.8614-0.66043 1.3672-0.74023 2.1305-0.19658 5.2407-0.10662 7.3883-0.14062z" color="#000000" fill="url(#linearGradient1690-9)" filter="url(#filter2970)"/>
</svg>
