<svg width="24" height="24" version="1" xmlns="http://www.w3.org/2000/svg" xmlns:xlink="http://www.w3.org/1999/xlink">
 <defs>
  <linearGradient id="linearGradient3475" x1="335" x2="335" y1="190" y2="210" gradientTransform="translate(-320,-188)" gradientUnits="userSpaceOnUse">
   <stop stop-color="#fff" offset="0"/>
   <stop stop-color="#fff" stop-opacity="0" offset=".090625"/>
   <stop stop-color="#fff" stop-opacity="0" offset="1"/>
  </linearGradient>
  <linearGradient id="linearGradient3566" x1="332" x2="332" y1="192" y2="208" gradientTransform="translate(-320,-188)" gradientUnits="userSpaceOnUse">
   <stop stop-color="#0b508a" offset="0"/>
   <stop stop-color="#083d6a" offset="1"/>
  </linearGradient>
  <clipPath id="clipPath3434">
   <path d="m331.49 190.8c-3.5318 0-5.133 0.43509-5.5957 0.89844-0.54571 0.5464-0.89844 1.7667-0.89844 4.9004s0.35273 4.354 0.89844 4.9004c0.46275 0.46335 2.0639 0.90039 5.5957 0.90039h1.0117c3.5318 0 5.133-0.43705 5.5957-0.90039 0.54571-0.5464 0.89844-1.7667 0.89844-4.9004s-0.35273-4.354-0.89844-4.9004c-0.46275-0.46334-2.0639-0.89844-5.5957-0.89844z" color="#000000" color-rendering="auto" dominant-baseline="auto" enable-background="new" fill="#1463a5" image-rendering="auto" shape-rendering="auto" solid-color="#000000" style="font-feature-settings:normal;font-variant-alternates:normal;font-variant-caps:normal;font-variant-ligatures:normal;font-variant-numeric:normal;font-variant-position:normal;isolation:auto;mix-blend-mode:normal;shape-padding:0;text-decoration-color:#000000;text-decoration-line:none;text-decoration-style:solid;text-indent:0;text-orientation:mixed;text-transform:none;white-space:normal"/>
  </clipPath>
 </defs>
 <path d="m11.293 2.5c-3.6052 0-5.5307 0.29703-6.5137 1.2812s-1.2793 2.9128-1.2793 6.5215v5.3945c0 3.6087 0.29634 5.5373 1.2793 6.5215s2.9085 1.2812 6.5137 1.2812h1.4141c3.6052 0 5.5307-0.29703 6.5137-1.2812 0.98296-0.98422 1.2793-2.9128 1.2793-6.5215v-5.3945c0-3.6087-0.29634-5.5373-1.2793-6.5215-0.98295-0.98422-2.9085-1.2812-6.5137-1.2812z" enable-background="new" opacity=".1" stroke="#103134" stroke-linecap="round" stroke-linejoin="round"/>
 <path d="m11.293 1.5c-3.6052 0-5.5307 0.29703-6.5137 1.2812s-1.2793 2.9128-1.2793 6.5215v5.3945c0 3.6087 0.29634 5.5373 1.2793 6.5215s2.9085 1.2812 6.5137 1.2812h1.4141c3.6052 0 5.5307-0.29703 6.5137-1.2812 0.98296-0.98422 1.2793-2.9128 1.2793-6.5215v-5.3945c0-3.6087-0.29634-5.5373-1.2793-6.5215-0.98295-0.98422-2.9085-1.2812-6.5137-1.2812z" enable-background="new" fill="#1a7fd4" stroke="#0b3457" stroke-linecap="round" stroke-linejoin="round" stroke-opacity=".68372"/>
 <path d="m11.22 16.059-0.40625 0.69792 1.1562 0.66667 0.78125-1.3646zm1.7292 0-0.58334 1.0104 0.375 0.63542-0.28124 0.16667 1.3646 0.37499 0.36458-1.375-0.29167 0.16667-0.57291-0.97917zm-1.7292 1.3125-1.3646 0.37499 0.29167 0.16667-0.5 0.84375 0.27083 0.46875h1.0104l0.37499-0.64583 0.28125 0.16666zm3.3438 0.82291-1.1562 0.66667 0.70833 1.2604 0.10412-0.17708 0.23958-0.42708 0.0729-0.125 0.36458-0.63542zm-1.9583 0.86458-1 1 1 1v-0.33332h1.1667l0.26042-0.44793-0.51042-0.88541h-0.91666zm-2.5938 0.33334 0.0937 0.16667 0.3125 0.55208 0.35416 0.61459h0.5v-1.3333z" enable-background="new" fill="#fff"/>
 <path d="m11.293 2.5h1.4141c3.5503 0 5.214 0.3949 5.8066 0.98828 0.59241 0.59317 0.98633 2.2605 0.98633 5.8144v5.3945c0 3.5539-0.39392 5.2213-0.98633 5.8144-0.59261 0.59338-2.2564 0.98828-5.8066 0.98828h-1.4141c-3.5503 0-5.214-0.39489-5.8066-0.98828-0.59241-0.59317-0.98633-2.2605-0.98633-5.8144v-5.3945c0-3.5539 0.39392-5.2213 0.98633-5.8144 0.59262-0.59339 2.2564-0.98828 5.8066-0.98828z" color="#000000" color-rendering="auto" dominant-baseline="auto" enable-background="new" fill="none" image-rendering="auto" shape-rendering="auto" solid-color="#000000" stroke="url(#linearGradient3475)" stroke-linecap="round" stroke-linejoin="round" stroke-opacity=".50196" style="font-feature-settings:normal;font-variant-alternates:normal;font-variant-caps:normal;font-variant-ligatures:normal;font-variant-numeric:normal;font-variant-position:normal;isolation:auto;mix-blend-mode:normal;shape-padding:0;text-decoration-color:#000000;text-decoration-line:none;text-decoration-style:solid;text-indent:0;text-orientation:mixed;text-transform:none;white-space:normal"/>
 <path d="m11.494 3.8008c-3.5318 0-5.133 0.43509-5.5957 0.89844-0.54571 0.5464-0.89844 1.7667-0.89844 4.9004 0 3.1337 0.35273 4.354 0.89844 4.9004 0.46275 0.46335 2.0639 0.90039 5.5957 0.90039h1.0117c3.5318 0 5.133-0.43705 5.5957-0.90039 0.54571-0.5464 0.89844-1.7667 0.89844-4.9004 0-3.1337-0.35273-4.354-0.89844-4.9004-0.46275-0.46334-2.0639-0.89844-5.5957-0.89844z" color="#000000" color-rendering="auto" dominant-baseline="auto" enable-background="new" fill="#fff" image-rendering="auto" opacity=".2" shape-rendering="auto" solid-color="#000000" style="font-feature-settings:normal;font-variant-alternates:normal;font-variant-caps:normal;font-variant-ligatures:normal;font-variant-numeric:normal;font-variant-position:normal;isolation:auto;mix-blend-mode:normal;shape-padding:0;text-decoration-color:#000000;text-decoration-line:none;text-decoration-style:solid;text-indent:0;text-orientation:mixed;text-transform:none;white-space:normal"/>
 <path d="m11.494 2.8008c-3.5318 0-5.133 0.43509-5.5957 0.89844-0.54571 0.5464-0.89844 1.7667-0.89844 4.9004 0 3.1337 0.35273 4.354 0.89844 4.9004 0.46275 0.46335 2.0639 0.90039 5.5957 0.90039h1.0117c3.5318 0 5.133-0.43705 5.5957-0.90039 0.54571-0.5464 0.89844-1.7667 0.89844-4.9004 0-3.1337-0.35273-4.354-0.89844-4.9004-0.46275-0.46334-2.0639-0.89844-5.5957-0.89844z" color="#000000" color-rendering="auto" dominant-baseline="auto" enable-background="new" fill="url(#linearGradient3566)" image-rendering="auto" shape-rendering="auto" solid-color="#000000" style="font-feature-settings:normal;font-variant-alternates:normal;font-variant-caps:normal;font-variant-ligatures:normal;font-variant-numeric:normal;font-variant-position:normal;isolation:auto;mix-blend-mode:normal;shape-padding:0;text-decoration-color:#000000;text-decoration-line:none;text-decoration-style:solid;text-indent:0;text-orientation:mixed;text-transform:none;white-space:normal"/>
 <path transform="translate(-320,-188)" d="m331.49 190.8c-3.5318 0-5.133 0.43509-5.5957 0.89844-0.54571 0.5464-0.89844 1.7667-0.89844 4.9004s0.35273 4.354 0.89844 4.9004c0.46275 0.46335 2.0639 0.90039 5.5957 0.90039h1.0117c3.5318 0 5.133-0.43705 5.5957-0.90039 0.54571-0.5464 0.89844-1.7667 0.89844-4.9004s-0.35273-4.354-0.89844-4.9004c-0.46275-0.46334-2.0639-0.89844-5.5957-0.89844z" clip-path="url(#clipPath3434)" color="#000000" color-rendering="auto" dominant-baseline="auto" enable-background="new" fill="none" image-rendering="auto" opacity=".1" shape-rendering="auto" solid-color="#000000" stroke="#000" stroke-linecap="round" stroke-linejoin="round" stroke-width="2" style="font-feature-settings:normal;font-variant-alternates:normal;font-variant-caps:normal;font-variant-ligatures:normal;font-variant-numeric:normal;font-variant-position:normal;isolation:auto;mix-blend-mode:normal;shape-padding:0;text-decoration-color:#000000;text-decoration-line:none;text-decoration-style:solid;text-indent:0;text-orientation:mixed;text-transform:none;white-space:normal"/>
</svg>
