<svg width="24" height="24" version="1" xmlns="http://www.w3.org/2000/svg" xmlns:xlink="http://www.w3.org/1999/xlink">
 <defs>
  <linearGradient id="linearGradient1690" x1="321" x2="343" y1="203" y2="197" gradientTransform="rotate(90 266 -54)" gradientUnits="userSpaceOnUse">
   <stop stop-color="#4d4d4d" offset="0"/>
   <stop stop-color="#4d4d4d" offset="1"/>
  </linearGradient>
  <linearGradient id="linearGradient1690-9" x1="321" x2="343" y1="200" y2="200" gradientTransform="rotate(90 266 -54)" gradientUnits="userSpaceOnUse">
   <stop stop-color="#fff" offset="0"/>
   <stop stop-color="#fff" stop-opacity=".098039" offset=".125"/>
   <stop stop-color="#fff" stop-opacity=".098039" offset=".925"/>
   <stop stop-color="#fff" stop-opacity=".49804" offset="1"/>
  </linearGradient>
 </defs>
 <path d="m6.4528 1.0005c-1.2321 0-2.2167 0.0221-3.07 0.14144-0.85332 0.11937-1.6281 0.35533-2.2107 0.83967-0.58256 0.48436-0.86983 1.1338-1.0119 1.8459-0.14202 0.71207-0.16501 1.5324-0.15897 2.562v7.6107 4.6143c-6e-3 1.0276 0.0171 1.8474 0.15897 2.5584 0.14203 0.71208 0.42931 1.3615 1.0119 1.8459 0.58258 0.48434 1.3573 0.7203 2.2107 0.83967 0.85331 0.11936 1.8379 0.14144 3.07 0.14144h11.095c1.2321 0 2.2138-0.022 3.0657-0.14144 0.85187-0.11947 1.628-0.35683 2.2085-0.84146 0.58057-0.48464 0.86451-1.1315 1.0076-1.8423 0.14307-0.71077 0.16972-1.5314 0.16972-2.5602v-4.6143-7.6142c0-1.0288-0.0266-1.8495-0.16972-2.5602-0.14307-0.71076-0.42701-1.3576-1.0076-1.8423-0.58055-0.48464-1.3566-0.722-2.2085-0.84147-0.8519-0.11947-1.8336-0.14144-3.0657-0.14144z" color="#000000" color-rendering="auto" dominant-baseline="auto" image-rendering="auto" opacity=".1" shape-rendering="auto" solid-color="#000000" style="font-feature-settings:normal;font-variant-alternates:normal;font-variant-caps:normal;font-variant-ligatures:normal;font-variant-numeric:normal;font-variant-position:normal;isolation:auto;mix-blend-mode:normal;shape-padding:0;text-decoration-color:#000000;text-decoration-line:none;text-decoration-style:solid;text-indent:0;text-orientation:mixed;text-transform:none;white-space:normal"/>
 <path d="m6.1769 0.49945c-5.1467 0-5.7004 0.43262-5.6752 4.6531v5.8479 7.8476c-0.0253 4.2205 0.52855 4.6531 5.6752 4.6531h11.646c5.1466 0 5.6752-0.43255 5.6752-4.6531v-7.8476-5.8479c0-4.2205-0.52857-4.6531-5.6752-4.6531z" color="#000000" fill="url(#linearGradient1690)"/>
 <path d="m15.579 4.8346a0.94495 0.94495 0 0 0-0.77396 0.47173 0.94495 0.94495 0 0 0 0.34571 1.2914 0.94495 0.94495 0 0 0 1.2914-0.34571 0.94495 0.94495 0 0 0-0.34571-1.2914 0.94495 0.94495 0 0 0-0.51746-0.12602zm-6.0824 1.4776a0.59632 0.59632 0 0 0-0.59664 0.59664 0.59632 0.59632 0 0 0 0.59664 0.59552 0.59632 0.59632 0 0 0 0.59552-0.59552 0.59632 0.59632 0 0 0-0.59552-0.59664zm1.5011 0.15167a0.52051 0.52051 0 0 0-0.5208 0.5208 0.52051 0.52051 0 0 0 0.5208 0.51969 0.52051 0.52051 0 0 0 0.51969-0.51969 0.52051 0.52051 0 0 0-0.51969-0.5208zm-3.2453 0.0602a0.70245 0.70245 0 0 0-0.70257 0.70258 0.70245 0.70245 0 0 0 0.70257 0.70259 0.70245 0.70245 0 0 0 0.70259-0.70259 0.70245 0.70245 0 0 0-0.70259-0.70258zm4.4809 0.36467a0.45228 0.45228 0 0 0-0.45277 0.45166 0.45228 0.45228 0 0 0 0.45277 0.45278 0.45228 0.45228 0 0 0 0.45166-0.45278 0.45228 0.45228 0 0 0-0.45166-0.45166zm3.6066 0.49069a0.80858 0.80858 0 0 0-0.66243 0.40371 0.80858 0.80858 0 0 0 0.29665 1.104 0.80858 0.80858 0 0 0 1.104-0.29552 0.80858 0.80858 0 0 0-0.29552-1.1052 0.80858 0.80858 0 0 0-0.44275-0.10706zm-2.6665 0.0848a0.39163 0.39163 0 0 0-0.39255 0.39144 0.39163 0.39163 0 0 0 0.39255 0.39255 0.39163 0.39163 0 0 0 0.39144-0.39255 0.39163 0.39163 0 0 0-0.39144-0.39144zm4.7218 0.2052a0.80858 0.80858 0 0 0-0.66132 0.40371 0.80858 0.80858 0 0 0 0.29552 1.104 0.80858 0.80858 0 0 0 1.1052-0.29553 0.80858 0.80858 0 0 0-0.29665-1.1041 0.80858 0.80858 0 0 0-0.44273-0.10817zm-8.1265 0.37136a0.59632 0.59632 0 0 0-0.59552 0.59664 0.59632 0.59632 0 0 0 0.59552 0.59553 0.59632 0.59632 0 0 0 0.59664-0.59553 0.59632 0.59632 0 0 0-0.59664-0.59664zm4.1017 0.10595a0.33099 0.33099 0 0 0-0.33121 0.33121 0.33099 0.33099 0 0 0 0.33121 0.33123 0.33099 0.33099 0 0 0 0.33121-0.33123 0.33099 0.33099 0 0 0-0.33121-0.33121zm-2.6007 0.0458a0.52051 0.52051 0 0 0-0.5197 0.52081 0.52051 0.52051 0 0 0 0.5197 0.51968 0.52051 0.52051 0 0 0 0.5208-0.51968 0.52051 0.52051 0 0 0-0.5208-0.52081zm-3.2442 0.0602a0.70245 0.70245 0 0 0-0.70258 0.70258 0.70245 0.70245 0 0 0 0.70258 0.70258 0.70245 0.70245 0 0 0 0.70258-0.70258 0.70245 0.70245 0 0 0-0.70258-0.70258zm4.4798 0.36467a0.45228 0.45228 0 0 0-0.45166 0.45166 0.45228 0.45228 0 0 0 0.45166 0.45277 0.45228 0.45228 0 0 0 0.45277-0.45277 0.45228 0.45228 0 0 0-0.45277-0.45166zm-6.3902 0.33345a0.80858 0.80858 0 0 0-0.80853 0.80853 0.80858 0.80858 0 0 0 0.80853 0.80853 0.80858 0.80858 0 0 0 0.80853-0.80853 0.80858 0.80858 0 0 0-0.80853-0.80853zm7.3303 0.242a0.39163 0.39163 0 0 0-0.39145 0.39144 0.39163 0.39163 0 0 0 0.39145 0.39144 0.39163 0.39163 0 0 0 0.39143-0.39144 0.39163 0.39163 0 0 0-0.39143-0.39144zm2.1401 0.34906a0.70245 0.70245 0 0 0-0.57545 0.35018 0.70245 0.70245 0 0 0 0.25762 0.96019 0.70245 0.70245 0 0 0 0.95907-0.25762 0.70245 0.70245 0 0 0-0.25649-0.95907 0.70245 0.70245 0 0 0-0.38475-0.0937zm2.0553 0.28996a0.70245 0.70245 0 0 0-0.57433 0.35017 0.70245 0.70245 0 0 0 0.25649 0.96019 0.70245 0.70245 0 0 0 0.9602-0.25761 0.70245 0.70245 0 0 0-0.25761-0.95908 0.70245 0.70245 0 0 0-0.38475-0.0937zm-7.095 0.13493a0.59632 0.59632 0 0 0-0.59664 0.59552 0.59632 0.59632 0 0 0 0.59664 0.59665 0.59632 0.59632 0 0 0 0.59664-0.59665 0.59632 0.59632 0 0 0-0.59664-0.59552zm1.5011 0.15056a0.52051 0.52051 0 0 0-0.5208 0.5208 0.52051 0.52051 0 0 0 0.5208 0.52081 0.52051 0.52051 0 0 0 0.51969-0.52081 0.52051 0.52051 0 0 0-0.51969-0.5208zm-3.2453 0.0613a0.70245 0.70245 0 0 0-0.70257 0.70258 0.70245 0.70245 0 0 0 0.70257 0.70258 0.70245 0.70245 0 0 0 0.70259-0.70258 0.70245 0.70245 0 0 0-0.70259-0.70258zm10.473 0.28103a0.70245 0.70245 0 0 0-0.57545 0.35018 0.70245 0.70245 0 0 0 0.25761 0.9602 0.70245 0.70245 0 0 0 0.95909-0.25762 0.70245 0.70245 0 0 0-0.2565-0.95908 0.70245 0.70245 0 0 0-0.38475-0.0937zm-5.992 0.0825a0.45228 0.45228 0 0 0-0.45277 0.45278 0.45228 0.45228 0 0 0 0.45277 0.45165 0.45228 0.45228 0 0 0 0.45167-0.45165 0.45228 0.45228 0 0 0-0.45167-0.45278zm-6.3912 0.33345a0.80858 0.80858 0 0 0-0.80853 0.80852 0.80858 0.80858 0 0 0 0.80853 0.80853 0.80858 0.80858 0 0 0 0.80853-0.80853 0.80858 0.80858 0 0 0-0.80853-0.80852zm8.1031 0.44162a0.59632 0.59632 0 0 0-0.48845 0.29776 0.59632 0.59632 0 0 0 0.21858 0.8141 0.59632 0.59632 0 0 0 0.8141-0.21858 0.59632 0.59632 0 0 0-0.21747-0.8141 0.59632 0.59632 0 0 0-0.32676-0.0792zm2.0553 0.28995a0.59632 0.59632 0 0 0-0.48735 0.29776 0.59632 0.59632 0 0 0 0.21746 0.81411 0.59632 0.59632 0 0 0 0.81523-0.21859 0.59632 0.59632 0 0 0-0.21859-0.81409 0.59632 0.59632 0 0 0-0.32675-0.0792zm-6.4281 0.47285a0.45228 0.45228 0 0 0-0.21635 0.0613 0.45228 0.45228 0 0 0-0.16506 0.61782 0.45228 0.45228 0 0 0 0.61783 0.16506 0.45228 0.45228 0 0 0 0.16505-0.61783 0.45228 0.45228 0 0 0-0.40147-0.22639zm-5.6887 0.0836a0.94495 0.94495 0 0 0-0.94459 0.9457 0.94495 0.94495 0 0 0 0.94459 0.94458 0.94495 0.94495 0 0 0 0.9457-0.94458 0.94495 0.94495 0 0 0-0.9457-0.9457zm13.751 0.0714a0.59632 0.59632 0 0 0-0.48847 0.29775 0.59632 0.59632 0 0 0 0.21859 0.81411 0.59632 0.59632 0 0 0 0.8141-0.21858 0.59632 0.59632 0 0 0-0.21747-0.8141 0.59632 0.59632 0 0 0-0.32675-0.0792zm-4.5021 0.41931a0.52051 0.52051 0 0 0-0.42601 0.25985 0.52051 0.52051 0 0 0 0.1907 0.7115 0.52051 0.52051 0 0 0 0.7115-0.1907 0.52051 0.52051 0 0 0-0.19069-0.7115 0.52051 0.52051 0 0 0-0.2855-0.0692zm-4.8612 0.0502a0.39163 0.39163 0 0 0-0.18736 0.0524 0.39163 0.39163 0 0 0-0.14274 0.5353 0.39163 0.39163 0 0 0 0.53529 0.14275 0.39163 0.39163 0 0 0 0.14275-0.53419 0.39163 0.39163 0 0 0-0.34794-0.19627zm6.9176 0.24089a0.52051 0.52051 0 0 0-0.426 0.25872 0.52051 0.52051 0 0 0 0.18958 0.7115 0.52051 0.52051 0 0 0 0.7115-0.19069 0.52051 0.52051 0 0 0-0.1907-0.71039 0.52051 0.52051 0 0 0-0.28438-0.0692zm-8.0875 6e-3a0.33099 0.33099 0 0 0-0.15724 0.0446 0.33099 0.33099 0 0 0-0.12156 0.45167 0.33099 0.33099 0 0 0 0.45278 0.12155 0.33099 0.33099 0 0 0 0.12044-0.45277 0.33099 0.33099 0 0 0-0.29442-0.16505zm2.7791 0.31002a0.52051 0.52051 0 0 0-0.24869 0.0692 0.52051 0.52051 0 0 0-0.1907 0.7115 0.52051 0.52051 0 0 0 0.71151 0.18959 0.52051 0.52051 0 0 0 0.1907-0.71039 0.52051 0.52051 0 0 0-0.46282-0.25984zm6.9411 0.31226a0.52051 0.52051 0 0 0-0.42601 0.25873 0.52051 0.52051 0 0 0 0.1907 0.7115 0.52051 0.52051 0 0 0 0.71151-0.1907 0.52051 0.52051 0 0 0-0.19071-0.71038 0.52051 0.52051 0 0 0-0.28549-0.0692zm-4.6125 0.0412a0.45228 0.45228 0 0 0-0.37025 0.2264 0.45228 0.45228 0 0 0 0.16616 0.61782 0.45228 0.45228 0 0 0 0.61783-0.16617 0.45228 0.45228 0 0 0-0.16616-0.61783 0.45228 0.45228 0 0 0-0.24758-0.0602zm-3.9155 0.10149a0.45228 0.45228 0 0 0-0.21636 0.0602 0.45228 0.45228 0 0 0-0.16505 0.61782 0.45228 0.45228 0 0 0 0.61783 0.16506 0.45228 0.45228 0 0 0 0.16505-0.61783 0.45228 0.45228 0 0 0-0.40147-0.22527zm-1.3829 0.0892a0.39163 0.39163 0 0 0-0.18624 0.0524 0.39163 0.39163 0 0 0-0.14386 0.5353 0.39163 0.39163 0 0 0 0.5353 0.14275 0.39163 0.39163 0 0 0 0.14274-0.53531 0.39163 0.39163 0 0 0-0.34794-0.19516zm7.3548 0.0992a0.45228 0.45228 0 0 0-0.37026 0.22639 0.45228 0.45228 0 0 0 0.16506 0.61782 0.45228 0.45228 0 0 0 0.61782-0.16616 0.45228 0.45228 0 0 0-0.16505-0.61783 0.45228 0.45228 0 0 0-0.24757-0.0602zm-3.7025 0.61783a0.59632 0.59632 0 0 0-0.28438 0.0803 0.59632 0.59632 0 0 0-0.21746 0.8141 0.59632 0.59632 0 0 0 0.8141 0.21859 0.59632 0.59632 0 0 0 0.21858-0.81522 0.59632 0.59632 0 0 0-0.53084-0.29776zm2.7891 0a0.39163 0.39163 0 0 0-0.32119 0.19516 0.39163 0.39163 0 0 0 0.14387 0.5353 0.39163 0.39163 0 0 0 0.53418-0.14386 0.39163 0.39163 0 0 0-0.14274-0.5353 0.39163 0.39163 0 0 0-0.21412-0.0513zm2.5471 0.01a0.45228 0.45228 0 0 0-0.37136 0.2264 0.45228 0.45228 0 0 0 0.16616 0.61781 0.45228 0.45228 0 0 0 0.61783-0.16616 0.45228 0.45228 0 0 0-0.16617-0.61783 0.45228 0.45228 0 0 0-0.24646-0.0602zm-8.9663 0.28438a0.45228 0.45228 0 0 0-0.21524 0.0602 0.45228 0.45228 0 0 0-0.16617 0.61782 0.45228 0.45228 0 0 0 0.61784 0.16506 0.45228 0.45228 0 0 0 0.16616-0.61783 0.45228 0.45228 0 0 0-0.40259-0.22527zm1.6672 0.0791a0.52051 0.52051 0 0 0-0.24757 0.0692 0.52051 0.52051 0 0 0-0.1907 0.7115 0.52051 0.52051 0 0 0 0.7115 0.1907 0.52051 0.52051 0 0 0 0.19071-0.71151 0.52051 0.52051 0 0 0-0.46394-0.25983zm6.3846 0.25426a0.39163 0.39163 0 0 0-0.32006 0.19517 0.39163 0.39163 0 0 0 0.14275 0.5353 0.39163 0.39163 0 0 0 0.5353-0.14387 0.39163 0.39163 0 0 0-0.14276-0.53529 0.39163 0.39163 0 0 0-0.21523-0.0513zm-0.88436 0.35353a0.33099 0.33099 0 0 0-0.27099 0.16505 0.33099 0.33099 0 0 0 0.12155 0.45166 0.33099 0.33099 0 0 0 0.45278-0.12044 0.33099 0.33099 0 0 0-0.12156-0.45278 0.33099 0.33099 0 0 0-0.18178-0.0435zm-2.3921 0.26319a0.70245 0.70245 0 0 0-0.33456 0.0948 0.70245 0.70245 0 0 0-0.25761 0.95908 0.70245 0.70245 0 0 0 0.96019 0.25761 0.70245 0.70245 0 0 0 0.2565-0.96019 0.70245 0.70245 0 0 0-0.62452-0.35129zm-4.4675 0.22973a0.52051 0.52051 0 0 0-0.2487 0.0692 0.52051 0.52051 0 0 0-0.1907 0.71151 0.52051 0.52051 0 0 0 0.7115 0.19069 0.52051 0.52051 0 0 0 0.19071-0.7115 0.52051 0.52051 0 0 0-0.46281-0.25984zm2.0431 0.16171a0.59632 0.59632 0 0 0-0.28439 0.0791 0.59632 0.59632 0 0 0-0.21746 0.81521 0.59632 0.59632 0 0 0 0.81411 0.21747 0.59632 0.59632 0 0 0 0.21858-0.8141 0.59632 0.59632 0 0 0-0.53084-0.29777zm4.0727 0.75499a0.80858 0.80858 0 0 0-0.38475 0.10818 0.80858 0.80858 0 0 0-0.29664 1.1052 0.80858 0.80858 0 0 0 1.1052 0.29553 0.80858 0.80858 0 0 0 0.29554-1.1041 0.80858 0.80858 0 0 0-0.71931-0.40482zm-5.4333 0.3446a0.59632 0.59632 0 0 0-0.28438 0.0803 0.59632 0.59632 0 0 0-0.21746 0.8141 0.59632 0.59632 0 0 0 0.8141 0.21858 0.59632 0.59632 0 0 0 0.21858-0.8141 0.59632 0.59632 0 0 0-0.53084-0.29888zm2.5059 0.14498a0.70245 0.70245 0 0 0-0.33457 0.0937 0.70245 0.70245 0 0 0-0.25761 0.95908 0.70245 0.70245 0 0 0 0.9602 0.25761 0.70245 0.70245 0 0 0 0.25649-0.9602 0.70245 0.70245 0 0 0-0.62451-0.35017zm5.1366 0.35798a0.94495 0.94495 0 0 0-0.44943 0.12713 0.94495 0.94495 0 0 0-0.34571 1.2903 0.94495 0.94495 0 0 0 1.2903 0.34572 0.94495 0.94495 0 0 0 0.34572-1.2903 0.94495 0.94495 0 0 0-0.84086-0.47285zm-6.4972 0.74273a0.70245 0.70245 0 0 0-0.33456 0.0937 0.70245 0.70245 0 0 0-0.25762 0.95909 0.70245 0.70245 0 0 0 0.9602 0.25761 0.70245 0.70245 0 0 0 0.2565-0.9602 0.70245 0.70245 0 0 0-0.62452-0.35017zm3.0088 0.0457a0.80858 0.80858 0 0 0-0.38474 0.10818 0.80858 0.80858 0 0 0-0.29665 1.1041 0.80858 0.80858 0 0 0 1.1052 0.29664 0.80858 0.80858 0 0 0 0.29553-1.1052 0.80858 0.80858 0 0 0-0.71931-0.40371z" enable-background="new" opacity=".1" stroke-width="0"/>
 <path d="m15.579 4.3346a0.94495 0.94495 0 0 0-0.77396 0.47173 0.94495 0.94495 0 0 0 0.34571 1.2914 0.94495 0.94495 0 0 0 1.2914-0.34571 0.94495 0.94495 0 0 0-0.34571-1.2914 0.94495 0.94495 0 0 0-0.51746-0.12602zm-6.0824 1.4776a0.59632 0.59632 0 0 0-0.59664 0.59664 0.59632 0.59632 0 0 0 0.59664 0.59552 0.59632 0.59632 0 0 0 0.59552-0.59552 0.59632 0.59632 0 0 0-0.59552-0.59664zm1.5011 0.15167a0.52051 0.52051 0 0 0-0.5208 0.5208 0.52051 0.52051 0 0 0 0.5208 0.51969 0.52051 0.52051 0 0 0 0.51969-0.51969 0.52051 0.52051 0 0 0-0.51969-0.5208zm-3.2453 0.0602a0.70245 0.70245 0 0 0-0.70257 0.70258 0.70245 0.70245 0 0 0 0.70257 0.70259 0.70245 0.70245 0 0 0 0.70259-0.70259 0.70245 0.70245 0 0 0-0.70259-0.70258zm4.4809 0.36467a0.45228 0.45228 0 0 0-0.45277 0.45166 0.45228 0.45228 0 0 0 0.45277 0.45278 0.45228 0.45228 0 0 0 0.45166-0.45278 0.45228 0.45228 0 0 0-0.45166-0.45166zm3.6066 0.49069a0.80858 0.80858 0 0 0-0.66243 0.40371 0.80858 0.80858 0 0 0 0.29665 1.104 0.80858 0.80858 0 0 0 1.104-0.29552 0.80858 0.80858 0 0 0-0.29552-1.1052 0.80858 0.80858 0 0 0-0.44275-0.10706zm-2.6665 0.0848a0.39163 0.39163 0 0 0-0.39255 0.39144 0.39163 0.39163 0 0 0 0.39255 0.39255 0.39163 0.39163 0 0 0 0.39144-0.39255 0.39163 0.39163 0 0 0-0.39144-0.39144zm4.7218 0.2052a0.80858 0.80858 0 0 0-0.66132 0.40371 0.80858 0.80858 0 0 0 0.29552 1.104 0.80858 0.80858 0 0 0 1.1052-0.29553 0.80858 0.80858 0 0 0-0.29665-1.1041 0.80858 0.80858 0 0 0-0.44273-0.10817zm-8.1265 0.37136a0.59632 0.59632 0 0 0-0.59552 0.59664 0.59632 0.59632 0 0 0 0.59552 0.59553 0.59632 0.59632 0 0 0 0.59664-0.59553 0.59632 0.59632 0 0 0-0.59664-0.59664zm4.1017 0.10595a0.33099 0.33099 0 0 0-0.33121 0.33121 0.33099 0.33099 0 0 0 0.33121 0.33123 0.33099 0.33099 0 0 0 0.33121-0.33123 0.33099 0.33099 0 0 0-0.33121-0.33121zm-2.6007 0.0458a0.52051 0.52051 0 0 0-0.5197 0.52081 0.52051 0.52051 0 0 0 0.5197 0.51968 0.52051 0.52051 0 0 0 0.5208-0.51968 0.52051 0.52051 0 0 0-0.5208-0.52081zm-3.2442 0.0602a0.70245 0.70245 0 0 0-0.70258 0.70258 0.70245 0.70245 0 0 0 0.70258 0.70258 0.70245 0.70245 0 0 0 0.70258-0.70258 0.70245 0.70245 0 0 0-0.70258-0.70258zm4.4798 0.36467a0.45228 0.45228 0 0 0-0.45166 0.45166 0.45228 0.45228 0 0 0 0.45166 0.45277 0.45228 0.45228 0 0 0 0.45277-0.45277 0.45228 0.45228 0 0 0-0.45277-0.45166zm-6.3902 0.33345a0.80858 0.80858 0 0 0-0.80853 0.80853 0.80858 0.80858 0 0 0 0.80853 0.80853 0.80858 0.80858 0 0 0 0.80853-0.80853 0.80858 0.80858 0 0 0-0.80853-0.80853zm7.3303 0.242a0.39163 0.39163 0 0 0-0.39145 0.39144 0.39163 0.39163 0 0 0 0.39145 0.39144 0.39163 0.39163 0 0 0 0.39143-0.39144 0.39163 0.39163 0 0 0-0.39143-0.39144zm2.1401 0.34906a0.70245 0.70245 0 0 0-0.57545 0.35018 0.70245 0.70245 0 0 0 0.25762 0.96019 0.70245 0.70245 0 0 0 0.95907-0.25762 0.70245 0.70245 0 0 0-0.25649-0.95907 0.70245 0.70245 0 0 0-0.38475-0.0937zm2.0553 0.28996a0.70245 0.70245 0 0 0-0.57433 0.35017 0.70245 0.70245 0 0 0 0.25649 0.96019 0.70245 0.70245 0 0 0 0.9602-0.25761 0.70245 0.70245 0 0 0-0.25761-0.95908 0.70245 0.70245 0 0 0-0.38475-0.0937zm-7.095 0.13493a0.59632 0.59632 0 0 0-0.59664 0.59552 0.59632 0.59632 0 0 0 0.59664 0.59665 0.59632 0.59632 0 0 0 0.59664-0.59665 0.59632 0.59632 0 0 0-0.59664-0.59552zm1.5011 0.15056a0.52051 0.52051 0 0 0-0.5208 0.5208 0.52051 0.52051 0 0 0 0.5208 0.52081 0.52051 0.52051 0 0 0 0.51969-0.52081 0.52051 0.52051 0 0 0-0.51969-0.5208zm-3.2453 0.0613a0.70245 0.70245 0 0 0-0.70257 0.70258 0.70245 0.70245 0 0 0 0.70257 0.70258 0.70245 0.70245 0 0 0 0.70259-0.70258 0.70245 0.70245 0 0 0-0.70259-0.70258zm10.473 0.28103a0.70245 0.70245 0 0 0-0.57545 0.35018 0.70245 0.70245 0 0 0 0.25761 0.9602 0.70245 0.70245 0 0 0 0.95909-0.25762 0.70245 0.70245 0 0 0-0.2565-0.95908 0.70245 0.70245 0 0 0-0.38475-0.0937zm-5.992 0.0825a0.45228 0.45228 0 0 0-0.45277 0.45278 0.45228 0.45228 0 0 0 0.45277 0.45165 0.45228 0.45228 0 0 0 0.45167-0.45165 0.45228 0.45228 0 0 0-0.45167-0.45278zm-6.3912 0.33345a0.80858 0.80858 0 0 0-0.80853 0.80852 0.80858 0.80858 0 0 0 0.80853 0.80853 0.80858 0.80858 0 0 0 0.80853-0.80853 0.80858 0.80858 0 0 0-0.80853-0.80852zm8.1031 0.44162a0.59632 0.59632 0 0 0-0.48845 0.29776 0.59632 0.59632 0 0 0 0.21858 0.8141 0.59632 0.59632 0 0 0 0.8141-0.21858 0.59632 0.59632 0 0 0-0.21747-0.8141 0.59632 0.59632 0 0 0-0.32676-0.0792zm2.0553 0.28995a0.59632 0.59632 0 0 0-0.48735 0.29776 0.59632 0.59632 0 0 0 0.21746 0.81411 0.59632 0.59632 0 0 0 0.81523-0.21859 0.59632 0.59632 0 0 0-0.21859-0.81409 0.59632 0.59632 0 0 0-0.32675-0.0792zm-6.4281 0.47285a0.45228 0.45228 0 0 0-0.21635 0.0613 0.45228 0.45228 0 0 0-0.16506 0.61782 0.45228 0.45228 0 0 0 0.61783 0.16506 0.45228 0.45228 0 0 0 0.16505-0.61783 0.45228 0.45228 0 0 0-0.40147-0.22639zm-5.6887 0.0836a0.94495 0.94495 0 0 0-0.94459 0.9457 0.94495 0.94495 0 0 0 0.94459 0.94458 0.94495 0.94495 0 0 0 0.9457-0.94458 0.94495 0.94495 0 0 0-0.9457-0.9457zm13.751 0.0714a0.59632 0.59632 0 0 0-0.48847 0.29775 0.59632 0.59632 0 0 0 0.21859 0.81411 0.59632 0.59632 0 0 0 0.8141-0.21858 0.59632 0.59632 0 0 0-0.21747-0.8141 0.59632 0.59632 0 0 0-0.32675-0.0792zm-4.5021 0.41931a0.52051 0.52051 0 0 0-0.42601 0.25985 0.52051 0.52051 0 0 0 0.1907 0.7115 0.52051 0.52051 0 0 0 0.7115-0.1907 0.52051 0.52051 0 0 0-0.19069-0.7115 0.52051 0.52051 0 0 0-0.2855-0.0692zm-4.8612 0.0502a0.39163 0.39163 0 0 0-0.18736 0.0524 0.39163 0.39163 0 0 0-0.14274 0.5353 0.39163 0.39163 0 0 0 0.53529 0.14275 0.39163 0.39163 0 0 0 0.14275-0.53419 0.39163 0.39163 0 0 0-0.34794-0.19627zm6.9176 0.24089a0.52051 0.52051 0 0 0-0.426 0.25872 0.52051 0.52051 0 0 0 0.18958 0.7115 0.52051 0.52051 0 0 0 0.7115-0.19069 0.52051 0.52051 0 0 0-0.1907-0.71039 0.52051 0.52051 0 0 0-0.28438-0.0692zm-8.0875 6e-3a0.33099 0.33099 0 0 0-0.15724 0.0446 0.33099 0.33099 0 0 0-0.12156 0.45167 0.33099 0.33099 0 0 0 0.45278 0.12155 0.33099 0.33099 0 0 0 0.12044-0.45277 0.33099 0.33099 0 0 0-0.29442-0.16505zm2.7791 0.31002a0.52051 0.52051 0 0 0-0.24869 0.0692 0.52051 0.52051 0 0 0-0.1907 0.7115 0.52051 0.52051 0 0 0 0.71151 0.18959 0.52051 0.52051 0 0 0 0.1907-0.71039 0.52051 0.52051 0 0 0-0.46282-0.25984zm6.9411 0.31226a0.52051 0.52051 0 0 0-0.42601 0.25873 0.52051 0.52051 0 0 0 0.1907 0.7115 0.52051 0.52051 0 0 0 0.71151-0.1907 0.52051 0.52051 0 0 0-0.19071-0.71038 0.52051 0.52051 0 0 0-0.28549-0.0692zm-4.6125 0.0412a0.45228 0.45228 0 0 0-0.37025 0.2264 0.45228 0.45228 0 0 0 0.16616 0.61782 0.45228 0.45228 0 0 0 0.61783-0.16617 0.45228 0.45228 0 0 0-0.16616-0.61783 0.45228 0.45228 0 0 0-0.24758-0.0602zm-3.9155 0.10149a0.45228 0.45228 0 0 0-0.21636 0.0602 0.45228 0.45228 0 0 0-0.16505 0.61782 0.45228 0.45228 0 0 0 0.61783 0.16506 0.45228 0.45228 0 0 0 0.16505-0.61783 0.45228 0.45228 0 0 0-0.40147-0.22527zm-1.3829 0.0892a0.39163 0.39163 0 0 0-0.18624 0.0524 0.39163 0.39163 0 0 0-0.14386 0.5353 0.39163 0.39163 0 0 0 0.5353 0.14275 0.39163 0.39163 0 0 0 0.14274-0.53531 0.39163 0.39163 0 0 0-0.34794-0.19516zm7.3548 0.0992a0.45228 0.45228 0 0 0-0.37026 0.22639 0.45228 0.45228 0 0 0 0.16506 0.61782 0.45228 0.45228 0 0 0 0.61782-0.16616 0.45228 0.45228 0 0 0-0.16505-0.61783 0.45228 0.45228 0 0 0-0.24757-0.0602zm-3.7025 0.61783a0.59632 0.59632 0 0 0-0.28438 0.0803 0.59632 0.59632 0 0 0-0.21746 0.8141 0.59632 0.59632 0 0 0 0.8141 0.21859 0.59632 0.59632 0 0 0 0.21858-0.81522 0.59632 0.59632 0 0 0-0.53084-0.29776zm2.7891 0a0.39163 0.39163 0 0 0-0.32119 0.19516 0.39163 0.39163 0 0 0 0.14387 0.5353 0.39163 0.39163 0 0 0 0.53418-0.14386 0.39163 0.39163 0 0 0-0.14274-0.5353 0.39163 0.39163 0 0 0-0.21412-0.0513zm2.5471 0.01a0.45228 0.45228 0 0 0-0.37136 0.2264 0.45228 0.45228 0 0 0 0.16616 0.61781 0.45228 0.45228 0 0 0 0.61783-0.16616 0.45228 0.45228 0 0 0-0.16617-0.61783 0.45228 0.45228 0 0 0-0.24646-0.0602zm-8.9663 0.28438a0.45228 0.45228 0 0 0-0.21524 0.0602 0.45228 0.45228 0 0 0-0.16617 0.61782 0.45228 0.45228 0 0 0 0.61784 0.16506 0.45228 0.45228 0 0 0 0.16616-0.61783 0.45228 0.45228 0 0 0-0.40259-0.22527zm1.6672 0.0791a0.52051 0.52051 0 0 0-0.24757 0.0692 0.52051 0.52051 0 0 0-0.1907 0.7115 0.52051 0.52051 0 0 0 0.7115 0.1907 0.52051 0.52051 0 0 0 0.19071-0.71151 0.52051 0.52051 0 0 0-0.46394-0.25983zm6.3846 0.25426a0.39163 0.39163 0 0 0-0.32006 0.19517 0.39163 0.39163 0 0 0 0.14275 0.5353 0.39163 0.39163 0 0 0 0.5353-0.14387 0.39163 0.39163 0 0 0-0.14276-0.53529 0.39163 0.39163 0 0 0-0.21523-0.0513zm-0.88436 0.35353a0.33099 0.33099 0 0 0-0.27099 0.16505 0.33099 0.33099 0 0 0 0.12155 0.45166 0.33099 0.33099 0 0 0 0.45278-0.12044 0.33099 0.33099 0 0 0-0.12156-0.45278 0.33099 0.33099 0 0 0-0.18178-0.0435zm-2.3921 0.26319a0.70245 0.70245 0 0 0-0.33456 0.0948 0.70245 0.70245 0 0 0-0.25761 0.95908 0.70245 0.70245 0 0 0 0.96019 0.25761 0.70245 0.70245 0 0 0 0.2565-0.96019 0.70245 0.70245 0 0 0-0.62452-0.35129zm-4.4675 0.22973a0.52051 0.52051 0 0 0-0.2487 0.0692 0.52051 0.52051 0 0 0-0.1907 0.71151 0.52051 0.52051 0 0 0 0.7115 0.19069 0.52051 0.52051 0 0 0 0.19071-0.7115 0.52051 0.52051 0 0 0-0.46281-0.25984zm2.0431 0.16171a0.59632 0.59632 0 0 0-0.28439 0.0791 0.59632 0.59632 0 0 0-0.21746 0.81521 0.59632 0.59632 0 0 0 0.81411 0.21747 0.59632 0.59632 0 0 0 0.21858-0.8141 0.59632 0.59632 0 0 0-0.53084-0.29777zm4.0727 0.75499a0.80858 0.80858 0 0 0-0.38475 0.10818 0.80858 0.80858 0 0 0-0.29664 1.1052 0.80858 0.80858 0 0 0 1.1052 0.29553 0.80858 0.80858 0 0 0 0.29554-1.1041 0.80858 0.80858 0 0 0-0.71931-0.40482zm-5.4333 0.3446a0.59632 0.59632 0 0 0-0.28438 0.0803 0.59632 0.59632 0 0 0-0.21746 0.8141 0.59632 0.59632 0 0 0 0.8141 0.21858 0.59632 0.59632 0 0 0 0.21858-0.8141 0.59632 0.59632 0 0 0-0.53084-0.29888zm2.5059 0.14498a0.70245 0.70245 0 0 0-0.33457 0.0937 0.70245 0.70245 0 0 0-0.25761 0.95908 0.70245 0.70245 0 0 0 0.9602 0.25761 0.70245 0.70245 0 0 0 0.25649-0.9602 0.70245 0.70245 0 0 0-0.62451-0.35017zm5.1366 0.35798a0.94495 0.94495 0 0 0-0.44943 0.12713 0.94495 0.94495 0 0 0-0.34571 1.2903 0.94495 0.94495 0 0 0 1.2903 0.34572 0.94495 0.94495 0 0 0 0.34572-1.2903 0.94495 0.94495 0 0 0-0.84086-0.47285zm-6.4972 0.74273a0.70245 0.70245 0 0 0-0.33456 0.0937 0.70245 0.70245 0 0 0-0.25762 0.95909 0.70245 0.70245 0 0 0 0.9602 0.25761 0.70245 0.70245 0 0 0 0.2565-0.9602 0.70245 0.70245 0 0 0-0.62452-0.35017zm3.0088 0.0457a0.80858 0.80858 0 0 0-0.38474 0.10818 0.80858 0.80858 0 0 0-0.29665 1.1041 0.80858 0.80858 0 0 0 1.1052 0.29664 0.80858 0.80858 0 0 0 0.29553-1.1052 0.80858 0.80858 0 0 0-0.71931-0.40371z" enable-background="new" fill="#e8e8e8" stroke-width="0"/>
 <path d="m17.977 23.5c4.6719 0 5.5471-0.42296 5.5226-4.5492v-7.9504-5.9508c0.0245-4.1263-0.85068-4.5492-5.5226-4.5492h-11.954c-4.6707 0-5.5226 0.42291-5.5226 4.5492v5.9508 7.9504c0 4.1263 0.85185 4.5492 5.5226 4.5492z" color="#000000" fill="none" opacity=".4" stroke="#000"/>
 <path d="m6.0238 1.0005c-2.3203 0-3.6094 0.15494-4.207 0.62109-0.29882 0.23308-0.48964 0.54668-0.625 1.0957-0.13541 0.54902-0.19141 1.3176-0.19141 2.332v5.9512 7.9508c0 1.0144 0.056 1.783 0.19141 2.332 0.13536 0.54903 0.32618 0.86263 0.625 1.0957 0.59762 0.46615 1.8868 0.62109 4.207 0.62109h11.952c2.3208 0 3.6165-0.15457 4.2168-0.62109 0.30014-0.23327 0.49095-0.54754 0.625-1.0957 0.13404-0.54816 0.18764-1.3162 0.18164-2.3301v-7.9528-5.9531c6e-3 -1.0139-0.0476-1.7819-0.18164-2.3301-0.13406-0.54817-0.32486-0.86244-0.625-1.0957-0.60028-0.46652-1.896-0.62109-4.2168-0.62109zm4.9586 1.0098c1.5798-2e-3 4.1601-3.9e-4 5.7399 0.0117 1.5002 0.0511 3.0224-0.0712 4.5 0.28321 0.55111 0.0919 0.61303 0.71807 0.67773 1.166 0.1117 4.3083 0.075 10.626 0.0508 14.941-0.0716 0.99089 0.13687 2.0761-0.30078 3.0137-0.34356 0.40964-0.9694 0.35958-1.4512 0.45509-3.9541 0.0823-9.9294 0.0499-13.894 0.0371-1.1691-0.0622-2.3729 0.11291-3.5176-0.22266-0.57935-0.098-0.6137-0.75914-0.6875-1.2207-0.1146-4.1184-0.0751-10.245-0.0547-14.369 0.0572-1.063-0.0797-2.1673 0.18164-3.2148 0.10495-0.6386 0.8614-0.66043 1.3672-0.74023 2.1305-0.19658 5.2407-0.10662 7.3883-0.14062z" color="#000000" fill="url(#linearGradient1690-9)"/>
</svg>
