<svg width="24" height="24" version="1" xmlns="http://www.w3.org/2000/svg" xmlns:xlink="http://www.w3.org/1999/xlink">
 <defs>
  <linearGradient id="linearGradient8588-0-1" x1="13.735" x2="38.1" y1="249.69" y2="292.77" gradientTransform="matrix(.48294 0 0 .48294 -.01112 -119.42)" gradientUnits="userSpaceOnUse">
   <stop stop-color="#28851e" offset="0"/>
   <stop stop-color="#46a926" offset="1"/>
  </linearGradient>
  <linearGradient id="linearGradient1053" x1="12.75" x2="83.25" y1="48" y2="48" gradientTransform="matrix(0 -15.464 15.464 0 -2422.9 318.73)" gradientUnits="userSpaceOnUse">
   <stop stop-color="#a8e66c" offset="0"/>
   <stop stop-color="#dbfabd" offset="1"/>
  </linearGradient>
  <linearGradient id="linearGradient8590-3-3" x1="96" x2="96" y1="4" y2="188" gradientTransform="matrix(.11957 0 0 .11957 .52176 .52174)" gradientUnits="userSpaceOnUse">
   <stop stop-color="#fff" offset="0"/>
   <stop stop-color="#fff" stop-opacity=".098039" offset=".125"/>
   <stop stop-color="#fff" stop-opacity=".098039" offset=".925"/>
   <stop stop-color="#fff" stop-opacity=".49804" offset="1"/>
  </linearGradient>
 </defs>
 <ellipse transform="scale(-1)" cx="-12" cy="-12.523" rx="12" ry="11.477" enable-background="new" opacity=".1"/>
 <ellipse cx="12" cy="12" rx="11.5" ry="11.5" enable-background="new" fill="url(#linearGradient8588-0-1)"/>
 <g transform="matrix(.12849 0 0 .12849 20.774 -4.0732)" enable-background="new" stroke-width="28.858">
  <path d="m-82.938 55.047c-8.8997 1.8544-17.177 5.4194-24.527 10.245 0.21426 5.3558-1.6913 10.757-5.7747 14.84-4.0834 4.0835-9.4846 5.9889-14.84 5.7748-4.8261 7.3503-8.391 15.627-10.245 24.527 3.9704 3.633 6.4578 8.8483 6.4578 14.654 0 5.8058-2.4874 11.021-6.4578 14.654 1.8545 8.8997 5.4194 17.177 10.245 24.527 5.3558-0.21396 10.757 1.6913 14.84 5.7748 4.0834 4.0834 5.9889 9.4846 5.7747 14.84 7.3503 4.826 15.627 8.391 24.527 10.245 3.633-3.9704 8.8484-6.4577 14.654-6.4577 5.8058 0 11.021 2.4874 14.654 6.4577 8.8709-1.8484 17.132-5.3814 24.465-10.183-0.01261-0.28701 0-0.58277 0-0.86926 0-5.0852 1.957-10.153 5.8368-14.033 4.0834-4.0834 9.4846-5.9889 14.84-5.7748 4.8261-7.3502 8.391-15.627 10.245-24.527-3.9703-3.633-6.4578-8.8484-6.4578-14.654 0-5.8058 2.4874-11.021 6.4578-14.654-1.8545-8.8996-5.4194-17.177-10.245-24.527-5.3558 0.21396-10.757-1.6913-14.84-5.7748-3.8799-3.8798-5.8368-8.948-5.8368-14.033 0-0.28701-0.01261-0.58278 0-0.8693-7.3326-4.802-15.594-8.3349-24.465-10.183-3.633 3.9704-8.8484 6.4577-14.654 6.4577-5.8058 0-11.021-2.4874-14.654-6.4577zm14.654 54.146c8.7791 0 15.896 7.117 15.896 15.896 0 8.7791-7.1169 15.896-15.896 15.896-8.7791 0-15.896-7.1169-15.896-15.896 0-8.7791 7.1169-15.896 15.896-15.896z" fill="url(#linearGradient1053)"/>
  <path d="m-48.03 79.641c-5.216 0-9.4396 4.2467-9.4396 9.4818 0 5.2351 4.2236 9.4818 9.4396 9.4818 5.216 0 9.4396-4.2467 9.4396-9.4818 0-5.2351-4.2236-9.4818-9.4396-9.4818zm-19.935 7.4264c-5.8215 7.42e-4 -11.724 1.4765-17.031 4.111-0.18871 0.09382-0.30648 0.26068-0.36303 0.46411-0.05707 0.20358-0.0458 0.41754 0.06608 0.59701l7.6573 12.167c0.19397 0.30926 0.58818 0.44008 0.92416 0.29813 2.8341-1.2035 5.775-1.7903 8.7465-1.7903 10.93 0 20.466 8.1356 22.18 18.93 0.05707 0.36266 0.36147 0.63009 0.72614 0.63009h14.39c0.20992 0 0.41996-0.076 0.56107-0.23213 0.14117-0.15611 0.21763-0.35302 0.19805-0.56401-0.7761-8.0094-4.1851-15.764-9.5717-21.782-0.24311-0.27329-0.64991-0.29888-0.95717-0.09901-2.172 1.409-4.6364 2.155-7.1292 2.155-7.2725 0-13.169-5.9348-13.169-13.195 7.57e-4 -0.0037 0-0.25327 0-0.26513 0-0.36192-0.26999-0.70069-0.62708-0.76255-2.2739-0.39577-4.4812-0.66313-6.6011-0.66313zm-23.104 7.9567c-0.09967 0.02225-0.21515 0.06749-0.29702 0.13312-6.242 4.8291-10.923 11.62-13.202 19.129-0.0891 0.29369-0.01 0.60458 0.23109 0.7957 3.1368 2.4956 5.0169 6.3372 5.0169 10.278 0 3.9402-1.8793 7.7818-5.0169 10.277-0.23932 0.18985-0.32016 0.50167-0.23109 0.79569 2.2611 7.446 6.9053 14.211 13.07 19.03 0.16538 0.12978 0.35424 0.20209 0.56107 0.16612 0.20606-0.0375 0.38256-0.18763 0.49505-0.36488l7.7233-12.134c0.19705-0.31 0.1435-0.71794-0.13201-0.96142-4.8385-4.2762-7.6243-10.408-7.6243-16.809 0-6.4488 2.8012-12.597 7.6903-16.875 0.27555-0.24177 0.36054-0.6496 0.16498-0.96149l-7.6573-12.168c-0.11176-0.17725-0.28898-0.29517-0.49505-0.33114-0.10305-0.01483-0.19735-0.02225-0.29702 0zm-21.289 20.82c-5.3382 0-9.6707 4.3555-9.6707 9.7139 0 5.3582 4.3325 9.6807 9.6707 9.6807 5.3382 0 9.6707-4.3225 9.6707-9.6807 0-5.3583-4.3325-9.7139-9.6707-9.7139zm81.689 12.532-14.39 0.0297c-0.3631 7.5e-4 -0.70098 0.27033-0.75913 0.63006-1.7371 10.714-11.247 18.798-22.147 18.798-3.0062 0-5.9797-0.6233-8.8455-1.8566-0.33518-0.1435-0.72711-0.0452-0.92416 0.26513l-7.7233 12.167c-0.1125 0.17799-0.12189 0.39277-0.06608 0.59705 0.05558 0.20358 0.17506 0.37007 0.36303 0.46411 5.3489 2.6898 11.307 4.111 17.196 4.111 2.1841 0 4.4643-0.21916 6.7662-0.63009 0.32317-0.0601 0.55558-0.30333 0.59411-0.63009 0.76703-6.6543 6.3695-11.67 13.037-11.67 2.0671 0 4.1945 0.52423 6.1061 1.5251 0.29065 0.1524 0.62791 0.10271 0.85815-0.13313 6.0283-6.175 9.8392-14.316 10.694-22.876 0.02114-0.21025-0.05633-0.4063-0.19805-0.56401-0.14195-0.15686-0.35124-0.23287-0.56107-0.23213zm-16.998 25.627c-5.3382 0-9.6707 4.3169-9.6707 9.6476 0 5.3306 4.3325 9.6476 9.6707 9.6476 5.3382 0 9.6707-4.3169 9.6707-9.6476 0-5.3306-4.3325-9.6476-9.6707-9.6476z" fill="#5d5d5d"/>
  <path d="m-82.938 55.047c-8.8997 1.8544-17.177 5.4194-24.527 10.245 0.21426 5.3558-1.6913 10.757-5.7747 14.84-4.0834 4.0835-9.4846 5.9889-14.84 5.7748-4.8261 7.3503-8.391 15.627-10.245 24.527 3.9704 3.633 6.4578 8.8483 6.4578 14.654 0 5.8058-2.4874 11.021-6.4578 14.654 1.8545 8.8997 5.4194 17.177 10.245 24.527 5.3558-0.21396 10.757 1.6913 14.84 5.7748 4.0834 4.0834 5.9889 9.4846 5.7747 14.84 7.3503 4.826 15.627 8.391 24.527 10.245 3.633-3.9704 8.8484-6.4577 14.654-6.4577 5.8058 0 11.021 2.4874 14.654 6.4577 8.8709-1.8484 17.132-5.3814 24.465-10.183-0.01261-0.28701 0-0.58277 0-0.86926 0-5.0852 1.957-10.153 5.8368-14.033 4.0834-4.0834 9.4846-5.9889 14.84-5.7748 4.8261-7.3502 8.391-15.627 10.245-24.527-3.9703-3.633-6.4578-8.8484-6.4578-14.654 0-5.8058 2.4874-11.021 6.4578-14.654-1.8545-8.8996-5.4194-17.177-10.245-24.527-5.3558 0.21396-10.757-1.6913-14.84-5.7748-3.8799-3.8798-5.8368-8.948-5.8368-14.033 0-0.28701-0.01261-0.58278 0-0.8693-7.3326-4.802-15.594-8.3349-24.465-10.183-3.633 3.9704-8.8484 6.4577-14.654 6.4577-5.8058 0-11.021-2.4874-14.654-6.4577zm-0.31045 2.2975c3.9311 3.7297 9.1274 6.2094 14.965 6.2094 5.8372 0 11.034-2.4797 14.965-6.2094 7.9889 1.7633 15.463 4.9279 22.167 9.1899 0.11017 5.4672 2.1749 10.93 6.3336 15.089 4.1297 4.1296 9.5475 5.9467 14.965 6.0852 4.339 6.7656 7.5301 14.337 9.3141 22.416-3.7297 3.9311-6.2094 9.1274-6.2094 14.965 0 5.8372 2.4797 11.034 6.2094 14.965-1.7839 8.0788-4.9751 15.65-9.3141 22.416-5.4171 0.13831-10.835 1.9556-14.965 6.0852-4.1587 4.1587-6.2234 9.6216-6.3336 15.089-6.7045 4.2619-14.179 7.4266-22.167 9.1899-3.9311-3.7297-9.1274-6.2094-14.965-6.2094-5.8372 0-11.034 2.4796-14.965 6.2094-8.0788-1.784-15.65-4.9751-22.416-9.3141-0.1385-5.4171-1.9555-10.835-6.0852-14.965-4.1297-4.1297-9.5475-5.9467-14.965-6.0852-4.339-6.7656-7.5301-14.337-9.3141-22.416 3.7297-3.9311 6.2094-9.1273 6.2094-14.965 0-5.8372-2.4797-11.034-6.2094-14.965 1.784-8.0788 4.9751-15.65 9.3141-22.416 5.4171-0.13831 10.835-1.9556 14.965-6.0852 4.1297-4.1296 5.9467-9.5475 6.0852-14.965 6.7657-4.339 14.337-7.5302 22.416-9.3141zm14.965 49.861c-9.8765 0-17.883 8.0065-17.883 17.883 0 9.8765 8.0065 17.883 17.883 17.883 9.8765 0 17.883-8.0065 17.883-17.883 0-9.8765-8.0065-17.883-17.883-17.883zm0 1.987c8.7791 0 15.896 7.117 15.896 15.896 0 8.7791-7.1169 15.896-15.896 15.896-8.7791 0-15.896-7.1169-15.896-15.896 0-8.7791 7.1169-15.896 15.896-15.896z" fill="#fff" opacity=".4"/>
 </g>
 <ellipse cx="12" cy="11.977" rx="11.455" ry="11.477" enable-background="new" fill="none" opacity=".4" stroke="#000" stroke-dashoffset="6.6" stroke-linejoin="round"/>
 <path d="m12 1c-6.0751 0-11 4.9249-11 11 0 6.0751 4.9249 11 11 11s11-4.9249 11-11c0-6.0751-4.9249-11-11-11zm0 1a10 10 0 0 1 10 10 10 10 0 0 1-10 10 10 10 0 0 1-10-10 10 10 0 0 1 10-10z" enable-background="new" fill="url(#linearGradient8590-3-3)"/>
</svg>
