<svg width="24" height="24" version="1" xmlns="http://www.w3.org/2000/svg" xmlns:xlink="http://www.w3.org/1999/xlink">
 <defs>
  <linearGradient id="linearGradient8588-0-1" x1="13.735" x2="38.1" y1="249.69" y2="292.77" gradientTransform="matrix(.48294 0 0 .48294 -.01112 -119.42)" gradientUnits="userSpaceOnUse">
   <stop stop-color="#28851e" offset="0"/>
   <stop stop-color="#46a926" offset="1"/>
  </linearGradient>
  <linearGradient id="linearGradient8590-3-3" x1="96" x2="96" y1="4" y2="188" gradientTransform="matrix(.11957 0 0 .11957 .52176 .52174)" gradientUnits="userSpaceOnUse">
   <stop stop-color="#fff" offset="0"/>
   <stop stop-color="#fff" stop-opacity=".098039" offset=".125"/>
   <stop stop-color="#fff" stop-opacity=".098039" offset=".925"/>
   <stop stop-color="#fff" stop-opacity=".49804" offset="1"/>
  </linearGradient>
 </defs>
 <ellipse transform="scale(-1)" cx="-12" cy="-12.523" rx="12" ry="11.477" enable-background="new" opacity=".1"/>
 <ellipse cx="12" cy="12" rx="11.5" ry="11.5" enable-background="new" fill="url(#linearGradient8588-0-1)"/>
 <path d="m6.4169 14.593c0.84858 2.262 3.0247 3.8747 5.5831 3.8747 2.2923-3e-3 4.3806-1.3173 5.3733-3.3835l1.0224 0.65439c0.0806-0.56455 0.14286-1.1526 0.18649-1.7633 0.0402-0.60686 0.0627-1.2017 0.0666-1.7866-0.52482 0.25075-1.0553 0.51972-1.5902 0.80923-0.53728 0.2943-1.0484 0.5939-1.5336 0.89916v2e-3l1.1239 0.721c-0.82973 1.8223-2.6465 2.993-4.6489 2.9955-2.1926 0-4.058-1.3817-4.7855-3.3202z" enable-background="new" opacity=".1"/>
 <path d="m5.3513 12.812c0.52482-0.25075 1.0553-0.51972 1.5902-0.80923 0.53728-0.2943 1.0484-0.5939 1.5336-0.89916v-2e-3l-1.1239-0.721c0.82976-1.8224 2.6466-2.993 4.649-2.9955 2.1926 0 4.058 1.3817 4.7855 3.3202l0.79759-0.29806c-0.84859-2.2619-3.0247-3.8746-5.5831-3.8746-2.2923 3e-3 -4.3806 1.3173-5.3733 3.3835l-1.0224-0.65438c-0.0806 0.56454-0.14285 1.1526-0.18649 1.7633-0.0402 0.60686-0.0627 1.2017-0.0666 1.7866z" enable-background="new" opacity=".1"/>
 <g transform="matrix(0 -.85253 .85253 0 -284.68 779.28)" enable-background="new" fill="#fff">
  <path d="m897.54 341.45c-2.6532 0.99537-4.5449 3.5479-4.5449 6.5488 3e-3 2.6888 1.5452 5.1384 3.9688 6.3027l-0.76758 1.1992c0.6622 0.0945 1.352 0.16757 2.0684 0.21875 0.71183 0.0472 1.4096 0.0735 2.0957 0.0781-0.29412-0.61561-0.60962-1.2379-0.94921-1.8652-0.34521-0.63022-0.69663-1.2298-1.0547-1.7988h-2e-3l-0.84571 1.3184c-2.1376-0.97326-3.5107-3.1043-3.5136-5.4531 0-2.5719 1.6207-4.7599 3.8945-5.6133z"/>
  <path d="m899.63 340.2c0.29412 0.61561 0.60962 1.2379 0.94921 1.8652 0.34521 0.63022 0.69663 1.2298 1.0547 1.7988h2e-3l0.84571-1.3184c2.1376 0.97329 3.5107 3.1044 3.5137 5.4531 0 2.5719-1.6207 4.7599-3.8945 5.6133l0.34961 0.93555c2.6532-0.99537 4.5449-3.5479 4.5449-6.5488-3e-3 -2.6888-1.5452-5.1384-3.9688-6.3027l0.76758-1.1992c-0.6622-0.0945-1.352-0.16757-2.0684-0.21875-0.71183-0.0472-1.4096-0.0735-2.0957-0.0781z"/>
 </g>
 <ellipse cx="12" cy="11.977" rx="11.455" ry="11.477" enable-background="new" fill="none" opacity=".4" stroke="#000" stroke-dashoffset="6.6" stroke-linejoin="round"/>
 <path d="m12 1c-6.0751 0-11 4.9249-11 11 0 6.0751 4.9249 11 11 11s11-4.9249 11-11c0-6.0751-4.9249-11-11-11zm0 1a10 10 0 0 1 10 10 10 10 0 0 1-10 10 10 10 0 0 1-10-10 10 10 0 0 1 10-10z" enable-background="new" fill="url(#linearGradient8590-3-3)"/>
</svg>
