<svg width="24" height="24" version="1" xmlns="http://www.w3.org/2000/svg" xmlns:xlink="http://www.w3.org/1999/xlink">
 <defs>
  <linearGradient id="linearGradient1690" x1="321.5" x2="342.5" y1="200" y2="200" gradientTransform="rotate(90 266 -54)" gradientUnits="userSpaceOnUse">
   <stop stop-color="#c43ac4" offset="0"/>
   <stop stop-color="#9b33ae" offset="1"/>
  </linearGradient>
  <linearGradient id="linearGradient981" x1="332" x2="332" y1="189" y2="211" gradientUnits="userSpaceOnUse">
   <stop stop-color="#fff" offset="0"/>
   <stop stop-color="#fff" stop-opacity=".098039" offset=".125"/>
   <stop stop-color="#fff" stop-opacity=".098039" offset=".925"/>
   <stop stop-color="#fff" stop-opacity=".49804" offset="1"/>
  </linearGradient>
  <clipPath id="clipPath971">
   <path d="m327.87 189c-4.4121 0-4.8868 0.45318-4.8652 4.8742v6.1258 6.1258c-0.0217 4.421 0.45311 4.8742 4.8652 4.8742h8.2696c4.4121 0 4.8652-0.45312 4.8652-4.8742v-6.1258-6.1258c0-4.4211-0.45312-4.8742-4.8652-4.8742z" color="#000000" fill="#46a926"/>
  </clipPath>
  <linearGradient id="linearGradient1230-3" x1="344" x2="366" y1="94" y2="94" gradientTransform="matrix(.52381 0 0 .52381 -178.95 -56.238)" gradientUnits="userSpaceOnUse">
   <stop stop-color="#fff" offset="0"/>
   <stop stop-color="#fff" stop-opacity="0" offset="1"/>
  </linearGradient>
 </defs>
 <path d="m7.2457 1c-1.2881 0-2.3174 0.0231-3.2095 0.14787-0.8921 0.12479-1.7021 0.37148-2.3111 0.87784-0.60904 0.50637-0.90937 1.1853-1.0579 1.9298-0.14848 0.74444-0.17251 1.602-0.1662 2.6785v5.866 5.8698c-6e-3 1.0743 0.0179 1.9313 0.1662 2.6747 0.14848 0.74444 0.44882 1.4234 1.0579 1.9298 0.60906 0.50636 1.419 0.75304 2.3111 0.87784 0.8921 0.12479 1.9214 0.14787 3.2095 0.14787h9.5096c1.2881 0 2.3144-0.023 3.205-0.14787 0.89059-0.1249 1.702-0.37305 2.3089-0.87972 0.60695-0.50666 0.9038-1.183 1.0534-1.926 0.14958-0.74308 0.17744-1.601 0.17744-2.6766v-5.8698-5.8698c0-1.0756-0.0278-1.9335-0.17744-2.6766-0.14957-0.74307-0.44642-1.4194-1.0534-1.926-0.60694-0.50667-1.4183-0.75482-2.3089-0.87972-0.89062-0.1249-1.9169-0.14787-3.205-0.14787z" color="#000000" color-rendering="auto" dominant-baseline="auto" image-rendering="auto" opacity=".1" shape-rendering="auto" solid-color="#000000" style="font-feature-settings:normal;font-variant-alternates:normal;font-variant-caps:normal;font-variant-ligatures:normal;font-variant-numeric:normal;font-variant-position:normal;isolation:auto;mix-blend-mode:normal;shape-padding:0;text-decoration-color:#000000;text-decoration-line:none;text-decoration-style:solid;text-indent:0;text-orientation:mixed;text-transform:none;white-space:normal"/>
 <path d="m7.1765 1.499c-5.1467 0-5.7004 0.43262-5.6752 4.6531v5.8479 5.8479c-0.0253 4.2205 0.52855 4.6531 5.6752 4.6531h9.6464c5.1466 0 5.6752-0.43256 5.6752-4.6531v-5.8479-5.8479c0-4.2205-0.52857-4.6531-5.6752-4.6531z" color="#000000" fill="url(#linearGradient1690)"/>
 <path d="m7.9993 8v6s0 4 3 4h5v-10h-2v8h-2.5c-1.5 0-1.5-2-1.5-2v-6z" enable-background="new" opacity=".1"/>
 <path d="m7.9993 7v6s0 4 3 4h5v-10h-2v8h-2.5c-1.5 0-1.5-2-1.5-2v-6z" enable-background="new" fill="#faf8f6"/>
 <path transform="matrix(1.1051 0 0 .91313 -354.91 -170.63)" d="m327.87 189c-4.4121 0-4.8868 0.45318-4.8652 4.8742v6.1258 6.1258c-0.0217 4.421 0.45311 4.8742 4.8652 4.8742h8.2696c4.4121 0 4.8652-0.45312 4.8652-4.8742v-6.1258-6.1258c0-4.4211-0.45312-4.8742-4.8652-4.8742z" clip-path="url(#clipPath971)" color="#000000" fill="none" opacity=".7" stroke="url(#linearGradient981)" stroke-width="1.9909"/>
 <path d="m16.982 22.512c4.6771 0 5.5533-0.42343 5.5287-4.5543v-5.9574-5.9575c0.0245-4.1309-0.85163-4.5543-5.5287-4.5543h-9.9655c-4.6759 0-5.5287 0.42338-5.5287 4.5543v5.9575 5.9574c0 4.1309 0.8528 4.5543 5.5287 4.5543z" color="#000000" fill="none" opacity=".4" stroke="#000" stroke-width=".97653"/>
 <g transform="translate(-.00019 -5.04e-5)">
  <ellipse cx="14.975" cy="13.173" rx="1.2977" ry="1.327" enable-background="new" fill="#fff"/>
  <circle cx="17" cy="17" r="6.5" fill="#e95420" stroke="#000" stroke-dashoffset="1" stroke-linecap="round" stroke-linejoin="round" stroke-opacity=".4"/>
  <circle transform="rotate(90)" cx="17" cy="-17" r="5.5" fill="none" opacity=".3" stroke="url(#linearGradient1230-3)" stroke-dashoffset="1" stroke-linecap="round" stroke-linejoin="round" stroke-opacity=".4"/>
  <path d="m17.654 13-1.3161 9.3e-5v0.87533c0.4341-0.08937 0.88202-0.08851 1.3161 0.0027v-0.87783zm-2.6929 0.59676-1.0027 0.85453 0.494 0.59022c0.2747-0.3488 0.618-0.63723 1.0087-0.84744zm4.0643 0.0064-0.49642 0.5932c0.02865 0.0147 0.05708 0.02981 0.08528 0.04536 0.3553 0.20693 0.66829 0.47956 0.92228 0.80339l0.50256-0.6003zm-5.805 2.1135-0.22028 1.3008 0.75768 0.13402c-0.01365-0.44438 0.06378-0.88668 0.22754-1.2995zm7.5429 0.0014-0.7614 0.13458c0.165 0.41259 0.2439 0.85456 0.23183 1.2986l0.76643-0.13518zm-6.8412 2.353-0.67574 0.39124h-2.25e-4l0.66551 1.1383 0.66904-0.38713c-0.29503-0.3319-0.51918-0.72069-0.65862-1.1424zm6.1504 0.0014c-0.06808 0.21164-0.15768 0.41567-0.26739 0.60888-0.11042 0.1914-0.24007 0.37097-0.38694 0.5359l0.66941 0.3875 0.65079-1.1468zm-4.7784 1.74-0.2674 0.73619 1.2398 0.44332 0.26292-0.72443c-0.4056-0.05953-0.7964-0.19559-1.1517-0.40095-0.02815-0.0176-0.05602-0.03564-0.08361-0.05413zm3.4066 0.0077c-0.37724 0.23328-0.79838 0.3864-1.2373 0.44985l0.26515 0.73003 1.2338-0.45937z" color="#000000" fill="#fff"/>
  <path d="m16.987 13.865a3.1373 3.1449 0 0 0-3.1372 3.1448 3.1373 3.1449 0 0 0 3.1372 3.1448 3.1373 3.1449 0 0 0 3.1372-3.1448 3.1373 3.1449 0 0 0-3.1372-3.1448zm0 0.4192a2.719 2.7256 0 0 1 2.719 2.7256 2.719 2.7256 0 0 1-2.719 2.7256 2.719 2.7256 0 0 1-2.719-2.7256 2.719 2.7256 0 0 1 2.719-2.7256z" enable-background="new" fill="#fff" stroke="#fff" stroke-linecap="round" stroke-linejoin="round" stroke-width=".4902"/>
 </g>
</svg>
