<svg width="24" height="24" version="1" xmlns="http://www.w3.org/2000/svg" xmlns:xlink="http://www.w3.org/1999/xlink">
 <defs>
  <linearGradient id="linearGradient981" x1="332" x2="332" y1="191" y2="209" gradientTransform="rotate(-90 332 200)" gradientUnits="userSpaceOnUse">
   <stop stop-color="#fff" offset="0"/>
   <stop stop-color="#fff" stop-opacity=".098039" offset=".125"/>
   <stop stop-color="#fff" stop-opacity=".098039" offset=".925"/>
   <stop stop-color="#fff" stop-opacity=".49804" offset="1"/>
  </linearGradient>
  <clipPath id="clipPath971">
   <path d="m327.87 189c-4.4121 0-4.8868 0.45318-4.8652 4.8742v6.1258 6.1258c-0.0217 4.421 0.45311 4.8742 4.8652 4.8742h8.2696c4.4121 0 4.8652-0.45312 4.8652-4.8742v-6.1258-6.1258c0-4.4211-0.45312-4.8742-4.8652-4.8742z" color="#000000" fill="#46a926"/>
  </clipPath>
  <linearGradient id="linearGradient1230" x1="344" x2="366" y1="94" y2="94" gradientTransform="matrix(.52381 0 0 .52381 -.95238 -366.24)" gradientUnits="userSpaceOnUse">
   <stop stop-color="#fff" offset="0"/>
   <stop stop-color="#fff" stop-opacity="0" offset="1"/>
  </linearGradient>
 </defs>
 <path d="m24 8.8656c0-1.1201-0.0241-2.0152-0.1543-2.791-0.13022-0.77577-0.38763-1.4801-0.91601-2.0098-0.52838-0.52962-1.2369-0.79079-2.0137-0.91992-0.77681-0.12912-1.6717-0.15002-2.7949-0.14453h-6.1211-6.125c-1.121-5e-3 -2.0153 0.0156-2.791 0.14453-0.77681 0.12912-1.4853 0.39029-2.0137 0.91992-0.52838 0.52964-0.78579 1.234-0.91601 2.0098s-0.1543 1.6709-0.1543 2.791v8.2695c0 1.1201 0.024 2.0126 0.1543 2.7871 0.13033 0.77446 0.38927 1.48 0.91797 2.0078 0.52869 0.5278 1.2344 0.78594 2.0098 0.91601 0.77539 0.13007 1.6706 0.1543 2.793 0.1543h6.125 6.125c1.1224 0 2.0176-0.0242 2.793-0.1543 0.77538-0.13007 1.4811-0.38821 2.0098-0.91601 0.5287-0.5278 0.78764-1.2333 0.91797-2.0078 0.13033-0.77448 0.1543-1.667 0.1543-2.7871z" color="#000000" color-rendering="auto" dominant-baseline="auto" image-rendering="auto" opacity=".1" shape-rendering="auto" solid-color="#000000" style="font-feature-settings:normal;font-variant-alternates:normal;font-variant-caps:normal;font-variant-ligatures:normal;font-variant-numeric:normal;font-variant-position:normal;isolation:auto;mix-blend-mode:normal;shape-padding:0;text-decoration-color:#000000;text-decoration-line:none;text-decoration-style:solid;text-indent:0;text-orientation:mixed;text-transform:none;white-space:normal"/>
 <path d="m23.5 7.636c0-4.657-0.47377-5.1581-5.0957-5.1353h-6.4043-6.4042c-4.622-0.0229-5.0957 0.47826-5.0957 5.1353v8.7287c0 4.657 0.47371 5.1353 5.0957 5.1353h6.4042 6.4043c4.622 0 5.0957-0.47827 5.0957-5.1353z" color="#000000" fill="#a3dbf0"/>
 <path d="m0.55508 17c0.1092 1.8682 0.41237 3.1112 1.0938 3.9394 0.74581 0.4697 1.962 0.56055 3.9473 0.56055h12.809c1.9865 0 3.2035-0.0901 3.9492-0.56055 0.68095-0.82827 0.98263-2.0718 1.0918-3.9394z" enable-background="new" fill="#8fbf3a"/>
 <path d="m17.061 2.5-9.9453 19h4.8848 6.4043c4.622 0 5.0957-0.47774 5.0957-5.1348v-8.7285c0-4.657-0.47373-5.1595-5.0957-5.1367z" color="#000000" fill="#fff" opacity=".1"/>
 <path d="m12.565 2.5-7.5644 14.5h4.5l7.5644-14.5z" color="#000000" fill="#b6e2f3"/>
 <path d="m17.065 2.5-7.5644 14.5h6.75l6.8301-13.09c-0.55735-1.2346-1.8269-1.4242-4.6758-1.4102z" color="#000000" fill="#ffda64"/>
 <path d="m17.751 6.75a2.25 2.25 0 0 0-2.25 2.25 2.25 2.25 0 0 0 2.25 2.25 2.25 2.25 0 0 0 2.25-2.25 2.25 2.25 0 0 0-2.25-2.25zm-8.2852 2.6602-4.4648 8.5898h8.9316 2.3184l-3.375-6.4688-1.1562 2.2148z" color="#000000" opacity=".1"/>
 <path d="m23.08 3.9102-6.8301 13.09h4.5l2.75-5.2715v-4.0918c0-1.7865-0.0731-2.9582-0.41992-3.7266z" color="#000000" fill="#b6e2f3"/>
 <path d="m5.0008 17 4.4658-8.5901 4.4658 8.5901z" color="#000000" fill="#f2f2f2"/>
 <path d="m9.5008 17 3.375-6.4688 3.375 6.4688z" color="#000000" fill="#f9f9f9"/>
 <circle cx="17.751" cy="8" r="2.25" enable-background="new" fill="#f9f9f9"/>
 <path d="m23.512 7.4916c0-4.2321-0.46371-5.025-4.9876-5.0028h-6.5241-6.5242c-4.5239-0.0222-4.9876 0.77061-4.9876 5.0028v9.0174c0 4.2311 0.46366 5.0028 4.9876 5.0028h6.5242 6.5241c4.5239 0 4.9876-0.77167 4.9876-5.0028z" color="#000000" fill="none" opacity=".4" stroke="#000" stroke-width=".97653"/>
 <path transform="rotate(90 266 -54)" d="m327.87 189c-4.4121 0-4.8868 0.45318-4.8652 4.8742v6.1258 6.1258c-0.0217 4.421 0.45311 4.8742 4.8652 4.8742h8.2696c4.4121 0 4.8652-0.45312 4.8652-4.8742v-6.1258-6.1258c0-4.4211-0.45312-4.8742-4.8652-4.8742z" clip-path="url(#clipPath971)" color="#000000" fill="none" opacity=".7" stroke="url(#linearGradient981)" stroke-width="2"/>
 <g transform="translate(-310 -178)" enable-background="new">
  <ellipse cx="327" cy="195" rx="6.5" ry="6.5" fill="#5884f4" stroke="#000" stroke-dashoffset="1" stroke-linecap="round" stroke-linejoin="round" stroke-opacity=".4"/>
  <circle transform="rotate(90)" cx="195" cy="-327" r="5.5" fill="none" opacity=".3" stroke="url(#linearGradient1230)" stroke-dashoffset="1" stroke-linecap="round" stroke-linejoin="round" stroke-opacity=".4"/>
  <path d="m326 199.5h2v-3h2s-0.75-3-2.9886-6c-2.2614 3-3.0114 6-3.0114 6h2z" color="#000000" enable-background="accumulate" fill="#fff"/>
 </g>
</svg>
