<svg width="24" height="24" version="1" xmlns="http://www.w3.org/2000/svg">
 <defs>
  <linearGradient id="linearGradient916" x1="512" x2="0" y1="313.29" y2="313.29" gradientTransform="matrix(0 -.056641 -.056639 0 29.745 26)" gradientUnits="userSpaceOnUse">
   <stop stop-color="#999" offset="0"/>
   <stop stop-color="#b7b7b7" offset=".61328"/>
   <stop stop-color="#dbdbdb" offset="1"/>
  </linearGradient>
  <linearGradient id="linearGradient981-3" x1="332" x2="332" y1="189" y2="211" gradientUnits="userSpaceOnUse">
   <stop stop-color="#fff" offset="0"/>
   <stop stop-color="#fff" stop-opacity=".098039" offset=".125"/>
   <stop stop-color="#fff" stop-opacity=".098039" offset=".925"/>
   <stop stop-color="#fff" stop-opacity=".49804" offset="1"/>
  </linearGradient>
  <clipPath id="clipPath971-6">
   <path d="m327.87 189c-4.4121 0-4.8868 0.45318-4.8652 4.8742v12.252c-0.0217 4.421 0.45311 4.8742 4.8652 4.8742h8.2696c4.4121 0 4.8652-0.45312 4.8652-4.8742v-12.252c0-4.4211-0.45312-4.8742-4.8652-4.8742z" color="#000000" fill="#46a926"/>
  </clipPath>
  <linearGradient id="linearGradient1041" x1="352" x2="352" y1="68" y2="96" gradientTransform="matrix(.57143 0 0 .57143 -184.57 -35)" gradientUnits="userSpaceOnUse">
   <stop stop-color="#808080" offset="0"/>
   <stop stop-color="#999" offset="1"/>
  </linearGradient>
 </defs>
 <path d="m16.134 0.5c1.1116 0 1.9868 0.0256 2.707 0.14648 0.72019 0.1209 1.3105 0.34863 1.7422 0.7793 0.43169 0.43067 0.65954 1.0197 0.7793 1.7402 0.11977 0.72049 0.14217 1.5967 0.13672 2.7109v12.248c5e-3 1.1131-0.017 1.989-0.13672 2.709-0.11976 0.72051-0.3476 1.3096-0.7793 1.7402-0.43169 0.43067-1.022 0.6584-1.7422 0.7793-0.7202 0.12089-1.5954 0.14648-2.707 0.14648h-8.2695c-1.1116 0-1.9864-0.0255-2.7051-0.14648-0.7187-0.12095-1.3062-0.34848-1.7363-0.7793-0.4301-0.43083-0.6566-1.0185-0.77735-1.7383-0.12074-0.71979-0.14648-1.5971-0.14648-2.7109v-12.25c0-1.1138 0.0257-1.9912 0.14648-2.7109 0.12075-0.71979 0.34725-1.3074 0.77735-1.7383 0.4301-0.43082 1.0176-0.65835 1.7363-0.7793 0.7187-0.12094 1.5935-0.14648 2.7051-0.14648z" color="#000000" fill="url(#linearGradient916)"/>
 <path d="m7.8652 0.5c-1.1116 0-1.9868 0.0256-2.707 0.14648-0.72019 0.1209-1.3105 0.34863-1.7422 0.7793-0.43169 0.43067-0.65954 1.0197-0.7793 1.7402-0.11977 0.72049-0.14217 1.5967-0.13672 2.7109v12.248c-5e-3 1.1131 0.017 1.989 0.13672 2.709 0.11976 0.72051 0.3476 1.3096 0.7793 1.7402 0.43169 0.43067 1.022 0.6584 1.7422 0.7793 0.7202 0.12089 1.5954 0.14648 2.707 0.14648h8.2695c1.1116 0 1.9864-0.0255 2.7051-0.14648 0.7187-0.12095 1.3062-0.34848 1.7363-0.7793 0.4301-0.43083 0.6566-1.0185 0.77735-1.7383 0.12074-0.71979 0.14648-1.5971 0.14648-2.7109v-12.25c0-1.1138-0.0257-1.9912-0.14648-2.7109-0.12075-0.71979-0.34725-1.3074-0.77735-1.7383-0.4301-0.43082-1.0176-0.65835-1.7363-0.7793-0.7187-0.12094-1.5935-0.14648-2.7051-0.14648z" color="#000000" fill="none" opacity=".4" stroke="#000"/>
 <path transform="translate(-320,-188)" d="m327.87 189c-4.4121 0-4.8868 0.45318-4.8652 4.8742v12.252c-0.0217 4.421 0.45311 4.8742 4.8652 4.8742h8.2696c4.4121 0 4.8652-0.45312 4.8652-4.8742v-12.252c0-4.4211-0.45312-4.8742-4.8652-4.8742z" clip-path="url(#clipPath971-6)" color="#000000" fill="none" opacity=".4" stroke="url(#linearGradient981-3)" stroke-width="2"/>
 <g transform="translate(-.00038 1.9996)">
  <path d="m10.286 8.8571h1.1429v5.1272c-0.29232-0.18567-0.59384-0.34938-0.88616-0.49554-0.42857-0.21429-0.82453-0.42111-1.0692-0.625-0.24467-0.20388-0.33036-0.34003-0.33036-0.57812 0.63118 0 1.1429-0.51168 1.1429-1.1429s-0.51168-1.1429-1.1429-1.1429c-0.63117 0-1.1428 0.51168-1.1428 1.1429v1.1429c0 0.61905 0.34288 1.1258 0.74107 1.4576 0.39818 0.33183 0.8616 0.55358 1.2902 0.76787 0.42857 0.21428 0.8223 0.42111 1.067 0.62499 0.24467 0.20389 0.33036 0.34004 0.33036 0.57813-0.31657 0-0.57143 0.25485-0.57143 0.57143v1.1428c0 0.31657 0.25486 0.57143 0.57143 0.57143h1.1428c0.31658 0 0.57143-0.25486 0.57143-0.57143v-1.1428c0-0.31658-0.25485-0.57143-0.57143-0.57143v-1.1429c0-0.23809 0.0857-0.37424 0.33036-0.57813 0.24467-0.20388 0.64063-0.4107 1.0692-0.62499s0.88976-0.43603 1.2879-0.76786c0.3982-0.33183 0.74108-0.83854 0.74108-1.4576v-1.7143c0-0.31657-0.25486-0.57143-0.57143-0.57143h-1.1429c-0.31657 0-0.57143 0.25486-0.57143 0.57143v1.1429c0 0.31657 0.25486 0.57143 0.57143 0.57143h0.57143c0 0.23809-0.0857 0.37424-0.33036 0.57812-0.24467 0.20389-0.6384 0.41071-1.067 0.625-0.29264 0.14633-0.59511 0.30959-0.88839 0.49554v-3.9844h1.1429l-1.7143-3.4286z" enable-background="new" fill="#fff" opacity=".2"/>
  <path d="m10.286 7.8571h1.1429v5.1272c-0.29232-0.18567-0.59384-0.34938-0.88616-0.49554-0.42857-0.21429-0.82453-0.42111-1.0692-0.625-0.24467-0.20388-0.33036-0.34003-0.33036-0.57812 0.63118 0 1.1429-0.51168 1.1429-1.1429 0-0.63118-0.51168-1.1429-1.1429-1.1429-0.63117 0-1.1428 0.51168-1.1428 1.1429v1.1429c0 0.61905 0.34288 1.1258 0.74107 1.4576 0.39818 0.33183 0.8616 0.55358 1.2902 0.76787 0.42857 0.21428 0.8223 0.42111 1.067 0.62499 0.24467 0.20389 0.33036 0.34004 0.33036 0.57813-0.31657 0-0.57143 0.25485-0.57143 0.57143v1.1428c0 0.31657 0.25486 0.57143 0.57143 0.57143h1.1428c0.31658 0 0.57143-0.25486 0.57143-0.57143v-1.1428c0-0.31658-0.25485-0.57143-0.57143-0.57143v-1.1429c0-0.23809 0.0857-0.37424 0.33036-0.57813 0.24467-0.20388 0.64063-0.4107 1.0692-0.62499s0.88976-0.43603 1.2879-0.76786c0.3982-0.33183 0.74108-0.83854 0.74108-1.4576v-1.7143c0-0.31657-0.25486-0.57143-0.57143-0.57143h-1.1429c-0.31657 0-0.57143 0.25486-0.57143 0.57143v1.1429c0 0.31657 0.25486 0.57143 0.57143 0.57143h0.57143c0 0.23809-0.0857 0.37424-0.33036 0.57812-0.24467 0.20389-0.6384 0.41071-1.067 0.625-0.29264 0.14633-0.59511 0.30959-0.88839 0.49554v-3.9844h1.1429l-1.7143-3.4286z" enable-background="new" fill="url(#linearGradient1041)"/>
 </g>
</svg>
