<svg width="24" height="24" version="1" xmlns="http://www.w3.org/2000/svg" xmlns:xlink="http://www.w3.org/1999/xlink">
 <defs>
  <linearGradient id="linearGradient1690" x1="321.5" x2="342.5" y1="200" y2="200" gradientTransform="rotate(90 266 -54)" gradientUnits="userSpaceOnUse">
   <stop stop-color="#f4843f" offset="0"/>
   <stop stop-color="#f8ae34" offset="1"/>
  </linearGradient>
  <linearGradient id="linearGradient981" x1="332" x2="332" y1="189" y2="211" gradientUnits="userSpaceOnUse">
   <stop stop-color="#fff" offset="0"/>
   <stop stop-color="#fff" stop-opacity=".098039" offset=".125"/>
   <stop stop-color="#fff" stop-opacity=".098039" offset=".925"/>
   <stop stop-color="#fff" stop-opacity=".49804" offset="1"/>
  </linearGradient>
  <clipPath id="clipPath971">
   <path d="m327.87 189c-4.4121 0-4.8868 0.45318-4.8652 4.8742v6.1258 6.1258c-0.0217 4.421 0.45311 4.8742 4.8652 4.8742h8.2696c4.4121 0 4.8652-0.45312 4.8652-4.8742v-6.1258-6.1258c0-4.4211-0.45312-4.8742-4.8652-4.8742z" color="#000000" fill="#46a926"/>
  </clipPath>
 </defs>
 <path d="m7.2457 1c-1.2881 0-2.3174 0.0231-3.2095 0.14787-0.8921 0.12479-1.7021 0.37148-2.3111 0.87784-0.60904 0.50637-0.90937 1.1853-1.0579 1.9298-0.14848 0.74444-0.17251 1.602-0.1662 2.6785v5.866 5.8698c-6e-3 1.0743 0.0179 1.9313 0.1662 2.6747 0.14848 0.74444 0.44882 1.4234 1.0579 1.9298 0.60906 0.50636 1.419 0.75304 2.3111 0.87784 0.8921 0.12479 1.9214 0.14787 3.2095 0.14787h9.5096c1.2881 0 2.3144-0.023 3.205-0.14787 0.89059-0.1249 1.702-0.37305 2.3089-0.87972 0.60695-0.50666 0.9038-1.183 1.0534-1.926 0.14958-0.74308 0.17744-1.601 0.17744-2.6766v-5.8698-5.8698c0-1.0756-0.0278-1.9335-0.17744-2.6766-0.14957-0.74307-0.44642-1.4194-1.0534-1.926-0.60694-0.50667-1.4183-0.75482-2.3089-0.87972-0.89062-0.1249-1.9169-0.14787-3.205-0.14787z" color="#000000" color-rendering="auto" dominant-baseline="auto" image-rendering="auto" opacity=".1" shape-rendering="auto" solid-color="#000000" style="font-feature-settings:normal;font-variant-alternates:normal;font-variant-caps:normal;font-variant-ligatures:normal;font-variant-numeric:normal;font-variant-position:normal;isolation:auto;mix-blend-mode:normal;shape-padding:0;text-decoration-color:#000000;text-decoration-line:none;text-decoration-style:solid;text-indent:0;text-orientation:mixed;text-transform:none;white-space:normal"/>
 <path d="m7.1765 1.499c-5.1467 0-5.7004 0.43262-5.6752 4.6531v5.8479 5.8479c-0.0253 4.2205 0.52855 4.6531 5.6752 4.6531h9.6464c5.1466 0 5.6752-0.43256 5.6752-4.6531v-5.8479-5.8479c0-4.2205-0.52857-4.6531-5.6752-4.6531z" color="#000000" fill="url(#linearGradient1690)"/>
 <path d="m7.1827 4-3.4724 3.4731 0.39661 0.39645 4.6306 4.6307-5.0272 5.0273 3.4724 3.4724 5.0272-5.0273 5.0273 5.0273 3.4731-3.4724-5.0273-5.0273 5.0273-5.0272-3.4731-3.4731-5.0273 5.0273zm0 0.7939 5.0273 5.0273 5.0273-5.0273 2.679 2.679-5.0273 5.0273 5.0273 5.0272-2.679 2.6792-5.0273-5.0273-5.0273 5.0273-2.679-2.6792 5.0273-5.0272-5.0273-5.0273z" enable-background="new" fill="#fff" opacity=".2"/>
 <path d="m5.182 19.3h-1.8922v-3.0276h3.7845v0.75689h-2.6491v1.5138h2.6491v0.75691zm2.6491 0v-3.7845h1.1354v0.75691h3.0276v3.0276h-1.1354v-2.2707h-1.8922v2.2707zm6.2444 0h-1.3246v-3.0276h4.1629v1.1354h0.37845v1.8922h-1.1353v-2.2707h-2.2707v1.5138h1.5138v0.75691zm4.9198 0h-0.94611v-2.2707h-0.37845v-0.75689h0.75689v-0.75691h0.7569v0.75691h0.75689v0.75689h-0.75689v1.5138h0.75689v0.75691z" enable-background="new" opacity=".1" stroke-width="3.7797"/>
 <g transform="matrix(.95199 0 0 .95199 -337.84 -179.58)" enable-background="new">
  <path d="m362.42 192.32-3.6476 3.6482 0.41662 0.41645 4.8641 4.8643-5.2807 5.2809 3.6476 3.6476 5.2807-5.2809 5.2809 5.2809 3.6482-3.6476-5.2809-5.2809 5.2809-5.2807-3.6482-3.6482-5.2809 5.2809zm0 0.83394 5.2809 5.2809 5.2809-5.2809 2.8141 2.8141-5.2809 5.2809 5.2809 5.2807-2.8141 2.8143-5.2809-5.2809-5.2809 5.2809-2.8141-2.8143 5.2809-5.2807-5.2809-5.2809z" stroke-width="1.0505"/>
  <path d="m360.32 208.39h-1.9877v-3.1803h3.9754v0.79507h-2.7828v1.5902h2.7828v0.79508zm2.7827 0v-3.9754h1.1926v0.79508h3.1803v3.1803h-1.1926v-2.3852h-1.9877v2.3852zm6.5593 0h-1.3914v-3.1803h4.3729v1.1926h0.39753v1.9877h-1.1926v-2.3852h-2.3852v1.5902h1.5901v0.79508zm5.168 0h-0.99383v-2.3852h-0.39754v-0.79507h0.79507v-0.79508h0.79507v0.79508h0.79507v0.79507h-0.79507v1.5902h0.79507v0.79508z" fill="#f2f2f2" stroke-width="3.9704"/>
 </g>
 <path transform="matrix(1.1051 0 0 .91313 -354.91 -170.63)" d="m327.87 189c-4.4121 0-4.8868 0.45318-4.8652 4.8742v6.1258 6.1258c-0.0217 4.421 0.45311 4.8742 4.8652 4.8742h8.2696c4.4121 0 4.8652-0.45312 4.8652-4.8742v-6.1258-6.1258c0-4.4211-0.45312-4.8742-4.8652-4.8742z" clip-path="url(#clipPath971)" color="#000000" fill="none" opacity=".7" stroke="url(#linearGradient981)" stroke-width="1.9909"/>
 <path d="m16.982 22.512c4.6771 0 5.5533-0.42343 5.5287-4.5543v-5.9574-5.9575c0.0245-4.1309-0.85163-4.5543-5.5287-4.5543h-9.9655c-4.6759 0-5.5287 0.42338-5.5287 4.5543v5.9575 5.9574c0 4.1309 0.8528 4.5543 5.5287 4.5543z" color="#000000" fill="none" opacity=".4" stroke="#000" stroke-width=".97653"/>
</svg>
