<svg width="48" height="48" version="1.1" xmlns="http://www.w3.org/2000/svg" xmlns:xlink="http://www.w3.org/1999/xlink">
 <defs>
  <linearGradient id="linearGradient1024" x1="459.03" x2="35.31" y1="419.23" y2="207.37" gradientTransform="matrix(0 -.11328 .11328 0 -11.49 52)" gradientUnits="userSpaceOnUse">
   <stop stop-color="#f2f2f2" offset="0"/>
   <stop stop-color="#f9f9f9" offset="1"/>
  </linearGradient>
  <linearGradient id="linearGradient1351-8" x1="342" x2="325" y1="157" y2="159" gradientTransform="matrix(1.4813 0 0 1.4813 -470.09 -205.06)" gradientUnits="userSpaceOnUse">
   <stop offset="0"/>
   <stop stop-opacity=".50485" offset="1"/>
  </linearGradient>
  <linearGradient id="linearGradient1004" x1="344" x2="344" y1="62" y2="106" gradientUnits="userSpaceOnUse">
   <stop stop-color="#fff" offset="0"/>
   <stop stop-color="#fff" stop-opacity=".098039" offset=".125"/>
   <stop stop-color="#fff" stop-opacity=".098039" offset=".925"/>
   <stop stop-color="#fff" stop-opacity=".49804" offset="1"/>
  </linearGradient>
  <clipPath id="clipPath994">
   <path d="m335.73 62c-8.8242 0-9.7736 0.90635-9.7304 9.7484v12.252 12.252c-0.0433 8.842 0.90622 9.7484 9.7304 9.7484h16.539c8.8242 0 9.7304-0.90625 9.7304-9.7484v-12.252-12.252c0-8.8421-0.90622-9.7484-9.7304-9.7484z" color="#000000" fill="#cdcdcd"/>
  </clipPath>
 </defs>
 <path d="m15.73 2c-2.2232 0-3.9737 0.05118-5.4141 0.29297-1.4404 0.24178-2.6191 0.6953-3.4824 1.5566-0.86337 0.86134-1.3191 2.0395-1.5586 3.4805-0.23953 1.441-0.28629 3.1953-0.27539 5.4238v12.246 12.252c-0.0108 2.2251 0.0361 3.9785 0.27539 5.418 0.23953 1.441 0.69522 2.6191 1.5586 3.4805 0.86338 0.86134 2.042 1.3149 3.4824 1.5566 1.4404 0.24179 3.1909 0.29297 5.4141 0.29297h16.539c2.2232 0 3.9728-0.0511 5.4102-0.29297 1.4374-0.24189 2.6125-0.69694 3.4726-1.5586 0.8602-0.86165 1.3132-2.0389 1.5547-3.4785 0.24149-1.4396 0.29297-3.1904 0.29297-5.418v-12.252-12.252c0-2.2276-0.0515-3.9784-0.29297-5.418-0.24149-1.4396-0.69449-2.6169-1.5547-3.4785-0.86019-0.86165-2.0352-1.3167-3.4726-1.5586-1.4374-0.24189-3.187-0.29297-5.4102-0.29297z" color="#000000" color-rendering="auto" dominant-baseline="auto" image-rendering="auto" opacity=".1" shape-rendering="auto" solid-color="#000000" style="font-feature-settings:normal;font-variant-alternates:normal;font-variant-caps:normal;font-variant-ligatures:normal;font-variant-numeric:normal;font-variant-position:normal;isolation:auto;mix-blend-mode:normal;shape-padding:0;text-decoration-color:#000000;text-decoration-line:none;text-decoration-style:solid;text-indent:0;text-orientation:mixed;text-transform:none;white-space:normal"/>
 <path d="m15.731 2c-8.8242 0-9.7737 0.90635-9.7304 9.7484v12.252 12.252c-0.0433 8.842 0.90622 9.7484 9.7304 9.7484h16.539c8.8242 0 9.7304-0.90625 9.7304-9.7484v-12.252-12.252c0-8.8421-0.90622-9.7484-9.7304-9.7484z" color="#000000" fill="none" opacity=".2" stroke="#000" stroke-width="2"/>
 <path d="m15.731 2c-8.8242 0-9.7737 0.90635-9.7304 9.7484v12.252 12.252c-0.0433 8.842 0.90622 9.7484 9.7304 9.7484h16.539c8.8242 0 9.7304-0.90625 9.7304-9.7484v-12.252-12.252c0-8.8421-0.90622-9.7484-9.7304-9.7484z" color="#000000" fill="url(#linearGradient1024)"/>
 <path d="m12.059 30.462c5.925-2.2219 8.4407-9.4625 8.4407-9.4625-2.9625 11.85 1.5638 9.3713 6 2.5-2.2219 9.6282 2.5937 8.4438 10 4" enable-background="new" fill="none" stroke="url(#linearGradient1351-8)" stroke-linecap="round" stroke-linejoin="round" stroke-width=".75"/>
 <path d="m6 24v12.252c-0.0433 8.842 0.90629 9.748 9.7305 9.748h16.539c8.8242 0 9.7305-0.90592 9.7305-9.748v-12.252z" color="#000000" fill="#fff" opacity=".2"/>
 <path d="m24 2v44h8.2695c8.8242 0 9.7305-0.90592 9.7305-9.748v-12.252-12.252c0-8.8421-0.90629-9.748-9.7305-9.748z" color="#000000" fill="#fff" opacity=".1"/>
 <g transform="rotate(-45 108.12 439.53)" enable-background="new">
  <path d="m347.56 91.266-0.59726 2.9863 1.7171 3.2849v-3.1554c-0.0462-0.0267-0.0748-0.07603-0.0747-0.12949 0-0.08246 0.0668-0.14931 0.14931-0.14931 0.0825 0 0.14931 0.06686 0.14932 0.14931-1.4e-4 0.0532-0.0286 0.1023-0.0747 0.1289v3.156l1.7171-3.2849-0.59725-2.9863z" enable-background="new" fill="#333"/>
  <path d="m350.24 70c0 1.1545-0.6685 2.0904-1.4931 2.0904s-1.4931-0.9359-1.4931-2.0904c0-1.1545 0.6685-2.0904 1.4931-2.0904s1.4931 0.9359 1.4931 2.0904z" enable-background="new" fill="#333"/>
  <path d="m347.26 70h2.9863v21.266h-2.9863z" enable-background="new" fill="#6d6d6d"/>
  <path d="m347.26 84.995h2.9863v0.29863h-2.9863z" enable-background="new" fill="#ffe680"/>
  <path d="m347.26 90.967h2.9863v0.29863h-2.9863z" enable-background="new" fill="#ffe680"/>
  <path d="m347.26 85.293h2.9863v5.6739h-2.9863z" fill="#999"/>
  <path d="m349.59 68.275c-0.24828-0.23793-0.54212-0.3653-0.843-0.36541-0.0707 9.56e-4 -0.14126 9e-3 -0.21116 0.02392 0.22652 0.04457 0.44269 0.1614 0.63184 0.34148 0.40691 0.3895 0.65029 1.0351 0.6504 1.7252l-3e-4 21.266 0.42232-3e-6 3e-4 -21.266c-1e-4 -0.69011-0.24348-1.3357-0.6504-1.7252z" enable-background="new" fill="#999" opacity=".4"/>
 </g>
 <text x="23.860565" y="39.402664" enable-background="new" fill="#000000" font-family="sans-serif" font-size="9.8742px" letter-spacing="0px" stroke-width=".24685" word-spacing="0px" style="line-height:1.25" xml:space="preserve"><tspan x="23.860565" y="39.402664" fill="#888888" font-family="ubuntu" stroke-width=".24685" text-align="center" text-anchor="middle">pgp</tspan></text>
 <path transform="translate(-320,-60)" d="m335.73 62c-8.8242 0-9.7736 0.90635-9.7304 9.7484v12.252 12.252c-0.0433 8.842 0.90622 9.7484 9.7304 9.7484h16.539c8.8242 0 9.7304-0.90625 9.7304-9.7484v-12.252-12.252c0-8.8421-0.90622-9.7484-9.7304-9.7484z" clip-path="url(#clipPath994)" color="#000000" fill="none" opacity=".4" stroke="url(#linearGradient1004)" stroke-width="2"/>
</svg>
