<svg width="16" height="16" version="1" xmlns="http://www.w3.org/2000/svg" xmlns:xlink="http://www.w3.org/1999/xlink">
 <defs>
  <linearGradient id="linearGradient8590-3-3-4" x1="96" x2="96" y1="4" y2="188" gradientTransform="matrix(.076087 0 0 .076087 .69566 .69567)" gradientUnits="userSpaceOnUse">
   <stop stop-color="#fff" offset="0"/>
   <stop stop-color="#fff" stop-opacity=".098039" offset=".125"/>
   <stop stop-color="#fff" stop-opacity=".098039" offset=".925"/>
   <stop stop-color="#fff" stop-opacity=".49804" offset="1"/>
  </linearGradient>
 </defs>
 <ellipse transform="scale(-1)" cx="-8" cy="-8.5" rx="7" ry="6.5" enable-background="new" opacity=".1"/>
 <circle cx="8" cy="8" r="7.5" enable-background="new" fill="#c8c4b7"/>
 <path d="m0.70257 8.6667a7.3333 7.3333 0 0 0 7.297 6.6667 7.3333 7.3333 0 0 0 7.3-6.6667z" enable-background="new" fill="#fff" opacity=".25"/>
 <circle transform="matrix(0,-1,-1,0,0,0)" cx="-8" cy="-8" r="5" color="#000000" opacity=".1"/>
 <circle transform="matrix(0,-1,-1,0,0,0)" cx="-8" cy="-8" r="5" color="#000000" fill="#f7f7f7"/>
 <circle transform="matrix(0,-1,-1,0,0,0)" cx="-8" cy="-8" r="4" color="#000000" fill="#aea795"/>
 <circle transform="matrix(0,-1,-1,0,0,0)" cx="-8" cy="-8" r="3" color="#000000" fill="#aea795"/>
 <circle transform="matrix(0,-1,-1,0,0,0)" cx="-8" cy="-8" r="3" color="#000000" fill="#f7f7f7"/>
 <rect x="7" y="6" width="2" height="4" enable-background="new" fill="#3b3b3b"/>
 <circle cx="8" cy="8" r="7.5" enable-background="new" fill="none" opacity=".4" stroke="#000" stroke-dashoffset="6.6" stroke-linejoin="round"/>
 <path d="m8 1c-3.866 0-7 3.134-7 7 0 3.866 3.134 7 7 7 3.866 0 7-3.134 7-7 0-3.866-3.134-7-7-7zm0 1a6 6 0 0 1 6 6 6 6 0 0 1-6 6 6 6 0 0 1-6-6 6 6 0 0 1 6-6z" enable-background="new" fill="url(#linearGradient8590-3-3-4)"/>
</svg>
