<svg width="16" height="16" version="1" xmlns="http://www.w3.org/2000/svg" xmlns:xlink="http://www.w3.org/1999/xlink">
 <defs>
  <linearGradient id="linearGradient920" x1="441.38" x2="52.966" y1="240.28" y2="401.43" gradientTransform="matrix(0 -.038619 .039047 0 -4.5283 17.545)" gradientUnits="userSpaceOnUse">
   <stop stop-color="#bc1938" offset="0"/>
   <stop stop-color="#da1636" offset="1"/>
  </linearGradient>
  <linearGradient id="linearGradient993" x1="327.54" x2="327.54" y1="238.87" y2="250.07" gradientTransform="matrix(1.0833 0 0 1.0714 -346.83 -253.93)" gradientUnits="userSpaceOnUse">
   <stop stop-color="#fff" offset="0"/>
   <stop stop-color="#fff" stop-opacity=".098039" offset=".125"/>
   <stop stop-color="#fff" stop-opacity=".098039" offset=".925"/>
   <stop stop-color="#fff" stop-opacity=".49804" offset="1"/>
  </linearGradient>
 </defs>
 <path d="m5.0959 0.99994c-0.71904 0-1.3018 0.0139-1.8359 0.10352-0.53409 0.0897-1.0683 0.27628-1.4766 0.68359-0.40826 0.4073-0.59657 0.94323-0.68554 1.4785-0.089 0.53529-0.10119 1.1205-0.0977 1.8418v2.8926 3.8984c-3e-3 0.71816 9e-3 1.3024 0.0977 1.8359 0.089 0.53528 0.27727 1.0712 0.68554 1.4785 0.40827 0.40731 0.94248 0.59394 1.4766 0.68359 0.53408 0.0897 1.1169 0.10352 1.8359 0.10352h5.8086c0.71904 0 1.3006-0.0137 1.834-0.10352 0.53341-0.0898 1.0677-0.27792 1.4746-0.68554s0.59404-0.94271 0.68359-1.4766c0.08956-0.53386 0.10352-1.1155 0.10352-1.8359v-3.8984-2.8984c0-0.72043-0.014-1.3021-0.10352-1.8359-0.0895-0.53385-0.27666-1.0689-0.68359-1.4766s-0.9412-0.59578-1.4746-0.68554c-0.5334-0.08977-1.1149-0.10352-1.834-0.10352z" color="#000000" color-rendering="auto" dominant-baseline="auto" image-rendering="auto" opacity=".1" shape-rendering="auto" solid-color="#000000" style="font-feature-settings:normal;font-variant-alternates:normal;font-variant-caps:normal;font-variant-ligatures:normal;font-variant-numeric:normal;font-variant-position:normal;isolation:auto;mix-blend-mode:normal;shape-padding:0;text-decoration-color:#000000;text-decoration-line:none;text-decoration-style:solid;text-indent:0;text-orientation:mixed;text-transform:none;white-space:normal"/>
 <path d="m4.8547 0.49995c-3.0417 0-3.3689 0.30899-3.354 3.3233v4.1767 4.1767c-0.0149 3.0143 0.31237 3.3233 3.354 3.3233h6.2915c3.0417 0 3.354-0.30895 3.354-3.3233v-4.1767-4.1767c0-3.0144-0.31238-3.3233-3.354-3.3233z" color="#000000" fill="url(#linearGradient920)"/>
 <path d="m4.9143 0.9765c-1.4313 0-2.1665 0.11907-2.4726 0.39453-0.15307 0.13774-0.26596 0.33853-0.34766 0.72071-0.0817 0.38217-0.11719 0.92696-0.11719 1.6504v4.2578 4.2578c0 0.72344 0.0355 1.2682 0.11719 1.6504 0.0817 0.38218 0.19459 0.58297 0.34766 0.72071 0.30613 0.27546 1.0414 0.39453 2.4726 0.39453h6.1719c1.4317 0 2.171-0.1188 2.4785-0.39453 0.15378-0.13787 0.26676-0.3373 0.34766-0.71875 0.0808-0.38146 0.11533-0.92741 0.11133-1.6504v-2e-3 -4.2578-4.2578-2e-3c4e-3 -0.72298-0.0304-1.2689-0.11133-1.6504-0.0809-0.38145-0.19388-0.57893-0.34766-0.71679-0.30755-0.27574-1.0468-0.39649-2.4785-0.39649zm0.43946 1.0176h5.293c0.74319 0 1.2958 0.0246 1.6406 0.082 0.34486 0.0574 0.43218 0.12584 0.46484 0.15821 0.0326 0.0324 0.10206 0.12062 0.16016 0.46289 0.0581 0.34229 0.084 0.89034 0.084 1.627v3.1758 4.1777c0 0.73661-0.0259 1.2827-0.084 1.625-0.0581 0.34228-0.12751 0.43054-0.16016 0.46289-0.0326 0.0324-0.11998 0.10086-0.46484 0.15821-0.34485 0.0574-0.89744 0.082-1.6406 0.082h-5.293c-0.7432 0-1.2962-0.0245-1.6426-0.082s-0.43563-0.12554-0.46875-0.15821c-0.0332-0.0327-0.10092-0.12008-0.15821-0.46093-0.0573-0.34086-0.0817-0.88734-0.0781-1.623v-2e-3 -4.1797-3.1777-2e-3c-3e-3 -0.73571 0.0208-1.2842 0.0781-1.625 0.0573-0.34087 0.1251-0.42827 0.15821-0.46093 0.0331-0.0327 0.12234-0.10075 0.46875-0.15821 0.34642-0.0575 0.89938-0.082 1.6426-0.082z" color="#000000" color-rendering="auto" dominant-baseline="auto" fill="url(#linearGradient993)" image-rendering="auto" opacity=".4" shape-rendering="auto" solid-color="#000000" style="font-feature-settings:normal;font-variant-alternates:normal;font-variant-caps:normal;font-variant-ligatures:normal;font-variant-numeric:normal;font-variant-position:normal;isolation:auto;mix-blend-mode:normal;shape-padding:0;text-decoration-color:#000000;text-decoration-line:none;text-decoration-style:solid;text-indent:0;text-orientation:mixed;text-transform:none;white-space:normal"/>
 <path d="m11.087 15.512c2.8973 0 3.4401-0.30259 3.4249-3.2545v-4.2572-4.2572c0.0152-2.952-0.52756-3.2545-3.4249-3.2545h-6.1733c-2.8966 0-3.4249 0.30255-3.4249 3.2545v4.2572 4.2572c0 2.952 0.52828 3.2545 3.4249 3.2545z" color="#000000" fill="none" opacity=".4" stroke="#000" stroke-width=".97653"/>
 <path d="m4.0002 0.51556c-2.2363 0.0816-2.5134 0.61043-2.5 3.3086v8.3516c-0.0133 2.6982 0.26367 3.227 2.5 3.3086z" enable-background="new" opacity=".15"/>
 <path d="m1.9768 6.9999v5.2578c0 0.72344 0.0355 1.2682 0.11719 1.6504 0.0817 0.38218 0.19459 0.58297 0.34766 0.72071 0.30613 0.27546 1.0414 0.39453 2.4726 0.39453h6.1719c1.4317 0 2.171-0.1188 2.4785-0.39453 0.15378-0.13787 0.26676-0.3373 0.34766-0.71875 0.0808-0.38146 0.11533-0.92741 0.11133-1.6504v-5.2598z" enable-background="new" fill="#fff" opacity=".03"/>
 <path d="m9.8869 7.1572c-0.32252 0-0.59986 0.0225-0.83207 0.0677-0.22575 0.0452-0.39348 0.0935-0.50313 0.14512l0.087 0.55151c0.0838-0.0322 0.21607-0.0741 0.39668-0.12571 0.18061-0.0516 0.45483-0.0776 0.82251-0.0776 0.258 0 0.46434 0.042 0.61914 0.12587 0.16126 0.0774 0.28387 0.1839 0.36772 0.31935 0.0903 0.129 0.14829 0.27736 0.17408 0.44506 0.0259 0.16126 0.0387 0.32883 0.0387 0.50299v0.30965c-0.0258-0.0129-0.0742-0.0258-0.14511-0.0387-0.0645-0.0194-0.14511-0.0355-0.24187-0.0483-0.0903-0.0194-0.18702-0.0322-0.29023-0.0387-0.0968-0.0129-0.19022-0.0194-0.28055-0.0194-0.30316 0-0.58372 0.029-0.84174 0.0871-0.25801 0.0581-0.48062 0.15167-0.66766 0.28068-0.18706 0.12256-0.33216 0.28053-0.43536 0.47403-0.10321 0.19351-0.15483 0.42573-0.15483 0.69663 0 0.28382 0.0452 0.5258 0.13541 0.72576 0.0967 0.1935 0.22573 0.35472 0.38698 0.48373 0.16771 0.12255 0.36131 0.21277 0.58064 0.27082 0.22576 0.0581 0.47083 0.0872 0.7353 0.0872 0.20641 0 0.40639-0.01 0.59989-0.0291 0.19996-0.0129 0.38056-0.0322 0.54182-0.0581 0.16125-0.0258 0.30308-0.0483 0.42563-0.0676 0.12257-0.0259 0.21619-0.0484 0.28069-0.0678v-3.1541c0-0.26447-0.0323-0.5097-0.0967-0.73546-0.0645-0.22575-0.16775-0.41922-0.30964-0.58047-0.14191-0.1677-0.32903-0.29668-0.56124-0.38699-0.22575-0.0968-0.50308-0.14512-0.83204-0.14512zm0.19347 2.6607c0.27091 0 0.48375 0.0194 0.63856 0.0581 0.1548 0.0322 0.26765 0.0645 0.3386 0.0967v1.761c-0.129 0.0259-0.28696 0.0483-0.47401 0.0677-0.18061 0.0129-0.39346 0.0194-0.63856 0.0194-0.19997 0-0.38056-0.0162-0.54181-0.0484-0.1548-0.0387-0.29029-0.0968-0.40641-0.17422-0.10964-0.0774-0.19676-0.1805-0.26126-0.3095-0.0581-0.12901-0.0871-0.28713-0.0871-0.47417 0-0.21287 0.0452-0.38385 0.13542-0.51284 0.0903-0.12901 0.2064-0.22885 0.3483-0.29981 0.14192-0.0774 0.29677-0.12593 0.46449-0.14527 0.1677-0.0259 0.32891-0.0386 0.48372-0.0386z" enable-background="new" fill="#fa9381"/>
</svg>
