<svg width="16" height="16" version="1" xmlns="http://www.w3.org/2000/svg" xmlns:xlink="http://www.w3.org/1999/xlink">
 <defs>
  <linearGradient id="linearGradient1692-6" x1="321" x2="335" y1="244" y2="244" gradientTransform="rotate(90 286 -34)" gradientUnits="userSpaceOnUse">
   <stop stop-color="#fff" offset="0"/>
   <stop stop-color="#fff" stop-opacity=".098039" offset=".125"/>
   <stop stop-color="#fff" stop-opacity=".098039" offset=".925"/>
   <stop stop-color="#fff" stop-opacity=".49804" offset="1"/>
  </linearGradient>
 </defs>
 <path d="m4.1286 1c-3.7436 0-4.1464 0.30899-4.128 3.3233v4.1767 4.1767c-0.0183 3.0143 0.38446 3.3233 4.128 3.3233h7.7433c3.7436 0 4.128-0.30895 4.128-3.3233v-4.1767-4.1767c0-3.0144-0.38446-3.3233-4.128-3.3233z" color="#000000" opacity=".1"/>
 <path d="m8 0.5v15h3.5957c3.476 0 3.849-0.30989 3.832-3.3242v-4.1758-4.1758c0.01704-3.0143-0.35599-3.3242-3.832-3.3242z" color="#000000" fill="#3685e5" fill-opacity=".99216" opacity=".98848"/>
 <path d="m8.0007 0.5v15h-3.5957c-3.4761 0-3.832-0.30985-3.832-3.3242v-8.3516c0-3.0144 0.35599-3.3242 3.832-3.3242z" enable-background="new" fill="#f6f5f4" fill-opacity=".99216"/>
 <path d="m4.5 9c-0.21945 0-0.4389 0.0677-0.57424 0.203-0.2707 0.2707-0.17122 0.80608 0 1.1485l0.47891 0.9567-0.0965 0.0965-0.9567-0.4789c-0.34241-0.17122-0.87779-0.27072-1.1485 0-0.27069 0.2707-0.27069 0.87777 0 1.1485 0.27071 0.2707 0.80609 0.1712 1.1485 0l0.9567-0.47892 0.0965 0.0965-0.47891 0.95671c-0.17122 0.34241-0.2707 0.87778 0 1.1485 0.2707 0.2707 0.87777 0.2707 1.1485 0 0.2707-0.27071 0.1712-0.80608 0-1.1485l-0.47892-0.95671 0.0965-0.0965 0.95671 0.47892c0.34241 0.1712 0.87779 0.2707 1.1485 0 0.2707-0.27072 0.2707-0.87779 0-1.1485-0.2707-0.27072-0.80608-0.17122-1.1485 0l-0.95671 0.4789-0.0965-0.0965 0.47892-0.9567c0.1712-0.34242 0.2707-0.8778 0-1.1485-0.13536-0.13534-0.3548-0.203-0.57425-0.203z" enable-background="new" fill="#4d4d4d"/>
 <circle cx="4.5" cy="5.5" r="2.5" enable-background="new" fill="#fdc92b"/>
 <path d="m13.75 6.75s0.44492 1.4426 3e-5 1.8875c-0.35359 0.3536-1.5002 0-1.5002 0l-3e-5 -1.6375 3e-5 1.6375s-0.41097 0.11901-0.62255 0.125c-0.29524 8e-3 -0.87722-0.125-0.87722-0.125l-3e-5 -1.6375 3e-5 2.25s-0.0319 0.28183-0.125 0.375c-0.54423 0.21903-0.89827 0.40599-1.2251 0.125-0.41248-0.41248 0-1.75 0-1.75" enable-background="new" fill="none" stroke="#faf8f6" stroke-width=".5"/>
 <rect x="11.5" y="5.5" width=".5" height=".5" rx=".1" ry=".1" enable-background="new" fill="#faf8f6"/>
 <rect x="12.5" y="5.5" width=".5" height=".5" rx=".1" ry=".1" enable-background="new" fill="#faf8f6"/>
 <rect x="12" y="5" width=".5" height=".5" rx=".1" ry=".1" enable-background="new" fill="#faf8f6"/>
 <circle cx="3.5" cy="4.5" r=".5" enable-background="new" fill="#4d4d4d"/>
 <circle cx="5.5" cy="4.5" r=".5" enable-background="new" fill="#4d4d4d"/>
 <path d="m3.0879 6a1.5 1.5 0 0 0 1.4121 1 1.5 1.5 0 0 0 1.4141-1z" enable-background="new" fill="#f46270"/>
 <path d="m11.555 15.5c3.337 0 3.9622-0.30212 3.9447-3.2495v-4.2505-4.2506c0.0175-2.9473-0.60763-3.2494-3.9447-3.2494h-7.1102c-3.3362 0-3.9447 0.30208-3.9447 3.2494v4.2506 4.2505c0 2.9474 0.60847 3.2495 3.9447 3.2495z" color="#000000" fill="none" opacity=".4" stroke="#000"/>
 <path d="m4.4453 1c-1.653 0-2.546 0.12548-2.916 0.41406-0.18499 0.14429-0.30479 0.33122-0.39649 0.70313-0.09171 0.37191-0.13281 0.91317-0.13281 1.6328v4.25 4.25c0 0.71964 0.0411 1.2608 0.13281 1.6328 0.0917 0.37191 0.2115 0.55884 0.39649 0.70313 0.36997 0.28858 1.263 0.41406 2.916 0.41406h7.1094c1.6534 0 2.552-0.12511 2.9238-0.41406 0.18589-0.14448 0.30578-0.33208 0.39648-0.70313s0.129-0.90979 0.125-1.6289v-2e-3 -4.2519-4.252-2e-3c4e-3 -0.71911-0.0343-1.2578-0.125-1.6289s-0.21059-0.55865-0.39648-0.70313c-0.37179-0.2889-1.2704-0.41402-2.9238-0.41402zm5.3281 1.0469c1.1077-3.4e-4 2.2136 8e-3 3.3203 0.0449 0.26616 0.0599 0.75737-0.0208 0.79297 0.3457 0.13405 1.8444 0.0662 3.6877 0.10156 5.5391-0.0126 1.8674 0.0543 3.6703-0.10351 5.498 0.0642 0.42314-0.43946 0.35577-0.70313 0.42187-3.4328 0.0703-6.8758 0.0589-10.299 2e-3 -0.22288-0.0398-0.55622-3.2e-4 -0.71093-0.1875-0.19863-1.13-0.12696-2.2695-0.16016-3.4199 0.0138-2.5565-0.029-5.1073 0.0898-7.6562-0.03-0.2727 0.10944-0.49629 0.40039-0.48829 1.3066-0.161 2.6326-0.0636 3.9473-0.0976 1.1072 6e-3 2.2166-2e-3 3.3242-2e-3z" color="#000000" fill="url(#linearGradient1692-6)"/>
</svg>
