<svg id="SVGRoot" width="16" height="16" version="1.1" viewBox="0 0 16 16" xmlns="http://www.w3.org/2000/svg" xmlns:xlink="http://www.w3.org/1999/xlink">
 <defs>
  <linearGradient id="linearGradient920-3" x1="441.38" x2="52.966" y1="240.28" y2="401.43" gradientTransform="matrix(0 -.038619 .039047 0 315.47 253.55)" gradientUnits="userSpaceOnUse">
   <stop stop-color="#e8e8e8" offset="0"/>
   <stop stop-color="#f5f5f5" offset="1"/>
  </linearGradient>
  <linearGradient id="linearGradient993-6" x1="328" x2="328" y1="237" y2="251" gradientUnits="userSpaceOnUse">
   <stop stop-color="#fff" offset="0"/>
   <stop stop-color="#fff" stop-opacity=".098039" offset=".125"/>
   <stop stop-color="#fff" stop-opacity=".098039" offset=".925"/>
   <stop stop-color="#fff" stop-opacity=".49804" offset="1"/>
  </linearGradient>
  <clipPath id="clipPath983">
   <path d="m325.1 237c-2.8077 0-3.1098 0.28839-3.096 3.1018v3.8982 3.8982c-0.0138 2.8134 0.28834 3.1018 3.096 3.1018h5.8075c2.8077 0 3.096-0.28835 3.096-3.1018v-3.8982-3.8982c0-2.8134-0.28835-3.1018-3.096-3.1018z" color="#000000" fill="#46a926"/>
  </clipPath>
 </defs>
 <g transform="translate(-320 -236)" enable-background="new">
  <path d="m325.1 237c-0.71904 0-1.3018 0.0139-1.8359 0.10352-0.53409 0.0897-1.0683 0.27628-1.4766 0.68359-0.40826 0.4073-0.59657 0.94323-0.68554 1.4785-0.089 0.53529-0.10119 1.1205-0.0977 1.8418v2.8926 3.8984c-3e-3 0.71816 9e-3 1.3024 0.0977 1.8359 0.089 0.53528 0.27727 1.0712 0.68554 1.4785 0.40827 0.40731 0.94248 0.59394 1.4766 0.68359 0.53408 0.0897 1.1169 0.10352 1.8359 0.10352h5.8086c0.71904 0 1.3006-0.0137 1.834-0.10352 0.53341-0.0898 1.0677-0.27792 1.4746-0.68554s0.59404-0.94271 0.68359-1.4766c0.08956-0.53386 0.10352-1.1155 0.10352-1.8359v-3.8984-2.8984c0-0.72043-0.014-1.3021-0.10352-1.8359-0.0895-0.53385-0.27666-1.0689-0.68359-1.4766s-0.9412-0.59578-1.4746-0.68554c-0.5334-0.08977-1.1149-0.10352-1.834-0.10352z" color="#000000" color-rendering="auto" dominant-baseline="auto" enable-background="accumulate" image-rendering="auto" opacity=".1" shape-rendering="auto" solid-color="#000000" style="font-feature-settings:normal;font-variant-alternates:normal;font-variant-caps:normal;font-variant-ligatures:normal;font-variant-numeric:normal;font-variant-position:normal;isolation:auto;mix-blend-mode:normal;shape-padding:0;text-decoration-color:#000000;text-decoration-line:none;text-decoration-style:solid;text-indent:0;text-orientation:mixed;text-transform:none;white-space:normal"/>
  <path d="m324.85 236.5c-3.0417 0-3.3689 0.30899-3.354 3.3233v4.1767 4.1767c-0.0149 3.0143 0.31237 3.3233 3.354 3.3233h6.2915c3.0417 0 3.354-0.30895 3.354-3.3233v-4.1767-4.1767c0-3.0144-0.31238-3.3233-3.354-3.3233z" color="#000000" enable-background="accumulate" fill="url(#linearGradient920-3)"/>
  <path transform="matrix(1.0833 0 0 1.0714 -27.333 -17.429)" d="m325.1 237c-2.8077 0-3.1098 0.28839-3.096 3.1018v3.8982 3.8982c-0.0138 2.8134 0.28834 3.1018 3.096 3.1018h5.8075c2.8077 0 3.096-0.28835 3.096-3.1018v-3.8982-3.8982c0-2.8134-0.28835-3.1018-3.096-3.1018z" clip-path="url(#clipPath983)" color="#000000" enable-background="accumulate" fill="none" opacity=".7" stroke="url(#linearGradient993-6)" stroke-width="1.8564"/>
  <path d="m331.09 251.51c2.8973 0 3.4401-0.30259 3.4249-3.2545v-4.2572-4.2572c0.0152-2.952-0.52756-3.2545-3.4249-3.2545h-6.1733c-2.8966 0-3.4249 0.30255-3.4249 3.2545v4.2572 4.2572c0 2.952 0.52828 3.2545 3.4249 3.2545z" color="#000000" enable-background="accumulate" fill="none" opacity=".4" stroke="#000" stroke-width=".97653"/>
  <path d="m323 241v-1h7v1z" color="#000000" enable-background="accumulate" fill="#c8c4b7" fill-opacity=".99608"/>
  <path d="m323 243v-1h5v1z" color="#000000" enable-background="accumulate" fill="#c8c4b7"/>
  <path d="m323 245v-1h4v1z" color="#000000" enable-background="accumulate" fill="#c8c4b7"/>
  <path d="m323 247v-1h10v1z" color="#000000" enable-background="accumulate" fill="#c8c4b7" fill-opacity=".99608"/>
  <path d="m323 249v-1h8v1z" color="#000000" enable-background="accumulate" fill="#c8c4b7" fill-opacity=".99608"/>
  <path d="m326.73 246.26-3.7311 1.7412 1.7412-3.7311 0.37311-0.37311 1.9899 1.9899z" fill="#fec589"/>
  <path d="m323.55 246.81-0.55384 1.1873 1.1873-0.55383c-6e-3 6e-3 -0.6335-0.63351-0.6335-0.63351z" color="#000000" enable-background="accumulate" fill="#5d5d5d"/>
  <path d="m324.74 244.27s1.9682 2.0751 1.9899 1.9899l6.2689-6.2689-1.9899-1.9899z" fill="#2f5fdd"/>
 </g>
</svg>
