<svg width="16" height="16" version="1" xmlns="http://www.w3.org/2000/svg" xmlns:xlink="http://www.w3.org/1999/xlink">
 <defs>
  <linearGradient id="linearGradient1692" x1="320" x2="336" y1="252" y2="252" gradientTransform="rotate(90 286 -34)" gradientUnits="userSpaceOnUse">
   <stop stop-color="#fff" offset="0"/>
   <stop stop-color="#fff" offset="1"/>
  </linearGradient>
  <linearGradient id="linearGradient1692-6-3" x1="321" x2="335" y1="244" y2="244" gradientTransform="rotate(90 286 -34)" gradientUnits="userSpaceOnUse">
   <stop stop-color="#fff" offset="0"/>
   <stop stop-color="#fff" stop-opacity=".098039" offset=".125"/>
   <stop stop-color="#fff" stop-opacity=".098039" offset=".925"/>
   <stop stop-color="#fff" stop-opacity=".49804" offset="1"/>
  </linearGradient>
 </defs>
 <path d="m4.1286 1c-3.7436 0-4.1464 0.30899-4.128 3.3233v4.1767 4.1767c-0.0183 3.0143 0.38446 3.3233 4.128 3.3233h7.7433c3.7436 0 4.128-0.30895 4.128-3.3233v-4.1767-4.1767c0-3.0144-0.38446-3.3233-4.128-3.3233z" color="#000000" opacity=".1"/>
 <path d="m4.4056 0.50001c-3.476 0-3.8501 0.30899-3.833 3.3233v4.1767 4.1767c-0.017 3.0143 0.35698 3.3233 3.833 3.3233h7.19c3.476 0 3.833-0.30895 3.833-3.3233v-4.1767-4.1767c0-3.0144-0.35699-3.3233-3.833-3.3233z" color="#000000" fill="url(#linearGradient1692)"/>
 <path d="m10.369 6.3889c0 0.34035 0.0122 0.67866-4e-3 1.019-0.0163 0.38722 0.10191 0.71941 0.34646 1.0129 0.0285 0.0346 0.055 0.0693 0.0795 0.10599 0.0876 0.13247 0.0713 0.22417-0.0489 0.32608-0.25681 0.21604-0.51155 0.43409-0.76833 0.65013-0.15285 0.12839-0.24864 0.12636-0.40352 0-0.20787-0.16915-0.37092-0.37703-0.51561-0.59919-0.0346-0.053-0.053-0.0509-0.0958-0.0102-0.25681 0.25067-0.52785 0.48301-0.87226 0.59918-0.53193 0.18138-1.072 0.20992-1.606 0.0204-0.51358-0.18342-0.82131-0.5625-0.93545-1.0903-0.12635-0.58899-0.0611-1.1494 0.30162-1.6488 0.27513-0.37703 0.65623-0.59917 1.0944-0.73571 0.45244-0.13858 0.91913-0.19157 1.3879-0.23844 0.13248-0.0143 0.26291-0.0265 0.39537-0.0387 0.0326-2e-3 0.0611-6e-3 0.0591-0.0489-4e-3 -0.21602 0.0183-0.43614-0.0326-0.64809-0.0652-0.27104-0.24254-0.43001-0.51358-0.48913-0.1936-0.0428-0.38518-0.0306-0.57268 0.0326-0.28531 0.0978-0.46263 0.29551-0.53395 0.58897-0.0387 0.16101-0.11413 0.21807-0.27106 0.20176-0.33423-0.0346-0.66846-0.0693-1.0006-0.10394-0.13655-0.0143-0.20787-0.11821-0.17935-0.25069 0.17323-0.84576 0.72758-1.3206 1.5265-1.5387 0.61344-0.16711 1.235-0.1773 1.8505-4e-3 0.49523 0.13858 0.91099 0.38314 1.1433 0.86818 0.13248 0.27514 0.16305 0.57268 0.16712 0.87023 4e-3 0.38114 0 0.76631 2e-3 1.1495-2e-3 0 0 0 0 0zm-1.5856 0.63586c0-0.1019-4e-3 -0.20379 2e-3 -0.3057 4e-3 -0.0632-0.0183-0.0856-0.0815-0.0795-0.1549 0.0143-0.31181 0.0163-0.46671 0.0367-0.27105 0.0346-0.536 0.1019-0.7561 0.27309-0.31998 0.25068-0.38722 0.59306-0.33425 0.97824 0.0632 0.45242 0.46671 0.70311 0.89877 0.5523 0.29347-0.10191 0.4728-0.31792 0.59713-0.58899 0.13043-0.2751 0.14063-0.57062 0.14063-0.86613z" enable-background="new" fill="#050606" stroke-width=".26222"/>
 <path d="m8.0292 11.625c-1.555-0.0102-2.951-0.40962-4.2126-1.2513-0.25679-0.1712-0.50136-0.3587-0.73368-0.56452-0.0204-0.0183-0.0408-0.0367-0.0571-0.0591-0.0224-0.0306-0.0387-0.0672-0.0122-0.10393 0.0265-0.0408 0.0713-0.0448 0.11006-0.0265 0.0897 0.0428 0.17527 0.0897 0.26289 0.13451 0.80299 0.4239 1.6488 0.7296 2.5353 0.92321 0.80297 0.17527 1.6141 0.2568 2.4374 0.23436 1.1759-0.0326 2.3091-0.26901 3.3994-0.7072 0.053-0.0224 0.10803-0.0448 0.16305-0.0571 0.0775-0.0143 0.1549-4e-3 0.18955 0.0795 0.0326 0.0774-0.0102 0.13858-0.0673 0.18749-0.0408 0.0346-0.0876 0.0632-0.13451 0.0937-0.70311 0.45651-1.4735 0.74997-2.2887 0.93137-0.53805 0.12231-1.0842 0.18139-1.5917 0.18548z" enable-background="new" fill="#f6a61f" stroke-width=".26222"/>
 <path d="m11.952 9.8087c-0.23436-2e-3 -0.46669 0.0285-0.69903 0.053-0.0448 4e-3 -0.0958 0.0163-0.11616-0.0326-0.0245-0.055 0.0224-0.0876 0.0611-0.11413 0.28941-0.19156 0.61344-0.26697 0.9538-0.28532 0.23436-0.0143 0.46669-4e-3 0.69495 0.0652 0.10394 0.0306 0.15488 0.0917 0.15286 0.1977-0.0122 0.56655-0.20177 1.0598-0.6114 1.4612-0.0143 0.0143-0.0306 0.0265-0.0469 0.0387-0.0367 0.0265-0.0815 0.0509-0.12025 0.0183-0.0367-0.0306-0.0163-0.0754 0-0.11208 0.12025-0.29959 0.24253-0.59713 0.30161-0.9171 8e-3 -0.0408 0.0102-0.0815 0.0122-0.12026 2e-3 -0.13248-0.0448-0.18953-0.17527-0.22213-0.13655-0.0367-0.27311-0.0306-0.40762-0.0306z" enable-background="new" fill="#f6a61f" stroke-width=".26222"/>
 <path d="m11.555 15.5c3.337 0 3.9622-0.30212 3.9447-3.2495v-4.2505-4.2506c0.0175-2.9473-0.60763-3.2494-3.9447-3.2494h-7.1102c-3.3362 0-3.9447 0.30208-3.9447 3.2494v4.2506 4.2505c0 2.9474 0.60847 3.2495 3.9447 3.2495z" color="#000000" fill="none" opacity=".4" stroke="#000"/>
 <path d="m4.4453 1c-1.653 0-2.546 0.12548-2.916 0.41406-0.18499 0.14429-0.30479 0.33122-0.39649 0.70313-0.09171 0.37191-0.13281 0.91317-0.13281 1.6328v4.25 4.25c0 0.71964 0.0411 1.2608 0.13281 1.6328 0.0917 0.37191 0.2115 0.55884 0.39649 0.70313 0.36997 0.28858 1.263 0.41406 2.916 0.41406h7.1094c1.6534 0 2.552-0.12511 2.9238-0.41406 0.18589-0.14448 0.30578-0.33208 0.39648-0.70313s0.129-0.90979 0.125-1.6289v-2e-3 -4.2519-4.252-2e-3c4e-3 -0.71911-0.0343-1.2578-0.125-1.6289s-0.21059-0.55865-0.39648-0.70313c-0.37179-0.2889-1.2704-0.41402-2.9238-0.41402zm5.3281 1.0469c1.1077-3.4e-4 2.2136 8e-3 3.3203 0.0449 0.26616 0.0599 0.75737-0.0208 0.79297 0.3457 0.13405 1.8444 0.0662 3.6877 0.10156 5.5391-0.0126 1.8674 0.0543 3.6703-0.10351 5.498 0.0642 0.42314-0.43946 0.35577-0.70313 0.42187-3.4328 0.0703-6.8758 0.0589-10.299 2e-3 -0.22288-0.0398-0.55622-3.2e-4 -0.71093-0.1875-0.19863-1.13-0.12696-2.2695-0.16016-3.4199 0.0138-2.5565-0.029-5.1073 0.0898-7.6562-0.03-0.2727 0.10944-0.49629 0.40039-0.48829 1.3066-0.161 2.6326-0.0636 3.9473-0.0976 1.1072 6e-3 2.2166-2e-3 3.3242-2e-3z" color="#000000" fill="url(#linearGradient1692-6-3)"/>
</svg>
