<svg width="16" height="16" version="1" xmlns="http://www.w3.org/2000/svg" xmlns:xlink="http://www.w3.org/1999/xlink">
 <defs>
  <linearGradient id="linearGradient920" x1="459.03" x2="35.31" y1="419.23" y2="207.37" gradientTransform="matrix(0 -.036044 -.036043 0 19.565 16.909)" gradientUnits="userSpaceOnUse">
   <stop stop-color="#76c22b" offset="0"/>
   <stop stop-color="#a6d74f" offset="1"/>
  </linearGradient>
  <linearGradient id="linearGradient993" x1="328" x2="328" y1="237" y2="251" gradientUnits="userSpaceOnUse">
   <stop stop-color="#fff" offset="0"/>
   <stop stop-color="#fff" stop-opacity=".098039" offset=".125"/>
   <stop stop-color="#fff" stop-opacity=".098039" offset=".925"/>
   <stop stop-color="#fff" stop-opacity=".49804" offset="1"/>
  </linearGradient>
  <clipPath id="clipPath983">
   <path d="m325.1 237c-2.8077 0-3.1098 0.28839-3.096 3.1018v3.8982 3.8982c-0.0138 2.8134 0.28834 3.1018 3.096 3.1018h5.8075c2.8077 0 3.096-0.28835 3.096-3.1018v-3.8982-3.8982c0-2.8134-0.28835-3.1018-3.096-3.1018z" color="#000000" fill="#46a926"/>
  </clipPath>
 </defs>
 <path d="m10.904 0.5c0.71048 0 1.2734 0.0154 1.752 0.0957s0.89671 0.23728 1.207 0.54688c0.31032 0.30959 0.46726 0.7261 0.54688 1.2051 0.0796 0.47897 0.0933 1.0435 0.0898 1.7559v3.8965 3.8984c3e-3 0.71121-0.0103 1.2755-0.0898 1.7539-0.0796 0.47898-0.23655 0.89549-0.54688 1.2051-0.31033 0.3096-0.72851 0.46655-1.207 0.54688-0.47852 0.0803-1.0415 0.0957-1.752 0.0957h-5.8086c-0.71048 0-1.2724-0.0153-1.75-0.0957-0.47763-0.0804-0.89584-0.23713-1.2051-0.54688-0.30921-0.30975-0.46469-0.72681-0.54492-1.2051-0.0802-0.47826-0.0957-1.042-0.0957-1.7539v-3.8984-3.8984c0-0.71189 0.0155-1.2756 0.0957-1.7539 0.0802-0.47827 0.2357-0.89533 0.54492-1.2051 0.30924-0.30975 0.72745-0.4665 1.2051-0.54688 0.47764-0.0804 1.0395-0.0957 1.75-0.0957z" color="#000000" fill="url(#linearGradient920)"/>
 <g transform="matrix(.066964 0 0 .066964 -2.1779 -2.9688)" enable-background="new" fill="#f9f9f9">
  <path d="m144.51 178.14c-0.43086-4.3236-3.0226-6.1386-12.922-9.0492-6.577-1.9338-7.7643-2.3626-11.106-4.0114-2.7635-1.3636-3.3432-1.7679-5.2466-3.659-1.722-1.7108-2.3417-2.5386-3.1734-4.2386-1.5234-3.1138-1.769-4.8271-1.776-12.387l-6e-3 -6.3781-1.0109-0.74559c-4.6412-3.4234-5.1191-10.658-0.97754-14.8 4.4768-4.4768 11.921-3.6663 15.335 1.6695 2.5438 3.9767 1.8102 9.4723-1.684 12.614-0.6961 0.62582-1.3762 1.1379-1.5114 1.1379-0.15826 0-0.21159 2.3239-0.14976 6.5242 0.0917 6.2284 0.12232 6.578 0.67606 7.7115 1.1387 2.331 3.767 3.87 9.8392 5.7613 7.7143 2.4028 11.469 3.6614 12.613 4.2278l1.1806 0.58439v-57.617h-4.8465c-2.7867 0-4.8465-0.0973-4.8465-0.22879 0-0.4188 14.411-24.252 14.664-24.252 0.25324 0 14.664 23.834 14.664 24.252 0 0.13181-2.0598 0.22879-4.8465 0.22879h-4.8465v43.503l1.1806-0.59718c1.917-0.96979 6.0193-2.2746 12.143-3.8622 10.597-2.7475 13.848-4.2623 15.15-7.0588 0.57821-1.2419 0.60071-1.4964 0.60306-6.82l2e-3 -5.53h-4.7224v-19.883h19.635v19.883h-4.6627l-0.1247 6.2756c-0.0943 4.7452-0.22402 6.6318-0.53191 7.7361-1.329 4.7662-4.8545 8.6195-10.129 11.071-2.9573 1.3744-5.7396 2.2726-12.364 3.9917-10.614 2.7543-13.75 4.1619-15.355 6.8914l-0.7001 1.191-0.0742 8.5747-0.0742 8.5746-0.0237 3.6824c-6.7281 8.234-9.1918 2.8816-9.9741-4.9685z" stroke-width="56.444"/>
  <g transform="matrix(1.1029 0 0 1.1029 112.23 -87.256)" stroke-width="18.799">
   <path d="m15.221 259.2c-1.6268 0-2.9365 1.1218-2.9365 2.5175v12.585c0 1.3938 1.3097 2.5156 2.9365 2.5156 1.6268 0 2.9365-1.1217 2.9365-2.5175v-12.584c0-1.3958-1.3097-2.5175-2.9365-2.5175z"/>
   <path transform="matrix(.26458 0 0 .26458 0 229.27)" d="m97.934 27.83c-0.3271 0.01923-0.65837 0.07121-0.98828 0.16211-2.6396 0.70752-4.1936 3.4014-3.4863 6.041l6.2324 23.256c-31.035 14.902-31.061 53.385-31.061 53.385v62.805c0 11.661 8.799 21.051 19.732 21.051h9.8633v19.732c0 5.4605 5.6314 9.8633 11.092 9.8633 5.4678 0 11.1-4.4028 11.1-9.8633v-19.73h14.797v19.73c-8e-3 5.4605 5.6318 9.8633 11.1 9.8633 5.4604 0 11.098-4.4028 11.098-9.8633v-19.732h9.8672c10.936 0 19.732-9.3902 19.732-21.051v-62.805s-0.0275-38.479-31.07-53.381l6.2305-23.26c0.71027-2.64-0.84289-5.3336-3.4844-6.041-2.6414-0.70749-5.3346 0.84839-6.0449 3.4883l-5.9863 22.369c-5.5048-1.5004-11.735-2.3691-18.838-2.3691-7.1034 0-13.333 0.87077-18.834 2.3711l-5.9863-22.373c-0.53271-1.9792-2.1829-3.3486-4.0918-3.6113h-0.0039c-0.3174-0.04195-0.64165-0.05634-0.96875-0.03711zm0.28711 48.312a7.3989 7.3989 0 0 1 7.3984 7.3984 7.3989 7.3989 0 0 1-7.3984 7.3984 7.3989 7.3989 0 0 1-7.3984-7.3984 7.3989 7.3989 0 0 1 7.3984-7.3984zm59.191 0a7.3989 7.3989 0 0 1 7.3984 7.3984 7.3989 7.3989 0 0 1-7.3984 7.3984 7.3989 7.3989 0 0 1-7.3984-7.3984 7.3989 7.3989 0 0 1 7.3984-7.3984zm-71.77 29.596h84.348c1.2297 0 2.2207 1.6497 2.2207 3.6992s-0.991 3.6992-2.2207 3.6992h-84.348c-1.2282 0-2.2207-1.6497-2.2207-3.6992s0.99248-3.6992 2.2207-3.6992z"/>
   <path d="m52.416 259.2c-1.6268 0-2.9365 1.1218-2.9365 2.5175v12.585c0 1.3938 1.3097 2.5156 2.9365 2.5156 1.6268 0 2.9365-1.1217 2.9365-2.5175v-12.585c0-1.3938-1.3097-2.5156-2.9365-2.5156z"/>
  </g>
 </g>
 <path d="m8.0005 1v14h2.9043c2.8077 0 3.0957-0.28815 3.0957-3.1016v-3.8984-3.8984c0-2.8134-0.28801-3.1016-3.0957-3.1016z" color="#000000" fill="#fff" opacity=".08"/>
 <path d="m2.0005 8v3.8984c-0.0138 2.8134 0.28801 3.1016 3.0957 3.1016h5.8086c2.8077 0 3.0957-0.28815 3.0957-3.1016v-3.8984z" color="#000000" fill="#fff" opacity=".08"/>
 <path d="m5.0962 0.5c-0.71048 0-1.2734 0.0154-1.752 0.0957s-0.89671 0.23728-1.207 0.54688c-0.31032 0.30959-0.46726 0.7261-0.54688 1.2051-0.0796 0.47897-0.0933 1.0435-0.0898 1.7559v3.8965 3.8984c-3e-3 0.71121 0.0103 1.2755 0.0898 1.7539 0.0796 0.47898 0.23655 0.89549 0.54688 1.2051 0.31033 0.3096 0.72851 0.46655 1.207 0.54688 0.47852 0.0803 1.0415 0.0957 1.752 0.0957h5.8086c0.71048 0 1.2724-0.0153 1.75-0.0957 0.47763-0.0804 0.89584-0.23713 1.2051-0.54688 0.30921-0.30975 0.46469-0.72681 0.54492-1.2051 0.0802-0.47826 0.0957-1.042 0.0957-1.7539v-3.8984-3.8984c0-0.71189-0.0155-1.2756-0.0957-1.7539-0.0802-0.47827-0.2357-0.89533-0.54492-1.2051-0.30924-0.30975-0.72745-0.4665-1.2051-0.54688-0.47764-0.0804-1.0395-0.0957-1.75-0.0957z" color="#000000" fill="none" opacity=".4" stroke="#000"/>
 <path transform="translate(-320 -236)" d="m325.1 237c-2.8077 0-3.1098 0.28839-3.096 3.1018v3.8982 3.8982c-0.0138 2.8134 0.28834 3.1018 3.096 3.1018h5.8075c2.8077 0 3.096-0.28835 3.096-3.1018v-3.8982-3.8982c0-2.8134-0.28835-3.1018-3.096-3.1018z" clip-path="url(#clipPath983)" color="#000000" fill="none" opacity=".4" stroke="url(#linearGradient993)" stroke-width="2"/>
</svg>
