<svg width="16" height="16" version="1" xmlns="http://www.w3.org/2000/svg" xmlns:xlink="http://www.w3.org/1999/xlink">
 <defs>
  <linearGradient id="linearGradient1692" x1="320" x2="336" y1="247" y2="241" gradientTransform="rotate(90 286 -34)" gradientUnits="userSpaceOnUse">
   <stop stop-color="#9b33ae" offset="0"/>
   <stop stop-color="#e97cc8" offset="1"/>
  </linearGradient>
  <linearGradient id="linearGradient1692-6" x1="321" x2="335" y1="244" y2="244" gradientTransform="rotate(90 286 -34)" gradientUnits="userSpaceOnUse">
   <stop stop-color="#9b33ae" offset="0"/>
   <stop stop-color="#d85eca" offset="1"/>
  </linearGradient>
 </defs>
 <path d="m4.1286 1c-3.7436 0-4.1464 0.30899-4.128 3.3233v4.1767 4.1767c-0.0183 3.0143 0.38446 3.3233 4.128 3.3233h7.7433c3.7436 0 4.128-0.30895 4.128-3.3233v-4.1767-4.1767c0-3.0144-0.38446-3.3233-4.128-3.3233z" color="#000000" opacity=".1"/>
 <path d="m4.4056 0.50001c-3.476 0-3.8501 0.30899-3.833 3.3233v4.1767 4.1767c-0.017 3.0143 0.35698 3.3233 3.833 3.3233h7.19c3.476 0 3.833-0.30895 3.833-3.3233v-4.1767-4.1767c0-3.0144-0.35699-3.3233-3.833-3.3233z" color="#000000" fill="url(#linearGradient1692)"/>
 <g transform="translate(-319.99 -236.01)" enable-background="new">
  <rect transform="rotate(90)" x="240.03" y="-331.99" width="7.9927" height="7.9927" color="#000000" enable-background="accumulate" fill="none"/>
  <path d="m328.65 239.99-1.3149 0.19646v0.67605a3.2417 3.2358 43.146 0 1 1.3149 2e-3v-0.87493zm-2.6905 0.59476-1.0018 0.85168 0.49355 0.58825a3.2417 3.2358 43.146 0 1 1.0078-0.84461zm4.0606 6e-3 -0.49597 0.59122a3.2417 3.2358 43.146 0 1 0.0852 0.0452 3.2417 3.2358 43.146 0 1 0.92144 0.8007l0.50211-0.59829zm-5.7997 2.1065-0.22008 1.2965 0.75698 0.13357a3.2417 3.2358 43.146 0 1 0.22734-1.2952zm7.536 2e-3 -0.7607 0.13413a3.2417 3.2358 43.146 0 1 0.23161 1.2943l0.76573-0.13488zm-6.835 2.3452-0.67512 0.38993h-1.7e-4l0.66489 1.1345 0.66843-0.38584a3.2417 3.2358 43.146 0 1-0.65801-1.1386zm6.1448 1e-3a3.2417 3.2358 43.146 0 1-0.26714 0.60685 3.2417 3.2358 43.146 0 1-0.38659 0.53411l0.6688 0.38621 0.6502-1.143zm-4.7741 1.7342-0.26715 0.73373 1.2386 0.44184 0.26268-0.72201a3.2417 3.2358 43.146 0 1-1.1506-0.39961 3.2417 3.2358 43.146 0 1-0.0835-0.054zm3.4035 8e-3a3.2417 3.2358 43.146 0 1-1.2362 0.44835l0.26491 0.72759 1.2327-0.45783z" color="#000000" enable-background="accumulate" fill="#fff"/>
  <circle cx="328" cy="244" r="3" fill="none" stroke="#fff" stroke-linecap="square" stroke-linejoin="round"/>
  <circle cx="328" cy="244" r="1.6667" fill="none" stroke="#fff" stroke-linecap="square" stroke-linejoin="round"/>
 </g>
 <path d="m11.555 15.5c3.337 0 3.9622-0.30212 3.9447-3.2495v-4.2505-4.2506c0.0175-2.9473-0.60763-3.2494-3.9447-3.2494h-7.1102c-3.3362 0-3.9447 0.30208-3.9447 3.2494v4.2506 4.2505c0 2.9474 0.60847 3.2495 3.9447 3.2495z" color="#000000" fill="none" opacity=".4" stroke="#000"/>
 <path d="m4.4453 1c-1.653 0-2.546 0.12548-2.916 0.41406-0.18499 0.14429-0.30479 0.33122-0.39649 0.70313-0.09171 0.37191-0.13281 0.91317-0.13281 1.6328v4.25 4.25c0 0.71964 0.0411 1.2608 0.13281 1.6328 0.0917 0.37191 0.2115 0.55884 0.39649 0.70313 0.36997 0.28858 1.263 0.41406 2.916 0.41406h7.1094c1.6534 0 2.552-0.12511 2.9238-0.41406 0.18589-0.14448 0.30578-0.33208 0.39648-0.70313s0.129-0.90979 0.125-1.6289v-2e-3 -4.2519-4.252-2e-3c4e-3 -0.71911-0.0343-1.2578-0.125-1.6289s-0.21059-0.55865-0.39648-0.70313c-0.37179-0.2889-1.2704-0.41402-2.9238-0.41402zm5.3281 1.0469c1.1077-3.4e-4 2.2136 8e-3 3.3203 0.0449 0.26616 0.0599 0.75737-0.0208 0.79297 0.3457 0.13405 1.8444 0.0662 3.6877 0.10156 5.5391-0.0126 1.8674 0.0543 3.6703-0.10351 5.498 0.0642 0.42314-0.43946 0.35577-0.70313 0.42187-3.4328 0.0703-6.8758 0.0589-10.299 2e-3 -0.22288-0.0398-0.55622-3.2e-4 -0.71093-0.1875-0.19863-1.13-0.12696-2.2695-0.16016-3.4199 0.0138-2.5565-0.029-5.1073 0.0898-7.6562-0.03-0.2727 0.10944-0.49629 0.40039-0.48829 1.3066-0.161 2.6326-0.0636 3.9473-0.0976 1.1072 6e-3 2.2166-2e-3 3.3242-2e-3z" color="#000000" fill="url(#linearGradient1692-6)"/>
</svg>
