<svg width="16" height="16" version="1" xmlns="http://www.w3.org/2000/svg" xmlns:xlink="http://www.w3.org/1999/xlink">
 <defs>
  <linearGradient id="linearGradient8590-3-3-4" x1="96" x2="96" y1="4" y2="188" gradientTransform="matrix(.076087 0 0 .076087 .19566 1.1957)" gradientUnits="userSpaceOnUse">
   <stop stop-color="#fff" offset="0"/>
   <stop stop-color="#fff" stop-opacity=".098039" offset=".125"/>
   <stop stop-color="#fff" stop-opacity=".098039" offset=".925"/>
   <stop stop-color="#fff" stop-opacity=".49804" offset="1"/>
  </linearGradient>
 </defs>
 <rect transform="matrix(0,-1,-1,0,0,0)" x="-16.5" y="-15.5" width="15" height="15" rx="7.5" ry="7.5" enable-background="new" opacity=".2"/>
 <rect transform="matrix(0,-1,-1,0,0,0)" x="-15.5" y="-15.5" width="15" height="15" rx="7.5" ry="7.5" enable-background="new" fill="#f76363"/>
 <circle cx="8" cy="8" r="7.5" enable-background="new" fill="none" opacity=".4" stroke="#000" stroke-dashoffset="6.6" stroke-linejoin="round"/>
 <path d="m8 1c-3.866 0-7 3.134-7 7 0 3.866 3.134 7 7 7 3.866 0 7-3.134 7-7 0-3.866-3.134-7-7-7zm0 1a6 6 0 0 1 6 6 6 6 0 0 1-6 6 6 6 0 0 1-6-6 6 6 0 0 1 6-6z" enable-background="new" fill="url(#linearGradient8590-3-3-4)"/>
 <path d="m5.9413 4.0212a2.3761 2.3761 0 0 0-2.3754 2.3229c0 0.59735 0.15646 1.0636 0.31672 1.4943 0.75191 1.78 2.2171 3.2674 4.1174 5.0512 1.9004-1.7838 3.3655-3.2712 4.1174-5.0512 0.16026-0.43075 0.31672-0.89696 0.31672-1.4949a2.3761 2.3761 0 0 0-4.4342-1.1314 2.3742 2.3742 0 0 0-2.0587-1.1909z" color="#000000" enable-background="new" fill="#fff" overflow="visible" stroke-width=".63345"/>
</svg>
