<svg width="16" height="16" version="1" xmlns="http://www.w3.org/2000/svg" xmlns:xlink="http://www.w3.org/1999/xlink">
 <defs>
  <linearGradient id="linearGradient1692" x1="320" x2="336" y1="252" y2="252" gradientTransform="rotate(90 286 -34)" gradientUnits="userSpaceOnUse">
   <stop stop-color="#f7f7f7" offset="0"/>
   <stop stop-color="#f7f7f7" offset="1"/>
  </linearGradient>
  <linearGradient id="linearGradient1692-6" x1="321" x2="335" y1="244" y2="244" gradientTransform="rotate(90 286 -34)" gradientUnits="userSpaceOnUse">
   <stop stop-color="#fff" offset="0"/>
   <stop stop-color="#fff" stop-opacity=".098039" offset=".125"/>
   <stop stop-color="#fff" stop-opacity=".098039" offset=".925"/>
   <stop stop-color="#fff" stop-opacity=".49804" offset="1"/>
  </linearGradient>
 </defs>
 <path d="m4.1286 1c-3.7436 0-4.1464 0.30899-4.128 3.3233v4.1767 4.1767c-0.0183 3.0143 0.38446 3.3233 4.128 3.3233h7.7433c3.7436 0 4.128-0.30895 4.128-3.3233v-4.1767-4.1767c0-3.0144-0.38446-3.3233-4.128-3.3233z" color="#000000" opacity=".1"/>
 <path d="m4.4056 0.50001c-3.476 0-3.8501 0.30899-3.833 3.3233v4.1767 4.1767c-0.017 3.0143 0.35698 3.3233 3.833 3.3233h7.19c3.476 0 3.833-0.30895 3.833-3.3233v-4.1767-4.1767c0-3.0144-0.35699-3.3233-3.833-3.3233z" color="#000000" fill="url(#linearGradient1692)"/>
 <path d="m11.304 9.2642c-0.19379-0.40058-0.45516-0.82775-0.77638-1.2642 0.32122-0.43648 0.58259-0.86364 0.77631-1.2643 0.8692 0.32217 1.4094 0.76982 1.4094 1.2643 0 0.49446-0.5402 0.94212-1.4093 1.2642zm0.029 2.0682c-0.34963 0.34963-1.0481 0.2842-1.8905-0.10265 0.14625-0.42027 0.2635-0.90717 0.345-1.443 0.53571-0.0814 1.0227-0.19868 1.4429-0.34493 0.38685 0.84234 0.45228 1.5409 0.10266 1.8905m-3.3325 1.3803c-0.49447 0-0.94212-0.5402-1.2643-1.4094 0.40065-0.19373 0.82788-0.45509 1.2643-0.77631 0.43647 0.32122 0.86364 0.58258 1.2643 0.77631-0.32216 0.8692-0.76982 1.4094-1.2643 1.4094zm-3.3325-1.3803c-0.34962-0.34962-0.2842-1.0482 0.10259-1.8905 0.42027 0.14625 0.90723 0.2635 1.443 0.34493 0.0815 0.53585 0.19875 1.0227 0.345 1.443-0.84241 0.38685-1.5409 0.45228-1.8905 0.10265zm-1.3803-3.3325c0-0.49447 0.5402-0.94212 1.4094-1.2643 0.19373 0.40065 0.45509 0.82781 0.77632 1.2643-0.32123 0.43647-0.58259 0.86364-0.77638 1.2642-0.86913-0.3221-1.4093-0.76976-1.4093-1.2642zm1.3803-3.3325c0.34962-0.34962 1.0482-0.2842 1.8905 0.10266-0.14625 0.4202-0.26351 0.90709-0.345 1.4429-0.53572 0.0815-1.0227 0.19868-1.443 0.345-0.38679-0.84235-0.45221-1.5409-0.10259-1.8905zm3.3325-1.3803c0.49446 0 0.94212 0.5402 1.2643 1.4094-0.40064 0.19366-0.82788 0.45509-1.2643 0.77632-0.43641-0.32123-0.86364-0.58266-1.2643-0.77632 0.32217-0.86919 0.76982-1.4094 1.2643-1.4094zm1.8928 3.9288c-0.0182-0.29531-0.0467-0.58085-0.0842-0.85467 0.50324 0.0791 0.96281 0.18992 1.3603 0.32612-0.18475 0.37734-0.43138 0.78067-0.73132 1.1924a11.495 11.495 0 0 0-0.54475-0.66388zm0.0119 1.3373c8e-3 -0.18141 0.0122-0.36576 0.0122-0.55326s-4e-3 -0.37186-0.0122-0.55326a11.134 11.134 0 0 1 0.44384 0.55326 11.134 11.134 0 0 1-0.44384 0.55326zm-0.0119 0.23076a11.495 11.495 0 0 0 0.54475-0.66389c0.29994 0.41176 0.54657 0.81509 0.73132 1.1924-0.3975 0.13621-0.85707 0.24704-1.3603 0.32612 0.0376-0.27382 0.066-0.55935 0.0842-0.85466zm-0.93716 0.95404a12.925 12.925 0 0 0 0.39977-0.38257c0.13259-0.13259 0.25989-0.26605 0.38264-0.39985-0.0188 0.24242-0.045 0.47773-0.0774 0.70507-0.22734 0.0324-0.46265 0.0585-0.70506 0.0773zm-0.17163 0.15475c0.29538-0.0182 0.58091-0.0466 0.85466-0.0842-0.079 0.50324-0.18991 0.96281-0.32612 1.3602-0.37734-0.18468-0.78066-0.43125-1.1924-0.73125 0.22802-0.17323 0.44947-0.35491 0.66389-0.54475m-1.3373 0.0119c0.18141 8e-3 0.36576 0.0121 0.55326 0.0121s0.37185-4e-3 0.55326-0.0121a11.173 11.173 0 0 1-0.55326 0.44384 11.173 11.173 0 0 1-0.55326-0.44384zm-0.23076-0.0119a11.474 11.474 0 0 0 0.66395 0.54475c-0.41183 0.3-0.81516 0.54657-1.1925 0.73125-0.1362-0.39743-0.2471-0.857-0.32612-1.3602 0.27375 0.0376 0.55929 0.066 0.85467 0.0842zm-0.95404-0.93717a12.925 12.925 0 0 0 0.38257 0.39978c0.13259 0.13259 0.26605 0.25989 0.39984 0.38264-0.24241-0.0189-0.47772-0.045-0.70507-0.0773a11.164 11.164 0 0 1-0.0773-0.70507zm-0.15475-0.17162c0.0182 0.29531 0.0467 0.58084 0.0842 0.85466-0.50324-0.0791-0.96282-0.18991-1.3603-0.32612 0.18476-0.37734 0.43139-0.78067 0.73132-1.1924 0.17324 0.22801 0.35491 0.44947 0.54476 0.66389zm-0.0119-1.3373a12.922 12.922 0 0 0-0.0122 0.55326c0 0.1875 4e-3 0.37185 0.0122 0.55326a11.134 11.134 0 0 1-0.44384-0.55326 11.173 11.173 0 0 1 0.44384-0.55326m0.0119-0.23076a11.473 11.473 0 0 0-0.54476 0.66388c-0.3-0.41176-0.54656-0.81509-0.73132-1.1924 0.3975-0.1362 0.85708-0.2471 1.3603-0.32612a11.503 11.503 0 0 0-0.0842 0.85467zm0.93716-0.95404a12.85 12.85 0 0 0-0.39984 0.38263 12.925 12.925 0 0 0-0.38257 0.39978c0.0189-0.24241 0.045-0.47772 0.0773-0.70507 0.22735-0.0323 0.46266-0.0585 0.70507-0.0773zm0.17163-0.15475c-0.29538 0.0182-0.58092 0.0466-0.85467 0.0842 0.079-0.50324 0.18992-0.96282 0.32612-1.3603 0.37734 0.18476 0.78067 0.43132 1.1924 0.73132a11.495 11.495 0 0 0-0.66388 0.54476m1.3373-0.0119a12.922 12.922 0 0 0-0.55326-0.0122c-0.1875 0-0.37185 4e-3 -0.55326 0.0122 0.18475-0.15804 0.36964-0.30596 0.55326-0.44384a11.173 11.173 0 0 1 0.55326 0.44384zm0.23076 0.0119a11.495 11.495 0 0 0-0.66389-0.54476c0.41177-0.3 0.81509-0.54656 1.1924-0.73125 0.13621 0.39743 0.2471 0.85701 0.32612 1.3602a11.463 11.463 0 0 0-0.85466-0.0842m0.5714 0.53732a12.925 12.925 0 0 0-0.39977-0.38257c0.24241 0.0189 0.47772 0.045 0.70506 0.0773 0.0324 0.22735 0.0585 0.46266 0.0774 0.70507a12.85 12.85 0 0 0-0.38264-0.39984zm0.4194 1.3555c0 0.24703-7e-3 0.48957-0.0212 0.72636a12.432 12.432 0 0 1-1.0273 1.0273c-0.48382 0.0283-0.96891 0.0283-1.4527 0a12.432 12.432 0 0 1-1.0273-1.0273 12.437 12.437 0 0 1 0-1.4528 12.429 12.429 0 0 1 0.49868-0.52855 12.432 12.432 0 0 1 0.52862-0.49868c0.48381-0.0283 0.96897-0.0283 1.4528 0a12.429 12.429 0 0 1 0.52855 0.49868 12.429 12.429 0 0 1 0.49868 0.52855c0.0139 0.23692 0.0212 0.47946 0.0212 0.72643zm1.5577-3.3325c0.34962 0.34962 0.28419 1.0482-0.10259 1.8905-0.42027-0.14632-0.90724-0.26351-1.4429-0.345-0.0815-0.53579-0.19875-1.0226-0.345-1.4429 0.84234-0.38686 1.5409-0.45228 1.8905-0.10266zm1.5224 3.3325c0-0.5544-0.56826-1.0464-1.4911-1.3933 0.40721-0.89792 0.46112-1.6476 0.0691-2.0396-0.39201-0.39201-1.1417-0.33817-2.0396 0.0691-0.34694-0.92283-0.83892-1.4911-1.3933-1.4911s-1.0464 0.56826-1.3933 1.4911c-0.89786-0.40728-1.6476-0.46112-2.0396-0.0691-0.392 0.39195-0.3381 1.1417 0.0691 2.0396-0.92283 0.34688-1.4911 0.83893-1.4911 1.3933 0 0.55439 0.56826 1.0464 1.4911 1.3933-0.40728 0.89786-0.46111 1.6476-0.0691 2.0396s1.1417 0.33817 2.0396-0.0691c0.34688 0.92284 0.83893 1.4911 1.3933 1.4911s1.0464-0.56826 1.3933-1.4912c0.89786 0.40734 1.6476 0.46118 2.0396 0.0692 0.39201-0.39201 0.33817-1.1417-0.0691-2.0396 0.92291-0.34694 1.4911-0.83893 1.4911-1.3933z" enable-background="new" fill="#f34f17" stroke="#f34f17" stroke-width=".5" style="isolation:isolate"/>
 <path d="m8.9741 8.0273c0 0.54931-0.44531 0.99462-0.99469 0.99462-0.5493 0-0.99462-0.44531-0.99462-0.99462 0-0.54938 0.44532-0.99469 0.99462-0.99469 0.54938 0 0.99469 0.44531 0.99469 0.99469z" enable-background="new" fill="#46a926" style="isolation:isolate"/>
 <path d="m9.0689 4.9723a0.18951 0.18951 0 1 1-0.37902-6e-5 0.18951 0.18951 0 0 1 0.37902 6e-5zm-2.9855-0.53337a0.16436 0.16436 0 1 1-0.32873 0 0.16436 0.16436 0 0 1 0.32873 0zm-0.79192 2.9253a0.1421 0.1421 0 1 1-0.2842 0 0.1421 0.1421 0 0 1 0.2842 0zm6.4763 2.7472a0.20639 0.20639 0 1 1-0.41277-1.3e-4 0.20639 0.20639 0 0 1 0.41277 1.3e-4zm-7.0803 1.1841a0.15388 0.15388 0 1 1-0.30777 0 0.15388 0.15388 0 0 1 0.30777 0zm3.1379-0.63944a0.16581 0.16581 0 1 1-0.33154 7e-3 0.16581 0.16581 0 0 1 0.33154-7e-3zm3.3037-3.434a0.1421 0.1421 0 1 1-0.28419 0 0.1421 0.1421 0 0 1 0.28419 0zm-6.9508 1.7999a0.13025 0.13025 0 1 1-0.26049 0 0.13025 0.13025 0 0 1 0.26049 0zm5.3167-2.2972a0.16574 0.16574 0 1 1-0.33147 1.3e-4 0.16574 0.16574 0 0 1 0.33147-1.3e-4z" enable-background="new" fill="#111" stroke="#111" stroke-width=".5" style="isolation:isolate"/>
 <path d="m11.555 15.5c3.337 0 3.9622-0.30212 3.9447-3.2495v-4.2505-4.2506c0.0175-2.9473-0.60763-3.2494-3.9447-3.2494h-7.1102c-3.3362 0-3.9447 0.30208-3.9447 3.2494v4.2506 4.2505c0 2.9474 0.60847 3.2495 3.9447 3.2495z" color="#000000" fill="none" opacity=".4" stroke="#000"/>
 <path d="m4.4453 1c-1.653 0-2.546 0.12548-2.916 0.41406-0.18499 0.14429-0.30479 0.33122-0.39649 0.70313-0.09171 0.37191-0.13281 0.91317-0.13281 1.6328v4.25 4.25c0 0.71964 0.0411 1.2608 0.13281 1.6328 0.0917 0.37191 0.2115 0.55884 0.39649 0.70313 0.36997 0.28858 1.263 0.41406 2.916 0.41406h7.1094c1.6534 0 2.552-0.12511 2.9238-0.41406 0.18589-0.14448 0.30578-0.33208 0.39648-0.70313s0.129-0.90979 0.125-1.6289v-2e-3 -4.2519-4.252-2e-3c4e-3 -0.71911-0.0343-1.2578-0.125-1.6289s-0.21059-0.55865-0.39648-0.70313c-0.37179-0.2889-1.2704-0.41402-2.9238-0.41402zm5.3281 1.0469c1.1077-3.4e-4 2.2136 8e-3 3.3203 0.0449 0.26616 0.0599 0.75737-0.0208 0.79297 0.3457 0.13405 1.8444 0.0662 3.6877 0.10156 5.5391-0.0126 1.8674 0.0543 3.6703-0.10351 5.498 0.0642 0.42314-0.43946 0.35577-0.70313 0.42187-3.4328 0.0703-6.8758 0.0589-10.299 2e-3 -0.22288-0.0398-0.55622-3.2e-4 -0.71093-0.1875-0.19863-1.13-0.12696-2.2695-0.16016-3.4199 0.0138-2.5565-0.029-5.1073 0.0898-7.6562-0.03-0.2727 0.10944-0.49629 0.40039-0.48829 1.3066-0.161 2.6326-0.0636 3.9473-0.0976 1.1072 6e-3 2.2166-2e-3 3.3242-2e-3z" color="#000000" fill="url(#linearGradient1692-6)"/>
</svg>
