<svg width="16" height="16" version="1" xmlns="http://www.w3.org/2000/svg">
 <defs>
  <linearGradient id="linearGradient993" x1="328" x2="328" y1="238" y2="250" gradientTransform="rotate(-90,328,244)" gradientUnits="userSpaceOnUse">
   <stop stop-color="#fff" offset="0"/>
   <stop stop-color="#fff" stop-opacity=".098039" offset=".125"/>
   <stop stop-color="#fff" stop-opacity=".098039" offset=".925"/>
   <stop stop-color="#fff" stop-opacity=".49804" offset="1"/>
  </linearGradient>
  <clipPath id="clipPath983">
   <path d="m325.1 237c-2.8077 0-3.1098 0.28839-3.096 3.1018v7.7964c-0.0138 2.8134 0.28834 3.1018 3.096 3.1018h5.8075c2.8077 0 3.096-0.28835 3.096-3.1018v-7.7964c0-2.8134-0.28835-3.1018-3.096-3.1018z" color="#000000" fill="#46a926"/>
  </clipPath>
 </defs>
 <path d="m3.8242 1.5c-1.7621-9e-3 -2.5864 0.11692-2.9785 0.81641-0.26839 0.76882-0.3457 1.8456-0.3457 3.3672v3.6328c0 4.5363 0.6489 5.1836 5.1894 5.1836h2.3106v-13z" enable-background="new" fill="#f6f5f4"/>
 <path d="m15.5 5.596c0-0.71904-0.0139-1.3018-0.10352-1.8359-0.0897-0.53409-0.27628-1.0683-0.68359-1.4766-0.4073-0.40826-0.94323-0.59657-1.4785-0.68554-0.53529-0.089-1.1205-0.10119-1.8418-0.0977h-6.791c-0.71816-3e-3 -1.3024 9e-3 -1.8359 0.0977-0.53528 0.089-1.0712 0.27727-1.4785 0.68554-0.40731 0.40827-0.59394 0.94248-0.68359 1.4766-0.0897 0.53408-0.10352 1.1169-0.10352 1.8359v5.8086c0 0.71904 0.0137 1.3006 0.10352 1.834 0.0898 0.53341 0.27792 1.0677 0.68554 1.4746s0.94271 0.59404 1.4766 0.68359c0.53386 0.0896 1.1155 0.10352 1.8359 0.10352h6.7968c0.72043 0 1.3021-0.014 1.8359-0.10352 0.53385-0.0895 1.0689-0.27666 1.4766-0.68359s0.59578-0.9412 0.68554-1.4746c0.0898-0.5334 0.10352-1.1149 0.10352-1.834z" color="#000000" color-rendering="auto" dominant-baseline="auto" image-rendering="auto" opacity=".1" shape-rendering="auto" solid-color="#000000" style="font-feature-settings:normal;font-variant-alternates:normal;font-variant-caps:normal;font-variant-ligatures:normal;font-variant-numeric:normal;font-variant-position:normal;isolation:auto;mix-blend-mode:normal;shape-padding:0;text-decoration-color:#000000;text-decoration-line:none;text-decoration-style:solid;text-indent:0;text-orientation:mixed;text-transform:none;white-space:normal"/>
 <path d="m15.5 4.8545c0-3.0417-0.30899-3.3689-3.3233-3.354h-8.3534c-3.0143-0.0149-3.3233 0.31237-3.3233 3.354v6.2915c0 3.0417 0.30895 3.354 3.3233 3.354h8.3534c3.0144 0 3.3233-0.31238 3.3233-3.354z" color="#000000" fill="#f6f5f4"/>
 <path d="m8 1.5v13h4.1758c3.0144 0 3.3242-0.31186 3.3242-3.3535v-6.291c0-3.0417-0.3099-3.3704-3.3242-3.3555z" enable-background="new" fill="#3584e4"/>
 <path d="m8 8v6.5h2.3106c4.5405 0 5.1894-0.6473 5.1894-5.1836v-1.3164z" enable-background="new" fill="#fff" opacity=".1"/>
 <path d="m6.2096 9.7992q-0.0808-0.23665-0.16739-0.46753-0.0866-0.23088-0.16739-0.4733h-1.6854q-0.0808 0.24242-0.16739 0.47907-0.0808 0.23088-0.16162 0.46176h-0.75613q0.22511-0.64069 0.42713-1.1833t0.39249-1.0274q0.19625-0.48485 0.38673-0.92353 0.19047-0.43867 0.3925-0.8658h0.68686q0.20202 0.42713 0.3925 0.8658 0.19048 0.43868 0.38095 0.92353 0.19625 0.48484 0.39827 1.0274 0.20779 0.54257 0.4329 1.1833zm-1.1775-3.2266q-0.13276 0.30592-0.30592 0.74459-0.16739 0.43867-0.35209 0.95238h1.316q-0.18471-0.51371-0.35787-0.95815-0.17316-0.44445-0.30014-0.73882z" enable-background="new" fill="#77767b"/>
 <path d="m11.172 4.9887v0.79072h-2.1111v0.52715h0.87323c0.31409 0.80978 0.69985 1.4965 1.1543 2.057-0.52876 0.54699-1.1408 0.91464-1.8372 1.1163l0.14702 0.5063c0.7739-0.22411 1.4544-0.63736 2.0376-1.2323 0.58323 0.59493 1.2637 1.0082 2.0376 1.2323l0.14701-0.5063c-0.69639-0.20167-1.3084-0.56932-1.8372-1.1163 0.45448-0.56047 0.84023-1.2472 1.1543-2.057h0.87323v-0.52715h-2.1111v-0.79072zm-0.66996 1.3179h1.8677c-0.26793 0.65153-0.57917 1.2018-0.93385 1.6567-0.35469-0.45481-0.66592-1.0051-0.93385-1.6567z" enable-background="new" fill="#fff" stroke="#fff" stroke-linecap="round" stroke-width=".25"/>
 <path transform="rotate(90 286 -34)" d="m325.1 237c-2.8077 0-3.1098 0.28839-3.096 3.1018v7.7964c-0.0138 2.8134 0.28834 3.1018 3.096 3.1018h5.8075c2.8077 0 3.096-0.28835 3.096-3.1018v-7.7964c0-2.8134-0.28835-3.1018-3.096-3.1018z" clip-path="url(#clipPath983)" color="#000000" fill="none" opacity=".7" stroke="url(#linearGradient993)" stroke-width="2"/>
 <path d="m15.512 4.9136c0-2.8973-0.30259-3.4401-3.2545-3.4249h-8.5144c-2.952-0.0152-3.2545 0.52756-3.2545 3.4249v6.1733c0 2.8966 0.30255 3.4249 3.2545 3.4249h8.5144c2.952 0 3.2545-0.52828 3.2545-3.4249z" color="#000000" fill="none" opacity=".4" stroke="#000" stroke-width=".97653"/>
 <ellipse cx="10.208" cy="8.8726" rx=".90562" ry=".91233" enable-background="new" fill="#fff"/>
 <circle cx="11" cy="11" r="4.5" enable-background="new" fill="#e95420" stroke="#000" stroke-dashoffset="1" stroke-linecap="round" stroke-linejoin="round" stroke-opacity=".4"/>
 <path d="m10.504 8.0078v0.54883c-0.2573 0.050893-0.4943 0.15001-0.7168 0.27344l-0.31641-0.37695-0.75195 0.64062 0.31641 0.375c-0.15688 0.19881-0.28574 0.41741-0.37695 0.6582l-0.49219-0.08789-0.16602 0.97461 0.5 0.08789c0.0097 0.25504 0.05988 0.49846 0.14062 0.72852l-0.45508 0.26367h-2e-3l0.5 0.85156 0.46094-0.26562c0.16378 0.18068 0.35266 0.33422 0.5625 0.46094l-0.1875 0.51367 0.92969 0.33203 0.1875-0.51367c0.11636 0.01666 0.23261 0.03515 0.35352 0.03516 0.12494-3e-6 0.24517-0.01934 0.36524-0.03711l0.19141 0.52148 0.92383-0.34375-0.18555-0.51367c0.20776-0.12695 0.39451-0.28091 0.55664-0.46094l0.47461 0.27539 0.48633-0.85938-0.46094-0.26562c0.07931-0.22778 0.12893-0.46852 0.13867-0.7207l0.51958-0.0918-0.17773-0.9707-0.5 0.08789c-0.08994-0.23796-0.215-0.45524-0.36914-0.65234l0.32617-0.38867-0.75977-0.62891-0.31641 0.37695c-0.22136-0.12412-0.45667-0.22521-0.71289-0.27734v-0.55078zm0.48633 1.1074c1.0468-6.3e-6 1.8926 0.84582 1.8926 1.8926 5e-6 1.0468-0.84582 1.8926-1.8926 1.8926-1.0468 4e-6 -1.8926-0.84582-1.8926-1.8926-5e-6 -1.0468 0.84582-1.8926 1.8926-1.8926z" color="#000000" fill="#fff"/>
</svg>
