<svg width="16" height="16" version="1" xmlns="http://www.w3.org/2000/svg">
 <defs>
  <linearGradient id="linearGradient4878" x1="317.26" x2="338.32" y1="255.45" y2="230.86" gradientTransform="rotate(90 286 -34)" gradientUnits="userSpaceOnUse">
   <stop stop-color="#1a7fd4" offset="0"/>
   <stop stop-color="#6dc7f1" offset="1"/>
  </linearGradient>
  <linearGradient id="linearGradient932" x1="256" x2="256" y1="375" y2="135.28" gradientTransform="matrix(.029159 0 0 .029159 1.2354 .53607)" gradientUnits="userSpaceOnUse">
   <stop stop-color="#f5f5f5" offset="0"/>
   <stop stop-color="#f1d7e9" offset="1"/>
  </linearGradient>
  <linearGradient id="linearGradient993" x1="328" x2="328" y1="238" y2="250" gradientTransform="rotate(-90,328,244)" gradientUnits="userSpaceOnUse">
   <stop stop-color="#fff" offset="0"/>
   <stop stop-color="#fff" stop-opacity=".098039" offset=".125"/>
   <stop stop-color="#fff" stop-opacity=".098039" offset=".925"/>
   <stop stop-color="#fff" stop-opacity=".49804" offset="1"/>
  </linearGradient>
  <clipPath id="clipPath983">
   <path d="m325.1 237c-2.8077 0-3.1098 0.28839-3.096 3.1018v7.7964c-0.0138 2.8134 0.28834 3.1018 3.096 3.1018h5.8075c2.8077 0 3.096-0.28835 3.096-3.1018v-7.7964c0-2.8134-0.28835-3.1018-3.096-3.1018z" color="#000000" fill="#46a926"/>
  </clipPath>
 </defs>
 <path d="m15.5 5.596c0-0.71904-0.0139-1.3018-0.10352-1.8359-0.0897-0.53409-0.27628-1.0683-0.68359-1.4766-0.4073-0.40826-0.94323-0.59657-1.4785-0.68554-0.53529-0.089-1.1205-0.10119-1.8418-0.0977h-6.791c-0.71816-3e-3 -1.3024 9e-3 -1.8359 0.0977-0.53528 0.089-1.0712 0.27727-1.4785 0.68554-0.40731 0.40827-0.59394 0.94248-0.68359 1.4766-0.0897 0.53408-0.10352 1.1169-0.10352 1.8359v5.8086c0 0.71904 0.0137 1.3006 0.10352 1.834 0.0898 0.53341 0.27792 1.0677 0.68554 1.4746s0.94271 0.59404 1.4766 0.68359c0.53386 0.0896 1.1155 0.10352 1.8359 0.10352h6.7968c0.72043 0 1.3021-0.014 1.8359-0.10352 0.53385-0.0895 1.0689-0.27666 1.4766-0.68359s0.59578-0.9412 0.68554-1.4746c0.0898-0.5334 0.10352-1.1149 0.10352-1.834z" color="#000000" color-rendering="auto" dominant-baseline="auto" image-rendering="auto" opacity=".1" shape-rendering="auto" solid-color="#000000" style="font-feature-settings:normal;font-variant-alternates:normal;font-variant-caps:normal;font-variant-ligatures:normal;font-variant-numeric:normal;font-variant-position:normal;isolation:auto;mix-blend-mode:normal;shape-padding:0;text-decoration-color:#000000;text-decoration-line:none;text-decoration-style:solid;text-indent:0;text-orientation:mixed;text-transform:none;white-space:normal"/>
 <path d="m15.5 4.8545c0-3.0417-0.30899-3.3689-3.3233-3.354h-8.3534c-3.0143-0.0149-3.3233 0.31237-3.3233 3.354v6.2915c0 3.0417 0.30895 3.354 3.3233 3.354h8.3534c3.0144 0 3.3233-0.31238 3.3233-3.354z" color="#000000" fill="url(#linearGradient4878)"/>
 <path d="m0.57813 8v3.1759c-0.017 3.0143 0.35794 3.3242 3.834 3.3242h7.1895c3.476 0 3.832-0.30985 3.832-3.3242v-3.1759z" color="#000000" fill="#fff" opacity=".1"/>
 <path d="m6 5.5018v6.9982s3.3165-1.4346 6.2168-3.5013c0-4.8e-4 -5.1e-4 -7e-4 -5.1e-4 -2e-3 -2.3e-4 -7e-4 -7e-4 -1e-3 -2e-3 -3e-3 -5e-4 -5e-4 -7e-4 -1e-3 -1e-3 -3e-3 -5.1e-4 -7e-4 -5.1e-4 -2e-3 -5.1e-4 -3e-3 -3.0588-2.1326-6.2121-3.4882-6.2121-3.4882z" color="#000000" opacity=".1"/>
 <path d="m6 4.5018v6.9982s3.3165-1.4346 6.2168-3.5013c0-4.8e-4 -5.1e-4 -7e-4 -5.1e-4 -2e-3 -2.3e-4 -7e-4 -7e-4 -1e-3 -2e-3 -3e-3 -5e-4 -5e-4 -7e-4 -1e-3 -1e-3 -3e-3 -5.1e-4 -7e-4 -5.1e-4 -2e-3 -5.1e-4 -3e-3 -3.0588-2.1326-6.2121-3.4882-6.2121-3.4882z" color="#000000" fill="url(#linearGradient932)"/>
 <path transform="rotate(90 286 -34)" d="m325.1 237c-2.8077 0-3.1098 0.28839-3.096 3.1018v7.7964c-0.0138 2.8134 0.28834 3.1018 3.096 3.1018h5.8075c2.8077 0 3.096-0.28835 3.096-3.1018v-7.7964c0-2.8134-0.28835-3.1018-3.096-3.1018z" clip-path="url(#clipPath983)" color="#000000" fill="none" opacity=".7" stroke="url(#linearGradient993)" stroke-width="2"/>
 <path d="m15.512 4.9136c0-2.8973-0.30259-3.4401-3.2545-3.4249h-8.5144c-2.952-0.0152-3.2545 0.52756-3.2545 3.4249v6.1733c0 2.8966 0.30255 3.4249 3.2545 3.4249h8.5144c2.952 0 3.2545-0.52828 3.2545-3.4249z" color="#000000" fill="none" opacity=".4" stroke="#000" stroke-width=".97653"/>
 <path d="m13.722 6.5019c-0.0655-4e-3 -0.1426 8.7e-4 -0.23345 9e-3l-4.1033 0.64034c-0.46293 0.0472-0.51327 0.26324-0.50917 0.53252v5.4185c-0.23529-0.15457-0.4871-0.26459-0.82266-0.26459-0.43208 0-0.69003 0.16563-0.84602 0.38354-0.15597 0.21792-0.20789 0.4925-0.20789 0.70482 0 0.25605 0.0883 0.52883 0.27794 0.73708 0.18964 0.20823 0.48126 0.35462 0.90048 0.35463 0.4734 0 0.80563-0.13204 0.99387-0.39021 0.14821-0.20327 0.2309-0.47548 0.26014-0.81044 4e-3 -0.0406 7e-3 -0.0827 9e-3 -0.12562 3e-3 -0.034 3e-3 -0.0579 3e-3 -0.0978h2e-3v-4.3846c0.0126-0.35255 0.3324-0.40466 0.3324-0.40466l3.3318-0.52028c0.31984-0.0978 0.32018 0.29794 0.32018 0.29794v3.951c-0.2353-0.15457-0.48711-0.26458-0.82266-0.26458-0.4321 0-0.69004 0.16562-0.84602 0.38353-0.15598 0.21793-0.20791 0.49249-0.20791 0.70483 0 0.25605 0.0883 0.52883 0.27795 0.73706 0.18965 0.20825 0.48125 0.35464 0.90048 0.35465 0.4734 0 0.80563-0.13206 0.99388-0.39022 0.1482-0.20326 0.23088-0.47548 0.26012-0.81043 4e-3 -0.0407 7e-3 -0.0827 9e-3 -0.12563 3e-3 -0.034 3e-3 -0.0579 3e-3 -0.0978h2e-3v-6.0155c7e-3 -0.39026-0.0799-0.49302-0.27681-0.50694z" color="#000000" color-rendering="auto" dominant-baseline="auto" fill-rule="evenodd" image-rendering="auto" opacity=".05" shape-rendering="auto" solid-color="#000000" stroke="#000" stroke-linejoin="round" stroke-width="2" style="font-feature-settings:normal;font-variant-alternates:normal;font-variant-caps:normal;font-variant-ligatures:normal;font-variant-numeric:normal;font-variant-position:normal;isolation:auto;mix-blend-mode:normal;shape-padding:0;text-decoration-color:#000000;text-decoration-line:none;text-decoration-style:solid;text-indent:0;text-orientation:mixed;text-transform:none;white-space:normal"/>
 <path d="m13.722 7.5019c-0.0655-4e-3 -0.1426 8.7e-4 -0.23345 9e-3l-4.1033 0.64034c-0.46293 0.0472-0.51327 0.26324-0.50917 0.53252v5.4185c-0.23529-0.15457-0.4871-0.26459-0.82266-0.26459-0.43208 0-0.69003 0.16563-0.84602 0.38354-0.15597 0.21792-0.20789 0.4925-0.20789 0.70482 0 0.25605 0.0883 0.52883 0.27794 0.73708 0.18964 0.20823 0.48126 0.35462 0.90048 0.35463 0.4734 0 0.80563-0.13204 0.99387-0.39021 0.14821-0.20327 0.2309-0.47548 0.26014-0.81044 4e-3 -0.0406 7e-3 -0.0827 9e-3 -0.12562 3e-3 -0.034 3e-3 -0.0579 3e-3 -0.0978h2e-3v-4.3846c0.0126-0.35255 0.3324-0.40466 0.3324-0.40466l3.3318-0.52028c0.31984-0.0978 0.32018 0.29794 0.32018 0.29794v3.951c-0.2353-0.15457-0.48711-0.26458-0.82266-0.26458-0.4321 0-0.69004 0.16562-0.84602 0.38353-0.15598 0.21793-0.20791 0.49249-0.20791 0.70483 0 0.25605 0.0883 0.52883 0.27795 0.73706 0.18965 0.20825 0.48125 0.35464 0.90048 0.35465 0.4734 0 0.80563-0.13206 0.99388-0.39022 0.1482-0.20326 0.23088-0.47548 0.26012-0.81043 4e-3 -0.0407 7e-3 -0.0827 9e-3 -0.12563 3e-3 -0.034 3e-3 -0.0579 3e-3 -0.0978h2e-3v-6.0155c7e-3 -0.39026-0.0799-0.49302-0.27681-0.50694z" color="#000000" color-rendering="auto" dominant-baseline="auto" fill-rule="evenodd" image-rendering="auto" opacity=".1" shape-rendering="auto" solid-color="#000000" style="font-feature-settings:normal;font-variant-alternates:normal;font-variant-caps:normal;font-variant-ligatures:normal;font-variant-numeric:normal;font-variant-position:normal;isolation:auto;mix-blend-mode:normal;shape-padding:0;text-decoration-color:#000000;text-decoration-line:none;text-decoration-style:solid;text-indent:0;text-orientation:mixed;text-transform:none;white-space:normal"/>
 <path d="m13.722 6.5019c-0.0655-4e-3 -0.1426 8.7e-4 -0.23345 9e-3l-4.1033 0.64034c-0.46293 0.0472-0.51327 0.26324-0.50917 0.53252v5.4185c-0.23529-0.15457-0.4871-0.26459-0.82266-0.26459-0.43208 0-0.69003 0.16563-0.84602 0.38354-0.15597 0.21792-0.20789 0.4925-0.20789 0.70482 0 0.25605 0.0883 0.52883 0.27794 0.73708 0.18964 0.20823 0.48126 0.35462 0.90048 0.35463 0.4734 0 0.80563-0.13204 0.99387-0.39021 0.14821-0.20327 0.2309-0.47548 0.26014-0.81044 4e-3 -0.0406 7e-3 -0.0827 9e-3 -0.12562 3e-3 -0.034 3e-3 -0.0579 3e-3 -0.0978h2e-3v-4.3846c0.0126-0.35255 0.3324-0.40466 0.3324-0.40466l3.3318-0.52028c0.31984-0.0978 0.32018 0.29794 0.32018 0.29794v3.951c-0.2353-0.15457-0.48711-0.26458-0.82266-0.26458-0.4321 0-0.69004 0.16562-0.84602 0.38353-0.15598 0.21793-0.20791 0.49249-0.20791 0.70483 0 0.25605 0.0883 0.52883 0.27795 0.73706 0.18965 0.20825 0.48125 0.35464 0.90048 0.35465 0.4734 0 0.80563-0.13206 0.99388-0.39022 0.1482-0.20326 0.23088-0.47548 0.26012-0.81043 4e-3 -0.0407 7e-3 -0.0827 9e-3 -0.12563 3e-3 -0.034 3e-3 -0.0579 3e-3 -0.0978h2e-3v-6.0155c7e-3 -0.39026-0.0799-0.49302-0.27681-0.50694z" color="#000000" color-rendering="auto" dominant-baseline="auto" fill="#34be5b" fill-rule="evenodd" image-rendering="auto" shape-rendering="auto" solid-color="#000000" style="font-feature-settings:normal;font-variant-alternates:normal;font-variant-caps:normal;font-variant-ligatures:normal;font-variant-numeric:normal;font-variant-position:normal;isolation:auto;mix-blend-mode:normal;shape-padding:0;text-decoration-color:#000000;text-decoration-line:none;text-decoration-style:solid;text-indent:0;text-orientation:mixed;text-transform:none;white-space:normal"/>
</svg>
