<svg width="16" height="16" version="1" xmlns="http://www.w3.org/2000/svg">
 <defs>
  <linearGradient id="linearGradient1692" x1="320" x2="336" y1="247" y2="241" gradientTransform="rotate(90 286 -34)" gradientUnits="userSpaceOnUse">
   <stop stop-color="#4d4d4d" offset="0"/>
   <stop stop-color="#4d4d4d" offset="1"/>
  </linearGradient>
  <filter id="filter194" x="-.020441" y="-.020359" width="1.0409" height="1.0407" color-interpolation-filters="sRGB">
   <feFlood flood-color="rgb(0,0,0)" flood-opacity=".49804" result="flood"/>
   <feComposite in="flood" in2="SourceGraphic" operator="in" result="composite1"/>
   <feGaussianBlur in="composite1" result="blur" stdDeviation="1.0220649"/>
   <feOffset dx="0" dy="2" result="offset"/>
   <feComposite in="SourceGraphic" in2="offset" result="composite2"/>
  </filter>
  <linearGradient id="linearGradient1692-6" x1="321" x2="335" y1="244" y2="244" gradientTransform="rotate(90 286 -34)" gradientUnits="userSpaceOnUse">
   <stop stop-color="#fff" offset="0"/>
   <stop stop-color="#fff" stop-opacity=".098039" offset=".125"/>
   <stop stop-color="#fff" stop-opacity=".098039" offset=".925"/>
   <stop stop-color="#fff" stop-opacity=".49804" offset="1"/>
  </linearGradient>
 </defs>
 <path d="m4.1286 1c-3.7436 0-4.1464 0.30899-4.128 3.3233v8.3534c-0.0183 3.0143 0.38446 3.3233 4.128 3.3233h7.7433c3.7436 0 4.128-0.30895 4.128-3.3233v-8.3534c0-3.0144-0.38446-3.3233-4.128-3.3233z" color="#000000" opacity=".1"/>
 <path d="m4.4056 0.50001c-3.476 0-3.8501 0.30899-3.833 3.3233v8.3534c-0.017 3.0143 0.35698 3.3233 3.833 3.3233h7.19c3.476 0 3.833-0.30895 3.833-3.3233v-8.3534c0-3.0144-0.35699-3.3233-3.833-3.3233z" color="#000000" fill="url(#linearGradient1692)"/>
 <rect transform="matrix(0 .055999 -.055999 0 -.51132 -.7358)" x="96.353" y="-211.89" width="119.89" height="119.89" color="#000000" fill="none" filter="url(#filter194)" stroke-width="17.858"/>
 <path d="m5.8233 12.598c-0.31858 0.50209-1.0365 0.66275-1.5387 0.34408-0.50223-0.31867-0.66264-1.0366-0.34407-1.5387 0.31858-0.50209 1.0365-0.66275 1.5387-0.34408 0.50224 0.31867 0.66264 1.0366 0.34409 1.5387z" fill="#fff" opacity=".5" stroke-width="3.7797"/>
 <path d="m4.4924 8.4531c-0.31858 0.50209-1.0367 0.66264-1.5387 0.34408-0.50209-0.31858-0.66264-1.0367-0.34409-1.5387 0.31857-0.50208 1.0367-0.66264 1.5387-0.34408 0.50208 0.31857 0.66264 1.0367 0.34407 1.5387z" fill="#fff" opacity=".5" stroke-width="3.7797"/>
 <path d="m6.5832 5.1581c-0.31858 0.50209-1.0367 0.66264-1.5387 0.34408-0.50209-0.31858-0.66264-1.0367-0.34409-1.5387 0.31857-0.50208 1.0367-0.66264 1.5387-0.34408 0.50208 0.31857 0.66264 1.0367 0.34407 1.5387z" fill="#fff" opacity=".5" stroke-width="3.7797"/>
 <path d="m10.901 4.5964c-0.31858 0.50209-1.0367 0.66264-1.5387 0.34408-0.50208-0.31857-0.66264-1.0367-0.34407-1.5387 0.31857-0.50208 1.0367-0.66264 1.5387-0.34408 0.50208 0.31857 0.66264 1.0367 0.34408 1.5387z" fill="#fff" opacity=".5" stroke-width="3.7797"/>
 <path d="m9.4879 8.7812c-0.48204-0.040424-1.2059 0.28913-1.5601 0.92522-0.62747 1.1268-0.13427 2.8341-1.4899 2.5363 1.7918 1.3712 4.2456-0.67557 4.2636-1.9814 0.0039-0.28249-0.05617-0.51844-0.15496-0.71343z" fill="#fff" fill-rule="evenodd" opacity=".5" stroke-width="3.7797"/>
 <path d="m12.257 5.7173 0.63122 0.47412-1.699 2.262-0.63122-0.47412zm-1.9753 2.3698 0.79781 0.59561c0.09234 0.068933 0.12756 0.19088 0.08619 0.29842l-0.23689 0.61585c-0.051 0.13257-0.1998 0.1987-0.33236 0.1477-0.02223-0.00849-0.04313-0.020086-0.06215-0.034373l-1.0722-0.80538c-0.11357-0.085302-0.13648-0.24653-0.051176-0.36009 0.013179-0.017545 0.028514-0.033288 0.045684-0.046924l0.51138-0.40612c0.091407-0.072582 0.22024-0.074511 0.31377-0.00468zm2.1298-2.5755 0.46335-0.61688c0.0853-0.11357 0.24652-0.13648 0.36009-0.051176l0.21998 0.16523c0.11357 0.085302 0.13648 0.24653 0.05118 0.36009l-0.46335 0.61688z" fill="#fff" opacity=".5" stroke-width="13.019"/>
 <path d="m11.555 15.5c3.337 0 3.9622-0.30212 3.9447-3.2495v-8.5011c0.0175-2.9473-0.60763-3.2494-3.9447-3.2494h-7.1102c-3.3362 0-3.9447 0.30208-3.9447 3.2494v8.5011c0 2.9474 0.60847 3.2495 3.9447 3.2495z" color="#000000" fill="none" opacity=".4" stroke="#000"/>
 <path d="m4.4453 1c-1.653 0-2.546 0.12548-2.916 0.41406-0.18499 0.14429-0.30479 0.33122-0.39649 0.70313-0.09171 0.37191-0.13281 0.91317-0.13281 1.6328v8.5c0 0.71964 0.0411 1.2608 0.13281 1.6328 0.0917 0.37191 0.2115 0.55884 0.39649 0.70313 0.36997 0.28858 1.263 0.41406 2.916 0.41406h7.1094c1.6534 0 2.552-0.12511 2.9238-0.41406 0.18589-0.14448 0.30578-0.33208 0.39648-0.70313s0.129-0.90979 0.125-1.6289v-8.5079c4e-3 -0.71911-0.0343-1.2578-0.125-1.6289s-0.21059-0.55865-0.39648-0.70313c-0.37179-0.2889-1.2704-0.41402-2.9238-0.41402zm5.3281 1.0469c1.1077-3.4e-4 2.2136 8e-3 3.3203 0.0449 0.26616 0.0599 0.75737-0.0208 0.79297 0.3457 0.13405 1.8444 0.0662 3.6877 0.10156 5.5391-0.0126 1.8674 0.0543 3.6703-0.10351 5.498 0.0642 0.42314-0.43946 0.35577-0.70313 0.42187-3.4328 0.0703-6.8758 0.0589-10.299 2e-3 -0.22288-0.0398-0.55622-3.2e-4 -0.71093-0.1875-0.19863-1.13-0.12696-2.2695-0.16016-3.4199 0.0138-2.5565-0.029-5.1073 0.0898-7.6562-0.03-0.2727 0.10944-0.49629 0.40039-0.48829 1.3066-0.161 2.6326-0.0636 3.9473-0.0976 1.1072 6e-3 2.2166-2e-3 3.3242-2e-3z" color="#000000" fill="url(#linearGradient1692-6)"/>
</svg>
