<svg width="16" height="16" version="1" xmlns="http://www.w3.org/2000/svg" xmlns:xlink="http://www.w3.org/1999/xlink">
 <defs>
  <linearGradient id="linearGradient1692" x1="320" x2="336" y1="247" y2="241" gradientTransform="rotate(90 286 -34)" gradientUnits="userSpaceOnUse">
   <stop stop-color="#31c6b7" offset="0"/>
   <stop stop-color="#5bdbc1" offset="1"/>
  </linearGradient>
  <linearGradient id="linearGradient1692-6" x1="321" x2="335" y1="244" y2="244" gradientTransform="rotate(90 286 -34)" gradientUnits="userSpaceOnUse">
   <stop stop-color="#fff" offset="0"/>
   <stop stop-color="#fff" stop-opacity=".098039" offset=".125"/>
   <stop stop-color="#fff" stop-opacity=".098039" offset=".925"/>
   <stop stop-color="#fff" stop-opacity=".49804" offset="1"/>
  </linearGradient>
 </defs>
 <path d="m4.1286 1c-3.7436 0-4.1464 0.30899-4.128 3.3233v4.1767 4.1767c-0.0183 3.0143 0.38446 3.3233 4.128 3.3233h7.7433c3.7436 0 4.128-0.30895 4.128-3.3233v-4.1767-4.1767c0-3.0144-0.38446-3.3233-4.128-3.3233z" color="#000000" opacity=".1"/>
 <path d="m4.4056 0.50001c-3.476 0-3.8501 0.30899-3.833 3.3233v4.1767 4.1767c-0.017 3.0143 0.35698 3.3233 3.833 3.3233h7.19c3.476 0 3.833-0.30895 3.833-3.3233v-4.1767-4.1767c0-3.0144-0.35699-3.3233-3.833-3.3233z" color="#000000" fill="url(#linearGradient1692)"/>
 <g transform="matrix(.013905 0 0 .013905 1.3991 .85054)" clip-rule="evenodd" enable-background="new" fill="#fff" fill-rule="evenodd" image-rendering="optimizeQuality" shape-rendering="geometricPrecision" stroke-width="16.666">
  <g transform="translate(-36.773 1.6764)" fill="#fff" stroke-width="16.666">
   <path transform="matrix(4.3151 0 0 4.3151 -60.568 -34.286)" d="m125.89 26.715c-2.9107 0.19698-5.79 0.52026-8.6289 0.96289l-4.1504 20.809c-7.7287 2.0254-15.003 5.1261-21.633 9.2188l-17.771-11.871c-8.3497 6.125-15.726 13.507-21.842 21.863l12.176 18.254c-3.7102 6.4448-6.6537 13.453-8.459 20.869l-21.803 4.3047c-0.79257 5.0497-1.2051 10.216-1.2051 15.475 0 5.2745 0.41374 10.459 1.2109 15.518l22.227 4.3906c1.9003 7.1192 4.8065 13.849 8.4727 20.041l-12.615 18.957c6.1273 8.3683 13.517 15.761 21.883 21.891l18.979-12.646c6.1922 3.6662 12.924 6.6251 20.043 8.5254l4.3965 22.227c5.0613 0.7972 10.243 1.2129 15.518 1.2129 5.2583 0 10.426-0.41287 15.471-1.2031l4.3086-21.803c7.4158-1.8053 14.428-4.6941 20.873-8.4043l18.236 12.131c8.366-6.1227 15.759-13.506 21.889-21.867l-11.832-17.752c4.0926-6.6325 7.1425-13.908 9.168-21.637l20.805-4.1562c0.44495-2.8389 0.76591-5.7162 0.96289-8.627v-13.596c-0.19698-2.8945-0.51671-5.7555-0.95703-8.5781l-20.393-4.0703c-1.9188-8.0323-4.9965-15.591-9.1309-22.48l11.379-17.033c-6.1204-8.3474-13.498-15.724-21.848-21.84l-17.012 11.346c-6.8874-4.1366-14.446-7.1612-22.479-9.0801l-4.0644-20.393c-2.8226-0.44031-5.6856-0.76005-8.5801-0.95703zm9.1992 41.604c15.543 0 30.163 6.0457 41.166 17.023l-16.039 16.074c-6.716-6.6997-15.639-10.393-25.127-10.393-19.615 0-35.574 15.959-35.574 35.576 0 19.615 15.957 35.574 35.574 35.574 9.4876 0 18.411-3.6886 25.127-10.391l16.039 16.072c-11.003 10.978-25.623 17.025-41.166 17.025-15.569 0-30.203-6.0625-41.211-17.07-11.008-11.008-17.07-25.645-17.07-41.211 0-15.569 6.0625-30.205 17.07-41.213 11.008-11.008 25.645-17.068 41.211-17.068z" fill="#fff" stroke-width="16.666"/>
  </g>
 </g>
 <path d="m11.555 15.5c3.337 0 3.9622-0.30212 3.9447-3.2495v-4.2505-4.2506c0.0175-2.9473-0.60763-3.2494-3.9447-3.2494h-7.1102c-3.3362 0-3.9447 0.30208-3.9447 3.2494v4.2506 4.2505c0 2.9474 0.60847 3.2495 3.9447 3.2495z" color="#000000" fill="none" opacity=".4" stroke="#000"/>
 <path d="m4.4453 1c-1.653 0-2.546 0.12548-2.916 0.41406-0.18499 0.14429-0.30479 0.33122-0.39649 0.70313-0.09171 0.37191-0.13281 0.91317-0.13281 1.6328v4.25 4.25c0 0.71964 0.0411 1.2608 0.13281 1.6328 0.0917 0.37191 0.2115 0.55884 0.39649 0.70313 0.36997 0.28858 1.263 0.41406 2.916 0.41406h7.1094c1.6534 0 2.552-0.12511 2.9238-0.41406 0.18589-0.14448 0.30578-0.33208 0.39648-0.70313s0.129-0.90979 0.125-1.6289v-2e-3 -4.2519-4.252-2e-3c4e-3 -0.71911-0.0343-1.2578-0.125-1.6289s-0.21059-0.55865-0.39648-0.70313c-0.37179-0.2889-1.2704-0.41402-2.9238-0.41402zm5.3281 1.0469c1.1077-3.4e-4 2.2136 8e-3 3.3203 0.0449 0.26616 0.0599 0.75737-0.0208 0.79297 0.3457 0.13405 1.8444 0.0662 3.6877 0.10156 5.5391-0.0126 1.8674 0.0543 3.6703-0.10351 5.498 0.0642 0.42314-0.43946 0.35577-0.70313 0.42187-3.4328 0.0703-6.8758 0.0589-10.299 2e-3 -0.22288-0.0398-0.55622-3.2e-4 -0.71093-0.1875-0.19863-1.13-0.12696-2.2695-0.16016-3.4199 0.0138-2.5565-0.029-5.1073 0.0898-7.6562-0.03-0.2727 0.10944-0.49629 0.40039-0.48829 1.3066-0.161 2.6326-0.0636 3.9473-0.0976 1.1072 6e-3 2.2166-2e-3 3.3242-2e-3z" color="#000000" fill="url(#linearGradient1692-6)"/>
</svg>
