<svg width="16" height="16" version="1" xmlns="http://www.w3.org/2000/svg" xmlns:xlink="http://www.w3.org/1999/xlink">
 <defs>
  <linearGradient id="linearGradient920" x1="441.38" x2="52.966" y1="240.28" y2="401.43" gradientTransform="matrix(0 -.038619 .039047 0 -4.5285 17.545)" gradientUnits="userSpaceOnUse">
   <stop stop-color="#e8e8e8" offset="0"/>
   <stop stop-color="#f5f5f5" offset="1"/>
  </linearGradient>
  <linearGradient id="linearGradient993" x1="328" x2="328" y1="237" y2="251" gradientUnits="userSpaceOnUse">
   <stop stop-color="#fff" offset="0"/>
   <stop stop-color="#fff" stop-opacity=".098039" offset=".125"/>
   <stop stop-color="#fff" stop-opacity=".098039" offset=".925"/>
   <stop stop-color="#fff" stop-opacity=".49804" offset="1"/>
  </linearGradient>
  <clipPath id="clipPath983">
   <path d="m325.1 237c-2.8077 0-3.1098 0.28839-3.096 3.1018v7.7964c-0.0138 2.8134 0.28834 3.1018 3.096 3.1018h5.8075c2.8077 0 3.096-0.28835 3.096-3.1018v-7.7964c0-2.8134-0.28835-3.1018-3.096-3.1018z" color="#000000" fill="#46a926"/>
  </clipPath>
  <linearGradient id="linearGradient1188-5-0-2-2" x1="40" x2="40" y1="168" y2="136" gradientTransform="matrix(.053571 0 0 .125 -.14286 -10)" gradientUnits="userSpaceOnUse" xlink:href="#linearGradient1186"/>
  <linearGradient id="linearGradient1186">
   <stop stop-color="#f00" offset="0"/>
   <stop stop-color="#f00" stop-opacity="0" offset="1"/>
  </linearGradient>
  <linearGradient id="linearGradient1188-5-1-7-5-3" x1="40" x2="40" y1="168" y2="136" gradientTransform="matrix(.053571 0 0 .125 -.14286 -31)" gradientUnits="userSpaceOnUse" xlink:href="#linearGradient1186"/>
 </defs>
 <path d="m5.0957 1c-0.71904 0-1.3018 0.0139-1.8359 0.10352-0.53409 0.0897-1.0683 0.27628-1.4766 0.68359-0.40826 0.4073-0.59657 0.94323-0.68554 1.4785-0.089 0.53529-0.10119 1.1205-0.0977 1.8418v6.791c-3e-3 0.71816 9e-3 1.3024 0.0977 1.8359 0.089 0.53528 0.27727 1.0712 0.68554 1.4785 0.40827 0.40731 0.94248 0.59394 1.4766 0.68359 0.53408 0.0897 1.1169 0.10352 1.8359 0.10352h5.8086c0.71904 0 1.3006-0.0137 1.834-0.10352 0.53341-0.0898 1.0677-0.27792 1.4746-0.68554s0.59404-0.94271 0.68359-1.4766c0.08956-0.53386 0.10352-1.1155 0.10352-1.8359v-6.7968c0-0.72043-0.014-1.3021-0.10352-1.8359-0.0895-0.53385-0.27666-1.0689-0.68359-1.4766s-0.9412-0.59578-1.4746-0.68554c-0.5334-0.08977-1.1149-0.10352-1.834-0.10352z" color="#000000" color-rendering="auto" dominant-baseline="auto" image-rendering="auto" opacity=".1" shape-rendering="auto" solid-color="#000000" style="font-feature-settings:normal;font-variant-alternates:normal;font-variant-caps:normal;font-variant-ligatures:normal;font-variant-numeric:normal;font-variant-position:normal;isolation:auto;mix-blend-mode:normal;shape-padding:0;text-decoration-color:#000000;text-decoration-line:none;text-decoration-style:solid;text-indent:0;text-orientation:mixed;text-transform:none;white-space:normal"/>
 <path d="m4.8545 0.50001c-3.0417 0-3.3689 0.30899-3.354 3.3233v8.3534c-0.0149 3.0143 0.31237 3.3233 3.354 3.3233h6.2915c3.0417 0 3.354-0.30895 3.354-3.3233v-8.3534c0-3.0144-0.31238-3.3233-3.354-3.3233z" color="#000000" fill="url(#linearGradient920)"/>
 <path transform="matrix(1.0833 0 0 1.0714 -347.33 -253.43)" d="m325.1 237c-2.8077 0-3.1098 0.28839-3.096 3.1018v7.7964c-0.0138 2.8134 0.28834 3.1018 3.096 3.1018h5.8075c2.8077 0 3.096-0.28835 3.096-3.1018v-7.7964c0-2.8134-0.28835-3.1018-3.096-3.1018z" clip-path="url(#clipPath983)" color="#000000" fill="none" opacity=".7" stroke="url(#linearGradient993)" stroke-width="1.8564"/>
 <path d="m11.087 15.512c2.8973 0 3.4401-0.30259 3.4249-3.2545v-8.5144c0.0152-2.9519-0.52756-3.2545-3.4249-3.2545h-6.1733c-2.8966 0-3.4249 0.30255-3.4249 3.2545v8.5144c0 2.952 0.52828 3.2545 3.4249 3.2545z" color="#000000" fill="none" opacity=".4" stroke="#000" stroke-width=".97653"/>
 <path d="m8 3.5v0.5h5v-0.5zm0 2v0.5h5v-0.5zm1 2v0.5h4v-0.5zm-6 2v0.5h10v-0.5z" enable-background="new" fill="#c8c4b7" fill-opacity=".99608"/>
 <g transform="matrix(.38462 0 0 .38462 -225.5 -42.769)" color="#bebebe" enable-background="new" fill="#1463a5" stroke-width="2.6">
  <path d="m599.88 119-4.625 12h-1.156v1h3.593v-1h-1.343l1.093-3h5.469l1.063 3h-1.282v1h4.594v-1h-1.281l-4.656-12zm0.281 2.094 2.406 5.906h-4.781z" fill="#5d5d5d" font-size="17.833" font-weight="400" letter-spacing="0" overflow="visible" stroke-width="2.6" word-spacing="0"/>
 </g>
 <rect x="2" y="9" width="12" height="1" enable-background="new" fill="#f00"/>
 <rect x="2" y="7" width="12" height="4" enable-background="new" fill="url(#linearGradient1188-5-0-2-2)" opacity=".4"/>
 <rect transform="scale(1,-1)" x="2" y="-14" width="12" height="4" enable-background="new" fill="url(#linearGradient1188-5-1-7-5-3)" opacity=".4"/>
 <path d="m1.5 10v2.1758c-0.0149 3.0143 0.31381 3.3242 3.3555 3.3242h6.291c3.0417 0 3.3535-0.30985 3.3535-3.3242v-2.1758z" color="#000000" opacity=".45"/>
 <ellipse cx="10.208" cy="8.8726" rx=".90562" ry=".91233" enable-background="new" fill="#fff"/>
 <circle cx="11" cy="11" r="4.5" enable-background="new" fill="#34be5b" stroke="#000" stroke-dashoffset="1" stroke-linecap="round" stroke-linejoin="round" stroke-opacity=".4"/>
 <path d="m11.213 8.8965c-0.71886 6.733e-4 -1.3296 0.44318-1.6215 1.0762l-0.020022 0.04328-0.046255 0.0035c-0.66393 0.04757-1.1893 0.62265-1.1893 1.3209 0 0.73019 0.57137 1.3296 1.2779 1.3296h3.0916c0.52976 0 0.95796-0.44951 0.95796-0.99486a0.98489 0.98489 0 0 0-0.601-0.91062l-0.04529-0.01932-0.0035-0.04958c-0.04529-0.99657-0.82807-1.798-1.7996-1.7987zm0 0.33297c0.78846 6.645e-4 1.4287 0.64994 1.4664 1.4807v0.0035l0.01697 0.25804 0.23406 0.0989a0.64728 0.64728 0 0 1 0.39823 0.60432c0.0035 0.37093-0.28169 0.66194-0.62298 0.66194h-3.0919c-0.51809 0-0.94458-0.43986-0.94458-0.99626-6.646e-4 -0.53208 0.39423-0.95429 0.88032-0.98987l0.24074-0.0167 0.10321-0.22075v-9.14e-4c0.24241-0.52606 0.73685-0.88169 1.3189-0.8823z" color="#000000" enable-background="new" fill="#fff" font-weight="400" overflow="visible" stroke="#fff" stroke-width=".67254" style="text-decoration-line:none;text-indent:0;text-transform:none"/>
</svg>
