<svg width="16" height="16" version="1" xmlns="http://www.w3.org/2000/svg" xmlns:xlink="http://www.w3.org/1999/xlink">
 <defs>
  <linearGradient id="linearGradient1692" x1="320.5" x2="335.5" y1="244" y2="244" gradientTransform="rotate(90 286 -34)" gradientUnits="userSpaceOnUse">
   <stop stop-color="#76c22b" offset="0"/>
   <stop stop-color="#a6d74f" offset="1"/>
  </linearGradient>
  <linearGradient id="linearGradient993" x1="328" x2="328" y1="237" y2="251" gradientUnits="userSpaceOnUse">
   <stop stop-color="#fff" offset="0"/>
   <stop stop-color="#fff" stop-opacity=".098039" offset=".125"/>
   <stop stop-color="#fff" stop-opacity=".098039" offset=".925"/>
   <stop stop-color="#fff" stop-opacity=".49804" offset="1"/>
  </linearGradient>
  <clipPath id="clipPath983">
   <path d="m325.1 237c-2.8077 0-3.1098 0.28839-3.096 3.1018v3.8982 3.8982c-0.0138 2.8134 0.28834 3.1018 3.096 3.1018h5.8075c2.8077 0 3.096-0.28835 3.096-3.1018v-3.8982-3.8982c0-2.8134-0.28835-3.1018-3.096-3.1018z" color="#000000" fill="#46a926"/>
  </clipPath>
 </defs>
 <path d="m4.6813 0.99999c-0.82173 0-1.4878 0.0139-2.0981 0.10352-0.61037 0.0897-1.2209 0.27628-1.6874 0.68359-0.46657 0.4073-0.68177 0.94323-0.78345 1.4785-0.10171 0.53529-0.11564 1.1205-0.11165 1.8418v2.8926 3.8984c-3e-3 0.71816 0.0103 1.3024 0.11165 1.8359 0.10171 0.53528 0.31687 1.0712 0.78345 1.4785 0.46657 0.40731 1.0771 0.59394 1.6874 0.68359 0.61035 0.0897 1.2764 0.10352 2.0981 0.10352h6.6381c0.82173 0 1.4863-0.0137 2.0959-0.10352 0.60958-0.0898 1.2202-0.27792 1.6852-0.68554 0.46504-0.40762 0.67887-0.94271 0.78121-1.4766 0.1024-0.53386 0.11831-1.1155 0.11831-1.8359v-3.8984-2.8984c0-0.72043-0.016-1.3021-0.11831-1.8359-0.10228-0.53385-0.31617-1.0689-0.78121-1.4766-0.46505-0.40762-1.0756-0.59578-1.6852-0.68554-0.60958-0.08977-1.2742-0.10352-2.0959-0.10352z" color="#000000" color-rendering="auto" dominant-baseline="auto" image-rendering="auto" opacity=".1" shape-rendering="auto" solid-color="#000000" style="font-feature-settings:normal;font-variant-alternates:normal;font-variant-caps:normal;font-variant-ligatures:normal;font-variant-numeric:normal;font-variant-position:normal;isolation:auto;mix-blend-mode:normal;shape-padding:0;text-decoration-color:#000000;text-decoration-line:none;text-decoration-style:solid;text-indent:0;text-orientation:mixed;text-transform:none;white-space:normal"/>
 <path d="m4.4056 0.5c-3.476 0-3.8501 0.30899-3.833 3.3233v4.1767 4.1767c-0.017 3.0143 0.35698 3.3233 3.833 3.3233h7.19c3.476 0 3.833-0.30895 3.833-3.3233v-4.1767-4.1767c0-3.0144-0.35699-3.3233-3.833-3.3233z" color="#000000" fill="url(#linearGradient1692)"/>
 <path class="ColorScheme-Text" d="m11.258 2.6429c-2.0928 0-2.4854 3.1793-1.3079 3.1793 1.177 0 3.4009-3.1793 1.3079-3.1793zm-3.2227 0.48878c-0.033-1.5e-4 -0.069-1.7e-4 -0.10613 8e-3 -1.1859 0.14977-0.76888 2.1568-0.13751 2.1943 0.61132 0.0367 1.2796-2.1967 0.24215-2.2002zm-2.0568 0.74139c-0.0725-8e-3 -0.15274 0.01-0.24215 0.0464-0.95327 0.39138-0.14501 2.0069 0.38863 1.8983 0.48437-0.0984 0.55403-1.8991-0.14648-1.9447zm-1.556 1.3214c-0.0829 0-0.17195 0.0258-0.26756 0.0972-0.76302 0.56947 0.25654 1.9457 0.70551 1.7324 0.39272-0.18681 0.14218-1.8086-0.43795-1.8296zm4.5066 1.3124c-1.6533-0.0283-3.8341 0.81077-4.2062 2.4962-0.40261 1.8235 1.6583 4.3542 3.8086 4.3542 1.0578 0 2.2782-0.96703 2.5067-2.1913 0.17431-0.93352-2.053-0.55923-1.9731 0.0583 0.096 0.74043-0.53569 1.1065-1.1554 0.62928-1.9727-1.5195 3.2663-2.2783 2.9207-4.3542-0.10756-0.64622-0.90932-0.97552-1.9013-0.99251z" clip-rule="evenodd" enable-background="new" fill="#faf8f6" fill-rule="evenodd" image-rendering="optimizeQuality" shape-rendering="geometricPrecision"/>
 <path transform="matrix(1.1428 0 0 1 -366.84 -236)" d="m325.1 237c-2.8077 0-3.1098 0.28839-3.096 3.1018v3.8982 3.8982c-0.0138 2.8134 0.28834 3.1018 3.096 3.1018h5.8075c2.8077 0 3.096-0.28835 3.096-3.1018v-3.8982-3.8982c0-2.8134-0.28835-3.1018-3.096-3.1018z" clip-path="url(#clipPath983)" color="#000000" fill="none" opacity=".7" stroke="url(#linearGradient993)" stroke-width="1.8709"/>
 <path d="m11.528 15.512c3.3111 0 3.9314-0.30259 3.914-3.2545v-4.2572-4.2572c0.0174-2.952-0.6029-3.2545-3.914-3.2545h-7.0549c-3.3103 0-3.914 0.30255-3.914 3.2545v4.2572 4.2572c0 2.952 0.60373 3.2545 3.914 3.2545z" color="#000000" fill="none" opacity=".4" stroke="#000" stroke-width=".97653"/>
</svg>
