<svg width="16" height="16" version="1" xmlns="http://www.w3.org/2000/svg" xmlns:xlink="http://www.w3.org/1999/xlink">
 <defs>
  <linearGradient id="linearGradient1692" x1="320.5" x2="335.5" y1="244" y2="244" gradientTransform="rotate(90 286 -34)" gradientUnits="userSpaceOnUse">
   <stop stop-color="#2f5fdd" offset="0"/>
   <stop stop-color="#5884f4" offset="1"/>
  </linearGradient>
  <linearGradient id="linearGradient993" x1="328" x2="328" y1="237" y2="251" gradientUnits="userSpaceOnUse">
   <stop stop-color="#fff" offset="0"/>
   <stop stop-color="#fff" stop-opacity=".098039" offset=".125"/>
   <stop stop-color="#fff" stop-opacity=".098039" offset=".925"/>
   <stop stop-color="#fff" stop-opacity=".49804" offset="1"/>
  </linearGradient>
  <clipPath id="clipPath983">
   <path d="m325.1 237c-2.8077 0-3.1098 0.28839-3.096 3.1018v3.8982 3.8982c-0.0138 2.8134 0.28834 3.1018 3.096 3.1018h5.8075c2.8077 0 3.096-0.28835 3.096-3.1018v-3.8982-3.8982c0-2.8134-0.28835-3.1018-3.096-3.1018z" color="#000000" fill="#46a926"/>
  </clipPath>
 </defs>
 <path d="m4.6813 1c-0.82173 0-1.4878 0.0139-2.0981 0.10352-0.61037 0.0897-1.2209 0.27628-1.6874 0.68359-0.46657 0.4073-0.68177 0.94323-0.78345 1.4785-0.10171 0.53529-0.11564 1.1205-0.11165 1.8418v2.8926 3.8984c-3e-3 0.71816 0.0103 1.3024 0.11165 1.8359 0.10171 0.53528 0.31687 1.0712 0.78345 1.4785 0.46657 0.40731 1.0771 0.59394 1.6874 0.68359 0.61035 0.0897 1.2764 0.10352 2.0981 0.10352h6.6381c0.82173 0 1.4863-0.0137 2.0959-0.10352 0.60958-0.0898 1.2202-0.27792 1.6852-0.68554 0.46504-0.40762 0.67887-0.94271 0.78121-1.4766 0.1024-0.53386 0.11831-1.1155 0.11831-1.8359v-3.8984-2.8984c0-0.72043-0.016-1.3021-0.11831-1.8359-0.10228-0.53385-0.31617-1.0689-0.78121-1.4766-0.46505-0.40762-1.0756-0.59578-1.6852-0.68554-0.60958-0.08977-1.2742-0.10352-2.0959-0.10352z" color="#000000" color-rendering="auto" dominant-baseline="auto" image-rendering="auto" opacity=".1" shape-rendering="auto" solid-color="#000000" style="font-feature-settings:normal;font-variant-alternates:normal;font-variant-caps:normal;font-variant-ligatures:normal;font-variant-numeric:normal;font-variant-position:normal;isolation:auto;mix-blend-mode:normal;shape-padding:0;text-decoration-color:#000000;text-decoration-line:none;text-decoration-style:solid;text-indent:0;text-orientation:mixed;text-transform:none;white-space:normal"/>
 <path d="m4.4056 0.50001c-3.476 0-3.8501 0.30899-3.833 3.3233v4.1767 4.1767c-0.017 3.0143 0.35698 3.3233 3.833 3.3233h7.19c3.476 0 3.833-0.30895 3.833-3.3233v-4.1767-4.1767c0-3.0144-0.35699-3.3233-3.833-3.3233z" color="#000000" fill="url(#linearGradient1692)"/>
 <g transform="matrix(.33333 0 0 .33333 .00028213 .16651)" enable-background="new" fill="#faf8f6" stroke-width="3">
  <path d="m26.028 7.0004-5.028 0.4969v21.282l5-0.779v-9l7 10 5.943-2-7.943-9 8-9-6-2-7 10v-10z"/>
  <path d="m14.701 13.002c-0.0615 0.0075-0.12733 0.02186-0.17383 0.06836l-2.1328 2.1191c-0.08948 0.08925-0.09898 0.22403-0.0332 0.33203l2.2676 3.7207c-0.53334 0.86612-0.9446 1.8131-1.2227 2.8164l-4.1855 0.86328c-0.1271 0.026-0.2205 0.148-0.2205 0.278v2.9922c0 0.12675 0.097403 0.23442 0.2207 0.26367l4.0586 0.97852c0.25531 1.1288 0.68686 2.1887 1.2598 3.1562l-2.3652 3.5762c-0.0717 0.10875-0.05731 0.25345 0.03516 0.3457l2.1309 2.1172c0.09 0.08925 0.22989 0.10041 0.33789 0.03516l3.6934-2.2266c0.9117 0.54494 1.9071 0.96098 2.9648 1.2246l0.86133 4.1191c0.027 0.127 0.135 0.219 0.266 0.219h3.0137c0.126 0 0.23563-0.08478 0.26563-0.20703l1.0234-4.1445c1.0661-0.27618 2.0598-0.72303 2.9746-1.2852l3.709 2.4141c0.1095 0.0705 0.2527 0.05755 0.3457-0.0332l2.1211-2.1172c0.09-0.08925 0.11092-0.22673 0.04492-0.33398l-1.4473-2.3711-0.47461 0.15039c-0.069 0.021-0.14505-0.01106-0.18555-0.07031 0 0-0.4496-0.60826-0.80664-1.0918-0.16655-0.25344-0.97368-1.4388-1.8066-2.5254-1.314 2.814-4.137 4.613-7.241 4.616-4.4183 0-8-3.5817-8-8 0.0029-3.0337 1.4205-5.7296 4-7.0803v-3.2342c-0.55787 0.20737-0.92465 0.46281-1.4355 0.75391l-3.6914-2.4004c-0.05475-0.036-0.11113-0.04311-0.17188-0.03711z"/>
 </g>
 <path transform="matrix(1.1428 0 0 1 -366.84 -236)" d="m325.1 237c-2.8077 0-3.1098 0.28839-3.096 3.1018v3.8982 3.8982c-0.0138 2.8134 0.28834 3.1018 3.096 3.1018h5.8075c2.8077 0 3.096-0.28835 3.096-3.1018v-3.8982-3.8982c0-2.8134-0.28835-3.1018-3.096-3.1018z" clip-path="url(#clipPath983)" color="#000000" fill="none" opacity=".7" stroke="url(#linearGradient993)" stroke-width="1.8709"/>
 <path d="m11.528 15.512c3.3111 0 3.9314-0.30259 3.914-3.2545v-4.2572-4.2572c0.0174-2.9519-0.6029-3.2545-3.914-3.2545h-7.0549c-3.3103 0-3.914 0.30255-3.914 3.2545v4.2572 4.2572c0 2.952 0.60373 3.2545 3.914 3.2545z" color="#000000" fill="none" opacity=".4" stroke="#000" stroke-width=".97653"/>
</svg>
