<svg width="16" height="16" version="1" xmlns="http://www.w3.org/2000/svg" xmlns:xlink="http://www.w3.org/1999/xlink">
 <defs>
  <linearGradient id="linearGradient920" x1="459.03" x2="35.31" y1="419.23" y2="207.37" gradientTransform="matrix(0 -.036044 .036043 0 -3.5648 16.909)" gradientUnits="userSpaceOnUse">
   <stop stop-color="#f2f2f2" offset="0"/>
   <stop stop-color="#f9f9f9" offset="1"/>
  </linearGradient>
  <linearGradient id="linearGradient966" x1="324" x2="332.3" y1="243.87" y2="243.87" gradientTransform="translate(-320,-236)" gradientUnits="userSpaceOnUse">
   <stop stop-color="#666" offset="0"/>
   <stop stop-color="#111" offset="1"/>
  </linearGradient>
  <linearGradient id="linearGradient993" x1="328" x2="328" y1="237" y2="251" gradientUnits="userSpaceOnUse">
   <stop stop-color="#fff" offset="0"/>
   <stop stop-color="#fff" stop-opacity=".098039" offset=".125"/>
   <stop stop-color="#fff" stop-opacity=".098039" offset=".925"/>
   <stop stop-color="#fff" stop-opacity=".49804" offset="1"/>
  </linearGradient>
  <clipPath id="clipPath983">
   <path d="m325.1 237c-2.8077 0-3.1098 0.28839-3.096 3.1018v3.8982 3.8982c-0.0138 2.8134 0.28834 3.1018 3.096 3.1018h5.8075c2.8077 0 3.096-0.28835 3.096-3.1018v-3.8982-3.8982c0-2.8134-0.28835-3.1018-3.096-3.1018z" color="#000000" fill="#46a926"/>
  </clipPath>
 </defs>
 <path d="m5.0957 1c-0.71904 0-1.3018 0.0139-1.8359 0.10352-0.53409 0.0897-1.0683 0.27628-1.4766 0.68359-0.40826 0.4073-0.59657 0.94323-0.68554 1.4785-0.089 0.53529-0.10119 1.1205-0.0977 1.8418v2.8926 3.8984c-3e-3 0.71816 9e-3 1.3024 0.0977 1.8359 0.089 0.53528 0.27727 1.0712 0.68554 1.4785 0.40827 0.40731 0.94248 0.59394 1.4766 0.68359 0.53408 0.0897 1.1169 0.10352 1.8359 0.10352h5.8086c0.71904 0 1.3006-0.0137 1.834-0.10352 0.53341-0.0898 1.0677-0.27792 1.4746-0.68554s0.59404-0.94271 0.68359-1.4766c0.08956-0.53386 0.10352-1.1155 0.10352-1.8359v-3.8984-2.8984c0-0.72043-0.014-1.3021-0.10352-1.8359-0.0895-0.53385-0.27666-1.0689-0.68359-1.4766s-0.9412-0.59578-1.4746-0.68554c-0.5334-0.08977-1.1149-0.10352-1.834-0.10352z" color="#000000" color-rendering="auto" dominant-baseline="auto" image-rendering="auto" opacity=".1" shape-rendering="auto" solid-color="#000000" style="font-feature-settings:normal;font-variant-alternates:normal;font-variant-caps:normal;font-variant-ligatures:normal;font-variant-numeric:normal;font-variant-position:normal;isolation:auto;mix-blend-mode:normal;shape-padding:0;text-decoration-color:#000000;text-decoration-line:none;text-decoration-style:solid;text-indent:0;text-orientation:mixed;text-transform:none;white-space:normal"/>
 <path d="m5.0965 1c-2.8077 0-3.1098 0.28839-3.096 3.1018v3.8982 3.8982c-0.0138 2.8134 0.28834 3.1018 3.096 3.1018h5.8075c2.8077 0 3.096-0.28835 3.096-3.1018v-3.8982-3.8982c0-2.8134-0.28835-3.1018-3.096-3.1018z" color="#000000" fill="none" opacity=".2" stroke="#000" stroke-width="2"/>
 <path d="m5.0965 1c-2.8077 0-3.1098 0.28839-3.096 3.1018v3.8982 3.8982c-0.0138 2.8134 0.28834 3.1018 3.096 3.1018h5.8075c2.8077 0 3.096-0.28835 3.096-3.1018v-3.8982-3.8982c0-2.8134-0.28835-3.1018-3.096-3.1018z" color="#000000" fill="url(#linearGradient920)"/>
 <path d="m6.5919 10.25c0.78719-0.8195 1.5064-1.6715 1.5983-1.8933 0.0918-0.22182 0.45408-0.65981 0.80491-0.97332 0.91834-0.82064 1.4541-0.75625 1.9152 0.23016 0.11747 0.25133 0.27915 0.45695 0.3593 0.45695 0.18331 0 1.0286-0.82284 1.0286-1.0013 0-0.23117-0.43374-0.6296-0.6854-0.6296-0.26535 0-0.51945-0.38105-0.51945-0.77893 0-0.3015-0.83-1.1408-1.4325-1.4486-0.28707-0.14665-0.78139-0.21884-1.4982-0.21884-1.0835 0-1.5364 0.17954-0.84293 0.33416 0.20833 0.0464 0.60044 0.26993 0.87133 0.49662 0.69752 0.5837 0.66941 1.0222-0.12614 1.9676-0.34028 0.40435-0.7021 0.73518-0.80406 0.73518-0.22548 0-3.2628 2.8239-3.2628 3.0335 0 0.15827 0.93246 1.1796 1.077 1.1796 0.047 0 0.72957-0.67049 1.5168-1.49z" enable-background="new" fill="url(#linearGradient966)" opacity=".5" stroke-width=".26142"/>
 <path d="m 8,1 v 14 h 2.9043 C 13.712,15 14,14.71185 14,11.89844 V 8 4.10156 C 14,1.28816 13.71199,1 10.9043,1 Z" color="#000000" fill="#fff" opacity=".1"/>
 <path d="m 2,8 v 3.89844 C 1.9862,14.71181 2.28801,15 5.0957,15 h 5.8086 C 13.712,15 14,14.71185 14,11.89844 V 8 Z" color="#000000" fill="#fff" opacity=".1"/>
 <path transform="translate(-320,-236)" d="m325.1 237c-2.8077 0-3.1098 0.28839-3.096 3.1018v3.8982 3.8982c-0.0138 2.8134 0.28834 3.1018 3.096 3.1018h5.8075c2.8077 0 3.096-0.28835 3.096-3.1018v-3.8982-3.8982c0-2.8134-0.28835-3.1018-3.096-3.1018z" clip-path="url(#clipPath983)" color="#000000" fill="none" opacity=".4" stroke="url(#linearGradient993)" stroke-width="2"/>
</svg>
