<svg width="16" height="16" version="1" xmlns="http://www.w3.org/2000/svg" xmlns:xlink="http://www.w3.org/1999/xlink">
 <defs>
  <linearGradient id="linearGradient920" x1="459.03" x2="35.31" y1="419.23" y2="207.37" gradientTransform="matrix(.036044 0 0 .036043 -.90908 -3.5645)" gradientUnits="userSpaceOnUse">
   <stop stop-color="#34be5d" offset="0"/>
   <stop stop-color="#1abc93" offset="1"/>
  </linearGradient>
  <linearGradient id="linearGradient459" x1="34.107" x2="34.117" y1="248.32" y2="277.59" gradientTransform="matrix(14.933 0 0 14.933 -1417 -4090)" gradientUnits="userSpaceOnUse">
   <stop stop-color="#e6eaef" offset="0"/>
   <stop stop-color="#e6eaef" offset="1"/>
  </linearGradient>
  <linearGradient id="linearGradient993" x1="329" x2="329" y1="239" y2="250" gradientTransform="rotate(90,328,244)" gradientUnits="userSpaceOnUse">
   <stop stop-color="#fff" offset="0"/>
   <stop stop-color="#fff" stop-opacity=".098039" offset=".125"/>
   <stop stop-color="#fff" stop-opacity=".098039" offset=".925"/>
   <stop stop-color="#fff" stop-opacity=".49804" offset="1"/>
  </linearGradient>
  <clipPath id="clipPath983">
   <path d="m325.1 237c-2.8077 0-3.1098 0.28839-3.096 3.1018v3.8982 3.8982c-0.0138 2.8134 0.28834 3.1018 3.096 3.1018h5.8075c2.8077 0 3.096-0.28835 3.096-3.1018v-3.8982-3.8982c0-2.8134-0.28835-3.1018-3.096-3.1018z" color="#000000" fill="#46a926"/>
  </clipPath>
 </defs>
 <path d="m4.1018 2c-0.71915 0-1.3048 0.0125-1.8359 0.10156-0.53547 0.0898-1.0673 0.277-1.4766 0.68555-0.40957 0.4089-0.59739 0.93918-0.6875 1.4746-0.0893 0.5307-0.10156 1.1163-0.10156 1.834v5.8086c0 0.7177 0.0124 1.3026 0.10156 1.834 0.09 0.53651 0.27895 1.069 0.6875 1.4785 0.40843 0.40938 0.93899 0.59618 1.4766 0.68554 0.53194 0.0884 1.1189 0.10116 1.8379 0.0977h3.8965 3.8965c0.71856 3e-3 1.3056-9e-3 1.8379-0.0977 0.53758-0.0893 1.0681-0.27615 1.4766-0.68554 0.40854-0.40951 0.59548-0.94204 0.68554-1.4785 0.08917-0.53135 0.10352-1.1163 0.10352-1.834v-5.8086c0-0.71766-0.0142-1.3033-0.10352-1.834-0.0901-0.53541-0.27596-1.0657-0.68554-1.4746-0.40926-0.40854-0.94112-0.59573-1.4766-0.68555-0.53111-0.08906-1.1168-0.10156-1.8359-0.10156h-3.8984z" color="#000000" color-rendering="auto" dominant-baseline="auto" image-rendering="auto" opacity=".1" shape-rendering="auto" solid-color="#000000" style="font-feature-settings:normal;font-variant-alternates:normal;font-variant-caps:normal;font-variant-ligatures:normal;font-variant-numeric:normal;font-variant-position:normal;isolation:auto;mix-blend-mode:normal;shape-padding:0;text-decoration-color:#000000;text-decoration-line:none;text-decoration-style:solid;text-indent:0;text-orientation:mixed;text-transform:none;white-space:normal"/>
 <path d="m4.1018 1.5c-0.71121-3e-3 -1.2755 0.0103-1.7539 0.0898-0.47898 0.0796-0.89549 0.23655-1.2051 0.54688-0.3096 0.31033-0.46655 0.72851-0.54688 1.207-0.0763 0.45474-0.0922 0.99487-0.0937 1.6562-8e-5 0.0346-2e-3 0.0604-2e-3 0.0957v5.8086c0 0.71048 0.0153 1.2724 0.0957 1.75 0.0804 0.47763 0.23713 0.89583 0.54688 1.2051 0.30975 0.30921 0.72681 0.46469 1.2051 0.54492 0.47826 0.0802 1.042 0.0957 1.7539 0.0957h3.8984 3.8984c0.71189 0 1.2756-0.0155 1.7539-0.0957 0.47827-0.0802 0.89533-0.23572 1.2051-0.54492 0.30975-0.30924 0.4665-0.72745 0.54688-1.2051 0.0804-0.47764 0.0957-1.0395 0.0957-1.75v-5.8086c0-0.0353-2e-3 -0.0611-2e-3 -0.0957-2e-3 -0.66138-0.0174-1.2015-0.0937-1.6562-0.0803-0.47851-0.23728-0.89671-0.54688-1.207-0.30959-0.31032-0.7261-0.46726-1.2051-0.54688-0.47897-0.0796-1.0435-0.0933-1.7559-0.0898h-3.8965z" color="#000000" fill="url(#linearGradient920)"/>
 <g transform="matrix(.23382 0 0 .23382 .0817 -53.408)" enable-background="new" stroke-width="14.933">
  <rect x="12.7" y="247.42" width="42.333" height="30.427" rx="1.027" ry="1.071" fill="#00132b" opacity=".3"/>
  <rect x="12.7" y="247.42" width="42.333" height="30.427" rx="1.027" ry="1.071" fill="url(#linearGradient459)" opacity=".7"/>
  <rect x="19.32" y="262.91" width="29.087" height="5.801" rx="1.058" ry="1.058" fill="#fff" opacity=".7"/>
  <path d="m24.119 256.07h0.40005l0.31609-1.4224c0.01482-0.0741 0.04445-0.19756 0.0642-0.29634 0.01482 0.0988 0.04445 0.22719 0.05927 0.30128l0.32597 1.4175h0.39511l0.64206-2.5238h-0.46426l-0.33584 1.4619c-0.01975 0.084-0.03457 0.15804-0.04939 0.24694-0.01482-0.0889-0.0247-0.16792-0.04445-0.24694l-0.33584-1.4619h-0.38523l-0.33091 1.4619c-0.01975 0.079-0.02963 0.14816-0.04445 0.23212-0.0099-0.084-0.02469-0.1531-0.04445-0.22719l-0.34572-1.4668h-0.46426z" opacity=".8"/>
  <path d="m29.064 254.69c0-0.82974-0.48401-1.2051-1.0717-1.2051-0.71614 0-1.1804 0.48895-1.1804 1.3187 0 0.77047 0.43956 1.3236 1.1804 1.3236 0.36054 0 0.66181-0.14816 0.86924-0.3556l-0.2914-0.31609c-0.17286 0.16299-0.36054 0.22719-0.57291 0.22719-0.38029 0-0.61736-0.2667-0.6865-0.68156h1.7385c0.01482-0.12348 0.01482-0.23707 0.01482-0.31115zm-1.7632-0.11854c0.04939-0.40005 0.27164-0.65193 0.69144-0.65193 0.2667 0 0.56303 0.16298 0.58279 0.65193z" opacity=".8"/>
  <path d="m31.223 255.63v-3.1263h-1.3187l0.22719 0.43462h0.5976v2.6917h-0.72602v0.43956h1.941v-0.43956z" opacity=".8"/>
  <path d="m34.069 256.13c0.52352 0 0.87418-0.24694 1.0125-0.69144l-0.46426-0.14817c-0.07902 0.23707-0.26176 0.37536-0.54328 0.37536-0.40005 0-0.61242-0.32103-0.61242-0.85443 0-0.52352 0.20743-0.85937 0.62724-0.85937 0.27164 0 0.42968 0.13829 0.50871 0.33091l0.46426-0.16298c-0.15311-0.42475-0.49389-0.63218-0.97296-0.63218-0.69638 0-1.1359 0.49883-1.1359 1.3236 0 0.83467 0.43462 1.3187 1.1162 1.3187z" opacity=".8"/>
  <path d="m37.053 256.13c0.73096 0 1.1952-0.50376 1.1952-1.3236 0-0.81492-0.46426-1.3187-1.1952-1.3187-0.73096 0-1.1952 0.5087-1.1952 1.3236 0 0.81986 0.46426 1.3187 1.1952 1.3187zm0-0.46425c-0.44944 0-0.69144-0.33585-0.69144-0.85443 0-0.53834 0.242-0.85937 0.69144-0.85937 0.45438 0 0.69638 0.33585 0.69638 0.85443 0 0.52352-0.25188 0.85937-0.69638 0.85937z" opacity=".8"/>
  <path d="m40.764 253.48c-0.26176 0-0.44944 0.1778-0.55809 0.37535-0.05927-0.18274-0.22225-0.37535-0.47413-0.37535-0.23707 0-0.40005 0.13829-0.49389 0.39017v-0.33091h-0.43462v2.5238h0.46426v-1.5261c0-0.35066 0.12347-0.58773 0.34078-0.58773 0.20743 0 0.26176 0.22225 0.26176 0.53834v1.5755h0.46426v-1.5261c0-0.35066 0.10372-0.58773 0.32103-0.58773 0.21237 0 0.26176 0.18274 0.26176 0.57291v1.5409h0.46426v-1.6694c0-0.66181-0.2025-0.91369-0.61736-0.91369z" opacity=".8"/>
  <path d="m44.257 254.69c0-0.82974-0.48401-1.2051-1.0717-1.2051-0.71614 0-1.1804 0.48895-1.1804 1.3187 0 0.77047 0.43956 1.3236 1.1804 1.3236 0.36054 0 0.66181-0.14816 0.86924-0.3556l-0.29139-0.31609c-0.17286 0.16299-0.36054 0.22719-0.57291 0.22719-0.38029 0-0.61736-0.2667-0.6865-0.68156h1.7385c0.01482-0.12348 0.01482-0.23707 0.01482-0.31115zm-1.7632-0.11854c0.04939-0.40005 0.27164-0.65193 0.69144-0.65193 0.2667 0 0.56303 0.16298 0.58279 0.65193z" opacity=".8"/>
  <path d="m21.035 263.93v3.9688h0.26367v-3.9688z" opacity=".8"/>
 </g>
 <path d="m0.5 10.904c0 0.71048 0.0154 1.2734 0.0957 1.752s0.23728 0.89671 0.54688 1.207c0.30959 0.31032 0.7261 0.46726 1.2051 0.54688 0.47897 0.0796 1.0435 0.0933 1.7559 0.0898h3.8965 3.8984c0.71121 3e-3 1.2755-0.0103 1.7539-0.0898 0.47898-0.0796 0.89549-0.23655 1.2051-0.54688 0.3096-0.31033 0.46655-0.72851 0.54688-1.207 0.0803-0.47852 0.0957-1.0415 0.0957-1.752v-5.8086c0-0.71048-0.0153-1.2724-0.0957-1.75-0.0804-0.47763-0.23713-0.89584-0.54688-1.2051-0.30975-0.30921-0.72681-0.46469-1.2051-0.54492-0.47826-0.0802-1.042-0.0957-1.7539-0.0957h-3.8984-3.8984c-0.71189 0-1.2756 0.0155-1.7539 0.0957-0.47827 0.0802-0.89533 0.2357-1.2051 0.54492-0.30975 0.30924-0.4665 0.72745-0.54688 1.2051-0.0804 0.47764-0.0957 1.0395-0.0957 1.75z" color="#000000" fill="none" opacity=".4" stroke="#000"/>
 <path transform="rotate(-90 50 286)" d="m325.1 237c-2.8077 0-3.1098 0.28839-3.096 3.1018v3.8982 3.8982c-0.0138 2.8134 0.28834 3.1018 3.096 3.1018h5.8075c2.8077 0 3.096-0.28835 3.096-3.1018v-3.8982-3.8982c0-2.8134-0.28835-3.1018-3.096-3.1018z" clip-path="url(#clipPath983)" color="#000000" fill="none" opacity=".3" stroke="url(#linearGradient993)" stroke-width="2"/>
</svg>
