<svg width="16" height="16" version="1" xmlns="http://www.w3.org/2000/svg" xmlns:xlink="http://www.w3.org/1999/xlink">
 <defs>
  <linearGradient id="linearGradient3763" x1="328" x2="328" y1="250.5" y2="237.5" gradientTransform="translate(-320,-236)" gradientUnits="userSpaceOnUse">
   <stop stop-color="#f7f7f7" offset="0"/>
   <stop stop-color="#e6e6e6" offset="1"/>
  </linearGradient>
  <linearGradient id="linearGradient993" x1="328" x2="328" y1="238" y2="250" gradientTransform="rotate(-90,328,244)" gradientUnits="userSpaceOnUse">
   <stop stop-color="#fff" offset="0"/>
   <stop stop-color="#fff" stop-opacity=".098039" offset=".125"/>
   <stop stop-color="#fff" stop-opacity=".098039" offset=".925"/>
   <stop stop-color="#fff" stop-opacity=".49804" offset="1"/>
  </linearGradient>
  <clipPath id="clipPath983">
   <path d="m325.1 237c-2.8077 0-3.1098 0.28839-3.096 3.1018v3.8982 3.8982c-0.0138 2.8134 0.28834 3.1018 3.096 3.1018h5.8075c2.8077 0 3.096-0.28835 3.096-3.1018v-3.8982-3.8982c0-2.8134-0.28835-3.1018-3.096-3.1018z" color="#000000" fill="#46a926"/>
  </clipPath>
 </defs>
 <path d="m15.5 5.596c0-0.71904-0.0139-1.3018-0.10352-1.8359-0.0897-0.53409-0.27628-1.0683-0.68359-1.4766-0.4073-0.40826-0.94323-0.59657-1.4785-0.68554-0.53529-0.089-1.1205-0.10119-1.8418-0.0977h-2.8926-3.8984c-0.71816-3e-3 -1.3024 9e-3 -1.8359 0.0977-0.53528 0.089-1.0712 0.27727-1.4785 0.68554-0.40731 0.40827-0.59394 0.94248-0.68359 1.4766-0.0897 0.53408-0.10352 1.1169-0.10352 1.8359v5.8086c0 0.71904 0.0137 1.3006 0.10352 1.834 0.0898 0.53341 0.27792 1.0677 0.68554 1.4746s0.94271 0.59404 1.4766 0.68359c0.53386 0.0896 1.1155 0.10352 1.8359 0.10352h3.8984 2.8984c0.72043 0 1.3021-0.014 1.8359-0.10352 0.53385-0.0895 1.0689-0.27666 1.4766-0.68359s0.59578-0.9412 0.68554-1.4746c0.0898-0.5334 0.10352-1.1149 0.10352-1.834z" color="#000000" color-rendering="auto" dominant-baseline="auto" image-rendering="auto" opacity=".1" shape-rendering="auto" solid-color="#000000" style="font-feature-settings:normal;font-variant-alternates:normal;font-variant-caps:normal;font-variant-ligatures:normal;font-variant-numeric:normal;font-variant-position:normal;isolation:auto;mix-blend-mode:normal;shape-padding:0;text-decoration-color:#000000;text-decoration-line:none;text-decoration-style:solid;text-indent:0;text-orientation:mixed;text-transform:none;white-space:normal"/>
 <path d="m15.5 4.8545c0-3.0417-0.30899-3.3689-3.3233-3.354h-4.1767-4.1767c-3.0143-0.0149-3.3233 0.31237-3.3233 3.354v6.2915c0 3.0417 0.30895 3.354 3.3233 3.354h4.1767 4.1767c3.0144 0 3.3233-0.31238 3.3233-3.354z" color="#000000" fill="url(#linearGradient3763)"/>
 <path d="m1 5.5082h2.7653c2.4753-0.0171 1.417 4.8526 3.2686 4.9927h0.57316 0.58566c2.0982 0 1.2573-5.956 2.7238-5.956 1.3877 0 1.1211 4.2226 1.9932 4.2226 0.74005 0 0.49703-2.2637 1.169-2.2637h0.92123" color="#000000" color-rendering="auto" fill="none" image-rendering="auto" opacity=".5" shape-rendering="auto" solid-color="#000000" stroke="#1a7fd4" style="isolation:auto;mix-blend-mode:normal;paint-order:normal"/>
 <path d="m15 10.51h-1.3778c-0.672 0-0.7333-2.2879-1.4734-2.2879-0.71075 0-0.318 0.63589-1.1424 0.62479-0.79088-0.0107-0.33163-3.3714-2.0528-3.3714h-0.57315-0.57317c-2.0981 0-1.2572 5.8597-2.7238 5.8597-1.3877 0-1.1211-3.6569-1.9933-3.6569-0.74006 0-0.49703 1.8434-1.169 1.8434h-0.92124" color="#000000" color-rendering="auto" fill="none" image-rendering="auto" shape-rendering="auto" solid-color="#000000" stroke="#da1636" style="isolation:auto;mix-blend-mode:normal;paint-order:normal"/>
 <path transform="rotate(90 286 -34)" d="m325.1 237c-2.8077 0-3.1098 0.28839-3.096 3.1018v3.8982 3.8982c-0.0138 2.8134 0.28834 3.1018 3.096 3.1018h5.8075c2.8077 0 3.096-0.28835 3.096-3.1018v-3.8982-3.8982c0-2.8134-0.28835-3.1018-3.096-3.1018z" clip-path="url(#clipPath983)" color="#000000" fill="none" opacity=".7" stroke="url(#linearGradient993)" stroke-width="2"/>
 <path d="m15.512 4.9136c0-2.8973-0.30259-3.4401-3.2545-3.4249h-4.2572-4.2572c-2.952-0.0152-3.2545 0.52756-3.2545 3.4249v6.1733c0 2.8966 0.30255 3.4249 3.2545 3.4249h4.2572 4.2572c2.952 0 3.2545-0.52828 3.2545-3.4249z" color="#000000" fill="none" opacity=".4" stroke="#000" stroke-width=".97653"/>
</svg>
