<svg width="16" height="16" version="1" xmlns="http://www.w3.org/2000/svg" xmlns:xlink="http://www.w3.org/1999/xlink">
 <defs>
  <linearGradient id="linearGradient1692" x1="320" x2="336" y1="252" y2="236" gradientTransform="rotate(90 286 -34)" gradientUnits="userSpaceOnUse">
   <stop stop-color="#f4843f" offset="0"/>
   <stop stop-color="#f8ae34" offset="1"/>
  </linearGradient>
  <linearGradient id="linearGradient1076" x1="46.869" x2="254.15" y1="150.12" y2="150.12" gradientTransform="matrix(14.933 0 0 14.933 -5177 -3631.6)" gradientUnits="userSpaceOnUse" xlink:href="#linearGradient4289"/>
  <linearGradient id="linearGradient4289">
   <stop stop-color="#fdfdfb" offset="0"/>
   <stop stop-color="#f0e9df" offset="1"/>
  </linearGradient>
  <linearGradient id="linearGradient1692-6" x1="321" x2="335" y1="244" y2="244" gradientTransform="rotate(90 286 -34)" gradientUnits="userSpaceOnUse">
   <stop stop-color="#fff" offset="0"/>
   <stop stop-color="#fff" stop-opacity=".098039" offset=".125"/>
   <stop stop-color="#fff" stop-opacity=".098039" offset=".925"/>
   <stop stop-color="#fff" stop-opacity=".49804" offset="1"/>
  </linearGradient>
 </defs>
 <path d="m4.1286 1c-3.7436 0-4.1464 0.30899-4.128 3.3233v4.1767 4.1767c-0.0183 3.0143 0.38446 3.3233 4.128 3.3233h7.7433c3.7436 0 4.128-0.30895 4.128-3.3233v-4.1767-4.1767c0-3.0144-0.38446-3.3233-4.128-3.3233z" color="#000000" opacity=".1"/>
 <path d="m4.4056 0.50001c-3.476 0-3.8501 0.30899-3.833 3.3233v4.1767 4.1767c-0.017 3.0143 0.35698 3.3233 3.833 3.3233h7.19c3.476 0 3.833-0.30895 3.833-3.3233v-4.1767-4.1767c0-3.0144-0.35699-3.3233-3.833-3.3233z" color="#000000" fill="url(#linearGradient1692)"/>
 <g transform="matrix(.057146 0 0 .057146 -.601 -.57877)" enable-background="new" fill="url(#linearGradient1076)" stroke-width="14.933">
  <path d="m90.494 180.2h-43.625v-9.9295c7.8238-7.8223 30.474-25.409 28.15-35.53-3.0721-9.6888-16.516-3.1041-18.497 1.3179l-9.606-7.34c9.9051-15.277 40.548-13.517 41.418 6.1608 0.13417 15.553-15.328 25.09-24.344 33.668v0.59536h26.504z"/>
  <path d="m145.69 150.12c0.0631 17.934-5.1146 31.485-23.027 31.6-19.083-0.0356-23.56-13.743-23.495-31.488-0.0649-17.78 4.7813-31.58 23.495-31.614 18.066 0.0335 22.964 13.854 23.027 31.502zm-33.734 0.11236c0.11555 7.0266 0.67599 20.614 10.483 20.711 9.7053 0.11164 10.513-14.386 10.538-20.823-0.12683-6.991-0.48779-20.502-10.426-20.57-10.098-0.18412-10.528 13.963-10.595 20.682z"/>
  <path d="m231.71 118.61c8.5245 0.0453 20.45 3.7255 20.459 14.803-9e-3 8.758-3.6498 10.729-10.64 14.548 7.695 4.6453 12.534 8.1112 12.623 17.241-0.0892 11.956-11.652 16.271-22.443 16.351-11.363-0.0799-22.57-4.1346-22.744-16.523 0.17894-8.9376 5.4196-14.001 11.103-16.861-6.4909-3.9806-9.5333-6.0364-9.3731-14.84-0.1602-10.907 11.817-14.673 21.014-14.719zm-10.534 45.347c-0.0432 5.6839 4.6963 7.7436 10.41 7.6954 5.5049 0.0482 9.6719-2.2453 9.7399-7.1674 0.0479-8.2667-9.7344-11.879-9.7344-11.879s-10.459 3.6126-10.416 11.351zm10.441-34.982c-4.7979-0.0409-9.1512 1.0398-9.1739 5.677 0.0227 5.3995 9.0774 9.104 9.0774 9.104s8.3311-3.6544 8.4594-9.4847c-0.1918-4.2526-3.8086-5.3372-8.3629-5.2963z"/>
  <path d="m202.22 170.07h-7.77v10.088h-11.51v-10.08h-30.06v-11.137l29.332-38.853h12.238v39.776h7.77zm-19.28-33.723-18.038 23.517h18.038z"/>
 </g>
 <path d="m11.555 15.5c3.337 0 3.9622-0.30212 3.9447-3.2495v-4.2505-4.2506c0.0175-2.9473-0.60763-3.2494-3.9447-3.2494h-7.1102c-3.3362 0-3.9447 0.30208-3.9447 3.2494v4.2506 4.2505c0 2.9474 0.60847 3.2495 3.9447 3.2495z" color="#000000" fill="none" opacity=".4" stroke="#000"/>
 <path d="m4.4453 1c-1.653 0-2.546 0.12548-2.916 0.41406-0.18499 0.14429-0.30479 0.33122-0.39649 0.70313-0.09171 0.37191-0.13281 0.91317-0.13281 1.6328v4.25 4.25c0 0.71964 0.0411 1.2608 0.13281 1.6328 0.0917 0.37191 0.2115 0.55884 0.39649 0.70313 0.36997 0.28858 1.263 0.41406 2.916 0.41406h7.1094c1.6534 0 2.552-0.12511 2.9238-0.41406 0.18589-0.14448 0.30578-0.33208 0.39648-0.70313s0.129-0.90979 0.125-1.6289v-2e-3 -4.2519-4.252-2e-3c4e-3 -0.71911-0.0343-1.2578-0.125-1.6289s-0.21059-0.55865-0.39648-0.70313c-0.37179-0.2889-1.2704-0.41402-2.9238-0.41402zm5.3281 1.0469c1.1077-3.4e-4 2.2136 8e-3 3.3203 0.0449 0.26616 0.0599 0.75737-0.0208 0.79297 0.3457 0.13405 1.8444 0.0662 3.6877 0.10156 5.5391-0.0126 1.8674 0.0543 3.6703-0.10351 5.498 0.0642 0.42314-0.43946 0.35577-0.70313 0.42187-3.4328 0.0703-6.8758 0.0589-10.299 2e-3 -0.22288-0.0398-0.55622-3.2e-4 -0.71093-0.1875-0.19863-1.13-0.12696-2.2695-0.16016-3.4199 0.0138-2.5565-0.029-5.1073 0.0898-7.6562-0.03-0.2727 0.10944-0.49629 0.40039-0.48829 1.3066-0.161 2.6326-0.0636 3.9473-0.0976 1.1072 6e-3 2.2166-2e-3 3.3242-2e-3z" color="#000000" fill="url(#linearGradient1692-6)"/>
</svg>
