<svg width="16" height="16" version="1" xmlns="http://www.w3.org/2000/svg" xmlns:xlink="http://www.w3.org/1999/xlink">
 <defs>
  <linearGradient id="linearGradient1692" x1="320" x2="336" y1="252" y2="252" gradientTransform="rotate(90 286 -34)" gradientUnits="userSpaceOnUse" xlink:href="#linearGradient5889"/>
  <linearGradient id="linearGradient5889">
   <stop stop-color="#f7f7f7" offset="0"/>
   <stop stop-color="#f7f7f7" offset="1"/>
  </linearGradient>
  <linearGradient id="linearGradient287" x1="50.271" x2="32.771" y1="240.12" y2="259.02" gradientTransform="matrix(.28954 0 0 .27676 -1.6545 -64.422)" gradientUnits="userSpaceOnUse">
   <stop stop-color="#d280b9" offset="0"/>
   <stop stop-color="#b549b5" offset="1"/>
  </linearGradient>
  <filter id="filter4064" x="-.01" y="-.01" width="1.027" height="1.021" color-interpolation-filters="sRGB">
   <feGaussianBlur stdDeviation=".213"/>
  </filter>
  <linearGradient id="linearGradient289" x1="50.271" x2="17.381" y1="240.12" y2="276.1" gradientTransform="matrix(.28954 0 0 .27676 -1.6545 -64.422)" gradientUnits="userSpaceOnUse" xlink:href="#linearGradient5889"/>
  <radialGradient id="radialGradient291" cx="32.865" cy="262.66" r="17.646" gradientTransform="matrix(.327 .0026925 -.0031736 .38543 -1.9487 -92.891)" gradientUnits="userSpaceOnUse">
   <stop stop-color="#5884f4" offset="0"/>
   <stop stop-color="#80a3fa" offset="1"/>
  </radialGradient>
  <linearGradient id="linearGradient1692-6" x1="321" x2="335" y1="244" y2="244" gradientTransform="rotate(90 286 -34)" gradientUnits="userSpaceOnUse">
   <stop stop-color="#fff" offset="0"/>
   <stop stop-color="#fff" stop-opacity=".098039" offset=".125"/>
   <stop stop-color="#fff" stop-opacity=".098039" offset=".925"/>
   <stop stop-color="#fff" stop-opacity=".49804" offset="1"/>
  </linearGradient>
 </defs>
 <path d="m4.1286 1c-3.7436 0-4.1464 0.30899-4.128 3.3233v4.1767 4.1767c-0.0183 3.0143 0.38446 3.3233 4.128 3.3233h7.7433c3.7436 0 4.128-0.30895 4.128-3.3233v-4.1767-4.1767c0-3.0144-0.38446-3.3233-4.128-3.3233z" color="#000000" opacity=".1"/>
 <path d="m4.4056 0.50001c-3.476 0-3.8501 0.30899-3.833 3.3233v4.1767 4.1767c-0.017 3.0143 0.35698 3.3233 3.833 3.3233h7.19c3.476 0 3.833-0.30895 3.833-3.3233v-4.1767-4.1767c0-3.0144-0.35699-3.3233-3.833-3.3233z" color="#000000" fill="url(#linearGradient1692)"/>
 <path d="m11.555 15.5c3.337 0 3.9622-0.30212 3.9447-3.2495v-4.2505-4.2506c0.0175-2.9473-0.60763-3.2494-3.9447-3.2494h-7.1102c-3.3362 0-3.9447 0.30208-3.9447 3.2494v4.2506 4.2505c0 2.9474 0.60847 3.2495 3.9447 3.2495z" color="#000000" fill="none" opacity=".4" stroke="#000"/>
 <path d="m2.9088 1.9915v6.444c0 2.7065 2.0405 5.1552 5.056 6.444 3.0156-1.2888 5.056-3.7375 5.056-6.444v-6.444z" enable-background="new" fill="url(#linearGradient287)" opacity=".497" stroke-width=".26997"/>
 <path transform="matrix(.26997 0 0 .26997 -1.0044 -.73822)" d="m14.495 10.111v23.87c0 10.025 7.5583 19.096 18.728 23.87 11.17-4.7739 18.728-13.844 18.728-23.87v-23.87z" enable-background="new" fill="none" filter="url(#filter4064)" opacity=".6" stroke="#030303" stroke-width=".26458"/>
 <path d="m2.9088 1.9915v6.444c0 2.7065 2.0405 5.1552 5.056 6.444 3.0156-1.2888 5.056-3.7375 5.056-6.444v-6.444z" enable-background="new" fill="url(#linearGradient289)" stroke-width=".26997"/>
 <path d="m3.2011 2.3641v6.0714c0 0.24495 0.0182 0.48769 0.0528 0.72741l7.0504-6.7988zm9.5274 2.3372-7.908 7.6253c0.81046 0.89155 1.8873 1.6431 3.1444 2.1804 2.8413-1.2143 4.7636-3.5215 4.7636-6.0715z" enable-background="new" fill="url(#radialGradient291)" stroke-width=".26997"/>
 <path d="m4.4453 1c-1.653 0-2.546 0.12548-2.916 0.41406-0.18499 0.14429-0.30479 0.33122-0.39649 0.70313-0.09171 0.37191-0.13281 0.91317-0.13281 1.6328v4.25 4.25c0 0.71964 0.0411 1.2608 0.13281 1.6328 0.0917 0.37191 0.2115 0.55884 0.39649 0.70313 0.36997 0.28858 1.263 0.41406 2.916 0.41406h7.1094c1.6534 0 2.552-0.12511 2.9238-0.41406 0.18589-0.14448 0.30578-0.33208 0.39648-0.70313s0.129-0.90979 0.125-1.6289v-2e-3 -4.2519-4.252-2e-3c4e-3 -0.71911-0.0343-1.2578-0.125-1.6289s-0.21059-0.55865-0.39648-0.70313c-0.37179-0.2889-1.2704-0.41402-2.9238-0.41402zm5.3281 1.0469c1.1077-3.4e-4 2.2136 8e-3 3.3203 0.0449 0.26616 0.0599 0.75737-0.0208 0.79297 0.3457 0.13405 1.8444 0.0662 3.6877 0.10156 5.5391-0.0126 1.8674 0.0543 3.6703-0.10351 5.498 0.0642 0.42314-0.43946 0.35577-0.70313 0.42187-3.4328 0.0703-6.8758 0.0589-10.299 2e-3 -0.22288-0.0398-0.55622-3.2e-4 -0.71093-0.1875-0.19863-1.13-0.12696-2.2695-0.16016-3.4199 0.0138-2.5565-0.029-5.1073 0.0898-7.6562-0.03-0.2727 0.10944-0.49629 0.40039-0.48829 1.3066-0.161 2.6326-0.0636 3.9473-0.0976 1.1072 6e-3 2.2166-2e-3 3.3242-2e-3z" color="#000000" fill="url(#linearGradient1692-6)"/>
</svg>
