<svg width="16" height="16" version="1" xmlns="http://www.w3.org/2000/svg" xmlns:xlink="http://www.w3.org/1999/xlink">
 <defs>
  <linearGradient id="linearGradient920" x1="459.03" x2="35.31" y1="419.23" y2="207.37" gradientTransform="matrix(0 -.036044 .036043 0 -3.5648 16.909)" gradientUnits="userSpaceOnUse">
   <stop stop-color="#f2f2f2" offset="0"/>
   <stop stop-color="#f9f9f9" offset="1"/>
  </linearGradient>
  <linearGradient id="linearGradient993" x1="328" x2="328" y1="237" y2="251" gradientUnits="userSpaceOnUse">
   <stop stop-color="#fff" offset="0"/>
   <stop stop-color="#fff" stop-opacity=".098039" offset=".125"/>
   <stop stop-color="#fff" stop-opacity=".098039" offset=".925"/>
   <stop stop-color="#fff" stop-opacity=".49804" offset="1"/>
  </linearGradient>
  <clipPath id="clipPath983">
   <path d="m325.1 237c-2.8077 0-3.1098 0.28839-3.096 3.1018v3.8982 3.8982c-0.0138 2.8134 0.28834 3.1018 3.096 3.1018h5.8075c2.8077 0 3.096-0.28835 3.096-3.1018v-3.8982-3.8982c0-2.8134-0.28835-3.1018-3.096-3.1018z" color="#000000" fill="#46a926"/>
  </clipPath>
 </defs>
 <path d="m5.0957 1c-0.71904 0-1.3018 0.0139-1.8359 0.10352-0.53409 0.0897-1.0683 0.27628-1.4766 0.68359-0.40826 0.4073-0.59657 0.94323-0.68554 1.4785-0.089 0.53529-0.10119 1.1205-0.0977 1.8418v2.8926 3.8984c-3e-3 0.71816 9e-3 1.3024 0.0977 1.8359 0.089 0.53528 0.27727 1.0712 0.68554 1.4785 0.40827 0.40731 0.94248 0.59394 1.4766 0.68359 0.53408 0.0897 1.1169 0.10352 1.8359 0.10352h5.8086c0.71904 0 1.3006-0.0137 1.834-0.10352 0.53341-0.0898 1.0677-0.27792 1.4746-0.68554s0.59404-0.94271 0.68359-1.4766c0.08956-0.53386 0.10352-1.1155 0.10352-1.8359v-3.8984-2.8984c0-0.72043-0.014-1.3021-0.10352-1.8359-0.0895-0.53385-0.27666-1.0689-0.68359-1.4766s-0.9412-0.59578-1.4746-0.68554c-0.5334-0.08977-1.1149-0.10352-1.834-0.10352z" color="#000000" color-rendering="auto" dominant-baseline="auto" image-rendering="auto" opacity=".1" shape-rendering="auto" solid-color="#000000" style="font-feature-settings:normal;font-variant-alternates:normal;font-variant-caps:normal;font-variant-ligatures:normal;font-variant-numeric:normal;font-variant-position:normal;isolation:auto;mix-blend-mode:normal;shape-padding:0;text-decoration-color:#000000;text-decoration-line:none;text-decoration-style:solid;text-indent:0;text-orientation:mixed;text-transform:none;white-space:normal"/>
 <path d="m5.0965 1c-2.8077 0-3.1098 0.28839-3.096 3.1018v3.8982 3.8982c-0.0138 2.8134 0.28834 3.1018 3.096 3.1018h5.8075c2.8077 0 3.096-0.28835 3.096-3.1018v-3.8982-3.8982c0-2.8134-0.28835-3.1018-3.096-3.1018z" color="#000000" fill="none" opacity=".2" stroke="#000" stroke-width="2"/>
 <path d="m5.0965 1c-2.8077 0-3.1098 0.28839-3.096 3.1018v3.8982 3.8982c-0.0138 2.8134 0.28834 3.1018 3.096 3.1018h5.8075c2.8077 0 3.096-0.28835 3.096-3.1018v-3.8982-3.8982c0-2.8134-0.28835-3.1018-3.096-3.1018z" color="#000000" fill="url(#linearGradient920)"/>
 <path d="m9.374 0.99999c0.50288 1.9811-1.7738 2.5795-2.5955 3.8133-0.55956 0.84064 0.27466 1.744 1.412 2.77-0.44351-1.0026-1.9476-1.8796 4.4e-4 -3.4184 2.4294-1.9176 1.1828-3.1649 1.1828-3.1649z" clip-rule="evenodd" enable-background="new" fill="#dd4f37" fill-rule="evenodd" stroke-width="3.8358"/>
 <path d="m10.877 3.4511c3e-5 0-4.108 1.0257-2.1461 3.2865 0.57916 0.6667-0.15193 1.2662-0.15193 1.2662s1.4697-0.75855 0.79489-1.709c-0.63052-0.8859-1.1138-1.326 1.5031-2.8437z" clip-rule="evenodd" enable-background="new" fill="#dd4f37" fill-rule="evenodd" stroke-width="3.8358"/>
 <path d="m11.605 7.4894c-0.14434 4.3e-4 -0.2976 0.0256-0.45483 0.0808-0.12606 0.0447-0.19221 0.14837-0.19221 0.14837s0.0797-0.032 0.2574-0.0692c0.72665-0.15141 1.7678 0.97278-0.48372 2.1424-0.0104 0.0279-0.045 0.0591-0.045 0.0591 2.6777-0.70391 2.0937-2.3637 0.91836-2.3615z" clip-rule="evenodd" enable-background="new" fill="#73a1fb" fill-rule="evenodd" stroke-width="3.8358"/>
 <path d="m6.7803 7.6035c-0.17637-5e-3 -0.93886 7e-3 -1.85 0.44803-1.2318 0.59563 3.0465 0.86698 5.2615 0.28438 0.23029-0.15715 0.54838-0.29359 0.54838-0.29359s-0.90595 0.16197-1.8087 0.23773c-1.1049 0.0927-2.2901 0.11099-2.885 0.0314-1.4086-0.18832 0.77217-0.70636 0.77217-0.70636s-0.0132-1e-3 -0.0384-1e-3z" clip-rule="evenodd" enable-background="new" fill="#73a1fb" fill-rule="evenodd" stroke-width="3.8358"/>
 <path d="m6.3109 8.9664c-2.032 0.67441 1.1312 1.4398 3.9712 0.60907-0.30174-0.10637-0.49334-0.30103-0.49334-0.30103-1.3886 0.26723-2.1906 0.2587-3.2065 0.15382-0.78543-0.0812-0.27131-0.46186-0.27131-0.46186z" clip-rule="evenodd" enable-background="new" fill="#73a1fb" fill-rule="evenodd" stroke-width="3.8358"/>
 <path d="m6.5981 10.28c-1.8451 0.51555 1.1226 1.5804 3.4719 0.57392-0.38477-0.14954-0.66075-0.32217-0.66075-0.32217-1.0476 0.19804-1.5336 0.21364-2.4846 0.10505-0.78483-0.09-0.32655-0.3568-0.32655-0.3568z" clip-rule="evenodd" enable-background="new" fill="#73a1fb" fill-rule="evenodd" stroke-width="3.8358"/>
 <path d="m5.3166 11.151c-0.82858 0.0256-2.449 0.77057-0.96712 1.0111 4.7896 0.77635 8.7307-0.34968 7.4885-0.9102 0 0 0.33932 0.27977-0.37364 0.49607-1.3557 0.41064-5.6437 0.53449-6.8347 0.0164-0.42783-0.18635 0.37482-0.44465 0.62738-0.49919 0.26332-0.057 0.41371-0.0466 0.41371-0.0466-0.0744-0.0524-0.20074-0.0723-0.35418-0.0676z" clip-rule="evenodd" enable-background="new" fill="#73a1fb" fill-rule="evenodd" stroke-width="3.8358"/>
 <path d="m12.598 11.863s-0.15097 0.38763-1.7859 0.69519c-1.8444 0.34724-4.1198 0.30675-5.4688 0.084 0 0 0.27631 0.22876 1.6964 0.32016 2.1607 0.13814 5.4797-0.0768 5.5582-1.0994z" clip-rule="evenodd" enable-background="new" fill="#73a1fb" fill-rule="evenodd" stroke-width="3.8358"/>
 <path d="m 8,1 v 14 h 2.9043 C 13.712,15 14,14.71185 14,11.89844 V 8 4.10156 C 14,1.28816 13.71199,1 10.9043,1 Z" color="#000000" fill="#fff" opacity=".2"/>
 <path d="m 2,8 v 3.89844 C 1.9862,14.71181 2.28801,15 5.0957,15 h 5.8086 C 13.712,15 14,14.71185 14,11.89844 V 8 Z" color="#000000" fill="#fff" opacity=".2"/>
 <path transform="translate(-320,-236)" d="m325.1 237c-2.8077 0-3.1098 0.28839-3.096 3.1018v3.8982 3.8982c-0.0138 2.8134 0.28834 3.1018 3.096 3.1018h5.8075c2.8077 0 3.096-0.28835 3.096-3.1018v-3.8982-3.8982c0-2.8134-0.28835-3.1018-3.096-3.1018z" clip-path="url(#clipPath983)" color="#000000" fill="none" opacity=".4" stroke="url(#linearGradient993)" stroke-width="2"/>
</svg>
