<svg width="16" height="16" version="1" xmlns="http://www.w3.org/2000/svg" xmlns:xlink="http://www.w3.org/1999/xlink">
 <defs>
  <linearGradient id="linearGradient1205" x1="334" x2="321" y1="244" y2="244" gradientUnits="userSpaceOnUse">
   <stop stop-color="#fff" offset="0"/>
   <stop stop-color="#fff" stop-opacity=".098039" offset=".125"/>
   <stop stop-color="#fff" stop-opacity=".098039" offset=".925"/>
   <stop stop-color="#fff" stop-opacity=".49804" offset="1"/>
  </linearGradient>
  <clipPath id="clipPath1193">
   <path d="m324 239c-1.2585 0.0147-2.0872 0.0598-2.4531 0.26172-0.18343 0.10119-0.28912 0.21275-0.38672 0.47266-0.09756 0.2599-0.16016 0.67322-0.16016 1.2656v5c0 0.5924 0.0626 1.0057 0.16016 1.2656 0.0976 0.25992 0.20329 0.37146 0.38672 0.47266 0.36594 0.20192 1.1946 0.24702 2.4531 0.26172h6e-3 6.994c1.2585-0.0147 2.0872-0.0598 2.4531-0.26172 0.18343-0.10119 0.28912-0.21275 0.38672-0.47266 0.09756-0.2599 0.16016-0.67322 0.16016-1.2656v-5c0-0.5924-0.0627-1.0057-0.16016-1.2656-0.0976-0.25992-0.20329-0.37146-0.38672-0.47266-0.36594-0.20192-1.1946-0.24702-2.4531-0.26172z" color="#000000" fill="url(#linearGradient1197)"/>
  </clipPath>
  <linearGradient id="linearGradient13865-3" x1="326" x2="330" y1="239" y2="248" gradientTransform="translate(-320 -236)" gradientUnits="userSpaceOnUse">
   <stop stop-color="#9a9a9a" offset="0"/>
   <stop stop-color="#c5c5c5" offset="1"/>
  </linearGradient>
 </defs>
 <path d="m5.7273 1.0001c-0.59781 0-1.0714 0.0599-1.4701 0.22461-0.39879 0.16467-0.71852 0.46151-0.9073 0.83789-0.37757 0.75276-0.33658 1.6734-0.34978 2.9316v2e-3 7.0059 4e-3c0.0132 1.2582-0.0278 2.1789 0.34978 2.9316 0.18878 0.37638 0.50851 0.67322 0.9073 0.83789 0.39878 0.16453 0.87233 0.22447 1.4701 0.22447h4.5454c0.59783 0 1.0714-0.0599 1.4702-0.22461 0.39878-0.16466 0.71851-0.46151 0.90729-0.83789 0.37757-0.75275 0.33658-1.6734 0.34978-2.9316v-4e-3 -7.0059-2e-3c-0.0132-1.2582 0.0278-2.1789-0.34978-2.9316-0.18878-0.37638-0.50851-0.67322-0.90729-0.83789-0.39879-0.16453-0.87232-0.22447-1.4702-0.22447z" color="#000000" color-rendering="auto" dominant-baseline="auto" image-rendering="auto" opacity=".2" shape-rendering="auto" solid-color="#000000" style="font-feature-settings:normal;font-variant-alternates:normal;font-variant-caps:normal;font-variant-ligatures:normal;font-variant-numeric:normal;font-variant-position:normal;isolation:auto;mix-blend-mode:normal;shape-padding:0;text-decoration-color:#000000;text-decoration-line:none;text-decoration-style:solid;text-indent:0;text-orientation:mixed;text-transform:none;white-space:normal"/>
 <path d="m10.273 0.50001c2.2727 0 2.2462 0.97828 2.2727 3.5v6.9999c-0.0265 2.5218 0 3.5-2.2727 3.5h-4.5455c-2.2727 0-2.2462-0.97827-2.2727-3.5v-6.9999c0.0265-2.5218 0-3.5 2.2727-3.5z" color="#000000" fill="#4d4d4d"/>
 <path d="m10.273 0.50001c2.2727 0 2.2462 0.97828 2.2727 3.5v6.9999c-0.0265 2.5218 0 3.5-2.2727 3.5h-4.5455c-2.2727 0-2.2462-0.97827-2.2727-3.5v-6.9999c0.0265-2.5218 0-3.5 2.2727-3.5z" color="#000000" fill="none" opacity=".3" stroke="#000"/>
 <path transform="matrix(0 -1 .90907 0 -213.36 335)" d="m324 239c-1.2585 0.0147-2.0872 0.0598-2.4531 0.26172-0.18343 0.10119-0.28912 0.21275-0.38672 0.47266-0.09756 0.2599-0.16016 0.67322-0.16016 1.2656v5c0 0.5924 0.0626 1.0057 0.16016 1.2656 0.0976 0.25992 0.20329 0.37146 0.38672 0.47266 0.36594 0.20192 1.1946 0.24702 2.4531 0.26172h6e-3 6.994c1.2585-0.0147 2.0872-0.0598 2.4531-0.26172 0.18343-0.10119 0.28912-0.21275 0.38672-0.47266 0.09756-0.2599 0.16016-0.67322 0.16016-1.2656v-5c0-0.5924-0.0627-1.0057-0.16016-1.2656-0.0976-0.25992-0.20329-0.37146-0.38672-0.47266-0.36594-0.20192-1.1946-0.24702-2.4531-0.26172z" clip-path="url(#clipPath1193)" color="#000000" fill="none" opacity=".3" stroke="url(#linearGradient1205)" stroke-width="2.0976"/>
 <rect x="7" y="2.0001" width="2" height="1" rx=".5" ry=".5" enable-background="new" opacity=".3"/>
 <rect x="5" y="3.0001" width="6" height="9" enable-background="new" fill="url(#linearGradient13865-3)"/>
 <path d="m7.273 3.0001-2.273 4.545v4.0459c0 0.22664 0.18245 0.40909 0.40909 0.40909h0.51991l4.5-9z" enable-background="new" fill="#fff" opacity=".1"/>
 <path d="m5 3.0001v4.5449l2.2734-4.5449z" enable-background="new" fill="#fff" opacity=".2"/>
 <path d="m15 11.592v0.4082h0.4082c-0.22664 0-0.4082-0.18156-0.4082-0.4082z" enable-background="new" fill="#fff" opacity=".4"/>
 <path d="m8.3697 4.5666-1.104 0.19234v3.8025l1.0983-0.14158-6e-3 -1.7139 1.2956 1.8969 1.2727-0.18304-1.4644-1.9634 1.4694-1.6474-1.2885-0.23738-1.2849 1.6474zm-2.3217 0.97099c-0.0106 7.2e-4 -0.0205 6e-3 -0.0286 0.0136l-0.37897 0.38325c-0.0165 0.0165-0.0192 0.0424-7e-3 0.0622l0.45763 0.70286c-0.0863 0.15321-0.15157 0.32119-0.19378 0.49694l-0.79009 0.19377c-0.022 6e-3 -0.0386 0.0252-0.0386 0.0479v0.49909c0 0.0227 0.0167 0.0426 0.0387 0.0479l0.7901 0.19377c0.0422 0.17576 0.10744 0.34374 0.19377 0.49694l-0.45761 0.70286c-0.0128 0.0198-0.0101 0.0456 7e-3 0.0623l0.37895 0.38324c0.016 0.0161 0.0408 0.0175 0.06 6e-3l0.71716-0.43972c0.1407 0.082 0.3608 0.14791 0.52125 0.19162l0.16804 0.81155c5e-3 0.0233 0.0233 0.04 0.0465 0.04h0.56486c0.0232 0 0.0418-0.0166 0.0465-0.04l0.16803-0.81155c0.16047-0.0437 0.38056-0.10966 0.52126-0.19162l0.71715 0.43973c0.0193 0.0117 0.044 0.0104 0.06-6e-3l0.37895-0.38326c0.0165-0.0166 0.0192-0.0424 7e-3 -0.0623l-0.38109-0.58561-0.0472 7e-3 -0.26741-0.39185c-0.27312 0.57256-0.85074 0.93743-1.4851 0.93812-0.90984 0-1.6474-0.73758-1.6474-1.6474 4.1e-4 -0.62533 0.35506-1.1964 0.91522-1.4744v-0.35965c-0.10442 0.0349-0.20702 0.0741-0.286 0.12013l-0.71717-0.43975c-0.01-6e-3 -0.0208-9e-3 -0.0315-8e-3z" enable-background="new" fill="#fff"/>
</svg>
