<svg width="16" height="16" version="1" xmlns="http://www.w3.org/2000/svg">
 <defs>
  <linearGradient id="linearGradient8588-0-1-5" x1="13.735" x2="38.1" y1="249.69" y2="292.77" gradientTransform="matrix(.31496 0 0 .31496 .16669 -77.71)" gradientUnits="userSpaceOnUse">
   <stop stop-color="#325fd1" offset="0"/>
   <stop stop-color="#6e98ff" offset="1"/>
  </linearGradient>
  <clipPath id="clipPath1225-9">
   <path d="m330.31 236.5c4.5406 0 5.1895 0.64729 5.1895 5.1836v3.6328c0 4.5363-0.64891 5.1836-5.1895 5.1836h-4.6211c-4.5405 0-5.1894-0.6473-5.1894-5.1836v-3.6328c0-4.5363 0.64892-5.1836 5.1895-5.1836z" fill="#325fd1"/>
  </clipPath>
  <linearGradient id="linearGradient8590-3-3-4" x1="96" x2="96" y1="4" y2="188" gradientTransform="matrix(.076087 0 0 .076087 .69566 .69567)" gradientUnits="userSpaceOnUse">
   <stop stop-color="#fff" offset="0"/>
   <stop stop-color="#fff" stop-opacity=".098039" offset=".125"/>
   <stop stop-color="#fff" stop-opacity=".098039" offset=".925"/>
   <stop stop-color="#fff" stop-opacity=".49804" offset="1"/>
  </linearGradient>
 </defs>
 <ellipse transform="scale(-1)" cx="-8" cy="-8.5" rx="7" ry="6.5" enable-background="new" opacity=".1"/>
 <circle cx="8" cy="8" r="7.5" enable-background="new" fill="url(#linearGradient8588-0-1-5)"/>
 <path transform="matrix(1.077 0 0 1.077 -345.27 -254.74)" d="m326.71 237.65-0.78906 0.90039 0.67578 0.67383v0.70508l0.78711 0.87109h0.45117v-0.45117l0.67383-0.67383v-0.45117l0.45117-0.44922v-0.67578l-0.45117-0.44922zm-1.5762 0.52149a6.5 6.5 0 0 0-0.98438 0.60351h0.98438zm-1.4629 1.0527v0.67578h-0.5625l-0.0801-0.0801a6.5 6.5 0 0 0-1.5078 3.8906l0.68946 0.68945h0.67383l1.125 1.125v-1.3496l0.6758-0.67576h0.44922l0.67578-0.67578h0.67383l-0.33594-0.33594 0.67383-0.78906-0.67383-0.67383h-1.0137v0.90039h-0.44922l-0.45117-0.45117v-0.44922l0.67578-0.67578h0.5625v-0.44922l-0.67578-0.67578zm7.7637 0.45117-0.67578 0.67383v0.5625h0.67578v-0.33789h0.44922v0.45117l-0.22461 0.22461-0.90039 0.0156-0.33789 0.32227h-0.44922v0.44922l-0.33789 0.33789v0.67578h0.67578l0.44922-0.45117h0.45117v0.22461l0.44922 0.45117h0.22461v-0.22461l-0.44922-0.45117h0.44922l0.45117 0.45117h0.5625l-0.33789-0.33789 0.33789-0.33789h0.33594l0.33789 0.33789h-0.33789l-0.33594 0.33789 0.33008 0.33008 8e-3 0.34375h-0.45117l1.3496 1.3496h0.22656l0.0566-0.0566a6.5 6.5 0 0 0 0.08774-1.0176 6.5 6.5 0 0 0-1.3359-3.9394l-0.38476-0.38477zm1.3496 4.0488h-1.3496l-0.22461-0.22461h-1.3516l-0.78711 0.78711v1.125l0.5625 0.5625h0.78711l0.33789 0.33789v0.33789l0.22461 0.22461v1.3496l0.85546 0.9043 1.4102-1.4121-0.0156-1.291 1.125-1.125h-0.44922l-1.125-1.125zm-4.3867-3.1504v0.33789h0.67383l-0.33789-0.33789zm2.0234 0.11328-0.33594 0.33789v0.33789h0.33594zm-3.4863 1.2383-0.33789 0.33594h0.33789l0.11133 0.11328h0.11328l0.11328-0.11328zm-1.9121 2.3613-0.33789 0.33789h0.67383v-0.33789zm-0.33789 1.0137-0.45117 0.44922v1.125l0.90429 0.79102-4e-3 1.0098-0.33789 0.33594v0.63672a6.5 6.5 0 0 0 0.64257 0.32031l1.1582-1.0684v-0.45117l0.67578-0.67383v-0.33789l0.33594-0.33789v-0.90039l-0.44912-0.44922h-0.90039l-0.44922-0.44922zm8.9551 1.9297-0.0684 0.0644v0.0469a6.5 6.5 0 0 0 0.0684-0.11133z" clip-path="url(#clipPath1225-9)" color="#000000" fill="#fff" opacity=".18"/>
 <circle cx="8" cy="8" r="7.5" enable-background="new" fill="none" opacity=".4" stroke="#000" stroke-dashoffset="6.6" stroke-linejoin="round"/>
 <path d="m8 1c-3.866 0-7 3.134-7 7s3.134 7 7 7 7-3.134 7-7-3.134-7-7-7zm0 1a6 6 0 0 1 6 6 6 6 0 0 1-6 6 6 6 0 0 1-6-6 6 6 0 0 1 6-6z" enable-background="new" fill="url(#linearGradient8590-3-3-4)"/>
</svg>
