<svg width="16" height="16" version="1" xmlns="http://www.w3.org/2000/svg" xmlns:xlink="http://www.w3.org/1999/xlink">
 <defs>
  <linearGradient id="linearGradient1692" x1="320" x2="336" y1="247" y2="241" gradientTransform="rotate(90 286 -34)" gradientUnits="userSpaceOnUse">
   <stop stop-color="#4d4d4d" offset="0"/>
   <stop stop-color="#4d4d4d" offset="1"/>
  </linearGradient>
  <filter id="filter194" x="-.020441" y="-.020359" width="1.0409" height="1.0407" color-interpolation-filters="sRGB">
   <feFlood flood-color="rgb(0,0,0)" flood-opacity=".49804" result="flood"/>
   <feComposite in="flood" in2="SourceGraphic" operator="in" result="composite1"/>
   <feGaussianBlur in="composite1" result="blur" stdDeviation="1.0220649"/>
   <feOffset dx="0" dy="2" result="offset"/>
   <feComposite in="SourceGraphic" in2="offset" result="composite2"/>
  </filter>
  <linearGradient id="linearGradient1316" x1="61.291" x2="77.655" y1="17.635" y2="17.635" gradientTransform="matrix(10.36 0 0 30.782 -430.01 -3972.9)" gradientUnits="userSpaceOnUse">
   <stop stop-color="#fff" offset="0"/>
   <stop stop-color="#EDEDED" offset="1"/>
  </linearGradient>
  <linearGradient id="linearGradient1318" x1="48.484" x2="77.873" y1="17.635" y2="17.635" gradientTransform="matrix(10.36 0 0 30.782 -430.01 -3972.9)" gradientUnits="userSpaceOnUse">
   <stop stop-color="#828282" offset="0"/>
   <stop stop-color="#353535" offset="1"/>
  </linearGradient>
  <linearGradient id="linearGradient1692-6" x1="321" x2="335" y1="244" y2="244" gradientTransform="rotate(90 286 -34)" gradientUnits="userSpaceOnUse">
   <stop stop-color="#fff" offset="0"/>
   <stop stop-color="#fff" stop-opacity=".098039" offset=".125"/>
   <stop stop-color="#fff" stop-opacity=".098039" offset=".925"/>
   <stop stop-color="#fff" stop-opacity=".49804" offset="1"/>
  </linearGradient>
 </defs>
 <path d="m4.1286 1c-3.7436 0-4.1464 0.30899-4.128 3.3233v4.1767 4.1767c-0.0183 3.0143 0.38446 3.3233 4.128 3.3233h7.7433c3.7436 0 4.128-0.30895 4.128-3.3233v-4.1767-4.1767c0-3.0144-0.38446-3.3233-4.128-3.3233z" color="#000000" opacity=".1"/>
 <path d="m4.4056 0.50001c-3.476 0-3.8501 0.30899-3.833 3.3233v4.1767 4.1767c-0.017 3.0143 0.35698 3.3233 3.833 3.3233h7.19c3.476 0 3.833-0.30895 3.833-3.3233v-4.1767-4.1767c0-3.0144-0.35699-3.3233-3.833-3.3233z" color="#000000" fill="url(#linearGradient1692)"/>
 <g transform="matrix(.055999 0 0 .055999 -.51132 -.73578)" enable-background="new" stroke-width="17.858">
  <rect transform="rotate(90 .00013615 -.00016912)" x="96.353" y="-211.89" width="119.89" height="119.89" color="#000000" enable-background="accumulate" fill="none" filter="url(#filter194)"/>
  <path d="m113.12 238.11c-5.689 8.9661-18.509 11.835-27.478 6.1443-8.9685-5.6906-11.833-18.511-6.1443-27.477 5.689-8.9661 18.509-11.835 27.477-6.1444 8.9687 5.6906 11.833 18.511 6.1445 27.478z" fill="#f1a443" stroke-width="67.496"/>
  <path d="m89.353 164.09c-5.689 8.9661-18.512 11.833-27.477 6.1444-8.966-5.689-11.833-18.512-6.1445-27.478 5.6888-8.9659 18.512-11.833 27.478-6.1444 8.9659 5.6889 11.833 18.512 6.1443 27.478z" fill="#3f90dc" stroke-width="67.496"/>
  <path d="m126.69 105.25c-5.689 8.9661-18.512 11.833-27.477 6.1444-8.966-5.689-11.833-18.512-6.1445-27.478 5.6889-8.9659 18.512-11.833 27.478-6.1444 8.9658 5.6889 11.833 18.512 6.1443 27.478z" fill="#56a913" stroke-width="67.496"/>
  <path d="m203.79 95.219c-5.689 8.9661-18.512 11.833-27.478 6.1444-8.9658-5.6888-11.833-18.512-6.1443-27.477 5.6889-8.9659 18.512-11.833 27.477-6.1444 8.9658 5.6888 11.833 18.512 6.1444 27.478z" fill="#f35b5b" stroke-width="67.496"/>
  <path d="m178.56 169.95c-8.6081-0.72188-21.535 5.1631-27.86 16.522-11.205 20.122-2.3977 50.61-26.605 45.292 31.997 24.486 75.816-12.064 76.137-35.383 0.0695-5.0445-1.0031-9.258-2.7672-12.74z" fill="#1b90ff" fill-rule="evenodd" stroke-width="67.496"/>
  <path d="m128.53 234.73c31.458 18.211 71.39-16.099 71.697-38.356 0.0695-5.0445-1.0031-9.258-2.7672-12.74l-18.299-13.252c-4.8609 2.7949-9.3972 6.668-12.879 11.62-16.326 23.219-9.4584 61.721-38.443 52.085 0.22952 0.21699 0.46003 0.43109 0.69126 0.64282z" fill="#a197ff" fill-rule="evenodd" stroke-width="67.496"/>
  <path d="m142.11 239.47c28.283 4.1023 57.854-23.953 58.117-43.094 0.0695-5.0445-1.0031-9.258-2.7672-12.74l-18.16-13.151c-3.9118 3.3978-7.3493 7.671-9.7132 12.715-11.642 24.841 1.3562 60.335-27.849 56.027 0.12389 0.0815 0.24766 0.16261 0.37158 0.24297z" fill="#dd61fa" fill-rule="evenodd" stroke-width="67.496"/>
  <path d="m176.76 230.27c13.589-9.0956 23.317-22.95 23.467-33.892 0.0695-5.0445-1.0031-9.258-2.7672-12.74l-18.031-13.058c-1.9796 3.402-3.4762 7.2227-4.209 11.332-3.1988 17.937 6.4943 37.774 1.5394 48.358z" fill="#fa6196" fill-rule="evenodd" stroke-width="67.496"/>
  <path d="m197.46 207.24c1.7395-3.7497 2.7197-7.4489 2.7668-10.864 0.0695-5.0445-1.0031-9.258-2.7672-12.74l-17.122-12.4c0.12524 0.93163 0.30063 1.8646 0.53052 2.7943 3.3077 13.377 15.707 24.213 16.592 33.209z" fill="#f1a443" fill-rule="evenodd" stroke-width="67.496"/>
  <g transform="matrix(10.409 7.8185 -7.8185 10.409 1931.9 -2374.3)" stroke-width="17.858">
   <path d="m10.2 231.51h1.0829v3.8806h-1.0829zm-0.21415 4.2265 1.3657-4e-3c0.15807-4.7e-4 0.29716 0.10426 0.34038 0.2563l0.24753 0.87061c0.05328 0.18741-0.05545 0.38253-0.24285 0.43581-0.03138 9e-3 -0.06385 0.0135-0.09648 0.0135h-1.8395c-0.19483 0-0.35278-0.15795-0.35278-0.35278 0-0.0301 0.00385-0.06 0.011448-0.0891l0.2263-0.86671c0.040458-0.15491 0.18017-0.26316 0.34028-0.26363zm0.21415-4.5793v-1.0583c0-0.19483 0.15794-0.35278 0.35278-0.35278h0.37739c0.19483 0 0.35278 0.15795 0.35278 0.35278v1.0583z" fill="url(#linearGradient1316)"/>
   <path d="m10.2 231.51h1.0829v3.8806h-1.0829zm-0.21415 4.2265 1.3657-4e-3c0.15807-4.7e-4 0.29716 0.10426 0.34038 0.2563l0.24753 0.87061c0.05328 0.18741-0.05545 0.38253-0.24285 0.43581-0.03138 9e-3 -0.06385 0.0135-0.09648 0.0135h-1.8395c-0.19483 0-0.35278-0.15795-0.35278-0.35278 0-0.0301 0.00385-0.06 0.011448-0.0891l0.2263-0.86671c0.040458-0.15491 0.18017-0.26316 0.34028-0.26363zm0.21415-4.5793v-1.0583c0-0.19483 0.15794-0.35278 0.35278-0.35278h0.37739c0.19483 0 0.35278 0.15795 0.35278 0.35278v1.0583z" fill="url(#linearGradient1318)"/>
  </g>
 </g>
 <path d="m11.555 15.5c3.337 0 3.9622-0.30212 3.9447-3.2495v-4.2505-4.2506c0.0175-2.9473-0.60763-3.2494-3.9447-3.2494h-7.1102c-3.3362 0-3.9447 0.30208-3.9447 3.2494v4.2506 4.2505c0 2.9474 0.60847 3.2495 3.9447 3.2495z" color="#000000" fill="none" opacity=".4" stroke="#000"/>
 <path d="m4.4453 1c-1.653 0-2.546 0.12548-2.916 0.41406-0.18499 0.14429-0.30479 0.33122-0.39649 0.70313-0.09171 0.37191-0.13281 0.91317-0.13281 1.6328v4.25 4.25c0 0.71964 0.0411 1.2608 0.13281 1.6328 0.0917 0.37191 0.2115 0.55884 0.39649 0.70313 0.36997 0.28858 1.263 0.41406 2.916 0.41406h7.1094c1.6534 0 2.552-0.12511 2.9238-0.41406 0.18589-0.14448 0.30578-0.33208 0.39648-0.70313s0.129-0.90979 0.125-1.6289v-2e-3 -4.2519-4.252-2e-3c4e-3 -0.71911-0.0343-1.2578-0.125-1.6289s-0.21059-0.55865-0.39648-0.70313c-0.37179-0.2889-1.2704-0.41402-2.9238-0.41402zm5.3281 1.0469c1.1077-3.4e-4 2.2136 8e-3 3.3203 0.0449 0.26616 0.0599 0.75737-0.0208 0.79297 0.3457 0.13405 1.8444 0.0662 3.6877 0.10156 5.5391-0.0126 1.8674 0.0543 3.6703-0.10351 5.498 0.0642 0.42314-0.43946 0.35577-0.70313 0.42187-3.4328 0.0703-6.8758 0.0589-10.299 2e-3 -0.22288-0.0398-0.55622-3.2e-4 -0.71093-0.1875-0.19863-1.13-0.12696-2.2695-0.16016-3.4199 0.0138-2.5565-0.029-5.1073 0.0898-7.6562-0.03-0.2727 0.10944-0.49629 0.40039-0.48829 1.3066-0.161 2.6326-0.0636 3.9473-0.0976 1.1072 6e-3 2.2166-2e-3 3.3242-2e-3z" color="#000000" fill="url(#linearGradient1692-6)"/>
</svg>
