<svg width="16" height="16" version="1" xmlns="http://www.w3.org/2000/svg" xmlns:xlink="http://www.w3.org/1999/xlink">
 <defs>
  <linearGradient id="linearGradient1692" x1="320" x2="336" y1="252" y2="252" gradientTransform="rotate(90 286 -34)" gradientUnits="userSpaceOnUse">
   <stop stop-color="#2b898f" offset="0"/>
   <stop stop-color="#5bdbc1" offset="1"/>
  </linearGradient>
  <linearGradient id="linearGradient1692-6" x1="321" x2="335" y1="244" y2="244" gradientTransform="rotate(90 286 -34)" gradientUnits="userSpaceOnUse">
   <stop stop-color="#fff" offset="0"/>
   <stop stop-color="#fff" stop-opacity=".098039" offset=".125"/>
   <stop stop-color="#fff" stop-opacity=".098039" offset=".925"/>
   <stop stop-color="#fff" stop-opacity=".49804" offset="1"/>
  </linearGradient>
 </defs>
 <path d="m4.1286 1c-3.7436 0-4.1464 0.30899-4.128 3.3233v4.1767 4.1767c-0.0183 3.0143 0.38446 3.3233 4.128 3.3233h7.7433c3.7436 0 4.128-0.30895 4.128-3.3233v-4.1767-4.1767c0-3.0144-0.38446-3.3233-4.128-3.3233z" color="#000000" opacity=".1"/>
 <path d="m4.4056 0.50001c-3.476 0-3.8501 0.30899-3.833 3.3233v4.1767 4.1767c-0.017 3.0143 0.35698 3.3233 3.833 3.3233h7.19c3.476 0 3.833-0.30895 3.833-3.3233v-4.1767-4.1767c0-3.0144-0.35699-3.3233-3.833-3.3233z" color="#000000" fill="url(#linearGradient1692)"/>
 <path d="m0.50042 6.9997 5.2e-4 5.8889c-0.0116 2.3683 0.24274 2.6111 2.6063 2.6111h9.7869c2.3635 0 2.6065-0.24278 2.6063-2.6111l-5.2e-4 -5.8889s-2.4872 0.53569-3.7499 0.53569c-2.5253 1e-5 -4.9744-1.0714-7.4997-1.0714-1.2626 0-3.7499 0.53569-3.7499 0.5357z" color="#000000" fill="#81e9c0" opacity=".2"/>
 <rect x="7.5004" y="13" width="1" height="1" rx=".25" ry=".5" enable-background="new" fill="#313131"/>
 <rect x="7.5004" y="14" width="1" height="1" rx=".25" ry=".5" enable-background="new" fill="#313131"/>
 <path d="m8.0198 2.8973v2e-3c-0.36265-4e-3 -0.48936 7e-3 -0.54037 0.44591l-0.0198 0.15596c-0.0448 0.28439-0.0539 0.41356-0.32291 0.48325-0.018 5e-3 -0.0347 7e-3 -0.0527 0.0112-5e-3 8.8e-4 -9e-3 2e-3 -0.0132 2e-3v2e-3c-0.0679 0.0164-0.13332 0.0331-0.19989 0.0528-0.0112 3e-3 -0.0224 8e-3 -0.033 0.0112-0.0101 3e-3 -0.0184 6e-3 -0.0286 9e-3 -0.0278 8e-3 -0.0464 5e-3 -0.0703 9e-3a4.0591 4.0591 0 0 0-1.3861 0.78199c-0.0289 0.0431-0.0663 0.0871-0.1252 0.13839l7e-3 -2e-3c-0.0531 0.0503-0.1056 0.1029-0.15595 0.15595l2e-3 -7e-3c-0.2244 0.25691-0.33675 0.19921-0.62604 0.0878l-0.14498-0.0615c-0.12663-0.0548-0.22118-0.0811-0.29654-0.0834-0.16578-6e-3 -0.23797 0.10988-0.36024 0.32729-0.18481 0.31205-0.23782 0.42852 0.11642 0.69194l0.12521 0.0945c0.22476 0.18166 0.33285 0.2546 0.257 0.52499-3e-3 0.0101-6e-3 0.0186-9e-3 0.0286-3e-3 9e-3 -8e-3 0.0225-0.0113 0.0329-0.0196 0.0659-0.0365 0.13264-0.0528 0.19989h-2e-3c-8.5e-4 5e-3 -2e-3 9e-3 -2e-3 0.0132-4e-3 0.018-7e-3 0.0348-0.0112 0.0527-0.0124 0.0476-0.0296 0.0791-0.0461 0.11202a4.0591 4.0591 0 0 0-0.0813 0.76442 4.0591 4.0591 0 0 0 0.0791 0.77101c0.0178 0.034 0.0353 0.0684 0.0484 0.11862 5e-3 0.018 7e-3 0.0348 0.0112 0.0528 8.8e-4 4e-3 2e-3 9e-3 2e-3 0.0132h2e-3c0.0164 0.0679 0.0331 0.13332 0.0528 0.19988 3e-3 0.0112 6e-3 0.0224 9e-3 0.033 3e-3 0.0101 8e-3 0.0184 0.0112 0.0286 0.0758 0.27038-0.0323 0.34335-0.257 0.525l-0.12521 0.0945c-0.35425 0.26343-0.30123 0.37989-0.11642 0.69194 0.17784 0.31607 0.25153 0.41889 0.65678 0.24381l0.14498-0.0615c0.4543 0.0462 0.61056 0.0719 0.68315 0.18012l7e-3 -5e-3a4.0591 4.0591 0 0 0 1.6628 0.98846 4.0591 4.0591 0 0 0 2e-3 0c9e-3 3e-3 0.0191 6e-3 0.0286 9e-3 0.0101 3e-3 0.0196 8e-3 0.0307 0.0112v-2e-3c0.0666 0.0198 0.13416 0.0386 0.20209 0.0549 5e-3 8.6e-4 7e-3 2e-3 0.0113 2e-3 0.0179 5e-3 0.0369 9e-3 0.0549 0.0132 0.26908 0.0697 0.27815 0.19886 0.3229 0.48326l0.0198 0.15375c0.0509 0.43849 0.17772 0.45215 0.54036 0.44811 0.36265 4e-3 0.48936-9e-3 0.54037-0.44811l0.0198-0.15375c0.0448-0.2844 0.0516-0.41356 0.3207-0.48326 0.018-4e-3 0.0369-9e-3 0.0549-0.0132 3e-3 -7.3e-4 8e-3 -2e-3 0.0112-2e-3h2e-3c0.0312-8e-3 0.0614-0.0181 0.0922-0.0263v-4e-3a4.0591 4.0591 0 0 0 1.8012-1.0456l0.0112 7e-3c0.0289-0.0288 0.0576-0.0561 0.0857-0.0857v7e-3c0.22438-0.25691 0.33674-0.1992 0.62603-0.0878l0.14278 0.0615c0.40524 0.17508 0.48115 0.0701 0.65898-0.24602 0.18481-0.31205 0.23563-0.42851-0.11862-0.69193l-0.123-0.0945c-0.22477-0.18165-0.33286-0.25241-0.25701-0.5228 3e-3 -0.0101 6e-3 -0.0207 9e-3 -0.0307 3e-3 -0.0101 8e-3 -0.0196 0.0112-0.0308h-2e-3c0.012-0.0405 0.0222-0.082 0.033-0.123l-0.0198-0.0112a4.0591 4.0591 0 0 0 0.13619-1.0214 4.0591 4.0591 0 0 0-0.13619-1.0258l0.0154-9e-3c-0.0101-0.0364-0.0179-0.0738-0.0286-0.10988-3e-3 -0.0101-6e-3 -0.021-9e-3 -0.0307-3e-3 -0.0101-6e-3 -0.0207-9e-3 -0.0307-0.0758-0.2704 0.0323-0.34114 0.25701-0.5228l0.123-0.0945c0.35425-0.26343 0.30343-0.3799 0.11862-0.69193-0.12226-0.21731-0.19666-0.33468-0.36244-0.3295-0.0754 2e-3 -0.16989 0.031-0.29654 0.0857l-0.14278 0.0593c-0.45022 0.26503-0.48114-0.0495-0.70511-0.18671l-0.0219 0.0131a4.0591 4.0591 0 0 0-1.7309-1.0192 4.0591 4.0591 0 0 0-0.0659-0.0175c-0.0311-8e-3 -0.0608-0.0188-0.0922-0.0263-4e-3 -8.6e-4 -9e-3 -2e-3 -0.0132-2e-3 -0.0179-5e-3 -0.0346-7e-3 -0.0528-0.0113-0.26906-0.0697-0.27814-0.19886-0.3229-0.48326l-0.0198-0.15595c-0.051-0.4385-0.17772-0.45213-0.54037-0.44811z" color="#000000" fill="#313131"/>
 <path d="m4.2504 6.4374c-1.2626 0-3.75 0.53516-3.75 0.53516v1s2.4873-0.53516 3.75-0.53516c2.5253 0 4.9747 1.0723 7.5 1.0723 1.2626 0 3.75-0.53711 3.75-0.53711v-1s-2.4874 0.53711-3.75 0.53711c-2.5253 0-4.9747-1.0723-7.5-1.0723z" color="#000000" fill="#fff" opacity=".3"/>
 <path d="m0.50042 8.8327 5.2e-4 4.0559c-0.0116 2.3683 0.24274 2.6111 2.6063 2.6111h9.7869c2.3635 0 2.6066-0.24278 2.6063-2.6111l-5.2e-4 -4.0559s-2.4872 0.53569-3.7499 0.53569c-2.5253 0-4.9744-1.0714-7.4997-1.0714-1.2626 0-3.7499 0.53569-3.7499 0.53569z" color="#000000" fill="#81e9c0" opacity=".2"/>
 <path d="m0.50042 10.873 5.2e-4 2.0151c-0.0116 2.3683 0.24274 2.6111 2.6063 2.6111h9.7869c2.3635 0 2.6069-0.24278 2.6063-2.6111l-5.2e-4 -2.0151s-2.4872 0.53569-3.7499 0.53569c-2.5253 0-4.9744-1.0714-7.4997-1.0714-1.2626 0-3.7499 0.53569-3.7499 0.53569z" color="#000000" fill="#81e9c0" opacity=".2"/>
 <path d="m4.2504 10.338c-1.2626 0-3.75 0.53516-3.75 0.53516v1s2.4873-0.53516 3.75-0.53516c2.5253 0 4.9747 1.0723 7.5 1.0723 1.2626 0 3.75-0.53711 3.75-0.53711v-1s-2.4874 0.53711-3.75 0.53711c-2.5253 0-4.9747-1.0723-7.5-1.0723z" color="#000000" fill="#fff" opacity=".3"/>
 <path d="m4.2504 8.3374c-1.2626 0-3.75 0.53516-3.75 0.53516v1s2.4873-0.53516 3.75-0.53516c2.5253 0 4.9747 1.0723 7.5 1.0723 1.2626 0 3.75-0.53711 3.75-0.53711v-1s-2.4874 0.53711-3.75 0.53711c-2.5253 0-4.9747-1.0723-7.5-1.0723z" color="#000000" fill="#fff" opacity=".3"/>
 <path d="m11.555 15.5c3.337 0 3.9622-0.30212 3.9447-3.2495v-4.2505-4.2506c0.0175-2.9473-0.60763-3.2494-3.9447-3.2494h-7.1102c-3.3362 0-3.9447 0.30208-3.9447 3.2494v4.2506 4.2505c0 2.9474 0.60847 3.2495 3.9447 3.2495z" color="#000000" fill="none" opacity=".4" stroke="#000"/>
 <path d="m4.4453 1c-1.653 0-2.546 0.12548-2.916 0.41406-0.18499 0.14429-0.30479 0.33122-0.39649 0.70313-0.09171 0.37191-0.13281 0.91317-0.13281 1.6328v4.25 4.25c0 0.71964 0.0411 1.2608 0.13281 1.6328 0.0917 0.37191 0.2115 0.55884 0.39649 0.70313 0.36997 0.28858 1.263 0.41406 2.916 0.41406h7.1094c1.6534 0 2.552-0.12511 2.9238-0.41406 0.18589-0.14448 0.30578-0.33208 0.39648-0.70313s0.129-0.90979 0.125-1.6289v-2e-3 -4.2519-4.252-2e-3c4e-3 -0.71911-0.0343-1.2578-0.125-1.6289s-0.21059-0.55865-0.39648-0.70313c-0.37179-0.2889-1.2704-0.41402-2.9238-0.41402zm5.3281 1.0469c1.1077-3.4e-4 2.2136 8e-3 3.3203 0.0449 0.26616 0.0599 0.75737-0.0208 0.79297 0.3457 0.13405 1.8444 0.0662 3.6877 0.10156 5.5391-0.0126 1.8674 0.0543 3.6703-0.10351 5.498 0.0642 0.42314-0.43946 0.35577-0.70313 0.42187-3.4328 0.0703-6.8758 0.0589-10.299 2e-3 -0.22288-0.0398-0.55622-3.2e-4 -0.71093-0.1875-0.19863-1.13-0.12696-2.2695-0.16016-3.4199 0.0138-2.5565-0.029-5.1073 0.0898-7.6562-0.03-0.2727 0.10944-0.49629 0.40039-0.48829 1.3066-0.161 2.6326-0.0636 3.9473-0.0976 1.1072 6e-3 2.2166-2e-3 3.3242-2e-3z" color="#000000" fill="url(#linearGradient1692-6)"/>
</svg>
