<svg width="16" height="16" version="1" xmlns="http://www.w3.org/2000/svg" xmlns:xlink="http://www.w3.org/1999/xlink">
 <defs>
  <linearGradient id="linearGradient8588-0-1-5" x1="13.735" x2="38.1" y1="249.69" y2="292.77" gradientTransform="matrix(.31496 0 0 .31496 .16669 -77.71)" gradientUnits="userSpaceOnUse">
   <stop stop-color="#8c59d9" offset="0"/>
   <stop stop-color="#a7a7f1" offset="1"/>
  </linearGradient>
  <clipPath id="clipPath1225-7">
   <path d="m330.31 236.5c4.5406 0 5.1895 0.64729 5.1895 5.1836v3.6328c0 4.5363-0.64891 5.1836-5.1895 5.1836h-4.6211c-4.5405 0-5.1894-0.6473-5.1894-5.1836v-3.6328c0-4.5363 0.64892-5.1836 5.1895-5.1836z" fill="#325fd1"/>
  </clipPath>
  <linearGradient id="linearGradient8590-3-3-4" x1="96" x2="96" y1="4" y2="188" gradientTransform="matrix(.076087 0 0 .076087 .69566 .69567)" gradientUnits="userSpaceOnUse">
   <stop stop-color="#fff" offset="0"/>
   <stop stop-color="#fff" stop-opacity=".098039" offset=".125"/>
   <stop stop-color="#fff" stop-opacity=".098039" offset=".925"/>
   <stop stop-color="#fff" stop-opacity=".49804" offset="1"/>
  </linearGradient>
 </defs>
 <ellipse transform="scale(-1)" cx="-8" cy="-8.5" rx="7" ry="6.5" enable-background="new" opacity=".1"/>
 <circle cx="8" cy="8" r="7.5" enable-background="new" fill="url(#linearGradient8588-0-1-5)"/>
 <path transform="matrix(1.1538 0 0 1.1673 -370.46 -276.92)" d="m326.71 237.65-0.78906 0.90039 0.67578 0.67383v0.70508l0.78711 0.87109h0.45117v-0.45117l0.67383-0.67383v-0.45117l0.45117-0.44922v-0.67578l-0.45117-0.44922zm-1.5762 0.52149a6.5 6.5 0 0 0-0.98438 0.60351h0.98438zm-1.4629 1.0527v0.67578h-0.5625l-0.0801-0.0801a6.5 6.5 0 0 0-1.5078 3.8906l0.68946 0.68945h0.67383l1.125 1.125v-1.3496l0.6758-0.67576h0.44922l0.67578-0.67578h0.67383l-0.33594-0.33594 0.67383-0.78906-0.67383-0.67383h-1.0137v0.90039h-0.44922l-0.45117-0.45117v-0.44922l0.67578-0.67578h0.5625v-0.44922l-0.67578-0.67578zm7.7637 0.45117-0.67578 0.67383v0.5625h0.67578v-0.33789h0.44922v0.45117l-0.22461 0.22461-0.90039 0.0156-0.33789 0.32227h-0.44922v0.44922l-0.33789 0.33789v0.67578h0.67578l0.44922-0.45117h0.45117v0.22461l0.44922 0.45117h0.22461v-0.22461l-0.44922-0.45117h0.44922l0.45117 0.45117h0.5625l-0.33789-0.33789 0.33789-0.33789h0.33594l0.33789 0.33789h-0.33789l-0.33594 0.33789 0.33008 0.33008 8e-3 0.34375h-0.45117l1.3496 1.3496h0.22656l0.0566-0.0566a6.5 6.5 0 0 0 0.08774-1.0176 6.5 6.5 0 0 0-1.3359-3.9394l-0.38476-0.38477zm1.3496 4.0488h-1.3496l-0.22461-0.22461h-1.3516l-0.78711 0.78711v1.125l0.5625 0.5625h0.78711l0.33789 0.33789v0.33789l0.22461 0.22461v1.3496l0.85546 0.9043 1.4102-1.4121-0.0156-1.291 1.125-1.125h-0.44922l-1.125-1.125zm-4.3867-3.1504v0.33789h0.67383l-0.33789-0.33789zm2.0234 0.11328-0.33594 0.33789v0.33789h0.33594zm-3.4863 1.2383-0.33789 0.33594h0.33789l0.11133 0.11328h0.11328l0.11328-0.11328zm-1.9121 2.3613-0.33789 0.33789h0.67383v-0.33789zm-0.33789 1.0137-0.45117 0.44922v1.125l0.90429 0.79102-4e-3 1.0098-0.33789 0.33594v0.63672a6.5 6.5 0 0 0 0.64257 0.32031l1.1582-1.0684v-0.45117l0.67578-0.67383v-0.33789l0.33594-0.33789v-0.90039l-0.44912-0.44922h-0.90039l-0.44922-0.44922zm8.9551 1.9297-0.0684 0.0644v0.0469a6.5 6.5 0 0 0 0.0684-0.11133z" clip-path="url(#clipPath1225-7)" color="#000000" fill="#fff" opacity=".24"/>
 <path d="m4.6128 1.143a7.5 7.5878 0 0 0-0.60171 0.34883c-0.058 1.2927-0.0591 2.5644 0.018 3.7984-0.78623-0.49578-1.5546-1.0068-2.3054-1.5208a7.5 7.5878 0 0 0-0.30424 0.49932c0.72447 0.49683 1.4663 0.99103 2.2266 1.4729-1.0726 0.41473-2.1088 0.91893-3.1122 1.5185a7.5 7.5878 0 0 0-0.0338 0.65207 7.5 7.5878 0 0 0 2e-3 0.0457c1.1485-0.71405 2.3513-1.2839 3.599-1.7487 0.0893 0.93514 0.22166 1.8474 0.41242 2.7268 0.21008 0.96855 0.49474 1.8943 0.84734 2.777-0.50638 0.16462-1.0144 0.30599-1.5054 0.40812-0.68636 0.14277-1.3173 0.21405-1.9066 0.25763a7.5 7.5878 0 0 0 0.44396 0.5586c0.49697-0.0511 1.0262-0.12927 1.5775-0.24396 0.52594-0.10938 1.0718-0.25838 1.6181-0.43776 0.52797 1.1843 1.2216 2.2599 2.0643 3.2262a7.5 7.5878 0 0 0 0.34732 0.01816 7.5 7.5878 0 0 0 0.42593-0.0137c-0.9587-0.99817-1.7195-2.1441-2.2942-3.4222 1.553-0.58392 3.0789-1.4935 4.239-2.8682 1.512 0.5672 3.0803 0.98462 4.6965 1.2244a7.5 7.5878 0 0 0 0.17127-0.56315c-1.5644-0.22601-3.0872-0.62765-4.5613-1.1742 0.60761-1.3204 1.0942-2.708 1.4423-4.1427 0.82104-0.0727 1.6583-0.1279 2.5083-0.171a7.5 7.5878 0 0 0-0.32227-0.56315c-0.68946 0.0369-1.3761 0.0752-2.0485 0.13223 0.14088-0.66642 0.23683-1.3462 0.311-2.0314a7.5 7.5878 0 0 0-0.53861-0.38532c-0.0762 0.83958-0.19677 1.6686-0.37635 2.4806-2.4723 0.23929-4.8275 0.64866-7.038 1.3885-0.0921-1.3695-0.0798-2.7952-2e-3 -4.2476zm6.9028 3.461c-0.33925 1.34-0.80721 2.6369-1.3815 3.8782-1.784-0.70572-3.4895-1.6103-5.127-2.5923 2.0428-0.66191 4.216-1.0545 6.5084-1.2859zm-6.8194 1.7829c1.622 0.97494 3.317 1.8721 5.0954 2.5855-1.0682 1.1975-2.4556 2.0162-3.883 2.5513-0.34443-0.85816-0.62489-1.7603-0.83158-2.7132-0.16945-0.78119-0.29399-1.591-0.38086-2.4236z" color="#000000" color-rendering="auto" dominant-baseline="auto" fill="#fff" fill-rule="evenodd" image-rendering="auto" opacity=".5" shape-rendering="auto" solid-color="#000000" style="font-feature-settings:normal;font-variant-alternates:normal;font-variant-caps:normal;font-variant-ligatures:normal;font-variant-numeric:normal;font-variant-position:normal;isolation:auto;mix-blend-mode:normal;shape-padding:0;text-decoration-color:#000000;text-decoration-line:none;text-decoration-style:solid;text-indent:0;text-orientation:mixed;text-transform:none;white-space:normal"/>
 <ellipse cx="4.1722" cy="5.8652" rx=".90562" ry=".91233" enable-background="new" fill="#fff"/>
 <ellipse cx="5.982" cy="11.914" rx=".90562" ry=".91233" enable-background="new" fill="#fff"/>
 <ellipse cx="12.019" cy="4.6151" rx=".90562" ry=".91233" enable-background="new" fill="#fff"/>
 <ellipse cx="10.208" cy="8.8726" rx=".90562" ry=".91233" enable-background="new" fill="#fff"/>
 <circle cx="8" cy="8" r="7.5" enable-background="new" fill="none" opacity=".4" stroke="#000" stroke-dashoffset="6.6" stroke-linejoin="round"/>
 <path d="m8 1c-3.866 0-7 3.134-7 7 0 3.866 3.134 7 7 7 3.866 0 7-3.134 7-7 0-3.866-3.134-7-7-7zm0 1a6 6 0 0 1 6 6 6 6 0 0 1-6 6 6 6 0 0 1-6-6 6 6 0 0 1 6-6z" enable-background="new" fill="url(#linearGradient8590-3-3-4)"/>
 <ellipse cx="11" cy="11" rx="4.5" ry="4.5" enable-background="new" fill="#5884f4" stroke="#000" stroke-dashoffset="1" stroke-linecap="round" stroke-linejoin="round" stroke-opacity=".4"/>
 <g transform="matrix(.46154 0 0 .46154 7.5382 6.6546)" color="#000000" enable-background="new" fill="#fff" fill-opacity=".94118" font-weight="400" stroke-width="2.1667" style="white-space:normal">
  <path d="m11.428 10c-0.45 5e-3 -0.78-0.012-1.049 0.137a0.673 0.673 0 0 0-0.299 0.357c-0.059 0.157-0.08 0.341-0.08 0.576v1.858c0 0.235 0.022 0.421 0.08 0.578a0.668 0.668 0 0 0 0.3 0.355c0.268 0.148 0.598 0.134 1.048 0.139h2.146c0.45-5e-3 0.778 0.01 1.047-0.139a0.668 0.668 0 0 0 0.3-0.355c0.058-0.157 0.08-0.343 0.08-0.578v-1.858c0-0.235-0.022-0.42-0.08-0.576a0.672 0.672 0 0 0-0.3-0.357c-0.269-0.15-0.597-0.132-1.047-0.137h-2e-3zm-5-9c-0.45 5e-3 -0.78-0.012-1.049 0.137a0.673 0.673 0 0 0-0.299 0.357c-0.059 0.157-0.08 0.341-0.08 0.576v1.858c0 0.235 0.022 0.421 0.08 0.578a0.668 0.668 0 0 0 0.3 0.355c0.268 0.148 0.598 0.134 1.048 0.139h2.146c0.45-5e-3 0.778 0.01 1.047-0.139a0.668 0.668 0 0 0 0.3-0.355c0.058-0.157 0.08-0.343 0.08-0.578v-1.858c0-0.235-0.022-0.42-0.08-0.576a0.672 0.672 0 0 0-0.3-0.357c-0.269-0.15-0.597-0.132-1.047-0.137h-2e-3zm-5 9c-0.45 5e-3 -0.78-0.012-1.049 0.137a0.673 0.673 0 0 0-0.299 0.357c-0.059 0.157-0.08 0.341-0.08 0.576v1.858c0 0.235 0.022 0.421 0.08 0.578a0.668 0.668 0 0 0 0.3 0.355c0.268 0.148 0.598 0.134 1.048 0.139h2.146c0.45-5e-3 0.778 0.01 1.047-0.139a0.668 0.668 0 0 0 0.3-0.355c0.058-0.157 0.08-0.343 0.08-0.578v-1.858c0-0.235-0.022-0.42-0.08-0.576a0.672 0.672 0 0 0-0.3-0.357c-0.269-0.15-0.597-0.132-1.047-0.137h-2e-3z" overflow="visible" style="font-feature-settings:normal;font-variant-alternates:normal;font-variant-caps:normal;font-variant-ligatures:normal;font-variant-numeric:normal;font-variant-position:normal;isolation:auto;mix-blend-mode:normal;shape-padding:0;text-decoration-color:#000000;text-decoration-line:none;text-decoration-style:solid;text-indent:0;text-orientation:mixed;text-transform:none"/>
  <path d="m3.5 7c-0.667 0-1.138 0.408-1.322 0.777-0.185 0.37-0.178 0.723-0.178 0.723v2h1v-2s7e-3 -0.147 0.072-0.277c0.066-0.131 0.095-0.223 0.428-0.223h8c0.333 0 0.362 0.092 0.428 0.223 0.065 0.13 0.072 0.277 0.072 0.277v2h1v-2s7e-3 -0.353-0.178-0.723a1.485 1.485 0 0 0-1.322-0.777z" fill-rule="evenodd" overflow="visible" style="font-feature-settings:normal;font-variant-alternates:normal;font-variant-caps:normal;font-variant-ligatures:normal;font-variant-numeric:normal;font-variant-position:normal;isolation:auto;mix-blend-mode:normal;shape-padding:0;text-decoration-color:#000000;text-decoration-line:none;text-decoration-style:solid;text-indent:0;text-orientation:mixed;text-transform:none"/>
  <path d="m7.006 4.498-6e-3 3 1 4e-3 6e-3 -3z" fill-rule="evenodd" overflow="visible" style="font-feature-settings:normal;font-variant-alternates:normal;font-variant-caps:normal;font-variant-ligatures:normal;font-variant-numeric:normal;font-variant-position:normal;isolation:auto;mix-blend-mode:normal;shape-padding:0;text-decoration-color:#000000;text-decoration-line:none;text-decoration-style:solid;text-indent:0;text-orientation:mixed;text-transform:none"/>
 </g>
</svg>
