<svg width="16" height="16" version="1.1" xmlns="http://www.w3.org/2000/svg">
 <defs>
  <linearGradient id="linearGradient8588-0-1-5" x1="13.735" x2="38.1" y1="249.69" y2="292.77" gradientTransform="matrix(.31496 0 0 .31496 .16669 -77.71)" gradientUnits="userSpaceOnUse">
   <stop stop-color="#da1636" offset="0"/>
   <stop stop-color="#f22c42" offset="1"/>
  </linearGradient>
  <linearGradient id="linearGradient8590-3-3-4" x1="96" x2="96" y1="4" y2="188" gradientTransform="matrix(.076087 0 0 .076087 .69566 .69567)" gradientUnits="userSpaceOnUse">
   <stop stop-color="#fff" offset="0"/>
   <stop stop-color="#fff" stop-opacity=".098039" offset=".125"/>
   <stop stop-color="#fff" stop-opacity=".098039" offset=".925"/>
   <stop stop-color="#fff" stop-opacity=".49804" offset="1"/>
  </linearGradient>
 </defs>
 <ellipse transform="scale(-1)" cx="-8" cy="-8.5" rx="7" ry="6.5" enable-background="new" opacity=".1"/>
 <circle cx="8" cy="8" r="7.5" enable-background="new" fill="url(#linearGradient8588-0-1-5)"/>
 <path d="m6.0269 10.976c-0.16006-0.022-0.44479-0.116-0.6347-0.2088-1.2374-0.6022-1.7434-2.1189-1.134-3.3964 0.69627-1.4608 2.5961-1.8332 3.7393-0.7329 0.33059 0.3176 0.47741 0.5887 0.97514 1.7906 0.51958 1.2569 0.61562 1.4545 0.78399 1.6221 0.18038 0.1782 0.34752 0.2382 0.66733 0.2382 0.52543 0 0.90065-0.3298 0.90065-0.7901 0-0.3896-0.13482-0.5143-0.82247-0.7622-1.0472-0.3837-1.3864-0.7304-1.3876-1.4267 0-0.3714 0.09265-0.6191 0.32812-0.8758 0.33798-0.3664 0.92097-0.4874 1.4369-0.3054 0.22008 0.079 0.68057 0.4933 0.68057 0.6118 0 0.058-0.26687 0.2333-0.41493 0.2749-0.07818 0.021-0.14559-0.01-0.23578-0.094-0.18284-0.1783-0.30658-0.2333-0.52543-0.2333-0.37768 0-0.61193 0.2308-0.61193 0.6034 0 0.3715 0.14898 0.4972 0.89327 0.7523 1.0256 0.3517 1.3285 0.6694 1.3347 1.4045 0.0062 0.635-0.27549 1.093-0.8357 1.3641-0.25487 0.1223-0.34136 0.1379-0.75752 0.1379-0.59407 0-0.86094-0.1123-1.194-0.4934-0.22378-0.2564-0.45094-0.7376-1.1783-2.4941-0.30165-0.7278-0.68888-1.0846-1.3347-1.225-0.3272-0.071-0.78276 0-1.0798 0.1539-0.28965 0.1538-0.61316 0.5008-0.76583 0.8182-0.1262 0.2576-0.13821 0.3298-0.13821 0.7779 0 0.4274 0.01693 0.5287 0.12251 0.7632 0.16006 0.358 0.47495 0.6888 0.82124 0.867 0.25025 0.1282 0.32813 0.1441 0.72736 0.1441 0.38353 0 0.48203-0.018 0.71073-0.1294 0.26102-0.1295 0.61193-0.4471 0.75506-0.6851l0.07449-0.1235 0.14682 0.3408c0.08188 0.1883 0.14775 0.3652 0.14775 0.3971 0 0.094-0.33182 0.4018-0.63594 0.5935-0.46172 0.2895-0.99207 0.398-1.5584 0.3198" fill="#fff"/>
 <path d="m1.082 9a7.2329 7.2329 0 0 0 7.1152 6 7.2329 7.2329 0 0 0 7.123-6z" enable-background="new" fill="#fff" opacity=".05"/>
 <circle cx="8" cy="8" r="7.5" enable-background="new" fill="none" opacity=".4" stroke="#000" stroke-dashoffset="6.6" stroke-linejoin="round"/>
 <path d="m8 1c-3.866 0-7 3.134-7 7s3.134 7 7 7 7-3.134 7-7-3.134-7-7-7zm0 1a6 6 0 0 1 6 6 6 6 0 0 1-6 6 6 6 0 0 1-6-6 6 6 0 0 1 6-6z" enable-background="new" fill="url(#linearGradient8590-3-3-4)"/>
</svg>
