<svg width="16" height="16" version="1" xmlns="http://www.w3.org/2000/svg" xmlns:xlink="http://www.w3.org/1999/xlink">
 <defs>
  <linearGradient id="linearGradient1178-3" x1="329" x2="329" y1="239" y2="249" gradientTransform="translate(-321 -236)" gradientUnits="userSpaceOnUse">
   <stop stop-color="#666" offset="0"/>
   <stop stop-color="#808080" offset="1"/>
  </linearGradient>
  <linearGradient id="linearGradient1205-6" x1="328" x2="328" y1="239" y2="248" gradientUnits="userSpaceOnUse">
   <stop stop-color="#fff" offset="0"/>
   <stop stop-color="#fff" stop-opacity=".098039" offset=".125"/>
   <stop stop-color="#fff" stop-opacity=".098039" offset=".925"/>
   <stop stop-color="#fff" stop-opacity=".49804" offset="1"/>
  </linearGradient>
  <clipPath id="clipPath1193-7">
   <path d="m324 239c-1.2585 0.0147-2.0872 0.0598-2.4531 0.26172-0.18343 0.10119-0.28912 0.21275-0.38672 0.47266-0.09756 0.2599-0.16016 0.67322-0.16016 1.2656v5c0 0.5924 0.0626 1.0057 0.16016 1.2656 0.0976 0.25992 0.20329 0.37146 0.38672 0.47266 0.36594 0.20192 1.1946 0.24702 2.4531 0.26172h6e-3 6.994c1.2585-0.0147 2.0872-0.0598 2.4531-0.26172 0.18343-0.10119 0.28912-0.21275 0.38672-0.47266 0.09756-0.2599 0.16016-0.67322 0.16016-1.2656v-5c0-0.5924-0.0627-1.0057-0.16016-1.2656-0.0976-0.25992-0.20329-0.37146-0.38672-0.47266-0.36594-0.20192-1.1946-0.24702-2.4531-0.26172z" color="#000000" fill="url(#linearGradient1197)"/>
  </clipPath>
  <linearGradient id="linearGradient1017-2" x1="327.64" x2="327.64" y1="-73.622" y2="-80.344" gradientTransform="translate(-320 70)" gradientUnits="userSpaceOnUse">
   <stop offset="0"/>
   <stop stop-opacity="0" offset="1"/>
  </linearGradient>
 </defs>
 <path d="m14.5 11c0 2.5-0.97828 2.4709-3.5 2.5h-6.9999c-2.5218-0.0291-3.5 0-3.5-2.5v-5.0001c0-2.5 0.97827-2.4709 3.5-2.5h6.9999c2.5218 0.0291 3.5 0 3.5 2.5z" color="#000000" fill="none" opacity=".2" stroke="#000"/>
 <path d="m14.5 10c0 2.5-0.97828 2.4709-3.5 2.5h-6.9999c-2.5218-0.0291-3.5 0-3.5-2.5v-5.0001c0-2.5 0.97827-2.4709 3.5-2.5h6.9999c2.5218 0.0291 3.5 0 3.5 2.5z" color="#000000" fill="url(#linearGradient1178-3)"/>
 <path d="m14.5 10c0 2.5-0.97828 2.4709-3.5 2.5h-6.9999c-2.5218-0.0291-3.5 0-3.5-2.5v-5.0001c0-2.5 0.97827-2.4709 3.5-2.5h6.9999c2.5218 0.0291 3.5 0 3.5 2.5z" color="#000000" fill="none" opacity=".5" stroke="#000"/>
 <path transform="translate(-320 -236)" d="m324 239c-1.2585 0.0147-2.0872 0.0598-2.4531 0.26172-0.18343 0.10119-0.28912 0.21275-0.38672 0.47266-0.09756 0.2599-0.16016 0.67322-0.16016 1.2656v5c0 0.5924 0.0626 1.0057 0.16016 1.2656 0.0976 0.25992 0.20329 0.37146 0.38672 0.47266 0.36594 0.20192 1.1946 0.24702 2.4531 0.26172h6e-3 6.994c1.2585-0.0147 2.0872-0.0598 2.4531-0.26172 0.18343-0.10119 0.28912-0.21275 0.38672-0.47266 0.09756-0.2599 0.16016-0.67322 0.16016-1.2656v-5c0-0.5924-0.0627-1.0057-0.16016-1.2656-0.0976-0.25992-0.20329-0.37146-0.38672-0.47266-0.36594-0.20192-1.1946-0.24702-2.4531-0.26172z" clip-path="url(#clipPath1193-7)" color="#000000" fill="none" opacity=".5" stroke="url(#linearGradient1205-6)" stroke-width="2"/>
 <rect transform="scale(1,-1)" x="5.5" y="-9.8055" width="4" height="2.6111" enable-background="new" fill="url(#linearGradient1017-2)" opacity=".2" stroke="#000" stroke-linecap="round"/>
</svg>
