<svg width="16" height="16" version="1" xmlns="http://www.w3.org/2000/svg" xmlns:xlink="http://www.w3.org/1999/xlink">
 <defs>
  <linearGradient id="linearGradient920" x1="455.25" x2="39.094" y1="401.44" y2="240.27" gradientTransform="matrix(0 -.036044 -.036043 0 19.565 16.909)" gradientUnits="userSpaceOnUse">
   <stop stop-color="#9f3d06" offset="0"/>
   <stop stop-color="#e76428" offset="1"/>
  </linearGradient>
  <linearGradient id="linearGradient1309" x1="332" x2="324" y1="236" y2="252" gradientTransform="translate(-320 -236)" gradientUnits="userSpaceOnUse">
   <stop stop-color="#f2f2f2" offset="0"/>
   <stop stop-color="#fff" offset="1"/>
  </linearGradient>
  <linearGradient id="_Linear13" x2="1" gradientTransform="matrix(0 16.032 -16.032 0 342.25 529)" gradientUnits="userSpaceOnUse">
   <stop stop-color="#a33e03" offset="0"/>
   <stop stop-color="#622502" offset="1"/>
  </linearGradient>
  <linearGradient id="linearGradient1537" x2="1" gradientTransform="matrix(0 16.032 -16.032 0 340.5 528)" gradientUnits="userSpaceOnUse" xlink:href="#_Linear14"/>
  <linearGradient id="_Linear14" x2="1" gradientTransform="matrix(0 16.032 -16.032 0 340.5 528)" gradientUnits="userSpaceOnUse">
   <stop stop-color="#a33e03" offset="0"/>
   <stop stop-color="#622502" offset="1"/>
  </linearGradient>
  <linearGradient id="linearGradient1533" x2="1" gradientTransform="matrix(0 16.032 -16.032 0 339.75 528)" gradientUnits="userSpaceOnUse" xlink:href="#_Linear16"/>
  <linearGradient id="_Linear16" x2="1" gradientTransform="matrix(0 16.032 -16.032 0 339.75 528)" gradientUnits="userSpaceOnUse">
   <stop stop-color="#a33e03" offset="0"/>
   <stop stop-color="#622502" offset="1"/>
  </linearGradient>
  <linearGradient id="linearGradient993" x1="328" x2="328" y1="237" y2="251" gradientUnits="userSpaceOnUse">
   <stop stop-color="#fff" offset="0"/>
   <stop stop-color="#fff" stop-opacity=".098039" offset=".125"/>
   <stop stop-color="#fff" stop-opacity=".098039" offset=".925"/>
   <stop stop-color="#fff" stop-opacity=".49804" offset="1"/>
  </linearGradient>
  <clipPath id="clipPath983-6">
   <path d="m325.1 237c-2.8077 0-3.1098 0.28839-3.096 3.1018v3.8982 3.8982c-0.0138 2.8134 0.28834 3.1018 3.096 3.1018h5.8075c2.8077 0 3.096-0.28835 3.096-3.1018v-3.8982-3.8982c0-2.8134-0.28835-3.1018-3.096-3.1018z" color="#000000" fill="#46a926"/>
  </clipPath>
 </defs>
 <path d="m5.0957 1c-0.71904 0-1.3018 0.0139-1.8359 0.10352-0.53409 0.0897-1.0683 0.27628-1.4766 0.68359-0.40826 0.4073-0.59657 0.94323-0.68554 1.4785-0.089 0.53529-0.10119 1.1205-0.0977 1.8418v2.8926 3.8984c-3e-3 0.71816 9e-3 1.3024 0.0977 1.8359 0.089 0.53528 0.27727 1.0712 0.68554 1.4785 0.40827 0.40731 0.94248 0.59394 1.4766 0.68359 0.53408 0.0897 1.1169 0.10352 1.8359 0.10352h5.8086c0.71904 0 1.3006-0.0137 1.834-0.10352 0.53341-0.0898 1.0677-0.27792 1.4746-0.68554s0.59404-0.94271 0.68359-1.4766c0.0896-0.53386 0.10352-1.1155 0.10352-1.8359v-3.8984-2.8984c0-0.72043-0.014-1.3021-0.10352-1.8359-0.0895-0.53385-0.27666-1.0689-0.68359-1.4766s-0.9412-0.59578-1.4746-0.68554c-0.5334-0.0898-1.1149-0.10352-1.834-0.10352z" color="#000000" color-rendering="auto" dominant-baseline="auto" image-rendering="auto" opacity=".1" shape-rendering="auto" solid-color="#000000" style="font-feature-settings:normal;font-variant-alternates:normal;font-variant-caps:normal;font-variant-ligatures:normal;font-variant-numeric:normal;font-variant-position:normal;isolation:auto;mix-blend-mode:normal;shape-padding:0;text-decoration-color:#000000;text-decoration-line:none;text-decoration-style:solid;text-indent:0;text-orientation:mixed;text-transform:none;white-space:normal"/>
 <path d="m10.904 0.5c0.71048 0 1.2734 0.0154 1.752 0.0957s0.89671 0.23728 1.207 0.54688c0.31032 0.30959 0.46726 0.7261 0.54688 1.2051 0.0796 0.47897 0.0933 1.0435 0.0898 1.7559v3.8965 3.8984c3e-3 0.71121-0.0103 1.2755-0.0898 1.7539-0.0796 0.47898-0.23655 0.89549-0.54688 1.2051-0.31033 0.3096-0.72851 0.46655-1.207 0.54688-0.47852 0.0803-1.0415 0.0957-1.752 0.0957h-5.8086c-0.71048 0-1.2724-0.0153-1.75-0.0957-0.47763-0.0804-0.89584-0.23713-1.2051-0.54688-0.30921-0.30975-0.46469-0.72681-0.54492-1.2051-0.0802-0.47826-0.0957-1.042-0.0957-1.7539v-3.8984-3.8984c0-0.71189 0.0155-1.2756 0.0957-1.7539 0.0802-0.47827 0.2357-0.89533 0.54492-1.2051 0.30924-0.30975 0.72745-0.4665 1.2051-0.54688 0.47764-0.0804 1.0395-0.0957 1.75-0.0957z" color="#000000" fill="url(#linearGradient920)"/>
 <path d="m5.0962 2c-0.6888 0-1.1839 0.0205-1.5039 0.0742-0.30449 0.0511-0.38369 0.11806-0.39649 0.13086-0.0131 0.0131-0.0746 0.0855-0.125 0.38867-0.0529 0.31839-0.0733 0.81274-0.0703 1.502v4e-3 3.9004 3.9023 2e-3c-3e-3 0.68916 0.0176 1.185 0.0703 1.502 0.0504 0.30317 0.1119 0.37557 0.125 0.38867 0.0128 0.0128 0.0918 0.0798 0.39649 0.13086 0.32002 0.0537 0.8151 0.0742 1.5039 0.0742h5.8086c0.68894 0 1.1835-0.0206 1.502-0.0742 0.30433-0.0512 0.38043-0.1186 0.39063-0.1289 0.0112-0.0112 0.0774-0.0858 0.1289-0.39258 0.0536-0.31974 0.0742-0.81575 0.0742-1.5059v-3.8986-3l-3-3z" color="#000000" color-rendering="auto" dominant-baseline="auto" fill="url(#linearGradient1309)" image-rendering="auto" shape-rendering="auto" solid-color="#000000" style="font-feature-settings:normal;font-variant-alternates:normal;font-variant-caps:normal;font-variant-ligatures:normal;font-variant-numeric:normal;font-variant-position:normal;isolation:auto;mix-blend-mode:normal;shape-padding:0;text-decoration-color:#000000;text-decoration-line:none;text-decoration-style:solid;text-indent:0;text-orientation:mixed;text-transform:none;white-space:normal"/>
 <path d="m2.0005 8v3.8984c-0.0138 2.8134 0.28801 3.1016 3.0957 3.1016h5.8086c2.8077 0 3.0957-0.28815 3.0957-3.1016v-3.8984z" color="#000000" fill="#fff" opacity=".1"/>
 <g transform="translate(-334 -528)" clip-rule="evenodd" enable-background="new">
  <path d="m344 534h-4c-1.105 0-2 0.896-2 2v3c0 1.105 0.895 2 2 2h4c1.105 0 2-0.895 2-2v-3c0-1.104-0.895-2-2-2z" fill="#f9cfb5"/>
  <path d="m339 534.01c-0.554 0-1.004 0.448-1.004 1.002v4.996c0 0.552 0.448 1 1 1h6c0.552 0 1-0.447 1-1 1e-3 -1.26 1e-3 -3.452 2e-3 -5.007 0-0.55-0.444-0.996-0.995-0.997-1.867-2e-3 -4.135 8e-3 -6.003 6e-3zm-2e-3 1.499c-1e-3 -0.277 0.224-0.501 0.501-0.5l5 0.011c0.276 1e-3 0.499 0.225 0.499 0.5v4.001c0 0.277-0.224 0.5-0.5 0.5h-4.997c-0.277 0-0.502-0.225-0.501-0.502 4e-3 -1.295 0-3.134-2e-3 -4.01z" fill="url(#_Linear13)"/>
  <rect x="342" y="536" width="2" height="1" fill="url(#linearGradient1537)"/>
  <rect x="342" y="538" width="2" height="1" fill="url(#linearGradient1537)"/>
  <rect x="340" y="536" width="1" height="1" fill="url(#linearGradient1533)"/>
  <rect x="340" y="538" width="1" height="1" fill="url(#linearGradient1533)"/>
  <rect x="344" y="536" width="1" height="1" fill="#f09e6f"/>
  <rect x="344" y="538" width="1" height="1" fill="#f09e6f"/>
 </g>
 <path d="m5.0962 0.5c-0.71048 0-1.2734 0.0154-1.752 0.0957s-0.89671 0.23728-1.207 0.54688c-0.31032 0.30959-0.46726 0.7261-0.54688 1.2051-0.0796 0.47897-0.0933 1.0435-0.0898 1.7559v3.8965 3.8984c-3e-3 0.71121 0.0103 1.2755 0.0898 1.7539 0.0796 0.47898 0.23655 0.89549 0.54688 1.2051 0.31033 0.3096 0.72851 0.46655 1.207 0.54688 0.47852 0.0803 1.0415 0.0957 1.752 0.0957h5.8086c0.71048 0 1.2724-0.0153 1.75-0.0957 0.47763-0.0804 0.89584-0.23713 1.2051-0.54688 0.30921-0.30975 0.46469-0.72681 0.54492-1.2051 0.0802-0.47826 0.0957-1.042 0.0957-1.7539v-3.8984-3.8984c0-0.71189-0.0155-1.2756-0.0957-1.7539-0.0802-0.47827-0.2357-0.89533-0.54492-1.2051-0.30924-0.30975-0.72745-0.4665-1.2051-0.54688-0.47764-0.0804-1.0395-0.0957-1.75-0.0957z" color="#000000" fill="none" opacity=".3" stroke="#000"/>
 <path transform="translate(-320 -236)" d="m325.1 237c-2.8077 0-3.1098 0.28839-3.096 3.1018v3.8982 3.8982c-0.0138 2.8134 0.28834 3.1018 3.096 3.1018h5.8075c2.8077 0 3.096-0.28835 3.096-3.1018v-3.8982-3.8982c0-2.8134-0.28835-3.1018-3.096-3.1018z" clip-path="url(#clipPath983-6)" color="#000000" fill="none" opacity=".3" stroke="url(#linearGradient993)" stroke-width="2"/>
</svg>
