<svg width="16" height="16" version="1" xmlns="http://www.w3.org/2000/svg" xmlns:xlink="http://www.w3.org/1999/xlink">
 <defs>
  <linearGradient id="linearGradient993" x1="328" x2="328" y1="238" y2="250" gradientTransform="rotate(-90,328,244)" gradientUnits="userSpaceOnUse">
   <stop stop-color="#fff" offset="0"/>
   <stop stop-color="#fff" stop-opacity=".098039" offset=".125"/>
   <stop stop-color="#fff" stop-opacity=".098039" offset=".925"/>
   <stop stop-color="#fff" stop-opacity=".49804" offset="1"/>
  </linearGradient>
  <clipPath id="clipPath983">
   <path d="m325.1 237c-2.8077 0-3.1098 0.28839-3.096 3.1018v3.8982 3.8982c-0.0138 2.8134 0.28834 3.1018 3.096 3.1018h5.8075c2.8077 0 3.096-0.28835 3.096-3.1018v-3.8982-3.8982c0-2.8134-0.28835-3.1018-3.096-3.1018z" color="#000000" fill="#46a926"/>
  </clipPath>
 </defs>
 <path d="m15.5 5.596c0-0.71904-0.0139-1.3018-0.10352-1.8359-0.0897-0.53409-0.27628-1.0683-0.68359-1.4766-0.4073-0.40826-0.94323-0.59657-1.4785-0.68554-0.53529-0.089-1.1205-0.10119-1.8418-0.0977h-2.8926-3.8984c-0.71816-3e-3 -1.3024 9e-3 -1.8359 0.0977-0.53528 0.089-1.0712 0.27727-1.4785 0.68554-0.40731 0.40827-0.59394 0.94248-0.68359 1.4766-0.0897 0.53408-0.10352 1.1169-0.10352 1.8359v5.8086c0 0.71904 0.0137 1.3006 0.10352 1.834 0.0898 0.53341 0.27792 1.0677 0.68554 1.4746s0.94271 0.59404 1.4766 0.68359c0.53386 0.0896 1.1155 0.10352 1.8359 0.10352h3.8984 2.8984c0.72043 0 1.3021-0.014 1.8359-0.10352 0.53385-0.0895 1.0689-0.27666 1.4766-0.68359s0.59578-0.9412 0.68554-1.4746c0.0898-0.5334 0.10352-1.1149 0.10352-1.834z" color="#000000" color-rendering="auto" dominant-baseline="auto" image-rendering="auto" opacity=".1" shape-rendering="auto" solid-color="#000000" style="font-feature-settings:normal;font-variant-alternates:normal;font-variant-caps:normal;font-variant-ligatures:normal;font-variant-numeric:normal;font-variant-position:normal;isolation:auto;mix-blend-mode:normal;shape-padding:0;text-decoration-color:#000000;text-decoration-line:none;text-decoration-style:solid;text-indent:0;text-orientation:mixed;text-transform:none;white-space:normal"/>
 <path d="m3.8242 1.5c-1.7584-9e-3 -2.5837 0.11745-2.9766 0.8125-0.2696 0.76907-0.34766 1.8468-0.34766 3.3711v3.6328c0 4.5363 0.64892 5.1836 5.1894 5.1836h4.6211c4.5406 0 5.1894-0.6473 5.1894-5.1836v-3.6328c0-1.5243-0.0781-2.602-0.34766-3.3711-0.39288-0.69505-1.2182-0.8212-2.9766-0.8125h-4.1758z" enable-background="new" fill="#6dc7f1"/>
 <path d="m8.6699 1.5-2.5547 10.154 2.7031 2.8457h3.3574c3.0144 0 3.3242-0.31186 3.3242-3.3535v-6.291c0-3.0417-0.3099-3.3704-3.3242-3.3555z" color="#000000" fill="#e3dfd5"/>
 <path d="m3.8242 1.5c-3.0143-0.0149-3.3242 0.31381-3.3242 3.3555v0.99414l5.7871 5.957 8.8828-9.4688c-0.38629-0.71988-1.2127-0.8467-2.9941-0.83789h-4.1758z" color="#000000" fill="#a6d74f"/>
 <path d="m0.5 4.9434v1.8144l7.5703 7.7422h1.7734z" color="#000000" fill="#f9f9f9" fill-opacity=".99608"/>
 <path d="m14.904 1.9883-12.518 12.451c0.39796 0.0409 0.85444 0.0606 1.4375 0.0606h0.29492l11.305-11.246c-0.0747-0.59733-0.22702-1.005-0.51953-1.2656z" color="#000000" fill="#fdc92b"/>
 <path d="m10.992 3.004c-1.3249 0-2.399 1.0741-2.399 2.399 0 0.26308 0.044 0.51551 0.1226 0.75237 0.01 0.0241 0.014 0.0488 0.023 0.0725 0.061 0.2022 0.9568 3.1408 2.256 5.7761 3e-4 0 9e-4 -2.4e-4 1e-3 -6e-4 6e-4 -2.4e-4 9e-4 -8.1e-4 0-1e-3 6e-4 -5.4e-4 9e-4 -1e-3 1e-3 -1e-3 6e-4 -3.6e-4 9e-4 -6.9e-4 0-6.9e-4 1.3882-2.8781 2.2705-5.8446 2.2705-5.8446h-6e-4c0.078-0.23673 0.1211-0.48949 0.1211-0.7524 0-1.325-1.0741-2.3991-2.3991-2.3991z" color="#000000" fill="#f22c42"/>
 <circle cx="10.973" cy="5.431" r="1.1839" color="#000000" fill="#bc1938"/>
 <path transform="rotate(90 286 -34)" d="m325.1 237c-2.8077 0-3.1098 0.28839-3.096 3.1018v3.8982 3.8982c-0.0138 2.8134 0.28834 3.1018 3.096 3.1018h5.8075c2.8077 0 3.096-0.28835 3.096-3.1018v-3.8982-3.8982c0-2.8134-0.28835-3.1018-3.096-3.1018z" clip-path="url(#clipPath983)" color="#000000" fill="none" opacity=".7" stroke="url(#linearGradient993)" stroke-width="2"/>
 <path d="m15.512 4.9136c0-2.8973-0.30259-3.4401-3.2545-3.4249h-4.2572-4.2572c-2.952-0.0152-3.2545 0.52756-3.2545 3.4249v6.1733c0 2.8966 0.30255 3.4249 3.2545 3.4249h4.2572 4.2572c2.952 0 3.2545-0.52828 3.2545-3.4249z" color="#000000" fill="none" opacity=".4" stroke="#000" stroke-width=".97653"/>
</svg>
