<svg width="16" height="16" version="1" xmlns="http://www.w3.org/2000/svg" xmlns:xlink="http://www.w3.org/1999/xlink">
 <defs>
  <linearGradient id="linearGradient1692" x1="320" x2="336" y1="252" y2="236" gradientTransform="rotate(90 286 -34)" gradientUnits="userSpaceOnUse">
   <stop stop-color="#e72662" offset="0"/>
   <stop stop-color="#ec3c50" offset=".48272"/>
   <stop stop-color="#ff7b66" offset="1"/>
  </linearGradient>
  <linearGradient id="linearGradient1692-6" x1="321" x2="335" y1="244" y2="244" gradientTransform="rotate(90 286 -34)" gradientUnits="userSpaceOnUse">
   <stop stop-color="#fff" offset="0"/>
   <stop stop-color="#fff" stop-opacity=".098039" offset=".125"/>
   <stop stop-color="#fff" stop-opacity=".098039" offset=".925"/>
   <stop stop-color="#fff" stop-opacity=".49804" offset="1"/>
  </linearGradient>
 </defs>
 <path d="m4.1286 1c-3.7436 0-4.1464 0.30899-4.128 3.3233v4.1767 4.1767c-0.0183 3.0143 0.38446 3.3233 4.128 3.3233h7.7433c3.7436 0 4.128-0.30895 4.128-3.3233v-4.1767-4.1767c0-3.0144-0.38446-3.3233-4.128-3.3233z" color="#000000" opacity=".1"/>
 <path d="m4.4056 0.50001c-3.476 0-3.8501 0.30899-3.833 3.3233v4.1767 4.1767c-0.017 3.0143 0.35698 3.3233 3.833 3.3233h7.19c3.476 0 3.833-0.30895 3.833-3.3233v-4.1767-4.1767c0-3.0144-0.35699-3.3233-3.833-3.3233z" color="#000000" fill="url(#linearGradient1692)"/>
 <path d="m10.889 3.9272c-0.0655-4e-3 -0.1426 8.7e-4 -0.23345 9e-3l-4.1033 0.64034c-0.46293 0.0472-0.51327 0.26324-0.50917 0.53252v5.4185c-0.23529-0.15457-0.4871-0.26459-0.82266-0.26459-0.43208 0-0.69003 0.16563-0.84602 0.38354-0.15597 0.21792-0.20789 0.4925-0.20789 0.70482 0 0.25605 0.0883 0.52883 0.27794 0.73708 0.18964 0.20823 0.48126 0.35462 0.90048 0.35463 0.4734 0 0.80563-0.13204 0.99387-0.39021 0.14821-0.20327 0.2309-0.47548 0.26014-0.81044 4e-3 -0.0406 7e-3 -0.0827 9e-3 -0.12562 3e-3 -0.034 3e-3 -0.0579 3e-3 -0.0978h2e-3v-4.3846c0.0126-0.35255 0.3324-0.40466 0.3324-0.40466l3.3318-0.52028c0.31984-0.0978 0.32018 0.29794 0.32018 0.29794v3.951c-0.2353-0.15457-0.48711-0.26458-0.82266-0.26458-0.4321 0-0.69004 0.16562-0.84602 0.38353-0.15598 0.21793-0.20791 0.49249-0.20791 0.70483 0 0.25605 0.0883 0.52883 0.27795 0.73706 0.18965 0.20825 0.48125 0.35464 0.90048 0.35465 0.4734 0 0.80563-0.13206 0.99388-0.39022 0.1482-0.20326 0.23088-0.47548 0.26012-0.81043 4e-3 -0.0407 7e-3 -0.0827 9e-3 -0.12563 3e-3 -0.034 3e-3 -0.0579 3e-3 -0.0978h2e-3v-6.0155c7e-3 -0.39026-0.0799-0.49302-0.27681-0.50694z" color="#000000" color-rendering="auto" dominant-baseline="auto" fill-rule="evenodd" image-rendering="auto" opacity=".05" shape-rendering="auto" solid-color="#000000" stroke="#000" stroke-linejoin="round" stroke-width="2" style="font-feature-settings:normal;font-variant-alternates:normal;font-variant-caps:normal;font-variant-ligatures:normal;font-variant-numeric:normal;font-variant-position:normal;isolation:auto;mix-blend-mode:normal;shape-padding:0;text-decoration-color:#000000;text-decoration-line:none;text-decoration-style:solid;text-indent:0;text-orientation:mixed;text-transform:none;white-space:normal"/>
 <path d="m10.889 4.9272c-0.0655-4e-3 -0.1426 8.7e-4 -0.23345 9e-3l-4.1033 0.64034c-0.46293 0.0472-0.51327 0.26324-0.50917 0.53252v5.4185c-0.23529-0.15457-0.4871-0.26459-0.82266-0.26459-0.43208 0-0.69003 0.16563-0.84602 0.38354-0.15597 0.21792-0.20789 0.4925-0.20789 0.70482 0 0.25605 0.0883 0.52883 0.27794 0.73708 0.18964 0.20823 0.48126 0.35462 0.90048 0.35463 0.4734 0 0.80563-0.13204 0.99387-0.39021 0.14821-0.20327 0.2309-0.47548 0.26014-0.81044 4e-3 -0.0406 7e-3 -0.0827 9e-3 -0.12562 3e-3 -0.034 3e-3 -0.0579 3e-3 -0.0978h2e-3v-4.3846c0.0126-0.35255 0.3324-0.40466 0.3324-0.40466l3.3318-0.52028c0.31984-0.0978 0.32018 0.29794 0.32018 0.29794v3.951c-0.2353-0.15457-0.48711-0.26458-0.82266-0.26458-0.4321 0-0.69004 0.16562-0.84602 0.38353-0.15598 0.21793-0.20791 0.49249-0.20791 0.70483 0 0.25605 0.0883 0.52883 0.27795 0.73706 0.18965 0.20825 0.48125 0.35464 0.90048 0.35465 0.4734 0 0.80563-0.13206 0.99388-0.39022 0.1482-0.20326 0.23088-0.47548 0.26012-0.81043 4e-3 -0.0407 7e-3 -0.0827 9e-3 -0.12563 3e-3 -0.034 3e-3 -0.0579 3e-3 -0.0978h2e-3v-6.0155c7e-3 -0.39026-0.0799-0.49302-0.27681-0.50694z" color="#000000" color-rendering="auto" dominant-baseline="auto" fill-rule="evenodd" image-rendering="auto" opacity=".1" shape-rendering="auto" solid-color="#000000" style="font-feature-settings:normal;font-variant-alternates:normal;font-variant-caps:normal;font-variant-ligatures:normal;font-variant-numeric:normal;font-variant-position:normal;isolation:auto;mix-blend-mode:normal;shape-padding:0;text-decoration-color:#000000;text-decoration-line:none;text-decoration-style:solid;text-indent:0;text-orientation:mixed;text-transform:none;white-space:normal"/>
 <path d="m10.889 3.9272c-0.0655-4e-3 -0.1426 8.7e-4 -0.23345 9e-3l-4.1033 0.64034c-0.46293 0.0472-0.51327 0.26324-0.50917 0.53252v5.4185c-0.23529-0.15457-0.4871-0.26459-0.82266-0.26459-0.43208 0-0.69003 0.16563-0.84602 0.38354-0.15597 0.21792-0.20789 0.4925-0.20789 0.70482 0 0.25605 0.0883 0.52883 0.27794 0.73708 0.18964 0.20823 0.48126 0.35462 0.90048 0.35463 0.4734 0 0.80563-0.13204 0.99387-0.39021 0.14821-0.20327 0.2309-0.47548 0.26014-0.81044 4e-3 -0.0406 7e-3 -0.0827 9e-3 -0.12562 3e-3 -0.034 3e-3 -0.0579 3e-3 -0.0978h2e-3v-4.3846c0.0126-0.35255 0.3324-0.40466 0.3324-0.40466l3.3318-0.52028c0.31984-0.0978 0.32018 0.29794 0.32018 0.29794v3.951c-0.2353-0.15457-0.48711-0.26458-0.82266-0.26458-0.4321 0-0.69004 0.16562-0.84602 0.38353-0.15598 0.21793-0.20791 0.49249-0.20791 0.70483 0 0.25605 0.0883 0.52883 0.27795 0.73706 0.18965 0.20825 0.48125 0.35464 0.90048 0.35465 0.4734 0 0.80563-0.13206 0.99388-0.39022 0.1482-0.20326 0.23088-0.47548 0.26012-0.81043 4e-3 -0.0407 7e-3 -0.0827 9e-3 -0.12563 3e-3 -0.034 3e-3 -0.0579 3e-3 -0.0978h2e-3v-6.0155c7e-3 -0.39026-0.0799-0.49302-0.27681-0.50694z" color="#000000" color-rendering="auto" dominant-baseline="auto" fill="#fff" fill-rule="evenodd" image-rendering="auto" shape-rendering="auto" solid-color="#000000" style="font-feature-settings:normal;font-variant-alternates:normal;font-variant-caps:normal;font-variant-ligatures:normal;font-variant-numeric:normal;font-variant-position:normal;isolation:auto;mix-blend-mode:normal;shape-padding:0;text-decoration-color:#000000;text-decoration-line:none;text-decoration-style:solid;text-indent:0;text-orientation:mixed;text-transform:none;white-space:normal"/>
 <path d="m11.555 15.5c3.337 0 3.9622-0.30212 3.9447-3.2495v-4.2505-4.2506c0.0175-2.9473-0.60763-3.2494-3.9447-3.2494h-7.1102c-3.3362 0-3.9447 0.30208-3.9447 3.2494v4.2506 4.2505c0 2.9474 0.60847 3.2495 3.9447 3.2495z" color="#000000" fill="none" opacity=".4" stroke="#000"/>
 <path d="m4.4453 1c-1.653 0-2.546 0.12548-2.916 0.41406-0.18499 0.14429-0.30479 0.33122-0.39649 0.70313-0.09171 0.37191-0.13281 0.91317-0.13281 1.6328v4.25 4.25c0 0.71964 0.0411 1.2608 0.13281 1.6328 0.0917 0.37191 0.2115 0.55884 0.39649 0.70313 0.36997 0.28858 1.263 0.41406 2.916 0.41406h7.1094c1.6534 0 2.552-0.12511 2.9238-0.41406 0.18589-0.14448 0.30578-0.33208 0.39648-0.70313s0.129-0.90979 0.125-1.6289v-2e-3 -4.2519-4.252-2e-3c4e-3 -0.71911-0.0343-1.2578-0.125-1.6289s-0.21059-0.55865-0.39648-0.70313c-0.37179-0.2889-1.2704-0.41402-2.9238-0.41402zm5.3281 1.0469c1.1077-3.4e-4 2.2136 8e-3 3.3203 0.0449 0.26616 0.0599 0.75737-0.0208 0.79297 0.3457 0.13405 1.8444 0.0662 3.6877 0.10156 5.5391-0.0126 1.8674 0.0543 3.6703-0.10351 5.498 0.0642 0.42314-0.43946 0.35577-0.70313 0.42187-3.4328 0.0703-6.8758 0.0589-10.299 2e-3 -0.22288-0.0398-0.55622-3.2e-4 -0.71093-0.1875-0.19863-1.13-0.12696-2.2695-0.16016-3.4199 0.0138-2.5565-0.029-5.1073 0.0898-7.6562-0.03-0.2727 0.10944-0.49629 0.40039-0.48829 1.3066-0.161 2.6326-0.0636 3.9473-0.0976 1.1072 6e-3 2.2166-2e-3 3.3242-2e-3z" color="#000000" fill="url(#linearGradient1692-6)"/>
</svg>
