<svg width="16" height="16" version="1" xmlns="http://www.w3.org/2000/svg" xmlns:xlink="http://www.w3.org/1999/xlink">
 <defs>
  <linearGradient id="linearGradient3797-5">
   <stop stop-color="#f7f7f7" offset="0"/>
   <stop stop-color="#e6e6e6" offset="1"/>
  </linearGradient>
  <linearGradient id="linearGradient982">
   <stop stop-color="#8ad600" offset="0"/>
   <stop stop-color="#70ad00" offset="1"/>
  </linearGradient>
  <linearGradient id="linearGradient3763-3" x1="328" x2="328" y1="250.5" y2="237.5" gradientTransform="translate(-320,-236)" gradientUnits="userSpaceOnUse" xlink:href="#linearGradient3797-5"/>
  <linearGradient id="linearGradient1126-7" x1="144" x2="144" y1="68" y2="244" gradientTransform="matrix(.072222 0 0 .072222 -2.75 -3.2919)" gradientUnits="userSpaceOnUse">
   <stop stop-color="#fff" offset="0"/>
   <stop stop-color="#f2f2f2" offset="1"/>
  </linearGradient>
  <linearGradient id="linearGradient1128-5" x1="135" x2="135" y1="248.92" y2="63.777" gradientTransform="matrix(.072222 0 0 .072222 -2.75 -3.2919)" gradientUnits="userSpaceOnUse" xlink:href="#linearGradient982"/>
  <linearGradient id="linearGradient993" x1="328" x2="328" y1="238" y2="250" gradientTransform="rotate(-90,328,244)" gradientUnits="userSpaceOnUse">
   <stop stop-color="#fff" offset="0"/>
   <stop stop-color="#fff" stop-opacity=".098039" offset=".125"/>
   <stop stop-color="#fff" stop-opacity=".098039" offset=".925"/>
   <stop stop-color="#fff" stop-opacity=".49804" offset="1"/>
  </linearGradient>
  <clipPath id="clipPath983">
   <path d="m325.1 237c-2.8077 0-3.1098 0.28839-3.096 3.1018v3.8982 3.8982c-0.0138 2.8134 0.28834 3.1018 3.096 3.1018h5.8075c2.8077 0 3.096-0.28835 3.096-3.1018v-3.8982-3.8982c0-2.8134-0.28835-3.1018-3.096-3.1018z" color="#000000" fill="#46a926"/>
  </clipPath>
  <linearGradient id="linearGradient1155-3" x1="328" x2="328" y1="250.5" y2="237.5" gradientTransform="translate(-320,-236)" gradientUnits="userSpaceOnUse" xlink:href="#linearGradient982"/>
 </defs>
 <path d="m7 1.5v13h1 4.1758c3.0144 0 3.3242-0.31186 3.3242-3.3535v-6.291c0-3.0417-0.3099-3.3704-3.3242-3.3555h-4.1758z" color="#000000" fill="url(#linearGradient3763-3)"/>
 <path d="m15.5 5.596c0-0.71904-0.0139-1.3018-0.10352-1.8359-0.0897-0.53409-0.27628-1.0683-0.68359-1.4766-0.4073-0.40826-0.94323-0.59657-1.4785-0.68554-0.53529-0.089-1.1205-0.10119-1.8418-0.0977h-2.8926-3.8984c-0.71816-3e-3 -1.3024 9e-3 -1.8359 0.0977-0.53528 0.089-1.0712 0.27727-1.4785 0.68554-0.40731 0.40827-0.59394 0.94248-0.68359 1.4766-0.0897 0.53408-0.10352 1.1169-0.10352 1.8359v5.8086c0 0.71904 0.0137 1.3006 0.10352 1.834 0.0898 0.53341 0.27792 1.0677 0.68554 1.4746s0.94271 0.59404 1.4766 0.68359c0.53386 0.0896 1.1155 0.10352 1.8359 0.10352h3.8984 2.8984c0.72043 0 1.3021-0.014 1.8359-0.10352 0.53385-0.0895 1.0689-0.27666 1.4766-0.68359s0.59578-0.9412 0.68554-1.4746c0.0898-0.5334 0.10352-1.1149 0.10352-1.834z" color="#000000" color-rendering="auto" dominant-baseline="auto" image-rendering="auto" opacity=".1" shape-rendering="auto" solid-color="#000000" style="font-feature-settings:normal;font-variant-alternates:normal;font-variant-caps:normal;font-variant-ligatures:normal;font-variant-numeric:normal;font-variant-position:normal;isolation:auto;mix-blend-mode:normal;shape-padding:0;text-decoration-color:#000000;text-decoration-line:none;text-decoration-style:solid;text-indent:0;text-orientation:mixed;text-transform:none;white-space:normal"/>
 <path d="m15.5 4.8545c0-3.0417-0.30899-3.3689-3.3233-3.354h-4.1767-4.1767c-3.0143-0.0149-3.3233 0.31237-3.3233 3.354v6.2915c0 3.0417 0.30895 3.354 3.3233 3.354h4.1767 4.1767c3.0144 0 3.3233-0.31238 3.3233-3.354z" color="#000000" fill="url(#linearGradient3763-3)"/>
 <path d="m7 1.5v13h1 4.1758c3.0144 0 3.3242-0.31186 3.3242-3.3535v-6.291c0-3.0417-0.3099-3.3704-3.3242-3.3555h-4.1758z" color="#000000" fill="url(#linearGradient1155-3)"/>
 <path d="m7 5.0177c0.0825-6e-3 0.16505-0.0118 0.24803-0.0146 3.1964-0.10773 5.2791 2.6216 5.2791 2.6216s-2.392 2.9086-4.8841 2.9086c-0.2284 0-0.44225-0.0212-0.64308-0.0567l4e-5 0.7761c0.17173 0.0218 0.34976 0.0347 0.53557 0.0347 2.319 0 3.9962-1.1843 5.6201-2.586 0.26923 0.21562 1.3715 0.74015 1.5981 0.96985-1.544 1.2927-5.1426 2.3347-7.1827 2.3347-0.19664 0-0.38546-0.0119-0.57109-0.0297zm0.35517 0.66588c-0.0355 1.4e-4 -0.0712 1e-3 -0.10714 2e-3 -0.0841 3e-3 -0.16634 7e-3 -0.24803 0.0128v0.84054c0.15032-0.0161 0.30347-0.0274 0.46363-0.0274 1.4724 0 2.3457 1.1455 2.3457 1.1455l-1.1965 1.0089c-0.53797-0.89679-0.71806-1.292-1.6129-1.4002v2.5485c0.2028 0.0682 0.42811 0.10857 0.67944 0.10857 1.7464 0 3.3752-2.2621 3.3752-2.2621s-1.4613-1.984-3.6995-1.9771z" enable-background="new" opacity=".2" stroke-miterlimit="10" stroke-width="0"/>
 <path d="m7 5.0238c-2.8116 0.2258-5.2463 2.607-5.2463 2.607s1.379 3.9864 5.2463 4.3514v-0.72335c-2.838-0.35708-3.8097-3.4848-3.8097-3.4848s1.2714-1.8758 3.8097-2.0698zm0 1.515c-1.7104 0.18495-2.7402 1.3258-2.7402 1.3258s0.59532 2.2297 2.7402 2.6121v-0.66255c-1.2093-0.40629-1.6023-1.8181-1.6023-1.8181s0.70133-0.83855 1.599-0.73082c1e-3 0 2e-3 3.7e-4 4e-3 3.7e-4z" enable-background="new" opacity=".3" stroke-miterlimit="10" stroke-width="0"/>
 <path d="m7 4.5147c0.0825-6e-3 0.16505-0.0118 0.24803-0.0146 3.1964-0.10773 5.2791 2.6216 5.2791 2.6216s-2.392 2.9086-4.8841 2.9086c-0.2284 0-0.44225-0.0212-0.64308-0.0567l4e-5 0.7761c0.17173 0.0218 0.34976 0.0347 0.53557 0.0347 2.319 0 3.9962-1.1843 5.6201-2.586 0.26923 0.21562 1.3715 0.74015 1.5981 0.96985-1.544 1.2927-5.1426 2.3347-7.1827 2.3347-0.19664 0-0.38546-0.0119-0.57109-0.0297zm0.35517 0.66588c-0.0355 1.4e-4 -0.0712 1e-3 -0.10714 2e-3 -0.0841 3e-3 -0.16634 7e-3 -0.24803 0.0128v0.84054c0.15032-0.0161 0.30347-0.0274 0.46363-0.0274 1.4724 0 2.3457 1.1455 2.3457 1.1455l-1.1965 1.0089c-0.53797-0.89679-0.71806-1.292-1.6129-1.4002v2.5485c0.2028 0.0682 0.42811 0.10857 0.67944 0.10857 1.7464 0 3.3752-2.2621 3.3752-2.2621s-1.4613-1.984-3.6995-1.9771z" enable-background="new" fill="url(#linearGradient1126-7)" stroke-miterlimit="10" stroke-width="0"/>
 <path d="m7 4.5208c-2.8116 0.2258-5.2463 2.6072-5.2463 2.6072s1.379 3.9862 5.2463 4.3512v-0.72335c-2.838-0.35708-3.8097-3.4848-3.8097-3.4848s1.2714-1.8758 3.8097-2.0698zm0 1.515c-1.7104 0.18495-2.7402 1.3258-2.7402 1.3258s0.59532 2.2297 2.7402 2.6121v-0.66255c-1.2093-0.40629-1.6023-1.8181-1.6023-1.8181s0.70133-0.83855 1.599-0.73082c1e-3 0 2e-3 3.7e-4 4e-3 3.7e-4z" enable-background="new" fill="url(#linearGradient1128-5)" stroke-miterlimit="10" stroke-width="0"/>
 <path d="m0.5 7.128v4.0185c0 3.0417 0.30986 3.3535 3.3242 3.3535h4.1758 4.1758c3.0144 0 3.3242-0.31186 3.3242-3.3535v-4.0185z" color="#000000" fill="url(#linearGradient3763-3)" opacity=".2"/>
 <path transform="rotate(90 286 -34)" d="m325.1 237c-2.8077 0-3.1098 0.28839-3.096 3.1018v3.8982 3.8982c-0.0138 2.8134 0.28834 3.1018 3.096 3.1018h5.8075c2.8077 0 3.096-0.28835 3.096-3.1018v-3.8982-3.8982c0-2.8134-0.28835-3.1018-3.096-3.1018z" clip-path="url(#clipPath983)" color="#000000" fill="none" opacity=".7" stroke="url(#linearGradient993)" stroke-width="2"/>
 <path d="m15.512 4.9136c0-2.8973-0.30259-3.4401-3.2545-3.4249h-4.2572-4.2572c-2.952-0.0152-3.2545 0.52756-3.2545 3.4249v6.1733c0 2.8966 0.30255 3.4249 3.2545 3.4249h4.2572 4.2572c2.952 0 3.2545-0.52828 3.2545-3.4249z" color="#000000" fill="none" opacity=".4" stroke="#000" stroke-width=".97653"/>
</svg>
