<svg width="16" height="16" version="1" xmlns="http://www.w3.org/2000/svg" xmlns:xlink="http://www.w3.org/1999/xlink">
 <defs>
  <linearGradient id="linearGradient1178" x1="329" x2="329" y1="239" y2="249" gradientTransform="translate(-321 -236)" gradientUnits="userSpaceOnUse" xlink:href="#linearGradient1048"/>
  <linearGradient id="linearGradient1048">
   <stop stop-color="#cdcdcd" offset="0"/>
   <stop stop-color="#d9d9d9" offset="1"/>
  </linearGradient>
  <linearGradient id="linearGradient1205" x1="328" x2="328" y1="239" y2="248" gradientUnits="userSpaceOnUse">
   <stop stop-color="#fff" offset="0"/>
   <stop stop-color="#fff" stop-opacity=".098039" offset=".125"/>
   <stop stop-color="#fff" stop-opacity=".098039" offset=".925"/>
   <stop stop-color="#fff" stop-opacity=".49804" offset="1"/>
  </linearGradient>
  <clipPath id="clipPath1193">
   <path d="m324 239c-1.2585 0.0147-2.0872 0.0598-2.4531 0.26172-0.18343 0.10119-0.28912 0.21275-0.38672 0.47266-0.09756 0.2599-0.16016 0.67322-0.16016 1.2656v5c0 0.5924 0.0626 1.0057 0.16016 1.2656 0.0976 0.25992 0.20329 0.37146 0.38672 0.47266 0.36594 0.20192 1.1946 0.24702 2.4531 0.26172h6e-3 6.994c1.2585-0.0147 2.0872-0.0598 2.4531-0.26172 0.18343-0.10119 0.28912-0.21275 0.38672-0.47266 0.09756-0.2599 0.16016-0.67322 0.16016-1.2656v-5c0-0.5924-0.0627-1.0057-0.16016-1.2656-0.0976-0.25992-0.20329-0.37146-0.38672-0.47266-0.36594-0.20192-1.1946-0.24702-2.4531-0.26172z" color="#000000" fill="url(#linearGradient1197)"/>
  </clipPath>
  <linearGradient id="linearGradient963" x1="322" x2="333.01" y1="243.5" y2="243.5" gradientTransform="translate(-320 -236)" gradientUnits="userSpaceOnUse">
   <stop stop-color="#5d5d5d" offset="0"/>
   <stop stop-color="#888" offset="1"/>
  </linearGradient>
 </defs>
 <path d="m14.5 11c0 2.5-0.97828 2.4709-3.5 2.5h-6.9999c-2.5218-0.0291-3.5 0-3.5-2.5v-5.0001c0-2.5 0.97827-2.4709 3.5-2.5h6.9999c2.5218 0.0291 3.5 0 3.5 2.5z" color="#000000" fill="none" opacity=".2" stroke="#000"/>
 <path d="m14.5 10c0 2.5-0.97828 2.4709-3.5 2.5h-6.9999c-2.5218-0.0291-3.5 0-3.5-2.5v-5.0001c0-2.5 0.97827-2.4709 3.5-2.5h6.9999c2.5218 0.0291 3.5 0 3.5 2.5z" color="#000000" fill="url(#linearGradient1178)"/>
 <path d="m14.5 10c0 2.5-0.97828 2.4709-3.5 2.5h-6.9999c-2.5218-0.0291-3.5 0-3.5-2.5v-5.0001c0-2.5 0.97827-2.4709 3.5-2.5h6.9999c2.5218 0.0291 3.5 0 3.5 2.5z" color="#000000" fill="none" opacity=".3" stroke="#000"/>
 <path transform="translate(-320 -236)" d="m324 239c-1.2585 0.0147-2.0872 0.0598-2.4531 0.26172-0.18343 0.10119-0.28912 0.21275-0.38672 0.47266-0.09756 0.2599-0.16016 0.67322-0.16016 1.2656v5c0 0.5924 0.0626 1.0057 0.16016 1.2656 0.0976 0.25992 0.20329 0.37146 0.38672 0.47266 0.36594 0.20192 1.1946 0.24702 2.4531 0.26172h6e-3 6.994c1.2585-0.0147 2.0872-0.0598 2.4531-0.26172 0.18343-0.10119 0.28912-0.21275 0.38672-0.47266 0.09756-0.2599 0.16016-0.67322 0.16016-1.2656v-5c0-0.5924-0.0627-1.0057-0.16016-1.2656-0.0976-0.25992-0.20329-0.37146-0.38672-0.47266-0.36594-0.20192-1.1946-0.24702-2.4531-0.26172z" clip-path="url(#clipPath1193)" color="#000000" fill="none" opacity=".5" stroke="url(#linearGradient1205)" stroke-width="2"/>
 <path d="m3 5v1h1v-1zm2 0v1h1v-1zm2 0v1h1v-1zm2 0v1h1v-1zm2 0v1h1v-1zm-7.002 2 4e-3 1h0.99796v-1zm2.002 0v1h1v-1zm2 0v1h1v-1zm2 0v1h1v-1zm-7 2v1h1v-1zm2 0v1h5v-1zm6 0 0.0117 1h0.99415l-0.0117-1z" color="#000000" color-rendering="auto" dominant-baseline="auto" fill="url(#linearGradient1178)" fill-rule="evenodd" image-rendering="auto" shape-rendering="auto" solid-color="#000000" style="font-feature-settings:normal;font-variant-alternates:normal;font-variant-caps:normal;font-variant-ligatures:normal;font-variant-numeric:normal;font-variant-position:normal;isolation:auto;mix-blend-mode:normal;shape-padding:0;text-decoration-color:#000000;text-decoration-line:none;text-decoration-style:solid;text-indent:0;text-orientation:mixed;text-transform:none;white-space:normal"/>
 <path d="m3 5v1h1v-1zm2 0v1h1v-1zm2 0v1h1v-1zm2 0v1h1v-1zm2 0v1h1v-1zm-7.002 2 4e-3 1h0.99796v-1zm2.002 0v1h1v-1zm2 0v1h1v-1zm2 0v1h1v-1zm-7 2v1h1v-1zm2 0v1h5v-1zm6 0 0.0117 1h0.99415l-0.0117-1z" color="#000000" color-rendering="auto" dominant-baseline="auto" fill="url(#linearGradient963)" fill-rule="evenodd" image-rendering="auto" opacity=".5" shape-rendering="auto" solid-color="#000000" stroke="#000" stroke-linejoin="round" stroke-width="2" style="font-feature-settings:normal;font-variant-alternates:normal;font-variant-caps:normal;font-variant-ligatures:normal;font-variant-numeric:normal;font-variant-position:normal;isolation:auto;mix-blend-mode:normal;shape-padding:0;text-decoration-color:#000000;text-decoration-line:none;text-decoration-style:solid;text-indent:0;text-orientation:mixed;text-transform:none;white-space:normal"/>
 <path d="m3 5.5v1h1v-1zm2 0v1h1v-1zm2 0v1h1v-1zm2 0v1h1v-1zm2 0v1h1v-1zm-7.002 2 4e-3 1h0.99796v-1zm2.002 0v1h1v-1zm2 0v1h1v-1zm2 0v1h1v-1zm-7 2v1h1v-1zm2 0v1h5v-1zm6 0 0.0117 1h0.99415l-0.0117-1z" color="#000000" color-rendering="auto" dominant-baseline="auto" fill-rule="evenodd" image-rendering="auto" opacity=".25" shape-rendering="auto" solid-color="#000000" style="font-feature-settings:normal;font-variant-alternates:normal;font-variant-caps:normal;font-variant-ligatures:normal;font-variant-numeric:normal;font-variant-position:normal;isolation:auto;mix-blend-mode:normal;shape-padding:0;text-decoration-color:#000000;text-decoration-line:none;text-decoration-style:solid;text-indent:0;text-orientation:mixed;text-transform:none;white-space:normal"/>
 <path d="m3 5v1h1v-1zm2 0v1h1v-1zm2 0v1h1v-1zm2 0v1h1v-1zm2 0v1h1v-1zm-7.002 2 4e-3 1h0.99796v-1zm2.002 0v1h1v-1zm2 0v1h1v-1zm2 0v1h1v-1zm-7 2v1h1v-1zm2 0v1h5v-1zm6 0 0.0117 1h0.99415l-0.0117-1z" color="#000000" color-rendering="auto" dominant-baseline="auto" fill="#fff" fill-rule="evenodd" image-rendering="auto" shape-rendering="auto" solid-color="#000000" style="font-feature-settings:normal;font-variant-alternates:normal;font-variant-caps:normal;font-variant-ligatures:normal;font-variant-numeric:normal;font-variant-position:normal;isolation:auto;mix-blend-mode:normal;shape-padding:0;text-decoration-color:#000000;text-decoration-line:none;text-decoration-style:solid;text-indent:0;text-orientation:mixed;text-transform:none;white-space:normal"/>
</svg>
