<svg width="16" height="16" version="1" xmlns="http://www.w3.org/2000/svg" xmlns:xlink="http://www.w3.org/1999/xlink">
 <defs>
  <linearGradient id="linearGradient1692-3" x1="320" x2="336" y1="246" y2="242" gradientTransform="rotate(90 286 -34)" gradientUnits="userSpaceOnUse">
   <stop stop-color="#4d4d4d" offset="0"/>
   <stop stop-color="#4d4d4d" offset="1"/>
  </linearGradient>
  <linearGradient id="linearGradient1686-7-5-6-6" x1="320" x2="368" y1="92" y2="76" gradientTransform="matrix(0 .35562 -.35562 0 37.273 -114.84)" gradientUnits="userSpaceOnUse">
   <stop stop-color="#46a926" offset="0"/>
   <stop stop-color="#a6d74f" offset="1"/>
  </linearGradient>
  <linearGradient id="linearGradient1692-6" x1="321" x2="335" y1="244" y2="244" gradientTransform="rotate(90 286 -34)" gradientUnits="userSpaceOnUse">
   <stop stop-color="#fff" offset="0"/>
   <stop stop-color="#fff" stop-opacity=".098039" offset=".125"/>
   <stop stop-color="#fff" stop-opacity=".098039" offset=".925"/>
   <stop stop-color="#fff" stop-opacity=".49804" offset="1"/>
  </linearGradient>
 </defs>
 <path d="m4.1286 1c-3.7436 0-4.1464 0.30899-4.128 3.3233v4.1767 4.1767c-0.0183 3.0143 0.38446 3.3233 4.128 3.3233h7.7433c3.7436 0 4.128-0.30895 4.128-3.3233v-4.1767-4.1767c0-3.0144-0.38446-3.3233-4.128-3.3233z" color="#000000" opacity=".1"/>
 <path d="m4.4056 0.50001c-3.476 0-3.8501 0.30899-3.833 3.3233v4.1767 4.1767c-0.017 3.0143 0.35698 3.3233 3.833 3.3233h7.19c3.476 0 3.833-0.30895 3.833-3.3233v-4.1767-4.1767c0-3.0144-0.35699-3.3233-3.833-3.3233z" color="#000000" fill="url(#linearGradient1692-3)"/>
 <path d="m11.284 4.7909c-0.0259-6.6e-4 -0.0516-2.2e-4 -0.0775 1e-3 -0.60876 0.0385-1.0772 0.68633-1.0464 1.4473 0.012 0.27443 0.0891 0.53887 0.22152 0.75828h-3.3813v3.4816c0.21912-0.13227 0.48287-0.2097 0.75693-0.2215h1e-3c0.76096-0.0308 1.4088 0.43761 1.4473 1.0464 0.0389 0.60877-0.54634 1.1281-1.3073 1.1592-0.3222 0.0133-0.64033-0.0651-0.89826-0.22014v3.256l5e-3 1e-3h4.4454c3.5809 0 3.9491-0.30181 3.9491-3.2384v-5.2646h-0.0367-3.218c0.155-0.25791 0.23308-0.57607 0.22015-0.89826v-1e-3c-0.0301-0.72277-0.50147-1.2934-1.0804-1.3073z" color="#000000" fill="url(#linearGradient1686-7-5-6-6)"/>
 <path d="m11.555 15.5c3.337 0 3.9622-0.30212 3.9447-3.2495v-4.2505-4.2506c0.0175-2.9473-0.60763-3.2494-3.9447-3.2494h-7.1102c-3.3362 0-3.9447 0.30208-3.9447 3.2494v4.2506 4.2505c0 2.9474 0.60847 3.2495 3.9447 3.2495z" color="#000000" fill="none" opacity=".4" stroke="#000"/>
 <path d="m4.4453 1c-1.653 0-2.546 0.12548-2.916 0.41406-0.18499 0.14429-0.30479 0.33122-0.39649 0.70313-0.09171 0.37191-0.13281 0.91317-0.13281 1.6328v4.25 4.25c0 0.71964 0.0411 1.2608 0.13281 1.6328 0.0917 0.37191 0.2115 0.55884 0.39649 0.70313 0.36997 0.28858 1.263 0.41406 2.916 0.41406h7.1094c1.6534 0 2.552-0.12511 2.9238-0.41406 0.18589-0.14448 0.30578-0.33208 0.39648-0.70313s0.129-0.90979 0.125-1.6289v-2e-3 -4.2519-4.252-2e-3c4e-3 -0.71911-0.0343-1.2578-0.125-1.6289s-0.21059-0.55865-0.39648-0.70313c-0.37179-0.2889-1.2704-0.41402-2.9238-0.41402zm5.3281 1.0469c1.1077-3.4e-4 2.2136 8e-3 3.3203 0.0449 0.26616 0.0599 0.75737-0.0208 0.79297 0.3457 0.13405 1.8444 0.0662 3.6877 0.10156 5.5391-0.0126 1.8674 0.0543 3.6703-0.10351 5.498 0.0642 0.42314-0.43946 0.35577-0.70313 0.42187-3.4328 0.0703-6.8758 0.0589-10.299 2e-3 -0.22288-0.0398-0.55622-3.2e-4 -0.71093-0.1875-0.19863-1.13-0.12696-2.2695-0.16016-3.4199 0.0138-2.5565-0.029-5.1073 0.0898-7.6562-0.03-0.2727 0.10944-0.49629 0.40039-0.48829 1.3066-0.161 2.6326-0.0636 3.9473-0.0976 1.1072 6e-3 2.2166-2e-3 3.3242-2e-3z" color="#000000" fill="url(#linearGradient1692-6)"/>
</svg>
