<svg width="16" height="16" version="1" xmlns="http://www.w3.org/2000/svg" xmlns:xlink="http://www.w3.org/1999/xlink">
 <defs>
  <linearGradient id="linearGradient4109" x1="77" x2="227" y1="156" y2="156" gradientTransform="matrix(0 -.1 -.1 0 23.6 23.2)" gradientUnits="userSpaceOnUse">
   <stop stop-color="#e6e6e6" offset="0"/>
   <stop stop-color="#f2f2f2" offset="1"/>
  </linearGradient>
  <linearGradient id="linearGradient8590-3-3-4" x1="96" x2="96" y1="4" y2="188" gradientTransform="matrix(.076087 0 0 .076087 .69566 .69567)" gradientUnits="userSpaceOnUse">
   <stop stop-color="#fff" offset="0"/>
   <stop stop-color="#fff" stop-opacity=".098039" offset=".125"/>
   <stop stop-color="#fff" stop-opacity=".098039" offset=".925"/>
   <stop stop-color="#fff" stop-opacity=".49804" offset="1"/>
  </linearGradient>
 </defs>
 <ellipse transform="scale(-1)" cx="-8" cy="-8.5" rx="7" ry="6.5" enable-background="new" opacity=".1"/>
 <g transform="matrix(.1 0 0 .1 -7.2 -7.6)" enable-background="new" stroke-width="10">
  <g stroke-width="10">
   <path d="m153.36 230.99a75 75 0 0 1-74.784-59.692 75 75 0 0 1 44.728-84.589 75 75 0 0 1 91.436 28.2l-62.74 41.093z" fill="#f76363"/>
   <path d="m209.45 107.79a75 75 0 0 1 5.5636 88.877l-63.017-40.668z" fill="#5884f4"/>
   <path d="m195.04 217.42a75 75 0 0 1-62.45 11.023l19.411-72.444z" fill="#76c22b"/>
   <path d="m219.97 187.7a75 75 0 0 1-30.473 33.256l-37.5-64.952z" fill="#fdc92b"/>
  </g>
 </g>
 <path d="m8 0.49999c-4.1421 0-7.5 3.3579-7.5 7.5 0 4.1421 3.3579 7.5 7.5 7.5s7.5-3.3579 7.5-7.5c0-4.1421-3.3579-7.5-7.5-7.5z" enable-background="new" fill="url(#linearGradient4109)" opacity=".2"/>
 <circle cx="8" cy="8" r="7.5" enable-background="new" fill="none" opacity=".4" stroke="#000" stroke-dashoffset="6.6" stroke-linejoin="round"/>
 <path d="m8 1c-3.866 0-7 3.134-7 7 0 3.866 3.134 7 7 7 3.866 0 7-3.134 7-7 0-3.866-3.134-7-7-7zm0 1a6 6 0 0 1 6 6 6 6 0 0 1-6 6 6 6 0 0 1-6-6 6 6 0 0 1 6-6z" enable-background="new" fill="url(#linearGradient8590-3-3-4)"/>
</svg>
