<svg width="16" height="16" version="1" xmlns="http://www.w3.org/2000/svg" xmlns:xlink="http://www.w3.org/1999/xlink">
 <defs>
  <linearGradient id="linearGradient4878" x1="321" x2="335" y1="247" y2="241" gradientTransform="rotate(90 286 -34)" gradientUnits="userSpaceOnUse">
   <stop stop-color="#d280b9" offset="0"/>
   <stop stop-color="#b549b5" offset=".52913"/>
   <stop stop-color="#8940a8" offset="1"/>
  </linearGradient>
  <linearGradient id="linearGradient4878-4" x1="322" x2="334" y1="245" y2="245" gradientTransform="rotate(90 286 -34)" gradientUnits="userSpaceOnUse">
   <stop stop-color="#fff" offset="0"/>
   <stop stop-color="#fff" stop-opacity=".098039" offset=".125"/>
   <stop stop-color="#fff" stop-opacity=".098039" offset=".925"/>
   <stop stop-color="#fff" stop-opacity=".49804" offset="1"/>
  </linearGradient>
 </defs>
 <path d="m16 6.0957c0-0.71904-0.0148-1.3018-0.11042-1.8359-0.0957-0.53409-0.2947-1.0683-0.72916-1.4766-0.43446-0.40826-1.0061-0.59657-1.5771-0.68554-0.57098-0.089-1.1952-0.10119-1.9646-0.0977h-3.0854-4.1583c-0.76604-3e-3 -1.3892 9e-3 -1.9583 0.0977-0.57096 0.089-1.1426 0.27727-1.5771 0.68554-0.43447 0.40827-0.63354 0.94248-0.72917 1.4766-0.0957 0.53408-0.11042 1.1169-0.11042 1.8359v5.8086c0 0.71904 0.0146 1.3006 0.11042 1.834 0.0958 0.53341 0.29645 1.0677 0.73125 1.4746 0.43479 0.40693 1.0056 0.59404 1.575 0.68359 0.56945 0.0896 1.1899 0.10352 1.9583 0.10352h4.1583 3.0917c0.76846 0 1.3889-0.014 1.9583-0.10352 0.56944-0.0895 1.1402-0.27666 1.575-0.68359 0.43479-0.40693 0.6355-0.9412 0.73124-1.4746 0.0958-0.5334 0.11042-1.1149 0.11042-1.834z" color="#000000" color-rendering="auto" dominant-baseline="auto" image-rendering="auto" opacity=".1" shape-rendering="auto" solid-color="#000000" style="font-feature-settings:normal;font-variant-alternates:normal;font-variant-caps:normal;font-variant-ligatures:normal;font-variant-numeric:normal;font-variant-position:normal;isolation:auto;mix-blend-mode:normal;shape-padding:0;text-decoration-color:#000000;text-decoration-line:none;text-decoration-style:solid;text-indent:0;text-orientation:mixed;text-transform:none;white-space:normal"/>
 <path d="m15.5 4.8545c0-3.0417-0.30899-3.3689-3.3233-3.354h-4.1767-4.1767c-3.0143-0.0149-3.3233 0.31237-3.3233 3.354v6.2915c0 3.0417 0.30895 3.354 3.3233 3.354h4.1767 4.1767c3.0144 0 3.3233-0.31238 3.3233-3.354z" color="#000000" fill="url(#linearGradient4878)"/>
 <path d="m6 5v3h1v-3zm-2 1v2h1v-2zm4 0v2h1v-2zm-6 1v1h1v-1zm8 0v1h1v-1zm2-1v2h1v-2z" enable-background="new" fill="#f3e8f0" stroke-width=".5"/>
 <path d="m6 11v-3h1v3zm-2-1v-2h1v2zm4 0v-2h1v2zm-6-1v-1h1v1zm8 0v-1h1v1zm2 1v-2h1v2z" enable-background="new" fill="#faf8f6" opacity=".7" stroke-width=".5"/>
 <path d="m15.5 4.9191c0-2.8921-0.30212-3.4339-3.2494-3.4187h-4.2505-4.2506c-2.9473-0.0152-3.2494 0.52661-3.2494 3.4187v6.1622c0 2.8914 0.30208 3.4187 3.2494 3.4187h4.2506 4.2505c2.9474 0 3.2494-0.52733 3.2494-3.4187z" color="#000000" fill="none" opacity=".4" stroke="#000"/>
 <path d="m3.7461 2c-0.72147-4e-3 -1.2652 0.0309-1.6445 0.11133-0.37928 0.0804-0.57351 0.19073-0.70898 0.34179-0.27096 0.30216-0.39258 1.0382-0.39258 2.4668v6.1621c0 1.4283 0.11996 2.1582 0.39062 2.459 0.13534 0.15037 0.33287 0.26059 0.7129 0.34179 0.38002 0.08119 0.92455 0.11719 1.6465 0.11719h4.25 4.25c0.72193 0 1.2665-0.036 1.6465-0.11719 0.38003-0.0812 0.57756-0.19142 0.7129-0.34179 0.27066-0.30075 0.39062-1.0307 0.39062-2.459v-6.1621c0-1.4286-0.12162-2.1646-0.39258-2.4668-0.13548-0.15106-0.3297-0.26139-0.70898-0.34179s-0.92306-0.11533-1.6445-0.11133h-2e-3 -4.2519-4.252zm1.7285 1.0137c1.7894-2e-3 3.5797 6e-3 5.3691 0.0156 0.93326 0.0249 1.8749-0.0297 2.8027 0.0762 0.24823-0.012 0.23037 0.25855 0.25977 0.43555 0.0929 1.7516 0.0355 3.5083 0.0527 5.2617-0.0216 1.2878 0.0446 2.5823-0.082 3.8652 0.011 0.26053-0.30576 0.20235-0.47461 0.25195-0.93118 0.0703-1.877 0.0323-2.8379 0.0508-2.6354-2e-3 -5.2827 0.0273-7.9082-0.0391-0.17166-0.0598-0.51095 0.0111-0.53125-0.23633-0.132-1.1702-0.0633-2.3552-0.0859-3.5312 0.0153-1.8579-0.0377-3.7178 0.043-5.5742 0.0491-0.13737 4e-3 -0.38481 0.15039-0.44922 1.0683-0.19171 2.1625-0.094 3.2422-0.12695z" color="#000000" fill="url(#linearGradient4878-4)"/>
</svg>
