<svg width="16" height="16" version="1" xmlns="http://www.w3.org/2000/svg" xmlns:xlink="http://www.w3.org/1999/xlink">
 <defs>
  <linearGradient id="linearGradient1692" x1="320" x2="336" y1="247" y2="241" gradientTransform="rotate(90 286 -34)" gradientUnits="userSpaceOnUse">
   <stop stop-color="#37a6e6" offset="0"/>
   <stop stop-color="#6dc7f1" offset="1"/>
  </linearGradient>
  <linearGradient id="linearGradient1692-6" x1="321" x2="335" y1="244" y2="244" gradientTransform="rotate(90 286 -34)" gradientUnits="userSpaceOnUse">
   <stop stop-color="#fff" offset="0"/>
   <stop stop-color="#fff" stop-opacity=".098039" offset=".125"/>
   <stop stop-color="#fff" stop-opacity=".098039" offset=".925"/>
   <stop stop-color="#fff" stop-opacity=".49804" offset="1"/>
  </linearGradient>
 </defs>
 <path d="m4.1286 1c-3.7436 0-4.1464 0.30899-4.128 3.3233v4.1767 4.1767c-0.0183 3.0143 0.38446 3.3233 4.128 3.3233h7.7433c3.7436 0 4.128-0.30895 4.128-3.3233v-4.1767-4.1767c0-3.0144-0.38446-3.3233-4.128-3.3233z" color="#000000" opacity=".1"/>
 <path d="m4.4056 0.50001c-3.476 0-3.8501 0.30899-3.833 3.3233v4.1767 4.1767c-0.017 3.0143 0.35698 3.3233 3.833 3.3233h7.19c3.476 0 3.833-0.30895 3.833-3.3233v-4.1767-4.1767c0-3.0144-0.35699-3.3233-3.833-3.3233z" color="#000000" fill="url(#linearGradient1692)"/>
 <path d="m8.0007 2.9101c-0.62965 0-1.1387 0.50581-1.1385 1.1302-1.4e-4 0.48518 0.4378 0.88592 0.87065 1.0464 5.4e-4 0.0781-5.4e-4 0.15628 0 0.2344h-2.0176c-0.0699 0-0.12557 0.0556-0.12557 0.12558v0.28463c0 0.0699 0.0556 0.12558 0.12557 0.12558h2.0176c9e-3 1.8248 0.0114 3.6501 0 5.475 3e-3 0.045-0.1475 0.0906-0.18418 0.1172-0.10382 0.0771-0.22401 0.10524-0.3516 0.10883-0.20289-1e-3 -0.3333-0.0555-0.52741-0.10883-0.43838-0.12735-0.854-0.30594-1.2557-0.51904-0.16915-0.0932-0.33506-0.1805-0.48556-0.30138-0.0649-0.055-0.14084-0.13517-0.13394-0.22603 9e-3 -0.0688 0.0409-0.13811 0.1172-0.15069 0.0687-0.0108 0.13177 0.0191 0.19255 0.0419 0.0524 0.0224 0.0921-0.0321 0.0837-0.0754-8e-3 -0.11397-0.0494-0.21946-0.10883-0.31812-0.12365-0.20206-0.31316-0.35632-0.51067-0.48555-0.21087-0.13379-0.43567-0.27995-0.56927-0.49393-0.0266-0.0395-0.0577-0.10474-0.1172-0.0837-0.0828 0.0267-0.12689 0.10633-0.16743 0.1758-0.11407 0.21565-0.17461 0.44991-0.22603 0.68647-0.0423 0.18823-0.0483 0.38585-0.0335 0.57764 0.0153 0.1919 0.0306 0.3817 0.10883 0.5609 0.0493 0.11777 0.13966 0.2176 0.22603 0.30975 0.0551-0.0579 0.10268-0.1191 0.15907-0.1758 0.0731-0.0729 0.16932-0.12298 0.27626-0.10883 0.14554 0.0186 0.27909 0.10878 0.39346 0.19254 0.16111 0.12447 0.31303 0.25588 0.47718 0.37672 0.25975 0.19721 0.54285 0.33716 0.83716 0.47719 0.24521 0.11312 0.49899 0.22612 0.75345 0.31812 0.0456 0.0198 0.0959 0.017 0.14232 0.0335 0.45796 0.18922 0.84665 0.40899 1.1636 0.80368 5.4e-4 5e-3 -5.4e-4 0.0199 0 0.0251 4e-3 -5e-3 5e-3 -4e-3 8e-3 -8e-3 4e-3 5e-3 5e-3 4e-3 8e-3 8e-3 2e-3 -0.0109-2e-3 -0.0225 0-0.0335 0.316-0.39012 0.70846-0.60722 1.1636-0.79531 0.0464-0.0165 0.0967-0.0137 0.14232-0.0335 0.25446-0.092 0.50823-0.205 0.75344-0.31812 0.29432-0.14003 0.57741-0.27998 0.83716-0.47719 0.16415-0.12084 0.31607-0.25225 0.47718-0.37672 0.11438-0.0838 0.24792-0.17393 0.39347-0.19254 0.10693-0.0142 0.20319 0.036 0.27626 0.10883 0.0564 0.0567 0.10395 0.11791 0.15906 0.1758 0.0864-0.0921 0.17677-0.19198 0.22603-0.30975 0.0782-0.1792 0.0935-0.369 0.10883-0.5609 0.0148-0.19179 9e-3 -0.38941-0.0335-0.57764-0.0514-0.23656-0.11197-0.47082-0.22604-0.68647-0.0405-0.0695-0.0847-0.14913-0.16743-0.1758-0.0595-0.021-0.0906 0.0442-0.1172 0.0837-0.1336 0.21398-0.3584 0.36014-0.56927 0.49393-0.19751 0.12923-0.38701 0.28349-0.51067 0.48555-0.0594 0.0987-0.1004 0.20415-0.10883 0.31812-8e-3 0.0433 0.0313 0.0978 0.0837 0.0754 0.0608-0.0228 0.12382-0.0527 0.19255-0.0419 0.0763 0.0126 0.10844 0.0819 0.1172 0.15069 7e-3 0.0909-0.0691 0.17105-0.13395 0.22603-0.1505 0.12088-0.3164 0.20821-0.48555 0.30138-0.40175 0.2131-0.81737 0.39169-1.2557 0.51904-0.19412 0.0534-0.32453 0.10758-0.52741 0.10883-0.12759-4e-3 -0.24778-0.0318-0.35161-0.10883-0.0367-0.0266-0.18704-0.0722-0.18417-0.1172v-5.475h2.0175c0.0699 0 0.12558-0.0556 0.12558-0.12558v-0.28463c0-0.0699-0.0556-0.12558-0.12558-0.12558h-2.0175v-0.2344c0.43285-0.16053 0.87079-0.56127 0.87064-1.0464 1.9e-4 -0.62436-0.50888-1.1302-1.1385-1.1302zm-0.0251 0.55253c0.30566 0 0.56099 0.24107 0.5609 0.54415 9e-5 0.30309-0.25524 0.55253-0.5609 0.55253s-0.55262-0.24944-0.55253-0.55253c-9e-5 -0.30308 0.24687-0.54415 0.55253-0.54415z" enable-background="new" fill="#2f739b" stroke-width="4.0005"/>
 <path d="m11.555 15.5c3.337 0 3.9622-0.30212 3.9447-3.2495v-4.2505-4.2506c0.0175-2.9473-0.60763-3.2494-3.9447-3.2494h-7.1102c-3.3362 0-3.9447 0.30208-3.9447 3.2494v4.2506 4.2505c0 2.9474 0.60847 3.2495 3.9447 3.2495z" color="#000000" fill="none" opacity=".4" stroke="#000"/>
 <path d="m4.4453 1c-1.653 0-2.546 0.12548-2.916 0.41406-0.18499 0.14429-0.30479 0.33122-0.39649 0.70313-0.09171 0.37191-0.13281 0.91317-0.13281 1.6328v4.25 4.25c0 0.71964 0.0411 1.2608 0.13281 1.6328 0.0917 0.37191 0.2115 0.55884 0.39649 0.70313 0.36997 0.28858 1.263 0.41406 2.916 0.41406h7.1094c1.6534 0 2.552-0.12511 2.9238-0.41406 0.18589-0.14448 0.30578-0.33208 0.39648-0.70313s0.129-0.90979 0.125-1.6289v-2e-3 -4.2519-4.252-2e-3c4e-3 -0.71911-0.0343-1.2578-0.125-1.6289s-0.21059-0.55865-0.39648-0.70313c-0.37179-0.2889-1.2704-0.41402-2.9238-0.41402zm5.3281 1.0469c1.1077-3.4e-4 2.2136 8e-3 3.3203 0.0449 0.26616 0.0599 0.75737-0.0208 0.79297 0.3457 0.13405 1.8444 0.0662 3.6877 0.10156 5.5391-0.0126 1.8674 0.0543 3.6703-0.10351 5.498 0.0642 0.42314-0.43946 0.35577-0.70313 0.42187-3.4328 0.0703-6.8758 0.0589-10.299 2e-3 -0.22288-0.0398-0.55622-3.2e-4 -0.71093-0.1875-0.19863-1.13-0.12696-2.2695-0.16016-3.4199 0.0138-2.5565-0.029-5.1073 0.0898-7.6562-0.03-0.2727 0.10944-0.49629 0.40039-0.48829 1.3066-0.161 2.6326-0.0636 3.9473-0.0976 1.1072 6e-3 2.2166-2e-3 3.3242-2e-3z" color="#000000" fill="url(#linearGradient1692-6)"/>
</svg>
