<svg width="16" height="16" version="1" xmlns="http://www.w3.org/2000/svg" xmlns:xlink="http://www.w3.org/1999/xlink">
 <defs>
  <linearGradient id="linearGradient8588-0-1-5" x1="13.735" x2="38.1" y1="249.69" y2="292.77" gradientTransform="matrix(.31496 0 0 .31496 .16669 -77.71)" gradientUnits="userSpaceOnUse">
   <stop stop-color="#7839b7" offset="0"/>
   <stop stop-color="#8c59d9" offset="1"/>
  </linearGradient>
  <linearGradient id="linearGradient8590-3-3-4" x1="96" x2="96" y1="4" y2="188" gradientTransform="matrix(.076087 0 0 .076087 .69566 .69567)" gradientUnits="userSpaceOnUse">
   <stop stop-color="#fff" offset="0"/>
   <stop stop-color="#fff" stop-opacity=".098039" offset=".125"/>
   <stop stop-color="#fff" stop-opacity=".098039" offset=".925"/>
   <stop stop-color="#fff" stop-opacity=".49804" offset="1"/>
  </linearGradient>
 </defs>
 <ellipse transform="scale(-1)" cx="-8" cy="-8.5" rx="7" ry="6.5" enable-background="new" opacity=".1"/>
 <circle cx="8" cy="8" r="7.5" enable-background="new" fill="url(#linearGradient8588-0-1-5)"/>
 <circle cx="8" cy="8" r="5" enable-background="new" fill="#fff" opacity=".2"/>
 <ellipse cx="8" cy="8" rx="3.5" ry="3.5" enable-background="new" fill="#fff" opacity=".2"/>
 <path d="m7.995 6.1603c-1.008 0-1.8252 0.81717-1.8252 1.8252 8.3e-4 0.7725 0.48845 1.4606 1.2168 1.7182v4.2963h1.2168v-4.2963c0.72838-0.25752 1.2157-0.94566 1.2168-1.7182 0-1.0081-0.81722-1.8252-1.8252-1.8252z" enable-background="new" fill="#fff" stroke-width="1.2168"/>
 <circle cx="8" cy="8" r="7.5" enable-background="new" fill="none" opacity=".4" stroke="#000" stroke-dashoffset="6.6" stroke-linejoin="round"/>
 <path d="m8 1c-3.866 0-7 3.134-7 7 0 3.866 3.134 7 7 7 3.866 0 7-3.134 7-7 0-3.866-3.134-7-7-7zm0 1a6 6 0 0 1 6 6 6 6 0 0 1-6 6 6 6 0 0 1-6-6 6 6 0 0 1 6-6z" enable-background="new" fill="url(#linearGradient8590-3-3-4)"/>
</svg>
