<svg width="16" height="16" version="1" xmlns="http://www.w3.org/2000/svg" xmlns:xlink="http://www.w3.org/1999/xlink">
 <defs>
  <clipPath id="clipPath951-3-0-0">
   <path d="m188.97 44c72.649 0 83.031 10.357 83.031 82.938v58.125c0 72.581-10.383 82.938-83.031 82.938h-73.938c-72.649 0-83.031-10.357-83.031-82.938v-58.125c0-72.581 10.383-82.938 83.031-82.938z" fill="#8c59d9"/>
  </clipPath>
  <linearGradient id="linearGradient8590-3-3-4" x1="96" x2="96" y1="4" y2="188" gradientTransform="matrix(.076087 0 0 .076087 .69566 .69567)" gradientUnits="userSpaceOnUse">
   <stop stop-color="#fff" offset="0"/>
   <stop stop-color="#fff" stop-opacity=".098039" offset=".125"/>
   <stop stop-color="#fff" stop-opacity=".098039" offset=".925"/>
   <stop stop-color="#fff" stop-opacity=".49804" offset="1"/>
  </linearGradient>
 </defs>
 <ellipse transform="scale(-1)" cx="-8" cy="-8.5" rx="7" ry="6.5" enable-background="new" opacity=".1"/>
 <g transform="matrix(.066903 0 0 .066953 -17.716 1.9324)" enable-background="new" stroke-width=".86634">
  <g transform="matrix(1 0 0 1 232.32 -65.393)" clip-path="url(#clipPath951-3-0-0)" enable-background="new" stroke-width=".86634">
   <g transform="matrix(.5 0 0 .5 -80.051 141.95)" enable-background="new" stroke-width=".86634">
    <path d="m622.25-130.25c-1.5905 1.5905 65.752 158.25 65.752 158.25l-65.752 158.25s-158.25-83.649-158.25-158.25c0-74.599 158.25-158.25 158.25-158.25z" fill="#46a926"/>
    <path d="m305.75 186.25c1.5904-1.5905-65.752-158.25-65.752-158.25l65.752-158.25s158.25 83.649 158.25 158.25c0 74.599-158.25 158.25-158.25 158.25z" fill="#f22c42"/>
    <path d="m622.25-130.25c-1.5904 1.5905-158.25-65.752-158.25-65.752l-158.25 65.752 158.25 158.25z" fill="#ffda64"/>
    <path d="m305.75 186.25 158.25 65.548s156.66-67.139 158.25-65.548l-158.25-158.25z" fill="#2f5fdd"/>
    <path transform="matrix(2 0 0 2 160.1 -283.9)" d="m152 44a112 112 0 0 0-0.0508 2e-3c-0.0125 28.62 10.945 57.244 32.875 79.174l46.322-46.322a112 112 0 0 0-79.146-32.854z" fill="#a6d74f"/>
    <path transform="matrix(2 0 0 2 160.1 -283.9)" d="m231.15 76.854-46.322 46.322c21.93 21.93 50.554 32.887 79.174 32.875a112 112 0 0 0 0.00195-0.05078 112 112 0 0 0-32.854-79.146z" fill="#76c22b"/>
    <path transform="matrix(2 0 0 2 160.1 -283.9)" d="m184.72 188.83c-21.928 21.928-32.886 50.548-32.875 79.166a112 112 0 0 0 0.15234 0.00781 112 112 0 0 0 79.096-32.801z" fill="#1463a5"/>
    <path transform="matrix(2 0 0 2 160.1 -283.9)" d="m263.85 155.95c-28.603 0-57.208 10.96-79.125 32.877l46.373 46.373a112 112 0 0 0 32.904-79.199 112 112 0 0 0-2e-3 -0.0488c-0.0501-7e-5 -0.10026-2e-3 -0.15039-2e-3z" fill="#2b898f"/>
    <path transform="matrix(2 0 0 2 160.1 -283.9)" d="m40.008 155.85a112 112 0 0 0-0.007812 0.15234 112 112 0 0 0 32.803 79.098l46.373-46.373c-21.928-21.928-50.55-32.888-79.168-32.877z" fill="#9b33ae"/>
    <path transform="matrix(2 0 0 2 160.1 -283.9)" d="m119.18 188.72-46.373 46.373a112 112 0 0 0 79.197 32.902 112 112 0 0 0 0.0488-2e-3c0.0385-28.653-10.917-57.318-32.873-79.273z" fill="#7839b7"/>
    <path transform="matrix(2 0 0 2 160.1 -283.9)" d="m152 44a112 112 0 0 0-79.098 32.801l46.375 46.375c21.928-21.928 32.886-50.55 32.875-79.168a112 112 0 0 0-0.15234-0.007812z" fill="#fdc92b"/>
    <path transform="matrix(2 0 0 2 160.1 -283.9)" d="m72.902 76.801a112 112 0 0 0-32.902 79.199 112 112 0 0 0 2e-3 0.0488c28.653 0.0385 57.32-10.917 79.275-32.873z" fill="#f34f17"/>
   </g>
  </g>
  <g transform="matrix(1 0 0 1 232.32 -65.393)" enable-background="new" stroke-width=".86634">
   <path transform="translate(0,-4.6e-4)" d="m152 44a112 112 0 0 0-112 112h224a112 112 0 0 0-112-112z" enable-background="new" opacity=".05"/>
   <path transform="translate(0,-4.6e-4)" d="m152 44a112 112 0 0 0-112 112 112 112 0 0 0 112 112z" enable-background="new" opacity=".05"/>
  </g>
  <path d="m384.48-21.356c61.856 0 112 50.144 112 112s-50.144 112-112 112c-61.856 0-112-50.144-112-112s50.144-112 112-112z" enable-background="new" fill="#fff" opacity=".1"/>
  <path d="m384.38 15.946c41.275 0 74.735 33.435 74.735 74.679 0 41.244-33.46 74.679-74.735 74.679-41.275 0-74.735-33.435-74.735-74.679 0-41.244 33.46-74.679 74.735-74.679z" enable-background="new" fill="#fff" opacity=".1"/>
  <ellipse cx="384.38" cy="90.625" rx="44.841" ry="44.807" enable-background="new" fill="#fff" opacity=".1"/>
 </g>
 <circle cx="8" cy="8" r="7.5" enable-background="new" fill="none" opacity=".4" stroke="#000" stroke-dashoffset="6.6" stroke-linejoin="round"/>
 <path d="m8 1c-3.866 0-7 3.134-7 7 0 3.866 3.134 7 7 7 3.866 0 7-3.134 7-7 0-3.866-3.134-7-7-7zm0 1a6 6 0 0 1 6 6 6 6 0 0 1-6 6 6 6 0 0 1-6-6 6 6 0 0 1 6-6z" enable-background="new" fill="url(#linearGradient8590-3-3-4)"/>
</svg>
