<svg width="16" height="16" version="1" xmlns="http://www.w3.org/2000/svg" xmlns:xlink="http://www.w3.org/1999/xlink">
 <defs>
  <radialGradient id="radialGradient1175" cx="340" cy="210.56" r="5.5" gradientTransform="matrix(1.8182 -2.9351e-6 3.1492e-6 1.6945 -609.68 -345.53)" gradientUnits="userSpaceOnUse">
   <stop stop-color="#cdcdcd" offset="0"/>
   <stop stop-color="#cdcdcd" offset=".46875"/>
   <stop stop-color="#e6e6e6" offset="1"/>
  </radialGradient>
  <radialGradient id="radialGradient1177" cx="152" cy="228.01" r="88" gradientTransform="matrix(.085227 1.2456e-8 -1.3383e-8 .074136 -4.4545 -4.2334)" gradientUnits="userSpaceOnUse">
   <stop stop-color="#fff" stop-opacity="0" offset="0"/>
   <stop stop-color="#fff" offset="1"/>
  </radialGradient>
  <linearGradient id="linearGradient1203" x1="329" x2="329" y1="237" y2="251" gradientUnits="userSpaceOnUse">
   <stop stop-color="#fff" offset="0"/>
   <stop stop-color="#fff" stop-opacity=".098039" offset=".125"/>
   <stop stop-color="#fff" stop-opacity=".098039" offset=".925"/>
   <stop stop-color="#fff" stop-opacity=".49804" offset="1"/>
  </linearGradient>
  <clipPath id="clipPath1191">
   <path d="m328.44 237c-1.3092 0-2.5613 0.23287-3.7911 0.64623l-0.17381 0.0582-1.1022 5.0768c-0.18785 0.86461-0.37425 1.755-0.37727 2.6722-3e-3 0.9179 0.18079 1.8499 0.62021 2.6922 0.4397 0.84283 1.129 1.5754 1.989 2.0806 0.85986 0.50508 1.8734 0.77364 2.8917 0.77364 1.0183 0 2.0318-0.26856 2.8917-0.77364 0.86007-0.50521 1.5474-1.2378 1.987-2.0806 0.43942-0.8423 0.62325-1.7743 0.62023-2.6922-3e-3 -0.91724-0.18742-1.8076-0.3753-2.6722l-1.1041-5.0768-0.17382-0.0582c-1.2298-0.41336-2.5932-0.64623-3.9023-0.64623z" color="#000000" color-rendering="auto" fill="url(#radialGradient1195)" image-rendering="auto" opacity=".5" shape-rendering="auto" solid-color="#000000" style="font-feature-settings:normal;font-variant-alternates:normal;font-variant-caps:normal;font-variant-ligatures:normal;font-variant-numeric:normal;font-variant-position:normal;isolation:auto;mix-blend-mode:normal;shape-padding:0;text-decoration-color:#000000;text-decoration-line:none;text-decoration-style:solid;text-indent:0;text-orientation:mixed;text-transform:none;white-space:normal"/>
  </clipPath>
 </defs>
 <path d="m8.4444 2c-1.3092 0-2.5613 0.23287-3.7911 0.64623l-0.17381 0.0582-1.1022 5.0768c-0.18785 0.86461-0.37425 1.755-0.37727 2.6722-3e-3 0.9179 0.18079 1.8499 0.62021 2.6922 0.4397 0.84283 1.129 1.5754 1.989 2.0806 0.85986 0.50508 1.8734 0.77364 2.8917 0.77364 1.0183 0 2.0318-0.26856 2.8917-0.77364 0.86007-0.50521 1.5474-1.2378 1.987-2.0806 0.43942-0.8423 0.62325-1.7743 0.62023-2.6922-3e-3 -0.91724-0.18742-1.8076-0.3753-2.6722l-1.1041-5.0768-0.17382-0.0582c-1.2298-0.41336-2.5932-0.64623-3.9023-0.64623z" color="#000000" color-rendering="auto" image-rendering="auto" opacity=".1" shape-rendering="auto" solid-color="#000000" style="font-feature-settings:normal;font-variant-alternates:normal;font-variant-caps:normal;font-variant-ligatures:normal;font-variant-numeric:normal;font-variant-position:normal;isolation:auto;mix-blend-mode:normal;shape-padding:0;text-decoration-color:#000000;text-decoration-line:none;text-decoration-style:solid;text-indent:0;text-orientation:mixed;text-transform:none;white-space:normal"/>
 <path d="m8.4444 1c-1.3092 0-2.5613 0.23287-3.7911 0.64623l-0.17381 0.0582-1.1022 5.0768c-0.18785 0.86461-0.37425 1.755-0.37727 2.6722-3e-3 0.9179 0.18079 1.8499 0.62021 2.6922 0.4397 0.84283 1.129 1.5754 1.989 2.0806 0.85986 0.50508 1.8734 0.77364 2.8917 0.77364 1.0183 0 2.0318-0.26856 2.8917-0.77364 0.86007-0.50521 1.5474-1.2378 1.987-2.0806 0.43942-0.8423 0.62325-1.7743 0.62023-2.6922-3e-3 -0.91724-0.18742-1.8076-0.3753-2.6722l-1.1041-5.0768-0.17382-0.0582c-1.2298-0.41336-2.5932-0.64623-3.9023-0.64623z" color="#000000" color-rendering="auto" fill="none" image-rendering="auto" opacity=".4" shape-rendering="auto" solid-color="#000000" stroke="#000" stroke-linejoin="round" stroke-width="2" style="font-feature-settings:normal;font-variant-alternates:normal;font-variant-caps:normal;font-variant-ligatures:normal;font-variant-numeric:normal;font-variant-position:normal;isolation:auto;mix-blend-mode:normal;shape-padding:0;text-decoration-color:#000000;text-decoration-line:none;text-decoration-style:solid;text-indent:0;text-orientation:mixed;text-transform:none;white-space:normal"/>
 <path d="m8.4444 1c-1.3092 0-2.5613 0.23287-3.7911 0.64623l-0.17381 0.0582-1.1022 5.0768c-0.18785 0.86461-0.37425 1.755-0.37727 2.6722-3e-3 0.9179 0.18079 1.8499 0.62021 2.6922 0.4397 0.84283 1.129 1.5754 1.989 2.0806 0.85986 0.50508 1.8734 0.77364 2.8917 0.77364 1.0183 0 2.0318-0.26856 2.8917-0.77364 0.86007-0.50521 1.5474-1.2378 1.987-2.0806 0.43942-0.8423 0.62325-1.7743 0.62023-2.6922-3e-3 -0.91724-0.18742-1.8076-0.3753-2.6722l-1.1041-5.0768-0.17382-0.0582c-1.2298-0.41336-2.5932-0.64623-3.9023-0.64623z" color="#000000" color-rendering="auto" fill="url(#radialGradient1175)" image-rendering="auto" shape-rendering="auto" solid-color="#000000" style="font-feature-settings:normal;font-variant-alternates:normal;font-variant-caps:normal;font-variant-ligatures:normal;font-variant-numeric:normal;font-variant-position:normal;isolation:auto;mix-blend-mode:normal;shape-padding:0;text-decoration-color:#000000;text-decoration-line:none;text-decoration-style:solid;text-indent:0;text-orientation:mixed;text-transform:none;white-space:normal"/>
 <path d="m8.4444 1c-1.3092 0-2.5613 0.23287-3.7911 0.64623l-0.17381 0.0582-1.1022 5.0768c-0.18785 0.86461-0.37425 1.755-0.37727 2.6722-3e-3 0.9179 0.18079 1.8499 0.62021 2.6922 0.4397 0.84283 1.129 1.5754 1.989 2.0806 0.85986 0.50508 1.8734 0.77364 2.8917 0.77364 1.0183 0 2.0318-0.26856 2.8917-0.77364 0.86007-0.50521 1.5474-1.2378 1.987-2.0806 0.43942-0.8423 0.62325-1.7743 0.62023-2.6922-3e-3 -0.91724-0.18742-1.8076-0.3753-2.6722l-1.1041-5.0768-0.17382-0.0582c-1.2298-0.41336-2.5932-0.64623-3.9023-0.64623z" color="#000000" color-rendering="auto" fill="url(#radialGradient1177)" image-rendering="auto" opacity=".5" shape-rendering="auto" solid-color="#000000" style="font-feature-settings:normal;font-variant-alternates:normal;font-variant-caps:normal;font-variant-ligatures:normal;font-variant-numeric:normal;font-variant-position:normal;isolation:auto;mix-blend-mode:normal;shape-padding:0;text-decoration-color:#000000;text-decoration-line:none;text-decoration-style:solid;text-indent:0;text-orientation:mixed;text-transform:none;white-space:normal"/>
 <path d="m8.5 1v5" enable-background="new" fill="none" stroke="#b3b3b3" stroke-width="1px"/>
 <path transform="translate(-320,-236)" d="m328.44 237c-1.3092 0-2.5613 0.23287-3.7911 0.64623l-0.17381 0.0582-1.1022 5.0768c-0.18785 0.86461-0.37425 1.755-0.37727 2.6722-3e-3 0.9179 0.18079 1.8499 0.62021 2.6922 0.4397 0.84283 1.129 1.5754 1.989 2.0806 0.85986 0.50508 1.8734 0.77364 2.8917 0.77364 1.0183 0 2.0318-0.26856 2.8917-0.77364 0.86007-0.50521 1.5474-1.2378 1.987-2.0806 0.43942-0.8423 0.62325-1.7743 0.62023-2.6922-3e-3 -0.91724-0.18742-1.8076-0.3753-2.6722l-1.1041-5.0768-0.17382-0.0582c-1.2298-0.41336-2.5932-0.64623-3.9023-0.64623z" clip-path="url(#clipPath1191)" color="#000000" color-rendering="auto" fill="none" image-rendering="auto" opacity=".3" shape-rendering="auto" solid-color="#000000" stroke="url(#linearGradient1203)" stroke-width="2" style="font-feature-settings:normal;font-variant-alternates:normal;font-variant-caps:normal;font-variant-ligatures:normal;font-variant-numeric:normal;font-variant-position:normal;isolation:auto;mix-blend-mode:normal;shape-padding:0;text-decoration-color:#000000;text-decoration-line:none;text-decoration-style:solid;text-indent:0;text-orientation:mixed;text-transform:none;white-space:normal"/>
</svg>
