<svg width="16" height="16" version="1" xmlns="http://www.w3.org/2000/svg" xmlns:xlink="http://www.w3.org/1999/xlink">
 <defs>
  <linearGradient id="linearGradient1049" x1="297.99" x2="299.4" y1="344.07" y2="141.4" gradientTransform="matrix(.03125 0 0 .03125 -.00058757 .12991)" gradientUnits="userSpaceOnUse" xlink:href="#linearGradient4155"/>
  <linearGradient id="linearGradient4155">
   <stop stop-color="#f3e6d2" stop-opacity=".99608" offset="0"/>
   <stop stop-color="#f7f4ee" offset="1"/>
  </linearGradient>
  <linearGradient id="linearGradient1051" x1="211.4" x2="211.4" y1="344.74" y2="375.68" gradientTransform="matrix(.23161 0 0 .23161 -42.357 -75.139)" gradientUnits="userSpaceOnUse">
   <stop stop-color="#fdfdfb" offset="0"/>
   <stop stop-color="#f0e9df" offset="1"/>
  </linearGradient>
  <linearGradient id="linearGradient1442" x1="72.419" x2="138.57" y1="112.48" y2="112.48" gradientTransform="matrix(.066961 0 0 .066964 303.82 233.55)" gradientUnits="userSpaceOnUse" xlink:href="#linearGradient4155"/>
  <linearGradient id="linearGradient1692-3" x1="320" x2="336" y1="252" y2="236" gradientTransform="rotate(90 286 -34)" gradientUnits="userSpaceOnUse">
   <stop stop-color="#948b74" offset="0"/>
   <stop stop-color="#aea795" offset="1"/>
  </linearGradient>
 </defs>
 <path d="m4.1286 1c-3.7436 0-4.1464 0.30899-4.128 3.3233v8.3534c-0.0183 3.0143 0.38446 3.3233 4.128 3.3233h7.7433c3.7436 0 4.128-0.30895 4.128-3.3233v-8.3534c0-3.0144-0.38446-3.3233-4.128-3.3233z" color="#000000" opacity=".1"/>
 <path d="m4.4055 0.5c-3.476 0-3.8501 0.30899-3.833 3.3233v8.3534c-0.017 3.0143 0.35698 3.3233 3.833 3.3233h7.19c3.476 0 3.833-0.30895 3.833-3.3233v-8.3534c0-3.0144-0.35699-3.3233-3.833-3.3233z" color="#000000" fill="url(#linearGradient1692-3)"/>
 <path d="m7.1719 7.1191c-0.54305 0.54406-1.2936 0.88086-2.123 0.88086-0.79451 0-1.5121-0.31414-2.0488-0.81836v3c0 0.43911 0.0824 0.75662 0.24414 0.94922 0.15407 0.18488 0.45359 0.2793 0.90039 0.2793h1.0625l1.3984 0.98828 1.4004-0.98828h3.8477c0.4468 0 0.74632-0.0944 0.90039-0.2793 0.16178-0.1926 0.24609-0.51011 0.24609-0.94922v-3.0625z" enable-background="new" fill="url(#linearGradient1049)"/>
 <path d="m7.9434 4.252c0.0242 0.0937 0.0435 0.18811 0.0586 0.28516 0.0268 0.15108 0.0469 0.30402 0.0469 0.46289 0 1.6569-1.3431 3-3 3-0.2008 0-0.39664-0.0205-0.58594-0.0586-0.14911-0.0295-0.28941-0.0801-0.42968-0.13086-0.0356-0.0131-0.0744-0.0188-0.10938-0.0332-0.34019-0.13791-0.64544-0.33825-0.91016-0.58398-4e-3 -4e-3 -9e-3 -8e-3 -0.0137-0.0117v2.8477l2.207 1.3809 1.3984 0.98828 1.4004-0.98828 4.9941-3.793v-2.1328c0-0.43911-0.0843-0.75663-0.24609-0.94922-0.15407-0.18489-0.45358-0.28321-0.90039-0.28321h-0.7461z" enable-background="new" fill="url(#linearGradient1051)"/>
 <g transform="matrix(.62888 0 0 .62888 -190.51 -146.62)" enable-background="new" stroke-width=".90866">
  <path d="m310.89 237.91c-1.7564 0-3.1802 1.4239-3.1802 3.1804s1.4238 3.1804 3.1802 3.1804 3.1802-1.4239 3.1802-3.1804-1.4238-3.1804-3.1802-3.1804z" enable-background="new" fill="#f64040"/>
  <path d="m310.4 238.82h0.937l-0.0568 1.2494a0.18129 0.1813 0 0 0 0 0.0568 0.18129 0.1813 0 0 0 0 0.0283 0.18129 0.1813 0 0 0 0.11358 0.11359 0.18129 0.1813 0 0 0 0.0283 0 0.18129 0.1813 0 0 0 0.0568 0 0.18129 0.1813 0 0 0 0.0568 0 0.18129 0.1813 0 0 0 0.0283-0.0283l1.0506-0.68151 0.45432 0.82349-1.1074 0.56793a0.18129 0.1813 0 0 0-0.0283 0 0.18129 0.1813 0 0 0-0.0283 0.0283 0.18129 0.1813 0 0 0-0.0283 0.0851 0.18129 0.1813 0 0 0 0 0.0568 0.18129 0.1813 0 0 0 0 0.0283 0.18129 0.1813 0 0 0 0.0283 0.0568 0.18129 0.1813 0 0 0 0.0283 0.0284 0.18129 0.1813 0 0 0 0.0283 0.0283l1.1358 0.56793-0.48272 0.8235-1.0506-0.70968a0.18129 0.1813 0 0 0-0.0283 0 0.18129 0.1813 0 0 0-0.0568-0.0284 0.18129 0.1813 0 0 0-0.0568 0 0.18129 0.1813 0 0 0-0.11358 0.0851 0.18129 0.1813 0 0 0-0.0283 0.0283 0.18129 0.1813 0 0 0 0 0.0284 0.18129 0.1813 0 0 0 0 0.0568l0.0568 1.2495h-0.93699l0.0851-1.2494a0.18129 0.1813 0 0 0-0.0283-0.0851 0.18129 0.1813 0 0 0-0.0283-0.0568 0.18129 0.1813 0 0 0-0.0568-0.0283 0.18129 0.1813 0 0 0-0.0568-0.0283 0.18129 0.1813 0 0 0-0.0283 0 0.18129 0.1813 0 0 0-0.0851 0.0283l-1.079 0.70991-0.45432-0.8235 1.1358-0.56793a0.18129 0.1813 0 0 0 0.0283-0.0283 0.18129 0.1813 0 0 0 0.0284-0.0283 0.18129 0.1813 0 0 0 0.0283-0.0568 0.18129 0.1813 0 0 0 0-0.0284 0.18129 0.1813 0 0 0 0-0.0568 0.18129 0.1813 0 0 0 0-0.0284 0.18129 0.1813 0 0 0-0.0283-0.0568 0.18129 0.1813 0 0 0-0.0284-0.0284 0.18129 0.1813 0 0 0-0.0283 0l-1.1358-0.56793 0.45432-0.8235 1.079 0.68152a0.18129 0.1813 0 0 0 0.0283 0.0284 0.18129 0.1813 0 0 0 0.0568 0 0.18129 0.1813 0 0 0 0.0568 0 0.18129 0.1813 0 0 0 0.0283 0 0.18129 0.1813 0 0 0 0.0283-0.0284 0.18129 0.1813 0 0 0 0.0284-0.0283 0.18129 0.1813 0 0 0 0.0283-0.0283 0.18129 0.1813 0 0 0 0-0.0284 0.18129 0.1813 0 0 0 0.0283-0.0568 0.18129 0.1813 0 0 0 0-0.0284l-0.0818-1.254z" enable-background="new" fill="url(#linearGradient1442)"/>
 </g>
 <path d="m11.555 15.5c3.337 0 3.9622-0.30212 3.9447-3.2495v-8.5011c0.0175-2.9473-0.60763-3.2494-3.9447-3.2494h-7.1102c-3.3362 0-3.9447 0.30208-3.9447 3.2494v8.5011c0 2.9474 0.60847 3.2495 3.9447 3.2495z" color="#000000" fill="none" opacity=".4" stroke="#000"/>
</svg>
