<svg width="16" height="16" version="1" xmlns="http://www.w3.org/2000/svg">
 <rect transform="matrix(0,-1,-1,0,0,0)" x="-16" y="-16" width="15" height="15" rx="7.5" ry="7.5" enable-background="new" opacity=".2"/>
 <rect transform="matrix(0,-1,-1,0,0,0)" x="-15" y="-16" width="15" height="15" rx="7.5" ry="7.5" enable-background="new" fill="#5d5d5d"/>
 <rect transform="rotate(90)" x="2.2543" y="-13.767" width="10.544" height="10.544" color="#000000" fill="none"/>
 <path d="m8.4844 2.334-0.85157 0.12696v0.89258a4.2764 4.2686 43.146 0 1 0.85157-0.0879zm-2.666 0.65235-1.3223 1.123 0.65039 0.77734a4.2764 4.2686 43.146 0 1 1.3301-1.1152zm-2.2949 2.7871-0.29102 1.7109 1 0.17578a4.2764 4.2686 43.146 0 1 0.29883-1.709zm0.92383 3.0957-0.89063 0.51367 0.87695 1.498 0.88282-0.50977a4.2764 4.2686 43.146 0 1-0.86914-1.502zm1.8086 2.2891-0.35156 0.96875 1.6328 0.58203 0.34766-0.95117a4.2764 4.2686 43.146 0 1-1.5176-0.52734 4.2764 4.2686 43.146 0 1-0.11133-0.0723z" color="#000000" fill="#faf8f6"/>
 <path d="m8.4844 2.8438a4.617 4.617 0 0 0-4.5957 4.6172 4.617 4.617 0 0 0 4.5957 4.6152z" enable-background="new" fill="#faf8f6"/>
</svg>
