<svg width="16" height="16" version="1" xmlns="http://www.w3.org/2000/svg" xmlns:xlink="http://www.w3.org/1999/xlink">
 <defs>
  <linearGradient id="linearGradient8588-0-1-5" x1="13.735" x2="38.1" y1="249.69" y2="292.77" gradientTransform="matrix(.31496 0 0 .31496 .16666 -77.71)" gradientUnits="userSpaceOnUse">
   <stop stop-color="#e1e1e1" offset="0"/>
   <stop stop-color="#f7f7f7" offset="1"/>
  </linearGradient>
  <linearGradient id="linearGradient8590-3-3-4" x1="96" x2="96" y1="4" y2="188" gradientTransform="matrix(.076087 0 0 .076087 .69563 .69566)" gradientUnits="userSpaceOnUse">
   <stop stop-color="#fff" offset="0"/>
   <stop stop-color="#fff" stop-opacity=".098039" offset=".125"/>
   <stop stop-color="#fff" stop-opacity=".098039" offset=".925"/>
   <stop stop-color="#fff" stop-opacity=".49804" offset="1"/>
  </linearGradient>
 </defs>
 <ellipse transform="scale(-1)" cx="-8" cy="-8.5" rx="7" ry="6.5" enable-background="new" opacity=".1"/>
 <circle cx="8" cy="8" r="7.5" enable-background="new" fill="url(#linearGradient8588-0-1-5)"/>
 <g transform="matrix(.36165 0 0 .36336 -115.92 -22.336)" enable-background="new" stroke-width="2.0689">
  <path d="m334.52 78.927 8.1383 4.6986 14.332-8.2747" color="#000000" enable-background="accumulate" fill="none" stroke="#3b3b3b" stroke-width="3.3103"/>
  <circle cx="342.66" cy="83.626" r="2" color="#000000" enable-background="accumulate" fill="#f22c42"/>
  <path d="m342.66 79.626v18.05" color="#000000" enable-background="accumulate" fill="none" stroke="#f22c42" stroke-width="2.4827"/>
 </g>
 <circle cx="8" cy="8" r="7.5" enable-background="new" fill="none" opacity=".4" stroke="#000" stroke-dashoffset="6.6" stroke-linejoin="round"/>
 <path d="m8 0.99999c-3.866 0-7 3.134-7 7 0 3.866 3.134 7 7 7 3.866 0 7-3.134 7-7 0-3.866-3.134-7-7-7zm0 1a6 6 0 0 1 6 6 6 6 0 0 1-6 6 6 6 0 0 1-6-6 6 6 0 0 1 6-6z" enable-background="new" fill="url(#linearGradient8590-3-3-4)"/>
</svg>
