<svg width="16" height="16" version="1" xmlns="http://www.w3.org/2000/svg" xmlns:xlink="http://www.w3.org/1999/xlink">
 <defs>
  <linearGradient id="linearGradient1093" x1="13.735" x2="38.1" y1="249.69" y2="292.77" gradientTransform="matrix(.31496 0 0 .31496 .16669 -77.71)" gradientUnits="userSpaceOnUse">
   <stop stop-color="#eab305" offset="0"/>
   <stop stop-color="#ffda64" offset="1"/>
  </linearGradient>
 </defs>
 <path d="m12.072 3.2188a7.5 7.5 0 0 1-0.21875 0.14648 7.5 7.5 0 0 1-0.66211 0.35352 7.5 7.5 0 0 1-0.69336 0.28516 7.5 7.5 0 0 1-0.7168 0.21679 7.5 7.5 0 0 1-0.73633 0.14258 7.5 7.5 0 0 1-0.74609 0.0684 7.5 7.5 0 0 1-0.29883 6e-3 7.5 7.5 0 0 1-0.74805-0.043 7.5 7.5 0 0 1-0.13476-0.0156 7.5 7.5 0 0 1 0.33203 0.67187 7.5 7.5 0 0 1 0.26172 0.70313 7.5 7.5 0 0 1 0.1914 0.72461 7.5 7.5 0 0 1 0.11719 0.74023 7.5 7.5 0 0 1 0.043 0.74805 7.5 7.5 0 0 1 0 0.0332 7.5 7.5 0 0 1-0.0391 0.74805 7.5 7.5 0 0 1-0.11328 0.74218 7.5 7.5 0 0 1-0.18555 0.72657 7.5 7.5 0 0 1-0.25781 0.70312 7.5 7.5 0 0 1-0.32813 0.67383 7.5 7.5 0 0 1-0.39258 0.63867 7.5 7.5 0 0 1-0.45507 0.5957 7.5 7.5 0 0 1-0.51172 0.54883 7.5 7.5 0 0 1-0.56446 0.49414 7.5 7.5 0 0 1-0.50781 0.36329 7 6.5 0 0 0 3.293 0.76545 7 6.5 0 0 0 7-6.5 7 6.5 0 0 0-2.9277-5.2812z" enable-background="new" opacity=".1"/>
 <path d="M 13.05273,2.46875 A 7.5,7.5 0 0 1 8,4.4375 7.5,7.5 0 0 1 7.11719,4.37891 7.5,7.5 0 0 1 8.0625,8 7.5,7.5 0 0 1 4.27734,14.50391 7.5,7.5 0 0 0 8,15.5 7.5,7.5 0 0 0 15.5,8 7.5,7.5 0 0 0 13.05273,2.46875 Z" enable-background="new" fill="url(#linearGradient1093)" stroke="#000" stroke-linecap="round" stroke-linejoin="round" stroke-opacity=".41294"/>
 <path d="m7.791 9.9551a7.5 7.5 0 0 1-0.0664 0.26172 7.5 7.5 0 0 1-0.25781 0.70312 7.5 7.5 0 0 1-0.32813 0.67383 7.5 7.5 0 0 1-0.39258 0.63867 7.5 7.5 0 0 1-0.45507 0.5957 7.5 7.5 0 0 1-0.51172 0.54883 7.5 7.5 0 0 1-0.56446 0.49414 7.5 7.5 0 0 1-0.60937 0.43555 7.5 7.5 0 0 1-0.32813 0.19727 7.5 7.5 0 0 0 0.66797 0.33984 7.5 7.5 0 0 0 0.69922 0.27344 7.5 7.5 0 0 0 0.7207 0.19922 7.5 7.5 0 0 0 0.74024 0.1289 7.5 7.5 0 0 0 0.74805 0.0527 7.5 7.5 0 0 0 0.14648 2e-3 7.5 7.5 0 0 0 0.74805-0.0371 7.5 7.5 0 0 0 0.74218-0.11328 7.5 7.5 0 0 0 0.72657-0.18555 7.5 7.5 0 0 0 0.70312-0.25586 7.5 7.5 0 0 0 0.67578-0.32617 7.5 7.5 0 0 0 0.63868-0.39258 7.5 7.5 0 0 0 0.59765-0.45312 7.5 7.5 0 0 0 0.54883-0.51172 7.5 7.5 0 0 0 0.49414-0.5625 7.5 7.5 0 0 0 0.43555-0.60938 7.5 7.5 0 0 0 0.37304-0.65039 7.5 7.5 0 0 0 0.30664-0.68554 7.5 7.5 0 0 0 0.23633-0.71094 7.5 7.5 0 0 0 0.0117-0.0508z" enable-background="new" fill="#fff" opacity=".1"/>
</svg>
