<svg width="16" height="16" version="1" xmlns="http://www.w3.org/2000/svg" xmlns:xlink="http://www.w3.org/1999/xlink">
 <defs>
  <linearGradient id="linearGradient1692" x1="320.5" x2="335.5" y1="244" y2="244" gradientTransform="rotate(90 286 -34)" gradientUnits="userSpaceOnUse">
   <stop stop-color="#2f5fdd" offset="0"/>
   <stop stop-color="#5884f4" offset="1"/>
  </linearGradient>
  <linearGradient id="linearGradient993" x1="328" x2="328" y1="237" y2="251" gradientUnits="userSpaceOnUse">
   <stop stop-color="#fff" offset="0"/>
   <stop stop-color="#fff" stop-opacity=".098039" offset=".125"/>
   <stop stop-color="#fff" stop-opacity=".098039" offset=".925"/>
   <stop stop-color="#fff" stop-opacity=".49804" offset="1"/>
  </linearGradient>
  <clipPath id="clipPath983">
   <path d="m325.1 237c-2.8077 0-3.1098 0.28839-3.096 3.1018v3.8982 3.8982c-0.0138 2.8134 0.28834 3.1018 3.096 3.1018h5.8075c2.8077 0 3.096-0.28835 3.096-3.1018v-3.8982-3.8982c0-2.8134-0.28835-3.1018-3.096-3.1018z" color="#000000" fill="#46a926"/>
  </clipPath>
 </defs>
 <path d="m4.6813 1c-0.82173 0-1.4878 0.0139-2.0981 0.10352-0.61037 0.0897-1.2209 0.27628-1.6874 0.68359-0.46657 0.4073-0.68177 0.94323-0.78345 1.4785-0.10171 0.53529-0.11564 1.1205-0.11165 1.8418v2.8926 3.8984c-3e-3 0.71816 0.0103 1.3024 0.11165 1.8359 0.10171 0.53528 0.31687 1.0712 0.78345 1.4785 0.46657 0.40731 1.0771 0.59394 1.6874 0.68359 0.61035 0.0897 1.2764 0.10352 2.0981 0.10352h6.6381c0.82173 0 1.4863-0.0137 2.0959-0.10352 0.60958-0.0898 1.2202-0.27792 1.6852-0.68554 0.46504-0.40762 0.67887-0.94271 0.78121-1.4766 0.1024-0.53386 0.11831-1.1155 0.11831-1.8359v-3.8984-2.8984c0-0.72043-0.016-1.3021-0.11831-1.8359-0.10228-0.53385-0.31617-1.0689-0.78121-1.4766-0.46505-0.40762-1.0756-0.59578-1.6852-0.68554-0.60958-0.08977-1.2742-0.10352-2.0959-0.10352z" color="#000000" color-rendering="auto" dominant-baseline="auto" image-rendering="auto" opacity=".1" shape-rendering="auto" solid-color="#000000" style="font-feature-settings:normal;font-variant-alternates:normal;font-variant-caps:normal;font-variant-ligatures:normal;font-variant-numeric:normal;font-variant-position:normal;isolation:auto;mix-blend-mode:normal;shape-padding:0;text-decoration-color:#000000;text-decoration-line:none;text-decoration-style:solid;text-indent:0;text-orientation:mixed;text-transform:none;white-space:normal"/>
 <path d="m4.4056 0.50001c-3.476 0-3.8501 0.30899-3.833 3.3233v4.1767 4.1767c-0.017 3.0143 0.35698 3.3233 3.833 3.3233h7.19c3.476 0 3.833-0.30895 3.833-3.3233v-4.1767-4.1767c0-3.0144-0.35699-3.3233-3.833-3.3233z" color="#000000" fill="url(#linearGradient1692)"/>
 <path d="m8 2.1219c-1.1046 0-2 0.89543-2 2 0 1.1046 0.89543 2 2 2 1.1046 0 2-0.89543 2-2 0-1.1046-0.89542-2-2-2zm-6 5v1l1.2397 2e-3c0.52118-1e-5 0.96402 0.0752 1.3286 0.23486 0.35813 0.14879 0.65187 0.3682 0.86767 0.65527 0.22113 0.27541 0.37468 0.60682 0.46094 0.98632 0.0868 0.38212 0.0994 0.78566 0.12597 1.2124l4.9e-4 6e-3 -9e-3 2.9033h0.98584v-1.5c0-0.55229 0.44771-1 0.99999-1s1 0.44771 1 1v1.5h0.99999l9e-3 -2.8974c1e-3 -0.44248 0.0421-0.85073 0.12695-1.2241 0.0864-0.38013 0.2402-0.7121 0.46192-0.98778 0.21581-0.28643 0.50945-0.50577 0.86718-0.6543 0.36441-0.15939 0.88033-0.23437 1.3276-0.23437h1.2071v-1.002z" enable-background="new" fill="#faf8f6"/>
 <path transform="matrix(1.1428 0 0 1 -366.84 -236)" d="m325.1 237c-2.8077 0-3.1098 0.28839-3.096 3.1018v3.8982 3.8982c-0.0138 2.8134 0.28834 3.1018 3.096 3.1018h5.8075c2.8077 0 3.096-0.28835 3.096-3.1018v-3.8982-3.8982c0-2.8134-0.28835-3.1018-3.096-3.1018z" clip-path="url(#clipPath983)" color="#000000" fill="none" opacity=".7" stroke="url(#linearGradient993)" stroke-width="1.8709"/>
 <path d="m11.528 15.512c3.3111 0 3.9314-0.30259 3.914-3.2545v-4.2572-4.2572c0.0174-2.9519-0.6029-3.2545-3.914-3.2545h-7.0549c-3.3103 0-3.914 0.30255-3.914 3.2545v4.2572 4.2572c0 2.952 0.60373 3.2545 3.914 3.2545z" color="#000000" fill="none" opacity=".4" stroke="#000" stroke-width=".97653"/>
</svg>
