<svg width="16" height="16" version="1" xmlns="http://www.w3.org/2000/svg" xmlns:xlink="http://www.w3.org/1999/xlink">
 <defs>
  <linearGradient id="linearGradient920" x1="441.38" x2="52.966" y1="240.28" y2="401.43" gradientTransform="matrix(0 -.038619 .039047 0 -4.5285 17.545)" gradientUnits="userSpaceOnUse">
   <stop stop-color="#5884f4" offset="0"/>
   <stop stop-color="#80a3fa" offset="1"/>
  </linearGradient>
  <linearGradient id="linearGradient993" x1="328" x2="328" y1="237" y2="251" gradientUnits="userSpaceOnUse">
   <stop stop-color="#fff" offset="0"/>
   <stop stop-color="#fff" stop-opacity=".098039" offset=".125"/>
   <stop stop-color="#fff" stop-opacity=".098039" offset=".925"/>
   <stop stop-color="#fff" stop-opacity=".49804" offset="1"/>
  </linearGradient>
  <clipPath id="clipPath983">
   <path d="m325.1 237c-2.8077 0-3.1098 0.28839-3.096 3.1018v3.8982 3.8982c-0.0138 2.8134 0.28834 3.1018 3.096 3.1018h5.8075c2.8077 0 3.096-0.28835 3.096-3.1018v-3.8982-3.8982c0-2.8134-0.28835-3.1018-3.096-3.1018z" color="#000000" fill="#46a926"/>
  </clipPath>
 </defs>
 <path d="m5.0957 1c-0.71904 0-1.3018 0.0139-1.8359 0.10352-0.53409 0.0897-1.0683 0.27628-1.4766 0.68359-0.40826 0.4073-0.59657 0.94323-0.68554 1.4785-0.089 0.53529-0.10119 1.1205-0.0977 1.8418v2.8926 3.8984c-3e-3 0.71816 9e-3 1.3024 0.0977 1.8359 0.089 0.53528 0.27727 1.0712 0.68554 1.4785 0.40827 0.40731 0.94248 0.59394 1.4766 0.68359 0.53408 0.0897 1.1169 0.10352 1.8359 0.10352h5.8086c0.71904 0 1.3006-0.0137 1.834-0.10352 0.53341-0.0898 1.0677-0.27792 1.4746-0.68554s0.59404-0.94271 0.68359-1.4766c0.08956-0.53386 0.10352-1.1155 0.10352-1.8359v-3.8984-2.8984c0-0.72043-0.014-1.3021-0.10352-1.8359-0.0895-0.53385-0.27666-1.0689-0.68359-1.4766s-0.9412-0.59578-1.4746-0.68554c-0.5334-0.08977-1.1149-0.10352-1.834-0.10352z" color="#000000" color-rendering="auto" dominant-baseline="auto" image-rendering="auto" opacity=".1" shape-rendering="auto" solid-color="#000000" style="font-feature-settings:normal;font-variant-alternates:normal;font-variant-caps:normal;font-variant-ligatures:normal;font-variant-numeric:normal;font-variant-position:normal;isolation:auto;mix-blend-mode:normal;shape-padding:0;text-decoration-color:#000000;text-decoration-line:none;text-decoration-style:solid;text-indent:0;text-orientation:mixed;text-transform:none;white-space:normal"/>
 <path d="m4.8545 0.50001c-3.0417 0-3.3689 0.30899-3.354 3.3233v4.1767 4.1767c-0.0149 3.0143 0.31237 3.3233 3.354 3.3233h6.2915c3.0417 0 3.354-0.30895 3.354-3.3233v-4.1767-4.1767c0-3.0144-0.31238-3.3233-3.354-3.3233z" color="#000000" fill="url(#linearGradient920)"/>
 <g transform="matrix(.26983 0 0 .26983 -20.786 -23.797)" enable-background="new" fill="#fff" aria-label="@">
  <path d="m115.28 129.11q-1.28 0-2.12-0.36t-1.4-0.96q-0.88 0.48-2.12 0.84-1.24 0.32-2.48 0.32-1.92 0-3.52-0.6-1.56-0.6-2.72-1.76-1.16-1.2-1.8-2.92t-0.64-4q0-1.92 0.6-3.6 0.6-1.72 1.76-2.96 1.2-1.28 2.88-2 1.72-0.72 3.88-0.72 2.04 0 3.72 0.32 1.72 0.32 2.64 0.64v12.24q0 1.28 0.44 1.8t1.16 0.52q1.04 0 1.8-0.72 0.8-0.72 1.28-1.88 0.52-1.16 0.76-2.6 0.24-1.48 0.24-3 0-2.52-0.88-4.72-0.88-2.24-2.52-3.92t-4-2.64q-2.32-0.96-5.24-0.96t-5.36 1q-2.44 0.96-4.2 2.8-1.76 1.8-2.76 4.44-0.96 2.64-0.96 6 0 3.52 1.04 6.2 1.04 2.64 2.88 4.44 1.88 1.76 4.4 2.64 2.56 0.92 5.6 0.92 2.36 0 3.88-0.28 1.56-0.28 2-0.44l0.4 2.96q-0.68 0.24-2.48 0.52-1.76 0.28-3.8 0.28-3.56 0-6.72-1.04-3.16-1-5.52-3.12-2.36-2.08-3.76-5.32-1.36-3.28-1.36-7.76 0-4.32 1.36-7.56t3.64-5.36q2.32-2.16 5.32-3.24 3.04-1.08 6.4-1.08 3.28 0 6.2 1.08 2.92 1.04 5.12 3.08 2.2 2 3.48 4.88 1.28 2.84 1.28 6.44 0 2.72-0.64 4.8-0.6 2.08-1.64 3.52-1.04 1.4-2.48 2.12t-3.04 0.72zm-8-3.24q0.84 0 1.68-0.16 0.88-0.2 1.56-0.56-0.12-0.52-0.16-1.04t-0.04-1v-9.4q-0.24-0.08-0.92-0.16t-1.52-0.08q-2.84 0-4.24 1.76t-1.4 4.44q0 2.84 1.36 4.52t3.68 1.68z" fill="#fff"/>
 </g>
 <path transform="translate(-320,-236)" d="m325.1 237c-2.8077 0-3.1098 0.28839-3.096 3.1018v3.8982 3.8982c-0.0138 2.8134 0.28834 3.1018 3.096 3.1018h5.8075c2.8077 0 3.096-0.28835 3.096-3.1018v-3.8982-3.8982c0-2.8134-0.28835-3.1018-3.096-3.1018z" clip-path="url(#clipPath983)" color="#000000" fill="none" opacity=".7" stroke="url(#linearGradient993)" stroke-width="2"/>
 <path d="m11.086 15.512c2.8973 0 3.4401-0.30259 3.4249-3.2545v-4.2572-4.2572c0.0152-2.952-0.52756-3.2545-3.4249-3.2545h-6.1733c-2.8966 0-3.4249 0.30255-3.4249 3.2545v4.2572 4.2572c0 2.952 0.52828 3.2545 3.4249 3.2545z" color="#000000" fill="none" opacity=".4" stroke="#000" stroke-width=".97653"/>
</svg>
