<svg width="16" height="16" version="1" xmlns="http://www.w3.org/2000/svg" xmlns:xlink="http://www.w3.org/1999/xlink">
 <defs>
  <linearGradient id="linearGradient8830" x1="326" x2="330" y1="238" y2="248" gradientTransform="translate(-336 -251)" gradientUnits="userSpaceOnUse">
   <stop stop-color="#fdfdfd" offset="0"/>
   <stop stop-color="#f0f0f0" offset="1"/>
  </linearGradient>
  <linearGradient id="linearGradient993" x1="328" x2="328" y1="239" y2="248" gradientTransform="rotate(90,328,244)" gradientUnits="userSpaceOnUse">
   <stop stop-color="#fff" offset="0"/>
   <stop stop-color="#fff" stop-opacity=".098039" offset=".125"/>
   <stop stop-color="#fff" stop-opacity=".098039" offset=".925"/>
   <stop stop-color="#fff" stop-opacity=".49804" offset="1"/>
  </linearGradient>
  <clipPath id="clipPath983">
   <path d="m325.1 237c-2.8077 0-3.1098 0.28839-3.096 3.1018v3.8982 3.8982c-0.0138 2.8134 0.28834 3.1018 3.096 3.1018h5.8075c2.8077 0 3.096-0.28835 3.096-3.1018v-3.8982-3.8982c0-2.8134-0.28835-3.1018-3.096-3.1018z" color="#000000" fill="#46a926"/>
  </clipPath>
 </defs>
 <path d="m2.3e-4 10.905c0 0.71904 0.0139 1.3018 0.10352 1.8359 0.0897 0.53409 0.27628 1.0683 0.68359 1.4766 0.4073 0.40826 0.94323 0.59657 1.4785 0.68554 0.53529 0.089 1.1205 0.10119 1.8418 0.0977h2.8926 3.9487c0.71816 3e-3 1.3024-9e-3 1.8359-0.0977 0.53528-0.089 1.0712-0.27727 1.4785-0.68554 0.40731-0.40827 0.59394-0.94248 0.68359-1.4766 0.0897-0.53408 0.10352-1.1169 0.10352-1.8359v-4.8086c0-0.71904-0.0137-1.3006-0.10352-1.834-0.0898-0.53341-0.27792-1.0677-0.68554-1.4746s-0.94271-0.59404-1.4766-0.68359c-0.53386-0.0896-1.1155-0.10352-1.8359-0.10352h-3.9487-2.8984c-0.72043 0-1.3021 0.014-1.8359 0.10352-0.53385 0.0895-1.0689 0.27666-1.4766 0.68359s-0.59578 0.9412-0.68554 1.4746c-0.0898 0.5334-0.10352 1.1149-0.10352 1.834z" color="#000000" color-rendering="auto" dominant-baseline="auto" image-rendering="auto" opacity=".1" shape-rendering="auto" solid-color="#000000" style="font-feature-settings:normal;font-variant-alternates:normal;font-variant-caps:normal;font-variant-ligatures:normal;font-variant-numeric:normal;font-variant-position:normal;isolation:auto;mix-blend-mode:normal;shape-padding:0;text-decoration-color:#000000;text-decoration-line:none;text-decoration-style:solid;text-indent:0;text-orientation:mixed;text-transform:none;white-space:normal"/>
 <path d="m0.50001 5.0962c0-0.71048 0.0154-1.2734 0.0957-1.752s0.23728-0.89671 0.54688-1.207c0.30959-0.31032 0.7261-0.46726 1.2051-0.54688 0.47897-0.0796 1.0435-0.0933 1.7559-0.0898h3.8965 2.8979c0.71121-3e-3 1.2755 0.0103 1.7539 0.0898 0.47898 0.0796 0.89549 0.23655 1.2051 0.54688 0.3096 0.31033 0.46655 0.72851 0.54688 1.207 0.0803 0.47852 0.0957 1.0415 0.0957 1.752v4.8086c0 0.71048-0.0153 1.2724-0.0957 1.75-0.0804 0.47763-0.23713 0.89584-0.54688 1.2051-0.30975 0.30921-0.72681 0.46469-1.2051 0.54492-0.47826 0.0802-1.042 0.0957-1.7539 0.0957h-2.8979-3.8984c-0.71189 0-1.2756-0.0155-1.7539-0.0957-0.47827-0.0802-0.89533-0.2357-1.2051-0.54492-0.30975-0.30924-0.4665-0.72745-0.54688-1.2051-0.0804-0.47764-0.0957-1.0395-0.0957-1.75z" color="#000000" fill="#4d4d4d"/>
 <rect transform="scale(-1)" x="-13" y="-12" width="11" height="9" rx=".65" ry=".65" enable-background="new" fill="url(#linearGradient8830)"/>
 <path d="m0.5 9.9043c0 0.71048 0.0154 1.2734 0.0957 1.752s0.23728 0.89671 0.54688 1.207c0.30959 0.31032 0.7261 0.46726 1.2051 0.54688 0.47897 0.0796 1.0435 0.0933 1.7559 0.0898h3.8965 2.8979c0.71121 3e-3 1.2755-0.0103 1.7539-0.0898 0.47898-0.0796 0.89549-0.23655 1.2051-0.54688 0.3096-0.31033 0.46655-0.72851 0.54688-1.207 0.0803-0.47852 0.0957-1.0415 0.0957-1.752v-4.8086c0-0.71048-0.0153-1.2724-0.0957-1.75-0.0804-0.47763-0.23713-0.89584-0.54688-1.2051-0.30975-0.30921-0.72681-0.46469-1.2051-0.54492-0.47826-0.0802-1.042-0.0957-1.7539-0.0957h-2.8979-3.8984c-0.71189 0-1.2756 0.0155-1.7539 0.0957-0.47827 0.0802-0.89533 0.2357-1.2051 0.54492-0.30975 0.30924-0.4665 0.72745-0.54688 1.2051-0.0804 0.47764-0.0957 1.0395-0.0957 1.75z" color="#000000" fill="none" opacity=".4" stroke="#000"/>
 <path transform="rotate(-90 50 286)" d="m326.1 237c-2.8077 0-3.1098 0.28839-3.096 3.1018v3.8982 2.8977c-0.0138 2.8134 0.28834 3.1018 3.096 3.1018h4.8075c2.8077 0 3.096-0.28835 3.096-3.1018v-2.8977-3.8982c0-2.8134-0.28835-3.1018-3.096-3.1018z" clip-path="url(#clipPath983)" color="#000000" fill="none" opacity=".25" stroke="url(#linearGradient993)" stroke-width="2"/>
</svg>
