<svg width="16" height="16" version="1" xmlns="http://www.w3.org/2000/svg" xmlns:xlink="http://www.w3.org/1999/xlink">
 <defs>
  <linearGradient id="linearGradient993" x1="328" x2="328" y1="237" y2="251" gradientUnits="userSpaceOnUse">
   <stop stop-color="#fff" offset="0"/>
   <stop stop-color="#fff" stop-opacity=".098039" offset=".125"/>
   <stop stop-color="#fff" stop-opacity=".098039" offset=".925"/>
   <stop stop-color="#fff" stop-opacity=".49804" offset="1"/>
  </linearGradient>
  <clipPath id="clipPath983">
   <path d="m325.1 237c-2.8077 0-3.1098 0.28839-3.096 3.1018v3.8982 3.8982c-0.0138 2.8134 0.28834 3.1018 3.096 3.1018h5.8075c2.8077 0 3.096-0.28835 3.096-3.1018v-3.8982-3.8982c0-2.8134-0.28835-3.1018-3.096-3.1018z" color="#000000" fill="#46a926"/>
  </clipPath>
 </defs>
 <path d="m4.6813 1c-0.82173 0-1.4878 0.0139-2.0981 0.10352-0.61037 0.0897-1.2209 0.27628-1.6874 0.68359-0.46657 0.4073-0.68177 0.94323-0.78345 1.4785-0.10171 0.53529-0.11564 1.1205-0.11165 1.8418v2.8926 3.8984c-3e-3 0.71816 0.0103 1.3024 0.11165 1.8359 0.10171 0.53528 0.31687 1.0712 0.78345 1.4785 0.46657 0.40731 1.0771 0.59394 1.6874 0.68359 0.61035 0.0897 1.2764 0.10352 2.0981 0.10352h6.6381c0.82173 0 1.4863-0.0137 2.0959-0.10352 0.60958-0.0898 1.2202-0.27792 1.6852-0.68554 0.46504-0.40762 0.67887-0.94271 0.78121-1.4766 0.1024-0.53386 0.11831-1.1155 0.11831-1.8359v-3.8984-2.8984c0-0.72043-0.016-1.3021-0.11831-1.8359-0.10228-0.53385-0.31617-1.0689-0.78121-1.4766-0.46505-0.40762-1.0756-0.59578-1.6852-0.68554-0.60958-0.08977-1.2742-0.10352-2.0959-0.10352z" color="#000000" color-rendering="auto" dominant-baseline="auto" image-rendering="auto" opacity=".1" shape-rendering="auto" solid-color="#000000" style="font-feature-settings:normal;font-variant-alternates:normal;font-variant-caps:normal;font-variant-ligatures:normal;font-variant-numeric:normal;font-variant-position:normal;isolation:auto;mix-blend-mode:normal;shape-padding:0;text-decoration-color:#000000;text-decoration-line:none;text-decoration-style:solid;text-indent:0;text-orientation:mixed;text-transform:none;white-space:normal"/>
 <path d="m4.4056 0.50001c-3.476 0-3.8501 0.30899-3.833 3.3233v4.1767 4.1767c-0.017 3.0143 0.35698 3.3233 3.833 3.3233h7.19c3.476 0 3.833-0.30895 3.833-3.3233v-4.1767-4.1767c0-3.0144-0.35699-3.3233-3.833-3.3233z" color="#000000" fill="#f7f7f7"/>
 <path d="m4.8867 4.1571c-0.32252 0-0.59986 0.0225-0.83207 0.0677-0.22575 0.0452-0.39348 0.0935-0.50313 0.14512l0.087 0.55151c0.0838-0.0322 0.21607-0.0741 0.39668-0.12571 0.18061-0.0516 0.45483-0.0776 0.82251-0.0776 0.258 0 0.46434 0.042 0.61914 0.12587 0.16126 0.0774 0.28387 0.1839 0.36772 0.31935 0.0903 0.129 0.14829 0.27736 0.17408 0.44506 0.0259 0.16126 0.0387 0.32883 0.0387 0.50299v0.30965c-0.0258-0.0129-0.0742-0.0258-0.14511-0.0387-0.0645-0.0194-0.14511-0.0355-0.24187-0.0483-0.0903-0.0194-0.18702-0.0322-0.29023-0.0387-0.0968-0.0129-0.19022-0.0194-0.28055-0.0194-0.30316 0-0.58372 0.029-0.84174 0.0871-0.25801 0.0581-0.48062 0.15167-0.66766 0.28068-0.18706 0.12256-0.33216 0.28053-0.43536 0.47403-0.10321 0.19351-0.15483 0.42573-0.15483 0.69663 0 0.28382 0.0452 0.5258 0.13541 0.72576 0.0967 0.1935 0.22573 0.35472 0.38698 0.48373 0.16771 0.12255 0.36131 0.21277 0.58064 0.27082 0.22576 0.0581 0.47083 0.0872 0.7353 0.0872 0.20641 0 0.40639-0.01 0.59989-0.0291 0.19996-0.0129 0.38056-0.0322 0.54182-0.0581 0.16125-0.0258 0.30308-0.0483 0.42563-0.0676 0.12257-0.0259 0.21619-0.0484 0.28069-0.0678v-3.1541c0-0.26447-0.0323-0.5097-0.0967-0.73546-0.0645-0.22575-0.16775-0.41922-0.30964-0.58047-0.14191-0.1677-0.32903-0.29668-0.56124-0.38699-0.22575-0.0968-0.50308-0.14512-0.83204-0.14512zm3.5845 1.7438v6.8457h0.73407l0.22892-0.29549c0.45766 0.26697 0.91529 0.39085 1.3825 0.39085 1.373 0 2.1833-1.0202 2.1833-2.4122 0-1.392-0.5625-2.3741-1.9736-2.3741-0.54346 0-0.99157 0.13363-1.3825 0.33385v-2.4886zm-3.391 0.91689c0.27091 0 0.48375 0.0194 0.63856 0.0581 0.1548 0.0322 0.26765 0.0645 0.3386 0.0967v1.761c-0.129 0.0259-0.28696 0.0483-0.47401 0.0677-0.18061 0.0129-0.39346 0.0194-0.63856 0.0194-0.19997 0-0.38056-0.0162-0.54181-0.0484-0.1548-0.0387-0.29029-0.0968-0.40641-0.17422-0.10964-0.0774-0.19676-0.1805-0.26126-0.3095-0.0581-0.12901-0.0871-0.28713-0.0871-0.47417 0-0.21287 0.0452-0.38385 0.13542-0.51284 0.0903-0.12901 0.2064-0.22885 0.3483-0.29981 0.14192-0.0774 0.29677-0.12593 0.46449-0.14527 0.1677-0.0259 0.32891-0.0386 0.48372-0.0386zm5.6601 2.1913c0.81997 0 1.087 0.59116 1.087 1.4874 0 0.89624-0.41949 1.4207-1.2013 1.4207-0.38138 0-0.70558-0.0953-0.98208-0.31457v-2.3359c0.22882-0.0953 0.67688-0.25758 1.0964-0.25757z" enable-background="new" fill="#fff"/>
 <path d="m4.8867 3.1571c-0.32252 0-0.59986 0.0225-0.83207 0.0677-0.22575 0.0452-0.39348 0.0935-0.50313 0.14512l0.087 0.55151c0.0838-0.0322 0.21607-0.0741 0.39668-0.12571 0.18061-0.0516 0.45483-0.0776 0.82251-0.0776 0.258 0 0.46434 0.042 0.61914 0.12587 0.16126 0.0774 0.28387 0.1839 0.36772 0.31935 0.0903 0.129 0.14829 0.27736 0.17408 0.44506 0.0259 0.16126 0.0387 0.32883 0.0387 0.50299v0.30965c-0.0258-0.0129-0.0742-0.0258-0.14511-0.0387-0.0645-0.0194-0.14511-0.0355-0.24187-0.0483-0.0903-0.0194-0.18702-0.0322-0.29023-0.0387-0.0968-0.0129-0.19022-0.0194-0.28055-0.0194-0.30316 0-0.58372 0.029-0.84174 0.0871-0.25801 0.0581-0.48062 0.15167-0.66766 0.28068-0.18706 0.12256-0.33216 0.28053-0.43536 0.47403-0.10321 0.19351-0.15483 0.42573-0.15483 0.69663 0 0.28382 0.0452 0.5258 0.13541 0.72576 0.0967 0.1935 0.22573 0.35472 0.38698 0.48373 0.16771 0.12255 0.36131 0.21277 0.58064 0.27082 0.22576 0.0581 0.47083 0.0872 0.7353 0.0872 0.20641 0 0.40639-0.01 0.59989-0.0291 0.19996-0.0129 0.38056-0.0322 0.54182-0.0581 0.16125-0.0258 0.30308-0.0483 0.42563-0.0676 0.12257-0.0259 0.21619-0.0484 0.28069-0.0678v-3.1541c0-0.26447-0.0323-0.5097-0.0967-0.73546-0.0645-0.22575-0.16775-0.41922-0.30964-0.58047-0.14191-0.1677-0.32903-0.29668-0.56124-0.38699-0.22575-0.0968-0.50308-0.14512-0.83204-0.14512zm3.5845 1.7438v6.8457h0.73407l0.22892-0.29549c0.45766 0.26697 0.91529 0.39085 1.3825 0.39085 1.373 0 2.1833-1.0202 2.1833-2.4122 0-1.392-0.5625-2.3741-1.9736-2.3741-0.54346 0-0.99157 0.13363-1.3825 0.33385v-2.4886zm-3.391 0.91689c0.27091 0 0.48375 0.0194 0.63856 0.0581 0.1548 0.0322 0.26765 0.0645 0.3386 0.0967v1.761c-0.129 0.0259-0.28696 0.0483-0.47401 0.0677-0.18061 0.0129-0.39346 0.0194-0.63856 0.0194-0.19997 0-0.38056-0.0162-0.54181-0.0484-0.1548-0.0387-0.29029-0.0968-0.40641-0.17422-0.10964-0.0774-0.19676-0.1805-0.26126-0.3095-0.0581-0.12901-0.0871-0.28713-0.0871-0.47417 0-0.21287 0.0452-0.38385 0.13542-0.51284 0.0903-0.12901 0.2064-0.22885 0.3483-0.29981 0.14192-0.0774 0.29677-0.12593 0.46449-0.14527 0.1677-0.0259 0.32891-0.0386 0.48372-0.0386zm5.6601 2.1913c0.81997 0 1.087 0.59116 1.087 1.4874 0 0.89624-0.41949 1.4207-1.2013 1.4207-0.38138 0-0.70558-0.0953-0.98208-0.31457v-2.3359c0.22882-0.0953 0.67688-0.25758 1.0964-0.25757z" enable-background="new" fill="#5d5d5d"/>
 <path transform="matrix(1.1428 0 0 1 -366.84 -236)" d="m325.1 237c-2.8077 0-3.1098 0.28839-3.096 3.1018v3.8982 3.8982c-0.0138 2.8134 0.28834 3.1018 3.096 3.1018h5.8075c2.8077 0 3.096-0.28835 3.096-3.1018v-3.8982-3.8982c0-2.8134-0.28835-3.1018-3.096-3.1018z" clip-path="url(#clipPath983)" color="#000000" fill="none" opacity=".7" stroke="url(#linearGradient993)" stroke-width="1.8709"/>
 <path d="m11.528 15.512c3.3111 0 3.9314-0.30259 3.914-3.2545v-4.2572-4.2572c0.0174-2.952-0.6029-3.2545-3.914-3.2545h-7.0549c-3.3103 0-3.914 0.30255-3.914 3.2545v4.2572 4.2572c0 2.952 0.60373 3.2545 3.914 3.2545z" color="#000000" fill="none" opacity=".4" stroke="#000" stroke-width=".97653"/>
</svg>
