<svg width="16" height="16" version="1" xmlns="http://www.w3.org/2000/svg" xmlns:xlink="http://www.w3.org/1999/xlink">
 <defs>
  <radialGradient id="radialGradient1052-9-6" cx="247.5" cy="220.05" r="160" gradientTransform="matrix(.062087 -.23171 .13289 .035606 108 203.79)" gradientUnits="userSpaceOnUse">
   <stop stop-color="#fee581" offset="0"/>
   <stop stop-color="#eab305" offset="1"/>
  </radialGradient>
  <radialGradient id="radialGradient1054-0-1" cx="265.28" cy="65.436" r="56" gradientTransform="matrix(.17784 .047653 -.047657 .17786 113.9 106.85)" gradientUnits="userSpaceOnUse">
   <stop stop-color="#4d4d4d" offset="0"/>
   <stop stop-color="#333" offset=".57201"/>
   <stop stop-color="#1a1a1a" offset="1"/>
  </radialGradient>
  <linearGradient id="linearGradient993" x1="328" x2="328" y1="237" y2="251" gradientUnits="userSpaceOnUse">
   <stop stop-color="#fff" offset="0"/>
   <stop stop-color="#fff" stop-opacity=".098039" offset=".125"/>
   <stop stop-color="#fff" stop-opacity=".098039" offset=".925"/>
   <stop stop-color="#fff" stop-opacity=".49804" offset="1"/>
  </linearGradient>
  <clipPath id="clipPath983">
   <path d="m325.1 237c-2.8077 0-3.1098 0.28839-3.096 3.1018v3.8982 3.8982c-0.0138 2.8134 0.28834 3.1018 3.096 3.1018h5.8075c2.8077 0 3.096-0.28835 3.096-3.1018v-3.8982-3.8982c0-2.8134-0.28835-3.1018-3.096-3.1018z" color="#000000" fill="#46a926"/>
  </clipPath>
 </defs>
 <path d="m5.0957 1c-0.71904 0-1.3018 0.0139-1.8359 0.10352-0.53409 0.0897-1.0683 0.27628-1.4766 0.68359-0.40826 0.4073-0.59657 0.94323-0.68554 1.4785-0.089 0.53529-0.10119 1.1205-0.0977 1.8418v2.8926 3.8984c-3e-3 0.71816 9e-3 1.3024 0.0977 1.8359 0.089 0.53528 0.27727 1.0712 0.68554 1.4785 0.40827 0.40731 0.94248 0.59394 1.4766 0.68359 0.53408 0.0897 1.1169 0.10352 1.8359 0.10352h5.8086c0.71904 0 1.3006-0.0137 1.834-0.10352 0.53341-0.0898 1.0677-0.27792 1.4746-0.68554s0.59404-0.94271 0.68359-1.4766c0.08956-0.53386 0.10352-1.1155 0.10352-1.8359v-3.8984-2.8984c0-0.72043-0.014-1.3021-0.10352-1.8359-0.0895-0.53385-0.27666-1.0689-0.68359-1.4766s-0.9412-0.59578-1.4746-0.68554c-0.5334-0.08977-1.1149-0.10352-1.834-0.10352z" color="#000000" color-rendering="auto" dominant-baseline="auto" image-rendering="auto" opacity=".1" shape-rendering="auto" solid-color="#000000" style="font-feature-settings:normal;font-variant-alternates:normal;font-variant-caps:normal;font-variant-ligatures:normal;font-variant-numeric:normal;font-variant-position:normal;isolation:auto;mix-blend-mode:normal;shape-padding:0;text-decoration-color:#000000;text-decoration-line:none;text-decoration-style:solid;text-indent:0;text-orientation:mixed;text-transform:none;white-space:normal"/>
 <path d="m4.8545 0.50001c-3.0417 0-3.3689 0.30899-3.354 3.3233v4.1767 4.1767c-0.0149 3.0143 0.31237 3.3233 3.354 3.3233h6.2915c3.0417 0 3.354-0.30895 3.354-3.3233v-4.1767-4.1767c0-3.0144-0.31238-3.3233-3.354-3.3233z" color="#000000" fill="#e3dfd5"/>
 <g transform="matrix(.16667 0 0 .16667 -23.112 -6.5968)" enable-background="new" stroke-width="2">
  <rect x="154.52" y="56.652" width="64" height="64" rx="384" ry="384" enable-background="new" fill="#4d4d4d" style="paint-order:normal"/>
  <ellipse cx="186.52" cy="88.653" rx="28" ry="28.001" enable-background="new" fill="#191622" style="paint-order:normal"/>
  <ellipse cx="186.52" cy="88.653" rx="24" ry="24.001" enable-background="new" fill="#4d4d4d" style="paint-order:normal"/>
  <ellipse transform="rotate(-15)" cx="157.19" cy="134" rx="22.011" ry="22.012" enable-background="new" fill="url(#radialGradient1052-9-6)" style="paint-order:normal"/>
  <ellipse cx="186.51" cy="88.747" rx="10.011" ry="10.012" enable-background="new" style="paint-order:normal"/>
  <ellipse transform="rotate(-15)" cx="157.19" cy="134" rx="8.0109" ry="8.0114" enable-background="new" fill="url(#radialGradient1054-0-1)" style="paint-order:normal"/>
 </g>
 <path transform="translate(-320,-236)" d="m325.1 237c-2.8077 0-3.1098 0.28839-3.096 3.1018v3.8982 3.8982c-0.0138 2.8134 0.28834 3.1018 3.096 3.1018h5.8075c2.8077 0 3.096-0.28835 3.096-3.1018v-3.8982-3.8982c0-2.8134-0.28835-3.1018-3.096-3.1018z" clip-path="url(#clipPath983)" color="#000000" fill="none" opacity=".7" stroke="url(#linearGradient993)" stroke-width="2"/>
 <path d="m11.086 15.512c2.8973 0 3.4401-0.30259 3.4249-3.2545v-4.2572-4.2572c0.0152-2.9519-0.52756-3.2545-3.4249-3.2545h-6.1733c-2.8966 0-3.4249 0.30255-3.4249 3.2545v4.2572 4.2572c0 2.952 0.52828 3.2545 3.4249 3.2545z" color="#000000" fill="none" opacity=".4" stroke="#000" stroke-width=".97653"/>
</svg>
