<svg width="16" height="16" version="1" xmlns="http://www.w3.org/2000/svg" xmlns:xlink="http://www.w3.org/1999/xlink">
 <defs>
  <linearGradient id="linearGradient8590-3-3-4" x1="96" x2="96" y1="4" y2="188" gradientTransform="matrix(.076087 0 0 .076087 .69566 .69567)" gradientUnits="userSpaceOnUse">
   <stop stop-color="#fff" offset="0"/>
   <stop stop-color="#fff" stop-opacity=".098039" offset=".125"/>
   <stop stop-color="#fff" stop-opacity=".098039" offset=".925"/>
   <stop stop-color="#fff" stop-opacity=".49804" offset="1"/>
  </linearGradient>
 </defs>
 <ellipse transform="scale(-1)" cx="-8" cy="-8.5" rx="7" ry="6.5" enable-background="new" opacity=".1"/>
 <path d="m8 0.5c-0.32957 0-0.65236 0.0291-0.9707 0.0703-0.0828 0.0109-0.16422 0.0235-0.2461 0.0371-0.28771 0.047-0.56998 0.10871-0.8457 0.1875-0.0238 7e-3 -0.0486 0.0105-0.0723 0.0176-0.33045 0.098-0.64929 0.22073-0.95898 0.36133-0.31474 0.14289-0.61655 0.30693-0.90625 0.49023-0.35498 0.22461-0.68865 0.47857-1 0.75782-0.19104 0.17133-0.37234 0.35112-0.54492 0.54101l-4e-3 4e-3c-0.16427 0.18101-0.31868 0.36993-0.46484 0.5664-0.0128 0.0172-0.0264 0.0335-0.0391 0.0508-0.1392 0.19048-0.26955 0.3883-0.39063 0.5918-9e-3 0.0158-0.0199 0.031-0.0293 0.0469-0.11345 0.19392-0.21646 0.39313-0.3125 0.59765-0.0179 0.0379-0.0374 0.075-0.0547 0.11328-0.0791 0.17605-0.14929 0.35613-0.21485 0.53907-0.0245 0.0679-0.0516 0.13434-0.0742 0.20312-0.0568 0.17438-0.10236 0.35347-0.14648 0.5332-0.0175 0.0708-0.0392 0.13935-0.0547 0.21094-0.0411 0.1917-0.0695 0.38716-0.0957 0.58399-9e-3 0.0662-0.0241 0.13057-0.0312 0.19726-0.0278 0.26235-0.043 0.52912-0.043 0.79883s0.0152 0.53648 0.043 0.79883c7e-3 0.0667 0.0224 0.13111 0.0312 0.19726 0.0262 0.19683 0.0546 0.39229 0.0957 0.58399 0.0155 0.0716 0.0372 0.14013 0.0547 0.21094 0.0441 0.17973 0.0897 0.35882 0.14648 0.5332 0.0226 0.0688 0.0497 0.13524 0.0742 0.20312 0.0656 0.18294 0.13579 0.36302 0.21485 0.53907 0.0173 0.0383 0.0368 0.0754 0.0547 0.11328 0.096 0.20452 0.19905 0.40373 0.3125 0.59765 9e-3 0.0159 0.0198 0.031 0.0293 0.0469 0.12108 0.2035 0.25143 0.40132 0.39063 0.5918 0.0127 0.0172 0.0263 0.0336 0.0391 0.0508 0.14616 0.19647 0.30057 0.38539 0.46484 0.5664l4e-3 4e-3c0.17258 0.18989 0.35388 0.36968 0.54492 0.54101 0.31135 0.27925 0.64502 0.53321 1 0.75782 0.2897 0.1833 0.59151 0.34734 0.90625 0.49023 0.30969 0.1406 0.62853 0.26333 0.95898 0.36133 0.0237 7e-3 0.0485 0.0107 0.0723 0.0176 0.27572 0.0788 0.55799 0.14046 0.8457 0.1875 0.0819 0.0136 0.16333 0.0262 0.2461 0.0371 0.31834 0.0412 0.64113 0.0703 0.9707 0.0703s0.65236-0.0291 0.9707-0.0703c0.0828-0.0109 0.16422-0.0235 0.2461-0.0371 0.28771-0.047 0.56998-0.10871 0.8457-0.1875 0.0238-7e-3 0.0486-0.0105 0.0723-0.0176 0.33045-0.098 0.64929-0.22073 0.95898-0.36133 0.31474-0.14289 0.61655-0.30693 0.90625-0.49023 0.35498-0.22461 0.68865-0.47857 1-0.75782 0.19104-0.17133 0.37234-0.35112 0.54492-0.54101 6.2e-4 -6.8e-4 1e-3 -1e-3 2e-3 -2e-3 6.1e-4 -6.8e-4 1e-3 -1e-3 2e-3 -2e-3 0.16427-0.18101 0.31868-0.36993 0.46484-0.5664 0.0128-0.0172 0.0264-0.0335 0.0391-0.0508 0.1392-0.19048 0.26955-0.3883 0.39063-0.5918 6e-3 -0.0101 0.0136-0.0192 0.0195-0.0293 3e-3 -6e-3 6e-3 -0.0118 0.01-0.0176 0.11345-0.19392 0.21646-0.39313 0.3125-0.59765 0.0179-0.0379 0.0374-0.075 0.0547-0.11328 0.0791-0.17605 0.14929-0.35613 0.21485-0.53907 0.0245-0.0679 0.0516-0.13434 0.0742-0.20312 0.0568-0.17438 0.10236-0.35347 0.14648-0.5332 0.0175-0.0708 0.0392-0.13935 0.0547-0.21094 0.0411-0.1917 0.0695-0.38716 0.0957-0.58399 9e-3 -0.0662 0.0241-0.13057 0.0312-0.19726 0.0278-0.26235 0.043-0.52912 0.043-0.79883s-0.0152-0.53648-0.043-0.79883c-7e-3 -0.0667-0.0224-0.13111-0.0312-0.19726-0.0262-0.19683-0.0546-0.39229-0.0957-0.58399-0.0155-0.0716-0.0372-0.14013-0.0547-0.21094-0.0441-0.17973-0.0897-0.35882-0.14648-0.5332-0.0226-0.0688-0.0497-0.13524-0.0742-0.20312-0.0656-0.18294-0.13579-0.36302-0.21485-0.53907-0.0173-0.0383-0.0368-0.0754-0.0547-0.11328-0.096-0.20452-0.19905-0.40373-0.3125-0.59765-3e-3 -6e-3 -6e-3 -0.0118-0.01-0.0176-6e-3 -0.0101-0.0135-0.0192-0.0195-0.0293-0.12108-0.2035-0.25143-0.40132-0.39063-0.5918-0.0127-0.0172-0.0263-0.0336-0.0391-0.0508-0.14616-0.19647-0.30057-0.38539-0.46484-0.5664-6.2e-4 -6.9e-4 -1e-3 -1e-3 -2e-3 -2e-3 -6.3e-4 -6.8e-4 -1e-3 -1e-3 -2e-3 -2e-3 -0.17258-0.18989-0.35388-0.36968-0.54492-0.54101-0.31135-0.27925-0.64502-0.53321-1-0.75782-0.2897-0.1833-0.59151-0.34734-0.90625-0.49023-0.30969-0.1406-0.62853-0.26333-0.95898-0.36133-0.0237-7e-3 -0.0485-0.0107-0.0723-0.0176-0.27572-0.0788-0.55799-0.14046-0.8457-0.1875-0.0819-0.0136-0.16333-0.0262-0.2461-0.0371-0.31834-0.04121-0.64113-0.0703-0.9707-0.0703zm0 2a5.5 5.5 0 0 1 0.3125 0.0156 5.5 5.5 0 0 1 0.3457 0.0273 5.5 5.5 0 0 1 0.125 0.0195 5.5 5.5 0 0 1 0.42774 0.0781 5.5 5.5 0 0 1 0.0859 0.0215 5.5 5.5 0 0 1 0.46679 0.13477 5.5 5.5 0 0 1 2e-3 0 5.5 5.5 0 0 1 4e-3 2e-3 5.5 5.5 0 0 1 0.50586 0.20117h4e-3a5.5 5.5 0 0 1 1.5644 1.0723 5.5 5.5 0 0 1 0.29297 0.31445 5.5 5.5 0 0 1 0.0937 0.10742 5.5 5.5 0 0 1 0.23047 0.30078 5.5 5.5 0 0 1 0.10351 0.14453 5.5 5.5 0 0 1 0.20117 0.32813 5.5 5.5 0 0 1 0.0781 0.13672 5.5 5.5 0 0 1 0.16992 0.34765 5.5 5.5 0 0 1 0.0684 0.1543 5.5 5.5 0 0 1 0.12695 0.35156 5.5 5.5 0 0 1 0.0566 0.17188 5.5 5.5 0 0 1 0.0879 0.34179 5.5 5.5 0 0 1 0.0449 0.19336 5.5 5.5 0 0 1 0.0469 0.3125 5.5 5.5 0 0 1 0.0312 0.25391 5.5 5.5 0 0 1 0.02337 0.46881 5.5 5.5 0 0 1-0.0234 0.46875 5.5 5.5 0 0 1-0.0312 0.25391 5.5 5.5 0 0 1-0.0469 0.3125 5.5 5.5 0 0 1-0.0449 0.19336 5.5 5.5 0 0 1-0.0879 0.34179 5.5 5.5 0 0 1-0.0566 0.17188 5.5 5.5 0 0 1-0.12695 0.35156 5.5 5.5 0 0 1-0.0684 0.1543 5.5 5.5 0 0 1-0.16992 0.34765 5.5 5.5 0 0 1-0.0781 0.13672 5.5 5.5 0 0 1-0.20117 0.32813 5.5 5.5 0 0 1-0.10351 0.14453 5.5 5.5 0 0 1-0.23047 0.30078 5.5 5.5 0 0 1-0.0937 0.10742 5.5 5.5 0 0 1-0.29297 0.31445 5.5 5.5 0 0 1-1.5646 1.0723h-4e-3a5.5 5.5 0 0 1-0.50586 0.20117 5.5 5.5 0 0 1-4e-3 2e-3 5.5 5.5 0 0 1-2e-3 0 5.5 5.5 0 0 1-0.46679 0.13477 5.5 5.5 0 0 1-0.0859 0.0215 5.5 5.5 0 0 1-0.42774 0.0781 5.5 5.5 0 0 1-0.125 0.0195 5.5 5.5 0 0 1-0.3457 0.0273 5.5 5.5 0 0 1-0.31231 0.01566 5.5 5.5 0 0 1-0.3125-0.0156 5.5 5.5 0 0 1-0.3457-0.0273 5.5 5.5 0 0 1-0.125-0.0195 5.5 5.5 0 0 1-0.42774-0.0781 5.5 5.5 0 0 1-0.0859-0.0215 5.5 5.5 0 0 1-0.46679-0.13477 5.5 5.5 0 0 1-2e-3 0 5.5 5.5 0 0 1-4e-3 -2e-3 5.5 5.5 0 0 1-0.50576-0.20123h-4e-3a5.5 5.5 0 0 1-1.5644-1.0723 5.5 5.5 0 0 1-0.29297-0.31445 5.5 5.5 0 0 1-0.0937-0.10742 5.5 5.5 0 0 1-0.23047-0.30078 5.5 5.5 0 0 1-0.10351-0.14453 5.5 5.5 0 0 1-0.20117-0.32813 5.5 5.5 0 0 1-0.0781-0.13672 5.5 5.5 0 0 1-0.16992-0.34765 5.5 5.5 0 0 1-0.0684-0.1543 5.5 5.5 0 0 1-0.12695-0.35156 5.5 5.5 0 0 1-0.0566-0.17188 5.5 5.5 0 0 1-0.0879-0.34179 5.5 5.5 0 0 1-0.0449-0.19336 5.5 5.5 0 0 1-0.0469-0.3125 5.5 5.5 0 0 1-0.0312-0.25391 5.5 5.5 0 0 1-0.02347-0.46875 5.5 5.5 0 0 1 0.0234-0.46875 5.5 5.5 0 0 1 0.0312-0.25391 5.5 5.5 0 0 1 0.0469-0.3125 5.5 5.5 0 0 1 0.0449-0.19336 5.5 5.5 0 0 1 0.0879-0.34179 5.5 5.5 0 0 1 0.0566-0.17188 5.5 5.5 0 0 1 0.12695-0.35156 5.5 5.5 0 0 1 0.0684-0.1543 5.5 5.5 0 0 1 0.16992-0.34765 5.5 5.5 0 0 1 0.0781-0.13672 5.5 5.5 0 0 1 0.20117-0.32813 5.5 5.5 0 0 1 0.10351-0.14453 5.5 5.5 0 0 1 0.23047-0.30078 5.5 5.5 0 0 1 0.0937-0.10742 5.5 5.5 0 0 1 0.29297-0.31445 5.5 5.5 0 0 1 1.5646-1.0723h4e-3a5.5 5.5 0 0 1 0.50586-0.20117 5.5 5.5 0 0 1 4e-3 -2e-3 5.5 5.5 0 0 1 2e-3 0 5.5 5.5 0 0 1 0.46679-0.13477 5.5 5.5 0 0 1 0.0859-0.0215 5.5 5.5 0 0 1 0.42774-0.0781 5.5 5.5 0 0 1 0.125-0.0195 5.5 5.5 0 0 1 0.3457-0.0273 5.5 5.5 0 0 1 0.31231-0.01566z" enable-background="new" fill="#ebebeb"/>
 <circle transform="matrix(.25882 .96593 .96593 -.25882 0 0)" cx="9.798" cy="5.6569" r="5.5" enable-background="new" fill="#641c5d"/>
 <path d="m0.72654 9c0.42175 3.691 3.5405 6.497 7.2734 6.5 3.7342-2e-3 6.8556-2.8077 7.2773-6.5z" enable-background="new" fill="#fff" opacity=".1"/>
 <path d="m7.3229 3.893c-0.27271 0.56818-0.53406 1.144-0.78405 1.7273-0.25 0.57573-0.5039 1.1818-0.76147 1.8182-0.24999 0.63635-0.77266 2.0227-0.77266 2.0227l-0.58971 1.4318h1.4951l0.54088-1.4862 3.049-0.40669 0.64786 1.8928h1.489l-0.64483-1.409s-0.5265-1.3826-0.78407-2.0114c-0.25-0.63637-0.50004-1.2462-0.75002-1.8295-0.25-0.58332-0.79539-1.75-0.79539-1.75h-0.67348zm1.2044 2.875c0.27272 0.67422 0.55297 1.4015 0.84087 2.1818l-2.6865-0.10223c0.23484-0.65908 0.46972-1.2954 0.70456-1.909 0.19355-0.496 0.39472-0.97439 0.60278-1.4366v-9e-3s0.30491 0.6989 0.5383 1.2749z" enable-background="new" fill="#fff9f2"/>
 <path d="m8.6625 3.893-0.65843 1.6187s0.29932 0.70255 0.52326 1.2562c0.27273 0.67422 0.55298 1.4015 0.84087 2.1818l1.4373 0.0387c-0.20139-0.52954-0.40063-1.0352-0.59759-1.516-0.25-0.63635-0.50004-1.2462-0.75003-1.8295-0.25-0.58334-0.79539-1.75-0.79539-1.75zm-0.31069 5.4369 1.1546 0.0786 0.64106 1.4845h1.4878l-0.65709-1.4808-0.0121-0.0321c-0.85941-0.0171 6.2174-0.28454-2.6143-0.0502z" enable-background="new" fill="#c43ac4" opacity=".2"/>
 <rect x="4" y="7.8889" width="8" height="1.5556" rx=".77142" ry=".77778" color="#000000" fill="#f8f8f8"/>
 <circle cx="8" cy="8" r="7.5" enable-background="new" fill="none" opacity=".4" stroke="#000" stroke-dashoffset="6.6" stroke-linejoin="round"/>
 <path d="m8 1c-3.866 0-7 3.134-7 7 0 3.866 3.134 7 7 7 3.866 0 7-3.134 7-7 0-3.866-3.134-7-7-7zm0 1a6 6 0 0 1 6 6 6 6 0 0 1-6 6 6 6 0 0 1-6-6 6 6 0 0 1 6-6z" enable-background="new" fill="url(#linearGradient8590-3-3-4)"/>
</svg>
