<svg width="16" height="16" version="1" xmlns="http://www.w3.org/2000/svg" xmlns:xlink="http://www.w3.org/1999/xlink">
 <defs>
  <linearGradient id="linearGradient1692" x1="320" x2="336" y1="252" y2="236" gradientTransform="rotate(90 286 -34)" gradientUnits="userSpaceOnUse">
   <stop stop-color="#e72662" offset="0"/>
   <stop stop-color="#ec3c50" offset=".48272"/>
   <stop stop-color="#ff7b66" offset="1"/>
  </linearGradient>
  <linearGradient id="linearGradient1692-6" x1="321" x2="335" y1="244" y2="244" gradientTransform="rotate(90 286 -34)" gradientUnits="userSpaceOnUse">
   <stop stop-color="#fff" offset="0"/>
   <stop stop-color="#fff" stop-opacity=".098039" offset=".125"/>
   <stop stop-color="#fff" stop-opacity=".098039" offset=".925"/>
   <stop stop-color="#fff" stop-opacity=".49804" offset="1"/>
  </linearGradient>
 </defs>
 <path d="m4.1286 1c-3.7436 0-4.1464 0.30899-4.128 3.3233v4.1767 4.1767c-0.0183 3.0143 0.38446 3.3233 4.128 3.3233h7.7433c3.7436 0 4.128-0.30895 4.128-3.3233v-4.1767-4.1767c0-3.0144-0.38446-3.3233-4.128-3.3233z" color="#000000" opacity=".1"/>
 <path d="m4.4056 0.50001c-3.476 0-3.8501 0.30899-3.833 3.3233v4.1767 4.1767c-0.017 3.0143 0.35698 3.3233 3.833 3.3233h7.19c3.476 0 3.833-0.30895 3.833-3.3233v-4.1767-4.1767c0-3.0144-0.35699-3.3233-3.833-3.3233z" color="#000000" fill="url(#linearGradient1692)"/>
 <g transform="matrix(.085418 0 0 .085418 -6.9477 -5.923)" enable-background="new" fill="#fff" stroke-width="11.707">
  <path d="m175 98.61c-11.35 0-20.095 6.7842-20.095 20.433v47.698c0 13.657 8.7455 20.457 20.095 20.457s20.095-6.8244 20.095-20.457v-47.69c0-13.633-8.7455-20.441-20.095-20.441zm0 8.0382c4.0673 0 6.9128 1.1334 8.7777 2.8937 1.8648 1.7684 3.2796 4.4049 3.2796 9.5011v47.698c0 5.0962-1.4147 7.7327-3.2796 9.5011-1.8729 1.7684-4.7104 2.9178-8.7777 2.9178-4.0673 0-6.9128-1.1414-8.7777-2.9018-1.8648-1.7684-3.2796-4.4049-3.2796-9.5172v-47.69c0-5.1123 1.4147-7.7407 3.2796-9.5011 1.8648-1.7684 4.7104-2.9018 8.7777-2.9018z" color="#000000" overflow="visible"/>
  <rect x="170.98" y="191.22" width="8.0382" height="32.153" color="#000000" overflow="visible"/>
  <path d="m175 219.35c-6.6958 0-13.408 1.2781-20.095 3.6815v4.3567h40.191v-4.3567c-6.6958-2.3552-13.4-3.6815-20.095-3.6815z" font-size="15" font-weight="400" letter-spacing="0" word-spacing="0"/>
  <path d="m138.83 155.05v12.057a36.091 36.091 0 0 0 36.172 36.172 36.091 36.091 0 0 0 36.172-36.172v-12.057h-8.0382v12.057c0 15.586-12.548 28.134-28.134 28.134a28.069 28.069 0 0 1-28.134-28.134v-12.057z"/>
 </g>
 <path d="m11.555 15.5c3.337 0 3.9622-0.30212 3.9447-3.2495v-4.2505-4.2506c0.0175-2.9473-0.60763-3.2494-3.9447-3.2494h-7.1102c-3.3362 0-3.9447 0.30208-3.9447 3.2494v4.2506 4.2505c0 2.9474 0.60847 3.2495 3.9447 3.2495z" color="#000000" fill="none" opacity=".4" stroke="#000"/>
 <path d="m4.4453 1c-1.653 0-2.546 0.12548-2.916 0.41406-0.18499 0.14429-0.30479 0.33122-0.39649 0.70313-0.09171 0.37191-0.13281 0.91317-0.13281 1.6328v4.25 4.25c0 0.71964 0.0411 1.2608 0.13281 1.6328 0.0917 0.37191 0.2115 0.55884 0.39649 0.70313 0.36997 0.28858 1.263 0.41406 2.916 0.41406h7.1094c1.6534 0 2.552-0.12511 2.9238-0.41406 0.18589-0.14448 0.30578-0.33208 0.39648-0.70313s0.129-0.90979 0.125-1.6289v-2e-3 -4.2519-4.252-2e-3c4e-3 -0.71911-0.0343-1.2578-0.125-1.6289s-0.21059-0.55865-0.39648-0.70313c-0.37179-0.2889-1.2704-0.41402-2.9238-0.41402zm5.3281 1.0469c1.1077-3.4e-4 2.2136 8e-3 3.3203 0.0449 0.26616 0.0599 0.75737-0.0208 0.79297 0.3457 0.13405 1.8444 0.0662 3.6877 0.10156 5.5391-0.0126 1.8674 0.0543 3.6703-0.10351 5.498 0.0642 0.42314-0.43946 0.35577-0.70313 0.42187-3.4328 0.0703-6.8758 0.0589-10.299 2e-3 -0.22288-0.0398-0.55622-3.2e-4 -0.71093-0.1875-0.19863-1.13-0.12696-2.2695-0.16016-3.4199 0.0138-2.5565-0.029-5.1073 0.0898-7.6562-0.03-0.2727 0.10944-0.49629 0.40039-0.48829 1.3066-0.161 2.6326-0.0636 3.9473-0.0976 1.1072 6e-3 2.2166-2e-3 3.3242-2e-3z" color="#000000" fill="url(#linearGradient1692-6)"/>
</svg>
