<svg width="16" height="16" version="1" xmlns="http://www.w3.org/2000/svg">
 <defs>
  <linearGradient id="linearGradient8588-0-1-5" x1="13.735" x2="38.1" y1="249.69" y2="292.77" gradientTransform="matrix(.31496 0 0 .31496 .16669 -77.71)" gradientUnits="userSpaceOnUse">
   <stop stop-color="#1a7fd4" offset="0"/>
   <stop stop-color="#37a6e6" offset="1"/>
  </linearGradient>
  <linearGradient id="linearGradient8590-3-3-4" x1="96" x2="96" y1="4" y2="188" gradientTransform="matrix(.076087 0 0 .076087 .69566 .69567)" gradientUnits="userSpaceOnUse">
   <stop stop-color="#fff" offset="0"/>
   <stop stop-color="#fff" stop-opacity=".098039" offset=".125"/>
   <stop stop-color="#fff" stop-opacity=".098039" offset=".925"/>
   <stop stop-color="#fff" stop-opacity=".49804" offset="1"/>
  </linearGradient>
 </defs>
 <ellipse transform="scale(-1)" cx="-8" cy="-8.5" rx="7" ry="6.5" enable-background="new" opacity=".1"/>
 <circle cx="8" cy="8" r="7.5" enable-background="new" fill="url(#linearGradient8588-0-1-5)"/>
 <path d="m1.082 9a7.2329 7.2329 0 0 0 7.1152 6 7.2329 7.2329 0 0 0 7.123-6z" enable-background="new" fill="#fff" opacity=".1"/>
 <circle cx="8" cy="8" r="7.5" enable-background="new" fill="none" opacity=".4" stroke="#000" stroke-dashoffset="6.6" stroke-linejoin="round"/>
 <path d="m8 1c-3.866 0-7 3.134-7 7s3.134 7 7 7 7-3.134 7-7-3.134-7-7-7zm0 1a6 6 0 0 1 6 6 6 6 0 0 1-6 6 6 6 0 0 1-6-6 6 6 0 0 1 6-6z" enable-background="new" fill="url(#linearGradient8590-3-3-4)"/>
 <g transform="translate(-322.99 -234.74)" enable-background="new" fill="#fff">
  <path d="m327.04 238.74 2.9268-1e-3v3.4159l1.1095 4.8e-4c-0.45367 0.90553-1.2713 2.495-2.5729 4.4332-1.3018-1.9385-2.1192-3.5289-2.5729-4.4344l1.1095 4.9e-4z" color="#000000" enable-background="accumulate"/>
  <path d="m333.04 246.59 2.9268 1e-3v-3.4159l1.1095-4.8e-4c-0.45367-0.90553-1.2713-2.495-2.5729-4.4332-1.3018 1.9385-2.1192 3.5289-2.5729 4.4344l1.1095-4.9e-4z" color="#000000" enable-background="accumulate"/>
 </g>
</svg>
