<svg width="16" height="16" version="1" xmlns="http://www.w3.org/2000/svg" xmlns:xlink="http://www.w3.org/1999/xlink">
 <defs>
  <linearGradient id="linearGradient8590-3-3-4" x1="96" x2="96" y1="4" y2="188" gradientTransform="matrix(.076087 0 0 .076087 .69566 .69567)" gradientUnits="userSpaceOnUse">
   <stop stop-color="#fff" offset="0"/>
   <stop stop-color="#fff" stop-opacity=".098039" offset=".125"/>
   <stop stop-color="#fff" stop-opacity=".098039" offset=".925"/>
   <stop stop-color="#fff" stop-opacity=".49804" offset="1"/>
  </linearGradient>
 </defs>
 <ellipse transform="scale(-1)" cx="-8" cy="-8.5" rx="7" ry="6.5" enable-background="new" opacity=".1"/>
 <path d="m8 0.5a7.5 7.5 0 0 0-0.91602 0.0664c0.30084-0.0373 0.60492-0.0664 0.91602-0.0664zm-1.1641 0.0957a7.5 7.5 0 0 0-0.91797 0.20313c0.29872-0.0872 0.60501-0.15363 0.91797-0.20313zm-1.041 0.24414a7.5 7.5 0 0 0-0.82422 0.31055c0.26658-0.11881 0.54245-0.22292 0.82422-0.31055zm-0.9375 0.35938a7.5 7.5 0 0 0-1.8574 1.2227v1.5781h1.2305a5.5 5.5 0 0 0-1.7305 4 5.5 5.5 0 0 0 5.5 5.5 5.5 5.5 0 0 0 2.2754-0.5h1.7246v1.3359c-0.2742 0.17349-0.5611 0.3269-0.85742 0.46484a7.5 7.5 0 0 0 1.8574-1.2227v-1.5781h-1.2305a5.5 5.5 0 0 0 1.7305-4 5.5 5.5 0 0 0-5.5-5.5 5.5 5.5 0 0 0-2.2754 0.5h-1.7246v-1.3359c0.2742-0.17349 0.5611-0.3269 0.85742-0.46484zm8.1426 12.379a7.5 7.5 0 0 0 0.54688-0.54296c-0.17302 0.19006-0.35551 0.37132-0.54688 0.54296zm0.54688-0.54296a7.5 7.5 0 0 0 0.45117-0.54688c-0.14221 0.18901-0.29218 0.37221-0.45117 0.54688zm-10.547-10.613a7.5 7.5 0 0 0-0.54688 0.54296c0.17302-0.19006 0.35551-0.37132 0.54688-0.54296zm-0.54688 0.54296a7.5 7.5 0 0 0-0.45117 0.54688c0.14221-0.18901 0.29218-0.37221 0.45117-0.54688zm10.35-0.72265c0.0844 0.0704 0.16297 0.14668 0.24415 0.2207a7.5 7.5 0 0 0-0.24415-0.2207zm0.53125 0.49023c0.0794 0.0804 0.15277 0.16607 0.22852 0.25a7.5 7.5 0 0 0-0.22852-0.25zm0.5 0.5586c0.0633 0.0784 0.12145 0.16124 0.18164 0.24218a7.5 7.5 0 0 0-0.18164-0.24218zm-11.893 0.30078a7.5 7.5 0 0 0-0.35743 0.54101c0.1125-0.18533 0.22979-0.36659 0.35743-0.54101zm12.328 0.29687c0.0499 0.0759 0.0935 0.15658 0.14063 0.23438a7.5 7.5 0 0 0-0.14063-0.23438zm-12.752 0.35352a7.5 7.5 0 0 0-0.27149 0.51758c0.0849-0.17554 0.17363-0.34997 0.27149-0.51758zm13.133 0.29883c0.0368 0.0705 0.0689 0.14301 0.10352 0.21484a7.5 7.5 0 0 0-0.10352-0.21484zm-13.5 0.41796a7.5 7.5 0 0 0-0.17383 0.43555c0.0548-0.14666 0.11024-0.29341 0.17383-0.43555zm13.809 0.25196c0.0329 0.0819 0.0598 0.16666 0.0899 0.25a7.5 7.5 0 0 0-0.0899-0.25zm-14.096 0.49804a7.5 7.5 0 0 0-0.10351 0.37305c0.0333-0.12522 0.0639-0.25051 0.10351-0.37305zm14.334 0.19727c0.0269 0.0926 0.0489 0.18721 0.0723 0.28125a7.5 7.5 0 0 0-0.0723-0.28125zm-14.533 0.55078a7.5 7.5 0 0 0-0.0742 0.45508c0.0224-0.15241 0.0428-0.30584 0.0742-0.45508zm14.705 0.17188c0.0195 0.10514 0.0338 0.21172 0.0488 0.31836a7.5 7.5 0 0 0-0.0488-0.31836zm-14.826 0.58398a7.5 7.5 0 0 0-0.04297 0.78711c0-0.26608 0.0158-0.52836 0.043-0.78711zm-0.04297 0.78711a7.5 7.5 0 0 0 0.0332 0.63867c-0.0178-0.21081-0.0332-0.42325-0.0332-0.63867zm14.967-0.63867c0.0178 0.21081 0.0332 0.42325 0.0332 0.63867a7.5 7.5 0 0 0-0.0332-0.63867zm0.0332 0.63867c0 0.26608-0.0158 0.52836-0.043 0.78711a7.5 7.5 0 0 0 0.043-0.78711zm-14.918 1.0527a7.5 7.5 0 0 0 0.0488 0.31836c-0.0195-0.10514-0.0338-0.21172-0.0488-0.31836zm14.828 0.0352c-0.0224 0.15241-0.0428 0.30584-0.0742 0.45508a7.5 7.5 0 0 0 0.0742-0.45508zm-14.68 0.72461a7.5 7.5 0 0 0 0.0723 0.28125c-0.0269-0.0926-0.0489-0.18721-0.0723-0.28125zm14.51 0.10547c-0.0333 0.12522-0.0639 0.25051-0.10351 0.37305a7.5 7.5 0 0 0 0.10351-0.37305zm-14.289 0.62109a7.5 7.5 0 0 0 0.0899 0.25c-0.0329-0.0819-0.0598-0.16666-0.0899-0.25zm14.072 0.0664c-0.0548 0.14666-0.11024 0.29341-0.17383 0.43555a7.5 7.5 0 0 0 0.17383-0.43555zm-0.26953 0.63476c-0.0849 0.17554-0.17363 0.34997-0.27149 0.51758a7.5 7.5 0 0 0 0.27149-0.51758zm-13.508 4e-3a7.5 7.5 0 0 0 0.10352 0.21484c-0.0368-0.0705-0.0689-0.14301-0.10352-0.21484zm13.17 0.62305c-0.1125 0.18533-0.22979 0.36659-0.35743 0.54101a7.5 7.5 0 0 0 0.35743-0.54101zm-12.826 0.01a7.5 7.5 0 0 0 0.14063 0.23438c-0.0499-0.0759-0.0935-0.15658-0.14063-0.23438zm0.39454 0.58985a7.5 7.5 0 0 0 0.18164 0.24218c-0.0633-0.0784-0.12145-0.16124-0.18164-0.24218zm0.45312 0.55078a7.5 7.5 0 0 0 0.22852 0.25c-0.0794-0.0804-0.15277-0.16607-0.22852-0.25zm0.51562 0.51953a7.5 7.5 0 0 0 0.24415 0.2207c-0.0844-0.0704-0.16297-0.14668-0.24415-0.2207zm8.0762 1.3125c-0.26658 0.11881-0.54245 0.22292-0.82422 0.31055a7.5 7.5 0 0 0 0.82422-0.31055zm-0.94727 0.35156c-0.29872 0.0872-0.60501 0.15363-0.91797 0.20313a7.5 7.5 0 0 0 0.91797-0.20313zm-1.166 0.23242c-0.30084 0.0369-0.60492 0.0661-0.91602 0.0661a7.5 7.5 0 0 0 0.91602-0.0664z" enable-background="new" fill="#4d4d4d"/>
 <path d="m8 0.5c-1.4726 0-2.8413 0.43093-4 1.1641v1.3359h1.7246a5.5 5.5 0 0 1 2.2754-0.5 5.5 5.5 0 0 1 5.5 5.5 5.5 5.5 0 0 1-1.7305 4h1.2305v1.5781c1.531-1.3731 2.5-3.3597 2.5-5.5781 0-4.1421-3.3579-7.5-7.5-7.5zm-5 1.9219c-1.531 1.3731-2.5 3.3597-2.5 5.5781 0 4.1421 3.3579 7.5 7.5 7.5 1.4726 0 2.8413-0.43093 4-1.1641v-1.3359h-1.7246a5.5 5.5 0 0 1-2.2754 0.5 5.5 5.5 0 0 1-5.5-5.5 5.5 5.5 0 0 1 1.7305-4h-1.2305v-1z" enable-background="new" fill="#ebebeb"/>
 <circle cx="8" cy="8" r="5.5" enable-background="new" fill="#babeb4" opacity=".1"/>
 <path d="m0.72654 9c0.42175 3.691 3.5405 6.497 7.2734 6.5 3.7342-2e-3 6.8556-2.8077 7.2773-6.5z" enable-background="new" fill="#fff" opacity=".1"/>
 <path d="m7.3229 3.893c-0.27271 0.56818-0.53406 1.144-0.78405 1.7273-0.25 0.57573-0.5039 1.1818-0.76147 1.8182-0.24999 0.63635-0.77266 2.0227-0.77266 2.0227l-0.58971 1.4318h1.4951l0.54088-1.4862 3.049-0.40669 0.64786 1.8928h1.489l-0.64483-1.409s-0.5265-1.3826-0.78407-2.0114c-0.25-0.63637-0.50004-1.2462-0.75002-1.8295-0.25-0.58332-0.79539-1.75-0.79539-1.75h-0.67348zm1.2044 2.875c0.27272 0.67422 0.55297 1.4015 0.84087 2.1818l-2.6865-0.10223c0.23484-0.65908 0.46972-1.2954 0.70456-1.909 0.19355-0.496 0.39472-0.97439 0.60278-1.4366v-9e-3s0.30491 0.6989 0.5383 1.2749z" enable-background="new" fill="#fff9f2"/>
 <path d="m8.6625 3.893-0.65843 1.6187s0.29932 0.70255 0.52326 1.2562c0.27273 0.67422 0.55298 1.4015 0.84087 2.1818l1.4373 0.0387c-0.20139-0.52954-0.40063-1.0352-0.59759-1.516-0.25-0.63635-0.50004-1.2462-0.75003-1.8295-0.25-0.58334-0.79539-1.75-0.79539-1.75zm-0.31069 5.4369 1.1546 0.0786 0.64106 1.4845h1.4878l-0.65709-1.4808-0.0121-0.0321c-0.85941-0.0171 6.2174-0.28454-2.6143-0.0502z" enable-background="new" fill="#4571df" opacity=".1"/>
 <rect x="4" y="7.8889" width="8" height="1.5556" rx=".77142" ry=".77778" color="#000000" fill="#f8f8f8"/>
 <circle cx="8" cy="8" r="7.5" enable-background="new" fill="none" opacity=".4" stroke="#000" stroke-dashoffset="6.6" stroke-linejoin="round"/>
 <path d="m8 1c-1.4883 0-2.8657 0.46783-4 1.2598v0.74023h0.68945a6 6 0 0 1 3.3106-1 6 6 0 0 1 6 6 6 6 0 0 1-1.5352 4h0.53516v0.89453c1.2359-1.2623 2-2.9884 2-4.8945 0-3.866-3.134-7-7-7zm-5 2.1055c-1.2359 1.2623-2 2.9884-2 4.8945 0 3.866 3.134 7 7 7 1.4883 0 2.8657-0.46784 4-1.2598v-0.74023h-0.68945a6 6 0 0 1-3.3106 1 6 6 0 0 1-6-6 6 6 0 0 1 1.5352-4h-0.53516z" enable-background="new" fill="url(#linearGradient8590-3-3-4)"/>
</svg>
