<svg width="16" height="16" version="1" xmlns="http://www.w3.org/2000/svg" xmlns:xlink="http://www.w3.org/1999/xlink">
 <defs>
  <linearGradient id="linearGradient8588-0-1-5" x1="13.735" x2="38.1" y1="249.69" y2="292.77" gradientTransform="matrix(.31496 0 0 .31496 .16669 -77.71)" gradientUnits="userSpaceOnUse">
   <stop stop-color="#1a7fd4" offset="0"/>
   <stop stop-color="#37a6e6" offset="1"/>
  </linearGradient>
  <linearGradient id="linearGradient8590-3-3-4" x1="96" x2="96" y1="4" y2="188" gradientTransform="matrix(.076087 0 0 .076087 .69566 .69567)" gradientUnits="userSpaceOnUse">
   <stop stop-color="#fff" offset="0"/>
   <stop stop-color="#fff" stop-opacity=".098039" offset=".125"/>
   <stop stop-color="#fff" stop-opacity=".098039" offset=".925"/>
   <stop stop-color="#fff" stop-opacity=".49804" offset="1"/>
  </linearGradient>
 </defs>
 <ellipse transform="scale(-1)" cx="-8" cy="-8.5" rx="7" ry="6.5" enable-background="new" opacity=".1"/>
 <circle cx="8" cy="8" r="7.5" enable-background="new" fill="url(#linearGradient8588-0-1-5)"/>
 <path d="m1.082 9a7.2329 7.2329 0 0 0 7.1152 6 7.2329 7.2329 0 0 0 7.123-6z" enable-background="new" fill="#fff" opacity=".1"/>
 <path d="m8.2083 3.6703 9e-4 9e-4c-0.4024 5e-5 -0.78305 0.0461-1.1419 0.138-0.32582 0.0853-0.61444 0.20181-0.88108 0.33649l0.27236 0.75336c0.51932-0.26361 1.052-0.40791 1.5973-0.40791 0.45846 0 0.82212 0.12119 1.0725 0.3712 0.24705 0.23822 0.3722 0.55618 0.3722 0.93306 0 0.23499-0.055 0.45492-0.16409 0.65517-0.0976 0.19466-0.22542 0.38006-0.38325 0.55543-0.15458 0.17177-0.3175 0.34347-0.48909 0.51508l-6.6e-4 6.6e-4 -2e-3 6.7e-4c-0.16722 0.15886-0.32605 0.33465-0.47703 0.52756l-6.6e-4 6.6e-4 -3.1e-4 6.7e-4c-0.1485 0.18148-0.27195 0.37932-0.37111 0.59391-0.0883 0.20928-0.13357 0.44343-0.13357 0.70548 0 0.15718 0.0182 0.3046 0.0427 0.4485h0.82071c-6.7e-4 -0.0176-5e-3 -0.0333-5e-3 -0.0516v-0.14087c0-0.29254 0.0581-0.55845 0.17515-0.79328 0.11378-0.2363 0.25417-0.45127 0.42075-0.64446l6.6e-4 -6.6e-4c3.2e-4 -3.1e-4 3.2e-4 -6.5e-4 6.7e-4 -2e-3 0.1644-0.19885 0.34609-0.38868 0.54459-0.56989 0.1932-0.17642 0.3694-0.3612 0.52867-0.55401 0.15756-0.19071 0.28974-0.39363 0.39742-0.60873v-3.1e-4c0.10444-0.21703 0.15757-0.46284 0.15757-0.74131 0-0.22038-0.0365-0.45037-0.11102-0.69022l-6.6e-4 -2e-3 -3.2e-4 -2e-3c-0.0645-0.24193-0.18448-0.45882-0.36324-0.65384-0.17708-0.19317-0.4166-0.35224-0.72251-0.47626l-4e-3 -0.00132c-0.29103-0.12935-0.67576-0.19702-1.1533-0.19705zm-0.20368 7.522c-0.24525 0-0.42399 0.0749-0.56052 0.22659-0.14021 0.15577-0.20745 0.33132-0.20745 0.54183 0 0.2105 0.0673 0.38638 0.20745 0.54216 0.13653 0.1517 0.31527 0.22613 0.56052 0.22613s0.4243-0.0745 0.56083-0.22613c0.14019-0.15578 0.20745-0.33166 0.20745-0.54216 0-0.21051-0.0672-0.38606-0.20745-0.54183-0.13653-0.15172-0.31558-0.22659-0.56083-0.22659z" enable-background="new" fill="#fff"/>
 <circle cx="8" cy="8" r="7.5" enable-background="new" fill="none" opacity=".4" stroke="#000" stroke-dashoffset="6.6" stroke-linejoin="round"/>
 <path d="m8 1c-3.866 0-7 3.134-7 7 0 3.866 3.134 7 7 7 3.866 0 7-3.134 7-7 0-3.866-3.134-7-7-7zm0 1a6 6 0 0 1 6 6 6 6 0 0 1-6 6 6 6 0 0 1-6-6 6 6 0 0 1 6-6z" enable-background="new" fill="url(#linearGradient8590-3-3-4)"/>
</svg>
