<svg width="16" height="16" version="1" xmlns="http://www.w3.org/2000/svg" xmlns:xlink="http://www.w3.org/1999/xlink">
 <defs>
  <linearGradient id="linearGradient1692" x1="320" x2="336" y1="252" y2="236" gradientTransform="rotate(90 286 -34)" gradientUnits="userSpaceOnUse">
   <stop stop-color="#948b74" offset="0"/>
   <stop stop-color="#aea795" offset="1"/>
  </linearGradient>
  <linearGradient id="linearGradient1692-6" x1="321" x2="335" y1="244" y2="244" gradientTransform="rotate(90 286 -34)" gradientUnits="userSpaceOnUse">
   <stop stop-color="#fff" offset="0"/>
   <stop stop-color="#fff" stop-opacity=".098039" offset=".125"/>
   <stop stop-color="#fff" stop-opacity=".098039" offset=".925"/>
   <stop stop-color="#fff" stop-opacity=".49804" offset="1"/>
  </linearGradient>
 </defs>
 <path d="m4.1286 1c-3.7436 0-4.1464 0.30899-4.128 3.3233v4.1767 4.1767c-0.0183 3.0143 0.38446 3.3233 4.128 3.3233h7.7433c3.7436 0 4.128-0.30895 4.128-3.3233v-4.1767-4.1767c0-3.0144-0.38446-3.3233-4.128-3.3233z" color="#000000" opacity=".1"/>
 <path d="m4.4056 0.50001c-3.476 0-3.8501 0.30899-3.833 3.3233v4.1767 4.1767c-0.017 3.0143 0.35698 3.3233 3.833 3.3233h7.19c3.476 0 3.833-0.30895 3.833-3.3233v-4.1767-4.1767c0-3.0144-0.35699-3.3233-3.833-3.3233z" color="#000000" fill="url(#linearGradient1692)"/>
 <path d="m6.0043 4c-0.94358 0.011-1.6327-0.0225-2.1973 0.28906-0.28229 0.15575-0.50542 0.41909-0.62891 0.74805-0.12349 0.32895-0.16604 0.71972-0.16796 1.2129l-6e-3 1.75h6e-3c-3e-3 0.0854-0.0137 0.15772-0.0137 0.25v2.5c0 0.49316 0.0445 0.88395 0.16797 1.2129 0.12348 0.32894 0.34661 0.5923 0.62891 0.74805 0.40373 0.22277 0.87216 0.26885 1.4512 0.28125l4.7559 8e-3c0.94358-0.0109 1.6346 0.0224 2.1992-0.28906 0.28229-0.15574 0.50543-0.41911 0.6289-0.74805 0.12349-0.32895 0.16997-0.71971 0.16797-1.2129l-0.0117-2.75h0.0117v-0.75c0-0.49317-0.0445-0.88395-0.16797-1.2129-0.12346-0.32895-0.3466-0.59231-0.6289-0.74805-0.28539-0.15747-0.60439-0.22633-0.9707-0.25781-0.35716-0.0317-0.76329-0.026-1.2285-0.0312h-0.0156-0.99415-0.99025-0.01l-1-1h-0.98242z" color="#000000" color-rendering="auto" image-rendering="auto" opacity=".2" shape-rendering="auto" solid-color="#000000" style="isolation:auto;mix-blend-mode:normal;shape-padding:0;text-decoration-color:#000000;text-decoration-line:none;text-decoration-style:solid;text-indent:0;text-transform:none;white-space:normal"/>
 <path d="m6.0043 3c-0.94358 0.011-1.6327-0.0225-2.1973 0.28906-0.28229 0.15575-0.50542 0.41909-0.62891 0.74805-0.12349 0.32895-0.16604 0.71972-0.16796 1.2129l-6e-3 1.75h9.9922v-0.75c0-0.49317-0.0445-0.88395-0.16797-1.2129-0.12347-0.32895-0.3466-0.59231-0.6289-0.74805-0.56443-0.31151-1.2555-0.27814-2.1991-0.28906h-1.0098-1l-1-1h-0.98242z" color="#000000" color-rendering="auto" fill="#e3dfd5" image-rendering="auto" shape-rendering="auto" solid-color="#000000" style="isolation:auto;mix-blend-mode:normal;shape-padding:0;text-decoration-color:#000000;text-decoration-line:none;text-decoration-style:solid;text-indent:0;text-transform:none;white-space:normal"/>
 <path d="m9.9867 3.9999c0.94358 0.011 1.634-0.0219 2.1986 0.28966 0.28229 0.15575 0.50562 0.4188 0.62911 0.74776 0.12349 0.32895 0.16616 0.71929 0.16808 1.2125l0.0136 3.5007c2e-3 0.49318-0.0446 0.88314-0.16808 1.2121-0.12348 0.32894-0.34682 0.59274-0.62911 0.74848-0.56457 0.31151-1.255 0.27802-2.1986 0.28893h1e-4l-4.7549-8e-3c-0.57901-0.0124-1.0489-0.0581-1.4527-0.28087-0.2823-0.15575-0.50563-0.41955-0.62911-0.74849s-0.16809-0.71892-0.16809-1.2121v-2.5001c0-0.49317 0.0446-0.88351 0.16809-1.2124 0.12348-0.32895 0.34681-0.59238 0.62911-0.74812 0.56457-0.31151 1.255-0.27838 2.1986-0.2893l1.009-5.8e-4 1-1h1.9841 3e-3z" color="#000000" color-rendering="auto" fill="#faf8f6" image-rendering="auto" shape-rendering="auto" solid-color="#000000" style="isolation:auto;mix-blend-mode:normal;shape-padding:0;text-decoration-color:#000000;text-decoration-line:none;text-decoration-style:solid;text-indent:0;text-transform:none;white-space:normal"/>
 <path d="m11.555 15.5c3.337 0 3.9622-0.30212 3.9447-3.2495v-4.2505-4.2506c0.0175-2.9473-0.60763-3.2494-3.9447-3.2494h-7.1102c-3.3362 0-3.9447 0.30208-3.9447 3.2494v4.2506 4.2505c0 2.9474 0.60847 3.2495 3.9447 3.2495z" color="#000000" fill="none" opacity=".4" stroke="#000"/>
 <path d="m4.4453 1c-1.653 0-2.546 0.12548-2.916 0.41406-0.18499 0.14429-0.30479 0.33122-0.39649 0.70313-0.09171 0.37191-0.13281 0.91317-0.13281 1.6328v4.25 4.25c0 0.71964 0.0411 1.2608 0.13281 1.6328 0.0917 0.37191 0.2115 0.55884 0.39649 0.70313 0.36997 0.28858 1.263 0.41406 2.916 0.41406h7.1094c1.6534 0 2.552-0.12511 2.9238-0.41406 0.18589-0.14448 0.30578-0.33208 0.39648-0.70313s0.129-0.90979 0.125-1.6289v-2e-3 -4.2519-4.252-2e-3c4e-3 -0.71911-0.0343-1.2578-0.125-1.6289s-0.21059-0.55865-0.39648-0.70313c-0.37179-0.2889-1.2704-0.41402-2.9238-0.41402zm5.3281 1.0469c1.1077-3.4e-4 2.2136 8e-3 3.3203 0.0449 0.26616 0.0599 0.75737-0.0208 0.79297 0.3457 0.13405 1.8444 0.0662 3.6877 0.10156 5.5391-0.0126 1.8674 0.0543 3.6703-0.10351 5.498 0.0642 0.42314-0.43946 0.35577-0.70313 0.42187-3.4328 0.0703-6.8758 0.0589-10.299 2e-3 -0.22288-0.0398-0.55622-3.2e-4 -0.71093-0.1875-0.19863-1.13-0.12696-2.2695-0.16016-3.4199 0.0138-2.5565-0.029-5.1073 0.0898-7.6562-0.03-0.2727 0.10944-0.49629 0.40039-0.48829 1.3066-0.161 2.6326-0.0636 3.9473-0.0976 1.1072 6e-3 2.2166-2e-3 3.3242-2e-3z" color="#000000" fill="url(#linearGradient1692-6)"/>
</svg>
