<svg width="16" height="16" version="1" xmlns="http://www.w3.org/2000/svg" xmlns:xlink="http://www.w3.org/1999/xlink">
 <defs>
  <linearGradient id="linearGradient8588-0-1-5" x1="13.735" x2="38.1" y1="249.69" y2="292.77" gradientTransform="matrix(.31496 0 0 .31496 .16669 -77.71)" gradientUnits="userSpaceOnUse">
   <stop stop-color="#da1636" offset="0"/>
   <stop stop-color="#f22c42" offset="1"/>
  </linearGradient>
  <linearGradient id="linearGradient8590-3-3-4" x1="96" x2="96" y1="4" y2="188" gradientTransform="matrix(.076087 0 0 .076087 .69566 .69567)" gradientUnits="userSpaceOnUse">
   <stop stop-color="#fff" offset="0"/>
   <stop stop-color="#fff" stop-opacity=".098039" offset=".125"/>
   <stop stop-color="#fff" stop-opacity=".098039" offset=".925"/>
   <stop stop-color="#fff" stop-opacity=".49804" offset="1"/>
  </linearGradient>
 </defs>
 <ellipse transform="scale(-1)" cx="-8" cy="-8.5" rx="7" ry="6.5" enable-background="new" opacity=".1"/>
 <circle cx="8" cy="8" r="7.5" enable-background="new" fill="url(#linearGradient8588-0-1-5)"/>
 <path d="m1.082 9a7.2329 7.2329 0 0 0 7.1152 6 7.2329 7.2329 0 0 0 7.123-6z" enable-background="new" fill="#fff" opacity=".05"/>
 <path d="m7.8656 12.088c-1.488-0.41274-2.0597-2.184-1.2766-3.9547 0.12165-0.27507 0.22078-0.52526 0.22029-0.55599-4.6e-4 -0.0307-0.3062-0.0643-0.67936-0.0746-1.2014-0.0333-2.1602-0.46191-2.5008-1.1179-0.19387-0.37345-0.19793-1.1848-8e-3 -1.5511 0.24296-0.46793 0.71673-0.81382 1.2728-0.92926 0.59694-0.12392 0.63835-0.11745 2.9428 0.4597 1.629 0.40798 1.8564 0.44407 2.5894 0.41104 0.65721-0.0296 0.89527-0.0821 1.3067-0.28804 0.27709-0.13869 0.56788-0.22694 0.64736-0.19644 0.64514 0.24756-1.097 1.1488-2.4594 1.2722-0.81058 0.0735-1.5787-0.0396-3.3934-0.49959-1.7402-0.44109-2.0313-0.451-2.3437-0.0798-0.17502 0.208-0.23116 0.374-0.23116 0.6835 0 0.36079 0.0419 0.44869 0.35734 0.74871 0.46543 0.44275 1.0535 0.61507 2.092 0.61301l0.80973-2e-3 0.29588-0.45241c0.22555-0.34487 0.40396-0.50011 0.7505-0.65305 0.25003-0.11034 0.54643-0.18307 0.65865-0.16162 0.20223 0.0387 0.20119 0.0433-0.11667 0.52206-0.1764 0.26568-0.30459 0.49661-0.28487 0.51319 0.0197 0.0166 0.31712-0.0412 0.66089-0.12841 0.57017-0.14463 0.6347-0.14608 0.73513-0.0165 0.20961 0.27045-0.046 0.39638-1.3602 0.67014l-0.53574 0.1116-0.31824 0.64189c-0.94479 1.9056-0.60105 3.5994 0.73045 3.5994 0.2638 0 0.58188-0.0708 0.78589-0.17485 1.1702-0.59698 1.8642-2.6824 0.89264-2.6824-0.52669 0-1.168 0.53128-1.4944 1.2382-0.17339 0.3754-0.26547 0.45979-0.43195 0.39591-0.43123-0.16548 0.38913-1.5238 1.1569-1.9154 0.97695-0.49841 1.8871-7.6e-4 1.8867 1.0316-5.3e-4 1.5283-1.8721 2.9338-3.3579 2.5217z" enable-background="new" fill="#fff" stroke-width="3.7797"/>
 <circle cx="8" cy="8" r="7.5" enable-background="new" fill="none" opacity=".4" stroke="#000" stroke-dashoffset="6.6" stroke-linejoin="round"/>
 <path d="m8 1c-3.866 0-7 3.134-7 7 0 3.866 3.134 7 7 7 3.866 0 7-3.134 7-7 0-3.866-3.134-7-7-7zm0 1a6 6 0 0 1 6 6 6 6 0 0 1-6 6 6 6 0 0 1-6-6 6 6 0 0 1 6-6z" enable-background="new" fill="url(#linearGradient8590-3-3-4)"/>
</svg>
