<svg width="16" height="16" version="1" xmlns="http://www.w3.org/2000/svg" xmlns:xlink="http://www.w3.org/1999/xlink">
 <defs>
  <linearGradient id="linearGradient3854" x1="329" x2="329" y1="238" y2="251" gradientTransform="translate(-320,-236)" gradientUnits="userSpaceOnUse">
   <stop stop-color="#fff" offset="0"/>
   <stop stop-color="#fff" stop-opacity="0" offset=".090625"/>
   <stop stop-color="#fff" stop-opacity="0" offset="1"/>
  </linearGradient>
 </defs>
 <path d="m7.0276 0.50144c-2.5635 0-3.9327 0.21212-4.6316 0.915-0.69894 0.70288-0.90966 2.0802-0.90966 4.6573v3.8525c0 2.5771 0.21072 3.9544 0.90966 4.6573 0.69895 0.70288 2.0681 0.915 4.6316 0.915h1.0055c2.5635 0 3.9327-0.21212 4.6316-0.915 0.69895-0.70288 0.90967-2.0802 0.90967-4.6573v-3.8525c0-2.5771-0.21072-3.9544-0.90967-4.6573-0.69894-0.70288-2.0681-0.915-4.6316-0.915z" enable-background="new" fill="#1a7fd4" stroke="#0b3457" stroke-linecap="round" stroke-linejoin="round" stroke-opacity=".68372"/>
 <path d="m7.0273 1.502h1.0059c2.5084 0 3.6124 0.30794 3.9219 0.61914 0.30925 0.31099 0.61914 1.4305 0.61914 3.9531v3.8516c0 2.5226-0.30989 3.6421-0.61914 3.9531-0.30946 0.3112-1.4135 0.61914-3.9219 0.61914h-1.0059c-2.5083 0-3.6124-0.30794-3.9219-0.61914-0.30925-0.31099-0.61914-1.4305-0.61914-3.9531v-3.8516c0-2.5226 0.30989-3.6421 0.61914-3.9531 0.30947-0.3112 1.4135-0.61914 3.9219-0.61914z" color="#000000" color-rendering="auto" dominant-baseline="auto" enable-background="new" fill="none" image-rendering="auto" shape-rendering="auto" solid-color="#000000" stroke="url(#linearGradient3854)" stroke-linecap="round" stroke-linejoin="round" stroke-opacity=".50196" style="font-feature-settings:normal;font-variant-alternates:normal;font-variant-caps:normal;font-variant-ligatures:normal;font-variant-numeric:normal;font-variant-position:normal;isolation:auto;mix-blend-mode:normal;shape-padding:0;text-decoration-color:#000000;text-decoration-line:none;text-decoration-style:solid;text-indent:0;text-orientation:mixed;text-transform:none;white-space:normal"/>
 <path d="m6.899 11.059-0.24375 0.41875 0.69375 0.4 0.46875-0.81875zm1.0375 0-0.35 0.60625 0.225 0.38125-0.16875 0.10001 0.81875 0.22499 0.21875-0.825-0.175 0.1-0.34375-0.5875zm-1.0375 0.78751-0.81875 0.22499 0.175 0.1-0.3 0.50625 0.1625 0.28125h0.60625l0.225-0.3875 0.16875 0.1zm2.0062 0.49374-0.69375 0.4 0.425 0.75625 0.0625-0.10625 0.14375-0.25625 0.0437-0.075 0.21875-0.38125zm-1.175 0.51875-0.6 0.6 0.6 0.6v-0.19999h0.7l0.15625-0.26876-0.30625-0.53125h-0.55zm-1.5562 0.2 0.0562 0.10001 0.1875 0.33124 0.2125 0.36876h0.3v-0.80001z" enable-background="new" fill="#fff"/>
 <path d="M 7.17481,3 C 4.90439,3 3.87506,3.26256 3.57757,3.54218 3.22675,3.87191 3,4.60832 3,6.49942 3,8.39051 3.22675,9.12691 3.57757,9.45664 3.87506,9.73626 4.90439,10 7.17481,10 H 7.8252 C 10.09562,10 11.12495,9.73626 11.42243,9.45664 11.77324,9.12691 12,8.39051 12,6.49942 12,4.60832 11.77324,3.87191 11.42243,3.54218 11.12495,3.26257 10.09562,3 7.8252,3 Z" color="#000000" color-rendering="auto" dominant-baseline="auto" enable-background="new" fill="#fff" image-rendering="auto" opacity=".2" shape-rendering="auto" solid-color="#000000" style="font-feature-settings:normal;font-variant-alternates:normal;font-variant-caps:normal;font-variant-ligatures:normal;font-variant-numeric:normal;font-variant-position:normal;isolation:auto;mix-blend-mode:normal;shape-padding:0;text-decoration-color:#000000;text-decoration-line:none;text-decoration-style:solid;text-indent:0;text-orientation:mixed;text-transform:none;white-space:normal"/>
 <path d="M 7.17481,2 C 4.90439,2 3.87506,2.26256 3.57757,2.54218 3.22675,2.87191 3,3.60832 3,5.49942 3,7.39051 3.22675,8.12691 3.57757,8.45664 3.87506,8.73626 4.90439,9 7.17481,9 H 7.8252 C 10.09562,9 11.12495,8.73626 11.42243,8.45664 11.77324,8.12691 12,7.39051 12,5.49942 12,3.60832 11.77324,2.87191 11.42243,2.54218 11.12495,2.26257 10.09562,2 7.8252,2 Z" color="#000000" color-rendering="auto" dominant-baseline="auto" enable-background="new" fill="#0b508a" image-rendering="auto" shape-rendering="auto" solid-color="#000000" style="font-feature-settings:normal;font-variant-alternates:normal;font-variant-caps:normal;font-variant-ligatures:normal;font-variant-numeric:normal;font-variant-position:normal;isolation:auto;mix-blend-mode:normal;shape-padding:0;text-decoration-color:#000000;text-decoration-line:none;text-decoration-style:solid;text-indent:0;text-orientation:mixed;text-transform:none;white-space:normal"/>
</svg>
