<svg width="16" height="16" version="1" xmlns="http://www.w3.org/2000/svg" xmlns:xlink="http://www.w3.org/1999/xlink">
 <defs>
  <linearGradient id="linearGradient1692" x1="320" x2="336" y1="247" y2="241" gradientTransform="rotate(90 286 -34)" gradientUnits="userSpaceOnUse">
   <stop stop-color="#4d4d4d" offset="0"/>
   <stop stop-color="#4d4d4d" offset="1"/>
  </linearGradient>
  <linearGradient id="linearGradient1692-6" x1="321" x2="335" y1="244" y2="244" gradientTransform="rotate(90 286 -34)" gradientUnits="userSpaceOnUse">
   <stop stop-color="#fff" offset="0"/>
   <stop stop-color="#fff" stop-opacity=".098039" offset=".125"/>
   <stop stop-color="#fff" stop-opacity=".098039" offset=".925"/>
   <stop stop-color="#fff" stop-opacity=".49804" offset="1"/>
  </linearGradient>
 </defs>
 <path d="m4.1286 1c-3.7436 0-4.1464 0.30899-4.128 3.3233v4.1767 4.1767c-0.0183 3.0143 0.38446 3.3233 4.128 3.3233h7.7433c3.7436 0 4.128-0.30895 4.128-3.3233v-4.1767-4.1767c0-3.0144-0.38446-3.3233-4.128-3.3233z" color="#000000" opacity=".1"/>
 <path d="m4.4056 0.50001c-3.476 0-3.8501 0.30899-3.833 3.3233v4.1767 4.1767c-0.017 3.0143 0.35698 3.3233 3.833 3.3233h7.19c3.476 0 3.833-0.30895 3.833-3.3233v-4.1767-4.1767c0-3.0144-0.35699-3.3233-3.833-3.3233z" color="#000000" fill="url(#linearGradient1692)"/>
 <path d="m10.335 3.5001a0.61627 0.61627 0 0 0-0.50475 0.30765 0.61627 0.61627 0 0 0 0.22546 0.84223 0.61627 0.61627 0 0 0 0.84223-0.22547 0.61627 0.61627 0 0 0-0.22547-0.84222 0.61627 0.61627 0 0 0-0.33747-0.0822zm-3.9667 0.96369a0.3889 0.3889 0 0 0-0.38911 0.38911 0.3889 0.3889 0 0 0 0.38911 0.38838 0.3889 0.3889 0 0 0 0.38838-0.38838 0.3889 0.3889 0 0 0-0.38838-0.38911zm0.97896 0.0989a0.33946 0.33946 0 0 0-0.33965 0.33966 0.33946 0.33946 0 0 0 0.33965 0.33892 0.33946 0.33946 0 0 0 0.33893-0.33892 0.33946 0.33946 0 0 0-0.33893-0.33966zm-2.1165 0.0393a0.45812 0.45812 0 0 0-0.45821 0.4582 0.45812 0.45812 0 0 0 0.45821 0.45821 0.45812 0.45812 0 0 0 0.4582-0.45821 0.45812 0.45812 0 0 0-0.4582-0.4582zm2.9223 0.23783a0.29497 0.29497 0 0 0-0.29529 0.29456 0.29497 0.29497 0 0 0 0.29529 0.29529 0.29497 0.29497 0 0 0 0.29456-0.29529 0.29497 0.29497 0 0 0-0.29456-0.29456zm2.3521 0.32001a0.52733 0.52733 0 0 0-0.43202 0.26329 0.52733 0.52733 0 0 0 0.19346 0.72004 0.52733 0.52733 0 0 0 0.72004-0.19274 0.52733 0.52733 0 0 0-0.19274-0.72076 0.52733 0.52733 0 0 0-0.28874-0.0698zm-1.739 0.0553a0.25541 0.25541 0 0 0-0.25601 0.25528 0.25541 0.25541 0 0 0 0.25601 0.25602 0.25541 0.25541 0 0 0 0.25529-0.25602 0.25541 0.25541 0 0 0-0.25529-0.25528zm3.0794 0.13382a0.52733 0.52733 0 0 0-0.43129 0.26329 0.52733 0.52733 0 0 0 0.19273 0.72004 0.52733 0.52733 0 0 0 0.72077-0.19274 0.52733 0.52733 0 0 0-0.19347-0.72004 0.52733 0.52733 0 0 0-0.28874-0.0705zm-5.2999 0.2422a0.3889 0.3889 0 0 0-0.38839 0.38911 0.3889 0.3889 0 0 0 0.38839 0.38838 0.3889 0.3889 0 0 0 0.3891-0.38838 0.3889 0.3889 0 0 0-0.3891-0.38911zm2.675 0.0691a0.21586 0.21586 0 0 0-0.21601 0.21601 0.21586 0.21586 0 0 0 0.21601 0.21602 0.21586 0.21586 0 0 0 0.21601-0.21602 0.21586 0.21586 0 0 0-0.21601-0.21601zm-1.6961 0.0298a0.33946 0.33946 0 0 0-0.33893 0.33966 0.33946 0.33946 0 0 0 0.33893 0.33892 0.33946 0.33946 0 0 0 0.33965-0.33892 0.33946 0.33946 0 0 0-0.33965-0.33966zm-2.1158 0.0393a0.45812 0.45812 0 0 0-0.45821 0.4582 0.45812 0.45812 0 0 0 0.45821 0.45821 0.45812 0.45812 0 0 0 0.4582-0.45821 0.45812 0.45812 0 0 0-0.4582-0.4582zm2.9216 0.23783a0.29497 0.29497 0 0 0-0.29456 0.29456 0.29497 0.29497 0 0 0 0.29456 0.29529 0.29497 0.29497 0 0 0 0.29529-0.29529 0.29497 0.29497 0 0 0-0.29529-0.29456zm-4.1675 0.21746a0.52733 0.52733 0 0 0-0.5273 0.5273 0.52733 0.52733 0 0 0 0.5273 0.5273 0.52733 0.52733 0 0 0 0.5273-0.5273 0.52733 0.52733 0 0 0-0.5273-0.5273zm4.7806 0.15783a0.25541 0.25541 0 0 0-0.25528 0.25528 0.25541 0.25541 0 0 0 0.25528 0.25529 0.25541 0.25541 0 0 0 0.25529-0.25529 0.25541 0.25541 0 0 0-0.25529-0.25528zm1.3957 0.22765a0.45812 0.45812 0 0 0-0.37529 0.22837 0.45812 0.45812 0 0 0 0.16801 0.62622 0.45812 0.45812 0 0 0 0.62549-0.16801 0.45812 0.45812 0 0 0-0.16728-0.62549 0.45812 0.45812 0 0 0-0.25093-0.0611zm1.3404 0.1891a0.45812 0.45812 0 0 0-0.37457 0.22837 0.45812 0.45812 0 0 0 0.16728 0.62622 0.45812 0.45812 0 0 0 0.62621-0.16801 0.45812 0.45812 0 0 0-0.168-0.62549 0.45812 0.45812 0 0 0-0.25092-0.0611zm-4.6271 0.088a0.3889 0.3889 0 0 0-0.38911 0.38839 0.3889 0.3889 0 0 0 0.38911 0.38911 0.3889 0.3889 0 0 0 0.38911-0.38911 0.3889 0.3889 0 0 0-0.38911-0.38839zm0.97896 0.0982a0.33946 0.33946 0 0 0-0.33965 0.33965 0.33946 0.33946 0 0 0 0.33965 0.33966 0.33946 0.33946 0 0 0 0.33893-0.33966 0.33946 0.33946 0 0 0-0.33893-0.33965zm-2.1165 0.04a0.45812 0.45812 0 0 0-0.45821 0.45821 0.45812 0.45812 0 0 0 0.45821 0.4582 0.45812 0.45812 0 0 0 0.4582-0.4582 0.45812 0.45812 0 0 0-0.4582-0.45821zm6.8302 0.18328a0.45812 0.45812 0 0 0-0.37529 0.22838 0.45812 0.45812 0 0 0 0.16801 0.62621 0.45812 0.45812 0 0 0 0.62549-0.16801 0.45812 0.45812 0 0 0-0.16728-0.62548 0.45812 0.45812 0 0 0-0.25093-0.0611zm-3.9078 0.0538a0.29497 0.29497 0 0 0-0.29529 0.29528 0.29497 0.29497 0 0 0 0.29529 0.29456 0.29497 0.29497 0 0 0 0.29456-0.29456 0.29497 0.29497 0 0 0-0.29456-0.29528zm-4.1682 0.21746a0.52733 0.52733 0 0 0-0.52729 0.5273 0.52733 0.52733 0 0 0 0.52729 0.5273 0.52733 0.52733 0 0 0 0.52731-0.5273 0.52733 0.52733 0 0 0-0.52731-0.5273zm5.2846 0.28802a0.3889 0.3889 0 0 0-0.31856 0.19419 0.3889 0.3889 0 0 0 0.14255 0.53093 0.3889 0.3889 0 0 0 0.53094-0.14255 0.3889 0.3889 0 0 0-0.14183-0.53094 0.3889 0.3889 0 0 0-0.2131-0.0516zm1.3404 0.1891a0.3889 0.3889 0 0 0-0.31783 0.19419 0.3889 0.3889 0 0 0 0.14182 0.53093 0.3889 0.3889 0 0 0 0.53167-0.14255 0.3889 0.3889 0 0 0-0.14256-0.53094 0.3889 0.3889 0 0 0-0.2131-0.0516zm-4.1922 0.30838a0.29497 0.29497 0 0 0-0.1411 0.04 0.29497 0.29497 0 0 0-0.10764 0.40293 0.29497 0.29497 0 0 0 0.40293 0.10764 0.29497 0.29497 0 0 0 0.10764-0.40293 0.29497 0.29497 0 0 0-0.26183-0.14764zm-3.71 0.0545a0.61627 0.61627 0 0 0-0.61603 0.61676 0.61627 0.61627 0 0 0 0.61603 0.61603 0.61627 0.61627 0 0 0 0.61676-0.61603 0.61627 0.61627 0 0 0-0.61676-0.61676zm8.9677 0.0466a0.3889 0.3889 0 0 0-0.31856 0.19419 0.3889 0.3889 0 0 0 0.14255 0.53094 0.3889 0.3889 0 0 0 0.53094-0.14255 0.3889 0.3889 0 0 0-0.14183-0.53094 0.3889 0.3889 0 0 0-0.2131-0.0516zm-2.9361 0.27347a0.33946 0.33946 0 0 0-0.27783 0.16946 0.33946 0.33946 0 0 0 0.12437 0.46403 0.33946 0.33946 0 0 0 0.46402-0.12437 0.33946 0.33946 0 0 0-0.12437-0.46403 0.33946 0.33946 0 0 0-0.18619-0.0451zm-3.1703 0.0327a0.25541 0.25541 0 0 0-0.12219 0.0342 0.25541 0.25541 0 0 0-0.0931 0.34911 0.25541 0.25541 0 0 0 0.34911 0.0931 0.25541 0.25541 0 0 0 0.0931-0.34838 0.25541 0.25541 0 0 0-0.22692-0.12801zm4.5115 0.1571a0.33946 0.33946 0 0 0-0.27783 0.16873 0.33946 0.33946 0 0 0 0.12364 0.46403 0.33946 0.33946 0 0 0 0.46402-0.12437 0.33946 0.33946 0 0 0-0.12437-0.4633 0.33946 0.33946 0 0 0-0.18546-0.0451zm-5.2744 4e-3a0.21586 0.21586 0 0 0-0.10255 0.0291 0.21586 0.21586 0 0 0-0.0793 0.29456 0.21586 0.21586 0 0 0 0.29529 0.0793 0.21586 0.21586 0 0 0 0.0786-0.29529 0.21586 0.21586 0 0 0-0.19201-0.10764zm1.8124 0.20219a0.33946 0.33946 0 0 0-0.16219 0.0451 0.33946 0.33946 0 0 0-0.12437 0.46402 0.33946 0.33946 0 0 0 0.46403 0.12365 0.33946 0.33946 0 0 0 0.12437-0.4633 0.33946 0.33946 0 0 0-0.30184-0.16946zm4.5268 0.20364a0.33946 0.33946 0 0 0-0.27783 0.16874 0.33946 0.33946 0 0 0 0.12437 0.46402 0.33946 0.33946 0 0 0 0.46402-0.12437 0.33946 0.33946 0 0 0-0.12437-0.46329 0.33946 0.33946 0 0 0-0.18619-0.0451zm-3.0081 0.0269a0.29497 0.29497 0 0 0-0.24147 0.14765 0.29497 0.29497 0 0 0 0.10837 0.40293 0.29497 0.29497 0 0 0 0.40293-0.10837 0.29497 0.29497 0 0 0-0.10837-0.40293 0.29497 0.29497 0 0 0-0.16146-0.0393zm-2.5536 0.0662a0.29497 0.29497 0 0 0-0.1411 0.0393 0.29497 0.29497 0 0 0-0.10764 0.40293 0.29497 0.29497 0 0 0 0.40293 0.10765 0.29497 0.29497 0 0 0 0.10765-0.40293 0.29497 0.29497 0 0 0-0.26184-0.14692zm-0.90186 0.0582a0.25541 0.25541 0 0 0-0.12146 0.0342 0.25541 0.25541 0 0 0-0.0938 0.3491 0.25541 0.25541 0 0 0 0.34911 0.0931 0.25541 0.25541 0 0 0 0.0931-0.34911 0.25541 0.25541 0 0 0-0.22692-0.12728zm4.7966 0.0647a0.29497 0.29497 0 0 0-0.24147 0.14764 0.29497 0.29497 0 0 0 0.10764 0.40293 0.29497 0.29497 0 0 0 0.40293-0.10837 0.29497 0.29497 0 0 0-0.10764-0.40293 0.29497 0.29497 0 0 0-0.16146-0.0393zm-2.4147 0.40292a0.3889 0.3889 0 0 0-0.18546 0.0524 0.3889 0.3889 0 0 0-0.14183 0.53094 0.3889 0.3889 0 0 0 0.53093 0.14255 0.3889 0.3889 0 0 0 0.14256-0.53166 0.3889 0.3889 0 0 0-0.3462-0.1942zm1.819 0a0.25541 0.25541 0 0 0-0.20947 0.12728 0.25541 0.25541 0 0 0 0.0938 0.34911 0.25541 0.25541 0 0 0 0.34838-0.0938 0.25541 0.25541 0 0 0-0.0931-0.34911 0.25541 0.25541 0 0 0-0.13964-0.0335zm1.6612 7e-3a0.29497 0.29497 0 0 0-0.2422 0.14765 0.29497 0.29497 0 0 0 0.10837 0.40293 0.29497 0.29497 0 0 0 0.40293-0.10837 0.29497 0.29497 0 0 0-0.10837-0.40293 0.29497 0.29497 0 0 0-0.16073-0.0393zm-5.8476 0.18546a0.29497 0.29497 0 0 0-0.14038 0.0393 0.29497 0.29497 0 0 0-0.10837 0.40293 0.29497 0.29497 0 0 0 0.40294 0.10764 0.29497 0.29497 0 0 0 0.10837-0.40293 0.29497 0.29497 0 0 0-0.26256-0.14692zm1.0873 0.0516a0.33946 0.33946 0 0 0-0.16146 0.0451 0.33946 0.33946 0 0 0-0.12437 0.46403 0.33946 0.33946 0 0 0 0.46403 0.12437 0.33946 0.33946 0 0 0 0.12436-0.46403 0.33946 0.33946 0 0 0-0.30256-0.16946zm4.1638 0.16583a0.25541 0.25541 0 0 0-0.20874 0.12728 0.25541 0.25541 0 0 0 0.0931 0.34911 0.25541 0.25541 0 0 0 0.34911-0.0938 0.25541 0.25541 0 0 0-0.0931-0.34911 0.25541 0.25541 0 0 0-0.14037-0.0335zm-0.57676 0.23056a0.21586 0.21586 0 0 0-0.17673 0.10764 0.21586 0.21586 0 0 0 0.0793 0.29456 0.21586 0.21586 0 0 0 0.29529-0.0786 0.21586 0.21586 0 0 0-0.0793-0.29529 0.21586 0.21586 0 0 0-0.11856-0.0284zm-1.5601 0.17164a0.45812 0.45812 0 0 0-0.2182 0.0618 0.45812 0.45812 0 0 0-0.16801 0.62549 0.45812 0.45812 0 0 0 0.62622 0.16801 0.45812 0.45812 0 0 0 0.16728-0.62621 0.45812 0.45812 0 0 0-0.40729-0.22911zm-2.9136 0.14983a0.33946 0.33946 0 0 0-0.16219 0.0451 0.33946 0.33946 0 0 0-0.12437 0.46403 0.33946 0.33946 0 0 0 0.46402 0.12437 0.33946 0.33946 0 0 0 0.12437-0.46403 0.33946 0.33946 0 0 0-0.30183-0.16946zm1.3324 0.10546a0.3889 0.3889 0 0 0-0.18546 0.0516 0.3889 0.3889 0 0 0-0.14182 0.53166 0.3889 0.3889 0 0 0 0.53093 0.14183 0.3889 0.3889 0 0 0 0.14255-0.53094 0.3889 0.3889 0 0 0-0.3462-0.19419zm2.6561 0.49239a0.52733 0.52733 0 0 0-0.25092 0.0706 0.52733 0.52733 0 0 0-0.19347 0.72076 0.52733 0.52733 0 0 0 0.72077 0.19274 0.52733 0.52733 0 0 0 0.19273-0.72004 0.52733 0.52733 0 0 0-0.46911-0.26401zm-3.5434 0.22474a0.3889 0.3889 0 0 0-0.18547 0.0524 0.3889 0.3889 0 0 0-0.14183 0.53094 0.3889 0.3889 0 0 0 0.53094 0.14255 0.3889 0.3889 0 0 0 0.14256-0.53093 0.3889 0.3889 0 0 0-0.3462-0.19492zm1.6343 0.0945a0.45812 0.45812 0 0 0-0.21819 0.0611 0.45812 0.45812 0 0 0-0.16801 0.62549 0.45812 0.45812 0 0 0 0.62621 0.16801 0.45812 0.45812 0 0 0 0.16728-0.62622 0.45812 0.45812 0 0 0-0.40729-0.22837zm3.35 0.23346a0.61627 0.61627 0 0 0-0.2931 0.0829 0.61627 0.61627 0 0 0-0.22547 0.84149 0.61627 0.61627 0 0 0 0.84149 0.22547 0.61627 0.61627 0 0 0 0.22547-0.8415 0.61627 0.61627 0 0 0-0.54839-0.30838zm-4.2373 0.48439a0.45812 0.45812 0 0 0-0.21819 0.0611 0.45812 0.45812 0 0 0-0.16801 0.62548 0.45812 0.45812 0 0 0 0.62621 0.16801 0.45812 0.45812 0 0 0 0.16729-0.62621 0.45812 0.45812 0 0 0-0.4073-0.22838zm1.9623 0.0298a0.52733 0.52733 0 0 0-0.25093 0.0705 0.52733 0.52733 0 0 0-0.19346 0.72004 0.52733 0.52733 0 0 0 0.72076 0.19346 0.52733 0.52733 0 0 0 0.19274-0.72076 0.52733 0.52733 0 0 0-0.46911-0.26329z" enable-background="new" fill-opacity="0" stroke-width="0"/>
 <path d="m10.335 3.0004a0.61627 0.61627 0 0 0-0.50475 0.30765 0.61627 0.61627 0 0 0 0.22546 0.84223 0.61627 0.61627 0 0 0 0.84223-0.22547 0.61627 0.61627 0 0 0-0.22547-0.84222 0.61627 0.61627 0 0 0-0.33747-0.0822zm-3.9667 0.96369a0.3889 0.3889 0 0 0-0.38911 0.38911 0.3889 0.3889 0 0 0 0.38911 0.38838 0.3889 0.3889 0 0 0 0.38838-0.38838 0.3889 0.3889 0 0 0-0.38838-0.38911zm0.97896 0.0989a0.33946 0.33946 0 0 0-0.33965 0.33966 0.33946 0.33946 0 0 0 0.33965 0.33892 0.33946 0.33946 0 0 0 0.33893-0.33892 0.33946 0.33946 0 0 0-0.33893-0.33966zm-2.1165 0.0393a0.45812 0.45812 0 0 0-0.45821 0.4582 0.45812 0.45812 0 0 0 0.45821 0.45821 0.45812 0.45812 0 0 0 0.4582-0.45821 0.45812 0.45812 0 0 0-0.4582-0.4582zm2.9223 0.23783a0.29497 0.29497 0 0 0-0.29529 0.29456 0.29497 0.29497 0 0 0 0.29529 0.29529 0.29497 0.29497 0 0 0 0.29456-0.29529 0.29497 0.29497 0 0 0-0.29456-0.29456zm2.3521 0.32001a0.52733 0.52733 0 0 0-0.43202 0.26329 0.52733 0.52733 0 0 0 0.19346 0.72004 0.52733 0.52733 0 0 0 0.72004-0.19274 0.52733 0.52733 0 0 0-0.19274-0.72076 0.52733 0.52733 0 0 0-0.28874-0.0698zm-1.739 0.0553a0.25541 0.25541 0 0 0-0.25601 0.25528 0.25541 0.25541 0 0 0 0.25601 0.25602 0.25541 0.25541 0 0 0 0.25529-0.25602 0.25541 0.25541 0 0 0-0.25529-0.25528zm3.0794 0.13382a0.52733 0.52733 0 0 0-0.43129 0.26329 0.52733 0.52733 0 0 0 0.19273 0.72004 0.52733 0.52733 0 0 0 0.72077-0.19274 0.52733 0.52733 0 0 0-0.19347-0.72004 0.52733 0.52733 0 0 0-0.28874-0.0705zm-5.2999 0.2422a0.3889 0.3889 0 0 0-0.38839 0.38911 0.3889 0.3889 0 0 0 0.38839 0.38838 0.3889 0.3889 0 0 0 0.3891-0.38838 0.3889 0.3889 0 0 0-0.3891-0.38911zm2.675 0.0691a0.21586 0.21586 0 0 0-0.21601 0.21601 0.21586 0.21586 0 0 0 0.21601 0.21602 0.21586 0.21586 0 0 0 0.21601-0.21602 0.21586 0.21586 0 0 0-0.21601-0.21601zm-1.6961 0.0298a0.33946 0.33946 0 0 0-0.33893 0.33966 0.33946 0.33946 0 0 0 0.33893 0.33892 0.33946 0.33946 0 0 0 0.33965-0.33892 0.33946 0.33946 0 0 0-0.33965-0.33966zm-2.1158 0.0393a0.45812 0.45812 0 0 0-0.45821 0.4582 0.45812 0.45812 0 0 0 0.45821 0.45821 0.45812 0.45812 0 0 0 0.4582-0.45821 0.45812 0.45812 0 0 0-0.4582-0.4582zm2.9216 0.23783a0.29497 0.29497 0 0 0-0.29456 0.29456 0.29497 0.29497 0 0 0 0.29456 0.29529 0.29497 0.29497 0 0 0 0.29529-0.29529 0.29497 0.29497 0 0 0-0.29529-0.29456zm-4.1675 0.21746a0.52733 0.52733 0 0 0-0.5273 0.5273 0.52733 0.52733 0 0 0 0.5273 0.5273 0.52733 0.52733 0 0 0 0.5273-0.5273 0.52733 0.52733 0 0 0-0.5273-0.5273zm4.7806 0.15783a0.25541 0.25541 0 0 0-0.25528 0.25528 0.25541 0.25541 0 0 0 0.25528 0.25529 0.25541 0.25541 0 0 0 0.25529-0.25529 0.25541 0.25541 0 0 0-0.25529-0.25528zm1.3957 0.22765a0.45812 0.45812 0 0 0-0.37529 0.22837 0.45812 0.45812 0 0 0 0.16801 0.62622 0.45812 0.45812 0 0 0 0.62549-0.16801 0.45812 0.45812 0 0 0-0.16728-0.62549 0.45812 0.45812 0 0 0-0.25093-0.0611zm1.3404 0.1891a0.45812 0.45812 0 0 0-0.37457 0.22837 0.45812 0.45812 0 0 0 0.16728 0.62622 0.45812 0.45812 0 0 0 0.62621-0.16801 0.45812 0.45812 0 0 0-0.168-0.62549 0.45812 0.45812 0 0 0-0.25092-0.0611zm-4.6271 0.088a0.3889 0.3889 0 0 0-0.38911 0.38839 0.3889 0.3889 0 0 0 0.38911 0.38911 0.3889 0.3889 0 0 0 0.38911-0.38911 0.3889 0.3889 0 0 0-0.38911-0.38839zm0.97896 0.0982a0.33946 0.33946 0 0 0-0.33965 0.33965 0.33946 0.33946 0 0 0 0.33965 0.33966 0.33946 0.33946 0 0 0 0.33893-0.33966 0.33946 0.33946 0 0 0-0.33893-0.33965zm-2.1165 0.04a0.45812 0.45812 0 0 0-0.45821 0.45821 0.45812 0.45812 0 0 0 0.45821 0.4582 0.45812 0.45812 0 0 0 0.4582-0.4582 0.45812 0.45812 0 0 0-0.4582-0.45821zm6.8302 0.18328a0.45812 0.45812 0 0 0-0.37529 0.22838 0.45812 0.45812 0 0 0 0.16801 0.62621 0.45812 0.45812 0 0 0 0.62549-0.16801 0.45812 0.45812 0 0 0-0.16728-0.62548 0.45812 0.45812 0 0 0-0.25093-0.0611zm-3.9078 0.0538a0.29497 0.29497 0 0 0-0.29529 0.29528 0.29497 0.29497 0 0 0 0.29529 0.29456 0.29497 0.29497 0 0 0 0.29456-0.29456 0.29497 0.29497 0 0 0-0.29456-0.29528zm-4.1682 0.21746a0.52733 0.52733 0 0 0-0.52729 0.5273 0.52733 0.52733 0 0 0 0.52729 0.5273 0.52733 0.52733 0 0 0 0.52731-0.5273 0.52733 0.52733 0 0 0-0.52731-0.5273zm5.2846 0.28802a0.3889 0.3889 0 0 0-0.31856 0.19419 0.3889 0.3889 0 0 0 0.14255 0.53093 0.3889 0.3889 0 0 0 0.53094-0.14255 0.3889 0.3889 0 0 0-0.14183-0.53094 0.3889 0.3889 0 0 0-0.2131-0.0516zm1.3404 0.1891a0.3889 0.3889 0 0 0-0.31783 0.19419 0.3889 0.3889 0 0 0 0.14182 0.53093 0.3889 0.3889 0 0 0 0.53167-0.14255 0.3889 0.3889 0 0 0-0.14256-0.53094 0.3889 0.3889 0 0 0-0.2131-0.0516zm-4.1922 0.30838a0.29497 0.29497 0 0 0-0.1411 0.04 0.29497 0.29497 0 0 0-0.10764 0.40293 0.29497 0.29497 0 0 0 0.40293 0.10764 0.29497 0.29497 0 0 0 0.10764-0.40293 0.29497 0.29497 0 0 0-0.26183-0.14764zm-3.71 0.0545a0.61627 0.61627 0 0 0-0.61603 0.61676 0.61627 0.61627 0 0 0 0.61603 0.61603 0.61627 0.61627 0 0 0 0.61676-0.61603 0.61627 0.61627 0 0 0-0.61676-0.61676zm8.9677 0.0466a0.3889 0.3889 0 0 0-0.31856 0.19419 0.3889 0.3889 0 0 0 0.14255 0.53094 0.3889 0.3889 0 0 0 0.53094-0.14255 0.3889 0.3889 0 0 0-0.14183-0.53094 0.3889 0.3889 0 0 0-0.2131-0.0516zm-2.9361 0.27347a0.33946 0.33946 0 0 0-0.27783 0.16946 0.33946 0.33946 0 0 0 0.12437 0.46403 0.33946 0.33946 0 0 0 0.46402-0.12437 0.33946 0.33946 0 0 0-0.12437-0.46403 0.33946 0.33946 0 0 0-0.18619-0.0451zm-3.1703 0.0327a0.25541 0.25541 0 0 0-0.12219 0.0342 0.25541 0.25541 0 0 0-0.0931 0.34911 0.25541 0.25541 0 0 0 0.34911 0.0931 0.25541 0.25541 0 0 0 0.0931-0.34838 0.25541 0.25541 0 0 0-0.22692-0.12801zm4.5115 0.1571a0.33946 0.33946 0 0 0-0.27783 0.16873 0.33946 0.33946 0 0 0 0.12364 0.46403 0.33946 0.33946 0 0 0 0.46402-0.12437 0.33946 0.33946 0 0 0-0.12437-0.4633 0.33946 0.33946 0 0 0-0.18546-0.0451zm-5.2744 4e-3a0.21586 0.21586 0 0 0-0.10255 0.0291 0.21586 0.21586 0 0 0-0.0793 0.29456 0.21586 0.21586 0 0 0 0.29529 0.0793 0.21586 0.21586 0 0 0 0.0786-0.29529 0.21586 0.21586 0 0 0-0.19201-0.10764zm1.8124 0.20219a0.33946 0.33946 0 0 0-0.16219 0.0451 0.33946 0.33946 0 0 0-0.12437 0.46402 0.33946 0.33946 0 0 0 0.46403 0.12365 0.33946 0.33946 0 0 0 0.12437-0.4633 0.33946 0.33946 0 0 0-0.30184-0.16946zm4.5268 0.20364a0.33946 0.33946 0 0 0-0.27783 0.16874 0.33946 0.33946 0 0 0 0.12437 0.46402 0.33946 0.33946 0 0 0 0.46402-0.12437 0.33946 0.33946 0 0 0-0.12437-0.46329 0.33946 0.33946 0 0 0-0.18619-0.0451zm-3.0081 0.0269a0.29497 0.29497 0 0 0-0.24147 0.14765 0.29497 0.29497 0 0 0 0.10837 0.40293 0.29497 0.29497 0 0 0 0.40293-0.10837 0.29497 0.29497 0 0 0-0.10837-0.40293 0.29497 0.29497 0 0 0-0.16146-0.0393zm-2.5536 0.0662a0.29497 0.29497 0 0 0-0.1411 0.0393 0.29497 0.29497 0 0 0-0.10764 0.40293 0.29497 0.29497 0 0 0 0.40293 0.10765 0.29497 0.29497 0 0 0 0.10765-0.40293 0.29497 0.29497 0 0 0-0.26184-0.14692zm-0.90186 0.0582a0.25541 0.25541 0 0 0-0.12146 0.0342 0.25541 0.25541 0 0 0-0.0938 0.3491 0.25541 0.25541 0 0 0 0.34911 0.0931 0.25541 0.25541 0 0 0 0.0931-0.34911 0.25541 0.25541 0 0 0-0.22692-0.12728zm4.7966 0.0647a0.29497 0.29497 0 0 0-0.24147 0.14764 0.29497 0.29497 0 0 0 0.10764 0.40293 0.29497 0.29497 0 0 0 0.40293-0.10837 0.29497 0.29497 0 0 0-0.10764-0.40293 0.29497 0.29497 0 0 0-0.16146-0.0393zm-2.4147 0.40292a0.3889 0.3889 0 0 0-0.18546 0.0524 0.3889 0.3889 0 0 0-0.14183 0.53094 0.3889 0.3889 0 0 0 0.53093 0.14255 0.3889 0.3889 0 0 0 0.14256-0.53166 0.3889 0.3889 0 0 0-0.3462-0.1942zm1.819 0a0.25541 0.25541 0 0 0-0.20947 0.12728 0.25541 0.25541 0 0 0 0.0938 0.34911 0.25541 0.25541 0 0 0 0.34838-0.0938 0.25541 0.25541 0 0 0-0.0931-0.34911 0.25541 0.25541 0 0 0-0.13964-0.0335zm1.6612 7e-3a0.29497 0.29497 0 0 0-0.2422 0.14765 0.29497 0.29497 0 0 0 0.10837 0.40293 0.29497 0.29497 0 0 0 0.40293-0.10837 0.29497 0.29497 0 0 0-0.10837-0.40293 0.29497 0.29497 0 0 0-0.16073-0.0393zm-5.8476 0.18546a0.29497 0.29497 0 0 0-0.14038 0.0393 0.29497 0.29497 0 0 0-0.10837 0.40293 0.29497 0.29497 0 0 0 0.40294 0.10764 0.29497 0.29497 0 0 0 0.10837-0.40293 0.29497 0.29497 0 0 0-0.26256-0.14692zm1.0873 0.0516a0.33946 0.33946 0 0 0-0.16146 0.0451 0.33946 0.33946 0 0 0-0.12437 0.46403 0.33946 0.33946 0 0 0 0.46403 0.12437 0.33946 0.33946 0 0 0 0.12436-0.46403 0.33946 0.33946 0 0 0-0.30256-0.16946zm4.1638 0.16583a0.25541 0.25541 0 0 0-0.20874 0.12728 0.25541 0.25541 0 0 0 0.0931 0.34911 0.25541 0.25541 0 0 0 0.34911-0.0938 0.25541 0.25541 0 0 0-0.0931-0.34911 0.25541 0.25541 0 0 0-0.14037-0.0335zm-0.57676 0.23056a0.21586 0.21586 0 0 0-0.17673 0.10764 0.21586 0.21586 0 0 0 0.0793 0.29456 0.21586 0.21586 0 0 0 0.29529-0.0786 0.21586 0.21586 0 0 0-0.0793-0.29529 0.21586 0.21586 0 0 0-0.11856-0.0284zm-1.5601 0.17164a0.45812 0.45812 0 0 0-0.2182 0.0618 0.45812 0.45812 0 0 0-0.16801 0.62549 0.45812 0.45812 0 0 0 0.62622 0.16801 0.45812 0.45812 0 0 0 0.16728-0.62621 0.45812 0.45812 0 0 0-0.40729-0.22911zm-2.9136 0.14983a0.33946 0.33946 0 0 0-0.16219 0.0451 0.33946 0.33946 0 0 0-0.12437 0.46403 0.33946 0.33946 0 0 0 0.46402 0.12437 0.33946 0.33946 0 0 0 0.12437-0.46403 0.33946 0.33946 0 0 0-0.30183-0.16946zm1.3324 0.10546a0.3889 0.3889 0 0 0-0.18546 0.0516 0.3889 0.3889 0 0 0-0.14182 0.53166 0.3889 0.3889 0 0 0 0.53093 0.14183 0.3889 0.3889 0 0 0 0.14255-0.53094 0.3889 0.3889 0 0 0-0.3462-0.19419zm2.6561 0.49239a0.52733 0.52733 0 0 0-0.25092 0.0706 0.52733 0.52733 0 0 0-0.19347 0.72076 0.52733 0.52733 0 0 0 0.72077 0.19274 0.52733 0.52733 0 0 0 0.19273-0.72004 0.52733 0.52733 0 0 0-0.46911-0.26401zm-3.5434 0.22474a0.3889 0.3889 0 0 0-0.18547 0.0524 0.3889 0.3889 0 0 0-0.14183 0.53094 0.3889 0.3889 0 0 0 0.53094 0.14255 0.3889 0.3889 0 0 0 0.14256-0.53093 0.3889 0.3889 0 0 0-0.3462-0.19492zm1.6343 0.0945a0.45812 0.45812 0 0 0-0.21819 0.0611 0.45812 0.45812 0 0 0-0.16801 0.62549 0.45812 0.45812 0 0 0 0.62621 0.16801 0.45812 0.45812 0 0 0 0.16728-0.62622 0.45812 0.45812 0 0 0-0.40729-0.22837zm3.35 0.23346a0.61627 0.61627 0 0 0-0.2931 0.0829 0.61627 0.61627 0 0 0-0.22547 0.84149 0.61627 0.61627 0 0 0 0.84149 0.22547 0.61627 0.61627 0 0 0 0.22547-0.8415 0.61627 0.61627 0 0 0-0.54839-0.30838zm-4.2373 0.48439a0.45812 0.45812 0 0 0-0.21819 0.0611 0.45812 0.45812 0 0 0-0.16801 0.62548 0.45812 0.45812 0 0 0 0.62621 0.16801 0.45812 0.45812 0 0 0 0.16729-0.62621 0.45812 0.45812 0 0 0-0.4073-0.22838zm1.9623 0.0298a0.52733 0.52733 0 0 0-0.25093 0.0705 0.52733 0.52733 0 0 0-0.19346 0.72004 0.52733 0.52733 0 0 0 0.72076 0.19346 0.52733 0.52733 0 0 0 0.19274-0.72076 0.52733 0.52733 0 0 0-0.46911-0.26329z" enable-background="new" fill="#e8e8e8" stroke-width="0"/>
 <path d="m11.555 15.5c3.337 0 3.9622-0.30212 3.9447-3.2495v-4.2505-4.2506c0.0175-2.9473-0.60763-3.2494-3.9447-3.2494h-7.1102c-3.3362 0-3.9447 0.30208-3.9447 3.2494v4.2506 4.2505c0 2.9474 0.60847 3.2495 3.9447 3.2495z" color="#000000" fill="none" opacity=".4" stroke="#000"/>
 <path d="m4.4453 1c-1.653 0-2.546 0.12548-2.916 0.41406-0.18499 0.14429-0.30479 0.33122-0.39649 0.70313-0.09171 0.37191-0.13281 0.91317-0.13281 1.6328v4.25 4.25c0 0.71964 0.0411 1.2608 0.13281 1.6328 0.0917 0.37191 0.2115 0.55884 0.39649 0.70313 0.36997 0.28858 1.263 0.41406 2.916 0.41406h7.1094c1.6534 0 2.552-0.12511 2.9238-0.41406 0.18589-0.14448 0.30578-0.33208 0.39648-0.70313s0.129-0.90979 0.125-1.6289v-2e-3 -4.2519-4.252-2e-3c4e-3 -0.71911-0.0343-1.2578-0.125-1.6289s-0.21059-0.55865-0.39648-0.70313c-0.37179-0.2889-1.2704-0.41402-2.9238-0.41402zm5.3281 1.0469c1.1077-3.4e-4 2.2136 8e-3 3.3203 0.0449 0.26616 0.0599 0.75737-0.0208 0.79297 0.3457 0.13405 1.8444 0.0662 3.6877 0.10156 5.5391-0.0126 1.8674 0.0543 3.6703-0.10351 5.498 0.0642 0.42314-0.43946 0.35577-0.70313 0.42187-3.4328 0.0703-6.8758 0.0589-10.299 2e-3 -0.22288-0.0398-0.55622-3.2e-4 -0.71093-0.1875-0.19863-1.13-0.12696-2.2695-0.16016-3.4199 0.0138-2.5565-0.029-5.1073 0.0898-7.6562-0.03-0.2727 0.10944-0.49629 0.40039-0.48829 1.3066-0.161 2.6326-0.0636 3.9473-0.0976 1.1072 6e-3 2.2166-2e-3 3.3242-2e-3z" color="#000000" fill="url(#linearGradient1692-6)"/>
</svg>
