<svg width="16" height="16" version="1" xmlns="http://www.w3.org/2000/svg" xmlns:xlink="http://www.w3.org/1999/xlink">
 <defs>
  <linearGradient id="linearGradient4878" x1="317.26" x2="338.32" y1="255.45" y2="230.86" gradientTransform="rotate(90 286 -34)" gradientUnits="userSpaceOnUse">
   <stop stop-color="#80a3fa" offset="0"/>
   <stop stop-color="#a2bcfe" offset="1"/>
  </linearGradient>
  <clipPath id="clipPath4653">
   <path d="m412.21-140.08c90.811 0 103.79 12.946 103.79 103.67v72.656c0 90.726-12.978 103.67-103.79 103.67h-92.422c-90.811 0-103.79-12.946-103.79-103.67v-72.656c0-90.726 12.978-103.67 103.79-103.67z" enable-background="new" fill="#f22c42"/>
  </clipPath>
  <linearGradient id="linearGradient993" x1="328" x2="328" y1="238" y2="250" gradientTransform="rotate(-90,328,244)" gradientUnits="userSpaceOnUse">
   <stop stop-color="#fff" offset="0"/>
   <stop stop-color="#fff" stop-opacity=".098039" offset=".125"/>
   <stop stop-color="#fff" stop-opacity=".098039" offset=".925"/>
   <stop stop-color="#fff" stop-opacity=".49804" offset="1"/>
  </linearGradient>
  <clipPath id="clipPath983">
   <path d="m325.1 237c-2.8077 0-3.1098 0.28839-3.096 3.1018v3.8982 3.8982c-0.0138 2.8134 0.28834 3.1018 3.096 3.1018h5.8075c2.8077 0 3.096-0.28835 3.096-3.1018v-3.8982-3.8982c0-2.8134-0.28835-3.1018-3.096-3.1018z" color="#000000" fill="#46a926"/>
  </clipPath>
 </defs>
 <path d="m15.5 5.596c0-0.71904-0.0139-1.3018-0.10352-1.8359-0.0897-0.53409-0.27628-1.0683-0.68359-1.4766-0.4073-0.40826-0.94323-0.59657-1.4785-0.68554-0.53529-0.089-1.1205-0.10119-1.8418-0.0977h-2.8926-3.8984c-0.71816-3e-3 -1.3024 9e-3 -1.8359 0.0977-0.53528 0.089-1.0712 0.27727-1.4785 0.68554-0.40731 0.40827-0.59394 0.94248-0.68359 1.4766-0.0897 0.53408-0.10352 1.1169-0.10352 1.8359v5.8086c0 0.71904 0.0137 1.3006 0.10352 1.834 0.0898 0.53341 0.27792 1.0677 0.68554 1.4746s0.94271 0.59404 1.4766 0.68359c0.53386 0.0896 1.1155 0.10352 1.8359 0.10352h3.8984 2.8984c0.72043 0 1.3021-0.014 1.8359-0.10352 0.53385-0.0895 1.0689-0.27666 1.4766-0.68359s0.59578-0.9412 0.68554-1.4746c0.0898-0.5334 0.10352-1.1149 0.10352-1.834z" color="#000000" color-rendering="auto" dominant-baseline="auto" image-rendering="auto" opacity=".1" shape-rendering="auto" solid-color="#000000" style="font-feature-settings:normal;font-variant-alternates:normal;font-variant-caps:normal;font-variant-ligatures:normal;font-variant-numeric:normal;font-variant-position:normal;isolation:auto;mix-blend-mode:normal;shape-padding:0;text-decoration-color:#000000;text-decoration-line:none;text-decoration-style:solid;text-indent:0;text-orientation:mixed;text-transform:none;white-space:normal"/>
 <path d="m15.5 4.8545c0-3.0417-0.30899-3.3689-3.3233-3.354h-4.1767-4.1767c-3.0143-0.0149-3.3233 0.31237-3.3233 3.354v6.2915c0 3.0417 0.30895 3.354 3.3233 3.354h4.1767 4.1767c3.0144 0 3.3233-0.31238 3.3233-3.354z" color="#000000" fill="url(#linearGradient4878)"/>
 <path d="m4.1458 4.0002c-0.44678-5e-3 -0.74699 0.0948-0.90107 0.27964-0.16178 0.19259-0.24468 0.50857-0.24468 0.94767v7.7725h10v-7.7725c0-0.43911-0.0829-0.75509-0.24468-0.94768-0.15407-0.18489-0.4589-0.27964-0.90106-0.27964h-5.9297z" enable-background="new" fill="#faf8f6"/>
 <g transform="matrix(.05 0 0 .05 -10.3 7.5042)" clip-path="url(#clipPath4653)" enable-background="new" stroke-width="20">
  <g fill-rule="evenodd" stroke-width="20">
   <path d="m526 169.92v-207.17l-160 75-160-75v207.17z" enable-background="new" fill="#a2bcfe"/>
   <path d="m526 169.92-3.5e-4 -207.17-320 149.38 3.5e-4 57.792z" enable-background="new" fill="#fff" opacity=".2"/>
  </g>
 </g>
 <g transform="matrix(.12195 0 0 .12195 -5.01 -8.0982)" enable-background="new" fill="#80a3fa" aria-label="@">
  <path d="m115.28 129.11q-1.28 0-2.12-0.36t-1.4-0.96q-0.88 0.48-2.12 0.84-1.24 0.32-2.48 0.32-1.92 0-3.52-0.6-1.56-0.6-2.72-1.76-1.16-1.2-1.8-2.92t-0.64-4q0-1.92 0.6-3.6 0.6-1.72 1.76-2.96 1.2-1.28 2.88-2 1.72-0.72 3.88-0.72 2.04 0 3.72 0.32 1.72 0.32 2.64 0.64v12.24q0 1.28 0.44 1.8t1.16 0.52q1.04 0 1.8-0.72 0.8-0.72 1.28-1.88 0.52-1.16 0.76-2.6 0.24-1.48 0.24-3 0-2.52-0.88-4.72-0.88-2.24-2.52-3.92t-4-2.64q-2.32-0.96-5.24-0.96t-5.36 1q-2.44 0.96-4.2 2.8-1.76 1.8-2.76 4.44-0.96 2.64-0.96 6 0 3.52 1.04 6.2 1.04 2.64 2.88 4.44 1.88 1.76 4.4 2.64 2.56 0.92 5.6 0.92 2.36 0 3.88-0.28 1.56-0.28 2-0.44l0.4 2.96q-0.68 0.24-2.48 0.52-1.76 0.28-3.8 0.28-3.56 0-6.72-1.04-3.16-1-5.52-3.12-2.36-2.08-3.76-5.32-1.36-3.28-1.36-7.76 0-4.32 1.36-7.56t3.64-5.36q2.32-2.16 5.32-3.24 3.04-1.08 6.4-1.08 3.28 0 6.2 1.08 2.92 1.04 5.12 3.08 2.2 2 3.48 4.88 1.28 2.84 1.28 6.44 0 2.72-0.64 4.8-0.6 2.08-1.64 3.52-1.04 1.4-2.48 2.12t-3.04 0.72zm-8-3.24q0.84 0 1.68-0.16 0.88-0.2 1.56-0.56-0.12-0.52-0.16-1.04t-0.04-1v-9.4q-0.24-0.08-0.92-0.16t-1.52-0.08q-2.84 0-4.24 1.76t-1.4 4.44q0 2.84 1.36 4.52t3.68 1.68z" fill="#80a3fa" stroke-width="1.4857"/>
 </g>
 <path transform="rotate(90 286 -34)" d="m325.1 237c-2.8077 0-3.1098 0.28839-3.096 3.1018v3.8982 3.8982c-0.0138 2.8134 0.28834 3.1018 3.096 3.1018h5.8075c2.8077 0 3.096-0.28835 3.096-3.1018v-3.8982-3.8982c0-2.8134-0.28835-3.1018-3.096-3.1018z" clip-path="url(#clipPath983)" color="#000000" fill="none" opacity=".7" stroke="url(#linearGradient993)" stroke-width="2"/>
 <path d="m15.512 4.9136c0-2.8973-0.30259-3.4401-3.2545-3.4249h-4.2572-4.2572c-2.952-0.0152-3.2545 0.52756-3.2545 3.4249v6.1733c0 2.8966 0.30255 3.4249 3.2545 3.4249h4.2572 4.2572c2.952 0 3.2545-0.52828 3.2545-3.4249z" color="#000000" fill="none" opacity=".4" stroke="#000" stroke-width=".97653"/>
</svg>
