<svg width="16" height="16" version="1" xmlns="http://www.w3.org/2000/svg" xmlns:xlink="http://www.w3.org/1999/xlink">
 <defs>
  <linearGradient id="linearGradient993" x1="328" x2="328" y1="238" y2="250" gradientTransform="rotate(-90,328,244)" gradientUnits="userSpaceOnUse">
   <stop stop-color="#fff" offset="0"/>
   <stop stop-color="#fff" stop-opacity=".098039" offset=".125"/>
   <stop stop-color="#fff" stop-opacity=".098039" offset=".925"/>
   <stop stop-color="#fff" stop-opacity=".49804" offset="1"/>
  </linearGradient>
  <clipPath id="clipPath983">
   <path d="m325.1 237c-2.8077 0-3.1098 0.28839-3.096 3.1018v3.8982 3.8982c-0.0138 2.8134 0.28834 3.1018 3.096 3.1018h5.8075c2.8077 0 3.096-0.28835 3.096-3.1018v-3.8982-3.8982c0-2.8134-0.28835-3.1018-3.096-3.1018z" color="#000000" fill="#46a926"/>
  </clipPath>
 </defs>
 <path d="m15.5 5.596c0-0.71904-0.0139-1.3018-0.10352-1.8359-0.0897-0.53409-0.27628-1.0683-0.68359-1.4766-0.4073-0.40826-0.94323-0.59657-1.4785-0.68554-0.53529-0.089-1.1205-0.10119-1.8418-0.0977h-2.8926-3.8984c-0.71816-3e-3 -1.3024 9e-3 -1.8359 0.0977-0.53528 0.089-1.0712 0.27727-1.4785 0.68554-0.40731 0.40827-0.59394 0.94248-0.68359 1.4766-0.0897 0.53408-0.10352 1.1169-0.10352 1.8359v5.8086c0 0.71904 0.0137 1.3006 0.10352 1.834 0.0898 0.53341 0.27792 1.0677 0.68554 1.4746s0.94271 0.59404 1.4766 0.68359c0.53386 0.0896 1.1155 0.10352 1.8359 0.10352h3.8984 2.8984c0.72043 0 1.3021-0.014 1.8359-0.10352 0.53385-0.0895 1.0689-0.27666 1.4766-0.68359s0.59578-0.9412 0.68554-1.4746c0.0898-0.5334 0.10352-1.1149 0.10352-1.834z" color="#000000" color-rendering="auto" dominant-baseline="auto" image-rendering="auto" opacity=".1" shape-rendering="auto" solid-color="#000000" style="font-feature-settings:normal;font-variant-alternates:normal;font-variant-caps:normal;font-variant-ligatures:normal;font-variant-numeric:normal;font-variant-position:normal;isolation:auto;mix-blend-mode:normal;shape-padding:0;text-decoration-color:#000000;text-decoration-line:none;text-decoration-style:solid;text-indent:0;text-orientation:mixed;text-transform:none;white-space:normal"/>
 <path d="m15.5 4.8545c0-3.0417-0.30899-3.3689-3.3233-3.354h-4.1767-4.1767c-3.0143-0.0149-3.3233 0.31237-3.3233 3.354v6.2915c0 3.0417 0.30895 3.354 3.3233 3.354h4.1767 4.1767c3.0144 0 3.3233-0.31238 3.3233-3.354z" color="#000000" fill="#a3dbf0"/>
 <path d="m0.5 11v0.14648c0 3.0417 0.30986 3.3535 3.3242 3.3535h8.3516c3.0144 0 3.3242-0.31186 3.3242-3.3535v-0.14648z" enable-background="new" fill="#8fbf3a"/>
 <path d="m11.768 1.5-6.8047 13h3.0371 4.1758c3.0144 0 3.3242-0.31186 3.3242-3.3535v-6.291c0-3.0417-0.3099-3.3704-3.3242-3.3555z" color="#000000" fill="#fff" opacity=".1"/>
 <path d="m8.957 1.5-4.957 9.5h2.8125l4.957-9.5z" color="#000000" fill="#b6e2f3"/>
 <path d="m11.77 1.5-4.957 9.5h4.2188l4.2969-8.2363c-0.29047-1.0974-1.0707-1.274-3.1523-1.2637z" color="#000000" fill="#ffda64"/>
 <path d="m15.328 2.7637-4.2969 8.2363h2.8125l1.6562-3.1738v-2.9707c0-0.94112-0.0417-1.6001-0.17188-2.0918z" color="#000000" fill="#b6e2f3"/>
 <path d="m4.0004 11 2.7911-5.3688 2.7911 5.3688z" color="#000000" fill="#f2f2f2"/>
 <path d="m6.8129 11 2.1094-4.043 2.1094 4.043z" color="#000000" fill="#f9f9f9"/>
 <circle cx="11.969" cy="5.375" r="1.4062" enable-background="new" fill="#f9f9f9"/>
 <path transform="rotate(90 286 -34)" d="m325.1 237c-2.8077 0-3.1098 0.28839-3.096 3.1018v3.8982 3.8982c-0.0138 2.8134 0.28834 3.1018 3.096 3.1018h5.8075c2.8077 0 3.096-0.28835 3.096-3.1018v-3.8982-3.8982c0-2.8134-0.28835-3.1018-3.096-3.1018z" clip-path="url(#clipPath983)" color="#000000" fill="none" opacity=".7" stroke="url(#linearGradient993)" stroke-width="2"/>
 <path d="m15.512 4.9136c0-2.8973-0.30259-3.4401-3.2545-3.4249h-4.2572-4.2572c-2.952-0.0152-3.2545 0.52756-3.2545 3.4249v6.1733c0 2.8966 0.30255 3.4249 3.2545 3.4249h4.2572 4.2572c2.952 0 3.2545-0.52828 3.2545-3.4249z" color="#000000" fill="none" opacity=".4" stroke="#000" stroke-width=".97653"/>
 <g transform="translate(-314,-230)" enable-background="new">
  <ellipse cx="325" cy="241" rx="4.5" ry="4.5" fill="#5884f4" stroke="#000" stroke-dashoffset="1" stroke-linecap="round" stroke-linejoin="round" stroke-opacity=".4"/>
  <path d="m324.5 243.75h1v-2h1.3333s-0.34093-1.5-1.8333-3.5c-1.5076 2-1.8333 3.5-1.8333 3.5h1.3333z" color="#000000" enable-background="accumulate" fill="#fff"/>
 </g>
</svg>
