<svg width="16" height="16" version="1" xmlns="http://www.w3.org/2000/svg" xmlns:xlink="http://www.w3.org/1999/xlink">
 <defs>
  <linearGradient id="linearGradient920" x1="469.12" x2="25.222" y1="320.85" y2="320.85" gradientTransform="matrix(0 -.036044 -.036043 0 18.564 16.909)" gradientUnits="userSpaceOnUse">
   <stop stop-color="#999" offset="0"/>
   <stop stop-color="#b7b7b7" offset=".61328"/>
   <stop stop-color="#dbdbdb" offset="1"/>
  </linearGradient>
  <linearGradient id="linearGradient993" x1="328" x2="328" y1="237" y2="251" gradientTransform="translate(-1)" gradientUnits="userSpaceOnUse">
   <stop stop-color="#fff" offset="0"/>
   <stop stop-color="#fff" stop-opacity=".098039" offset=".125"/>
   <stop stop-color="#fff" stop-opacity=".098039" offset=".925"/>
   <stop stop-color="#fff" stop-opacity=".49804" offset="1"/>
  </linearGradient>
  <clipPath id="clipPath1010">
   <path d="m326.1 237c-2.8077 0-3.1098 0.28839-3.096 3.1018v1.8982 3.8982c-0.0138 2.8134 0.28834 3.1018 3.096 3.1018h3.8075c2.8077 0 3.096-0.28835 3.096-3.1018v-3.8982-1.8982c0-2.8134-0.28835-3.1018-3.096-3.1018z" color="#000000" fill="#46a926"/>
  </clipPath>
 </defs>
 <rect x="4.5" y="12.5" width="7" height="3" enable-background="new" fill="#f7f7f7" stroke="#000" stroke-dashoffset="1" stroke-linecap="round" stroke-linejoin="round" stroke-opacity=".4"/>
 <path d="m9.9039 0.5c0.71048 0 1.2734 0.0154 1.7519 0.0957s0.89671 0.23728 1.207 0.54688c0.31032 0.30959 0.46726 0.7261 0.54688 1.2051 0.0796 0.47897 0.0933 1.0435 0.0898 1.7559v1.8965 3.8984c3e-3 0.71121-0.0103 1.2755-0.0898 1.7539-0.0796 0.47898-0.23655 0.89549-0.54688 1.2051-0.31033 0.3096-0.72851 0.46655-1.207 0.54688-0.47852 0.0803-1.0415 0.0957-1.7519 0.0957h-3.8086c-0.71048 0-1.2724-0.0153-1.75-0.0957-0.47763-0.0804-0.89584-0.23713-1.2051-0.54688-0.30921-0.30975-0.46469-0.72681-0.54492-1.2051-0.0802-0.47826-0.0957-1.042-0.0957-1.7539v-3.8984-1.8984c0-0.71189 0.0155-1.2756 0.0957-1.7539 0.0802-0.47827 0.2357-0.89533 0.54492-1.2051 0.30924-0.30975 0.72745-0.4665 1.2051-0.54688 0.47764-0.0804 1.0395-0.0957 1.75-0.0957z" color="#000000" fill="url(#linearGradient920)"/>
 <path d="m6.7144 4.6429h0.85701v3.8454c-0.2191-0.13965-0.44529-0.26212-0.66453-0.37165-0.32137-0.16059-0.61836-0.31595-0.80193-0.46882-0.18355-0.15318-0.24775-0.25504-0.24775-0.4335 0.4734 0 0.8572-0.38383 0.8572-0.85723s-0.38381-0.8571-0.8572-0.8571c-0.47341 0-0.85715 0.3837-0.85715 0.8571v0.85723c0 0.46424 0.25714 0.84436 0.55587 1.0932 0.29861 0.2488 0.6462 0.41515 0.96759 0.57583 0.32134 0.16059 0.6167 0.31592 0.80015 0.46881 0.18354 0.15282 0.24775 0.25503 0.24775 0.4335-0.23736 0-0.42849 0.19121-0.42849 0.42866v0.85702c0 0.23753 0.19113 0.42864 0.42849 0.42864h0.8573c0.23734 0 0.42849-0.19111 0.42849-0.42864v-0.85702c0-0.23745-0.19115-0.42866-0.42849-0.42866v-0.85702c0-0.17874 0.0635-0.28076 0.24777-0.43376 0.18345-0.15282 0.4804-0.30789 0.80175-0.46861 0.3215-0.16059 0.66738-0.327 0.96597-0.57599 0.29872-0.2489 0.55585-0.62882 0.55585-1.0932v-1.2857c0-0.23736-0.19113-0.42847-0.42864-0.42847h-0.85701c-0.23748 0-0.42867 0.19111-0.42867 0.42847v0.8573c0 0.23734 0.19119 0.42844 0.42867 0.42844h0.42852c0 0.17867-0.0634 0.28078-0.24777 0.43371-0.18356 0.15283-0.4788 0.30789-0.8003 0.46869-0.21941 0.1107-0.44628 0.23218-0.66614 0.37161v-2.9882h0.85702l-1.2857-2.5715z" enable-background="new" fill="#808080"/>
 <path d="m6.0957 0.5c-0.71048 0-1.2734 0.0154-1.752 0.0957s-0.89671 0.23728-1.207 0.54688c-0.31032 0.30959-0.46726 0.7261-0.54688 1.2051-0.0796 0.47897-0.0933 1.0435-0.0898 1.7559v1.8965 3.8984c-3e-3 0.71121 0.0103 1.2755 0.0898 1.7539 0.0796 0.47898 0.23655 0.89549 0.54688 1.2051 0.31033 0.3096 0.72851 0.46655 1.207 0.54688 0.47852 0.0803 1.0415 0.0957 1.752 0.0957h3.8086c0.71048 0 1.2724-0.0153 1.75-0.0957 0.47763-0.0804 0.89584-0.23713 1.2051-0.54688 0.30921-0.30975 0.46469-0.72681 0.54492-1.2051 0.0802-0.47826 0.0957-1.042 0.0957-1.7539v-3.8984-1.8984c0-0.71189-0.0155-1.2756-0.0957-1.7539-0.0802-0.47827-0.2357-0.89533-0.54492-1.2051-0.30924-0.30975-0.72745-0.4665-1.2051-0.54688-0.47764-0.0804-1.0395-0.0957-1.75-0.0957z" color="#000000" fill="none" opacity=".4" stroke="#000"/>
 <path transform="translate(-320,-236)" d="m326.1 237c-2.8077 0-3.1098 0.28839-3.096 3.1018v1.8982 3.8982c-0.0138 2.8134 0.28834 3.1018 3.096 3.1018h3.8075c2.8077 0 3.096-0.28835 3.096-3.1018v-3.8982-1.8982c0-2.8134-0.28835-3.1018-3.096-3.1018z" clip-path="url(#clipPath1010)" color="#000000" fill="none" opacity=".4" stroke="url(#linearGradient993)" stroke-width="2"/>
 <ellipse cx="5" cy="5" rx="4.5" ry="4.5" enable-background="new" fill="#5884f4" stroke="#000" stroke-dashoffset="1" stroke-linecap="round" stroke-linejoin="round" stroke-opacity=".4"/>
 <path d="m4 3h2v1h0.91797c-0.3382 0.75366-0.94773 1.8178-1.918 3.4311-0.97044-1.6135-1.5798-2.6784-1.918-3.4322h0.91798z" color="#000000" fill="#fff"/>
</svg>
