<svg width="16" height="16" version="1" xmlns="http://www.w3.org/2000/svg" xmlns:xlink="http://www.w3.org/1999/xlink">
 <defs>
  <linearGradient id="linearGradient1692" x1="320" x2="336" y1="247" y2="241" gradientTransform="rotate(-90 50 286)" gradientUnits="userSpaceOnUse">
   <stop stop-color="#f7f7f7" offset="0"/>
   <stop stop-color="#e6e6e6" offset="1"/>
  </linearGradient>
  <linearGradient id="linearGradient5295" x1="327" x2="328" y1="239" y2="243" gradientTransform="translate(-320 -236)" gradientUnits="userSpaceOnUse">
   <stop stop-color="#77216f" offset="0"/>
   <stop stop-color="#88267f" offset="1"/>
  </linearGradient>
  <linearGradient id="linearGradient1692-6" x1="321" x2="335" y1="244" y2="244" gradientTransform="rotate(90 286 -34)" gradientUnits="userSpaceOnUse">
   <stop stop-color="#fff" offset="0"/>
   <stop stop-color="#fff" stop-opacity=".098039" offset=".125"/>
   <stop stop-color="#fff" stop-opacity=".098039" offset=".925"/>
   <stop stop-color="#fff" stop-opacity=".49804" offset="1"/>
  </linearGradient>
 </defs>
 <path d="m4.1286 1c-3.7436 0-4.1464 0.30899-4.128 3.3233v4.1767 4.1767c-0.0183 3.0143 0.38446 3.3233 4.128 3.3233h7.7433c3.7436 0 4.128-0.30895 4.128-3.3233v-4.1767-4.1767c0-3.0144-0.38446-3.3233-4.128-3.3233z" color="#000000" opacity=".1"/>
 <path d="m11.595 15.5c3.476 0 3.8501-0.30899 3.833-3.3233v-4.1767-4.1767c0.017-3.0143-0.35698-3.3233-3.833-3.3233h-7.19c-3.476 0-3.833 0.30895-3.833 3.3233v4.1767 4.1767c0 3.0144 0.35699 3.3233 3.833 3.3233z" color="#000000" fill="url(#linearGradient1692)"/>
 <rect x="4" y="4" width="8" height="4" rx="2" ry="2" enable-background="new" fill="#fff" opacity=".6"/>
 <rect x="4" y="3" width="8" height="4" rx="2" ry="2" enable-background="new" fill="url(#linearGradient5295)"/>
 <rect x="4" y="9" width="8" height="4" rx="2" ry="2" enable-background="new" fill="#dedede"/>
 <circle cx="10" cy="6" r="1" enable-background="new" opacity=".1"/>
 <circle cx="10" cy="5" r="1" enable-background="new" fill="#fff"/>
 <circle cx="6" cy="11" r="2" enable-background="new" opacity=".2"/>
 <circle cx="6" cy="11" r="1" enable-background="new" fill="#fff"/>
 <path d="m6 3c-1.108 0-2 0.892-2 2 0 0.17383 0.029 0.33941 0.0703 0.5 0.22195-0.86299 0.99552-1.5 1.9297-1.5h4c0.93417 0 1.7077 0.63701 1.9297 1.5 0.0413-0.16059 0.0703-0.32617 0.0703-0.5 0-1.108-0.892-2-2-2z" enable-background="new" opacity=".1"/>
 <path d="m6 9c-1.108 0-2 0.892-2 2s0.892 2 2 2h4c1.108 0 2-0.892 2-2s-0.892-2-2-2zm0.5 1h3c0.831 0 1.5 0.446 1.5 1s-0.669 1-1.5 1h-3c-0.831 0-1.5-0.446-1.5-1s0.669-1 1.5-1z" enable-background="new" opacity=".1"/>
 <path d="m11.555 15.5c3.337 0 3.9622-0.30212 3.9447-3.2495v-4.2505-4.2506c0.0175-2.9473-0.60763-3.2494-3.9447-3.2494h-7.1102c-3.3362 0-3.9447 0.30208-3.9447 3.2494v4.2506 4.2505c0 2.9474 0.60847 3.2495 3.9447 3.2495z" color="#000000" fill="none" opacity=".4" stroke="#000"/>
 <path d="m4.4453 1c-1.653 0-2.546 0.12548-2.916 0.41406-0.18499 0.14429-0.30479 0.33122-0.39649 0.70313-0.09171 0.37191-0.13281 0.91317-0.13281 1.6328v4.25 4.25c0 0.71964 0.0411 1.2608 0.13281 1.6328 0.0917 0.37191 0.2115 0.55884 0.39649 0.70313 0.36997 0.28858 1.263 0.41406 2.916 0.41406h7.1094c1.6534 0 2.552-0.12511 2.9238-0.41406 0.18589-0.14448 0.30578-0.33208 0.39648-0.70313s0.129-0.90979 0.125-1.6289v-2e-3 -4.2519-4.252-2e-3c4e-3 -0.71911-0.0343-1.2578-0.125-1.6289s-0.21059-0.55865-0.39648-0.70313c-0.37179-0.2889-1.2704-0.41402-2.9238-0.41402zm5.3281 1.0469c1.1077-3.4e-4 2.2136 8e-3 3.3203 0.0449 0.26616 0.0599 0.75737-0.0208 0.79297 0.3457 0.13405 1.8444 0.0662 3.6877 0.10156 5.5391-0.0126 1.8674 0.0543 3.6703-0.10351 5.498 0.0642 0.42314-0.43946 0.35577-0.70313 0.42187-3.4328 0.0703-6.8758 0.0589-10.299 2e-3 -0.22288-0.0398-0.55622-3.2e-4 -0.71093-0.1875-0.19863-1.13-0.12696-2.2695-0.16016-3.4199 0.0138-2.5565-0.029-5.1073 0.0898-7.6562-0.03-0.2727 0.10944-0.49629 0.40039-0.48829 1.3066-0.161 2.6326-0.0636 3.9473-0.0976 1.1072 6e-3 2.2166-2e-3 3.3242-2e-3z" color="#000000" fill="url(#linearGradient1692-6)"/>
</svg>
