<svg width="16" height="16" version="1" xmlns="http://www.w3.org/2000/svg" xmlns:xlink="http://www.w3.org/1999/xlink">
 <defs>
  <linearGradient id="linearGradient1692" x1="320" x2="336" y1="252" y2="236" gradientTransform="rotate(90 286 -34)" gradientUnits="userSpaceOnUse">
   <stop stop-color="#369ad4" offset="0"/>
   <stop stop-color="#b6e2f3" offset="1"/>
  </linearGradient>
  <linearGradient id="linearGradient1072" x1="247.24" x2="296.89" y1="358.57" y2="524" gradientTransform="matrix(.03125 0 0 .03125 .00011243 .62497)" gradientUnits="userSpaceOnUse">
   <stop stop-color="#fff" offset="0"/>
   <stop stop-color="#fff" stop-opacity="0" offset="1"/>
  </linearGradient>
  <linearGradient id="linearGradient1692-6" x1="321" x2="335" y1="244" y2="244" gradientTransform="rotate(90 286 -34)" gradientUnits="userSpaceOnUse">
   <stop stop-color="#fff" offset="0"/>
   <stop stop-color="#fff" stop-opacity=".098039" offset=".125"/>
   <stop stop-color="#fff" stop-opacity=".098039" offset=".925"/>
   <stop stop-color="#fff" stop-opacity=".49804" offset="1"/>
  </linearGradient>
 </defs>
 <path d="m4.1286 1c-3.7436 0-4.1464 0.30899-4.128 3.3233v4.1767 4.1767c-0.0183 3.0143 0.38446 3.3233 4.128 3.3233h7.7433c3.7436 0 4.128-0.30895 4.128-3.3233v-4.1767-4.1767c0-3.0144-0.38446-3.3233-4.128-3.3233z" color="#000000" opacity=".1"/>
 <path d="m4.4056 0.50001c-3.476 0-3.8501 0.30899-3.833 3.3233v4.1767 4.1767c-0.017 3.0143 0.35698 3.3233 3.833 3.3233h7.19c3.476 0 3.833-0.30895 3.833-3.3233v-4.1767-4.1767c0-3.0144-0.35699-3.3233-3.833-3.3233z" color="#000000" fill="url(#linearGradient1692)"/>
 <path d="m15.428 6.1016c-0.63028 0.10875-1.1524 0.56638-1.291 1.209-0.0245 0.0321-0.0481 0.0658-0.0703 0.0996-0.0937-0.0382-0.19397-0.0566-0.29493-0.0566-0.42432 4.8e-4 -0.77274 0.33392-0.79101 0.75781-0.41709 0.0634-0.83077 0.1549-1.2363 0.27148-0.19464-0.58828-0.74362-0.98589-1.3633-0.98632-0.75881 6.1e-4 -1.3864 0.5903-1.4336 1.3477-0.1002-0.0203-0.20262-0.0292-0.30469-0.0293-0.86042 1e-5 -1.5566 0.69631-1.5566 1.5566 3.1e-4 0.27335 0.0719 0.54271 0.20898 0.77929-0.25552 0.26193-0.49602 0.5373-0.7207 0.82618-0.51808-0.39849-1.0813-0.73467-1.6777-1.002-0.0415-0.62124-0.55703-1.1034-1.1797-1.1035-0.0769 3.6e-4 -0.15511 8e-3 -0.23047 0.0234-0.16198-0.58328-0.6915-0.98631-1.2969-0.98632-0.74432 2e-5 -1.3477 0.60333-1.3476 1.3477 2e-4 8e-3 0 0.0136 0 0.0215-0.0727 7e-3 -0.17416 8e-3 -0.26953 8e-3v1.9902c0 3.0144 0.35598 3.3242 3.832 3.3242h7.1914c3.476 0 3.849-0.30989 3.832-3.3242v-4.176z" color="#000000" fill="url(#linearGradient1072)" opacity=".2"/>
 <path d="m14.859 1.0703-14.08 13.199c0.34135 1.0618 1.2426 1.2305 3.625 1.2305h7.1914c3.476 0 3.849-0.30989 3.832-3.3242v-8.3516c8e-3 -1.4679-0.0781-2.2924-0.56835-2.7539z" enable-background="new" fill="#fff" fill-rule="evenodd" opacity=".1"/>
 <g transform="translate(-320 -236)" enable-background="new">
  <path d="m326.9 239.9-0.63476 1.0977h-1.2676v1.2676l-1.0977 0.63477 0.63477 1.0977-0.63477 1.0976 1.0977 0.63477v1.2676h1.2676l0.63476 1.0976 1.0977-0.63477 1.0977 0.63477 0.63476-1.0976h1.2676v-1.2676l1.0977-0.63477-0.63477-1.0976 0.63477-1.0977-1.0977-0.63477v-1.2676h-1.2676l-0.63476-1.0977-1.0977 0.63477z" enable-background="new" fill="#2d2201" opacity=".1"/>
  <g transform="matrix(.63745 0 0 .63745 116.37 115.51)" enable-background="new" stroke-width="1.5688">
   <rect transform="matrix(-.5 -.86603 -.86603 .5 0 0)" x="-343.91" y="-192.23" width="4.706" height="4.706" fill="#f9c010"/>
   <rect transform="matrix(-.5 -.86603 -.86603 .5 0 0)" x="-339.21" y="-187.52" width="4.706" height="4.706" fill="#fae695"/>
   <rect transform="rotate(60)" x="339.21" y="-187.52" width="4.706" height="4.706" fill="#fbcd42"/>
   <rect transform="rotate(60)" x="334.5" y="-192.23" width="4.706" height="4.706" fill="#fedf7c"/>
   <rect transform="matrix(-.86603 -.5 -.5 .86603 0 0)" x="-392.23" y="2.499" width="4.706" height="4.706" fill="#fbcd42"/>
   <rect transform="matrix(-.86603 -.5 -.5 .86603 0 0)" x="-387.52" y="7.2051" width="4.706" height="4.706" fill="#fedf7c"/>
   <rect transform="rotate(30)" x="387.52" y="7.2051" width="4.706" height="4.706" fill="#f9c010"/>
   <rect transform="rotate(30)" x="382.81" y="2.499" width="4.706" height="4.706" fill="#fae695"/>
  </g>
  <g transform="matrix(.63745 0 0 .63745 116.37 115.51)" enable-background="new" stroke-width="1.5688">
   <rect x="327.29" y="195.29" width="4.706" height="4.706" fill="#fbedb3"/>
   <rect x="332" y="200" width="4.706" height="4.706" fill="#f9c010"/>
   <path d="m332 195.29a4.706 4.706 0 0 0-4.7046 4.6779h-1e-3v0.02814 4.706h4.7045v-4e-5a4.706 4.706 0 0 0 2e-3 4e-5 4.706 4.706 0 0 0 4.7046-4.6779h1e-3v-0.02815-4.706h-4.7045v4e-5a4.706 4.706 0 0 0-2e-3 -4e-5z" color="#000000" enable-background="accumulate" fill="#fed965"/>
  </g>
  <path d="m330.19 245a2 2 0 0 0-1.8542 1.2543 1.375 1.375 0 0 0-1.2708 1.3707 1.375 1.375 0 0 0 1.375 1.375h3.0003a1.375 1.375 0 0 0 1.375-1.375 1.375 1.375 0 0 0-0.71278-1.2048 2 2 0 0 0-1.9125-1.4202z" enable-background="new" opacity=".1"/>
  <path d="m330.19 244a2 2 0 0 0-1.8542 1.2543 1.375 1.375 0 0 0-1.2708 1.3707 1.375 1.375 0 0 0 1.375 1.375h3.0003a1.375 1.375 0 0 0 1.375-1.375 1.375 1.375 0 0 0-0.71278-1.2048 2 2 0 0 0-1.9125-1.4202z" enable-background="new" fill="#ecf9fe"/>
 </g>
 <path d="m11.555 15.5c3.337 0 3.9622-0.30212 3.9447-3.2495v-4.2505-4.2506c0.0175-2.9473-0.60763-3.2494-3.9447-3.2494h-7.1102c-3.3362 0-3.9447 0.30208-3.9447 3.2494v4.2506 4.2505c0 2.9474 0.60847 3.2495 3.9447 3.2495z" color="#000000" fill="none" opacity=".4" stroke="#000"/>
 <path d="m4.4453 1c-1.653 0-2.546 0.12548-2.916 0.41406-0.18499 0.14429-0.30479 0.33122-0.39649 0.70313-0.09171 0.37191-0.13281 0.91317-0.13281 1.6328v4.25 4.25c0 0.71964 0.0411 1.2608 0.13281 1.6328 0.0917 0.37191 0.2115 0.55884 0.39649 0.70313 0.36997 0.28858 1.263 0.41406 2.916 0.41406h7.1094c1.6534 0 2.552-0.12511 2.9238-0.41406 0.18589-0.14448 0.30578-0.33208 0.39648-0.70313s0.129-0.90979 0.125-1.6289v-2e-3 -4.2519-4.252-2e-3c4e-3 -0.71911-0.0343-1.2578-0.125-1.6289s-0.21059-0.55865-0.39648-0.70313c-0.37179-0.2889-1.2704-0.41402-2.9238-0.41402zm5.3281 1.0469c1.1077-3.4e-4 2.2136 8e-3 3.3203 0.0449 0.26616 0.0599 0.75737-0.0208 0.79297 0.3457 0.13405 1.8444 0.0662 3.6877 0.10156 5.5391-0.0126 1.8674 0.0543 3.6703-0.10351 5.498 0.0642 0.42314-0.43946 0.35577-0.70313 0.42187-3.4328 0.0703-6.8758 0.0589-10.299 2e-3 -0.22288-0.0398-0.55622-3.2e-4 -0.71093-0.1875-0.19863-1.13-0.12696-2.2695-0.16016-3.4199 0.0138-2.5565-0.029-5.1073 0.0898-7.6562-0.03-0.2727 0.10944-0.49629 0.40039-0.48829 1.3066-0.161 2.6326-0.0636 3.9473-0.0976 1.1072 6e-3 2.2166-2e-3 3.3242-2e-3z" color="#000000" fill="url(#linearGradient1692-6)"/>
</svg>
