<svg width="16" height="16" version="1" xmlns="http://www.w3.org/2000/svg" xmlns:xlink="http://www.w3.org/1999/xlink">
 <defs>
  <linearGradient id="linearGradient8588-0-1-5" x1="13.735" x2="38.1" y1="249.69" y2="292.77" gradientTransform="matrix(.31496 0 0 .31496 -15.833 -93.71)" gradientUnits="userSpaceOnUse">
   <stop stop-color="#e6e6e6" offset="0"/>
   <stop stop-color="#d3d3d3" offset="1"/>
  </linearGradient>
  <linearGradient id="linearGradient8590-3-3-4" x1="96" x2="96" y1="4" y2="188" gradientTransform="matrix(.076087 0 0 .076087 .69566 .69567)" gradientUnits="userSpaceOnUse">
   <stop stop-color="#fff" offset="0"/>
   <stop stop-color="#fff" stop-opacity=".098039" offset=".125"/>
   <stop stop-color="#fff" stop-opacity=".098039" offset=".925"/>
   <stop stop-color="#fff" stop-opacity=".49804" offset="1"/>
  </linearGradient>
 </defs>
 <ellipse transform="scale(-1)" cx="-8" cy="-8.5" rx="7" ry="6.5" enable-background="new" opacity=".1"/>
 <circle transform="scale(-1)" cx="-8" cy="-8" r="7.5" enable-background="new" fill="url(#linearGradient8588-0-1-5)"/>
 <g transform="matrix(.059783 0 0 .059783 -1.087 -1.3261)" enable-background="new">
  <circle cx="152" cy="156" r="92" color="#000000" enable-background="accumulate" fill="#4d4d4d"/>
  <path d="m152 81.006c-5.3937-0.05998-7.2804 0.14029-8.0391 6.6621l-0.28906 2.3047c-0.66573 4.2298-0.793 6.1452-4.7949 7.1816-0.26817 0.05994-0.53589 0.12007-0.80273 0.18359-0.0631 0.01301-0.11886 0.02824-0.1836 0.04102l8e-3 2e-3c-1.0104 0.24375-2.0099 0.51443-3 0.80859l0.01-0.01172c-0.16537 0.05647-0.31605 0.10151-0.47265 0.15039-0.14986 0.04582-0.29985 0.08978-0.44922 0.13672-4.0215 1.1281-5.0854-0.46761-7.7871-3.8105l-1.4043-1.8516c-1.959-2.6344-3.3698-3.7587-4.873-3.8809-0.18789-0.01527-0.37832-0.01507-0.57032 0-1.3439 0.10545-2.8172 0.93022-4.8476 2.1328-4.7011 2.6449-6.2347 3.7597-3.6309 9.7871l0.90039 2.1406c1.6564 4.3025 2.5183 5.9673-1.3027 9.3047l0.10157-0.0234c-0.78976 0.74858-1.558 1.5188-2.3066 2.3086l0.0215-0.10157c-3.3374 3.8211-5.0022 2.9591-9.3047 1.3027l-2.1406-0.90235c-1.8836-0.81371-3.2874-1.2228-4.4082-1.2578-2.4657-0.0772-3.5605 1.6567-5.3789 4.8887-2.7488 4.6411-3.5207 6.375 1.748 10.293l1.8516 1.4043c3.3429 2.7017 4.9387 3.7656 3.8105 7.7871-0.04698 0.14937-0.09087 0.29936-0.13672 0.44922-0.04894 0.1566-0.09193 0.30729-0.14844 0.47265l0.0098-0.01c-0.29416 0.99009-0.56485 1.9896-0.80859 3l-2e-3 -8e-3c-0.01271 0.0647-0.02795 0.12053-0.04102 0.1836-0.06352 0.26684-0.12365 0.53456-0.18359 0.80273-1.0365 4.0019-2.9518 4.1292-7.1816 4.7949l-2.3047 0.28906c-6.5218 0.75868-6.7221 2.6454-6.6621 8.0391-0.05998 5.3937 0.14028 7.2804 6.6621 8.0391l2.3047 0.28906c4.2298 0.66573 6.1452 0.793 7.1816 4.7949 0.05994 0.26818 0.12007 0.5359 0.18359 0.80273 0.01301 0.0631 0.02824 0.11886 0.04102 0.1836l2e-3 -8e-3c0.24375 1.0104 0.51443 2.0099 0.80859 3l-0.01172-0.01c0.0565 0.16537 0.10147 0.31605 0.15039 0.47265 0.04582 0.14985 0.08974 0.29986 0.13672 0.44922 1.1281 4.0215-0.46762 5.0854-3.8105 7.7871l-1.8516 1.4043c-5.2687 3.9179-4.4968 5.6499-1.748 10.291 2.6449 4.7011 3.7597 6.2347 9.7871 3.6309l2.1406-0.90039c4.3025-1.6564 5.9673-2.5183 9.3047 1.3027l-0.0234-0.10157c0.74858 0.78976 1.5188 1.5581 2.3086 2.3066l-0.10157-0.0215c3.8211 3.3374 2.9591 5.0022 1.3027 9.3047l-0.90235 2.1406c-2.6039 6.0274-1.0702 7.1441 3.6309 9.7891 4.6411 2.7488 6.375 3.5187 10.293-1.75l1.4043-1.8516c2.7017-3.3429 3.7656-4.9386 7.7871-3.8105 0.14937 0.047 0.29936 0.0909 0.44922 0.13672 0.1566 0.0489 0.30728 0.0938 0.47265 0.15039l-0.01-0.0117c0.99009 0.29416 1.9896 0.56484 3 0.80859l-8e-3 2e-3c0.0647 0.0128 0.12053 0.028 0.1836 0.041 0.26684 0.0635 0.53456 0.12365 0.80273 0.18359 4.0019 1.0365 4.1292 2.9518 4.7949 7.1816l0.28906 2.3047c0.75867 6.5218 2.6453 6.7221 8.0391 6.6621 5.3937 0.06 7.2804-0.14029 8.0391-6.6621l0.28906-2.3047c0.66576-4.2298 0.79299-6.1452 4.7949-7.1816 0.26817-0.06 0.5359-0.12007 0.80273-0.18359 0.0631-0.0131 0.11886-0.0281 0.1836-0.041l-8e-3 -2e-3c1.0104-0.24375 2.0099-0.51443 3-0.80859l-0.01 0.0117c0.16536-0.0565 0.31604-0.10151 0.47265-0.15039 0.14985-0.0458 0.29986-0.0897 0.44922-0.13672 4.0215-1.1281 5.0854 0.46761 7.7871 3.8105l1.4043 1.8516c3.9179 5.2687 5.6499 4.4968 10.291 1.748 4.7011-2.6449 6.2348-3.7597 3.6309-9.7871l-0.90039-2.1406c-1.6564-4.3025-2.5183-5.9673 1.3027-9.3047l-0.10157 0.0234c0.78977-0.74858 1.5581-1.5188 2.3066-2.3086l-0.0215 0.10157c3.3374-3.8211 5.0022-2.9591 9.3047-1.3027l2.1406 0.90235c6.0274 2.6039 7.1422 1.0702 9.7871-3.6309 2.7488-4.6411 3.5207-6.375-1.748-10.293l-1.8516-1.4043c-3.3429-2.7017-4.9387-3.7656-3.8105-7.7871 0.047-0.14936 0.0908-0.29937 0.13672-0.44922 0.0489-0.1566 0.092-0.30728 0.14843-0.47265l-0.01 0.01c0.29416-0.99009 0.56484-1.9896 0.80859-3l2e-3 8e-3c0.0128-0.0647 0.028-0.12052 0.041-0.1836 0.0635-0.26683 0.12365-0.53455 0.18359-0.80273 1.0365-4.0019 2.9518-4.1292 7.1816-4.7949l2.3047-0.28906c6.5218-0.75867 6.7221-2.6453 6.6621-8.0391 0.06-5.3937-0.14028-7.2804-6.6621-8.0391l-2.3047-0.28906c-4.2298-0.66574-6.1452-0.79299-7.1816-4.7949-0.06-0.26816-0.12007-0.53589-0.18359-0.80273-0.0131-0.0631-0.0281-0.11887-0.041-0.1836l-2e-3 8e-3c-0.24375-1.0104-0.51442-2.0099-0.80859-3l0.0117 0.01c-0.0565-0.16536-0.10151-0.31604-0.15039-0.47265-0.0458-0.14986-0.0897-0.29985-0.13672-0.44922-1.1281-4.0215 0.46762-5.0854 3.8105-7.7871l1.8516-1.4043c5.2687-3.9179 4.4968-5.6499 1.748-10.291-1.8184-3.232-2.9132-4.9678-5.3789-4.8906-1.1207 0.0351-2.5246 0.44605-4.4082 1.2598l-2.1406 0.90039c-4.3025 1.6564-5.9673 2.5183-9.3047-1.3027l0.0234 0.10157c-0.74858-0.78977-1.5188-1.5581-2.3086-2.3066l0.10157 0.0215c-3.8211-3.3374-2.9591-5.0022-1.3027-9.3047l0.90235-2.1406c2.6039-6.0274 1.0702-7.1422-3.6309-9.7871-2.3206-1.3744-3.9148-2.2549-5.418-2.1328-1.5032 0.12213-2.916 1.2465-4.875 3.8809l-1.4043 1.8516c-2.7017 3.3429-3.7656 4.9387-7.7871 3.8105-0.14936-0.04703-0.29937-0.09088-0.44922-0.13672-0.15661-0.04894-0.30729-0.09192-0.47265-0.14844l0.01 0.0098c-0.9901-0.29416-1.9896-0.56485-3-0.80859l8e-3 -2e-3c-0.0647-0.01271-0.12052-0.02795-0.1836-0.04102-0.26683-0.06352-0.53456-0.12365-0.80273-0.18359-4.0019-1.0365-4.1292-2.9518-4.7949-7.1816l-0.28906-2.3047c-0.75844-6.5219-2.6451-6.7221-8.0388-6.6621zm-0.01172 30.994c4e-3 -1e-5 8e-3 -1e-5 0.0117 0 5.0653 3e-4 9.9608 0.87493 14.535 2.4805a12 12 0 0 0 5.4648 6.8789 12 12 0 0 0 8.6699 1.291c7.2034 6.1907 12.43 14.704 14.439 24.549 0.50642 2.48-1.3887 4.801-3.9199 4.8008h-12.379c-1.7693 1.5e-4 -3.3285-1.1619-3.834-2.8574-3.0341-10.177-12.349-17.126-22.967-17.141-1.8655 0.0101-3.7243 0.23539-5.5371 0.67578-1.7253 0.41898-3.5203-0.34928-4.4082-1.8867l-6.1797-10.701c-1.2629-2.1886-0.20551-4.9854 2.1894-5.791 4.4847-1.5096 9.1822-2.2858 13.914-2.2988zm-26.307 10.096c1.3611 0.0638 2.5961 0.816 3.2773 1.9961l6.1797 10.701c0.88545 1.5335 0.65743 3.4666-0.56055 4.752-4.2128 4.4466-6.5656 10.332-6.5781 16.457 7e-3 6.1287 2.3554 12.019 6.5684 16.471 1.217 1.285 1.445 3.217 0.56055 4.75l-6.1621 10.676c-1.2649 2.191-4.2204 2.6724-6.1152 0.99609-7.3582-6.507-12.254-15.238-14.062-24.74a12 12 0 0 0 3.2109-8.1543 12 12 0 0 0-3.2129-8.1504c1.8045-9.5062 6.6973-18.242 14.057-24.754 0.77978-0.68994 1.7978-1.0487 2.8379-1zm53.139 37.904h12.328c2.5312-2.4e-4 4.4264 2.3208 3.9199 4.8008-2.0084 9.8393-7.2302 18.349-14.428 24.539a12 12 0 0 0-2.9238-0.30273 12 12 0 0 0-5.7168 1.6035 12 12 0 0 0-5.4531 6.8613c-4.5756 1.6125-9.4742 2.4926-14.543 2.498-6e-3 2e-5 -0.0125 2e-5 -0.0195 0-4.7298-0.0188-9.4252-0.80071-13.906-2.3144-2.3921-0.80764-3.4471-3.6021-2.1855-5.7891l6.1699-10.688c0.88793-1.5374 2.6829-2.3057 4.4082-1.8867 1.814 0.44068 3.6743 0.66578 5.541 0.67578 10.621-0.0108 19.94-6.961 22.975-17.141 0.50551-1.6955 2.0647-2.8576 3.834-2.8574z" color="#000000" enable-background="accumulate" fill="#cdcdcd"/>
 </g>
 <circle cx="8" cy="8" r="7.5" enable-background="new" fill="none" opacity=".4" stroke="#000" stroke-dashoffset="6.6" stroke-linejoin="round"/>
 <path d="m8 1c-3.866 0-7 3.134-7 7 0 3.866 3.134 7 7 7 3.866 0 7-3.134 7-7 0-3.866-3.134-7-7-7zm0 1a6 6 0 0 1 6 6 6 6 0 0 1-6 6 6 6 0 0 1-6-6 6 6 0 0 1 6-6z" enable-background="new" fill="url(#linearGradient8590-3-3-4)"/>
 <g transform="translate(-314,-230)" enable-background="new">
  <ellipse cx="325" cy="241" rx="4.5" ry="4.5" fill="#5884f4" stroke="#000" stroke-dashoffset="1" stroke-linecap="round" stroke-linejoin="round" stroke-opacity=".4"/>
  <path d="m327.75 238.25-2.5-6.3e-4v2.4994l2.4994 2e-5z" enable-background="new" fill="#fff"/>
  <path d="m324.75 238.25-2.5-6e-4 6.2e-4 2.5h2.4994z" enable-background="new" fill="#fff"/>
  <path d="m327.75 241.25-2.5-6.3e-4 6e-4 2.5 2.4994-2e-5z" enable-background="new" fill="#fff"/>
  <path d="m324.75 241.25-2.5-1e-3 -2e-5 2.5h2.5z" enable-background="new" fill="#fff"/>
 </g>
</svg>
