<svg width="16" height="16" version="1" xmlns="http://www.w3.org/2000/svg" xmlns:xlink="http://www.w3.org/1999/xlink">
 <defs>
  <linearGradient id="linearGradient1692" x1="320" x2="336" y1="247" y2="241" gradientTransform="rotate(90 286 -34)" gradientUnits="userSpaceOnUse">
   <stop stop-color="#e6e6e6" offset="0"/>
   <stop stop-color="#f7f7f7" offset="1"/>
  </linearGradient>
  <linearGradient id="linearGradient1427" x1="332" x2="332" y1="244" y2="252" gradientTransform="translate(-320 -236)" gradientUnits="userSpaceOnUse">
   <stop stop-color="#7b0619" offset="0"/>
   <stop stop-color="#bb0212" offset="1"/>
  </linearGradient>
  <linearGradient id="linearGradient1692-6" x1="321" x2="335" y1="244" y2="244" gradientTransform="rotate(90 286 -34)" gradientUnits="userSpaceOnUse">
   <stop stop-color="#fff" offset="0"/>
   <stop stop-color="#fff" stop-opacity=".098039" offset=".125"/>
   <stop stop-color="#fff" stop-opacity=".098039" offset=".925"/>
   <stop stop-color="#fff" stop-opacity=".49804" offset="1"/>
  </linearGradient>
  <linearGradient id="linearGradient1127" x1="25.765" x2="3" y1="41.882" y2="34" gradientTransform="translate(320,59)" gradientUnits="userSpaceOnUse">
   <stop stop-color="#a40000" offset="0"/>
   <stop stop-color="#f57900" offset=".15979"/>
   <stop stop-color="#edd400" offset=".34339"/>
   <stop stop-color="#73d216" offset=".5544"/>
   <stop stop-color="#3465a4" offset="1"/>
   <stop stop-color="#5c3566" offset="1"/>
  </linearGradient>
  <filter id="filter1145" x="-.0097" y="-.015931" width="1.0194" height="1.0319" color-interpolation-filters="sRGB">
   <feGaussianBlur stdDeviation="0.1560692"/>
  </filter>
  <linearGradient id="linearGradient1123" x1="9.6968" x2="33.232" y1="24.661" y2="24.661" gradientTransform="matrix(.23517 .13978 -.13578 .24211 7.8425 -.88629)" gradientUnits="userSpaceOnUse" xlink:href="#linearGradient4387"/>
  <linearGradient id="linearGradient4387">
   <stop stop-color="#2e3436" offset="0"/>
   <stop offset="1"/>
  </linearGradient>
  <linearGradient id="linearGradient1125" x1="19.5" x2="23.5" y1="28.5" y2="28.5" gradientTransform="matrix(.23517 .13978 -.13578 .24211 7.8425 -.88629)" gradientUnits="userSpaceOnUse" xlink:href="#linearGradient4387"/>
 </defs>
 <path d="m4.1286 1c-3.7436 0-4.1464 0.30899-4.128 3.3233v4.1767 4.1767c-0.0183 3.0143 0.38446 3.3233 4.128 3.3233h7.7433c3.7436 0 4.128-0.30895 4.128-3.3233v-4.1767-4.1767c0-3.0144-0.38446-3.3233-4.128-3.3233z" color="#000000" opacity=".1"/>
 <path d="m4.4056 0.50001c-3.476 0-3.8501 0.30899-3.833 3.3233v4.1767 4.1767c-0.017 3.0143 0.35698 3.3233 3.833 3.3233h7.19c3.476 0 3.833-0.30895 3.833-3.3233v-4.1767-4.1767c0-3.0144-0.35699-3.3233-3.833-3.3233z" color="#000000" fill="url(#linearGradient1692)"/>
 <path d="m13.572 8.0002c-1.8571 0-3.9791 3.1836-7.6934 3.1836s-5.3066-1.8574-5.3066-1.8574v3.2492c-0.017 3.0143 0.35794 2.9244 3.834 2.9244h7.1894c3.476 0 3.832 0.0899 3.832-2.9244v-3.2492s2e-3 -1.3262-1.8555-1.3262z" color="#000000" fill="url(#linearGradient1427)"/>
 <path d="m11.555 15.5c3.337 0 3.9622-0.30212 3.9447-3.2495v-4.2505-4.2506c0.0175-2.9473-0.60763-3.2494-3.9447-3.2494h-7.1102c-3.3362 0-3.9447 0.30208-3.9447 3.2494v4.2506 4.2505c0 2.9474 0.60847 3.2495 3.9447 3.2495z" color="#000000" fill="none" opacity=".4" stroke="#000"/>
 <path d="m4.4453 1c-1.653 0-2.546 0.12548-2.916 0.41406-0.18499 0.14429-0.30479 0.33122-0.39649 0.70313-0.09171 0.37191-0.13281 0.91317-0.13281 1.6328v4.25 4.25c0 0.71964 0.0411 1.2608 0.13281 1.6328 0.0917 0.37191 0.2115 0.55884 0.39649 0.70313 0.36997 0.28858 1.263 0.41406 2.916 0.41406h7.1094c1.6534 0 2.552-0.12511 2.9238-0.41406 0.18589-0.14448 0.30578-0.33208 0.39648-0.70313s0.129-0.90979 0.125-1.6289v-2e-3 -4.2519-4.252-2e-3c4e-3 -0.71911-0.0343-1.2578-0.125-1.6289s-0.21059-0.55865-0.39648-0.70313c-0.37179-0.2889-1.2704-0.41402-2.9238-0.41402zm5.3281 1.0469c1.1077-3.4e-4 2.2136 8e-3 3.3203 0.0449 0.26616 0.0599 0.75737-0.0208 0.79297 0.3457 0.13405 1.8444 0.0662 3.6877 0.10156 5.5391-0.0126 1.8674 0.0543 3.6703-0.10351 5.498 0.0642 0.42314-0.43946 0.35577-0.70313 0.42187-3.4328 0.0703-6.8758 0.0589-10.299 2e-3 -0.22288-0.0398-0.55622-3.2e-4 -0.71093-0.1875-0.19863-1.13-0.12696-2.2695-0.16016-3.4199 0.0138-2.5565-0.029-5.1073 0.0898-7.6562-0.03-0.2727 0.10944-0.49629 0.40039-0.48829 1.3066-0.161 2.6326-0.0636 3.9473-0.0976 1.1072 6e-3 2.2166-2e-3 3.3242-2e-3z" color="#000000" fill="url(#linearGradient1692-6)"/>
 <path d="m12.681 4.171-5.1595 9.2003c-0.075 0.13373 0.0748 0.36729 0.33457 0.52169 0.25976 0.1544 0.53112 0.17117 0.60611 0.0374l5.1595-9.2003z" enable-background="new" opacity=".1" stroke="#000" stroke-linejoin="round"/>
 <path transform="matrix(.22932 0 0 .22112 -71.301 -11.344)" d="m357.63 78.463 5.3713-9.4632s-11.432-5.9128-16.485-2.6545c-11.324 7.3012-9.3238-0.69884-19.324-0.69884-4.1356 0-3.3251 19.562 0 22 4.5916 3.3665 8.8466-0.49665 16.809-7.6467 7.9093-7.1023 13.629-1.5368 13.629-1.5368z" enable-background="new" fill="url(#linearGradient1127)" filter="url(#filter1145)"/>
 <path d="m11.682 3.1711-5.1595 9.2003c-0.075 0.13373 0.0748 0.36729 0.33457 0.52169 0.25976 0.1544 0.53112 0.17117 0.60611 0.0374l5.1595-9.2003z" enable-background="new" fill="url(#linearGradient1123)" stroke="url(#linearGradient1125)" stroke-linejoin="round"/>
 <path d="m11.682 3.1711-1.3578 2.4211c-0.075 0.13372 0.0748 0.36729 0.33457 0.52169 0.25975 0.1544 0.53112 0.17117 0.6061 0.0374l1.3578-2.4211z" enable-background="new" fill="#eeeeec" stroke="#eeeeec" stroke-linejoin="round"/>
 <ellipse transform="matrix(.85961 .51095 -.48913 .87221 0 0)" cx="12.291" cy="-3.2438" rx=".54715" ry=".27759" enable-background="new" fill="#d3d7cf" stroke="#d3d7cf" stroke-width="1.0002"/>
</svg>
