<svg width="16" height="16" version="1" xmlns="http://www.w3.org/2000/svg">
 <defs>
  <linearGradient id="linearGradient1692" x1="320" x2="336" y1="247" y2="241" gradientTransform="rotate(90 286 -34)" gradientUnits="userSpaceOnUse">
   <stop stop-color="#e6e6e6" offset="0"/>
   <stop stop-color="#f7f7f7" offset="1"/>
  </linearGradient>
  <linearGradient id="linearGradient1336" x1="160" x2="160" y1="136" y2="268" gradientTransform="translate(-320 -236)" gradientUnits="userSpaceOnUse">
   <stop stop-color="#7b0619" offset="0"/>
   <stop stop-color="#bb0212" offset="1"/>
  </linearGradient>
  <linearGradient id="linearGradient1692-6" x1="321" x2="335" y1="244" y2="244" gradientTransform="rotate(90 286 -34)" gradientUnits="userSpaceOnUse">
   <stop stop-color="#fff" offset="0"/>
   <stop stop-color="#fff" stop-opacity=".098039" offset=".125"/>
   <stop stop-color="#fff" stop-opacity=".098039" offset=".925"/>
   <stop stop-color="#fff" stop-opacity=".49804" offset="1"/>
  </linearGradient>
 </defs>
 <path d="m4.1286 1c-3.7436 0-4.1464 0.30899-4.128 3.3233v8.3534c-0.0183 3.0143 0.38446 3.3233 4.128 3.3233h7.7433c3.7436 0 4.128-0.30895 4.128-3.3233v-8.3534c0-3.0144-0.38446-3.3233-4.128-3.3233z" color="#000000" opacity=".1"/>
 <path d="m4.4056 0.50001c-3.476 0-3.8501 0.30899-3.833 3.3233v8.3534c-0.017 3.0143 0.35698 3.3233 3.833 3.3233h7.19c3.476 0 3.833-0.30895 3.833-3.3233v-8.3534c0-3.0144-0.35699-3.3233-3.833-3.3233z" color="#000000" fill="url(#linearGradient1692)"/>
 <path d="m13.572 6c-1.8571 0-3.9791 3.1836-7.6934 3.1836s-5.3066-1.8574-5.3066-1.8574v4.8496c-0.017 3.0143 0.35794 3.3242 3.834 3.3242h7.1894c3.476 0 3.832-0.30985 3.832-3.3242v-4.8496s2e-3 -1.3262-1.8555-1.3262z" color="#000000" fill="url(#linearGradient1336)"/>
 <path d="m11.555 15.5c3.337 0 3.9622-0.30212 3.9447-3.2495v-8.5011c0.0175-2.9473-0.60763-3.2494-3.9447-3.2494h-7.1102c-3.3362 0-3.9447 0.30208-3.9447 3.2494v8.5011c0 2.9474 0.60847 3.2495 3.9447 3.2495z" color="#000000" fill="none" opacity=".4" stroke="#000"/>
 <path d="m4.4453 1c-1.653 0-2.546 0.12548-2.916 0.41406-0.18499 0.14429-0.30479 0.33122-0.39649 0.70313-0.09171 0.37191-0.13281 0.91317-0.13281 1.6328v8.5c0 0.71964 0.0411 1.2608 0.13281 1.6328 0.0917 0.37191 0.2115 0.55884 0.39649 0.70313 0.36997 0.28858 1.263 0.41406 2.916 0.41406h7.1094c1.6534 0 2.552-0.12511 2.9238-0.41406 0.18589-0.14448 0.30578-0.33208 0.39648-0.70313s0.129-0.90979 0.125-1.6289v-8.5079c4e-3 -0.71911-0.0343-1.2578-0.125-1.6289s-0.21059-0.55865-0.39648-0.70313c-0.37179-0.2889-1.2704-0.41402-2.9238-0.41402zm5.3281 1.0469c1.1077-3.4e-4 2.2136 8e-3 3.3203 0.0449 0.26616 0.0599 0.75737-0.0208 0.79297 0.3457 0.13405 1.8444 0.0662 3.6877 0.10156 5.5391-0.0126 1.8674 0.0543 3.6703-0.10351 5.498 0.0642 0.42314-0.43946 0.35577-0.70313 0.42187-3.4328 0.0703-6.8758 0.0589-10.299 2e-3 -0.22288-0.0398-0.55622-3.2e-4 -0.71093-0.1875-0.19863-1.13-0.12696-2.2695-0.16016-3.4199 0.0138-2.5565-0.029-5.1073 0.0898-7.6562-0.03-0.2727 0.10944-0.49629 0.40039-0.48829 1.3066-0.161 2.6326-0.0636 3.9473-0.0976 1.1072 6e-3 2.2166-2e-3 3.3242-2e-3z" color="#000000" fill="url(#linearGradient1692-6)"/>
 <ellipse cx="10.208" cy="8.8726" rx=".90562" ry=".91233" enable-background="new" fill="#fff"/>
 <circle cx="11" cy="11" r="4.5" enable-background="new" fill="#e95420" stroke="#000" stroke-dashoffset="1" stroke-linecap="round" stroke-linejoin="round" stroke-opacity=".4"/>
 <path d="m10.504 8.0078v0.54883c-0.2573 0.050893-0.4943 0.15001-0.7168 0.27344l-0.31641-0.37695-0.75195 0.64062 0.31641 0.375c-0.15688 0.19881-0.28574 0.41741-0.37695 0.6582l-0.49219-0.08789-0.16602 0.97461 0.5 0.08789c0.0097 0.25504 0.05988 0.49846 0.14062 0.72852l-0.45508 0.26367h-2e-3l0.5 0.85156 0.46094-0.26562c0.16378 0.18068 0.35266 0.33422 0.5625 0.46094l-0.1875 0.51367 0.92969 0.33203 0.1875-0.51367c0.11636 0.01666 0.23261 0.03515 0.35352 0.03516 0.12494-3e-6 0.24517-0.01934 0.36524-0.03711l0.19141 0.52148 0.92383-0.34375-0.18555-0.51367c0.20776-0.12695 0.39451-0.28091 0.55664-0.46094l0.47461 0.27539 0.48633-0.85938-0.46094-0.26562c0.07931-0.22778 0.12893-0.46852 0.13867-0.7207l0.51958-0.0918-0.17773-0.9707-0.5 0.08789c-0.08994-0.23796-0.215-0.45524-0.36914-0.65234l0.32617-0.38867-0.75977-0.62891-0.31641 0.37695c-0.22136-0.12412-0.45667-0.22521-0.71289-0.27734v-0.55078zm0.48633 1.1074c1.0468-6.3e-6 1.8926 0.84582 1.8926 1.8926 5e-6 1.0468-0.84582 1.8926-1.8926 1.8926-1.0468 4e-6 -1.8926-0.84582-1.8926-1.8926-5e-6 -1.0468 0.84582-1.8926 1.8926-1.8926z" color="#000000" fill="#fff"/>
</svg>
