<svg width="48" height="48" version="1" xmlns="http://www.w3.org/2000/svg" xmlns:xlink="http://www.w3.org/1999/xlink">
 <defs>
  <linearGradient id="linearGradient3194" x1="335.23" x2="352.27" y1="61.5" y2="106" gradientTransform="translate(-320 -60)" gradientUnits="userSpaceOnUse">
   <stop stop-color="#bc1938" offset="0"/>
   <stop stop-color="#da1636" offset="1"/>
  </linearGradient>
  <linearGradient id="linearGradient1004" x1="344" x2="344" y1="62" y2="106" gradientUnits="userSpaceOnUse">
   <stop stop-color="#fff" offset="0"/>
   <stop stop-color="#fff" stop-opacity=".098039" offset=".125"/>
   <stop stop-color="#fff" stop-opacity=".098039" offset=".925"/>
   <stop stop-color="#fff" stop-opacity=".49804" offset="1"/>
  </linearGradient>
  <clipPath id="clipPath994">
   <path d="m335.73 62c-8.8242 0-9.7736 0.90635-9.7304 9.7484v12.252 12.252c-0.0433 8.842 0.90622 9.7484 9.7304 9.7484h16.539c8.8242 0 9.7304-0.90625 9.7304-9.7484v-12.252-12.252c0-8.8421-0.90622-9.7484-9.7304-9.7484z" color="#000000" fill="#cdcdcd"/>
  </clipPath>
 </defs>
 <path d="m15.232 1.5c-2.2232 0-3.9737 0.05118-5.4141 0.29297-1.4404 0.24178-2.619 0.6953-3.4824 1.5566-0.86337 0.86134-1.3191 2.0395-1.5586 3.4805-0.23953 1.441-0.28629 3.1953-0.27539 5.4238v12.746 12.752c-0.0108 2.2251 0.0361 3.9785 0.27539 5.418 0.23953 1.441 0.69522 2.6191 1.5586 3.4805 0.86338 0.86134 2.042 1.3149 3.4824 1.5566 1.4404 0.24179 3.1909 0.29297 5.4141 0.29297h17.539c2.2232 0 3.9728-0.0511 5.4102-0.29297 1.4374-0.24189 2.6125-0.69694 3.4726-1.5586 0.8602-0.86165 1.3132-2.0389 1.5547-3.4785 0.24149-1.4396 0.29297-3.1904 0.29297-5.418v-12.752-12.752c0-2.2276-0.0515-3.9784-0.29297-5.418-0.24149-1.4396-0.69449-2.6169-1.5547-3.4785-0.86019-0.86165-2.0352-1.3167-3.4726-1.5586-1.4374-0.24189-3.187-0.29297-5.4102-0.29297z" color="#000000" color-rendering="auto" dominant-baseline="auto" image-rendering="auto" opacity=".1" shape-rendering="auto" solid-color="#000000" style="font-feature-settings:normal;font-variant-alternates:normal;font-variant-caps:normal;font-variant-ligatures:normal;font-variant-numeric:normal;font-variant-position:normal;isolation:auto;mix-blend-mode:normal;shape-padding:0;text-decoration-color:#000000;text-decoration-line:none;text-decoration-style:solid;text-indent:0;text-orientation:mixed;text-transform:none;white-space:normal"/>
 <path d="m15.233 1.5c-8.2315 0-9.7736 0.90635-9.7304 9.7484v12.752 12.752c-0.0433 8.842 1.4989 9.7484 9.7304 9.7484h17.539c8.2295 0 9.7304-0.90625 9.7304-9.7484v-12.752-12.752c0-8.8421-1.5009-9.7484-9.7304-9.7484z" color="#000000" fill="url(#linearGradient3194)"/>
 <path d="m15.233 1.5c-8.2315 0-9.7736 0.90635-9.7304 9.7484v12.752 12.752c-0.0433 8.842 1.4989 9.7484 9.7304 9.7484h17.539c8.2295 0 9.7304-0.90625 9.7304-9.7484v-12.752-12.752c0-8.8421-1.5009-9.7484-9.7304-9.7484z" color="#000000" fill="none" opacity=".4" stroke="#000"/>
 <path transform="translate(-320 -60)" d="m335.73 62c-8.8242 0-9.7736 0.90635-9.7304 9.7484v12.252 12.252c-0.0433 8.842 0.90622 9.7484 9.7304 9.7484h16.539c8.8242 0 9.7304-0.90625 9.7304-9.7484v-12.252-12.252c0-8.8421-0.90622-9.7484-9.7304-9.7484z" clip-path="url(#clipPath994)" color="#000000" fill="none" opacity=".4" stroke="url(#linearGradient1004)" stroke-width="2"/>
 <path d="m12.001 1.5898c-5.407 0.36231-6.5349 2.1326-6.498 9.6582v25.504c-0.0369 7.5256 1.091 9.2959 6.498 9.6582z" enable-background="new" opacity=".15"/>
 <path d="m5.5028 24v12.752c-0.021 4.2865 0.3388 6.6974 1.6445 8.0547 2.2016 0.52529 5.0856 0.69336 8.9219 0.69336h15.863c3.8248 0 6.7031-0.166 8.9023-0.6875 1.3054-1.3563 1.666-3.7682 1.666-8.0606v-12.752z" enable-background="new" fill="#fff" opacity=".03"/>
 <path d="m33.367 28.924c-0.77687 0-1.4449 0.0541-2.0042 0.16291-0.54381 0.10876-0.94783 0.22526-1.212 0.34955l0.20967 1.3285c0.20199-0.0777 0.52049-0.1785 0.95555-0.30281 0.43504-0.12429 1.0956-0.18665 1.9812-0.18665 0.62149 0 1.1185 0.10114 1.4914 0.30318 0.38844 0.18645 0.6838 0.44297 0.88578 0.76926 0.21753 0.31074 0.35719 0.66808 0.41933 1.0721 0.0621 0.38843 0.0931 0.79207 0.0931 1.2116v0.74587c-0.0622-0.0311-0.17865-0.062-0.34957-0.0931-0.15537-0.0466-0.34954-0.0855-0.5826-0.11651-0.21752-0.0466-0.45052-0.0776-0.69913-0.0931-0.23305-0.0311-0.45821-0.0467-0.67574-0.0467-0.73026 0-1.4061 0.0699-2.0276 0.20966-0.62149 0.13984-1.1577 0.36537-1.6083 0.67612-0.45059 0.29521-0.80009 0.67571-1.0487 1.1418-0.2486 0.46613-0.37294 1.0255-0.37294 1.678 0 0.68364 0.10865 1.2665 0.32618 1.7482 0.23306 0.46612 0.54373 0.85446 0.93217 1.1652 0.40397 0.29521 0.87034 0.51252 1.3986 0.65236 0.5438 0.13984 1.1342 0.21004 1.7712 0.21004 0.49719 0 0.97888-0.0236 1.445-0.0702 0.48166-0.0311 0.91667-0.0778 1.3051-0.13991 0.38843-0.0621 0.73009-0.11629 1.0253-0.1629 0.29521-0.0621 0.52075-0.11667 0.67612-0.16327v-7.5976c0-0.63704-0.0777-1.2278-0.23304-1.7716-0.15538-0.54381-0.40406-1.0098-0.74588-1.3982-0.34182-0.40397-0.79252-0.71464-1.3519-0.93216-0.5438-0.23307-1.2118-0.34957-2.0042-0.34957zm0.46608 6.409c0.65257 0 1.1652 0.0467 1.5382 0.13989 0.37289 0.0777 0.64474 0.15536 0.81564 0.23305v4.2419c-0.31075 0.0621-0.69124 0.11629-1.1418 0.16291-0.43506 0.0311-0.94773 0.0467-1.5382 0.0467-0.48166 0-0.91667-0.0388-1.3051-0.11653-0.37289-0.0932-0.69925-0.23323-0.97892-0.41968-0.26413-0.18645-0.47398-0.43477-0.62936-0.74552-0.13983-0.31074-0.20967-0.69161-0.20967-1.1422 0-0.51274 0.10867-0.9246 0.32619-1.2354 0.21753-0.31074 0.4972-0.55122 0.83902-0.72213 0.34183-0.18645 0.71485-0.30332 1.1188-0.34993 0.40397-0.0621 0.7923-0.0931 1.1652-0.0931z" enable-background="new" fill="#fa9381"/>
</svg>
