<svg id="SVGRoot" width="48" height="48" version="1.1" viewBox="0 0 48 48" xmlns="http://www.w3.org/2000/svg" xmlns:xlink="http://www.w3.org/1999/xlink">
 <defs>
  <linearGradient id="linearGradient887" x1="322" x2="366" y1="84" y2="84" gradientTransform="rotate(90 214 -106)" gradientUnits="userSpaceOnUse">
   <stop stop-color="#fff" offset="0"/>
   <stop stop-color="#fff" stop-opacity=".098039" offset=".125"/>
   <stop stop-color="#fff" stop-opacity=".098039" offset=".925"/>
   <stop stop-color="#fff" stop-opacity=".49804" offset="1"/>
  </linearGradient>
  <linearGradient id="linearGradient889" x1="320" x2="368" y1="108" y2="108" gradientTransform="rotate(90 214 -106)" gradientUnits="userSpaceOnUse">
   <stop stop-color="#fff" offset="0"/>
   <stop stop-color="#fff" offset="1"/>
  </linearGradient>
 </defs>
 <path d="m13.658 2c-2.6221 0-4.6867 0.05009-6.3856 0.28674-1.6989 0.23664-3.089 0.6805-4.1074 1.5235-1.0183 0.84301-1.5558 1.9961-1.8383 3.4064-0.28252 1.4103-0.33767 3.1273-0.32482 5.3084v12.475 12.481c-0.0127 2.1777 0.0426 3.8939 0.32482 5.3027 0.28251 1.4103 0.81998 2.5634 1.8383 3.4064 1.0183 0.84301 2.4085 1.2869 4.1074 1.5235 1.6989 0.23665 3.7635 0.28674 6.3856 0.28674h20.686c2.6221 0 4.6857-0.05 6.381-0.28674 1.6953-0.23674 3.0813-0.6821 4.0958-1.5254 1.0146-0.84331 1.5488-1.9956 1.8337-3.4045 0.28483-1.4089 0.34554-3.1225 0.34554-5.3027v-12.481-12.481c0-2.1802-0.0608-3.8937-0.34554-5.3027-0.28482-1.4089-0.81911-2.5612-1.8337-3.4045-1.0146-0.84332-2.4005-1.2887-4.0958-1.5254-1.6953-0.23674-3.7589-0.28674-6.381-0.28674z" color="#000000" color-rendering="auto" dominant-baseline="auto" image-rendering="auto" opacity=".1" shape-rendering="auto" solid-color="#000000" style="font-feature-settings:normal;font-variant-alternates:normal;font-variant-caps:normal;font-variant-ligatures:normal;font-variant-numeric:normal;font-variant-position:normal;isolation:auto;mix-blend-mode:normal;shape-padding:0;text-decoration-color:#000000;text-decoration-line:none;text-decoration-style:solid;text-indent:0;text-orientation:mixed;text-transform:none;white-space:normal"/>
 <path d="m13.335 1.5c-10.011 0-11.887 0.90635-11.834 9.7484v12.752 12.752c-0.0527 8.842 1.8229 9.7484 11.834 9.7484h21.331c10.009 0 11.834-0.90625 11.834-9.7484v-12.752-12.752c0-8.8421-1.8254-9.7484-11.834-9.7484z" color="#000000" fill="url(#linearGradient889)"/>
 <path d="m30.633 20.889c0 0.95298 0.0342 1.9002-0.0114 2.8532-0.0456 1.0842 0.28534 2.0143 0.97007 2.836 0.0799 0.09701 0.15411 0.19402 0.22252 0.29675 0.24543 0.37094 0.19974 0.62769-0.13692 0.91303-0.71906 0.60491-1.4323 1.2155-2.1513 1.8204-0.42799 0.35948-0.6962 0.3538-1.1299 0-0.58204-0.47363-1.0386-1.0557-1.4437-1.6777-0.097-0.14833-0.14838-0.14265-0.2682-0.02855-0.71906 0.70187-1.478 1.3524-2.4423 1.6777-1.4894 0.50786-3.0016 0.58778-4.4967 0.05705-1.438-0.51359-2.2997-1.575-2.6192-3.0529-0.35381-1.6492-0.1712-3.2184 0.84452-4.6165 0.77038-1.0557 1.8375-1.6777 3.0643-2.06 1.2668-0.38803 2.5736-0.53641 3.886-0.66764 0.37094-0.03996 0.73615-0.07419 1.107-0.10842 0.0913-0.0057 0.17119-0.01714 0.16546-0.13697-0.0114-0.60486 0.0514-1.2212-0.0913-1.8146-0.1826-0.75892-0.6791-1.204-1.438-1.3696-0.54209-0.11983-1.0785-0.0856-1.6035 0.09133-0.79888 0.27388-1.2954 0.82743-1.4951 1.6491-0.10842 0.45081-0.31957 0.61059-0.75897 0.56491-0.93585-0.09701-1.8717-0.19402-2.8018-0.29102-0.38235-0.03996-0.58205-0.33098-0.50218-0.70192 0.48504-2.3681 2.0372-3.6977 4.2741-4.3083 1.7176-0.4679 3.4581-0.49645 5.1814-0.01141 1.3867 0.38803 2.5508 1.0728 3.2013 2.4309 0.37094 0.77038 0.45654 1.6035 0.46795 2.4366 0.0114 1.0672 0 2.1457 6e-3 3.2185-6e-3 0 0 0 0 0zm-4.4396 1.7804c0-0.28534-0.0114-0.57064 6e-3 -0.85598 0.0114-0.17692-0.0514-0.2397-0.22825-0.22256-0.43371 0.03991-0.87306 0.04564-1.3068 0.10269-0.75892 0.09701-1.5008 0.28534-2.1171 0.76465-0.89593 0.70192-1.0842 1.6606-0.93589 2.7391 0.17692 1.2668 1.3068 1.9687 2.5166 1.5464 0.8217-0.28534 1.3238-0.89016 1.672-1.6492 0.36521-0.77028 0.39376-1.5977 0.39376-2.4251z" enable-background="new" fill="#050606" stroke-width=".26222"/>
 <path d="m24.082 35.549c-4.354-0.02855-8.2629-1.147-11.795-3.5037-0.71901-0.47936-1.4038-1.0044-2.0543-1.5807-0.0571-0.05137-0.11415-0.10269-0.15978-0.16551-0.0628-0.0856-0.10842-0.18829-0.0342-0.29102 0.0742-0.11415 0.19974-0.12556 0.30816-0.07419 0.25106 0.11983 0.49076 0.25106 0.7361 0.37662 2.2484 1.1869 4.6165 2.0429 7.0988 2.585 2.2483 0.49077 4.5194 0.71906 6.8249 0.65623 3.2926-0.09128 6.4654-0.75324 9.5183-1.9802 0.14838-0.06273 0.30248-0.12551 0.45654-0.15978 0.21688-0.03996 0.43372-0.01141 0.53073 0.22256 0.0913 0.21684-0.0285 0.38803-0.18834 0.525-0.11414 0.09696-0.24538 0.17688-0.37662 0.26247-1.9687 1.2782-4.1257 2.0999-6.4083 2.6078-1.5065 0.34249-3.0358 0.5079-4.4568 0.51936z" enable-background="new" fill="#f6a61f" stroke-width=".26222"/>
 <path d="m35.067 30.464c-0.65623-0.0057-1.3067 0.07987-1.9573 0.14833-0.12556 0.01141-0.26821 0.04564-0.32526-0.09128-0.0684-0.1541 0.0628-0.24538 0.1712-0.31957 0.81034-0.53636 1.7176-0.74751 2.6706-0.79888 0.65624-0.03991 1.3067-0.01136 1.9459 0.18261 0.29103 0.0856 0.43367 0.25679 0.42799 0.55354-0.0342 1.5864-0.56495 2.9673-1.7119 4.0915-0.04 0.03996-0.0856 0.07419-0.13124 0.10842-0.10269 0.07424-0.22825 0.14265-0.33671 0.05137-0.10269-0.0856-0.0456-0.21115 0-0.31384 0.33671-0.83884 0.6791-1.6719 0.84452-2.5679 0.0229-0.11415 0.0286-0.22824 0.0343-0.33671 6e-3 -0.37094-0.12556-0.53068-0.49077-0.62196-0.38235-0.10278-0.7647-0.08565-1.1413-0.08565z" enable-background="new" fill="#f6a61f" stroke-width=".26222"/>
 <path d="m13.335 1.5c-10.011 0-11.887 0.90635-11.834 9.7484v12.752 12.752c-0.0527 8.842 1.8229 9.7484 11.834 9.7484h21.331c10.009 0 11.834-0.90625 11.834-9.7484v-12.752-12.752c0-8.8421-1.8254-9.7484-11.834-9.7484z" color="#000000" fill="none" opacity=".4" stroke="#000"/>
 <path d="m13.336 2c-4.9905 0-7.8705 0.27628-9.3848 1.4531-0.75713 0.58842-1.2376 1.4035-1.5449 2.6602-0.3073 1.2566-0.4173 2.94-0.4043 5.1328v12.754 12.754c-0.0131 2.1928 0.097 3.8762 0.4043 5.1328 0.30731 1.2566 0.78779 2.0717 1.5449 2.6602 1.5143 1.1768 4.3943 1.4531 9.3848 1.4531h21.33c4.9892 0 7.855-0.27668 9.3633-1.4531 0.75412-0.58824 1.2329-1.4046 1.543-2.6621 0.31003-1.2575 0.42773-2.9395 0.42773-5.1328v-12.752-12.752c0-2.1933-0.1177-3.8753-0.42773-5.1328-0.31004-1.2575-0.78884-2.0739-1.543-2.6621-1.5083-1.1765-4.374-1.4531-9.3633-1.4531zm2.4023 1.0977c6.9474 8.3e-4 13.911 0.0034 20.85 0.05469 2.143 0.08293 4.4643-0.1477 6.4238 0.93164 1.2961 0.69523 1.5486 2.2503 1.7695 3.5645 0.17551 2.2029 0.0915 4.4422 0.13867 6.6699 0.0227 8.4795 0.077 16.969-0.0801 25.447-0.16151 1.4832-0.38135 3.3058-1.7988 4.1426-1.6055 0.82871-3.4755 0.90643-5.248 0.95313-9.4997 0.0678-19.024 0.0843-28.523-0.0176-1.5782-0.11413-3.2705-0.24014-4.6328-1.1211-1.2295-0.99538-1.3608-2.7274-1.5039-4.1934-0.1272-8.9986-0.0836-18.004-0.0527-27.008 0.0997-2.3813-0.24538-4.9 0.70508-7.1602 0.67165-1.5097 2.4657-1.86 3.9394-2.0566 2.6617-0.31658 5.3418-0.14702 8.0137-0.20703z" color="#000000" fill="url(#linearGradient887)"/>
</svg>
