<svg width="48" height="48" version="1" xmlns="http://www.w3.org/2000/svg">
 <defs>
  <linearGradient id="linearGradient938" x1="335.23" x2="352.27" y1="61.5" y2="106" gradientTransform="translate(-319.5 -60)" gradientUnits="userSpaceOnUse">
   <stop stop-color="#76c22b" offset="0"/>
   <stop stop-color="#a6d74f" offset="1"/>
  </linearGradient>
  <linearGradient id="linearGradient1004" x1="344" x2="344" y1="62" y2="106" gradientUnits="userSpaceOnUse">
   <stop stop-color="#fff" offset="0"/>
   <stop stop-color="#fff" stop-opacity=".098039" offset=".125"/>
   <stop stop-color="#fff" stop-opacity=".098039" offset=".925"/>
   <stop stop-color="#fff" stop-opacity=".49804" offset="1"/>
  </linearGradient>
  <clipPath id="clipPath994-5">
   <path d="m335.73 62c-8.8242 0-9.7736 0.90635-9.7304 9.7484v24.504c-0.0433 8.842 0.90622 9.7484 9.7304 9.7484h16.539c8.8242 0 9.7304-0.90625 9.7304-9.7484v-24.504c0-8.8421-0.90622-9.7484-9.7304-9.7484z" color="#000000" fill="#cdcdcd"/>
  </clipPath>
 </defs>
 <path d="m15.733 1.5c-8.2315 0-9.7736 0.90635-9.7304 9.7484v25.504c-0.0433 8.842 1.4989 9.7484 9.7304 9.7484h17.539c8.2295 0 9.7304-0.90625 9.7304-9.7484v-25.504c0-8.8421-1.5009-9.7484-9.7304-9.7484z" color="#000000" fill="url(#linearGradient938)"/>
 <path d="m15.732 1.5c-2.2232 0-3.9737 0.05118-5.4141 0.29297-1.4404 0.24178-2.619 0.6953-3.4824 1.5566-0.86337 0.86134-1.3191 2.0395-1.5586 3.4805-0.23953 1.441-0.28629 3.1953-0.27539 5.4238v25.498c-0.0108 2.2251 0.0361 3.9785 0.27539 5.418 0.23953 1.441 0.69522 2.6191 1.5586 3.4805 0.86338 0.86134 2.042 1.3149 3.4824 1.5566 1.4404 0.24179 3.1909 0.29297 5.4141 0.29297h17.539c2.2232 0 3.9728-0.0511 5.4102-0.29297 1.4374-0.24189 2.6125-0.69694 3.4726-1.5586 0.8602-0.86165 1.3132-2.0389 1.5547-3.4785 0.24149-1.4396 0.29297-3.1904 0.29297-5.418v-25.504c0-2.2276-0.0515-3.9784-0.29297-5.418-0.24149-1.4396-0.69449-2.6169-1.5547-3.4785-0.86019-0.86165-2.0352-1.3167-3.4726-1.5586-1.4374-0.24189-3.187-0.29297-5.4102-0.29297z" color="#000000" color-rendering="auto" dominant-baseline="auto" image-rendering="auto" opacity=".1" shape-rendering="auto" solid-color="#000000" style="font-feature-settings:normal;font-variant-alternates:normal;font-variant-caps:normal;font-variant-ligatures:normal;font-variant-numeric:normal;font-variant-position:normal;isolation:auto;mix-blend-mode:normal;shape-padding:0;text-decoration-color:#000000;text-decoration-line:none;text-decoration-style:solid;text-indent:0;text-orientation:mixed;text-transform:none;white-space:normal"/>
 <g transform="translate(-319,-60)" enable-background="new">
  <path d="m342.46 89.144c-0.0885-0.88788-0.62071-1.2606-2.6536-1.8583-1.3506-0.39711-1.5944-0.48517-2.2806-0.82377-0.5675-0.28003-0.68655-0.36305-1.0774-0.7514-0.35362-0.35134-0.48088-0.52131-0.65168-0.87043-0.31284-0.63945-0.36329-0.99128-0.36472-2.5437l-1e-3 -1.3098-0.20759-0.15311c-0.9531-0.70302-1.0512-2.1888-0.20074-3.0393 0.91934-0.91934 2.4482-0.7529 3.1491 0.34285 0.5224 0.81664 0.37173 1.9452-0.34582 2.5904-0.14295 0.12852-0.28262 0.23368-0.31039 0.23368-0.0325 0-0.0434 0.47723-0.0307 1.3398 0.0188 1.2791 0.0251 1.3508 0.13883 1.5836 0.23385 0.47869 0.77359 0.79474 2.0205 1.1831 1.5842 0.49344 2.3552 0.75189 2.5902 0.86822l0.24244 0.12001v-11.832h-0.99527c-0.57226 0-0.99526-0.01998-0.99526-0.04698 0-0.086 2.9593-4.9804 3.0113-4.9804s3.0113 4.8944 3.0113 4.9804c0 0.02707-0.423 0.04698-0.99527 0.04698h-0.99527v8.9336l0.24244-0.12264c0.39368-0.19915 1.2361-0.4671 2.4936-0.79313 2.1762-0.56422 2.8438-0.87529 3.1112-1.4496 0.11874-0.25503 0.12336-0.3073 0.12384-1.4005l4.1e-4 -1.1356h-0.96977v-4.0832h4.0321v4.0832h-0.95752l-0.0256 1.2887c-0.0194 0.97446-0.046 1.3619-0.10924 1.5887-0.27291 0.97878-0.9969 1.7701-2.0801 2.2735-0.60731 0.28224-1.1787 0.4667-2.539 0.81972-2.1797 0.56562-2.8238 0.85467-3.1532 1.4152l-0.14377 0.24458-0.0304 3.5218-5e-3 0.7562c-1.3817 1.6909-1.8876 0.59176-2.0483-1.0203z" opacity=".1" stroke-width="3.7797"/>
  <g transform="matrix(.22649 0 0 .22649 335.83 34.644)" opacity=".1" stroke-width="6.13">
   <path d="m15.221 259.2c-1.6268 0-2.9365 1.1218-2.9365 2.5175v12.585c0 1.3938 1.3097 2.5156 2.9365 2.5156s2.9365-1.1217 2.9365-2.5175v-12.584c0-1.3958-1.3097-2.5175-2.9365-2.5175z"/>
   <path transform="matrix(.26458 0 0 .26458 0 229.27)" d="m97.934 27.83c-0.3271 0.01923-0.65837 0.07121-0.98828 0.16211-2.6396 0.70752-4.1936 3.4014-3.4863 6.041l6.2324 23.256c-31.035 14.902-31.061 53.385-31.061 53.385v62.805c0 11.661 8.799 21.051 19.732 21.051h9.8633v19.732c0 5.4605 5.6314 9.8633 11.092 9.8633 5.4678 0 11.1-4.4028 11.1-9.8633v-19.73h14.797v19.73c-8e-3 5.4605 5.6318 9.8633 11.1 9.8633 5.4604 0 11.098-4.4028 11.098-9.8633v-19.732h9.8672c10.936 0 19.732-9.3902 19.732-21.051v-62.805s-0.0275-38.479-31.07-53.381l6.2305-23.26c0.71027-2.64-0.84289-5.3336-3.4844-6.041-2.6414-0.70749-5.3346 0.84839-6.0449 3.4883l-5.9863 22.369c-5.5048-1.5004-11.735-2.3691-18.838-2.3691-7.1034 0-13.333 0.87077-18.834 2.3711l-5.9863-22.373c-0.53271-1.9792-2.1829-3.3486-4.0918-3.6113h-0.0039c-0.3174-0.04195-0.64165-0.05634-0.96875-0.03711zm0.28711 48.312a7.3989 7.3989 0 0 1 7.3984 7.3984 7.3989 7.3989 0 0 1-7.3984 7.3984 7.3989 7.3989 0 0 1-7.3984-7.3984 7.3989 7.3989 0 0 1 7.3984-7.3984zm59.191 0a7.3989 7.3989 0 0 1 7.3984 7.3984 7.3989 7.3989 0 0 1-7.3984 7.3984 7.3989 7.3989 0 0 1-7.3984-7.3984 7.3989 7.3989 0 0 1 7.3984-7.3984zm-71.77 29.596h84.348c1.2297 0 2.2207 1.6497 2.2207 3.6992s-0.991 3.6992-2.2207 3.6992h-84.348c-1.2282 0-2.2207-1.6497-2.2207-3.6992s0.99248-3.6992 2.2207-3.6992z"/>
   <path d="m52.416 259.2c-1.6268 0-2.9365 1.1218-2.9365 2.5175v12.585c0 1.3938 1.3097 2.5156 2.9365 2.5156s2.9365-1.1217 2.9365-2.5175v-12.585c0-1.3938-1.3097-2.5156-2.9365-2.5156z"/>
  </g>
  <g transform="matrix(.20536 0 0 .20536 312.79 51.562)" fill="#f9f9f9">
   <path d="m144.51 178.14c-0.43086-4.3236-3.0226-6.1386-12.922-9.0492-6.577-1.9338-7.7643-2.3626-11.106-4.0114-2.7635-1.3636-3.3432-1.7679-5.2466-3.659-1.722-1.7108-2.3417-2.5386-3.1734-4.2386-1.5234-3.1138-1.769-4.8271-1.776-12.387l-6e-3 -6.3781-1.0109-0.74559c-4.6412-3.4234-5.1191-10.658-0.97754-14.8 4.4768-4.4768 11.921-3.6663 15.335 1.6695 2.5438 3.9767 1.8102 9.4723-1.684 12.614-0.6961 0.62582-1.3762 1.1379-1.5114 1.1379-0.15826 0-0.21159 2.3239-0.14976 6.5242 0.0917 6.2284 0.12232 6.578 0.67606 7.7115 1.1387 2.331 3.767 3.87 9.8392 5.7613 7.7143 2.4028 11.469 3.6614 12.613 4.2278l1.1806 0.58439v-57.617h-4.8465c-2.7867 0-4.8465-0.0973-4.8465-0.22879 0-0.4188 14.411-24.252 14.664-24.252 0.25324 0 14.664 23.834 14.664 24.252 0 0.13181-2.0598 0.22879-4.8465 0.22879h-4.8465v43.503l1.1806-0.59718c1.917-0.96979 6.0193-2.2746 12.143-3.8622 10.597-2.7475 13.848-4.2623 15.15-7.0588 0.57821-1.2419 0.60071-1.4964 0.60306-6.82l2e-3 -5.53h-4.7224v-19.883h19.635v19.883h-4.6627l-0.1247 6.2756c-0.0943 4.7452-0.22402 6.6318-0.53191 7.7361-1.329 4.7662-4.8545 8.6195-10.129 11.071-2.9573 1.3744-5.7396 2.2726-12.364 3.9917-10.614 2.7543-13.75 4.1619-15.355 6.8914l-0.7001 1.191-0.0742 8.5747-0.0742 8.5746-0.0237 3.6824c-6.7281 8.234-9.1918 2.8816-9.9741-4.9685z" stroke-width="18.406"/>
   <g transform="matrix(1.1029,0,0,1.1029,112.23,-87.256)" stroke-width="6.13">
    <path d="m15.221 259.2c-1.6268 0-2.9365 1.1218-2.9365 2.5175v12.585c0 1.3938 1.3097 2.5156 2.9365 2.5156s2.9365-1.1217 2.9365-2.5175v-12.584c0-1.3958-1.3097-2.5175-2.9365-2.5175z"/>
    <path transform="matrix(.26458 0 0 .26458 0 229.27)" d="m97.934 27.83c-0.3271 0.01923-0.65837 0.07121-0.98828 0.16211-2.6396 0.70752-4.1936 3.4014-3.4863 6.041l6.2324 23.256c-31.035 14.902-31.061 53.385-31.061 53.385v62.805c0 11.661 8.799 21.051 19.732 21.051h9.8633v19.732c0 5.4605 5.6314 9.8633 11.092 9.8633 5.4678 0 11.1-4.4028 11.1-9.8633v-19.73h14.797v19.73c-8e-3 5.4605 5.6318 9.8633 11.1 9.8633 5.4604 0 11.098-4.4028 11.098-9.8633v-19.732h9.8672c10.936 0 19.732-9.3902 19.732-21.051v-62.805s-0.0275-38.479-31.07-53.381l6.2305-23.26c0.71027-2.64-0.84289-5.3336-3.4844-6.041-2.6414-0.70749-5.3346 0.84839-6.0449 3.4883l-5.9863 22.369c-5.5048-1.5004-11.735-2.3691-18.838-2.3691-7.1034 0-13.333 0.87077-18.834 2.3711l-5.9863-22.373c-0.53271-1.9792-2.1829-3.3486-4.0918-3.6113h-0.0039c-0.3174-0.04195-0.64165-0.05634-0.96875-0.03711zm0.28711 48.312a7.3989 7.3989 0 0 1 7.3984 7.3984 7.3989 7.3989 0 0 1-7.3984 7.3984 7.3989 7.3989 0 0 1-7.3984-7.3984 7.3989 7.3989 0 0 1 7.3984-7.3984zm59.191 0a7.3989 7.3989 0 0 1 7.3984 7.3984 7.3989 7.3989 0 0 1-7.3984 7.3984 7.3989 7.3989 0 0 1-7.3984-7.3984 7.3989 7.3989 0 0 1 7.3984-7.3984zm-71.77 29.596h84.348c1.2297 0 2.2207 1.6497 2.2207 3.6992s-0.991 3.6992-2.2207 3.6992h-84.348c-1.2282 0-2.2207-1.6497-2.2207-3.6992s0.99248-3.6992 2.2207-3.6992z"/>
    <path d="m52.416 259.2c-1.6268 0-2.9365 1.1218-2.9365 2.5175v12.585c0 1.3938 1.3097 2.5156 2.9365 2.5156s2.9365-1.1217 2.9365-2.5175v-12.585c0-1.3938-1.3097-2.5156-2.9365-2.5156z"/>
   </g>
  </g>
 </g>
 <path d="m15.733 1.5c-8.2315 0-9.7736 0.90635-9.7304 9.7484v25.504c-0.0433 8.842 1.4989 9.7484 9.7304 9.7484h17.539c8.2295 0 9.7304-0.90625 9.7304-9.7484v-25.504c0-8.8421-1.5009-9.7484-9.7304-9.7484z" color="#000000" fill="none" opacity=".4" stroke="#000"/>
 <path transform="translate(-319.5 -60)" d="m335.73 62c-8.8242 0-9.7736 0.90635-9.7304 9.7484v24.504c-0.0433 8.842 0.90622 9.7484 9.7304 9.7484h16.539c8.8242 0 9.7304-0.90625 9.7304-9.7484v-24.504c0-8.8421-0.90622-9.7484-9.7304-9.7484z" clip-path="url(#clipPath994-5)" color="#000000" fill="none" opacity=".7" stroke="url(#linearGradient1004)" stroke-width="2"/>
 <path d="m24.501 1.5v45h8.7715c8.2295 0 9.7285-0.90592 9.7285-9.748v-25.504c0-8.8421-1.501-9.748-9.7305-9.748z" enable-background="new" fill="#fff" opacity=".1"/>
 <path d="m6.5023 24v12.252c-0.0433 8.842 0.90629 9.748 9.7305 9.748h16.539c8.8242 0 9.7305-0.90592 9.7305-9.748v-12.252z" color="#000000" fill="#fff" opacity=".08"/>
</svg>
