<svg width="48" height="48" version="1" xmlns="http://www.w3.org/2000/svg" xmlns:xlink="http://www.w3.org/1999/xlink">
 <defs>
  <linearGradient id="linearGradient1686" x1="321" x2="367" y1="92" y2="76" gradientTransform="rotate(90 214 -106)" gradientUnits="userSpaceOnUse">
   <stop stop-color="#f7f7f7" offset="0"/>
   <stop stop-color="#f7f7f7" offset="1"/>
  </linearGradient>
  <filter id="filter915-7" x="-.04" y="-.05" width="1.089" height="1.104" color-interpolation-filters="sRGB">
   <feGaussianBlur stdDeviation=".982"/>
  </filter>
  <filter id="filter194" x="-.020441" y="-.020359" width="1.0409" height="1.0407" color-interpolation-filters="sRGB">
   <feFlood flood-color="rgb(0,0,0)" flood-opacity=".49804" result="flood"/>
   <feComposite in="flood" in2="SourceGraphic" operator="in" result="composite1"/>
   <feGaussianBlur in="composite1" result="blur" stdDeviation="1.0220649"/>
   <feOffset dx="0" dy="2" result="offset"/>
   <feComposite in="SourceGraphic" in2="offset" result="composite2"/>
  </filter>
  <linearGradient id="linearGradient1686-0" x1="322" x2="366" y1="84" y2="84" gradientTransform="rotate(90 214 -106)" gradientUnits="userSpaceOnUse">
   <stop stop-color="#fff" offset="0"/>
   <stop stop-color="#fff" stop-opacity=".098039" offset=".125"/>
   <stop stop-color="#fff" stop-opacity=".098039" offset=".925"/>
   <stop stop-color="#fff" stop-opacity=".49804" offset="1"/>
  </linearGradient>
 </defs>
 <path d="m13.658 2c-2.6221 0-4.6868 0.05009-6.3856 0.28674-1.6989 0.23664-3.089 0.6805-4.1074 1.5235-1.0183 0.84301-1.5558 1.9961-1.8383 3.4064-0.28252 1.4103-0.33767 3.1273-0.32482 5.3084v12.475 12.481c-0.0127 2.1777 0.0426 3.8939 0.32482 5.3027 0.28251 1.4103 0.81998 2.5634 1.8383 3.4064 1.0183 0.84301 2.4085 1.2869 4.1074 1.5235 1.6989 0.23665 3.7635 0.28674 6.3856 0.28674h20.686c2.6221 0 4.6857-0.05 6.381-0.28674 1.6953-0.23674 3.0813-0.6821 4.0958-1.5254 1.0146-0.84331 1.5488-1.9956 1.8337-3.4045 0.28483-1.4089 0.34554-3.1225 0.34554-5.3027v-12.481-12.481c0-2.1802-0.0608-3.8937-0.34554-5.3027-0.28482-1.4089-0.81911-2.5612-1.8337-3.4045-1.0146-0.84332-2.4005-1.2887-4.0958-1.5254-1.6953-0.23674-3.7589-0.28674-6.381-0.28674z" color="#000000" color-rendering="auto" dominant-baseline="auto" image-rendering="auto" opacity=".1" shape-rendering="auto" solid-color="#000000" style="font-feature-settings:normal;font-variant-alternates:normal;font-variant-caps:normal;font-variant-ligatures:normal;font-variant-numeric:normal;font-variant-position:normal;isolation:auto;mix-blend-mode:normal;shape-padding:0;text-decoration-color:#000000;text-decoration-line:none;text-decoration-style:solid;text-indent:0;text-orientation:mixed;text-transform:none;white-space:normal"/>
 <path d="m13.335 1.5c-10.011 0-11.887 0.90635-11.834 9.7484v12.752 12.752c-0.0527 8.842 1.8229 9.7484 11.834 9.7484h21.331c10.009 0 11.834-0.90625 11.834-9.7484v-12.752-12.752c0-8.8421-1.8254-9.7484-11.834-9.7484z" color="#000000" fill="url(#linearGradient1686)"/>
 <g transform="matrix(.75932 0 0 .75932 -53.116 -3.255)" enable-background="new" stroke-width="4.9778">
  <path d="m74.874 13.134v41.561c0 3.7782 3.7782 3.7782 3.7782 3.7782h49.117zm9.4456 20.537 17.913 15.357h-17.913z" fill="#010101" filter="url(#filter915-7)" opacity=".3"/>
  <path d="m75.403 13.134v41.561c0 3.7782 3.7782 3.7782 3.7782 3.7782h49.117zm9.4456 20.537 17.913 15.357h-17.913z" fill="#6ebc2a"/>
 </g>
 <path d="m24.297 19.03-3.0888 1.7833 9.8087 16.989 3.3278 2.1972-0.23899-3.9807z" enable-background="new" opacity=".1" stroke-width="1.1379" style="isolation:isolate"/>
 <path d="m21.18 19.03 3.089 1.7833-9.8087 16.989-3.328 2.1972 0.23898-3.9807z" enable-background="new" opacity=".1" stroke-width="1.1379" style="isolation:isolate"/>
 <path d="m20.879 10.482v3.6898h-1.8448c-1.845 0-1.845 1.7733-1.845 1.7733v7.3404l3.6898 3.6249c1.2257 0.97299 2.553 1.1322 3.69 0l3.6898-3.6249v-7.3404c0-1.8126-1.845-1.7733-1.845-1.7733h-1.8448v-3.6898z" enable-background="new" opacity=".1" stroke-width="1.1379" style="isolation:isolate"/>
 <path d="m33.157 21.551c0.0133 0.2047 0.0206 0.40981 0.0216 0.61493 0 5.7739-4.6806 10.455-10.454 10.455-1.9836 0-3.9013-0.569-5.5449-1.601-0.91314-0.57336-0.51143-0.01476-1.2197-0.8589l-1.2298 3.6561c2.3521 1.6191 5.1391 2.4884 7.9944 2.4936 7.8116 0 14.144-6.3325 14.144-14.144-6e-3 -0.20512-0.0162-0.41023-0.0312-0.61493z" enable-background="new" opacity=".1" stroke-width="1.1379" style="isolation:isolate"/>
 <rect transform="matrix(0 .20089 -.20089 0 -6.5349 -6.7902)" x="96.353" y="-211.89" width="119.89" height="119.89" color="#000000" fill="none" filter="url(#filter194)"/>
 <path d="m24.297 18.03-3.0888 1.7833 9.8087 16.989 3.3278 2.1972-0.23899-3.9807z" enable-background="new" fill="#e4e4e4" stroke-width="1.1379" style="isolation:isolate"/>
 <path d="m21.18 18.03 3.089 1.7833-9.8087 16.989-3.328 2.1972 0.23898-3.9807z" enable-background="new" fill="#fff" stroke-width="1.1379" style="isolation:isolate"/>
 <path d="m20.879 9.4817v3.6898h-1.8448c-1.845 0-1.845 1.7733-1.845 1.7733v7.3404l3.6898 3.6249c1.2257 0.97299 2.553 1.1322 3.69 0l3.6898-3.6249v-7.3404c0-1.8126-1.845-1.7733-1.845-1.7733h-1.8448v-3.6898z" enable-background="new" fill="#4f4f4f" stroke-width="1.1379" style="isolation:isolate"/>
 <circle cx="22.724" cy="19.706" r="1.845" enable-background="new" opacity=".1" stroke-width="1.1379" vector-effect="non-scaling-stroke" style="isolation:isolate"/>
 <circle cx="22.724" cy="18.706" r="1.845" enable-background="new" fill="#fff" stroke-width="1.1379" vector-effect="non-scaling-stroke" style="isolation:isolate"/>
 <path d="m33.157 20.551c0.0133 0.2047 0.0206 0.40981 0.0216 0.61493 0 5.7739-4.6806 10.455-10.454 10.455-1.9836 0-3.9013-0.569-5.5449-1.601-0.91314-0.57336-0.51143-0.01476-1.2197-0.8589l-1.2298 3.6561c2.3521 1.6191 5.1391 2.4884 7.9944 2.4936 7.8116 0 14.144-6.3325 14.144-14.144-6e-3 -0.20512-0.0162-0.41023-0.0312-0.61493z" enable-background="new" fill="#fff" stroke-width="1.1379" style="isolation:isolate"/>
 <path d="m13.335 1.5c-10.011 0-11.887 0.90635-11.834 9.7484v12.752 12.752c-0.0527 8.842 1.8229 9.7484 11.834 9.7484h21.331c10.009 0 11.834-0.90625 11.834-9.7484v-12.752-12.752c0-8.8421-1.8254-9.7484-11.834-9.7484z" color="#000000" fill="none" opacity=".4" stroke="#000"/>
 <path d="m13.336 2c-4.9905 0-7.8705 0.27628-9.3848 1.4531-0.75713 0.58842-1.2376 1.4035-1.5449 2.6602-0.3073 1.2566-0.4173 2.94-0.4043 5.1328v12.754 12.754c-0.0131 2.1928 0.097 3.8762 0.4043 5.1328 0.30731 1.2566 0.78779 2.0717 1.5449 2.6602 1.5143 1.1768 4.3943 1.4531 9.3848 1.4531h21.33c4.9892 0 7.855-0.27668 9.3633-1.4531 0.75412-0.58824 1.2329-1.4046 1.543-2.6621 0.31003-1.2575 0.42773-2.9395 0.42773-5.1328v-12.752-12.752c0-2.1933-0.1177-3.8753-0.42773-5.1328-0.31004-1.2575-0.78884-2.0739-1.543-2.6621-1.5083-1.1765-4.374-1.4531-9.3633-1.4531zm2.4023 1.0977c6.9474 8.3e-4 13.911 0.0034 20.85 0.05469 2.143 0.08293 4.4643-0.1477 6.4238 0.93164 1.2961 0.69523 1.5486 2.2503 1.7695 3.5645 0.17551 2.2029 0.0915 4.4422 0.13867 6.6699 0.0227 8.4795 0.077 16.969-0.0801 25.447-0.16151 1.4832-0.38135 3.3058-1.7988 4.1426-1.6055 0.82871-3.4755 0.90643-5.248 0.95313-9.4997 0.0678-19.024 0.0843-28.523-0.0176-1.5782-0.11413-3.2705-0.24014-4.6328-1.1211-1.2295-0.99538-1.3608-2.7274-1.5039-4.1934-0.1272-8.9986-0.0836-18.004-0.0527-27.008 0.0997-2.3813-0.24538-4.9 0.70508-7.1602 0.67165-1.5097 2.4657-1.86 3.9394-2.0566 2.6617-0.31658 5.3418-0.14702 8.0137-0.20703z" color="#000000" fill="url(#linearGradient1686-0)"/>
</svg>
