<svg width="48" height="48" version="1" xmlns="http://www.w3.org/2000/svg" xmlns:xlink="http://www.w3.org/1999/xlink">
 <defs>
  <linearGradient id="linearGradient1101" x1="321.5" x2="366.5" y1="84" y2="84" gradientTransform="translate(-320,-60)" gradientUnits="userSpaceOnUse">
   <stop stop-color="#1a7fd4" offset="0"/>
   <stop stop-color="#6dc7f1" offset="1"/>
  </linearGradient>
  <linearGradient id="linearGradient977" x1="256" x2="256" y1="375" y2="135.28" gradientTransform="matrix(.091667 0 0 .091667 1.0218 .53333)" gradientUnits="userSpaceOnUse">
   <stop stop-color="#f5f5f5" offset="0"/>
   <stop stop-color="#f1d7e9" offset="1"/>
  </linearGradient>
  <linearGradient id="linearGradient1004" x1="344" x2="344" y1="66.001" y2="102" gradientTransform="rotate(-90,344,84)" gradientUnits="userSpaceOnUse">
   <stop stop-color="#fff" offset="0"/>
   <stop stop-color="#fff" stop-opacity=".098039" offset=".125"/>
   <stop stop-color="#fff" stop-opacity=".098039" offset=".925"/>
   <stop stop-color="#fff" stop-opacity=".49804" offset="1"/>
  </linearGradient>
  <clipPath id="clipPath994">
   <path d="m335.73 62c-8.8242 0-9.7736 0.90635-9.7304 9.7484v12.252 12.252c-0.0433 8.842 0.90622 9.7484 9.7304 9.7484h16.539c8.8242 0 9.7304-0.90625 9.7304-9.7484v-12.252-12.252c0-8.8421-0.90622-9.7484-9.7304-9.7484z" color="#000000" fill="#cdcdcd"/>
  </clipPath>
  <linearGradient id="linearGradient1304" x1="351" x2="340" y1="84" y2="84" gradientTransform="translate(-308.02 -51.573)" gradientUnits="userSpaceOnUse">
   <stop stop-color="#ef5145" stop-opacity="0" offset="0"/>
   <stop stop-color="#ef5145" offset="1"/>
  </linearGradient>
 </defs>
 <path d="m47.5 16.231c0-2.2232-0.0512-3.9737-0.29297-5.4141-0.24178-1.4404-0.69529-2.6191-1.5566-3.4824-0.86134-0.86337-2.0395-1.3191-3.4805-1.5586-1.441-0.23953-3.1954-0.28629-5.4238-0.27539h-12.746-12.752c-2.2251-0.0108-3.9785 0.0361-5.418 0.27539-1.441 0.23953-2.6191 0.69522-3.4805 1.5586-0.86134 0.86338-1.3149 2.042-1.5566 3.4824-0.24179 1.4404-0.29297 3.1909-0.29297 5.4141v17.539c0 2.2232 0.0511 3.9728 0.29297 5.4102 0.24189 1.4374 0.69694 2.6125 1.5586 3.4727 0.86165 0.8602 2.0389 1.3132 3.4785 1.5547 1.4396 0.24149 3.1904 0.29297 5.418 0.29297h12.752 12.752c2.2276 0 3.9784-0.0515 5.418-0.29297 1.4396-0.24149 2.6169-0.69449 3.4785-1.5547 0.86165-0.86019 1.3167-2.0352 1.5586-3.4727 0.24189-1.4374 0.29297-3.187 0.29297-5.4102z" color="#000000" color-rendering="auto" dominant-baseline="auto" image-rendering="auto" opacity=".1" shape-rendering="auto" solid-color="#000000" style="font-feature-settings:normal;font-variant-alternates:normal;font-variant-caps:normal;font-variant-ligatures:normal;font-variant-numeric:normal;font-variant-position:normal;isolation:auto;mix-blend-mode:normal;shape-padding:0;text-decoration-color:#000000;text-decoration-line:none;text-decoration-style:solid;text-indent:0;text-orientation:mixed;text-transform:none;white-space:normal"/>
 <path d="m46.501 15.231c0-8.2315-0.90635-9.7737-9.7484-9.7304h-12.752-12.752c-8.842-0.0433-9.7484 1.4989-9.7484 9.7304v17.539c0 8.2295 0.90625 9.7304 9.7484 9.7304h12.752 12.752c8.8421 0 9.7484-1.5009 9.7484-9.7304z" color="#000000" fill="url(#linearGradient1101)"/>
 <path d="m1.5078 24v8.752c-0.0317 9.6511 1.8228 9.748 11.834 9.748h21.33c10.009 0 11.834-0.15592 11.834-9.748v-8.752z" color="#000000" fill="#fff" opacity=".1"/>
 <path d="m16 14v22s10.426-4.5098 19.544-11.007c0-0.0015-2e-3 -0.0037-2e-3 -0.0059-7.5e-4 -0.0029-3e-3 -0.0051-5e-3 -0.0073s-3e-3 -0.0051-5e-3 -0.0073c-2e-3 -0.0029-2e-3 -0.0051-2e-3 -0.0066-9.6164-6.7045-19.529-10.966-19.529-10.966z" color="#000000" opacity=".2"/>
 <path d="m16 13v22s10.426-4.5098 19.544-11.007c0-0.0015-2e-3 -0.0037-2e-3 -0.0059-7.5e-4 -0.0029-3e-3 -0.0051-5e-3 -0.0073s-3e-3 -0.0051-5e-3 -0.0073c-2e-3 -0.0029-2e-3 -0.0051-2e-3 -0.0066-9.6164-6.7045-19.529-10.966-19.529-10.966z" color="#000000" fill="url(#linearGradient977)"/>
 <path d="m16 13v1s9.4326 4.0732 18.82 10.494c0.24091-0.16775 0.48334-0.33142 0.72266-0.50195 0-0.0015-2e-3 -0.0037-2e-3 -0.0059-7.5e-4 -0.0029-2e-3 -0.0037-4e-3 -0.0059s-4e-3 -0.0056-6e-3 -0.0078c-2e-3 -0.0029-2e-3 -0.0044-2e-3 -0.0059-9.6161-6.7044-19.529-10.967-19.529-10.967z" color="#000000" fill="#fff"/>
 <path d="m46.501 15.231c0-8.2315-0.90635-9.7737-9.7484-9.7304h-12.752-12.752c-8.842-0.0433-9.7484 1.4989-9.7484 9.7304v17.539c0 8.2295 0.90625 9.7304 9.7484 9.7304h12.752 12.752c8.8421 0 9.7484-1.5009 9.7484-9.7304z" color="#000000" fill="none" opacity=".4" stroke="#000"/>
 <path transform="rotate(90 214 -106)" d="m335.73 62c-8.8242 0-9.7736 0.90635-9.7304 9.7484v12.252 12.252c-0.0433 8.842 0.90622 9.7484 9.7304 9.7484h16.539c8.8242 0 9.7304-0.90625 9.7304-9.7484v-12.252-12.252c0-8.8421-0.90622-9.7484-9.7304-9.7484z" clip-path="url(#clipPath994)" color="#000000" fill="none" opacity=".7" stroke="url(#linearGradient1004)" stroke-width="2"/>
 <path d="m43.932 18.293c-0.35223-0.0037-0.82053 0.051-1.4436 0.14465l-9.9884 1.5853c-2.5032 0.53302-2.4946 0.69881-2.503 2.8136v17.159c-0.1044-0.07313-0.20738-0.14666-0.31531-0.219v7.5e-4c-0.79528-0.53294-1.6429-0.91222-2.7814-0.91222-1.426 0-2.2764 0.54604-2.7913 1.2653-0.51479 0.71921-0.68554 1.6258-0.68554 2.3265 0 0.84504 0.28853 1.7469 0.91443 2.4342 0.6259 0.68728 1.5882 1.1686 2.9718 1.1686 1.5624 0 2.6614-0.43628 3.2827-1.2883 0.48918-0.67085 0.75967-1.5671 0.8562-2.6726v-3e-3c0.0135-0.13412 0.0233-0.27188 0.0319-0.41382 0.0131-0.21852 0.0103-0.62732 0.0103-0.62732v-13.139c0-1.8769-9e-5 -1.989 2.5038-2.417l6.9935-1.1565c2.5084-0.32819 2.5089-0.09806 2.5089 1.3096v12.057c-0.1016-0.07117-0.20192-0.14279-0.30689-0.21314v7.5e-4c-0.79528-0.53295-1.6425-0.91223-2.781-0.91223-1.426 0-2.2768 0.54604-2.7916 1.2653s-0.68555 1.6258-0.68555 2.3265c0 0.84504 0.28889 1.7469 0.91479 2.4342 0.62591 0.68728 1.5882 1.1689 2.9718 1.1689 1.5624 0 2.6614-0.43664 3.2827-1.2887 0.48917-0.67085 0.7593-1.5667 0.85583-2.6722v-3e-3c0.0135-0.13412 0.0233-0.27152 0.0319-0.41345 0.0131-0.21853 0.0106-0.62768 0.0106-0.62768v-18.279c0-1.6462-0.0108-2.1914-1.0675-2.2031z" enable-background="new" opacity=".05" stroke="#000" stroke-width="2"/>
 <path d="m43.932 19.293c-0.35223-0.0037-0.82053 0.051-1.4436 0.14465l-9.9884 1.5853c-2.5032 0.53302-2.4946 0.69881-2.503 2.8136v17.159c-0.1044-0.07313-0.20738-0.14666-0.31531-0.219v7.5e-4c-0.79528-0.53294-1.6429-0.91222-2.7814-0.91222-1.426 0-2.2764 0.54604-2.7913 1.2653-0.51479 0.71921-0.68554 1.6258-0.68554 2.3265 0 0.84504 0.28853 1.7469 0.91443 2.4342 0.6259 0.68728 1.5882 1.1686 2.9718 1.1686 1.5624 0 2.6614-0.43628 3.2827-1.2883 0.48918-0.67085 0.75967-1.5671 0.8562-2.6726v-3e-3c0.0135-0.13412 0.0233-0.27188 0.0319-0.41382 0.0131-0.21852 0.0103-0.62732 0.0103-0.62732v-13.139c0-1.8769-9e-5 -1.989 2.5038-2.417l6.9935-1.1565c2.5084-0.32819 2.5089-0.09806 2.5089 1.3096v12.057c-0.1016-0.07117-0.20192-0.14279-0.30689-0.21314v7.5e-4c-0.79528-0.53295-1.6425-0.91223-2.781-0.91223-1.426 0-2.2768 0.54604-2.7916 1.2653s-0.68555 1.6258-0.68555 2.3265c0 0.84504 0.28889 1.7469 0.91479 2.4342 0.62591 0.68728 1.5882 1.1689 2.9718 1.1689 1.5624 0 2.6614-0.43664 3.2827-1.2887 0.48917-0.67085 0.7593-1.5667 0.85583-2.6722v-3e-3c0.0135-0.13412 0.0233-0.27152 0.0319-0.41345 0.0131-0.21853 0.0106-0.62768 0.0106-0.62768v-18.279c0-1.6462-0.0108-2.1914-1.0675-2.2031z" enable-background="new" opacity=".1"/>
 <path d="m43.932 18.293c-0.35223-0.0037-0.82053 0.051-1.4436 0.14465l-9.9884 1.5853c-2.5032 0.53302-2.4946 0.69881-2.503 2.8136v17.159c-0.1044-0.07313-0.20738-0.14666-0.31531-0.219v7.5e-4c-0.79528-0.53294-1.6429-0.91222-2.7814-0.91222-1.426 0-2.2764 0.54604-2.7913 1.2653-0.51479 0.71921-0.68554 1.6258-0.68554 2.3265 0 0.84504 0.28853 1.7469 0.91443 2.4342 0.6259 0.68728 1.5882 1.1686 2.9718 1.1686 1.5624 0 2.6614-0.43628 3.2827-1.2883 0.48918-0.67085 0.75967-1.5671 0.8562-2.6726v-3e-3c0.0135-0.13412 0.0233-0.27188 0.0319-0.41382 0.0131-0.21852 0.0103-0.62732 0.0103-0.62732v-13.139c0-1.8769-9e-5 -1.989 2.5038-2.417l6.9935-1.1565c2.5084-0.32819 2.5089-0.09806 2.5089 1.3096v12.057c-0.1016-0.07117-0.20192-0.14279-0.30689-0.21314v7.5e-4c-0.79528-0.53295-1.6425-0.91223-2.781-0.91223-1.426 0-2.2768 0.54604-2.7916 1.2653s-0.68555 1.6258-0.68555 2.3265c0 0.84504 0.28889 1.7469 0.91479 2.4342 0.62591 0.68728 1.5882 1.1689 2.9718 1.1689 1.5624 0 2.6614-0.43664 3.2827-1.2887 0.48917-0.67085 0.7593-1.5667 0.85583-2.6722v-3e-3c0.0135-0.13412 0.0233-0.27152 0.0319-0.41345 0.0131-0.21853 0.0106-0.62768 0.0106-0.62768v-18.279c0-1.6462-0.0108-2.1914-1.0675-2.2031z" enable-background="new" fill="#34be5b"/>
 <path d="m30.269 20.913c-0.25938 0.37336-0.26946 0.92938-0.27344 1.9238v17.158c-0.1044-0.07313-0.20652-0.14641-0.31445-0.21875-0.79528-0.53294-1.6428-0.91211-2.7812-0.91211-1.426 0-2.2762 0.5464-2.791 1.2656-0.51479 0.71921-0.68554 1.6254-0.68554 2.3262 0 0.84504 0.28816 1.7483 0.91406 2.4355 0.6259 0.68728 1.5871 1.1679 2.9707 1.168 1.5624 0 2.6619-0.43701 3.2832-1.2891 0.48917-0.67085 0.76089-1.5664 0.85742-2.6719v-4e-3c0.0135-0.13412 0.0226-0.27017 0.0312-0.41211 0.0131-0.21852 0.01-0.62891 0.01-0.62891v-13.139c0-1.8769 3e-5 -1.988 2.5039-2.416l6.9941-1.1562c0.55867-0.0731 0.95345-0.10828 1.291-0.11914-4.2606-1.2017-8.5497-2.392-12.01-3.3105zm13.096 3.6211c0.13153 0.22943 0.13086 0.59043 0.13086 1.1172v12.059c-0.1016-0.07117-0.20167-0.14255-0.30664-0.21289-0.79528-0.53295-1.6428-0.91211-2.7812-0.91211-1.426 0-2.2762 0.54641-2.791 1.2656s-0.68555 1.6254-0.68555 2.3262c0 0.84504 0.28816 1.7463 0.91406 2.4336 0.62591 0.68728 1.589 1.1699 2.9727 1.1699 1.5624 0 2.6619-0.43701 3.2832-1.2891 0.48917-0.67085 0.75894-1.5664 0.85547-2.6719v-4e-3c0.0135-0.13412 0.0226-0.27018 0.0312-0.41211 0.0131-0.21853 0.0117-0.62891 0.0117-0.62891v-13.775c-0.57785-0.16403-1.0426-0.29736-1.6348-0.46484z" enable-background="new" fill="url(#linearGradient1304)" opacity=".1"/>
</svg>
