<svg width="48" height="48" version="1" xmlns="http://www.w3.org/2000/svg" xmlns:xlink="http://www.w3.org/1999/xlink">
 <defs>
  <linearGradient id="linearGradient921" x1="64" x2="104" y1="344" y2="344" gradientTransform="translate(-60,-320)" gradientUnits="userSpaceOnUse">
   <stop stop-color="#fff" offset="0"/>
   <stop stop-color="#fff" stop-opacity=".098039" offset=".125"/>
   <stop stop-color="#fff" stop-opacity=".098039" offset=".925"/>
   <stop stop-color="#fff" stop-opacity=".49804" offset="1"/>
  </linearGradient>
 </defs>
 <rect transform="matrix(0,-1,-1,0,0,0)" x="-46" y="-45" width="42" height="42" rx="21" ry="21" enable-background="new" opacity=".2"/>
 <rect transform="matrix(0,-1,-1,0,0,0)" x="-46" y="-45" width="42" height="42" rx="21" ry="21" enable-background="new" opacity=".1"/>
 <rect transform="matrix(0,-1,-1,0,0,0)" x="-45" y="-45" width="42" height="42" rx="21" ry="21" enable-background="new" fill="#f76363"/>
 <rect transform="matrix(0,1,1,0,0,0)" x="4.5122" y="4.5122" width="38.976" height="38.976" rx="19.488" ry="19.488" enable-background="new" fill="none" stroke="url(#linearGradient921)" stroke-width="1.0244"/>
 <circle cx="24" cy="24" r="21" enable-background="new" fill="none" opacity=".4" stroke="#000" stroke-dashoffset="6.6" stroke-linejoin="round"/>
 <path d="m18.196 12.713a6.6982 6.6982 0 0 0-6.6964 6.5482c0 1.6839 0.44107 2.9982 0.89286 4.2125 2.1196 5.0179 6.25 9.2107 11.607 14.239 5.3571-5.0286 9.4875-9.2214 11.607-14.239 0.45179-1.2143 0.89286-2.5286 0.89286-4.2143a6.6982 6.6982 0 0 0-12.5-3.1893 6.6929 6.6929 0 0 0-5.8036-3.3571z" color="#000000" enable-background="new" fill="#fff" overflow="visible" stroke-width="1.7857"/>
</svg>
