<svg width="48" height="48" version="1" xmlns="http://www.w3.org/2000/svg" xmlns:xlink="http://www.w3.org/1999/xlink">
 <defs>
  <linearGradient id="linearGradient1686" x1="320" x2="368" y1="108" y2="108" gradientTransform="rotate(90 214 -106)" gradientUnits="userSpaceOnUse">
   <stop stop-color="#f7f7f7" offset="0"/>
   <stop stop-color="#f7f7f7" offset="1"/>
  </linearGradient>
  <linearGradient id="linearGradient1686-0" x1="322" x2="366" y1="84" y2="84" gradientTransform="rotate(90 214 -106)" gradientUnits="userSpaceOnUse">
   <stop stop-color="#fff" offset="0"/>
   <stop stop-color="#fff" stop-opacity=".098039" offset=".125"/>
   <stop stop-color="#fff" stop-opacity=".098039" offset=".925"/>
   <stop stop-color="#fff" stop-opacity=".49804" offset="1"/>
  </linearGradient>
 </defs>
 <path d="m13.658 2c-2.6221 0-4.6867 0.05009-6.3856 0.28674-1.6989 0.23664-3.089 0.6805-4.1074 1.5235-1.0183 0.84301-1.5558 1.9961-1.8383 3.4064-0.28252 1.4103-0.33767 3.1273-0.32482 5.3084v12.475 12.481c-0.0127 2.1777 0.0426 3.8939 0.32482 5.3027 0.28251 1.4103 0.81998 2.5634 1.8383 3.4064 1.0183 0.84301 2.4085 1.2869 4.1074 1.5235 1.6989 0.23665 3.7635 0.28674 6.3856 0.28674h20.686c2.6221 0 4.6857-0.05 6.381-0.28674 1.6953-0.23674 3.0813-0.6821 4.0958-1.5254 1.0146-0.84331 1.5488-1.9956 1.8337-3.4045 0.28483-1.4089 0.34554-3.1225 0.34554-5.3027v-12.481-12.481c0-2.1802-0.0608-3.8937-0.34554-5.3027-0.28482-1.4089-0.81911-2.5612-1.8337-3.4045-1.0146-0.84332-2.4005-1.2887-4.0958-1.5254-1.6953-0.23674-3.7589-0.28674-6.381-0.28674z" color="#000000" color-rendering="auto" dominant-baseline="auto" image-rendering="auto" opacity=".1" shape-rendering="auto" solid-color="#000000" style="font-feature-settings:normal;font-variant-alternates:normal;font-variant-caps:normal;font-variant-ligatures:normal;font-variant-numeric:normal;font-variant-position:normal;isolation:auto;mix-blend-mode:normal;shape-padding:0;text-decoration-color:#000000;text-decoration-line:none;text-decoration-style:solid;text-indent:0;text-orientation:mixed;text-transform:none;white-space:normal"/>
 <path d="m13.335 1.5c-10.011 0-11.887 0.90635-11.834 9.7484v12.752 12.752c-0.0527 8.842 1.8229 9.7484 11.834 9.7484h21.331c10.009 0 11.834-0.90625 11.834-9.7484v-12.752-12.752c0-8.8421-1.8254-9.7484-11.834-9.7484z" color="#000000" fill="url(#linearGradient1686)"/>
 <path d="m33.91 29.793c-0.58138-1.2017-1.3655-2.4832-2.3292-3.7927 0.96368-1.3094 1.7478-2.5909 2.329-3.7929 2.6076 0.9665 4.2282 2.3095 4.2282 3.7929 0 1.4834-1.6206 2.8264-4.228 3.7927zm0.087 6.2048c-1.0489 1.0489-3.1444 0.85259-5.6716-0.30797 0.43875-1.2608 0.79051-2.7215 1.035-4.3288 1.6071-0.24428 3.068-0.59605 4.3286-1.0348 1.1606 2.527 1.3568 4.6227 0.30797 5.6716m-9.9974 4.141c-1.4834 0-2.8264-1.6206-3.7928-4.2282 1.2019-0.58118 2.4836-1.3653 3.7928-2.329 1.3094 0.96368 2.5909 1.7478 3.7929 2.329-0.96649 2.6076-2.3095 4.2282-3.7929 4.2282zm-9.9974-4.141c-1.0489-1.0489-0.85259-3.1446 0.30777-5.6716 1.2608 0.43875 2.7217 0.79051 4.3288 1.0348 0.24449 1.6075 0.59625 3.068 1.035 4.3288-2.5272 1.1606-4.6228 1.3568-5.6716 0.30797zm-4.141-9.9974c0-1.4834 1.6206-2.8264 4.2282-3.7929 0.58118 1.2019 1.3653 2.4834 2.329 3.7929-0.96368 1.3094-1.7478 2.5909-2.3292 3.7927-2.6074-0.9663-4.228-2.3093-4.228-3.7927zm4.141-9.9974c1.0489-1.0489 3.1446-0.85259 5.6716 0.30797-0.43875 1.2606-0.79051 2.7213-1.035 4.3286-1.6071 0.24449-3.068 0.59605-4.3288 1.035-1.1604-2.527-1.3566-4.6227-0.30777-5.6716zm9.9974-4.141c1.4834 0 2.8264 1.6206 3.7929 4.2282-1.2019 0.58098-2.4836 1.3653-3.7929 2.329-1.3092-0.96368-2.5909-1.748-3.7928-2.329 0.96649-2.6076 2.3095-4.2282 3.7928-4.2282zm5.6784 11.786c-0.0546-0.88594-0.14002-1.7425-0.25272-2.564 1.5097 0.23725 2.8884 0.56973 4.0809 0.97835-0.55427 1.132-1.2942 2.342-2.194 3.5773a34.486 34.486 0 0 0-1.6343-1.9917zm0.0358 4.0118c0.0235-0.54422 0.0366-1.0973 0.0366-1.6598 0-0.5625-0.013-1.1156-0.0366-1.6598a33.402 33.402 0 0 1 1.3315 1.6598 33.402 33.402 0 0 1-1.3315 1.6598zm-0.0358 0.69228a34.486 34.486 0 0 0 1.6343-1.9917c0.89979 1.2353 1.6397 2.4453 2.194 3.5773-1.1925 0.40862-2.5712 0.74109-4.0809 0.97835 0.1127-0.82145 0.19808-1.6781 0.25272-2.564zm-2.8115 2.8621a38.774 38.774 0 0 0 1.1993-1.1477c0.39776-0.39777 0.77966-0.79815 1.1479-1.1995-0.0565 0.72723-0.135 1.4332-0.23203 2.1152-0.68203 0.09703-1.388 0.17538-2.1152 0.23203zm-0.51489 0.46426c0.88614-0.05464 1.7427-0.13982 2.564-0.25272-0.23705 1.5097-0.56973 2.8884-0.97834 4.0807-1.132-0.55406-2.342-1.2938-3.5773-2.1938 0.68404-0.51971 1.3484-1.0647 1.9916-1.6343m-4.0118 0.03576c0.54422 0.0233 1.0973 0.03636 1.6598 0.03636s1.1156-0.01306 1.6598-0.03636a33.519 33.519 0 0 1-1.6598 1.3315 33.519 33.519 0 0 1-1.6598-1.3315zm-0.69228-0.03576a34.421 34.421 0 0 0 1.9918 1.6343c-1.2355 0.9-2.4455 1.6397-3.5775 2.1938-0.40861-1.1923-0.74129-2.571-0.97834-4.0807 0.82125 0.1129 1.6778 0.19808 2.564 0.25272zm-2.8621-2.8115a38.774 38.774 0 0 0 1.1477 1.1993c0.39777 0.39777 0.79815 0.77966 1.1995 1.1479-0.72723-0.05665-1.4332-0.135-2.1152-0.23203a33.491 33.491 0 0 1-0.23203-2.1152zm-0.46426-0.51489c0.0546 0.88594 0.14002 1.7425 0.25272 2.564-1.5097-0.23725-2.8884-0.56973-4.0809-0.97835 0.55427-1.132 1.2942-2.342 2.194-3.5773 0.51971 0.68404 1.0647 1.3484 1.6343 1.9917zm-0.0358-4.0118a38.766 38.766 0 0 0-0.0365 1.6598c0 0.5625 0.0133 1.1156 0.0366 1.6598a33.402 33.402 0 0 1-1.3316-1.6598 33.519 33.519 0 0 1 1.3315-1.6598m0.0358-0.69228a34.418 34.418 0 0 0-1.6343 1.9917c-0.9-1.2353-1.6397-2.4453-2.194-3.5773 1.1925-0.40862 2.5712-0.7413 4.0809-0.97835a34.508 34.508 0 0 0-0.25272 2.564zm2.8115-2.8621a38.551 38.551 0 0 0-1.1995 1.1479 38.774 38.774 0 0 0-1.1477 1.1993c0.0566-0.72723 0.135-1.4332 0.23203-2.1152 0.68203-0.09703 1.388-0.17538 2.1152-0.23203zm0.51489-0.46426c-0.88614 0.05464-1.7427 0.13982-2.564 0.25272 0.23705-1.5097 0.56973-2.8884 0.97834-4.0809 1.132 0.55426 2.342 1.294 3.5773 2.194a34.486 34.486 0 0 0-1.9916 1.6343m4.0118-0.03576a38.766 38.766 0 0 0-1.6598-0.03656c-0.5625 0-1.1156 0.01326-1.6598 0.03656 0.55426-0.47411 1.1089-0.91788 1.6598-1.3315a33.519 33.519 0 0 1 1.6598 1.3315zm0.69228 0.03576a34.486 34.486 0 0 0-1.9917-1.6343c1.2353-0.9 2.4453-1.6397 3.5773-2.1938 0.40861 1.1923 0.74129 2.571 0.97834 4.0807a34.39 34.39 0 0 0-2.564-0.25272m1.7142 1.612a38.774 38.774 0 0 0-1.1993-1.1477c0.72723 0.05665 1.4332 0.135 2.1152 0.23203 0.097 0.68203 0.17538 1.388 0.23203 2.1152a38.551 38.551 0 0 0-1.1479-1.1995zm1.2582 4.0665c0 0.74109-0.0219 1.4687-0.0635 2.1791a37.296 37.296 0 0 1-3.0819 3.0819c-1.4514 0.08498-2.9067 0.08498-4.3582 0a37.296 37.296 0 0 1-3.0819-3.0819 37.311 37.311 0 0 1 0-4.3584 37.286 37.286 0 0 1 1.496-1.5856 37.296 37.296 0 0 1 1.5858-1.496c1.4514-0.08498 2.9069-0.08498 4.3584 0a37.286 37.286 0 0 1 1.5856 1.496 37.286 37.286 0 0 1 1.496 1.5856c0.0416 0.71076 0.0635 1.4384 0.0635 2.1793zm4.673-9.9974c1.0489 1.0489 0.85259 3.1446-0.30777 5.6716-1.2608-0.43895-2.7217-0.79051-4.3288-1.035-0.24449-1.6073-0.59625-3.0678-1.035-4.3286 2.527-1.1606 4.6228-1.3568 5.6716-0.30797zm4.5673 9.9974c0-1.6632-1.7048-3.1394-4.4733-4.18 1.2216-2.6938 1.3833-4.943 0.20732-6.1188-1.176-1.176-3.4252-1.0145-6.1188 0.20732-1.0408-2.7685-2.5168-4.4733-4.18-4.4733-1.6632 0-3.1394 1.7048-4.18 4.4733-2.6936-1.2218-4.9428-1.3833-6.1188-0.20732-1.176 1.1758-1.0143 3.425 0.20732 6.1188-2.7685 1.0406-4.4733 2.5168-4.4733 4.18 0 1.6632 1.7048 3.1392 4.4733 4.18-1.2218 2.6936-1.3833 4.9428-0.20732 6.1188 1.176 1.176 3.4252 1.0145 6.1188-0.20732 1.0406 2.7685 2.5168 4.4733 4.18 4.4733 1.6632 0 3.1394-1.7048 4.18-4.4735 2.6936 1.222 4.9428 1.3835 6.1188 0.20752 1.176-1.176 1.0145-3.4252-0.20732-6.1188 2.7687-1.0408 4.4733-2.5168 4.4733-4.18zm-11.359-9.0839a0.56853 0.56853 0 1 1-1.137-2.01e-4 0.56853 0.56853 0 0 1 1.137 2.01e-4zm-8.9564-1.6001a0.4931 0.4931 0 1 1-0.98619 0 0.4931 0.4931 0 0 1 0.98619 0zm-2.3758 8.7758a0.4263 0.4263 0 1 1-0.85259 0 0.4263 0.4263 0 0 1 0.85259 0zm19.429 8.2416a0.61916 0.61916 0 1 1-1.2383-4.02e-4 0.61916 0.61916 0 0 1 1.2383 4.02e-4zm-21.241 3.5524a0.46165 0.46165 0 1 1-0.9233 0 0.46165 0.46165 0 0 1 0.9233 0zm9.4138-1.9183a0.49741 0.49741 0 1 1-0.99462 0.02009 0.49741 0.49741 0 0 1 0.99462-0.02009zm9.9112-10.302a0.4263 0.4263 0 1 1-0.85259 0 0.4263 0.4263 0 0 1 0.85259 0zm-20.852 5.3996a0.39074 0.39074 0 1 1-0.78148 0 0.39074 0.39074 0 0 1 0.78148 0zm15.95-6.8916a0.49721 0.49721 0 1 1-0.99441 4.02e-4 0.49721 0.49721 0 0 1 0.99441-4.02e-4zm-1.5629 3.9084c0 1.6479-1.3359 2.9839-2.9841 2.9839-1.6479 0-2.9839-1.3359-2.9839-2.9839 0-1.6481 1.3359-2.9841 2.9839-2.9841 1.6481 0 2.9841 1.3359 2.9841 2.9841z" enable-background="new" opacity=".1" stroke="#000" stroke-width=".5" style="isolation:isolate"/>
 <g transform="translate(-320,-60)" enable-background="new">
  <path d="m346.92 85.082c0 1.6479-1.3359 2.9839-2.9841 2.9839-1.6479 0-2.9839-1.3359-2.9839-2.9839 0-1.6481 1.3359-2.9841 2.9839-2.9841 1.6481 0 2.9841 1.3359 2.9841 2.9841z" fill="#46a926" style="isolation:isolate"/>
  <path d="m353.91 88.793c-0.58138-1.2017-1.3655-2.4832-2.3292-3.7927 0.96368-1.3094 1.7478-2.5909 2.329-3.7929 2.6076 0.9665 4.2282 2.3095 4.2282 3.7929 0 1.4834-1.6206 2.8264-4.228 3.7927zm0.087 6.2048c-1.0489 1.0489-3.1444 0.85259-5.6716-0.30797 0.43875-1.2608 0.79051-2.7215 1.035-4.3288 1.6071-0.24428 3.068-0.59605 4.3286-1.0348 1.1606 2.527 1.3568 4.6227 0.30797 5.6716m-9.9974 4.141c-1.4834 0-2.8264-1.6206-3.7928-4.2282 1.2019-0.58118 2.4836-1.3653 3.7928-2.329 1.3094 0.96368 2.5909 1.7478 3.7929 2.329-0.96649 2.6076-2.3095 4.2282-3.7929 4.2282zm-9.9974-4.141c-1.0489-1.0489-0.85259-3.1446 0.30777-5.6716 1.2608 0.43875 2.7217 0.79051 4.3288 1.0348 0.24449 1.6075 0.59625 3.068 1.035 4.3288-2.5272 1.1606-4.6228 1.3568-5.6716 0.30797zm-4.141-9.9974c0-1.4834 1.6206-2.8264 4.2282-3.7929 0.58118 1.2019 1.3653 2.4834 2.329 3.7929-0.96368 1.3094-1.7478 2.5909-2.3292 3.7927-2.6074-0.9663-4.228-2.3093-4.228-3.7927zm4.141-9.9974c1.0489-1.0489 3.1446-0.85259 5.6716 0.30797-0.43875 1.2606-0.79051 2.7213-1.035 4.3286-1.6071 0.24449-3.068 0.59605-4.3288 1.035-1.1604-2.527-1.3566-4.6227-0.30777-5.6716zm9.9974-4.141c1.4834 0 2.8264 1.6206 3.7929 4.2282-1.2019 0.58098-2.4836 1.3653-3.7929 2.329-1.3092-0.96368-2.5909-1.748-3.7928-2.329 0.96649-2.6076 2.3095-4.2282 3.7928-4.2282zm5.6784 11.786c-0.0546-0.88594-0.14002-1.7425-0.25272-2.564 1.5097 0.23725 2.8884 0.56973 4.0809 0.97835-0.55427 1.132-1.2942 2.342-2.194 3.5773a34.486 34.486 0 0 0-1.6343-1.9917zm0.0358 4.0118c0.0235-0.54422 0.0366-1.0973 0.0366-1.6598 0-0.5625-0.013-1.1156-0.0366-1.6598a33.402 33.402 0 0 1 1.3315 1.6598 33.402 33.402 0 0 1-1.3315 1.6598zm-0.0358 0.69228a34.486 34.486 0 0 0 1.6343-1.9917c0.89979 1.2353 1.6397 2.4453 2.194 3.5773-1.1925 0.40862-2.5712 0.74109-4.0809 0.97835 0.1127-0.82145 0.19808-1.6781 0.25272-2.564zm-2.8115 2.8621a38.774 38.774 0 0 0 1.1993-1.1477c0.39776-0.39777 0.77966-0.79815 1.1479-1.1995-0.0565 0.72723-0.135 1.4332-0.23203 2.1152-0.68203 0.09703-1.388 0.17538-2.1152 0.23203zm-0.51489 0.46426c0.88614-0.05464 1.7427-0.13982 2.564-0.25272-0.23705 1.5097-0.56973 2.8884-0.97834 4.0807-1.132-0.55406-2.342-1.2938-3.5773-2.1938 0.68404-0.51971 1.3484-1.0647 1.9916-1.6343m-4.0118 0.03576c0.54422 0.0233 1.0973 0.03636 1.6598 0.03636s1.1156-0.01306 1.6598-0.03636a33.519 33.519 0 0 1-1.6598 1.3315 33.519 33.519 0 0 1-1.6598-1.3315zm-0.69228-0.03576a34.421 34.421 0 0 0 1.9918 1.6343c-1.2355 0.9-2.4455 1.6397-3.5775 2.1938-0.40861-1.1923-0.74129-2.571-0.97834-4.0807 0.82125 0.1129 1.6778 0.19808 2.564 0.25272zm-2.8621-2.8115a38.774 38.774 0 0 0 1.1477 1.1993c0.39777 0.39777 0.79815 0.77966 1.1995 1.1479-0.72723-0.05665-1.4332-0.135-2.1152-0.23203a33.491 33.491 0 0 1-0.23203-2.1152zm-0.46426-0.51489c0.0546 0.88594 0.14002 1.7425 0.25272 2.564-1.5097-0.23725-2.8884-0.56973-4.0809-0.97835 0.55427-1.132 1.2942-2.342 2.194-3.5773 0.51971 0.68404 1.0647 1.3484 1.6343 1.9917zm-0.0358-4.0118a38.766 38.766 0 0 0-0.03652 1.6598c0 0.5625 0.0133 1.1156 0.0366 1.6598a33.402 33.402 0 0 1-1.3316-1.6598 33.519 33.519 0 0 1 1.3315-1.6598m0.0358-0.69228a34.418 34.418 0 0 0-1.6343 1.9917c-0.9-1.2353-1.6397-2.4453-2.194-3.5773 1.1925-0.40862 2.5712-0.7413 4.0809-0.97835a34.508 34.508 0 0 0-0.25272 2.564zm2.8115-2.8621a38.551 38.551 0 0 0-1.1995 1.1479 38.774 38.774 0 0 0-1.1477 1.1993c0.0566-0.72723 0.135-1.4332 0.23203-2.1152 0.68203-0.09703 1.388-0.17538 2.1152-0.23203zm0.51489-0.46426c-0.88614 0.05464-1.7427 0.13982-2.564 0.25272 0.23705-1.5097 0.56973-2.8884 0.97834-4.0809 1.132 0.55426 2.342 1.294 3.5773 2.194a34.486 34.486 0 0 0-1.9916 1.6343m4.0118-0.03576a38.766 38.766 0 0 0-1.6598-0.03656c-0.5625 0-1.1156 0.01326-1.6598 0.03656 0.55426-0.47411 1.1089-0.91788 1.6598-1.3315a33.519 33.519 0 0 1 1.6598 1.3315zm0.69228 0.03576a34.486 34.486 0 0 0-1.9917-1.6343c1.2353-0.9 2.4453-1.6397 3.5773-2.1938 0.40861 1.1923 0.74129 2.571 0.97834 4.0807a34.39 34.39 0 0 0-2.564-0.25272m1.7142 1.612a38.774 38.774 0 0 0-1.1993-1.1477c0.72723 0.05665 1.4332 0.135 2.1152 0.23203 0.097 0.68203 0.17538 1.388 0.23203 2.1152a38.551 38.551 0 0 0-1.1479-1.1995zm1.2582 4.0665c0 0.74109-0.0219 1.4687-0.0635 2.1791a37.296 37.296 0 0 1-3.0819 3.0819c-1.4514 0.08498-2.9067 0.08498-4.3582 0a37.296 37.296 0 0 1-3.0819-3.0819 37.311 37.311 0 0 1 0-4.3584 37.286 37.286 0 0 1 1.496-1.5856 37.296 37.296 0 0 1 1.5858-1.496c1.4514-0.08498 2.9069-0.08498 4.3584 0a37.286 37.286 0 0 1 1.5856 1.496 37.286 37.286 0 0 1 1.496 1.5856c0.0416 0.71076 0.0635 1.4384 0.0635 2.1793zm4.673-9.9974c1.0489 1.0489 0.85259 3.1446-0.30777 5.6716-1.2608-0.43895-2.7217-0.79051-4.3288-1.035-0.24449-1.6073-0.59625-3.0678-1.035-4.3286 2.527-1.1606 4.6228-1.3568 5.6716-0.30797zm4.5673 9.9974c0-1.6632-1.7048-3.1394-4.4733-4.18 1.2216-2.6938 1.3833-4.943 0.20732-6.1188-1.176-1.176-3.4252-1.0145-6.1188 0.20732-1.0408-2.7685-2.5168-4.4733-4.18-4.4733-1.6632 0-3.1394 1.7048-4.18 4.4733-2.6936-1.2218-4.9428-1.3833-6.1188-0.20732-1.176 1.1758-1.0143 3.425 0.20732 6.1188-2.7685 1.0406-4.4733 2.5168-4.4733 4.18 0 1.6632 1.7048 3.1392 4.4733 4.18-1.2218 2.6936-1.3833 4.9428-0.20732 6.1188 1.176 1.176 3.4252 1.0145 6.1188-0.20732 1.0406 2.7685 2.5168 4.4733 4.18 4.4733 1.6632 0 3.1394-1.7048 4.18-4.4735 2.6936 1.222 4.9428 1.3835 6.1188 0.20752 1.176-1.176 1.0145-3.4252-0.20732-6.1188 2.7687-1.0408 4.4733-2.5168 4.4733-4.18z" fill="#f34f17" stroke="#f34f17" stroke-width=".5" style="isolation:isolate"/>
  <path d="m347.21 75.917a0.56853 0.56853 0 1 1-1.137-2.01e-4 0.56853 0.56853 0 0 1 1.137 2.01e-4zm-8.9564-1.6001a0.4931 0.4931 0 1 1-0.98619 0 0.4931 0.4931 0 0 1 0.98619 0zm-2.3758 8.7758a0.4263 0.4263 0 1 1-0.85259 0 0.4263 0.4263 0 0 1 0.85259 0zm19.429 8.2416a0.61916 0.61916 0 1 1-1.2383-4.02e-4 0.61916 0.61916 0 0 1 1.2383 4.02e-4zm-21.241 3.5524a0.46165 0.46165 0 1 1-0.9233 0 0.46165 0.46165 0 0 1 0.9233 0zm9.4138-1.9183a0.49741 0.49741 0 1 1-0.99462 0.02009 0.49741 0.49741 0 0 1 0.99462-0.02009zm9.9112-10.302a0.4263 0.4263 0 1 1-0.85259 0 0.4263 0.4263 0 0 1 0.85259 0zm-20.852 5.3996a0.39074 0.39074 0 1 1-0.78148 0 0.39074 0.39074 0 0 1 0.78148 0zm15.95-6.8916a0.49721 0.49721 0 1 1-0.99441 4.02e-4 0.49721 0.49721 0 0 1 0.99441-4.02e-4z" fill="#111" stroke="#111" stroke-width=".5" style="isolation:isolate"/>
 </g>
 <path d="m13.335 1.5c-10.011 0-11.887 0.90635-11.834 9.7484v12.752 12.752c-0.0527 8.842 1.8229 9.7484 11.834 9.7484h21.331c10.009 0 11.834-0.90625 11.834-9.7484v-12.752-12.752c0-8.8421-1.8254-9.7484-11.834-9.7484z" color="#000000" fill="none" opacity=".4" stroke="#000"/>
 <path d="m13.336 2c-4.9905 0-7.8705 0.27628-9.3848 1.4531-0.75713 0.58842-1.2376 1.4035-1.5449 2.6602-0.3073 1.2566-0.4173 2.94-0.4043 5.1328v12.754 12.754c-0.0131 2.1928 0.097 3.8762 0.4043 5.1328 0.30731 1.2566 0.78779 2.0717 1.5449 2.6602 1.5143 1.1768 4.3943 1.4531 9.3848 1.4531h21.33c4.9892 0 7.855-0.27668 9.3633-1.4531 0.75412-0.58824 1.2329-1.4046 1.543-2.6621 0.31003-1.2575 0.42773-2.9395 0.42773-5.1328v-12.752-12.752c0-2.1933-0.1177-3.8753-0.42773-5.1328-0.31004-1.2575-0.78884-2.0739-1.543-2.6621-1.5083-1.1765-4.374-1.4531-9.3633-1.4531zm2.4023 1.0977c6.9474 8.3e-4 13.911 0.0034 20.85 0.05469 2.143 0.08293 4.4643-0.1477 6.4238 0.93164 1.2961 0.69523 1.5486 2.2503 1.7695 3.5645 0.17551 2.2029 0.0915 4.4422 0.13867 6.6699 0.0227 8.4795 0.077 16.969-0.0801 25.447-0.16151 1.4832-0.38135 3.3058-1.7988 4.1426-1.6055 0.82871-3.4755 0.90643-5.248 0.95313-9.4997 0.0678-19.024 0.0843-28.523-0.0176-1.5782-0.11413-3.2705-0.24014-4.6328-1.1211-1.2295-0.99538-1.3608-2.7274-1.5039-4.1934-0.1272-8.9986-0.0836-18.004-0.0527-27.008 0.0997-2.3813-0.24538-4.9 0.70508-7.1602 0.67165-1.5097 2.4657-1.86 3.9394-2.0566 2.6617-0.31658 5.3418-0.14702 8.0137-0.20703z" color="#000000" fill="url(#linearGradient1686-0)"/>
</svg>
