<svg width="48" height="48" version="1" xmlns="http://www.w3.org/2000/svg">
 <defs>
  <linearGradient id="linearGradient1686" x1="320" x2="368" y1="108" y2="60" gradientTransform="rotate(90 214 -106)" gradientUnits="userSpaceOnUse">
   <stop stop-color="#948b74" offset="0"/>
   <stop stop-color="#aea795" offset="1"/>
  </linearGradient>
  <filter id="filter987" x="-.048375" y="-.055286" width="1.0967" height="1.1106" color-interpolation-filters="sRGB">
   <feGaussianBlur stdDeviation="0.6450015"/>
  </filter>
  <linearGradient id="linearGradient1686-0" x1="322" x2="366" y1="84" y2="84" gradientTransform="rotate(90 214 -106)" gradientUnits="userSpaceOnUse">
   <stop stop-color="#fff" offset="0"/>
   <stop stop-color="#fff" stop-opacity=".098039" offset=".125"/>
   <stop stop-color="#fff" stop-opacity=".098039" offset=".925"/>
   <stop stop-color="#fff" stop-opacity=".49804" offset="1"/>
  </linearGradient>
  <linearGradient id="linearGradient1214" x1="344" x2="366" y1="94" y2="94" gradientTransform="translate(-343,-106)" gradientUnits="userSpaceOnUse">
   <stop stop-color="#fff" offset="0"/>
   <stop stop-color="#fff" stop-opacity="0" offset="1"/>
  </linearGradient>
 </defs>
 <path d="m13.658 2c-2.6221 0-4.6868 0.05009-6.3856 0.28674-1.6989 0.23664-3.089 0.6805-4.1074 1.5235-1.0183 0.84301-1.5558 1.9961-1.8383 3.4064-0.28252 1.4103-0.33767 3.1273-0.32482 5.3084v24.956c-0.0127 2.1777 0.0426 3.8939 0.32482 5.3027 0.28251 1.4103 0.81998 2.5634 1.8383 3.4064 1.0183 0.84301 2.4085 1.2869 4.1074 1.5235 1.6989 0.23665 3.7635 0.28674 6.3856 0.28674h20.686c2.6221 0 4.6857-0.05 6.381-0.28674s3.0813-0.6821 4.0958-1.5254c1.0146-0.84331 1.5488-1.9956 1.8337-3.4045 0.28483-1.4089 0.34554-3.1225 0.34554-5.3027v-24.962c0-2.1802-0.0608-3.8937-0.34554-5.3027-0.28482-1.4089-0.81911-2.5612-1.8337-3.4045-1.0146-0.84332-2.4005-1.2887-4.0958-1.5254-1.6953-0.23674-3.7589-0.28674-6.381-0.28674z" color="#000000" color-rendering="auto" dominant-baseline="auto" image-rendering="auto" opacity=".1" shape-rendering="auto" solid-color="#000000" style="font-feature-settings:normal;font-variant-alternates:normal;font-variant-caps:normal;font-variant-ligatures:normal;font-variant-numeric:normal;font-variant-position:normal;isolation:auto;mix-blend-mode:normal;shape-padding:0;text-decoration-color:#000000;text-decoration-line:none;text-decoration-style:solid;text-indent:0;text-orientation:mixed;text-transform:none;white-space:normal"/>
 <path d="m13.335 1.5c-10.011 0-11.887 0.90635-11.834 9.7484v25.504c-0.0527 8.842 1.8229 9.7484 11.834 9.7484h21.331c10.009 0 11.834-0.90625 11.834-9.7484v-25.504c0-8.8421-1.8254-9.7484-11.834-9.7484z" color="#000000" fill="url(#linearGradient1686)"/>
 <path d="m36.442 1.5293-34.941 33.102v2.1211c0 8.8421 1.8253 9.748 11.834 9.748h21.33c10.011 0 11.887-0.90601 11.834-9.748v-25.504c0.0492-8.2617-1.6755-9.5793-10.057-9.7188z" enable-background="new" fill="#fff" opacity=".05"/>
 <path d="m13.989 11c-1.8873 0.0219-3.2692-0.04301-4.3984 0.58008-0.5646 0.31151-1.0108 0.83621-1.2578 1.4941-0.24698 0.65794-0.33594 1.4394-0.33594 2.4258v19c0 0.98638 0.089 1.7679 0.33594 2.4258 0.24697 0.65793 0.69319 1.1846 1.2578 1.4961 0.80751 0.44553 1.7482 0.5377 2.9062 0.5625l18.502 0.01562h3.008c1.8873-0.0218 3.2673 0.0449 4.3965-0.57812 0.56461-0.31152 1.0108-0.83816 1.2578-1.4961 0.24698-0.65793 0.33593-1.4394 0.33593-2.4258v-16c0-0.98638-0.0889-1.7678-0.33593-2.4258-0.18524-0.49345-0.48202-0.91228-0.85743-1.2227-0.12513-0.10346-0.25923-0.19556-0.40039-0.27344-0.2823-0.15576-0.58068-0.26786-0.89843-0.34961-0.95339-0.24524-2.0827-0.21216-3.4982-0.22852h-10.096l-3.0332-3h-6.8848z" color="#000000" color-rendering="auto" filter="url(#filter987)" image-rendering="auto" opacity=".3" shape-rendering="auto" solid-color="#000000" style="isolation:auto;mix-blend-mode:normal;shape-padding:0;text-decoration-color:#000000;text-decoration-line:none;text-decoration-style:solid;text-indent:0;text-transform:none;white-space:normal"/>
 <path d="m13.989 10c-1.8873 0.0219-3.2682-0.0435-4.3975 0.57959-0.5646 0.31151-1.0113 0.83767-1.2583 1.4956-0.24698 0.65794-0.33643 1.4384-0.33643 2.4248v8.5h32.001v-5.5c0-0.98638-0.0894-1.7674-0.33642-2.4253-0.24698-0.65793-0.69369-1.1846-1.2583-1.4961-1.1292-0.62303-2.5102-0.5568-4.3975-0.57861h-10.096l-3.0322-3h-6.8849z" color="#000000" color-rendering="auto" fill="#e3dfd5" image-rendering="auto" shape-rendering="auto" solid-color="#000000" style="isolation:auto;mix-blend-mode:normal;shape-padding:0;text-decoration-color:#000000;text-decoration-line:none;text-decoration-style:solid;text-indent:0;text-transform:none;white-space:normal"/>
 <path d="m34.006 13c1.8873 0.0219 3.2682-0.0437 4.3975 0.57934 0.56461 0.31152 1.0113 0.83767 1.2583 1.4956s0.33618 1.4387 0.33618 2.425v16.001c0 0.98639-0.0892 1.7664-0.33618 2.4243-0.24697 0.65794-0.69369 1.1856-1.2583 1.4971-1.1292 0.62303-2.5102 0.55606-4.3975 0.57788h-3.0072l-18.502-0.0161c-1.1581-0.0248-2.098-0.11623-2.9055-0.56177-0.56462-0.31152-1.0113-0.83914-1.2583-1.4971-0.24698-0.65793-0.33619-1.4379-0.33619-2.4243v-13.001c0-0.98638 0.0892-1.7671 0.33619-2.425 0.24697-0.65794 0.69368-1.1848 1.2583-1.4963 1.1292-0.62303 2.5102-0.5568 4.3975-0.57861h7.0123l3.0322-3h9.9735z" color="#000000" color-rendering="auto" fill="#faf8f6" image-rendering="auto" shape-rendering="auto" solid-color="#000000" style="isolation:auto;mix-blend-mode:normal;shape-padding:0;text-decoration-color:#000000;text-decoration-line:none;text-decoration-style:solid;text-indent:0;text-transform:none;white-space:normal"/>
 <path d="m13.989 10c-1.8873 0.0219-3.2692-0.04301-4.3984 0.58008-0.5646 0.31151-1.0108 0.83621-1.2578 1.4941-0.24698 0.65794-0.33594 1.4394-0.33594 2.4258v1c0-0.98639 0.089-1.7678 0.33594-2.4258 0.24697-0.65793 0.69321-1.1826 1.2578-1.4941 1.1292-0.62309 2.5112-0.55818 4.3984-0.58008h6.8888l2.5879 2.5605 0.56632-0.56055h-0.12109l-3.0332-3h-6.8848z" color="#000000" color-rendering="auto" fill="#fff" image-rendering="auto" opacity=".4" shape-rendering="auto" solid-color="#000000" style="isolation:auto;mix-blend-mode:normal;shape-padding:0;text-decoration-color:#000000;text-decoration-line:none;text-decoration-style:solid;text-indent:0;text-transform:none;white-space:normal"/>
 <path d="m24.032 13-3.0312 3h-7.0118c-1.8873 0.02181-3.2692-0.0449-4.3984 0.57812-0.56462 0.31152-1.0108 0.83815-1.2578 1.4961-0.24699 0.65794-0.33594 1.4394-0.33594 2.4258v1c0-0.98638 0.089-1.7678 0.33594-2.4258 0.24697-0.65794 0.69319-1.1846 1.2578-1.4961 1.1292-0.62303 2.5112-0.55632 4.3984-0.57812h7.0118l3.0312-3h9.9748c1.8873 0.0219 3.2673-0.04296 4.3965 0.58008 0.56461 0.31152 1.0108 0.8362 1.2578 1.4941s0.33593 1.4394 0.33593 2.4258v-1c0-0.98638-0.0889-1.7678-0.33593-2.4258-0.24698-0.65794-0.69321-1.1826-1.2578-1.4941-1.1294-0.62304-2.5093-0.55818-4.3966-0.58008h-6e-3z" color="#000000" color-rendering="auto" fill="#fdfdfd" image-rendering="auto" shape-rendering="auto" solid-color="#000000" style="isolation:auto;mix-blend-mode:normal;shape-padding:0;text-decoration-color:#000000;text-decoration-line:none;text-decoration-style:solid;text-indent:0;text-transform:none;white-space:normal"/>
 <path d="m13.335 1.5c-10.011 0-11.887 0.90635-11.834 9.7484v25.504c-0.0527 8.842 1.8229 9.7484 11.834 9.7484h21.331c10.009 0 11.834-0.90625 11.834-9.7484v-25.504c0-8.8421-1.8254-9.7484-11.834-9.7484z" color="#000000" fill="none" opacity=".4" stroke="#000"/>
 <path d="m13.336 2c-4.9905 0-7.8705 0.27628-9.3848 1.4531-0.75713 0.58842-1.2376 1.4035-1.5449 2.6602-0.3073 1.2566-0.4173 2.94-0.4043 5.1328v25.508c-0.0131 2.1928 0.097 3.8762 0.4043 5.1328 0.30731 1.2566 0.78779 2.0717 1.5449 2.6602 1.5143 1.1768 4.3943 1.4531 9.3848 1.4531h21.33c4.9892 0 7.855-0.27668 9.3633-1.4531 0.75412-0.58824 1.2329-1.4046 1.543-2.6621 0.31003-1.2575 0.42773-2.9395 0.42773-5.1328v-25.504c0-2.1933-0.1177-3.8753-0.42773-5.1328-0.31004-1.2575-0.78884-2.0739-1.543-2.6621-1.5083-1.1765-4.374-1.4531-9.3633-1.4531zm2.4023 1.0977c6.9474 8.3e-4 13.911 0.0034 20.85 0.05469 2.143 0.08293 4.4643-0.1477 6.4238 0.93164 1.2961 0.69523 1.5486 2.2503 1.7695 3.5645 0.17551 2.2029 0.0915 4.4422 0.13867 6.6699 0.0227 8.4795 0.077 16.969-0.0801 25.447-0.16151 1.4832-0.38135 3.3058-1.7988 4.1426-1.6055 0.82871-3.4755 0.90643-5.248 0.95313-9.4997 0.0678-19.024 0.0843-28.523-0.0176-1.5782-0.11413-3.2705-0.24014-4.6328-1.1211-1.2295-0.99538-1.3608-2.7274-1.5039-4.1934-0.1272-8.9986-0.0836-18.004-0.0527-27.008 0.0997-2.3813-0.24538-4.9 0.70508-7.1602 0.67165-1.5097 2.4657-1.86 3.9394-2.0566 2.6617-0.31658 5.3418-0.14702 8.0137-0.20703z" color="#000000" fill="url(#linearGradient1686-0)"/>
 <ellipse cx="29.5" cy="28.497" rx="1.5" ry="1.5026" enable-background="new" fill="#fff"/>
 <circle transform="scale(-1,1)" cx="-36" cy="36" r="12" opacity=".1"/>
 <circle cx="36" cy="35" r="11.5" fill="#34be5b" stroke="#000" stroke-dashoffset="1" stroke-linecap="round" stroke-linejoin="round" stroke-opacity=".4"/>
 <rect transform="rotate(-90)" x="-43" y="28" width="16" height="16" color="#000000" fill="none"/>
 <circle transform="rotate(90)" cx="35" cy="-36" r="10.5" fill="none" opacity=".3" stroke="url(#linearGradient1214)" stroke-dashoffset="1" stroke-linecap="round" stroke-linejoin="round" stroke-opacity=".4"/>
 <path d="m37.308 27.019-2.6322 1.86e-4v1.7464c0.86819-0.1783 1.764-0.1766 2.6322 0.0053v-1.7514zm-5.3858 1.1906-2.0054 1.7049 0.98801 1.1776c0.54939-0.69591 1.236-1.2714 2.0174-1.6908zm8.1287 0.01271-0.99285 1.1835c0.0573 0.02933 0.11416 0.05947 0.17056 0.0905 0.71061 0.41285 1.3366 0.95679 1.8446 1.6029l1.0051-1.1977zm-11.61 4.2168-0.44056 2.5954 1.5154 0.2674c-0.0273-0.8866 0.12755-1.769 0.45509-2.5927zm15.086 0.0027-1.5228 0.26852c0.33 0.82317 0.4878 1.705 0.46366 2.5909l1.5329-0.26971zm-13.682 4.6946-1.3515 0.78058h-4.5e-4l1.331 2.271 1.3381-0.77238c-0.59006-0.66204-1.0384-1.4377-1.3172-2.2792zm12.301 0.0027c-0.13616 0.42225-0.31536 0.82932-0.53478 1.2148-0.22083 0.38188-0.48014 0.74014-0.77388 1.0692l1.3388 0.77313 1.3016-2.2881zm-9.5569 3.4716-0.53479 1.4688 2.4795 0.88448 0.52585-1.4453c-0.81119-0.11877-1.5928-0.39022-2.3034-0.79996-0.0563-0.03511-0.11203-0.07111-0.16721-0.10799zm6.8133 0.01529c-0.75448 0.46543-1.5968 0.77092-2.4747 0.89752l0.5303 1.4565 2.4676-0.91652z" color="#000000" fill="#fff"/>
 <path d="m35.974 28.745a6.2745 6.2745 0 0 0-6.2743 6.2743 6.2745 6.2745 0 0 0 6.2743 6.2743 6.2745 6.2745 0 0 0 6.2743-6.2743 6.2745 6.2745 0 0 0-6.2743-6.2743zm0 0.83637a5.4379 5.4379 0 0 1 5.4379 5.4379 5.4379 5.4379 0 0 1-5.4379 5.4379 5.4379 5.4379 0 0 1-5.4379-5.4379 5.4379 5.4379 0 0 1 5.4379-5.4379z" enable-background="new" fill="#fff" stroke="#fff" stroke-linecap="round" stroke-linejoin="round" stroke-width=".78431"/>
</svg>
