<svg width="48" height="48" version="1" xmlns="http://www.w3.org/2000/svg">
 <defs>
  <linearGradient id="linearGradient1686" x1="321" x2="367" y1="92" y2="76" gradientTransform="rotate(90 214 -106)" gradientUnits="userSpaceOnUse">
   <stop stop-color="#4d4d4d" offset="0"/>
   <stop stop-color="#4d4d4d" offset="1"/>
  </linearGradient>
  <filter id="filter194" x="-.020441" y="-.020359" width="1.0409" height="1.0407" color-interpolation-filters="sRGB">
   <feFlood flood-color="rgb(0,0,0)" flood-opacity=".49804" result="flood"/>
   <feComposite in="flood" in2="SourceGraphic" operator="in" result="composite1"/>
   <feGaussianBlur in="composite1" result="blur" stdDeviation="1.0220649"/>
   <feOffset dx="0" dy="2" result="offset"/>
   <feComposite in="SourceGraphic" in2="offset" result="composite2"/>
  </filter>
  <linearGradient id="linearGradient1202" x1="61.291" x2="77.655" y1="17.635" y2="17.635" gradientTransform="matrix(6.0386 4.5357 -13.477 17.942 1596.4 -2461.7)" gradientUnits="userSpaceOnUse">
   <stop stop-color="#fff" offset="0"/>
   <stop stop-color="#EDEDED" offset="1"/>
  </linearGradient>
  <linearGradient id="linearGradient1686-0" x1="322" x2="366" y1="84" y2="84" gradientTransform="rotate(90 214 -106)" gradientUnits="userSpaceOnUse">
   <stop stop-color="#fff" offset="0"/>
   <stop stop-color="#fff" stop-opacity=".098039" offset=".125"/>
   <stop stop-color="#fff" stop-opacity=".098039" offset=".925"/>
   <stop stop-color="#fff" stop-opacity=".49804" offset="1"/>
  </linearGradient>
 </defs>
 <path d="m13.658 2c-2.6221 0-4.6868 0.05009-6.3856 0.28674-1.6989 0.23664-3.089 0.6805-4.1074 1.5235-1.0183 0.84301-1.5558 1.9961-1.8383 3.4064-0.28252 1.4103-0.33767 3.1273-0.32482 5.3084v24.956c-0.0127 2.1777 0.0426 3.8939 0.32482 5.3027 0.28251 1.4103 0.81998 2.5634 1.8383 3.4064 1.0183 0.84301 2.4085 1.2869 4.1074 1.5235 1.6989 0.23665 3.7635 0.28674 6.3856 0.28674h20.686c2.6221 0 4.6857-0.05 6.381-0.28674s3.0813-0.6821 4.0958-1.5254c1.0146-0.84331 1.5488-1.9956 1.8337-3.4045 0.28483-1.4089 0.34554-3.1225 0.34554-5.3027v-24.962c0-2.1802-0.0608-3.8937-0.34554-5.3027-0.28482-1.4089-0.81911-2.5612-1.8337-3.4045-1.0146-0.84332-2.4005-1.2887-4.0958-1.5254-1.6953-0.23674-3.7589-0.28674-6.381-0.28674z" color="#000000" color-rendering="auto" dominant-baseline="auto" image-rendering="auto" opacity=".1" shape-rendering="auto" solid-color="#000000" style="font-feature-settings:normal;font-variant-alternates:normal;font-variant-caps:normal;font-variant-ligatures:normal;font-variant-numeric:normal;font-variant-position:normal;isolation:auto;mix-blend-mode:normal;shape-padding:0;text-decoration-color:#000000;text-decoration-line:none;text-decoration-style:solid;text-indent:0;text-orientation:mixed;text-transform:none;white-space:normal"/>
 <path d="m13.335 1.5c-10.011 0-11.887 0.90635-11.834 9.7484v25.504c-0.0527 8.842 1.8229 9.7484 11.834 9.7484h21.331c10.009 0 11.834-0.90625 11.834-9.7484v-25.504c0-8.8421-1.8254-9.7484-11.834-9.7484z" color="#000000" fill="url(#linearGradient1686)"/>
 <path d="m16.19 41.496c-1.1429 1.8012-3.7183 2.3776-5.52 1.2344s-2.3772-3.7188-1.2344-5.52c1.1429-1.8012 3.7183-2.3776 5.52-1.2344 1.8018 1.1432 2.3773 3.7188 1.2344 5.5201z" enable-background="new" opacity=".1" stroke-width="3.7797"/>
 <path d="m11.415 26.624c-1.1429 1.8012-3.7189 2.3772-5.52 1.2344-1.8012-1.1429-2.3772-3.7189-1.2344-5.5201s3.7188-2.3772 5.5201-1.2344c1.8012 1.1429 2.3772 3.7188 1.2344 5.52z" enable-background="new" opacity=".1" stroke-width="3.7797"/>
 <path d="m18.915 14.804c-1.1429 1.8012-3.7188 2.3772-5.52 1.2344-1.8012-1.1429-2.3772-3.7189-1.2344-5.5201s3.7188-2.3772 5.52-1.2344c1.8012 1.1429 2.3772 3.7188 1.2344 5.52z" enable-background="new" opacity=".1" stroke-width="3.7797"/>
 <path d="m34.404 12.79c-1.1429 1.8012-3.7189 2.3772-5.52 1.2344-1.8012-1.1428-2.3772-3.7188-1.2344-5.52s3.7188-2.3772 5.52-1.2344 2.3772 3.7189 1.2344 5.52z" enable-background="new" opacity=".1" stroke-width="3.7797"/>
 <path d="m29.336 27.802c-1.7293-0.14502-4.3262 1.0372-5.597 3.3192-2.251 4.0424-0.48167 10.167-5.3447 9.0988 6.428 4.9192 15.231-2.4236 15.295-7.1082 0.014-1.0134-0.20152-1.8599-0.55591-2.5593z" enable-background="new" fill-rule="evenodd" opacity=".1" stroke-width="3.7797"/>
 <path d="m19.286 40.817c6.3197 3.6585 14.342-3.2342 14.403-7.7054 0.014-1.0134-0.20152-1.8599-0.55591-2.5593l-3.6762-2.6623c-0.97652 0.56148-1.8878 1.3396-2.5873 2.3344-3.2797 4.6646-1.9001 12.399-7.7228 10.463 0.0461 0.0436 0.0924 0.0866 0.13887 0.12914z" enable-background="new" fill-rule="evenodd" opacity=".1" stroke-width="3.7797"/>
 <path d="m22.014 41.769c5.6819 0.82412 11.622-4.812 11.675-8.6572 0.014-1.0134-0.20152-1.8599-0.55591-2.5593l-3.6482-2.642c-0.78584 0.6826-1.4764 1.541-1.9513 2.5543-2.3388 4.9903 0.27245 12.121-5.5946 11.255 0.0249 0.0164 0.0498 0.0327 0.0747 0.0488z" enable-background="new" fill-rule="evenodd" opacity=".1" stroke-width="3.7797"/>
 <path d="m28.975 39.92c2.73-1.8272 4.6841-4.6105 4.7144-6.8086 0.014-1.0134-0.20152-1.8599-0.55591-2.5593l-3.6222-2.6233c-0.39768 0.68344-0.69836 1.451-0.84556 2.2764-0.64261 3.6035 1.3047 7.5886 0.30927 9.7147z" enable-background="new" fill-rule="evenodd" opacity=".1" stroke-width="3.7797"/>
 <path d="m33.134 35.294c0.34945-0.75329 0.54637-1.4964 0.55583-2.1826 0.014-1.0134-0.20152-1.8599-0.55591-2.5593l-3.4396-2.491c0.0252 0.18716 0.0604 0.37458 0.10657 0.56135 0.66449 2.6874 3.1555 4.8641 3.3331 6.6715z" enable-background="new" fill-rule="evenodd" opacity=".1" stroke-width="3.7797"/>
 <g transform="matrix(2.091 1.5707 -1.5707 2.091 381.56 -483.33)" enable-background="new" opacity=".1" stroke-width="4.9778">
  <path d="m10.2 231.51h1.0829v3.8806h-1.0829zm-0.21415 4.2265 1.3657-4e-3c0.15807-4.7e-4 0.29716 0.10426 0.34038 0.2563l0.24753 0.87061c0.05328 0.18741-0.05545 0.38253-0.24285 0.43581-0.03138 9e-3 -0.06385 0.0135-0.09648 0.0135h-1.8395c-0.19483 0-0.35278-0.15795-0.35278-0.35278 0-0.0301 0.00385-0.06 0.011448-0.0891l0.2263-0.86671c0.040458-0.15491 0.18017-0.26316 0.34028-0.26363zm0.21415-4.5793v-1.0583c0-0.19483 0.15794-0.35278 0.35278-0.35278h0.37739c0.19483 0 0.35278 0.15795 0.35278 0.35278v1.0583z"/>
  <path d="m10.2 231.51h1.0829v3.8806h-1.0829zm-0.21415 4.2265 1.3657-4e-3c0.15807-4.7e-4 0.29716 0.10426 0.34038 0.2563l0.24753 0.87061c0.05328 0.18741-0.05545 0.38253-0.24285 0.43581-0.03138 9e-3 -0.06385 0.0135-0.09648 0.0135h-1.8395c-0.19483 0-0.35278-0.15795-0.35278-0.35278 0-0.0301 0.00385-0.06 0.011448-0.0891l0.2263-0.86671c0.040458-0.15491 0.18017-0.26316 0.34028-0.26363zm0.21415-4.5793v-1.0583c0-0.19483 0.15794-0.35278 0.35278-0.35278h0.37739c0.19483 0 0.35278 0.15795 0.35278 0.35278v1.0583z"/>
 </g>
 <rect transform="matrix(0 .20089 -.20089 0 -6.5352 -7.3392)" x="96.353" y="-211.89" width="119.89" height="119.89" color="#000000" fill="none" filter="url(#filter194)" stroke-width="4.9778"/>
 <path d="m16.189 40.495c-1.1429 1.8012-3.7183 2.3775-5.5201 1.2343-1.8017-1.1432-2.3771-3.7187-1.2343-5.5199 1.1429-1.8012 3.7183-2.3775 5.5199-1.2343 1.8017 1.1432 2.3771 3.7187 1.2344 5.5201z" fill="#fff" opacity=".5" stroke-width="3.7798"/>
 <path d="m11.415 25.625c-1.1429 1.8012-3.7189 2.3771-5.5199 1.2343-1.8012-1.1429-2.3771-3.7189-1.2344-5.5201 1.1428-1.8012 3.7189-2.3771 5.5201-1.2343s2.3771 3.7189 1.2343 5.5201z" fill="#fff" opacity=".5" stroke-width="3.7798"/>
 <path d="m18.916 13.805c-1.1429 1.8012-3.7189 2.3771-5.5199 1.2343-1.8012-1.1429-2.3771-3.7189-1.2344-5.5201 1.1428-1.8012 3.7189-2.3771 5.5201-1.2343 1.8011 1.1428 2.3771 3.7189 1.2343 5.5201z" fill="#fff" opacity=".5" stroke-width="3.7798"/>
 <path d="m34.404 11.789c-1.1429 1.8012-3.7189 2.3771-5.5201 1.2343-1.8011-1.1428-2.3771-3.7189-1.2343-5.5199 1.1428-1.8012 3.7189-2.3771 5.5199-1.2343 1.8011 1.1428 2.3771 3.7189 1.2343 5.5201z" fill="#fff" opacity=".5" stroke-width="3.7798"/>
 <path d="m29.336 26.802c-1.7293-0.14502-4.3262 1.0372-5.5968 3.3191-2.251 4.0423-0.48167 10.167-5.3447 9.0987 6.4279 4.919 15.231-2.4235 15.295-7.1081 0.01396-1.0134-0.20151-1.8598-0.5559-2.5593z" fill="#fff" fill-rule="evenodd" opacity=".5" stroke-width="3.7798"/>
 <path d="m19.285 39.816c6.3196 3.6584 14.342-3.2341 14.403-7.7053 0.01396-1.0134-0.20151-1.8598-0.5559-2.5593l-3.6761-2.6622c-0.97651 0.56147-1.8878 1.3395-2.5873 2.3343-3.2797 4.6645-1.9001 12.399-7.7228 10.463 0.04611 0.04359 0.09242 0.0866 0.13887 0.12914z" fill="#fff" fill-rule="evenodd" opacity=".5" stroke-width="3.7798"/>
 <path d="m22.013 40.768c5.6818 0.82411 11.622-4.8119 11.675-8.6572 0.01396-1.0134-0.20151-1.8598-0.5559-2.5593l-3.6482-2.6419c-0.78584 0.68258-1.4764 1.541-1.9513 2.5543-2.3388 4.9903 0.27245 12.121-5.5946 11.255 0.02489 0.01637 0.04975 0.03267 0.07465 0.04881z" fill="#fff" fill-rule="evenodd" opacity=".5" stroke-width="3.7798"/>
 <path d="m33.133 34.293c0.34945-0.75328 0.54636-1.4964 0.55582-2.1825 0.01396-1.0134-0.20151-1.8598-0.5559-2.5593l-3.4396-2.491c0.02516 0.18716 0.06039 0.37458 0.10658 0.56135 0.66448 2.6873 3.1554 4.8642 3.3332 6.6714z" fill="#fff" fill-rule="evenodd" opacity=".5" stroke-width="3.7798"/>
 <path d="m39.27 15.811 2.2644 1.7009-6.0951 8.1146-2.2644-1.7009zm-7.0862 8.5015 2.862 2.1367c0.33127 0.24729 0.45762 0.68475 0.3092 1.0706l-0.84983 2.2093c-0.18294 0.47557-0.71677 0.7128-1.1923 0.52987-0.07975-0.03047-0.15472-0.07206-0.22295-0.12331l-3.8465-2.8892c-0.4074-0.30601-0.4896-0.88438-0.18359-1.2918 0.04728-0.06294 0.10229-0.11942 0.16388-0.16833l1.8345-1.4569c0.32791-0.26038 0.79008-0.2673 1.1256-0.0168zm7.6403-9.2393 1.6622-2.213c0.30601-0.4074 0.88436-0.48962 1.2918-0.18359l0.78915 0.59275c0.4074 0.30601 0.4896 0.88438 0.18359 1.2918l-1.6622 2.213z" fill="url(#linearGradient1202)" opacity=".5" stroke-width="13.018"/>
 <path d="m39.27 15.811 2.2644 1.7009-6.0951 8.1146-2.2644-1.7009zm-7.0862 8.5015 2.862 2.1367c0.33127 0.24729 0.45762 0.68475 0.3092 1.0706l-0.84983 2.2093c-0.18294 0.47557-0.71677 0.7128-1.1923 0.52987-0.07975-0.03047-0.15472-0.07206-0.22295-0.12331l-3.8465-2.8892c-0.4074-0.30601-0.4896-0.88438-0.18359-1.2918 0.04728-0.06294 0.10229-0.11942 0.16388-0.16833l1.8345-1.4569c0.32791-0.26038 0.79008-0.2673 1.1256-0.0168zm7.6403-9.2393 1.6622-2.213c0.30601-0.4074 0.88436-0.48962 1.2918-0.18359l0.78915 0.59275c0.4074 0.30601 0.4896 0.88438 0.18359 1.2918l-1.6622 2.213z" fill="#fff" opacity=".5" stroke-width="13.018"/>
 <path d="m13.335 1.5c-10.011 0-11.887 0.90635-11.834 9.7484v25.504c-0.0527 8.842 1.8229 9.7484 11.834 9.7484h21.331c10.009 0 11.834-0.90625 11.834-9.7484v-25.504c0-8.8421-1.8254-9.7484-11.834-9.7484z" color="#000000" fill="none" opacity=".4" stroke="#000"/>
 <path d="m13.336 2c-4.9905 0-7.8705 0.27628-9.3848 1.4531-0.75713 0.58842-1.2376 1.4035-1.5449 2.6602-0.3073 1.2566-0.4173 2.94-0.4043 5.1328v25.508c-0.0131 2.1928 0.097 3.8762 0.4043 5.1328 0.30731 1.2566 0.78779 2.0717 1.5449 2.6602 1.5143 1.1768 4.3943 1.4531 9.3848 1.4531h21.33c4.9892 0 7.855-0.27668 9.3633-1.4531 0.75412-0.58824 1.2329-1.4046 1.543-2.6621 0.31003-1.2575 0.42773-2.9395 0.42773-5.1328v-25.504c0-2.1933-0.1177-3.8753-0.42773-5.1328-0.31004-1.2575-0.78884-2.0739-1.543-2.6621-1.5083-1.1765-4.374-1.4531-9.3633-1.4531zm2.4023 1.0977c6.9474 8.3e-4 13.911 0.0034 20.85 0.05469 2.143 0.08293 4.4643-0.1477 6.4238 0.93164 1.2961 0.69523 1.5486 2.2503 1.7695 3.5645 0.17551 2.2029 0.0915 4.4422 0.13867 6.6699 0.0227 8.4795 0.077 16.969-0.0801 25.447-0.16151 1.4832-0.38135 3.3058-1.7988 4.1426-1.6055 0.82871-3.4755 0.90643-5.248 0.95313-9.4997 0.0678-19.024 0.0843-28.523-0.0176-1.5782-0.11413-3.2705-0.24014-4.6328-1.1211-1.2295-0.99538-1.3608-2.7274-1.5039-4.1934-0.1272-8.9986-0.0836-18.004-0.0527-27.008 0.0997-2.3813-0.24538-4.9 0.70508-7.1602 0.67165-1.5097 2.4657-1.86 3.9394-2.0566 2.6617-0.31658 5.3418-0.14702 8.0137-0.20703z" color="#000000" fill="url(#linearGradient1686-0)"/>
</svg>
