<svg width="48" height="48" version="1" xmlns="http://www.w3.org/2000/svg" xmlns:xlink="http://www.w3.org/1999/xlink">
 <defs>
  <linearGradient id="linearGradient1686" x1="321" x2="367" y1="92" y2="76" gradientTransform="rotate(90 214 -106)" gradientUnits="userSpaceOnUse">
   <stop stop-color="#31c6b7" offset="0"/>
   <stop stop-color="#5bdbc1" offset="1"/>
  </linearGradient>
  <linearGradient id="linearGradient1686-0" x1="322" x2="366" y1="84" y2="84" gradientTransform="rotate(90 214 -106)" gradientUnits="userSpaceOnUse">
   <stop stop-color="#fff" offset="0"/>
   <stop stop-color="#fff" stop-opacity=".098039" offset=".125"/>
   <stop stop-color="#fff" stop-opacity=".098039" offset=".925"/>
   <stop stop-color="#fff" stop-opacity=".49804" offset="1"/>
  </linearGradient>
 </defs>
 <path d="m13.658 2c-2.6221 0-4.6868 0.05009-6.3856 0.28674-1.6989 0.23664-3.089 0.6805-4.1074 1.5235-1.0183 0.84301-1.5558 1.9961-1.8383 3.4064-0.28252 1.4103-0.33767 3.1273-0.32482 5.3084v12.475 12.481c-0.0127 2.1777 0.0426 3.8939 0.32482 5.3027 0.28251 1.4103 0.81998 2.5634 1.8383 3.4064 1.0183 0.84301 2.4085 1.2869 4.1074 1.5235 1.6989 0.23665 3.7635 0.28674 6.3856 0.28674h20.686c2.6221 0 4.6857-0.05 6.381-0.28674 1.6953-0.23674 3.0813-0.6821 4.0958-1.5254 1.0146-0.84331 1.5488-1.9956 1.8337-3.4045 0.28483-1.4089 0.34554-3.1225 0.34554-5.3027v-12.481-12.481c0-2.1802-0.0608-3.8937-0.34554-5.3027-0.28482-1.4089-0.81911-2.5612-1.8337-3.4045-1.0146-0.84332-2.4005-1.2887-4.0958-1.5254-1.6953-0.23674-3.7589-0.28674-6.381-0.28674z" color="#000000" color-rendering="auto" dominant-baseline="auto" image-rendering="auto" opacity=".1" shape-rendering="auto" solid-color="#000000" style="font-feature-settings:normal;font-variant-alternates:normal;font-variant-caps:normal;font-variant-ligatures:normal;font-variant-numeric:normal;font-variant-position:normal;isolation:auto;mix-blend-mode:normal;shape-padding:0;text-decoration-color:#000000;text-decoration-line:none;text-decoration-style:solid;text-indent:0;text-orientation:mixed;text-transform:none;white-space:normal"/>
 <path d="m13.335 1.5c-10.011 0-11.887 0.90635-11.834 9.7484v12.752 12.752c-0.0527 8.842 1.8229 9.7484 11.834 9.7484h21.331c10.009 0 11.834-0.90625 11.834-9.7484v-12.752-12.752c0-8.8421-1.8254-9.7484-11.834-9.7484z" color="#000000" fill="url(#linearGradient1686)"/>
 <g transform="matrix(.044033 0 0 .044031 3.0965 2.3601)" clip-rule="evenodd" enable-background="new" fill-rule="evenodd" image-rendering="optimizeQuality" opacity=".2" shape-rendering="geometricPrecision" stroke-width="5.2631">
  <g transform="translate(-36.773 1.6764)" stroke-width="5.2631">
   <path transform="matrix(4.3151 0 0 4.3151 -60.568 -34.286)" d="m125.89 26.715c-2.9107 0.19698-5.79 0.52026-8.6289 0.96289l-4.1504 20.809c-7.7287 2.0254-15.003 5.1261-21.633 9.2188l-17.771-11.871c-8.3497 6.125-15.726 13.507-21.842 21.863l12.176 18.254c-3.7102 6.4448-6.6537 13.453-8.459 20.869l-21.803 4.3047c-0.79257 5.0497-1.2051 10.216-1.2051 15.475 0 5.2745 0.41374 10.459 1.2109 15.518l22.227 4.3906c1.9003 7.1192 4.8065 13.849 8.4727 20.041l-12.615 18.957c6.1273 8.3683 13.517 15.761 21.883 21.891l18.979-12.646c6.1922 3.6662 12.924 6.6251 20.043 8.5254l4.3965 22.227c5.0613 0.7972 10.243 1.2129 15.518 1.2129 5.2583 0 10.426-0.41287 15.471-1.2031l4.3086-21.803c7.4158-1.8053 14.428-4.6941 20.873-8.4043l18.236 12.131c8.366-6.1227 15.759-13.506 21.889-21.867l-11.832-17.752c4.0926-6.6325 7.1425-13.908 9.168-21.637l20.805-4.1562c0.44495-2.8389 0.76591-5.7162 0.96289-8.627v-13.596c-0.19698-2.8945-0.51671-5.7555-0.95703-8.5781l-20.393-4.0703c-1.9188-8.0323-4.9965-15.591-9.1309-22.48l11.379-17.033c-6.1204-8.3474-13.498-15.724-21.848-21.84l-17.012 11.346c-6.8874-4.1366-14.446-7.1612-22.479-9.0801l-4.0644-20.393c-2.8226-0.44031-5.6856-0.76005-8.5801-0.95703zm9.1992 41.604c15.543 0 30.163 6.0457 41.166 17.023l-16.039 16.074c-6.716-6.6997-15.639-10.393-25.127-10.393-19.615 0-35.574 15.959-35.574 35.576 0 19.615 15.957 35.574 35.574 35.574 9.4876 0 18.411-3.6886 25.127-10.391l16.039 16.072c-11.003 10.978-25.623 17.025-41.166 17.025-15.569 0-30.203-6.0625-41.211-17.07-11.008-11.008-17.07-25.645-17.07-41.211 0-15.569 6.0625-30.205 17.07-41.213 11.008-11.008 25.645-17.068 41.211-17.068z" stroke-width="5.2631"/>
  </g>
 </g>
 <g transform="matrix(.044033 0 0 .044031 3.0965 1.3602)" clip-rule="evenodd" enable-background="new" fill="#fff" fill-rule="evenodd" image-rendering="optimizeQuality" shape-rendering="geometricPrecision" stroke-width="5.2631">
  <g transform="translate(-36.773 1.6764)" fill="#fff" stroke-width="5.2631">
   <path transform="matrix(4.3151 0 0 4.3151 -60.568 -34.286)" d="m125.89 26.715c-2.9107 0.19698-5.79 0.52026-8.6289 0.96289l-4.1504 20.809c-7.7287 2.0254-15.003 5.1261-21.633 9.2188l-17.771-11.871c-8.3497 6.125-15.726 13.507-21.842 21.863l12.176 18.254c-3.7102 6.4448-6.6537 13.453-8.459 20.869l-21.803 4.3047c-0.79257 5.0497-1.2051 10.216-1.2051 15.475 0 5.2745 0.41374 10.459 1.2109 15.518l22.227 4.3906c1.9003 7.1192 4.8065 13.849 8.4727 20.041l-12.615 18.957c6.1273 8.3683 13.517 15.761 21.883 21.891l18.979-12.646c6.1922 3.6662 12.924 6.6251 20.043 8.5254l4.3965 22.227c5.0613 0.7972 10.243 1.2129 15.518 1.2129 5.2583 0 10.426-0.41287 15.471-1.2031l4.3086-21.803c7.4158-1.8053 14.428-4.6941 20.873-8.4043l18.236 12.131c8.366-6.1227 15.759-13.506 21.889-21.867l-11.832-17.752c4.0926-6.6325 7.1425-13.908 9.168-21.637l20.805-4.1562c0.44495-2.8389 0.76591-5.7162 0.96289-8.627v-13.596c-0.19698-2.8945-0.51671-5.7555-0.95703-8.5781l-20.393-4.0703c-1.9188-8.0323-4.9965-15.591-9.1309-22.48l11.379-17.033c-6.1204-8.3474-13.498-15.724-21.848-21.84l-17.012 11.346c-6.8874-4.1366-14.446-7.1612-22.479-9.0801l-4.0644-20.393c-2.8226-0.44031-5.6856-0.76005-8.5801-0.95703zm9.1992 41.604c15.543 0 30.163 6.0457 41.166 17.023l-16.039 16.074c-6.716-6.6997-15.639-10.393-25.127-10.393-19.615 0-35.574 15.959-35.574 35.576 0 19.615 15.957 35.574 35.574 35.574 9.4876 0 18.411-3.6886 25.127-10.391l16.039 16.072c-11.003 10.978-25.623 17.025-41.166 17.025-15.569 0-30.203-6.0625-41.211-17.07-11.008-11.008-17.07-25.645-17.07-41.211 0-15.569 6.0625-30.205 17.07-41.213 11.008-11.008 25.645-17.068 41.211-17.068z" fill="#fff" stroke-width="5.2631"/>
  </g>
 </g>
 <path d="m13.335 1.5c-10.011 0-11.887 0.90635-11.834 9.7484v12.752 12.752c-0.0527 8.842 1.8229 9.7484 11.834 9.7484h21.331c10.009 0 11.834-0.90625 11.834-9.7484v-12.752-12.752c0-8.8421-1.8254-9.7484-11.834-9.7484z" color="#000000" fill="none" opacity=".4" stroke="#000"/>
 <path d="m13.336 2c-4.9905 0-7.8705 0.27628-9.3848 1.4531-0.75713 0.58842-1.2376 1.4035-1.5449 2.6602-0.3073 1.2566-0.4173 2.94-0.4043 5.1328v12.754 12.754c-0.0131 2.1928 0.097 3.8762 0.4043 5.1328 0.30731 1.2566 0.78779 2.0717 1.5449 2.6602 1.5143 1.1768 4.3943 1.4531 9.3848 1.4531h21.33c4.9892 0 7.855-0.27668 9.3633-1.4531 0.75412-0.58824 1.2329-1.4046 1.543-2.6621 0.31003-1.2575 0.42773-2.9395 0.42773-5.1328v-12.752-12.752c0-2.1933-0.1177-3.8753-0.42773-5.1328-0.31004-1.2575-0.78884-2.0739-1.543-2.6621-1.5083-1.1765-4.374-1.4531-9.3633-1.4531zm2.4023 1.0977c6.9474 8.3e-4 13.911 0.0034 20.85 0.05469 2.143 0.08293 4.4643-0.1477 6.4238 0.93164 1.2961 0.69523 1.5486 2.2503 1.7695 3.5645 0.17551 2.2029 0.0915 4.4422 0.13867 6.6699 0.0227 8.4795 0.077 16.969-0.0801 25.447-0.16151 1.4832-0.38135 3.3058-1.7988 4.1426-1.6055 0.82871-3.4755 0.90643-5.248 0.95313-9.4997 0.0678-19.024 0.0843-28.523-0.0176-1.5782-0.11413-3.2705-0.24014-4.6328-1.1211-1.2295-0.99538-1.3608-2.7274-1.5039-4.1934-0.1272-8.9986-0.0836-18.004-0.0527-27.008 0.0997-2.3813-0.24538-4.9 0.70508-7.1602 0.67165-1.5097 2.4657-1.86 3.9394-2.0566 2.6617-0.31658 5.3418-0.14702 8.0137-0.20703z" color="#000000" fill="url(#linearGradient1686-0)"/>
</svg>
