<svg width="48" height="48" version="1" xmlns="http://www.w3.org/2000/svg" xmlns:xlink="http://www.w3.org/1999/xlink">
 <defs>
  <linearGradient id="linearGradient3194" x1="335.23" x2="352.27" y1="61.5" y2="106" gradientTransform="translate(-320,-60)" gradientUnits="userSpaceOnUse">
   <stop stop-color="#e8e8e8" offset="0"/>
   <stop stop-color="#f5f5f5" offset="1"/>
  </linearGradient>
  <linearGradient id="linearGradient1004" x1="344" x2="344" y1="62" y2="106" gradientUnits="userSpaceOnUse">
   <stop stop-color="#fff" offset="0"/>
   <stop stop-color="#fff" stop-opacity=".098039" offset=".125"/>
   <stop stop-color="#fff" stop-opacity=".098039" offset=".925"/>
   <stop stop-color="#fff" stop-opacity=".49804" offset="1"/>
  </linearGradient>
  <clipPath id="clipPath994">
   <path d="m335.73 62c-8.8242 0-9.7736 0.90635-9.7304 9.7484v24.504c-0.0433 8.842 0.90622 9.7484 9.7304 9.7484h16.539c8.8242 0 9.7304-0.90625 9.7304-9.7484v-24.504c0-8.8421-0.90622-9.7484-9.7304-9.7484z" color="#000000" fill="#cdcdcd"/>
  </clipPath>
  <clipPath id="clipPath994-5">
   <path d="m335.73 62c-8.8242 0-9.7736 0.90635-9.7304 9.7484v24.504c-0.0433 8.842 0.90622 9.7484 9.7304 9.7484h16.539c8.8242 0 9.7304-0.90625 9.7304-9.7484v-24.504c0-8.8421-0.90622-9.7484-9.7304-9.7484z" color="#000000" fill="#cdcdcd"/>
  </clipPath>
  <linearGradient id="linearGradient1188-5" x1="40" x2="40" y1="168" y2="136" gradientTransform="matrix(.16071 0 0 .1875 -.42856 -4.5)" gradientUnits="userSpaceOnUse" xlink:href="#linearGradient1186"/>
  <linearGradient id="linearGradient1186">
   <stop stop-color="#f00" offset="0"/>
   <stop stop-color="#f00" stop-opacity="0" offset="1"/>
  </linearGradient>
  <linearGradient id="linearGradient1188-5-1" x1="40" x2="40" y1="168" y2="136" gradientTransform="matrix(.16071 0 0 .1875 -.42856 -59.5)" gradientUnits="userSpaceOnUse" xlink:href="#linearGradient1186"/>
  <linearGradient id="linearGradient1214" x1="344" x2="366" y1="94" y2="94" gradientTransform="translate(-342,-106)" gradientUnits="userSpaceOnUse">
   <stop stop-color="#fff" offset="0"/>
   <stop stop-color="#fff" stop-opacity="0" offset="1"/>
  </linearGradient>
 </defs>
 <path d="m15.231 1.5c-2.2232 0-3.9737 0.05118-5.4141 0.29297-1.4404 0.24178-2.619 0.6953-3.4824 1.5566-0.86337 0.86134-1.3191 2.0395-1.5586 3.4805-0.23953 1.441-0.28629 3.1953-0.27539 5.4238v25.498c-0.0108 2.2251 0.0361 3.9785 0.27539 5.418 0.23953 1.441 0.69522 2.6191 1.5586 3.4805 0.86338 0.86134 2.042 1.3149 3.4824 1.5566 1.4404 0.24179 3.1909 0.29297 5.4141 0.29297h17.539c2.2232 0 3.9728-0.0511 5.4102-0.29297 1.4374-0.24189 2.6125-0.69694 3.4726-1.5586 0.8602-0.86165 1.3132-2.0389 1.5547-3.4785 0.24149-1.4396 0.29297-3.1904 0.29297-5.418v-25.504c0-2.2276-0.0515-3.9784-0.29297-5.418-0.24149-1.4396-0.69449-2.6169-1.5547-3.4785-0.86019-0.86165-2.0352-1.3167-3.4726-1.5586-1.4374-0.24189-3.187-0.29297-5.4102-0.29297z" color="#000000" color-rendering="auto" dominant-baseline="auto" image-rendering="auto" opacity=".1" shape-rendering="auto" solid-color="#000000" style="font-feature-settings:normal;font-variant-alternates:normal;font-variant-caps:normal;font-variant-ligatures:normal;font-variant-numeric:normal;font-variant-position:normal;isolation:auto;mix-blend-mode:normal;shape-padding:0;text-decoration-color:#000000;text-decoration-line:none;text-decoration-style:solid;text-indent:0;text-orientation:mixed;text-transform:none;white-space:normal"/>
 <path d="m15.232 1.5c-8.2315 0-9.7736 0.90635-9.7304 9.7484v25.504c-0.0433 8.842 1.4989 9.7484 9.7304 9.7484h17.539c8.2295 0 9.7304-0.90625 9.7304-9.7484v-25.504c0-8.8421-1.5009-9.7484-9.7304-9.7484z" color="#000000" fill="url(#linearGradient3194)"/>
 <path d="m15.232 1.5c-8.2315 0-9.7736 0.90635-9.7304 9.7484v25.504c-0.0433 8.842 1.4989 9.7484 9.7304 9.7484h17.539c8.2295 0 9.7304-0.90625 9.7304-9.7484v-25.504c0-8.8421-1.5009-9.7484-9.7304-9.7484z" color="#000000" fill="none" opacity=".4" stroke="#000"/>
 <path transform="translate(-320,-60)" d="m335.73 62c-8.8242 0-9.7736 0.90635-9.7304 9.7484v24.504c-0.0433 8.842 0.90622 9.7484 9.7304 9.7484h16.539c8.8242 0 9.7304-0.90625 9.7304-9.7484v-24.504c0-8.8421-0.90622-9.7484-9.7304-9.7484z" clip-path="url(#clipPath994)" color="#000000" fill="none" opacity=".7" stroke="url(#linearGradient1004)" stroke-width="2"/>
 <path transform="translate(-320,-60)" d="m335.73 62c-8.8242 0-9.7736 0.90635-9.7304 9.7484v24.504c-0.0433 8.842 0.90622 9.7484 9.7304 9.7484h16.539c8.8242 0 9.7304-0.90625 9.7304-9.7484v-24.504c0-8.8421-0.90622-9.7484-9.7304-9.7484z" clip-path="url(#clipPath994-5)" color="#000000" fill="none" opacity=".7" stroke="url(#linearGradient1004)" stroke-width="2"/>
 <path d="m24 9v1h16v-1zm0 3v1h16v-1zm0 3v1h16v-1zm0 3v1h16v-1zm0 3v1h16v-1zm-16 3v1h32v-1zm0 3v1h32v-1zm0 3v1h32v-1zm0 3v1h32v-1zm0 3v1h24v-1z" enable-background="new" fill="#c8c4b7" fill-opacity=".99608"/>
 <path d="m13.706 9-4.581 12.071h-1.1253v0.92857h3.25v-0.92857h-1.0405l1.0854-2.7876h5.386l1.0842 2.7876h-1.4057v0.92857h4.662v-0.92857h-1.2861l-4.5823-12.071zm0.28164 2.0898 2.3715 6.2692h-4.7031z" color="#bebebe" enable-background="new" fill="#5d5d5d" font-size="13.717" font-weight="400" letter-spacing="0" overflow="visible" stroke-width=".92857" word-spacing="0"/>
 <rect x="6" y="27" width="36" height="1" enable-background="new" fill="#f00"/>
 <rect x="6" y="21" width="36" height="6" enable-background="new" fill="url(#linearGradient1188-5)" opacity=".4"/>
 <rect transform="scale(1,-1)" x="6" y="-34" width="36" height="6" enable-background="new" fill="url(#linearGradient1188-5-1)" opacity=".4"/>
 <path d="m5.502 28v8.752c-0.0433 8.842 1.4989 9.748 9.7305 9.748h17.539c8.2295 0 9.7285-0.90592 9.7285-9.748v-8.752z" color="#000000" opacity=".45"/>
 <ellipse cx="29.5" cy="29.497" rx="1.5" ry="1.5026" enable-background="new" fill="#fff"/>
 <circle transform="scale(-1,1)" cx="-36" cy="37" r="12" opacity=".1"/>
 <circle cx="36" cy="36" r="11.5" fill="#34be5b" stroke="#000" stroke-dashoffset="1" stroke-linecap="round" stroke-linejoin="round" stroke-opacity=".4"/>
 <rect transform="rotate(-90)" x="-44" y="28" width="16" height="16" color="#000000" fill="none"/>
 <circle transform="rotate(90)" cx="36" cy="-36" r="10.5" fill="none" opacity=".3" stroke="url(#linearGradient1214)" stroke-dashoffset="1" stroke-linecap="round" stroke-linejoin="round" stroke-opacity=".4"/>
 <g transform="translate(-1)" fill="#fff" shape-rendering="auto">
  <path d="m37.084 30.404c-1.9952 2e-3 -3.69 1.23-4.5004 2.9867l-0.0555 0.12015-0.12845 9e-3c-1.8427 0.13215-3.3009 1.7281-3.3009 3.666 0 2.0266 1.5858 3.69 3.5468 3.69h8.5804c1.4703 0 2.6587-1.2476 2.6587-2.7613 0.0041-1.1016-0.65348-2.0981-1.668-2.5275l-0.12567-0.0536-9e-3 -0.13768c-0.12567-2.7659-2.2983-4.9902-4.9948-4.9921zm0 0.92411c2.1883 2e-3 3.9654 1.8039 4.0698 4.1095v9e-3l0.0471 0.71618 0.64965 0.27447c0.67575 0.28168 1.113 0.94523 1.1052 1.6773 9e-3 1.0295-0.78179 1.8372-1.729 1.8372h-8.5813c-1.4379 0-2.6217-1.2208-2.6217-2.765-2e-3 -1.4767 1.0942-2.6485 2.4434-2.7474l0.66814-0.0462 0.28647-0.61268v-4e-3c0.67276-1.4601 2.0451-2.447 3.6604-2.4489z" color="#000000" color-rendering="auto" dominant-baseline="auto" enable-background="new" image-rendering="auto" solid-color="#000000" stop-color="#000000" style="font-feature-settings:normal;font-variant-alternates:normal;font-variant-caps:normal;font-variant-east-asian:normal;font-variant-ligatures:normal;font-variant-numeric:normal;font-variant-position:normal;font-variation-settings:normal;inline-size:0;isolation:auto;mix-blend-mode:normal;shape-margin:0;shape-padding:0;text-decoration-color:#000000;text-decoration-line:none;text-decoration-style:solid;text-indent:0;text-orientation:mixed;text-transform:none;white-space:normal"/>
  <path d="m37.082 30.305-0.0078 2e-3c-2.031 0.0063-3.7565 1.2578-4.5801 3.043l-0.03125 0.06641-0.07031 0.0059c-1.8954 0.13584-3.3926 1.7763-3.3926 3.7636 0 2.078 1.6278 3.7891 3.6445 3.7891h8.582c1.526 0 2.7559-1.2941 2.7559-2.8594 0.0043-1.1405-0.67657-2.174-1.7266-2.6191h-2e-3l-0.06836-0.0293-0.0059-0.07617v-2e-3c-0.12875-2.814-2.3417-5.082-5.0917-5.0839zm2e-3 0.19726h0.0059c2.6405 4e-3 4.7692 2.1829 4.8926 4.8984l0.01367 0.19922 0.18164 0.07813c0.97822 0.41405 1.6114 1.3733 1.6074 2.4355v2e-3c0 1.4622-1.144 2.6621-2.5586 2.6621h-8.582c-1.9053 0-3.4473-1.6166-3.4473-3.5918 0-1.8885 1.419-3.44 3.209-3.5684l0.1875-0.01172 0.07813-0.17383c0.79583-1.7251 2.4573-2.9277 4.4121-2.9297zm-2e-3 0.72656c-1.6554 0.0019-3.063 1.0148-3.75 2.5059l-0.0098 0.02148v2e-3l-0.25195 0.54102-0.61133 0.04297c-1.4019 0.10276-2.5353 1.3202-2.5332 2.8457 0 1.5945 1.2251 2.8633 2.7188 2.8633h8.582c1.0032 0 1.8376-0.85712 1.8281-1.9375 0.0074-0.77113-0.45409-1.4708-1.166-1.7676l-0.59375-0.25-0.04297-0.65234v-0.0098c-0.10658-2.3537-1.9257-4.2011-4.168-4.2031l0.02734 0.0039-0.01563-0.0059zm0 0.19726h2e-3c2.1343 2e-3 3.8685 1.7582 3.9707 4.0156v0.0078l0.05078 0.78125 0.70703 0.29688c0.63898 0.26635 1.0523 0.89371 1.0449 1.5859v2e-3c0.0086 0.97862-0.73964 1.7383-1.6309 1.7383h-8.582c-1.3822 0-2.5234-1.1722-2.5234-2.666-0.0019-1.4279 1.057-2.5554 2.3535-2.6504l0.72461-0.04883 0.3125-0.66992c4.02e-4 -8.72e-4 0.0016-0.0011 2e-3 -2e-3 0.65894-1.4277 1.9941-2.3888 3.5684-2.3906z" color="#000000" color-rendering="auto" dominant-baseline="auto" enable-background="new" image-rendering="auto" solid-color="#000000" stop-color="#000000" style="font-feature-settings:normal;font-variant-alternates:normal;font-variant-caps:normal;font-variant-east-asian:normal;font-variant-ligatures:normal;font-variant-numeric:normal;font-variant-position:normal;font-variation-settings:normal;inline-size:0;isolation:auto;mix-blend-mode:normal;shape-margin:0;shape-padding:0;text-decoration-color:#000000;text-decoration-line:none;text-decoration-style:solid;text-indent:0;text-orientation:mixed;text-transform:none;white-space:normal"/>
 </g>
</svg>
