<svg width="48" height="48" version="1" xmlns="http://www.w3.org/2000/svg" xmlns:xlink="http://www.w3.org/1999/xlink">
 <defs>
  <linearGradient id="linearGradient1004" x1="344" x2="344" y1="62" y2="106" gradientUnits="userSpaceOnUse" xlink:href="#linearGradient927"/>
  <linearGradient id="linearGradient927">
   <stop stop-color="#fff" offset="0"/>
   <stop stop-color="#fff" stop-opacity=".098039" offset=".125"/>
   <stop stop-color="#fff" stop-opacity=".098039" offset=".925"/>
   <stop stop-color="#fff" stop-opacity=".49804" offset="1"/>
  </linearGradient>
  <clipPath id="clipPath994">
   <path d="m335.73 62c-8.8242 0-9.7736 0.90635-9.7304 9.7484v12.252 12.252c-0.0433 8.842 0.90622 9.7484 9.7304 9.7484h16.539c8.8242 0 9.7304-0.90625 9.7304-9.7484v-12.252-12.252c0-8.8421-0.90622-9.7484-9.7304-9.7484z" color="#000000" fill="#cdcdcd"/>
  </clipPath>
  <linearGradient id="linearGradient3194" x1="335.23" x2="352.27" y1="61.5" y2="106" gradientTransform="translate(-320,-60)" gradientUnits="userSpaceOnUse">
   <stop stop-color="#fee581" offset="0"/>
   <stop stop-color="#fff4c9" offset="1"/>
  </linearGradient>
  <clipPath id="clipPath994-6">
   <path d="m335.73 62c-8.8242 0-9.7736 0.90635-9.7304 9.7484v12.252 12.252c-0.0433 8.842 0.90622 9.7484 9.7304 9.7484h16.539c8.8242 0 9.7304-0.90625 9.7304-9.7484v-12.252-12.252c0-8.8421-0.90622-9.7484-9.7304-9.7484z" color="#000000" fill="#cdcdcd"/>
  </clipPath>
 </defs>
 <path transform="translate(-320,-60)" d="m335.73 62c-8.8242 0-9.7736 0.90635-9.7304 9.7484v12.252 12.252c-0.0433 8.842 0.90622 9.7484 9.7304 9.7484h16.539c8.8242 0 9.7304-0.90625 9.7304-9.7484v-12.252-12.252c0-8.8421-0.90622-9.7484-9.7304-9.7484z" clip-path="url(#clipPath994)" color="#000000" fill="none" opacity=".7" stroke="url(#linearGradient1004)" stroke-width="2"/>
 <path d="m15.231 1.5c-2.2232 0-3.9737 0.05118-5.4141 0.29297-1.4404 0.24178-2.619 0.6953-3.4824 1.5566-0.86337 0.86134-1.3191 2.0395-1.5586 3.4805-0.23953 1.441-0.28629 3.1953-0.27539 5.4238v12.746 12.752c-0.0108 2.2251 0.0361 3.9785 0.27539 5.418 0.23953 1.441 0.69522 2.6191 1.5586 3.4805 0.86338 0.86134 2.042 1.3149 3.4824 1.5566 1.4404 0.24179 3.1909 0.29297 5.4141 0.29297h17.539c2.2232 0 3.9728-0.0511 5.4102-0.29297 1.4374-0.24189 2.6125-0.69694 3.4726-1.5586 0.8602-0.86165 1.3132-2.0389 1.5547-3.4785 0.24149-1.4396 0.29297-3.1904 0.29297-5.418v-12.752-12.752c0-2.2276-0.0515-3.9784-0.29297-5.418-0.24149-1.4396-0.69449-2.6169-1.5547-3.4785-0.86019-0.86165-2.0352-1.3167-3.4726-1.5586-1.4374-0.24189-3.187-0.29297-5.4102-0.29297z" color="#000000" color-rendering="auto" dominant-baseline="auto" image-rendering="auto" opacity=".1" shape-rendering="auto" solid-color="#000000" style="font-feature-settings:normal;font-variant-alternates:normal;font-variant-caps:normal;font-variant-ligatures:normal;font-variant-numeric:normal;font-variant-position:normal;isolation:auto;mix-blend-mode:normal;shape-padding:0;text-decoration-color:#000000;text-decoration-line:none;text-decoration-style:solid;text-indent:0;text-orientation:mixed;text-transform:none;white-space:normal"/>
 <path d="m15.232 1.5c-8.2315 0-9.7737 0.90635-9.7304 9.7484v12.752 12.752c-0.0433 8.842 1.4989 9.7484 9.7304 9.7484h17.539c8.2295 0 9.7304-0.90625 9.7304-9.7484v-12.752-12.752c0-8.8421-1.5009-9.7484-9.7304-9.7484z" color="#000000" fill="url(#linearGradient3194)"/>
 <path d="m15.232 1.5c-8.2315 0-9.7737 0.90602-9.7305 9.748v0.75195h36.998v-0.75195c0-8.8421-1.501-9.748-9.7305-9.748z" enable-background="new" fill="#fdc92b"/>
 <path transform="translate(-320,-60)" d="m335.73 62c-8.8242 0-9.7736 0.90635-9.7304 9.7484v12.252 12.252c-0.0433 8.842 0.90622 9.7484 9.7304 9.7484h16.539c8.8242 0 9.7304-0.90625 9.7304-9.7484v-12.252-12.252c0-8.8421-0.90622-9.7484-9.7304-9.7484z" clip-path="url(#clipPath994-6)" color="#000000" fill="none" opacity=".7" stroke="url(#linearGradient1004)" stroke-width="2"/>
 <path d="m8 13c-0.55228 0-1 0.44772-1 1s0.44772 1 1 1 1-0.44772 1-1-0.44772-1-1-1zm4 0c-0.55228 0-1 0.44772-1 1s0.44772 1 1 1 1-0.44772 1-1-0.44772-1-1-1zm4 0c-0.55228 0-1 0.44772-1 1s0.44772 1 1 1 1-0.44772 1-1-0.44772-1-1-1zm4 0c-0.55228 0-1 0.44772-1 1s0.44772 1 1 1 1-0.44772 1-1-0.44772-1-1-1zm4 0c-0.55228 0-1 0.44772-1 1s0.44772 1 1 1 1-0.44772 1-1-0.44772-1-1-1zm4 0c-0.55228 0-1 0.44772-1 1s0.44772 1 1 1 1-0.44772 1-1-0.44772-1-1-1zm4 0c-0.55228 0-1 0.44772-1 1s0.44772 1 1 1 1-0.44772 1-1-0.44772-1-1-1zm4 0c-0.55228 0-1 0.44772-1 1s0.44772 1 1 1 1-0.44772 1-1-0.44772-1-1-1zm4 0c-0.55228 0-1 0.44772-1 1s0.44772 1 1 1 1-0.44772 1-1-0.44772-1-1-1z" color="#000000" fill="#fdc92b"/>
 <path d="m15.232 1.5c-8.2315 0-9.7737 0.90635-9.7304 9.7484v12.752 12.752c-0.0433 8.842 1.4989 9.7484 9.7304 9.7484h17.539c8.2295 0 9.7304-0.90625 9.7304-9.7484v-12.752-12.752c0-8.8421-1.5009-9.7484-9.7304-9.7484z" color="#000000" fill="none" opacity=".4" stroke="#000"/>
 <path d="m9 11.895v34.016c0.30793 0.10123 0.63918 0.18961 1 0.25976v-34.275z" color="#000000" fill="#ef5145" fill-opacity=".99608" opacity=".2"/>
 <g transform="matrix(1.6148 0 0 1.6148 -550.06 -247.67)" enable-background="new" fill="#1463a5">
  <path d="m355.5 163.98c-1.412 0-2.5 0.844-2.5 2.542v5.934c0 1.699 1.088 2.545 2.5 2.545s2.5-0.849 2.5-2.545v-5.933c0-1.696-1.088-2.543-2.5-2.543zm0 1c0.506 0 0.86 0.141 1.092 0.36 0.232 0.22 0.408 0.548 0.408 1.182v5.934c0 0.634-0.176 0.962-0.408 1.182-0.233 0.22-0.586 0.363-1.092 0.363s-0.86-0.142-1.092-0.361c-0.232-0.22-0.408-0.548-0.408-1.184v-5.933c0-0.636 0.176-0.963 0.408-1.182 0.232-0.22 0.586-0.361 1.092-0.361z" color="#000000" overflow="visible"/>
  <rect x="355" y="175.5" width="1" height="4" color="#000000" overflow="visible"/>
  <path d="m355.5 179c-0.833 0-1.668 0.159-2.5 0.458v0.542h5v-0.542c-0.833-0.293-1.667-0.458-2.5-0.458z" font-size="15" font-weight="400" letter-spacing="0" word-spacing="0"/>
  <path d="m351 171v1.5a4.49 4.49 0 0 0 4.5 4.5 4.49 4.49 0 0 0 4.5-4.5v-1.5h-1v1.5c0 1.939-1.561 3.5-3.5 3.5a3.492 3.492 0 0 1-3.5-3.5v-1.5z"/>
 </g>
</svg>
