<svg width="48" height="48" version="1" xmlns="http://www.w3.org/2000/svg" xmlns:xlink="http://www.w3.org/1999/xlink">
 <defs>
  <linearGradient id="linearGradient1686" x1="321.5" x2="366.5" y1="84" y2="84" gradientTransform="rotate(90 214 -106)" gradientUnits="userSpaceOnUse">
   <stop stop-color="#2f5fdd" offset="0"/>
   <stop stop-color="#5884f4" offset="1"/>
  </linearGradient>
  <linearGradient id="linearGradient1004" x1="344" x2="344" y1="62" y2="106" gradientUnits="userSpaceOnUse">
   <stop stop-color="#fff" offset="0"/>
   <stop stop-color="#fff" stop-opacity=".098039" offset=".125"/>
   <stop stop-color="#fff" stop-opacity=".098039" offset=".925"/>
   <stop stop-color="#fff" stop-opacity=".49804" offset="1"/>
  </linearGradient>
  <clipPath id="clipPath994">
   <path d="m335.73 62c-8.8242 0-9.7736 0.90635-9.7304 9.7484v12.252 12.252c-0.0433 8.842 0.90622 9.7484 9.7304 9.7484h16.539c8.8242 0 9.7304-0.90625 9.7304-9.7484v-12.252-12.252c0-8.8421-0.90622-9.7484-9.7304-9.7484z" color="#000000" fill="#cdcdcd"/>
  </clipPath>
 </defs>
 <path d="m13.433 1.5c-2.6791 0-4.7886 0.05118-6.5244 0.29297-1.7358 0.24178-3.1562 0.6953-4.1966 1.5566-1.0404 0.86134-1.5896 2.0395-1.8782 3.4805-0.28866 1.441-0.34501 3.1953-0.33188 5.4238v12.746 12.752c-0.013 2.2251 0.0435 3.9785 0.33188 5.418 0.28865 1.441 0.8378 2.6191 1.8782 3.4805 1.0404 0.86134 2.4608 1.3149 4.1966 1.5566 1.7358 0.24179 3.8453 0.29297 6.5244 0.29297h21.136c2.6791 0 4.7875-0.0511 6.5198-0.29297 1.7322-0.24189 3.1482-0.69694 4.1848-1.5586 1.0366-0.86165 1.5825-2.0389 1.8735-3.4785 0.29102-1.4396 0.35305-3.1904 0.35305-5.418v-12.752-12.752c0-2.2276-0.0621-3.9784-0.35305-5.418-0.29101-1.4396-0.83692-2.6169-1.8735-3.4785-1.0366-0.86165-2.4527-1.3167-4.1849-1.5586-1.7322-0.24189-3.8406-0.29297-6.5197-0.29297z" color="#000000" color-rendering="auto" dominant-baseline="auto" image-rendering="auto" opacity=".1" shape-rendering="auto" solid-color="#000000" style="font-feature-settings:normal;font-variant-alternates:normal;font-variant-caps:normal;font-variant-ligatures:normal;font-variant-numeric:normal;font-variant-position:normal;isolation:auto;mix-blend-mode:normal;shape-padding:0;text-decoration-color:#000000;text-decoration-line:none;text-decoration-style:solid;text-indent:0;text-orientation:mixed;text-transform:none;white-space:normal"/>
 <path d="m13.335 1.5c-10.011 0-11.887 0.90635-11.834 9.7484v12.752 12.752c-0.0527 8.842 1.8229 9.7484 11.834 9.7484h21.331c10.009 0 11.834-0.90625 11.834-9.7484v-12.752-12.752c0-8.8421-1.8254-9.7484-11.834-9.7484z" color="#000000" fill="url(#linearGradient1686)"/>
 <g transform="translate(-9.8695e-6 .99918)" enable-background="new" opacity=".1">
  <path d="m26.028 7.0004-5.028 0.4969v21.282l5-0.779v-9l7 10 5.943-2-7.943-9 8-9-6-2-7 10v-10z"/>
  <path d="m14.701 13.002c-0.0615 0.0075-0.12733 0.02186-0.17383 0.06836l-2.1328 2.1191c-0.08948 0.08925-0.09898 0.22403-0.0332 0.33203l2.2676 3.7207c-0.53334 0.86612-0.9446 1.8131-1.2227 2.8164l-4.1855 0.86328c-0.1271 0.026-0.2205 0.148-0.2205 0.278v2.9922c0 0.12675 0.097403 0.23442 0.2207 0.26367l4.0586 0.97852c0.25531 1.1288 0.68686 2.1887 1.2598 3.1562l-2.3652 3.5762c-0.0717 0.10875-0.05731 0.25345 0.03516 0.3457l2.1309 2.1172c0.09 0.08925 0.22989 0.10041 0.33789 0.03516l3.6934-2.2266c0.9117 0.54494 1.9071 0.96098 2.9648 1.2246l0.86133 4.1191c0.027 0.127 0.135 0.219 0.266 0.219h3.0137c0.126 0 0.23563-0.08478 0.26563-0.20703l1.0234-4.1445c1.0661-0.27618 2.0598-0.72303 2.9746-1.2852l3.709 2.4141c0.1095 0.0705 0.2527 0.05755 0.3457-0.0332l2.1211-2.1172c0.09-0.08925 0.11092-0.22673 0.04492-0.33398l-1.4473-2.3711-0.47461 0.15039c-0.069 0.021-0.14505-0.01106-0.18555-0.07031 0 0-0.4496-0.60826-0.80664-1.0918-0.16655-0.25344-0.97368-1.4388-1.8066-2.5254-1.314 2.814-4.137 4.613-7.241 4.616-4.4183 0-8-3.5817-8-8 0.0029-3.0337 1.4205-5.7296 4-7.0803v-3.2342c-0.55787 0.20737-0.92465 0.46281-1.4355 0.75391l-3.6914-2.4004c-0.05475-0.036-0.11113-0.04311-0.17188-0.03711z"/>
 </g>
 <g transform="translate(-9.8695e-6 -.50082)" enable-background="new" fill="#faf8f6">
  <path d="m26.028 7.0004-5.028 0.4969v21.282l5-0.779v-9l7 10 5.943-2-7.943-9 8-9-6-2-7 10v-10z"/>
  <path d="m14.701 13.002c-0.0615 0.0075-0.12733 0.02186-0.17383 0.06836l-2.1328 2.1191c-0.08948 0.08925-0.09898 0.22403-0.0332 0.33203l2.2676 3.7207c-0.53334 0.86612-0.9446 1.8131-1.2227 2.8164l-4.1855 0.86328c-0.1271 0.026-0.2205 0.148-0.2205 0.278v2.9922c0 0.12675 0.097403 0.23442 0.2207 0.26367l4.0586 0.97852c0.25531 1.1288 0.68686 2.1887 1.2598 3.1562l-2.3652 3.5762c-0.0717 0.10875-0.05731 0.25345 0.03516 0.3457l2.1309 2.1172c0.09 0.08925 0.22989 0.10041 0.33789 0.03516l3.6934-2.2266c0.9117 0.54494 1.9071 0.96098 2.9648 1.2246l0.86133 4.1191c0.027 0.127 0.135 0.219 0.266 0.219h3.0137c0.126 0 0.23563-0.08478 0.26563-0.20703l1.0234-4.1445c1.0661-0.27618 2.0598-0.72303 2.9746-1.2852l3.709 2.4141c0.1095 0.0705 0.2527 0.05755 0.3457-0.0332l2.1211-2.1172c0.09-0.08925 0.11092-0.22673 0.04492-0.33398l-1.4473-2.3711-0.47461 0.15039c-0.069 0.021-0.14505-0.01106-0.18555-0.07031 0 0-0.4496-0.60826-0.80664-1.0918-0.16655-0.25344-0.97368-1.4388-1.8066-2.5254-1.314 2.814-4.137 4.613-7.241 4.616-4.4183 0-8-3.5817-8-8 0.0029-3.0337 1.4205-5.7296 4-7.0803v-3.2342c-0.55787 0.20737-0.92465 0.46281-1.4355 0.75391l-3.6914-2.4004c-0.05475-0.036-0.11113-0.04311-0.17188-0.03711z"/>
 </g>
 <path d="m13.335 1.5c-10.011 0-11.887 0.90635-11.834 9.7484v12.752 12.752c-0.0527 8.842 1.8229 9.7484 11.834 9.7484h21.331c10.009 0 11.834-0.90625 11.834-9.7484v-12.752-12.752c0-8.8421-1.8254-9.7484-11.834-9.7484z" color="#000000" fill="none" opacity=".4" stroke="#000"/>
 <path transform="matrix(1.2162 0 0 1 -394.37 -60)" d="m335.73 62c-8.8242 0-9.7736 0.90635-9.7304 9.7484v12.252 12.252c-0.0433 8.842 0.90622 9.7484 9.7304 9.7484h16.539c8.8242 0 9.7304-0.90625 9.7304-9.7484v-12.252-12.252c0-8.8421-0.90622-9.7484-9.7304-9.7484z" clip-path="url(#clipPath994)" color="#000000" fill="none" opacity=".7" stroke="url(#linearGradient1004)" stroke-width="1.8136"/>
</svg>
