<svg width="48" height="48" version="1" xmlns="http://www.w3.org/2000/svg" xmlns:xlink="http://www.w3.org/1999/xlink">
 <defs>
  <linearGradient id="linearGradient8588" x1="13.735" x2="38.1" y1="249.69" y2="292.77" gradientTransform="matrix(.94488 0 0 .94488 .50001 -233.13)" gradientUnits="userSpaceOnUse">
   <stop stop-color="#cdcdcd" offset="0"/>
   <stop stop-color="#d9d9d9" offset="1"/>
  </linearGradient>
  <linearGradient id="linearGradient8590" x1="96" x2="96" y1="4" y2="188" gradientTransform="matrix(.23913 0 0 .23913 1.0435 1.0435)" gradientUnits="userSpaceOnUse">
   <stop stop-color="#fff" offset="0"/>
   <stop stop-color="#fff" stop-opacity=".098039" offset=".125"/>
   <stop stop-color="#fff" stop-opacity=".098039" offset=".925"/>
   <stop stop-color="#fff" stop-opacity=".49804" offset="1"/>
  </linearGradient>
 </defs>
 <circle transform="scale(-1)" cx="-24" cy="-25" r="23" enable-background="new" opacity=".1"/>
 <circle cx="24" cy="24" r="22.5" enable-background="new" fill="url(#linearGradient8588)"/>
 <path d="m24 1.5a22.5 22.5 0 0 0-22.5 22.5h22.5zm0 22.5v22.5a22.5 22.5 0 0 0 22.5-22.5z" enable-background="new" fill="#fff" opacity=".2"/>
 <path d="m39.91 8.0901a22.5 22.5 0 0 0-31.82 0l15.91 15.91zm-15.91 15.91-15.91 15.91a22.5 22.5 0 0 0 31.82 0z" enable-background="new" opacity=".02"/>
 <path d="m17.862 2.3536a22.5 22.5 0 0 0-0.40855 0.13831 22.5 22.5 0 0 1 1.088-0.29479 22.5 22.5 0 0 0-0.6795 0.15648zm1.7718-0.40813a22.5 22.5 0 0 1 1.1084-0.18407 22.5 22.5 0 0 0-1.1084 0.18407zm-3.2422 0.9057a22.5 22.5 0 0 0-1.0521 0.40174 22.5 22.5 0 0 1 1.0521-0.40174zm5.4682-1.2316a22.5 22.5 0 0 1 1.1167-0.0726 22.5 22.5 0 0 0-1.1167 0.0726zm-7.5398 2.0962a22.5 22.5 0 0 0-1.0113 0.50698 22.5 22.5 0 0 1 1.0113-0.50698zm9.7847-2.1985a22.5 22.5 0 0 1 1.1221 0.0401 22.5 22.5 0 0 0-1.1221-0.0401zm-11.759 3.2655a22.5 22.5 0 0 0-0.95681 0.60572 22.5 22.5 0 0 1 0.95681-0.60572zm14-3.1432a22.5 22.5 0 0 1 1.1156 0.15198 22.5 22.5 0 0 0-1.1156-0.15198zm-15.86 4.4029a22.5 22.5 0 0 0-0.89167 0.69875 22.5 22.5 0 0 1 0.89167-0.69875zm18.085-4.0566a22.5 22.5 0 0 1 1.087 0.26077 22.5 22.5 0 0 0-1.087-0.26077zm-20.134 5.7842a22.5 22.5 0 0 0-0.25517 0.23777 22.5 22.5 0 0 1 0.25517-0.23777zm-0.33667 0.32622a22.5 22.5 0 0 0-3.5821 4.6535l19.485 11.25zm15.903 15.903 15.903 15.903a22.5 22.5 0 0 0 3.5821-4.6535zm6.742-21.448a22.5 22.5 0 0 1 1.0578 0.36852 22.5 22.5 0 0 0-1.0578-0.36852zm2.1063 0.77975a22.5 22.5 0 0 1 1.021 0.47508 22.5 22.5 0 0 0-1.021-0.47508zm2.0192 0.98671a22.5 22.5 0 0 1 0.36907 0.21917l0.0133-0.0231a22.5 22.5 0 0 0-0.38236-0.1961zm-22.104 39.144-0.0133 0.0231a22.5 22.5 0 0 0 0.38239 0.1961 22.5 22.5 0 0 1-0.36907-0.21917zm1.3673 0.7308a22.5 22.5 0 0 0 1.021 0.47508 22.5 22.5 0 0 1-1.021-0.47508zm2.0695 0.88631a22.5 22.5 0 0 0 1.0578 0.36852 22.5 22.5 0 0 1-1.0578-0.36852zm23.622-5.0876a22.5 22.5 0 0 1-0.25516 0.23776 22.5 22.5 0 0 0 0.25516-0.23776zm-21.477 5.7611a22.5 22.5 0 0 0 1.087 0.26078 22.5 22.5 0 0 1-1.087-0.26078zm20.064-4.4946a22.5 22.5 0 0 1-0.89166 0.69875 22.5 22.5 0 0 0 0.89166-0.69875zm-17.868 4.9497a22.5 22.5 0 0 0 1.1156 0.15198 22.5 22.5 0 0 1-1.1156-0.15198zm16.072-3.5969a22.5 22.5 0 0 1-0.95681 0.60572 22.5 22.5 0 0 0 0.95681-0.60572zm-13.838 3.831a22.5 22.5 0 0 0 1.1221 0.0401 22.5 22.5 0 0 1-1.1221-0.0401zm11.918-2.6654a22.5 22.5 0 0 1-1.0113 0.50699 22.5 22.5 0 0 0 1.0113-0.50699zm-9.6678 2.6758a22.5 22.5 0 0 0 1.1167-0.0726 22.5 22.5 0 0 1-1.1167 0.0726zm7.637-1.7059a22.5 22.5 0 0 1-1.0521 0.40174 22.5 22.5 0 0 0 1.0521-0.40174zm-5.4026 1.4915a22.5 22.5 0 0 0 1.1084-0.18407 22.5 22.5 0 0 1-1.1084 0.18407zm3.2887-0.73051a22.5 22.5 0 0 1-1.0881 0.29479 22.5 22.5 0 0 0 1.0881-0.29479z" enable-background="new" fill="#faf8f6"/>
 <circle transform="scale(1,-1)" cx="24" cy="-24" r="8.0357" enable-background="new" fill="#aea795"/>
 <circle cx="24" cy="24" r="7" enable-background="new" fill="#faf8f6"/>
 <circle cx="24" cy="24" r="3" enable-background="new" fill="#4d4d4d"/>
 <g transform="matrix(.67287 0 0 .67287 1.2952 -151.53)" enable-background="new" fill="#4d4d4d" stroke-width="5.6173">
  <path d="m34.383 240.13c-0.56577 0.38831-1.0914 0.79614-1.5822 1.2195-2.78e-4 3.5e-4 -7.5e-4 6.5e-4 -1e-3 1e-3v3.5e-4l-0.0027 3e-3s-1.3473 1.2432-1.9037 1.9662c-0.80343 1.0439-1.4887 2.1882-2.0408 3.3842-0.54747 1.1861-0.95904 2.4418-1.2411 3.7174-0.29554 1.3366-0.45352 2.7116-0.46303 4.0805-0.01394 2.0058 0.15208 4.0889 0.59529 5.9879l0.0024 0.0254h0.0038c0.4241 1.8076 0.50465 2.6612 1.3126 4.1041 9.1637-1.6063 15.237 5.4764 13.188 13.123-1.0808 4.0336-4.4089 5.9763-7.6002 6.7049-4.4976 0.78204-8.2898-1.6457-9.2028-5.0529-0.17824-1.1236 0.09916-2.6338 0.74162-3.0149-0.37102 0.12926-0.82268 0.27779-1.3637 0.78797-0.91113 0.85899-0.93351 1.1625-2.1246 1.496 0.5829-1.6427-2.6168-2.9782-2.0389-6.5019 0.01318-0.0816-0.14458 0.67468-0.13211 0.59088-1.4097 7.7862 6.5656 16.551 15.414 14.18 5.9954-1.4965 9.5693-5.8987 10.751-10.868 0.68239-2.8694 0.47145-5.8283-0.14838-8.3117-0.5049-2.0227-1.536-4.1568-3.0874-6.1164-0.49705-0.62784-1.0152-1.2026-1.5437-1.7371l-0.01217-0.0152-0.04512-0.0406c-1.1897-1.1951-2.4232-2.1827-3.605-3.117 0 0-2.3909-1.9556-3.5006-3.0273-0.06831-0.066-0.13271-0.13611-0.19375-0.20886-0.38663-0.46079-0.75716-0.93712-1.0897-1.4384-0.09123-0.13752-0.17861-0.27883-0.24733-0.42887-0.35151-0.76743-0.65632-1.5658-0.83471-2.3908-0.23267-1.076-0.32722-2.1889-0.29681-3.2894 0.02589-0.9372 0.15417-1.8802 0.40707-2.7831 0.45781-1.0719 1.2025-2.0619 1.885-3.0298z"/>
  <path d="m37.034 244.1c-0.30107 0.48158-0.52836 1.0243-0.79247 1.5365-0.23443 0.45466-0.50801 0.89119-0.70315 1.364-0.4269 1.0344-0.67573 2.1337-1.014 3.2004-0.04062 0.12809-0.1381 0.25084-0.12197 0.38425 0.12206 1.0092 0.96935 1.7972 1.589 2.603 0.23825 0.30982 0.81032 0.84744 0.81032 0.84744 0.09672 0.10696 0.19598 0.21241 0.30157 0.31582 0 0-0.1971-1.2226-0.28373-1.8356-0.0076-0.054-0.01701-0.10784-0.02078-0.16222-0.1508-2.1752-0.25347-4.3681-0.07214-6.541 0.04823-0.578 0.30731-1.7127 0.30731-1.7127z"/>
  <path d="m21.398 261.42s0.36431 2.4006 0.10716 3.5594c-0.12169 0.54839-0.61971 0.96055-0.75846 1.5049-0.21881 0.85845-0.29064 1.7944-0.08587 2.6563 0.11679 0.49157 0.49078 0.88344 0.72513 1.331 0.05474 0.10455 0.10524 0.21393 0.15902 0.31633 0.29002-1.2994 1.239-2.3543 1.6141-3.6216 0.14506-0.49003 0.2643-1.004 0.23871-1.5145-0.0456-0.90964-0.2788-1.8319-0.69319-2.6429-0.312-0.61065-1.3066-1.589-1.3066-1.589z"/>
  <path d="m31.954 266.02c-5.0927 0-9.2211 4.1284-9.2211 9.2211 0.0019 0.47449 0.04055 0.94847 0.11528 1.4172 0.10417 0.16171 0.2118 0.32139 0.29863 0.49223 0.07741 0.15208 0.11644 0.3295 0.16764 0.50287 0.02788-0.0203 0.10068-0.0355 0.12836-0.0578 0.19821-0.16526 0.45081-0.45725 0.93259-0.91166 0.6256-0.58976 1.2098-0.86153 1.5927-0.94041 0.84951-0.17489 1.0763-0.0203 1.8133 0.0938-0.60043 0.24891-0.78515 0.52275-1.2475 1.114-0.01622 0.0203-0.26994 0.32495-0.37721 0.80162-0.10519 0.46739-0.11812 1.0477-0.04968 1.5063 0.83391 3.014 4.2423 5.2519 8.4274 4.5242 0.88502-0.20429 1.7644-0.51677 2.6013-0.92738 2.5232-1.714 4.0354-4.565 4.0395-7.6153 0-5.0927-4.1284-9.2211-9.2211-9.2211z"/>
  <path d="m37.515 234.41s0.03784 1.2402-0.16348 1.8123c-0.09528 0.2708-0.37309 0.44951-0.47677 0.71721-0.16351 0.42217-0.25728 0.89262-0.20612 1.3424 0.02918 0.25652 0.19093 0.47975 0.28647 0.71959 0.07691 0.19307 0.15477 0.40453 0.23086 0.57917l0.15284 0.38425 0.33868-1.1934c0.05211-0.17794 0.10326-0.35587 0.15319-0.541 0 0 0.40243-1.0148 0.44002-1.5509 0.03255-0.46429-0.02937-0.94646-0.18995-1.3833-0.12094-0.329-0.56574-0.88642-0.56574-0.88642z"/>
 </g>
 <circle cx="24" cy="24" r="22.5" enable-background="new" fill="none" opacity=".4" stroke="#000" stroke-dashoffset="6.6" stroke-linejoin="round"/>
 <path d="m24 2a22 22 0 0 0-22 22 22 22 0 0 0 22 22 22 22 0 0 0 22-22 22 22 0 0 0-22-22zm0 0.95653a21.043 21.043 0 0 1 21.043 21.043 21.043 21.043 0 0 1-21.043 21.043 21.043 21.043 0 0 1-21.043-21.043 21.043 21.043 0 0 1 21.043-21.043z" enable-background="new" fill="url(#linearGradient8590)"/>
</svg>
