<svg width="48" height="48" version="1" xmlns="http://www.w3.org/2000/svg" xmlns:xlink="http://www.w3.org/1999/xlink">
 <defs>
  <linearGradient id="linearGradient951" x1="512" x2="-1e-6" y1="397.99" y2="125.99" gradientTransform="matrix(0 -.11328 -.11328 0 59.489 52)" gradientUnits="userSpaceOnUse">
   <stop stop-color="#f8367b" offset="0"/>
   <stop stop-color="#f29cbb" offset="1"/>
  </linearGradient>
  <linearGradient id="linearGradient1015" x1="256" x2="256" y1="24" y2="664" gradientTransform="matrix(.09375 0 0 .125 -6.0425e-8 -1)" gradientUnits="userSpaceOnUse">
   <stop stop-color="#f29cbb" offset="0"/>
   <stop stop-color="#fac4d7" offset="1"/>
  </linearGradient>
  <linearGradient id="linearGradient925" x1="344" x2="344" y1="61" y2="107" gradientTransform="translate(-320 -60)" gradientUnits="userSpaceOnUse">
   <stop stop-color="#fff" offset="0"/>
   <stop stop-color="#fff" stop-opacity=".098039" offset=".125"/>
   <stop stop-color="#fff" stop-opacity=".098039" offset=".925"/>
   <stop stop-opacity=".49804" offset="1"/>
  </linearGradient>
 </defs>
 <path d="m15.73 2c-2.2232 0-3.9737 0.05118-5.4141 0.29297-1.4404 0.24178-2.6191 0.6953-3.4824 1.5566-0.86337 0.86134-1.3191 2.0395-1.5586 3.4805-0.23953 1.441-0.28629 3.1953-0.27539 5.4238v12.246 12.252c-0.0108 2.2251 0.0361 3.9785 0.27539 5.418 0.23953 1.441 0.69522 2.6191 1.5586 3.4805 0.86338 0.86134 2.042 1.3149 3.4824 1.5566 1.4404 0.24179 3.1909 0.29297 5.4141 0.29297h16.539c2.2232 0 3.9728-0.0511 5.4102-0.29297 1.4374-0.24189 2.6125-0.69694 3.4726-1.5586 0.8602-0.86165 1.3132-2.0389 1.5547-3.4785 0.24149-1.4396 0.29297-3.1904 0.29297-5.418v-12.252-12.252c0-2.2276-0.0515-3.9784-0.29297-5.418-0.24149-1.4396-0.69449-2.6169-1.5547-3.4785-0.86019-0.86165-2.0352-1.3167-3.4726-1.5586-1.4374-0.24189-3.187-0.29297-5.4102-0.29297z" color="#000000" color-rendering="auto" dominant-baseline="auto" image-rendering="auto" opacity=".1" shape-rendering="auto" solid-color="#000000" style="font-feature-settings:normal;font-variant-alternates:normal;font-variant-caps:normal;font-variant-ligatures:normal;font-variant-numeric:normal;font-variant-position:normal;isolation:auto;mix-blend-mode:normal;shape-padding:0;text-decoration-color:#000000;text-decoration-line:none;text-decoration-style:solid;text-indent:0;text-orientation:mixed;text-transform:none;white-space:normal"/>
 <path d="m15.73 1c-2.2228 0-3.9747 0.05331-5.4141 0.29492-1.4411 0.24191-2.6187 0.69492-3.4824 1.5566-0.8639 0.86188-1.319 2.0369-1.5586 3.4785-0.23931 1.4397-0.28629 3.1936-0.27539 5.4219v12.248 12.252c-0.0108 2.226 0.0362 3.9793 0.27539 5.418 0.23963 1.4416 0.69468 2.6166 1.5586 3.4785 0.86376 0.86171 2.0413 1.3147 3.4824 1.5566 1.4393 0.24161 3.1912 0.29492 5.4141 0.29492h16.539c2.2228 0 3.9718-0.0532 5.4082-0.29492 1.438-0.24198 2.6136-0.69415 3.4746-1.5566 0.86073-0.86218 1.3131-2.0382 1.5547-3.4785 0.24138-1.4389 0.29297-3.1909 0.29297-5.418v-12.252-12.252c0-2.227-0.0516-3.9791-0.29297-5.418-0.2416-1.4403-0.69396-2.6163-1.5547-3.4785-0.86102-0.86248-2.0366-1.3147-3.4746-1.5566-1.4364-0.24171-3.1854-0.29492-5.4082-0.29492z" color="#000000" fill="url(#linearGradient951)"/>
 <rect x="22" y="2" width="4" height="44" color="#000000" fill="url(#linearGradient1015)" opacity=".6"/>
 <path d="m15.732 1.5c-2.2146 0-3.9472 0.05465-5.332 0.28711-1.3848 0.23246-2.4455 0.65434-3.2109 1.418s-1.1878 1.8223-1.418 3.207c-0.23017 1.3847-0.28039 3.1184-0.26953 5.3379v12.25 12.252c-0.0108 2.2183 0.0394 3.9518 0.26953 5.3359 0.23017 1.3847 0.65253 2.4434 1.418 3.207s1.8261 1.1855 3.2109 1.418c1.3848 0.23246 3.1174 0.28711 5.332 0.28711h16.539c2.2146 0 3.9445-0.0546 5.3262-0.28711 1.3816-0.2325 2.4406-0.65418 3.2031-1.418 0.76249-0.76378 1.1838-1.823 1.416-3.207 0.23217-1.384 0.28516-3.1169 0.28516-5.3359v-12.252-12.252c0-2.2191-0.053-3.952-0.28516-5.3359s-0.65352-2.4432-1.416-3.207-1.8215-1.1855-3.2031-1.418c-1.3816-0.2325-3.1116-0.28711-5.3262-0.28711z" color="#000000" fill="none" opacity=".3" stroke="url(#linearGradient925)"/>
 <rect x="8" y="32" width="11" height="8" color="#000000" fill="#f9f9f9"/>
 <path d="m9 34v4h1v-4zm2 0v4h0.5v-4zm1.5 0v4h0.5v-4zm1.5 0v4h1v-4zm2 0v4h0.5v-4zm1.5 0v4h0.5v-4z" color="#000000" fill="#5d5d5d"/>
 <g transform="matrix(.15183 0 0 .15183 26.242 29.275)" enable-background="new">
  <g fill="#d70751">
   <path d="m60.969 47.645c-1.494 0.02 0.281 0.768 2.232 1.069 0.541-0.422 1.027-0.846 1.463-1.26-1.213 0.297-2.449 0.304-3.695 0.191"/>
   <path d="m68.986 45.646c0.893-1.229 1.541-2.573 1.77-3.963-0.201 0.99-0.736 1.845-1.244 2.749-2.793 1.759-0.264-1.044-2e-3 -2.111-3.002 3.783-0.414 2.268-0.524 3.325"/>
   <path d="m71.949 37.942c0.182-2.691-0.529-1.839-0.768-0.814 0.278 0.146 0.499 1.898 0.768 0.814"/>
   <path d="m55.301 1.163c0.798 0.142 1.724 0.252 1.591 0.443 0.876-0.193 1.073-0.367-1.591-0.443"/>
   <path d="m56.893 1.606-0.561 0.117 0.523-0.048 0.038-0.069"/>
   <path d="m81.762 38.962c0.09 2.416-0.705 3.59-1.424 5.666l-1.293 0.643c-1.057 2.054 0.105 1.304-0.652 2.937-1.652 1.467-5.006 4.589-6.08 4.875-0.785-0.017 0.531-0.926 0.703-1.281-2.209 1.516-1.773 2.276-5.152 3.199l-0.098-0.221c-8.33 3.92-19.902-3.847-19.75-14.443-0.088 0.672-0.253 0.504-0.437 0.774-0.43-5.451 2.518-10.926 7.49-13.165 4.863-2.406 10.564-1.42 14.045 1.829-1.912-2.506-5.721-5.163-10.232-4.917-4.421 0.072-8.558 2.881-9.938 5.932-2.264 1.425-2.528 5.496-3.514 6.242-1.329 9.76 2.497 13.975 8.97 18.936 1.016 0.686 0.286 0.791 0.422 1.313-2.15-1.006-4.118-2.526-5.738-4.387 0.86 1.257 1.787 2.479 2.986 3.439-2.029-0.685-4.738-4.913-5.527-5.085 3.495 6.258 14.178 10.975 19.775 8.634-2.59 0.096-5.879 0.053-8.787-1.022-1.225-0.629-2.884-1.93-2.587-2.173 7.636 2.851 15.522 2.158 22.128-3.137 1.682-1.31 3.518-3.537 4.049-3.567-0.799 1.202 0.137 0.578-0.477 1.639 1.672-2.701-0.729-1.1 1.73-4.664l0.908 1.25c-0.34-2.244 2.785-4.966 2.467-8.512 0.717-1.084 0.799 1.168 0.039 3.662 1.055-2.767 0.279-3.212 0.549-5.496 0.291 0.768 0.678 1.583 0.875 2.394-0.688-2.675 0.703-4.503 1.049-6.058-0.342-0.15-1.061 1.182-1.227-1.976 0.025-1.372 0.383-0.719 0.52-1.057-0.268-0.155-0.975-1.207-1.404-3.224 0.309-0.475 0.832 1.229 1.256 1.298-0.273-1.603-0.742-2.826-0.762-4.057-1.24-2.59-0.439 0.346-1.443-1.112-1.32-4.114 1.094-0.955 1.258-2.823 1.998 2.895 3.137 7.385 3.662 9.244-0.4-2.267-1.045-4.464-1.834-6.589 0.609 0.257-0.979-4.663 0.791-1.405-1.889-6.945-8.078-13.435-13.773-16.479 0.695 0.637 1.574 1.437 1.26 1.563-2.834-1.685-2.336-1.818-2.742-2.53-2.305-0.939-2.459 0.077-3.984 2e-3 -4.35-2.308-5.188-2.063-9.191-3.507l0.182 0.852c-2.881-0.96-3.357 0.362-6.47 2e-3 -0.189-0.147 0.998-0.536 1.976-0.677-2.786 0.368-2.656-0.55-5.382 0.101 0.671-0.471 1.383-0.784 2.099-1.184-2.271 0.138-5.424 1.322-4.451 0.244-3.705 1.654-10.286 3.975-13.979 7.438l-0.116-0.776c-1.692 2.031-7.379 6.066-7.832 8.699l-0.453 0.105c-0.879 1.491-1.45 3.18-2.148 4.713-1.151 1.963-1.688 0.756-1.524 1.064-2.265 4.592-3.392 8.45-4.363 11.616 0.692 1.035 0.017 6.232 0.278 10.391-1.136 20.544 14.418 40.489 31.42 45.093 2.492 0.893 6.197 0.861 9.349 0.949-3.718-1.064-4.198-0.563-7.822-1.826-2.613-1.232-3.185-2.637-5.037-4.244l0.733 1.295c-3.63-1.285-2.111-1.59-5.065-2.525l0.783-1.021c-1.177-0.09-3.117-1.982-3.647-3.033l-1.288 0.051c-1.546-1.906-2.371-3.283-2.31-4.35l-0.416 0.742c-0.471-0.809-5.691-7.158-2.983-5.68-0.503-0.458-1.172-0.747-1.897-2.066l0.551-0.629c-1.301-1.677-2.398-3.826-2.314-4.542 0.695 0.938 1.177 1.114 1.655 1.275-3.291-8.164-3.476-0.449-5.967-8.31l0.526-0.042c-0.403-0.611-0.65-1.27-0.974-1.919l0.23-2.285c-2.368-2.736-0.662-11.645-0.319-16.53 0.235-1.986 1.977-4.101 3.3-7.418l-0.806-0.138c1.542-2.688 8.802-10.799 12.166-10.383 1.629-2.046-0.324-8e-3 -0.643-0.522 3.579-3.703 4.704-2.616 7.119-3.283 2.603-1.545-2.235 0.604-1.001-0.589 4.503-1.149 3.19-2.614 9.063-3.197 0.62 0.352-1.437 0.544-1.953 1.001 3.75-1.836 11.869-1.417 17.145 1.018 6.117 2.861 12.994 11.314 13.266 19.267l0.309 0.083c-0.156 3.162 0.484 6.819-0.627 10.177l0.751-1.591"/>
   <path d="m44.658 49.695-0.211 1.047c0.983 1.335 1.763 2.781 3.016 3.821-0.902-1.759-1.571-2.486-2.805-4.868"/>
   <path d="m46.979 49.605c-0.52-0.576-0.826-1.268-1.172-1.956 0.33 1.211 1.006 2.252 1.633 3.312l-0.461-1.356"/>
   <path d="m88.063 40.675-0.219 0.552c-0.402 2.858-1.273 5.686-2.605 8.309 1.472-2.767 2.421-5.794 2.824-8.861"/>
   <path d="m55.598 0.446c1.009-0.369 2.482-0.203 3.556-0.446-1.398 0.117-2.789 0.187-4.162 0.362l0.606 0.084"/>
   <path d="m20.127 19.308c0.233 2.154-1.62 2.991 0.41 1.569 1.09-2.454-0.424-0.677-0.41-1.569"/>
   <path d="m17.739 29.282c0.469-1.437 0.553-2.299 0.732-3.132-1.293 1.654-0.596 2.007-0.732 3.132"/>
  </g>
 </g>
 <path d="m24 3v44h8.2695c8.8242 0 9.7305-0.90592 9.7305-9.748v-12.252-12.252c0-8.8421-0.90629-9.748-9.7305-9.748z" color="#000000" fill="#fff" opacity=".08"/>
</svg>
