<?xml version="1.0" encoding="UTF-8" standalone="no"?>
<!-- Created with Inkscape (http://www.inkscape.org/) -->

<svg
   width="48"
   height="48"
   viewBox="0 0 12.7 12.7"
   version="1.1"
   id="svg1100"
   sodipodi:docname="facebook.svg"
   inkscape:version="1.1 (c4e8f9ed74, 2021-05-24)"
   xmlns:inkscape="http://www.inkscape.org/namespaces/inkscape"
   xmlns:sodipodi="http://sodipodi.sourceforge.net/DTD/sodipodi-0.dtd"
   xmlns:xlink="http://www.w3.org/1999/xlink"
   xmlns="http://www.w3.org/2000/svg"
   xmlns:svg="http://www.w3.org/2000/svg">
  <sodipodi:namedview
     id="namedview1102"
     pagecolor="#ffffff"
     bordercolor="#666666"
     borderopacity="1.0"
     inkscape:pageshadow="2"
     inkscape:pageopacity="0.0"
     inkscape:pagecheckerboard="0"
     inkscape:document-units="px"
     showgrid="false"
     units="px"
     inkscape:zoom="8.9791667"
     inkscape:cx="53.679814"
     inkscape:cy="27.508121"
     inkscape:window-width="1852"
     inkscape:window-height="1052"
     inkscape:window-x="68"
     inkscape:window-y="28"
     inkscape:window-maximized="1"
     inkscape:current-layer="layer1" />
  <defs
     id="defs1097">
    <linearGradient
       inkscape:collect="always"
       id="linearGradient1128">
      <stop
         style="stop-color:#1877f2;stop-opacity:1;"
         offset="0"
         id="stop1124" />
      <stop
         style="stop-color:#32a8ff;stop-opacity:1"
         offset="1"
         id="stop1126" />
    </linearGradient>
    <linearGradient
       id="linearGradient1686-0"
       x1="322"
       x2="366"
       y1="84"
       y2="84"
       gradientTransform="matrix(0,0.26458333,-0.26458333,0,28.575002,-84.666666)"
       gradientUnits="userSpaceOnUse">
      <stop
         stop-color="#fff"
         offset="0"
         id="stop17" />
      <stop
         stop-color="#fff"
         stop-opacity=".098039"
         offset=".125"
         id="stop19" />
      <stop
         stop-color="#fff"
         stop-opacity=".098039"
         offset=".925"
         id="stop21" />
      <stop
         stop-color="#fff"
         stop-opacity=".49804"
         offset="1"
         id="stop23" />
    </linearGradient>
    <linearGradient
       inkscape:collect="always"
       xlink:href="#linearGradient1128"
       id="linearGradient1130"
       x1="7.0775175"
       y1="12.334169"
       x2="7.1410398"
       y2="0.8652851"
       gradientUnits="userSpaceOnUse" />
  </defs>
  <g
     inkscape:label="레이어 1"
     inkscape:groupmode="layer"
     id="layer1">
    <path
       d="m 3.6136817,0.52916683 c -0.69376,0 -1.24005,0.01325 -1.68952,0.07587 -0.4495,0.06261 -0.8173,0.180049 -1.08675003,0.40309297 -0.26943,0.223046 -0.41164,0.528135 -0.48639,0.901277 -0.0747,0.373142 -0.0893,0.827431 -0.0859,1.404514 v 3.300677 3.302264 c -0.003,0.5761832 0.0113,1.0302612 0.0859,1.4030062 0.0747,0.373142 0.21696,0.678233 0.48639,0.901277 0.26942003,0.223046 0.63725003,0.340492 1.08675003,0.403093 0.4495,0.06261 0.99576,0.07587 1.68952,0.07587 h 5.47317 c 0.69376,0 1.2397603,-0.01323 1.6883103,-0.07587 0.44854,-0.06264 0.81526,-0.180473 1.08368,-0.403596 0.26844,-0.223125 0.40978,-0.528002 0.48516,-0.900774 0.0754,-0.372771 0.0914,-0.826161 0.0914,-1.4030062 v -3.302264 -3.302265 c 0,-0.576844 -0.0161,-1.030208 -0.0914,-1.403006 -0.0754,-0.372771 -0.21672,-0.677651 -0.48516,-0.900774 -0.26845,-0.22312797 -0.63514,-0.34096797 -1.08368,-0.40359497 -0.44855,-0.06264 -0.9945503,-0.07587 -1.6883103,-0.07587 z"
       color="#000000"
       color-rendering="auto"
       dominant-baseline="auto"
       image-rendering="auto"
       opacity="0.1"
       shape-rendering="auto"
       solid-color="#000000"
       style="font-variant-ligatures:normal;font-variant-position:normal;font-variant-caps:normal;font-variant-numeric:normal;font-variant-alternates:normal;font-feature-settings:normal;text-indent:0;text-decoration-line:none;text-decoration-style:solid;text-decoration-color:#000000;text-transform:none;text-orientation:mixed;white-space:normal;shape-padding:0;isolation:auto;mix-blend-mode:normal;stroke-width:0.264583"
       id="path28" />
    <path
       d="m 3.4819803,0.42785181 c -2.64875003,0 -3.14510003,0.23980605 -3.13108003,2.57927529 v 3.3739818 3.3739807 c -0.0139,2.3394564 0.48231,2.5792764 3.13108003,2.5792764 h 5.64383 c 2.6482107,0 3.1310707,-0.23978 3.1310707,-2.5792764 V 6.3811089 3.0071271 c 0,-2.33948225 -0.48297,-2.57927529 -3.1310707,-2.57927529 z"
       color="#000000"
       fill="url(#linearGradient1686)"
       id="path30"
       style="fill:url(#linearGradient1130);fill-opacity:1;stroke-width:0.264583" />
    <g
       id="g4682"
       transform="matrix(0.04461057,0,0,-0.04461057,7.0775173,12.334169)">
      <path
         d="m 0,0 v 103.355 h 34.693 l 5.194,40.28 H 0 v 25.717 c 0,11.662 3.238,19.609 19.962,19.609 l 21.33,0.01 v 36.026 c -3.69,0.49 -16.351,1.587 -31.081,1.587 -30.753,0 -51.806,-18.771 -51.806,-53.244 v -29.705 h -34.781 v -40.28 h 34.781 L -41.595,0 Z"
         style="fill:#ffffff;fill-opacity:1;fill-rule:nonzero;stroke:none"
         id="path4684" />
    </g>
    <path
       d="m 8.4484117,0.66143183 c 3.6041503,0 4.1190303,0.51379397 4.1190303,4.11453497 v 3.148013 c 0,3.6007142 -0.51506,4.1145352 -4.1190303,4.1145352 h -4.19709 c -3.60415003,0 -4.11903003,-0.513794 -4.11903003,-4.1145352 v -3.148013 c 0,-3.600714 0.51507,-4.11453497 4.11903003,-4.11453497 z"
       enable-background="new"
       fill="url(#linearGradient986)"
       id="path34"
       style="stroke-width:0.264583" />
    <path
       d="m 3.5282217,0.39687483 c -2.64875003,0 -3.14510003,0.239805 -3.13108003,2.57926397 v 3.373967 3.373966 c -0.0139,2.3394462 0.48231,2.5792652 3.13108003,2.5792652 h 5.64383 c 2.6482103,0 3.1310703,-0.239779 3.1310703,-2.5792652 v -3.373966 -3.373967 c 0,-2.33947197 -0.48297,-2.57926397 -3.1310703,-2.57926397 z"
       color="#000000"
       fill="none"
       opacity="0.4"
       stroke="#000000"
       id="path46"
       style="stroke-width:0.264583" />
    <path
       d="m 3.5284817,0.52916683 c -1.3204,0 -2.0824,0.0731 -2.48306,0.384466 C 0.84510167,1.0693188 0.71797167,1.2849748 0.63667167,1.6174768 c -0.0813,0.332476 -0.11041,0.777875 -0.10697,1.358054 v 3.374495 3.374496 c -0.003,0.5801782 0.0257,1.0255782 0.10697,1.3580532 0.0813,0.332476 0.20843,0.548138 0.40875003,0.703845 0.40066,0.311362 1.16266,0.384466 2.48306,0.384466 h 5.64357 c 1.3200503,0 2.0783003,-0.07321 2.4773703,-0.384466 0.19953,-0.155638 0.3262,-0.371634 0.40825,-0.704347 0.082,-0.332714 0.11317,-0.777743 0.11317,-1.3580542 v -3.373966 -3.373967 c 0,-0.58031 -0.0311,-1.02534 -0.11317,-1.358053 -0.082,-0.332714 -0.20871,-0.548719 -0.40825,-0.70434697 -0.39907,-0.311283 -1.15729,-0.384466 -2.4773703,-0.384466 z m 0.63561,0.290433 c 1.83817,2.19e-4 3.68062,8.99e-4 5.51656,0.01447 0.5670103,0.02194 1.1811803,-0.03908 1.6996303,0.24649597 0.34293,0.183947 0.40974,0.595392 0.46818,0.943108 0.0464,0.58285 0.0242,1.175332 0.0367,1.764744 0.006,2.243534 0.0204,4.489714 -0.0212,6.7328522 -0.0427,0.39243 -0.1009,0.874659 -0.47593,1.096063 -0.42479,0.219263 -0.91956,0.239826 -1.3885303,0.252182 -2.51347,0.01794 -5.03344,0.0223 -7.54671,-0.0047 -0.41757,-0.0302 -0.86532,-0.06354 -1.22577,-0.296624 -0.32530003,-0.263361 -0.36004003,-0.721625 -0.39790003,-1.109504 -0.0337,-2.3808792 -0.0221,-4.7635582 -0.0139,-7.1458662 0.0264,-0.630053 -0.0649,-1.296459 0.18656003,-1.89447 0.1777,-0.399441 0.65238,-0.49212497 1.0423,-0.54414197 0.70424,-0.08376 1.41335,-0.0389 2.12029,-0.05478 z"
       color="#000000"
       fill="url(#linearGradient1686-0)"
       id="path48"
       style="fill:url(#linearGradient1686-0);stroke-width:0.264583" />
  </g>
</svg>
