<svg width="48" height="48" version="1" xmlns="http://www.w3.org/2000/svg" xmlns:xlink="http://www.w3.org/1999/xlink">
 <defs>
  <linearGradient id="linearGradient962" x1="512" x2="-1e-6" y1="397.99" y2="125.99" gradientTransform="matrix(.11328 0 0 .11328 -4.0007 -9.4892)" gradientUnits="userSpaceOnUse">
   <stop stop-color="#34be5d" offset="0"/>
   <stop stop-color="#1abc93" offset="1"/>
  </linearGradient>
  <linearGradient id="linearGradient277" x1="34.107" x2="34.117" y1="248.32" y2="277.59" gradientTransform="matrix(4.8696 0 0 4.8696 -409.01 -977.28)" gradientUnits="userSpaceOnUse" xlink:href="#linearGradient3797-5"/>
  <linearGradient id="linearGradient3797-5">
   <stop stop-color="#e6eaef" offset="0"/>
   <stop stop-color="#e6eaef" offset="1"/>
  </linearGradient>
  <linearGradient id="linearGradient279" x1="34.107" x2="34.117" y1="248.32" y2="277.59" gradientTransform="matrix(4.8696 0 0 4.8696 -455.55 -939.19)" gradientUnits="userSpaceOnUse" xlink:href="#linearGradient3797-5"/>
  <linearGradient id="linearGradient129" x1="348" x2="348" y1="65" y2="105" gradientTransform="translate(-320,-60)" gradientUnits="userSpaceOnUse">
   <stop stop-color="#fff" offset="0"/>
   <stop stop-color="#fff" stop-opacity=".098039" offset=".125"/>
   <stop stop-color="#fff" stop-opacity=".098039" offset=".925"/>
   <stop stop-opacity=".49804" offset="1"/>
  </linearGradient>
 </defs>
 <path d="m0.99928 35.268c0 2.2232 0.0512 3.9737 0.29297 5.4141 0.24178 1.4404 0.69529 2.619 1.5566 3.4824 0.86134 0.86337 2.0395 1.3191 3.4805 1.5586 1.441 0.23953 3.1954 0.28629 5.4238 0.27539h12.246 12.252c2.2251 0.0108 3.9785-0.0361 5.418-0.27539 1.441-0.23953 2.6191-0.69522 3.4805-1.5586 0.86134-0.86338 1.3149-2.042 1.5566-3.4824 0.24179-1.4404 0.29297-3.1909 0.29297-5.4141v-16.539c0-2.2232-0.0511-3.9728-0.29297-5.4102-0.24189-1.4374-0.69694-2.6125-1.5586-3.4727-0.86165-0.8602-2.0389-1.3132-3.4785-1.5547-1.4396-0.24149-3.1904-0.29297-5.418-0.29297h-12.252-12.252c-2.2276 0-3.9784 0.0515-5.418 0.29297-1.4396 0.24149-2.6169 0.69449-3.4785 1.5547-0.86165 0.86019-1.3167 2.0353-1.5586 3.4727-0.24189 1.4374-0.29297 3.187-0.29297 5.4102z" color="#000000" color-rendering="auto" dominant-baseline="auto" image-rendering="auto" opacity=".1" shape-rendering="auto" solid-color="#000000" style="font-feature-settings:normal;font-variant-alternates:normal;font-variant-caps:normal;font-variant-ligatures:normal;font-variant-numeric:normal;font-variant-position:normal;isolation:auto;mix-blend-mode:normal;shape-padding:0;text-decoration-color:#000000;text-decoration-line:none;text-decoration-style:solid;text-indent:0;text-orientation:mixed;text-transform:none;white-space:normal"/>
 <path d="m11.748 4.4993c-2.227 0-3.981 0.04964-5.4199 0.29102-1.4403 0.2416-2.6144 0.69396-3.4766 1.5547-0.86248 0.86102-1.3166 2.0367-1.5586 3.4746-0.0861 0.51187-0.14148 1.0808-0.18555 1.6797-0.07958 1.0817-0.10742 2.2998-0.10742 3.7305v18.539c0 2.2228 0.0514 3.9747 0.29297 5.4141 0.24191 1.4411 0.69492 2.6167 1.5566 3.4805 0.86187 0.86391 2.0388 1.319 3.4805 1.5586 1.4392 0.23922 3.1928 0.2882 5.4199 0.27734h12.25 12.248c2.2271 0.0108 3.9827-0.0381 5.4219-0.27734 1.4416-0.23964 2.6166-0.69468 3.4785-1.5586 0.86171-0.86375 1.3147-2.0394 1.5566-3.4805 0.24161-1.4393 0.29492-3.1912 0.29492-5.4141v-18.539c0-1.4306-0.0273-2.6488-0.10742-3.7305-0.0444-0.59894-0.10136-1.1678-0.1875-1.6797-0.24198-1.438-0.69415-2.6136-1.5566-3.4746-0.86218-0.86073-2.0382-1.3131-3.4785-1.5547-1.4299-0.23988-2.9603-0.29102-5.418-0.29102h-12.252z" color="#000000" fill="url(#linearGradient962)"/>
 <g transform="matrix(.77619 0 0 .77619 -3.1651 -175.82)" enable-background="new" stroke-width="4.8696">
  <g transform="matrix(.92379 0 0 .92379 9.2688 10.923)">
   <rect x="12.7" y="247.42" width="42.333" height="30.427" rx="1.027" ry="1.071" fill="#00132b" opacity=".3"/>
   <rect x="12.7" y="247.42" width="42.333" height="30.427" rx="1.027" ry="1.071" fill="url(#linearGradient277)" opacity=".7"/>
   <rect x="19.32" y="262.91" width="29.087" height="5.801" rx="1.058" ry="1.058" fill="#fff" opacity=".7"/>
   <path d="m24.119 256.07h0.40005l0.31609-1.4224c0.01482-0.0741 0.04445-0.19756 0.0642-0.29634 0.01482 0.0988 0.04445 0.22719 0.05927 0.30128l0.32597 1.4175h0.39511l0.64206-2.5238h-0.46426l-0.33584 1.4619c-0.01975 0.084-0.03457 0.15804-0.04939 0.24694-0.01482-0.0889-0.0247-0.16792-0.04445-0.24694l-0.33584-1.4619h-0.38523l-0.33091 1.4619c-0.01975 0.079-0.02963 0.14816-0.04445 0.23212-0.0099-0.084-0.02469-0.1531-0.04445-0.22719l-0.34572-1.4668h-0.46426z" opacity=".8"/>
   <path d="m29.064 254.69c0-0.82974-0.48401-1.2051-1.0717-1.2051-0.71614 0-1.1804 0.48895-1.1804 1.3187 0 0.77047 0.43956 1.3236 1.1804 1.3236 0.36054 0 0.66181-0.14816 0.86924-0.3556l-0.2914-0.31609c-0.17286 0.16299-0.36054 0.22719-0.57291 0.22719-0.38029 0-0.61736-0.2667-0.6865-0.68156h1.7385c0.01482-0.12348 0.01482-0.23707 0.01482-0.31115zm-1.7632-0.11854c0.04939-0.40005 0.27164-0.65193 0.69144-0.65193 0.2667 0 0.56303 0.16298 0.58279 0.65193z" opacity=".8"/>
   <path d="m31.223 255.63v-3.1263h-1.3187l0.22719 0.43462h0.5976v2.6917h-0.72602v0.43956h1.941v-0.43956z" opacity=".8"/>
   <path d="m34.069 256.13c0.52352 0 0.87418-0.24694 1.0125-0.69144l-0.46426-0.14817c-0.07902 0.23707-0.26176 0.37536-0.54328 0.37536-0.40005 0-0.61242-0.32103-0.61242-0.85443 0-0.52352 0.20743-0.85937 0.62724-0.85937 0.27164 0 0.42968 0.13829 0.50871 0.33091l0.46426-0.16298c-0.15311-0.42475-0.49389-0.63218-0.97296-0.63218-0.69638 0-1.1359 0.49883-1.1359 1.3236 0 0.83467 0.43462 1.3187 1.1162 1.3187z" opacity=".8"/>
   <path d="m37.053 256.13c0.73096 0 1.1952-0.50376 1.1952-1.3236 0-0.81492-0.46426-1.3187-1.1952-1.3187-0.73096 0-1.1952 0.5087-1.1952 1.3236 0 0.81986 0.46426 1.3187 1.1952 1.3187zm0-0.46425c-0.44944 0-0.69144-0.33585-0.69144-0.85443 0-0.53834 0.242-0.85937 0.69144-0.85937 0.45438 0 0.69638 0.33585 0.69638 0.85443 0 0.52352-0.25188 0.85937-0.69638 0.85937z" opacity=".8"/>
   <path d="m40.764 253.48c-0.26176 0-0.44944 0.1778-0.55809 0.37535-0.05927-0.18274-0.22225-0.37535-0.47413-0.37535-0.23707 0-0.40005 0.13829-0.49389 0.39017v-0.33091h-0.43462v2.5238h0.46426v-1.5261c0-0.35066 0.12347-0.58773 0.34078-0.58773 0.20743 0 0.26176 0.22225 0.26176 0.53834v1.5755h0.46426v-1.5261c0-0.35066 0.10372-0.58773 0.32103-0.58773 0.21237 0 0.26176 0.18274 0.26176 0.57291v1.5409h0.46426v-1.6694c0-0.66181-0.2025-0.91369-0.61736-0.91369z" opacity=".8"/>
   <path d="m44.257 254.69c0-0.82974-0.48401-1.2051-1.0717-1.2051-0.71614 0-1.1804 0.48895-1.1804 1.3187 0 0.77047 0.43956 1.3236 1.1804 1.3236 0.36054 0 0.66181-0.14816 0.86924-0.3556l-0.29139-0.31609c-0.17286 0.16299-0.36054 0.22719-0.57291 0.22719-0.38029 0-0.61736-0.2667-0.6865-0.68156h1.7385c0.01482-0.12348 0.01482-0.23707 0.01482-0.31115zm-1.7632-0.11854c0.04939-0.40005 0.27164-0.65193 0.69144-0.65193 0.2667 0 0.56303 0.16298 0.58279 0.65193z" opacity=".8"/>
   <path d="m21.035 263.93v3.9688h0.26367v-3.9688z" opacity=".8"/>
  </g>
  <g transform="matrix(.92379 0 0 .92379 -1.8437 20.016)">
   <rect x="12.7" y="247.42" width="42.333" height="30.427" rx="1.027" ry="1.071" fill="#00132b" opacity=".3"/>
   <rect x="12.7" y="247.42" width="42.333" height="30.427" rx="1.027" ry="1.071" fill="url(#linearGradient279)" opacity=".7"/>
   <rect x="19.32" y="262.91" width="29.087" height="5.801" rx="1.058" ry="1.058" fill="#fff" opacity=".7"/>
   <path d="m24.119 256.07h0.40005l0.31609-1.4224c0.01482-0.0741 0.04445-0.19756 0.0642-0.29634 0.01482 0.0988 0.04445 0.22719 0.05927 0.30128l0.32597 1.4175h0.39511l0.64206-2.5238h-0.46426l-0.33584 1.4619c-0.01975 0.084-0.03457 0.15804-0.04939 0.24694-0.01482-0.0889-0.0247-0.16792-0.04445-0.24694l-0.33584-1.4619h-0.38523l-0.33091 1.4619c-0.01975 0.079-0.02963 0.14816-0.04445 0.23212-0.0099-0.084-0.02469-0.1531-0.04445-0.22719l-0.34572-1.4668h-0.46426z" opacity=".8"/>
   <path d="m29.064 254.69c0-0.82974-0.48401-1.2051-1.0717-1.2051-0.71614 0-1.1804 0.48895-1.1804 1.3187 0 0.77047 0.43956 1.3236 1.1804 1.3236 0.36054 0 0.66181-0.14816 0.86924-0.3556l-0.2914-0.31609c-0.17286 0.16299-0.36054 0.22719-0.57291 0.22719-0.38029 0-0.61736-0.2667-0.6865-0.68156h1.7385c0.01482-0.12348 0.01482-0.23707 0.01482-0.31115zm-1.7632-0.11854c0.04939-0.40005 0.27164-0.65193 0.69144-0.65193 0.2667 0 0.56303 0.16298 0.58279 0.65193z" opacity=".8"/>
   <path d="m31.223 255.63v-3.1263h-1.3187l0.22719 0.43462h0.5976v2.6917h-0.72602v0.43956h1.941v-0.43956z" opacity=".8"/>
   <path d="m34.069 256.13c0.52352 0 0.87418-0.24694 1.0125-0.69144l-0.46426-0.14817c-0.07902 0.23707-0.26176 0.37536-0.54328 0.37536-0.40005 0-0.61242-0.32103-0.61242-0.85443 0-0.52352 0.20743-0.85937 0.62724-0.85937 0.27164 0 0.42968 0.13829 0.50871 0.33091l0.46426-0.16298c-0.15311-0.42475-0.49389-0.63218-0.97296-0.63218-0.69638 0-1.1359 0.49883-1.1359 1.3236 0 0.83467 0.43462 1.3187 1.1162 1.3187z" opacity=".8"/>
   <path d="m37.053 256.13c0.73096 0 1.1952-0.50376 1.1952-1.3236 0-0.81492-0.46426-1.3187-1.1952-1.3187-0.73096 0-1.1952 0.5087-1.1952 1.3236 0 0.81986 0.46426 1.3187 1.1952 1.3187zm0-0.46425c-0.44944 0-0.69144-0.33585-0.69144-0.85443 0-0.53834 0.242-0.85937 0.69144-0.85937 0.45438 0 0.69638 0.33585 0.69638 0.85443 0 0.52352-0.25188 0.85937-0.69638 0.85937z" opacity=".8"/>
   <path d="m40.764 253.48c-0.26176 0-0.44944 0.1778-0.55809 0.37535-0.05927-0.18274-0.22225-0.37535-0.47413-0.37535-0.23707 0-0.40005 0.13829-0.49389 0.39017v-0.33091h-0.43462v2.5238h0.46426v-1.5261c0-0.35066 0.12347-0.58773 0.34078-0.58773 0.20743 0 0.26176 0.22225 0.26176 0.53834v1.5755h0.46426v-1.5261c0-0.35066 0.10372-0.58773 0.32103-0.58773 0.21237 0 0.26176 0.18274 0.26176 0.57291v1.5409h0.46426v-1.6694c0-0.66181-0.2025-0.91369-0.61736-0.91369z" opacity=".8"/>
   <path d="m44.257 254.69c0-0.82974-0.48401-1.2051-1.0717-1.2051-0.71614 0-1.1804 0.48895-1.1804 1.3187 0 0.77047 0.43956 1.3236 1.1804 1.3236 0.36054 0 0.66181-0.14816 0.86924-0.3556l-0.29139-0.31609c-0.17286 0.16299-0.36054 0.22719-0.57291 0.22719-0.38029 0-0.61736-0.2667-0.6865-0.68156h1.7385c0.01482-0.12348 0.01482-0.23707 0.01482-0.31115zm-1.7632-0.11854c0.04939-0.40005 0.27164-0.65193 0.69144-0.65193 0.2667 0 0.56303 0.16298 0.58279 0.65193z" opacity=".8"/>
   <path d="m21.035 263.93v3.9688h0.26367v-3.9688z" opacity=".8"/>
  </g>
 </g>
 <path d="m11.748 4.4993c-2.227 0-3.981 0.04964-5.4199 0.29102-1.4403 0.2416-2.6144 0.69396-3.4766 1.5547-0.86248 0.86102-1.3166 2.0367-1.5586 3.4746-0.0861 0.51187-0.14148 1.0808-0.18555 1.6797-0.0796 1.0817-0.10742 2.2998-0.10742 3.7305v18.539c0 2.2228 0.0514 3.9747 0.29297 5.4141 0.24191 1.4411 0.69492 2.6167 1.5566 3.4805 0.86187 0.86391 2.0388 1.319 3.4805 1.5586 1.4392 0.23922 3.1928 0.2882 5.4199 0.27734h12.25 12.248c2.2271 0.0108 3.9827-0.0381 5.4219-0.27734 1.4416-0.23964 2.6166-0.69468 3.4785-1.5586 0.86171-0.86375 1.3147-2.0394 1.5566-3.4805 0.24161-1.4393 0.29492-3.1912 0.29492-5.4141v-18.539c0-1.4306-0.0273-2.6488-0.10742-3.7305-0.0444-0.59894-0.10136-1.1678-0.1875-1.6797-0.24198-1.438-0.69415-2.6136-1.5566-3.4746-0.86218-0.86073-2.0382-1.3131-3.4785-1.5547-1.4299-0.23988-2.9603-0.29102-5.418-0.29102h-12.252z" color="#000000" fill="none" opacity=".4" stroke="#000"/>
 <path d="m2 33.53c0 2.1577 0.0457 3.8771 0.24167 5.242 0.22728 1.3727 0.55731 2.4242 1.304 3.17 0.74666 0.74576 1.8592 1.1462 3.2186 1.3429 1.3582 0.19648 3.0878 0.22346 5.258 0.21287h11.978 11.98c2.169 0.0106 3.8874-0.0228 5.2564-0.21571 1.3617-0.19303 2.4516-0.58111 3.1983-1.3269 0.74666-0.74581 1.1018-1.8476 1.3291-3.1969 0.2273-1.3492 0.23654-3.0705 0.23654-5.2283v-18.063c0-2.1577-9e-3 -3.8433-0.23654-5.1894-0.22733-1.3462-0.57836-2.4834-1.3252-3.2264-0.7468-0.74291-1.8395-1.1225-3.1982-1.3211-1.3698-0.19859-2.8643-0.23096-5.2603-0.23096h-11.98-11.98c-2.1698 0-3.8762 0.0305-5.2339 0.22812-1.3643 0.19858-2.4774 0.58701-3.2242 1.3299-0.74897 0.74508-1.1096 1.8468-1.3257 3.1816-0.16657 1.3351-0.23655 3.0703-0.23655 5.2281z" color="#000000" fill="none" opacity=".3" stroke="url(#linearGradient129)" stroke-linejoin="round"/>
</svg>
