<svg width="48" height="48" version="1" xmlns="http://www.w3.org/2000/svg" xmlns:xlink="http://www.w3.org/1999/xlink">
 <defs>
  <linearGradient id="linearGradient1686" x1="320" x2="368" y1="108" y2="60" gradientTransform="rotate(90 214 -106)" gradientUnits="userSpaceOnUse">
   <stop stop-color="#f4843f" offset="0"/>
   <stop stop-color="#f8ae34" offset="1"/>
  </linearGradient>
  <linearGradient id="linearGradient997" x1="46.869" x2="254.15" y1="150.12" y2="150.12" gradientTransform="matrix(4.9778 0 0 4.9778 -1718.7 -177.17)" gradientUnits="userSpaceOnUse" xlink:href="#linearGradient4289"/>
  <linearGradient id="linearGradient4289">
   <stop stop-color="#fdfdfb" offset="0"/>
   <stop stop-color="#f0e9df" offset="1"/>
  </linearGradient>
  <linearGradient id="linearGradient1686-0" x1="322" x2="366" y1="84" y2="84" gradientTransform="rotate(90 214 -106)" gradientUnits="userSpaceOnUse">
   <stop stop-color="#fff" offset="0"/>
   <stop stop-color="#fff" stop-opacity=".098039" offset=".125"/>
   <stop stop-color="#fff" stop-opacity=".098039" offset=".925"/>
   <stop stop-color="#fff" stop-opacity=".49804" offset="1"/>
  </linearGradient>
 </defs>
 <path d="m13.658 2c-2.6221 0-4.6867 0.05009-6.3856 0.28674-1.6989 0.23664-3.089 0.6805-4.1074 1.5235-1.0183 0.84301-1.5558 1.9961-1.8383 3.4064-0.28252 1.4103-0.33767 3.1273-0.32482 5.3084v12.475 12.481c-0.0127 2.1777 0.0426 3.8939 0.32482 5.3027 0.28251 1.4103 0.81998 2.5634 1.8383 3.4064 1.0183 0.84301 2.4085 1.2869 4.1074 1.5235 1.6989 0.23665 3.7635 0.28674 6.3856 0.28674h20.686c2.6221 0 4.6857-0.05 6.381-0.28674 1.6953-0.23674 3.0813-0.6821 4.0958-1.5254 1.0146-0.84331 1.5488-1.9956 1.8337-3.4045 0.28483-1.4089 0.34554-3.1225 0.34554-5.3027v-12.481-12.481c0-2.1802-0.0608-3.8937-0.34554-5.3027-0.28482-1.4089-0.81911-2.5612-1.8337-3.4045-1.0146-0.84332-2.4005-1.2887-4.0958-1.5254-1.6953-0.23674-3.7589-0.28674-6.381-0.28674z" color="#000000" color-rendering="auto" dominant-baseline="auto" image-rendering="auto" opacity=".1" shape-rendering="auto" solid-color="#000000" style="font-feature-settings:normal;font-variant-alternates:normal;font-variant-caps:normal;font-variant-ligatures:normal;font-variant-numeric:normal;font-variant-position:normal;isolation:auto;mix-blend-mode:normal;shape-padding:0;text-decoration-color:#000000;text-decoration-line:none;text-decoration-style:solid;text-indent:0;text-orientation:mixed;text-transform:none;white-space:normal"/>
 <path d="m13.335 1.5c-10.011 0-11.887 0.90635-11.834 9.7484v12.752 12.752c-0.0527 8.842 1.8229 9.7484 11.834 9.7484h21.331c10.009 0 11.834-0.90625 11.834-9.7484v-12.752-12.752c0-8.8421-1.8254-9.7484-11.834-9.7484z" color="#000000" fill="url(#linearGradient1686)"/>
 <path d="m31.931 2.4999c13.622 0 15.568 1.9419 15.568 15.551v11.898c0 13.609-1.9467 15.551-15.568 15.551h-15.863c-13.622 0-15.568-1.9419-15.568-15.551v-11.898c0-13.609 1.9467-15.551 15.568-15.551z" enable-background="new" fill="url(#linearGradient986)"/>
 <g transform="matrix(.17144 0 0 .17144 -1.8026 -1.7363)" enable-background="new" fill="url(#linearGradient997)" stroke-width="4.9778">
  <path d="m90.494 180.2h-43.625v-9.9295c7.8238-7.8223 30.474-25.409 28.15-35.53-3.0721-9.6888-16.516-3.1041-18.497 1.3179l-9.606-7.34c9.9051-15.277 40.548-13.517 41.418 6.1608 0.13417 15.553-15.328 25.09-24.344 33.668v0.59536h26.504z"/>
  <path d="m145.69 150.12c0.0631 17.934-5.1146 31.485-23.027 31.6-19.083-0.0356-23.56-13.743-23.495-31.488-0.0649-17.78 4.7813-31.58 23.495-31.614 18.066 0.0335 22.964 13.854 23.027 31.502zm-33.734 0.11236c0.11555 7.0266 0.67599 20.614 10.483 20.711 9.7053 0.11164 10.513-14.386 10.538-20.823-0.12683-6.991-0.48779-20.502-10.426-20.57-10.098-0.18412-10.528 13.963-10.595 20.682z"/>
  <path d="m231.71 118.61c8.5245 0.0453 20.45 3.7255 20.459 14.803-9e-3 8.758-3.6498 10.729-10.64 14.548 7.695 4.6453 12.534 8.1112 12.623 17.241-0.0892 11.956-11.652 16.271-22.443 16.351-11.363-0.0799-22.57-4.1346-22.744-16.523 0.17894-8.9376 5.4196-14.001 11.103-16.861-6.4909-3.9806-9.5333-6.0364-9.3731-14.84-0.1602-10.907 11.817-14.673 21.014-14.719zm-10.534 45.347c-0.0432 5.6839 4.6963 7.7436 10.41 7.6954 5.5049 0.0482 9.6719-2.2453 9.7399-7.1674 0.0479-8.2667-9.7344-11.879-9.7344-11.879s-10.459 3.6126-10.416 11.351zm10.441-34.982c-4.7979-0.0409-9.1512 1.0398-9.1739 5.677 0.0227 5.3995 9.0774 9.104 9.0774 9.104s8.3311-3.6544 8.4594-9.4847c-0.1918-4.2526-3.8086-5.3372-8.3629-5.2963z"/>
  <path d="m202.22 170.07h-7.77v10.088h-11.51v-10.08h-30.06v-11.137l29.332-38.853h12.238v39.776h7.77zm-19.28-33.723-18.038 23.517h18.038z"/>
 </g>
 <path d="m13.335 1.5c-10.011 0-11.887 0.90635-11.834 9.7484v12.752 12.752c-0.0527 8.842 1.8229 9.7484 11.834 9.7484h21.331c10.009 0 11.834-0.90625 11.834-9.7484v-12.752-12.752c0-8.8421-1.8254-9.7484-11.834-9.7484z" color="#000000" fill="none" opacity=".4" stroke="#000"/>
 <path d="m13.336 2c-4.9905 0-7.8705 0.27628-9.3848 1.4531-0.75713 0.58842-1.2376 1.4035-1.5449 2.6602-0.3073 1.2566-0.4173 2.94-0.4043 5.1328v12.754 12.754c-0.0131 2.1928 0.097 3.8762 0.4043 5.1328 0.30731 1.2566 0.78779 2.0717 1.5449 2.6602 1.5143 1.1768 4.3943 1.4531 9.3848 1.4531h21.33c4.9892 0 7.855-0.27668 9.3633-1.4531 0.75412-0.58824 1.2329-1.4046 1.543-2.6621 0.31003-1.2575 0.42773-2.9395 0.42773-5.1328v-12.752-12.752c0-2.1933-0.1177-3.8753-0.42773-5.1328-0.31004-1.2575-0.78884-2.0739-1.543-2.6621-1.5083-1.1765-4.374-1.4531-9.3633-1.4531zm2.4023 1.0977c6.9474 8.3e-4 13.911 0.0034 20.85 0.05469 2.143 0.08293 4.4643-0.1477 6.4238 0.93164 1.2961 0.69523 1.5486 2.2503 1.7695 3.5645 0.17551 2.2029 0.0915 4.4422 0.13867 6.6699 0.0227 8.4795 0.077 16.969-0.0801 25.447-0.16151 1.4832-0.38135 3.3058-1.7988 4.1426-1.6055 0.82871-3.4755 0.90643-5.248 0.95313-9.4997 0.0678-19.024 0.0843-28.523-0.0176-1.5782-0.11413-3.2705-0.24014-4.6328-1.1211-1.2295-0.99538-1.3608-2.7274-1.5039-4.1934-0.1272-8.9986-0.0836-18.004-0.0527-27.008 0.0997-2.3813-0.24538-4.9 0.70508-7.1602 0.67165-1.5097 2.4657-1.86 3.9394-2.0566 2.6617-0.31658 5.3418-0.14702 8.0137-0.20703z" color="#000000" fill="url(#linearGradient1686-0)"/>
</svg>
