<svg width="48" height="48" version="1" xmlns="http://www.w3.org/2000/svg" xmlns:xlink="http://www.w3.org/1999/xlink">
 <defs>
  <linearGradient id="linearGradient1686" x1="321" x2="367" y1="92" y2="76" gradientTransform="rotate(90 214 -106)" gradientUnits="userSpaceOnUse">
   <stop stop-color="#e7e7df" offset="0"/>
   <stop stop-color="#e7e7df" offset="1"/>
  </linearGradient>
  <linearGradient id="linearGradient1686-0" x1="322" x2="366" y1="84" y2="84" gradientTransform="rotate(90 214 -106)" gradientUnits="userSpaceOnUse">
   <stop stop-color="#fff" offset="0"/>
   <stop stop-color="#fff" stop-opacity=".098039" offset=".125"/>
   <stop stop-color="#fff" stop-opacity=".098039" offset=".925"/>
   <stop stop-color="#fff" stop-opacity=".49804" offset="1"/>
  </linearGradient>
 </defs>
 <path d="m13.658 2c-2.6221 0-4.6868 0.05009-6.3856 0.28674-1.6989 0.23664-3.089 0.6805-4.1074 1.5235-1.0183 0.84301-1.5558 1.9961-1.8383 3.4064-0.28252 1.4103-0.33767 3.1273-0.32482 5.3084v12.475 12.481c-0.0127 2.1777 0.0426 3.8939 0.32482 5.3027 0.28251 1.4103 0.81998 2.5634 1.8383 3.4064 1.0183 0.84301 2.4085 1.2869 4.1074 1.5235 1.6989 0.23665 3.7635 0.28674 6.3856 0.28674h20.686c2.6221 0 4.6857-0.05 6.381-0.28674 1.6953-0.23674 3.0813-0.6821 4.0958-1.5254 1.0146-0.84331 1.5488-1.9956 1.8337-3.4045 0.28483-1.4089 0.34554-3.1225 0.34554-5.3027v-12.481-12.481c0-2.1802-0.0608-3.8937-0.34554-5.3027-0.28482-1.4089-0.81911-2.5612-1.8337-3.4045-1.0146-0.84332-2.4005-1.2887-4.0958-1.5254-1.6953-0.23674-3.7589-0.28674-6.381-0.28674z" color="#000000" color-rendering="auto" dominant-baseline="auto" image-rendering="auto" opacity=".1" shape-rendering="auto" solid-color="#000000" style="font-feature-settings:normal;font-variant-alternates:normal;font-variant-caps:normal;font-variant-ligatures:normal;font-variant-numeric:normal;font-variant-position:normal;isolation:auto;mix-blend-mode:normal;shape-padding:0;text-decoration-color:#000000;text-decoration-line:none;text-decoration-style:solid;text-indent:0;text-orientation:mixed;text-transform:none;white-space:normal"/>
 <path d="m13.335 1.5c-10.011 0-11.887 0.90635-11.834 9.7484v12.752 12.752c-0.0527 8.842 1.8229 9.7484 11.834 9.7484h21.331c10.009 0 11.834-0.90625 11.834-9.7484v-12.752-12.752c0-8.8421-1.8254-9.7484-11.834-9.7484z" color="#000000" fill="url(#linearGradient1686)"/>
 <path d="m13.342 1.6563c-10.011 0-11.887 0.90602-11.834 9.748v5.5957h45v-5.5957c0-8.8421-1.8253-9.748-11.834-9.748z" enable-background="new" opacity=".05"/>
 <path d="m13.342 46.5c-10.011 0-11.887-0.90602-11.834-9.748v-5.5957h45v5.5957c0 8.8421-1.8253 9.748-11.834 9.748z" enable-background="new" fill="#fff" opacity=".2"/>
 <rect x="3.9999" y="17" width="12" height="14" enable-background="new" fill="#f2f2f2"/>
 <path d="m16 5v11h-12v1h12v14h-12v1h12v11h1v-11h14v11h1v-11h12v-1h-12v-14h12v-1h-12v-11h-1v11h-14v-11zm1 12h14v14h-14z" color="#000000" fill="#847d6c"/>
 <g transform="matrix(.1993 0 0 .20194 -7.1467 -8.6171)" enable-background="new" fill="#847d6c" stroke="#847d6c" stroke-width="1.4954" aria-label="7">
  <path d="m81.888 112q0.32-4.544 1.6-9.6 1.344-5.12 3.2-9.856 1.856-4.8 4.096-8.832 2.24-4.096 4.416-6.72h-19.2v-4.608h25.088v4.416q-1.92 2.24-4.16 6.016t-4.288 8.512q-1.984 4.672-3.456 10.048-1.472 5.312-1.856 10.624z" fill="#847d6c" stroke="#847d6c" stroke-width="1.4954"/>
 </g>
 <g transform="matrix(.21522 0 0 .20194 -8.7963 -8.6171)" enable-background="new" fill="#847d6c" stroke="#847d6c" stroke-width="1.439" aria-label="1">
  <path d="m140.77 80.576q3.264-1.28 6.336-3.2 3.072-1.984 5.696-4.992h3.712v35.136h7.488v4.48h-21.312v-4.48h8.576v-27.776q-0.704 0.64-1.728 1.344-0.96 0.64-2.176 1.28-1.152 0.64-2.432 1.216t-2.496 0.96z" fill="#847d6c" stroke="#847d6c" stroke-width="1.439"/>
 </g>
 <g transform="matrix(.20135 0 0 .19747 -7.2255 -6.7551)" enable-background="new" fill="#1a1a1a" stroke="#1a1a1a" stroke-width="1.5045" aria-label="2">
  <path d="m98.848 146.5q0 2.048-0.832 3.968-0.768 1.92-2.112 3.776-1.28 1.856-2.944 3.648t-3.392 3.52q-0.96 0.96-2.24 2.304t-2.432 2.752-1.92 2.752-0.768 2.304h18.24v4.48h-24q-0.064-0.32-0.064-0.64 0-0.384 0-0.704 0-2.688 0.896-4.992t2.304-4.352 3.136-3.84q1.792-1.856 3.52-3.584 1.408-1.408 2.688-2.752 1.344-1.344 2.304-2.688 1.024-1.344 1.6-2.752 0.64-1.472 0.64-3.008 0-1.728-0.576-2.944-0.512-1.216-1.472-1.984-0.896-0.832-2.112-1.216t-2.624-0.384q-1.664 0-3.072 0.448-1.344 0.448-2.432 1.088-1.024 0.64-1.792 1.28-0.768 0.576-1.152 0.96l-2.624-3.712q0.512-0.576 1.536-1.408t2.432-1.536q1.472-0.768 3.264-1.28t3.84-0.512q6.208 0 9.152 2.88 3.008 2.816 3.008 8.128z" fill="#1a1a1a" stroke="#1a1a1a" stroke-width="1.5045"/>
 </g>
 <g transform="matrix(.19778 0 0 .19685 -5.2343 -6.8094)" enable-background="new" fill="#847d6c" stroke="#847d6c" stroke-width="1.5204" aria-label="6">
  <path d="m203.42 160.13q0-5.76 1.536-10.176 1.6-4.48 4.48-7.488 2.944-3.008 7.104-4.608t9.408-1.664l0.448 4.48q-3.392 0.064-6.208 0.768-2.752 0.64-4.928 2.176-2.176 1.472-3.648 3.84t-2.24 5.824q1.536-0.704 3.328-1.152 1.856-0.448 3.904-0.448 3.328 0 5.632 1.024 2.368 1.024 3.776 2.752 1.408 1.664 2.048 3.904t0.64 4.608q0 2.176-0.704 4.48-0.704 2.24-2.176 4.16-1.472 1.856-3.776 3.072-2.304 1.152-5.504 1.152-6.592 0-9.856-4.416t-3.264-12.288zm12.608-4.096q-2.048 0-3.776 0.384-1.664 0.384-3.392 1.152-0.064 0.64-0.064 1.28 0 0.576 0 1.28 0 2.496 0.32 4.736 0.384 2.176 1.216 3.904 0.896 1.664 2.368 2.688 1.472 0.96 3.776 0.96 1.92 0 3.2-0.768 1.28-0.832 2.112-2.048t1.152-2.688q0.384-1.536 0.384-2.88 0-3.904-1.792-5.952-1.728-2.048-5.504-2.048z" fill="#847d6c" stroke="#847d6c" stroke-width="1.5204"/>
 </g>
 <g transform="matrix(.19728 0 0 .19685 -6.8422 -5.2694)" enable-background="new" fill="#847d6c" stroke="#847d6c" stroke-width="1.5223" aria-label="9">
  <path d="m100.58 216.26q0 11.84-5.76 17.856-5.76 5.952-17.344 6.016l-0.192-4.48q7.168 0 11.52-2.816 4.416-2.88 5.824-9.856-1.536 0.704-3.392 1.152-1.856 0.384-3.904 0.384-3.392 0-5.696-0.96-2.304-1.024-3.712-2.688-1.408-1.728-2.048-3.904t-0.64-4.608q0-2.176 0.704-4.416 0.704-2.304 2.176-4.16t3.776-3.072 5.504-1.216q6.528 0 9.856 4.48 3.328 4.48 3.328 12.288zm-12.672 3.904q2.048 0 3.776-0.384 1.792-0.384 3.456-1.088 0.064-0.64 0.064-1.216t0-1.216q0-2.496-0.384-4.736-0.32-2.24-1.216-3.904-0.832-1.664-2.368-2.624-1.472-1.024-3.776-1.024-1.92 0-3.2 0.832-1.28 0.768-2.112 1.984-0.832 1.152-1.216 2.624-0.32 1.472-0.32 2.816 0 3.904 1.728 5.952 1.792 1.984 5.568 1.984z" fill="#847d6c" stroke="#847d6c" stroke-width="1.5223"/>
 </g>
 <g transform="matrix(.18169 0 0 .20194 -1.7501 -6.4654)" enable-background="new" fill="#847d6c" stroke="#847d6c" stroke-width="1.5662" aria-label="4">
  <path d="m202.27 226.3q1.088-2.56 2.944-5.888 1.92-3.328 4.288-6.848 2.368-3.584 5.056-6.976 2.688-3.456 5.44-6.208h5.12v25.152h4.672v4.352h-4.672v10.112h-5.12v-10.112h-17.728zm17.728-19.648q-1.728 1.856-3.52 4.096-1.728 2.24-3.392 4.736-1.664 2.432-3.136 4.992-1.408 2.56-2.56 5.056h12.608z" fill="#847d6c" stroke="#847d6c" stroke-width="1.5662"/>
 </g>
 <path d="m13.335 1.5c-10.011 0-11.887 0.90635-11.834 9.7484v12.752 12.752c-0.0527 8.842 1.8229 9.7484 11.834 9.7484h21.331c10.009 0 11.834-0.90625 11.834-9.7484v-12.752-12.752c0-8.8421-1.8254-9.7484-11.834-9.7484z" color="#000000" fill="none" opacity=".4" stroke="#000"/>
 <path d="m13.336 2c-4.9905 0-7.8705 0.27628-9.3848 1.4531-0.75713 0.58842-1.2376 1.4035-1.5449 2.6602-0.3073 1.2566-0.4173 2.94-0.4043 5.1328v12.754 12.754c-0.0131 2.1928 0.097 3.8762 0.4043 5.1328 0.30731 1.2566 0.78779 2.0717 1.5449 2.6602 1.5143 1.1768 4.3943 1.4531 9.3848 1.4531h21.33c4.9892 0 7.855-0.27668 9.3633-1.4531 0.75412-0.58824 1.2329-1.4046 1.543-2.6621 0.31003-1.2575 0.42773-2.9395 0.42773-5.1328v-12.752-12.752c0-2.1933-0.1177-3.8753-0.42773-5.1328-0.31004-1.2575-0.78884-2.0739-1.543-2.6621-1.5083-1.1765-4.374-1.4531-9.3633-1.4531zm2.4023 1.0977c6.9474 8.3e-4 13.911 0.0034 20.85 0.05469 2.143 0.08293 4.4643-0.1477 6.4238 0.93164 1.2961 0.69523 1.5486 2.2503 1.7695 3.5645 0.17551 2.2029 0.0915 4.4422 0.13867 6.6699 0.0227 8.4795 0.077 16.969-0.0801 25.447-0.16151 1.4832-0.38135 3.3058-1.7988 4.1426-1.6055 0.82871-3.4755 0.90643-5.248 0.95313-9.4997 0.0678-19.024 0.0843-28.523-0.0176-1.5782-0.11413-3.2705-0.24014-4.6328-1.1211-1.2295-0.99538-1.3608-2.7274-1.5039-4.1934-0.1272-8.9986-0.0836-18.004-0.0527-27.008 0.0997-2.3813-0.24538-4.9 0.70508-7.1602 0.67165-1.5097 2.4657-1.86 3.9394-2.0566 2.6617-0.31658 5.3418-0.14702 8.0137-0.20703z" color="#000000" fill="url(#linearGradient1686-0)"/>
</svg>
