<svg width="48" height="48" version="1" xmlns="http://www.w3.org/2000/svg" xmlns:xlink="http://www.w3.org/1999/xlink">
 <defs>
  <linearGradient id="linearGradient4884" x1="325" x2="372.25" y1="107" y2="51.777" gradientTransform="rotate(90 214 -106)" gradientUnits="userSpaceOnUse">
   <stop stop-color="#80a3fa" offset="0"/>
   <stop stop-color="#a2bcfe" offset="1"/>
  </linearGradient>
  <linearGradient id="linearGradient1004" x1="344" x2="344" y1="66.001" y2="102" gradientTransform="rotate(-90,344,84)" gradientUnits="userSpaceOnUse">
   <stop stop-color="#fff" offset="0"/>
   <stop stop-color="#fff" stop-opacity=".098039" offset=".125"/>
   <stop stop-color="#fff" stop-opacity=".098039" offset=".925"/>
   <stop stop-color="#fff" stop-opacity=".49804" offset="1"/>
  </linearGradient>
  <clipPath id="clipPath994">
   <path d="m335.73 62c-8.8242 0-9.7736 0.90635-9.7304 9.7484v12.252 12.252c-0.0433 8.842 0.90622 9.7484 9.7304 9.7484h16.539c8.8242 0 9.7304-0.90625 9.7304-9.7484v-12.252-12.252c0-8.8421-0.90622-9.7484-9.7304-9.7484z" color="#000000" fill="#cdcdcd"/>
  </clipPath>
 </defs>
 <path d="m47.5 16.231c0-2.2232-0.0512-3.9737-0.29297-5.4141-0.24178-1.4404-0.69529-2.6191-1.5566-3.4824-0.86134-0.86337-2.0395-1.3191-3.4805-1.5586-1.441-0.23953-3.1954-0.28629-5.4238-0.27539h-12.746-12.752c-2.2251-0.0108-3.9785 0.0361-5.418 0.27539-1.441 0.23953-2.6191 0.69522-3.4805 1.5586-0.86134 0.86338-1.3149 2.042-1.5566 3.4824-0.24179 1.4404-0.29297 3.1909-0.29297 5.4141v17.539c0 2.2232 0.0511 3.9728 0.29297 5.4102 0.24189 1.4374 0.69694 2.6125 1.5586 3.4727 0.86165 0.8602 2.0389 1.3132 3.4785 1.5547 1.4396 0.24149 3.1904 0.29297 5.418 0.29297h12.752 12.752c2.2276 0 3.9784-0.0515 5.418-0.29297 1.4396-0.24149 2.6169-0.69449 3.4785-1.5547 0.86165-0.86019 1.3167-2.0352 1.5586-3.4727 0.24189-1.4374 0.29297-3.187 0.29297-5.4102z" color="#000000" color-rendering="auto" dominant-baseline="auto" image-rendering="auto" opacity=".1" shape-rendering="auto" solid-color="#000000" style="font-feature-settings:normal;font-variant-alternates:normal;font-variant-caps:normal;font-variant-ligatures:normal;font-variant-numeric:normal;font-variant-position:normal;isolation:auto;mix-blend-mode:normal;shape-padding:0;text-decoration-color:#000000;text-decoration-line:none;text-decoration-style:solid;text-indent:0;text-orientation:mixed;text-transform:none;white-space:normal"/>
 <path d="m46.501 15.231c0-8.2315-0.90635-9.7737-9.7484-9.7304h-12.752-12.752c-8.842-0.0433-9.7484 1.4989-9.7484 9.7304v17.539c0 8.2295 0.90625 9.7304 9.7484 9.7304h12.752 12.752c8.8421 0 9.7484-1.5009 9.7484-9.7304z" color="#000000" fill="url(#linearGradient4884)"/>
 <path d="m11.666 10.001c-1.4297-0.018-2.3904 0.30322-2.8834 0.89486-0.51768 0.61628-0.78298 1.6274-0.78298 3.0325v24.072h32v-24.072c0-1.4051-0.2653-2.4163-0.78298-3.0325-0.49302-0.59164-1.4685-0.89486-2.8834-0.89486h-18.975z" enable-background="new" fill="#faf8f6"/>
 <path d="m1.5 19.629v13.141c0 8.2295 0.90592 9.7305 9.748 9.7305h25.504c8.8421 0 9.748-1.501 9.748-9.7305v-13.141l-22.5 10.547z" enable-background="new" fill="#a2bcfe" fill-rule="evenodd"/>
 <path d="m46.5 19.625-43.904 20.494c1.1974 1.8999 3.6579 2.3809 8.6523 2.3809h25.504c8.8421 0 9.748-1.501 9.748-9.7305z" enable-background="new" fill="#fff" fill-rule="evenodd" opacity=".2"/>
 <path d="m14 16v2h20v-2zm0 4v2h10v-2z" color="#000000" fill="#80a3fa" fill-opacity=".99608" opacity=".5"/>
 <path d="m1.5 31.34v1.4297c0 1.8839 0.0531 3.4012 0.23242 4.6426l1.2676 0.55664v-5.9688z" color="#000000" fill="#87a6f3"/>
 <path d="m46.5 31.34-1.5 0.66016v5.9688l1.2676-0.55664c0.17933-1.2414 0.23242-2.7586 0.23242-4.6426z" color="#000000" fill="#87a6f3"/>
 <path d="m1 22.121 2 0.8789v5.9688l-2-0.8789z" color="#000000" fill="#e93549"/>
 <path d="m47 22.121-2 0.8789v5.9688l2-0.8789z" color="#000000" fill="#e93549"/>
 <path d="m46.501 15.231c0-8.2315-0.90635-9.7737-9.7484-9.7304h-12.752-12.752c-8.842-0.0433-9.7484 1.4989-9.7484 9.7304v17.539c0 8.2295 0.90625 9.7304 9.7484 9.7304h12.752 12.752c8.8421 0 9.7484-1.5009 9.7484-9.7304z" color="#000000" fill="none" opacity=".4" stroke="#000"/>
 <path transform="rotate(90 214 -106)" d="m335.73 62c-8.8242 0-9.7736 0.90635-9.7304 9.7484v12.252 12.252c-0.0433 8.842 0.90622 9.7484 9.7304 9.7484h16.539c8.8242 0 9.7304-0.90625 9.7304-9.7484v-12.252-12.252c0-8.8421-0.90622-9.7484-9.7304-9.7484z" clip-path="url(#clipPath994)" color="#000000" fill="none" opacity=".7" stroke="url(#linearGradient1004)" stroke-width="2"/>
</svg>
