<svg width="48" height="48" version="1" xmlns="http://www.w3.org/2000/svg" xmlns:xlink="http://www.w3.org/1999/xlink">
 <defs>
  <linearGradient id="linearGradient1686" x1="320" x2="368" y1="108" y2="60" gradientTransform="rotate(90 214 -106)" gradientUnits="userSpaceOnUse">
   <stop stop-color="#f4843f" offset="0"/>
   <stop stop-color="#f8ae34" offset="1"/>
  </linearGradient>
  <linearGradient id="linearGradient931" x1="297.99" x2="299.4" y1="344.07" y2="141.4" gradientTransform="matrix(.0875 0 0 .0875 1.5995 1.4279)" gradientUnits="userSpaceOnUse">
   <stop stop-color="#f3e6d2" stop-opacity=".99608" offset="0"/>
   <stop stop-color="#f7f4ee" offset="1"/>
  </linearGradient>
  <linearGradient id="linearGradient933" x1="211.4" x2="211.4" y1="344.74" y2="375.68" gradientTransform="matrix(.6485 0 0 .6485 -117 -209.33)" gradientUnits="userSpaceOnUse">
   <stop stop-color="#fdfdfb" offset="0"/>
   <stop stop-color="#f0e9df" offset="1"/>
  </linearGradient>
  <linearGradient id="linearGradient1686-0" x1="322" x2="366" y1="84" y2="84" gradientTransform="rotate(90 214 -106)" gradientUnits="userSpaceOnUse">
   <stop stop-color="#fff" offset="0"/>
   <stop stop-color="#fff" stop-opacity=".098039" offset=".125"/>
   <stop stop-color="#fff" stop-opacity=".098039" offset=".925"/>
   <stop stop-color="#fff" stop-opacity=".49804" offset="1"/>
  </linearGradient>
 </defs>
 <path d="m13.658 2c-2.6221 0-4.6868 0.05009-6.3856 0.28674-1.6989 0.23664-3.089 0.6805-4.1074 1.5235-1.0183 0.84301-1.5558 1.9961-1.8383 3.4064-0.28252 1.4103-0.33767 3.1273-0.32482 5.3084v12.475 12.481c-0.0127 2.1777 0.0426 3.8939 0.32482 5.3027 0.28251 1.4103 0.81998 2.5634 1.8383 3.4064 1.0183 0.84301 2.4085 1.2869 4.1074 1.5235 1.6989 0.23665 3.7635 0.28674 6.3856 0.28674h20.686c2.6221 0 4.6857-0.05 6.381-0.28674 1.6953-0.23674 3.0813-0.6821 4.0958-1.5254 1.0146-0.84331 1.5488-1.9956 1.8337-3.4045 0.28483-1.4089 0.34554-3.1225 0.34554-5.3027v-12.481-12.481c0-2.1802-0.0608-3.8937-0.34554-5.3027-0.28482-1.4089-0.81911-2.5612-1.8337-3.4045-1.0146-0.84332-2.4005-1.2887-4.0958-1.5254-1.6953-0.23674-3.7589-0.28674-6.381-0.28674z" color="#000000" color-rendering="auto" dominant-baseline="auto" image-rendering="auto" opacity=".1" shape-rendering="auto" solid-color="#000000" style="font-feature-settings:normal;font-variant-alternates:normal;font-variant-caps:normal;font-variant-ligatures:normal;font-variant-numeric:normal;font-variant-position:normal;isolation:auto;mix-blend-mode:normal;shape-padding:0;text-decoration-color:#000000;text-decoration-line:none;text-decoration-style:solid;text-indent:0;text-orientation:mixed;text-transform:none;white-space:normal"/>
 <path d="m13.335 1.5c-10.011 0-11.887 0.90635-11.834 9.7484v12.752 12.752c-0.0527 8.842 1.8229 9.7484 11.834 9.7484h21.331c10.009 0 11.834-0.90625 11.834-9.7484v-12.752-12.752c0-8.8421-1.8254-9.7484-11.834-9.7484z" color="#000000" fill="url(#linearGradient1686)"/>
 <path d="m46.5 16.258-26.5 19.742-13.879 10.014c1.7314 0.39636 4.0713 0.48633 7.2148 0.48633h21.33c10.009 0 11.834-0.90592 11.834-9.748v-12.752z" enable-background="new" fill="#fff" opacity=".1"/>
 <path d="m31.931 2.4999c13.622 0 15.568 1.9419 15.568 15.551v11.898c0 13.609-1.9467 15.551-15.568 15.551h-15.863c-13.622 0-15.568-1.9419-15.568-15.551v-11.898c0-13.609 1.9467-15.551 15.568-15.551z" enable-background="new" fill="url(#linearGradient986)"/>
 <path d="m13.208 15.027c-1.251-0.0156-2.092 0.28115-2.5234 0.79883-0.45297 0.53925-0.68555 1.4228-0.68555 2.6523v12.096c0 1.2295 0.23258 2.115 0.68555 2.6543 0.4314 0.51769 1.2724 0.78321 2.5234 0.78321h2.9707l3.918 2.7656 3.918-2.7656h10.775c1.251 0 2.092-0.26552 2.5234-0.78321 0.45298-0.53925 0.68555-1.4248 0.68555-2.6543v-12.096c0-1.2295-0.23257-2.1131-0.68555-2.6523-0.43138-0.51768-1.2724-0.79883-2.5234-0.79883h-15.902z" enable-background="new" fill-opacity=".99608" opacity=".1"/>
 <path d="m9.9995 21v8.5751c0 1.2295 0.23199 2.1141 0.68496 2.6534 0.4314 0.51768 1.2721 0.78306 2.5232 0.78306h2.9712l3.9183 2.7662 3.9187-2.7662h10.775c1.2511 0 2.0917-0.26538 2.5232-0.78306 0.45297-0.53925 0.68496-1.4239 0.68496-2.6534v-8.5751z" enable-background="new" fill="url(#linearGradient931)"/>
 <path d="m13.208 14.028c-1.251-0.0156-2.0916 0.27958-2.523 0.79726-0.45297 0.53925-0.68512 1.424-0.68512 2.6535v11.665l6.1793 3.8678 3.9185 2.766 3.9185-2.766 13.984-10.618v-4.9147c0-1.2295-0.23212-2.1142-0.6851-2.6535-0.43138-0.51768-1.2719-0.79726-2.523-0.79726h-15.903z" enable-background="new" fill="url(#linearGradient933)"/>
 <path d="m14.999 20v1h18v-1z" enable-background="new" fill="#fbc58c" stroke-width=".125"/>
 <path d="m14.999 23v1h8v-1z" enable-background="new" fill="#fbc58c" stroke-width=".125"/>
 <path d="m13.335 1.5c-10.011 0-11.887 0.90635-11.834 9.7484v12.752 12.752c-0.0527 8.842 1.8229 9.7484 11.834 9.7484h21.331c10.009 0 11.834-0.90625 11.834-9.7484v-12.752-12.752c0-8.8421-1.8254-9.7484-11.834-9.7484z" color="#000000" fill="none" opacity=".4" stroke="#000"/>
 <path d="m13.336 2c-4.9905 0-7.8705 0.27628-9.3848 1.4531-0.75713 0.58842-1.2376 1.4035-1.5449 2.6602-0.3073 1.2566-0.4173 2.94-0.4043 5.1328v12.754 12.754c-0.0131 2.1928 0.097 3.8762 0.4043 5.1328 0.30731 1.2566 0.78779 2.0717 1.5449 2.6602 1.5143 1.1768 4.3943 1.4531 9.3848 1.4531h21.33c4.9892 0 7.855-0.27668 9.3633-1.4531 0.75412-0.58824 1.2329-1.4046 1.543-2.6621 0.31003-1.2575 0.42773-2.9395 0.42773-5.1328v-12.752-12.752c0-2.1933-0.1177-3.8753-0.42773-5.1328-0.31004-1.2575-0.78884-2.0739-1.543-2.6621-1.5083-1.1765-4.374-1.4531-9.3633-1.4531zm2.4023 1.0977c6.9474 8.3e-4 13.911 0.0034 20.85 0.05469 2.143 0.08293 4.4643-0.1477 6.4238 0.93164 1.2961 0.69523 1.5486 2.2503 1.7695 3.5645 0.17551 2.2029 0.0915 4.4422 0.13867 6.6699 0.0227 8.4795 0.077 16.969-0.0801 25.447-0.16151 1.4832-0.38135 3.3058-1.7988 4.1426-1.6055 0.82871-3.4755 0.90643-5.248 0.95313-9.4997 0.0678-19.024 0.0843-28.523-0.0176-1.5782-0.11413-3.2705-0.24014-4.6328-1.1211-1.2295-0.99538-1.3608-2.7274-1.5039-4.1934-0.1272-8.9986-0.0836-18.004-0.0527-27.008 0.0997-2.3813-0.24538-4.9 0.70508-7.1602 0.67165-1.5097 2.4657-1.86 3.9394-2.0566 2.6617-0.31658 5.3418-0.14702 8.0137-0.20703z" color="#000000" fill="url(#linearGradient1686-0)"/>
</svg>
