<svg width="48" height="48" version="1" xmlns="http://www.w3.org/2000/svg" xmlns:xlink="http://www.w3.org/1999/xlink">
 <defs>
  <linearGradient id="linearGradient1024" x1="459.03" x2="35.31" y1="419.23" y2="207.37" gradientTransform="matrix(0 -.11328 .11328 0 -11.49 52)" gradientUnits="userSpaceOnUse">
   <stop stop-color="#f2f2f2" offset="0"/>
   <stop stop-color="#f9f9f9" offset="1"/>
  </linearGradient>
  <linearGradient id="linearGradient1004" x1="344" x2="344" y1="62" y2="106" gradientUnits="userSpaceOnUse">
   <stop stop-color="#fff" offset="0"/>
   <stop stop-color="#fff" stop-opacity=".098039" offset=".125"/>
   <stop stop-color="#fff" stop-opacity=".098039" offset=".925"/>
   <stop stop-color="#fff" stop-opacity=".49804" offset="1"/>
  </linearGradient>
  <clipPath id="clipPath994">
   <path d="m335.73 62c-8.8242 0-9.7736 0.90635-9.7304 9.7484v12.252 12.252c-0.0433 8.842 0.90622 9.7484 9.7304 9.7484h16.539c8.8242 0 9.7304-0.90625 9.7304-9.7484v-12.252-12.252c0-8.8421-0.90622-9.7484-9.7304-9.7484z" color="#000000" fill="#cdcdcd"/>
  </clipPath>
 </defs>
 <path d="m15.73 2c-2.2232 0-3.9737 0.05118-5.4141 0.29297-1.4404 0.24178-2.619 0.6953-3.4824 1.5566-0.86337 0.86134-1.3191 2.0395-1.5586 3.4805-0.23953 1.441-0.28629 3.1953-0.27539 5.4238v12.246 12.252c-0.0108 2.2251 0.0361 3.9785 0.27539 5.418 0.23953 1.441 0.69522 2.6191 1.5586 3.4805 0.86338 0.86134 2.042 1.3149 3.4824 1.5566 1.4404 0.24179 3.1909 0.29297 5.4141 0.29297h16.539c2.2232 0 3.9728-0.0511 5.4102-0.29297 1.4374-0.24189 2.6125-0.69694 3.4726-1.5586 0.8602-0.86165 1.3132-2.0389 1.5547-3.4785 0.24149-1.4396 0.29297-3.1904 0.29297-5.418v-12.252-12.252c0-2.2276-0.0515-3.9784-0.29297-5.418-0.24149-1.4396-0.69449-2.6169-1.5547-3.4785-0.86019-0.86165-2.0352-1.3167-3.4726-1.5586-1.4374-0.24189-3.187-0.29297-5.4102-0.29297z" color="#000000" color-rendering="auto" dominant-baseline="auto" image-rendering="auto" opacity=".1" shape-rendering="auto" solid-color="#000000" style="font-feature-settings:normal;font-variant-alternates:normal;font-variant-caps:normal;font-variant-ligatures:normal;font-variant-numeric:normal;font-variant-position:normal;isolation:auto;mix-blend-mode:normal;shape-padding:0;text-decoration-color:#000000;text-decoration-line:none;text-decoration-style:solid;text-indent:0;text-orientation:mixed;text-transform:none;white-space:normal"/>
 <path d="m15.731 2c-8.8242 0-9.7736 0.90635-9.7304 9.7484v12.252 12.252c-0.0433 8.842 0.90622 9.7484 9.7304 9.7484h16.539c8.8242 0 9.7304-0.90625 9.7304-9.7484v-12.252-12.252c0-8.8421-0.90622-9.7484-9.7304-9.7484z" color="#000000" fill="none" opacity=".2" stroke="#000" stroke-width="2"/>
 <path d="m15.731 2c-8.8242 0-9.7736 0.90635-9.7304 9.7484v12.252 12.252c-0.0433 8.842 0.90622 9.7484 9.7304 9.7484h16.539c8.8242 0 9.7304-0.90625 9.7304-9.7484v-12.252-12.252c0-8.8421-0.90622-9.7484-9.7304-9.7484z" color="#000000" fill="url(#linearGradient1024)"/>
 <path d="m26.875 9c1.1734 4.6227-4.1389 6.0188-6.0562 8.8977-1.3056 1.9615 0.64089 4.0692 3.2947 6.4634-1.0349-2.3394-4.5445-4.3858 1e-3 -7.9763 5.6687-4.4743 2.76-7.3848 2.76-7.3848z" clip-rule="evenodd" enable-background="new" fill="#dd4f37" fill-rule="evenodd" stroke-width="3.8358"/>
 <path d="m30.383 14.719c7e-5 0-9.5853 2.3933-5.0076 7.6685 1.3514 1.5556-0.3545 2.9544-0.3545 2.9544s3.4294-1.7699 1.8547-3.9876c-1.4712-2.0671-2.599-3.094 3.5073-6.6353z" clip-rule="evenodd" enable-background="new" fill="#dd4f37" fill-rule="evenodd" stroke-width="3.8358"/>
 <path d="m32.08 24.142c-0.33679 1e-3 -0.6944 0.0596-1.0613 0.18847-0.29415 0.10413-0.44848 0.34619-0.44848 0.34619s0.18596-0.0748 0.60058-0.16137c1.6955-0.35331 4.1249 2.2698-1.1287 4.999-0.0243 0.065-0.10504 0.13794-0.10498 0.13794 6.2479-1.6424 4.8853-5.5154 2.1428-5.5103z" clip-rule="evenodd" enable-background="new" fill="#73a1fb" fill-rule="evenodd" stroke-width="3.8358"/>
 <path d="m20.823 24.408c-0.41154-0.01-2.1907 0.0169-4.3166 1.0454-2.8743 1.3898 7.1084 2.023 12.277 0.66358 0.53733-0.36669 1.2796-0.68505 1.2796-0.68505s-2.1139 0.37791-4.2202 0.55469c-2.578 0.21628-5.3435 0.25898-6.7317 0.0732-3.2867-0.4394 1.8018-1.6482 1.8018-1.6482s-0.0308-2e-3 -0.0896-4e-3z" clip-rule="evenodd" enable-background="new" fill="#73a1fb" fill-rule="evenodd" stroke-width="3.8358"/>
 <path d="m19.728 27.588c-4.7414 1.5736 2.6395 3.3595 9.2661 1.4212-0.70406-0.24819-1.1511-0.7024-1.1511-0.7024-3.24 0.62354-5.1115 0.60362-7.4819 0.35889-1.8327-0.18941-0.63306-1.0776-0.63306-1.0776z" clip-rule="evenodd" enable-background="new" fill="#73a1fb" fill-rule="evenodd" stroke-width="3.8358"/>
 <path d="m20.398 30.653c-4.3052 1.2029 2.6194 3.6877 8.1011 1.3391-0.89781-0.3489-1.5418-0.75171-1.5418-0.75171-2.4445 0.46206-3.5784 0.49846-5.7974 0.24512-1.8313-0.21004-0.76197-0.83253-0.76197-0.83253z" clip-rule="evenodd" enable-background="new" fill="#73a1fb" fill-rule="evenodd" stroke-width="3.8358"/>
 <path d="m17.408 32.686c-1.9334 0.0597-5.7144 1.798-2.2566 2.3591 11.176 1.8115 20.372-0.81594 17.473-2.1238 0 0 0.79175 0.65279-0.87182 1.1575-3.1633 0.95814-13.169 1.2471-15.948 0.0383-0.99828-0.43482 0.87458-1.0375 1.4639-1.1648 0.61444-0.13292 0.96533-0.10865 0.96533-0.10865-0.17359-0.12224-0.46839-0.16877-0.82641-0.15772z" clip-rule="evenodd" enable-background="new" fill="#73a1fb" fill-rule="evenodd" stroke-width="3.8358"/>
 <path d="m34.399 34.347s-0.35227 0.90444-4.167 1.6221c-4.3036 0.81023-9.6128 0.71576-12.761 0.19605 0 0 0.64474 0.5338 3.9583 0.74706 5.0417 0.32233 12.786-0.17933 12.969-2.5652z" clip-rule="evenodd" enable-background="new" fill="#73a1fb" fill-rule="evenodd" stroke-width="3.8358"/>
 <path d="m6 24v12.252c-0.0433 8.842 0.90629 9.748 9.7305 9.748h16.539c8.8242 0 9.7305-0.90592 9.7305-9.748v-12.252z" color="#000000" fill="#fff" opacity=".2"/>
 <path d="m24 2v44h8.2695c8.8242 0 9.7305-0.90592 9.7305-9.748v-12.252-12.252c0-8.8421-0.90629-9.748-9.7305-9.748z" color="#000000" fill="#fff" opacity=".1"/>
 <path transform="translate(-320,-60)" d="m335.73 62c-8.8242 0-9.7736 0.90635-9.7304 9.7484v12.252 12.252c-0.0433 8.842 0.90622 9.7484 9.7304 9.7484h16.539c8.8242 0 9.7304-0.90625 9.7304-9.7484v-12.252-12.252c0-8.8421-0.90622-9.7484-9.7304-9.7484z" clip-path="url(#clipPath994)" color="#000000" fill="none" opacity=".4" stroke="url(#linearGradient1004)" stroke-width="2"/>
</svg>
