<svg width="48" height="48" version="1" xmlns="http://www.w3.org/2000/svg" xmlns:xlink="http://www.w3.org/1999/xlink">
 <defs>
  <linearGradient id="linearGradient920" x1="366" x2="322" y1="84" y2="84" gradientUnits="userSpaceOnUse">
   <stop stop-color="#fff" offset="0"/>
   <stop stop-color="#fff" stop-opacity=".098039" offset=".125"/>
   <stop stop-color="#fff" stop-opacity=".098039" offset=".925"/>
   <stop stop-color="#fff" stop-opacity=".49804" offset="1"/>
  </linearGradient>
  <clipPath id="clipPath892">
   <path d="m366 93c0 5-1.9565 4.9417-7 5h-30c-5.0435-0.0583-7 0-7-5v-18c0-5 1.9565-4.9417 7-5h30c5.0435 0.05831 7 0 7 5z" color="#000000" fill="#cdcdcd"/>
  </clipPath>
  <linearGradient id="linearGradient13871" x1="336" x2="352" y1="67" y2="101" gradientTransform="translate(-320,-60)" gradientUnits="userSpaceOnUse">
   <stop stop-color="#9a9a9a" offset="0"/>
   <stop stop-color="#c5c5c5" offset="1"/>
  </linearGradient>
 </defs>
 <path d="m33 3.0002c5 0 4.9417 1.9565 5 7v30c-0.0583 5.0435 0 7-5 7h-18c-5 0-4.9417-1.9565-5-7v-30c0.0583-5.0435 0-7 5-7z" color="#000000" fill="none" opacity=".2" stroke="#000" stroke-width="2"/>
 <path d="m38.5 39.006c-0.0291 2.5191 0.0152 4.3144-0.70898 5.627-0.36209 0.65627-0.94448 1.1554-1.7324 1.4512s-1.776 0.41602-3.0586 0.41602h-18c-1.2826 0-2.2706-0.12024-3.0586-0.41602s-1.3703-0.7949-1.7324-1.4512c-0.72418-1.3125-0.67986-3.1079-0.70898-5.627v-4e-3 -30.004-4e-3c0.0291-2.5191-0.0152-4.3144 0.70898-5.627 0.36209-0.65627 0.94448-1.1554 1.7324-1.4512 0.78794-0.29542 1.776-0.41584 3.0586-0.41584h18c1.2826 0 2.2706 0.12024 3.0586 0.41602s1.3703 0.7949 1.7324 1.4512c0.72417 1.3125 0.67986 3.1079 0.70898 5.627v4e-3 30.004z" color="#000000" fill="#4d4d4d"/>
 <path d="m15 1.5c-1.2826 0-2.2706 0.1206-3.0586 0.41602-0.78795 0.29578-1.3703 0.7949-1.7324 1.4512-0.72418 1.3125-0.67988 3.1079-0.70898 5.627v0.0039 30.004 0.0039c0.0291 2.5191-0.0152 4.3144 0.70898 5.627 0.36209 0.65627 0.94448 1.1554 1.7324 1.4512s1.776 0.41602 3.0586 0.41602h9v-45z" color="#000000" opacity=".03"/>
 <path d="m9.5 39.006c0.0291 2.5191-0.0152 4.3144 0.70898 5.627 0.36209 0.65627 0.94448 1.1554 1.7324 1.4512 0.78794 0.29578 1.776 0.41602 3.0586 0.41602h18c1.2826 0 2.2706-0.12024 3.0586-0.41602s1.3703-0.7949 1.7324-1.4512c0.72417-1.3125 0.67986-3.1079 0.70898-5.627v-4e-3 -30.004-4e-3c-0.0291-2.5191 0.0152-4.3144-0.70898-5.627-0.36209-0.65627-0.94448-1.1554-1.7324-1.4512-0.78795-0.29542-1.776-0.41584-3.0586-0.41584h-18c-1.2826 0-2.2706 0.12024-3.0586 0.41602-0.78795 0.29578-1.3703 0.7949-1.7324 1.4512-0.72417 1.3125-0.67986 3.1079-0.70898 5.627v4e-3 30.004z" color="#000000" fill="none" opacity=".3" stroke="#000"/>
 <path transform="rotate(-90 154 214)" d="m366 93c0 5-1.9565 4.9417-7 5h-30c-5.0435-0.0583-7 0-7-5v-18c0-5 1.9565-4.9417 7-5h30c5.0435 0.05831 7 0 7 5z" clip-path="url(#clipPath892)" color="#000000" fill="none" opacity=".3" stroke="url(#linearGradient920)" stroke-width="2"/>
 <rect x="12" y="7" width="24" height="34" rx="1" ry="1" enable-background="new" fill="url(#linearGradient13871)"/>
 <rect x="22" y="4" width="4" height="1" rx=".5" ry=".5" enable-background="new" opacity=".3"/>
 <path d="m23.364 7-11.364 22.727v9.7276c0 0.85618 0.68928 1.5454 1.5455 1.5454h3.4545l17-34z" enable-background="new" fill="#fff" opacity=".1"/>
 <path d="m13 7c-0.554 0-1 0.446-1 1v21.727l11.363-22.727z" enable-background="new" fill="#fff" opacity=".2"/>
 <path d="m13 7c-0.554 0-1 0.446-1 1v1c0-0.554 0.446-1 1-1h22c0.554 0 1 0.446 1 1v-1c0-0.554-0.446-1-1-1z" enable-background="new" fill="#393939"/>
 <path d="m12 39v1c0 0.554 0.446 1 1 1h22c0.554 0 1-0.446 1-1v-1c0 0.554-0.446 1-1 1h-22c-0.554 0-1-0.446-1-1z" enable-background="new" fill="#fff" opacity=".4"/>
 <path d="m25.252 14.007-3.7636 0.6557v12.963l3.7441-0.48263-0.0195-5.8428 4.4168 6.4668 4.3388-0.62401-4.9921-6.6935 5.0092-5.6161-4.3924-0.80927-4.3803 5.6161zm-7.9147 3.3102c-0.0362 0.0031-0.0702 0.01884-0.0975 0.0463l-1.2919 1.3065c-0.0561 0.05654-0.0654 0.14468-0.022 0.21207l1.56 2.3961c-0.29429 0.52227-0.51666 1.0949-0.66057 1.6941l-2.6935 0.66057c-0.0747 0.01836-0.13162 0.08594-0.13162 0.16332v1.7014c0 0.07737 0.0569 0.14497 0.13163 0.16331l2.6935 0.66057c0.14392 0.59918 0.36628 1.1718 0.66057 1.6941l-1.56 2.3961c-0.0435 0.06735-0.0342 0.15554 0.022 0.21208l1.2919 1.3065c0.0545 0.05486 0.13897 0.05946 0.20475 0.01949l2.4448-1.4991c0.47965 0.27943 1.2299 0.50425 1.777 0.65326l0.57282 2.7666c0.0159 0.07984 0.0793 0.1365 0.15845 0.1365h1.9256c0.0792 0 0.14253-0.05656 0.15844-0.1365l0.57282-2.7666c0.54703-0.14901 1.2973-0.37384 1.777-0.65326l2.4448 1.4991c0.0657 0.03997 0.15028 0.03547 0.20475-0.01949l1.2919-1.3065c0.0561-0.05656 0.0654-0.14466 0.022-0.21207l-1.2992-1.9963-0.16089 0.02438-0.91163-1.3358c-0.93111 1.9518-2.9002 3.1957-5.0628 3.1981-3.1017 0-5.6161-2.5144-5.6161-5.6161 2e-3 -2.1318 1.2104-4.0788 3.1201-5.0262v-1.2261c-0.35599 0.11869-0.70576 0.25265-0.97502 0.40951l-2.4448-1.4991c-0.0329-0.01996-0.071-0.02983-0.10726-0.02683z" enable-background="new" fill="#fff"/>
</svg>
