<svg width="48" height="48" version="1" xmlns="http://www.w3.org/2000/svg">
 <defs>
  <linearGradient id="linearGradient8588" x1="13.735" x2="38.1" y1="249.69" y2="292.77" gradientTransform="matrix(.94488 0 0 .94488 .50001 -233.13)" gradientUnits="userSpaceOnUse">
   <stop stop-color="#325fd1" offset="0"/>
   <stop stop-color="#6e98ff" offset="1"/>
  </linearGradient>
  <clipPath id="clipPath1237-7">
   <path d="m351.93 62.5c13.622 0 15.568 1.9419 15.568 15.551v11.898c0 13.609-1.9467 15.551-15.568 15.551h-15.863c-13.622 0-15.568-1.9419-15.568-15.551v-11.898c0-13.609 1.9467-15.551 15.568-15.551z" fill="url(#linearGradient1241)"/>
  </clipPath>
  <linearGradient id="linearGradient8590" x1="96" x2="96" y1="4" y2="188" gradientTransform="matrix(.23913 0 0 .23913 1.0435 1.0435)" gradientUnits="userSpaceOnUse">
   <stop stop-color="#fff" offset="0"/>
   <stop stop-color="#fff" stop-opacity=".098039" offset=".125"/>
   <stop stop-color="#fff" stop-opacity=".098039" offset=".925"/>
   <stop stop-color="#fff" stop-opacity=".49804" offset="1"/>
  </linearGradient>
 </defs>
 <circle transform="scale(-1)" cx="-24" cy="-25" r="23" enable-background="new" opacity=".1"/>
 <circle cx="24" cy="24" r="22.5" enable-background="new" fill="url(#linearGradient8588)"/>
 <path transform="matrix(.97884 0 0 .97884 -312.74 -58.092)" d="m339 63-2.625 3 2.25 2.25v2.3516l2.625 2.8984h1.5v-1.5l2.25-2.25v-1.5l1.5-1.5v-2.25l-1.5-1.5zm-5.25 0.97266a22.5 22.5 0 0 0-3.9434 2.584l0.19336 0.19336h3.75zm-4.875 4.2773v2.25h-1.875l-0.54883-0.54883a22.5 22.5 0 0 0-4.9023 13.098l2.4512 2.4512h2.25l3.75 3.75v-4.5l2.25-2.25h1.5l2.25-2.25h2.25l-1.125-1.125 2.25-2.625-2.25-2.25h-3.375v3h-1.5l-1.5-1.5v-1.5l2.25-2.25h1.875v-1.5l-2.25-2.25zm25.875 1.5-2.25 2.25v1.875h2.25v-1.125h1.5v1.5l-0.75 0.75-3 0.05078-1.125 1.0742h-1.5v1.5l-1.125 1.125v2.25h2.25l1.5-1.5h1.5v0.75l1.5 1.5h0.75v-0.75l-1.5-1.5h1.5l1.5 1.5h1.875l-1.125-1.125 1.125-1.125h1.125l1.125 1.125h-1.125l-1.125 1.125 1.1055 1.1055 0.01953 1.1445h-1.5l4.5 4.5h0.75l1.9062-1.9062a22.5 22.5 0 0 0 0.0332-0.6543l-1.1894-1.1895h1.25a22.5 22.5 0 0 0-4.7246-13.775l-1.0254 1.0254-1.5-1.5zm4.5 13.5h-4.5l-0.75-0.75h-4.5l-2.625 2.625v3.75l1.875 1.875h2.625l1.125 1.125v1.125l0.75 0.75v4.5l2.8477 3.0098 4.7031-4.7031-0.05078-4.3066 3.75-3.75h-1.5l-3.75-3.75zm-14.625-10.5v1.125h2.25l-1.125-1.125zm6.75 0.375-1.125 1.125v1.125h1.125zm-11.625 4.125-1.125 1.125h1.125l0.375 0.375h0.375l0.375-0.375zm-6.375 7.875-1.125 1.125h2.25v-1.125zm-1.125 3.375-1.5 1.5v3.75l3.0098 2.6367-0.01 3.3633-1.125 1.125v2.5098a22.5 22.5 0 0 0 1.832 0.96289l4.1682-3.8477v-1.5l2.25-2.25v-1.125l1.125-1.125v-3l-1.5-1.5h-3l-1.5-1.5zm31.125 5.25-1.5 1.3984v2.3516h0.0898a22.5 22.5 0 0 0 1.4102-2.1074z" clip-path="url(#clipPath1237-7)" color="#000000" fill="#fff" opacity=".24"/>
 <circle cx="24" cy="24" r="22.5" enable-background="new" fill="none" opacity=".4" stroke="#000" stroke-dashoffset="6.6" stroke-linejoin="round"/>
 <path d="m24 2a22 22 0 0 0-22 22 22 22 0 0 0 22 22 22 22 0 0 0 22-22 22 22 0 0 0-22-22zm0 0.95653a21.043 21.043 0 0 1 21.043 21.043 21.043 21.043 0 0 1-21.043 21.043 21.043 21.043 0 0 1-21.043-21.043 21.043 21.043 0 0 1 21.043-21.043z" enable-background="new" fill="url(#linearGradient8590)"/>
</svg>
