<svg width="48" height="48" version="1" xmlns="http://www.w3.org/2000/svg" xmlns:xlink="http://www.w3.org/1999/xlink">
 <defs>
  <linearGradient id="linearGradient1686" x1="320" x2="368" y1="108" y2="108" gradientTransform="rotate(90 214 -106)" gradientUnits="userSpaceOnUse">
   <stop stop-color="#2b898f" offset="0"/>
   <stop stop-color="#5bdbc1" offset="1"/>
  </linearGradient>
  <linearGradient id="linearGradient1686-0" x1="322" x2="366" y1="84" y2="84" gradientTransform="rotate(90 214 -106)" gradientUnits="userSpaceOnUse">
   <stop stop-color="#fff" offset="0"/>
   <stop stop-color="#fff" stop-opacity=".098039" offset=".125"/>
   <stop stop-color="#fff" stop-opacity=".098039" offset=".925"/>
   <stop stop-color="#fff" stop-opacity=".49804" offset="1"/>
  </linearGradient>
 </defs>
 <path d="m13.658 2c-2.6221 0-4.6868 0.05009-6.3856 0.28674-1.6989 0.23664-3.089 0.6805-4.1074 1.5235-1.0183 0.84301-1.5558 1.9961-1.8383 3.4064-0.28252 1.4103-0.33767 3.1273-0.32482 5.3084v12.475 12.481c-0.0127 2.1777 0.0426 3.8939 0.32482 5.3027 0.28251 1.4103 0.81998 2.5634 1.8383 3.4064 1.0183 0.84301 2.4085 1.2869 4.1074 1.5235 1.6989 0.23665 3.7635 0.28674 6.3856 0.28674h20.686c2.6221 0 4.6857-0.05 6.381-0.28674 1.6953-0.23674 3.0813-0.6821 4.0958-1.5254 1.0146-0.84331 1.5488-1.9956 1.8337-3.4045 0.28483-1.4089 0.34554-3.1225 0.34554-5.3027v-12.481-12.481c0-2.1802-0.0608-3.8937-0.34554-5.3027-0.28482-1.4089-0.81911-2.5612-1.8337-3.4045-1.0146-0.84332-2.4005-1.2887-4.0958-1.5254-1.6953-0.23674-3.7589-0.28674-6.381-0.28674z" color="#000000" color-rendering="auto" dominant-baseline="auto" image-rendering="auto" opacity=".1" shape-rendering="auto" solid-color="#000000" style="font-feature-settings:normal;font-variant-alternates:normal;font-variant-caps:normal;font-variant-ligatures:normal;font-variant-numeric:normal;font-variant-position:normal;isolation:auto;mix-blend-mode:normal;shape-padding:0;text-decoration-color:#000000;text-decoration-line:none;text-decoration-style:solid;text-indent:0;text-orientation:mixed;text-transform:none;white-space:normal"/>
 <path d="m13.335 1.5c-10.011 0-11.887 0.90635-11.834 9.7484v12.752 12.752c-0.0527 8.842 1.8229 9.7484 11.834 9.7484h21.331c10.009 0 11.834-0.90625 11.834-9.7484v-12.752-12.752c0-8.8421-1.8254-9.7484-11.834-9.7484z" color="#000000" fill="url(#linearGradient1686)"/>
 <path d="m1.4999 20 2e-3 18.667c-0.0347 7.105 0.72825 7.8334 7.8189 7.8334h29.361c7.0907 0 7.8197-0.72834 7.8189-7.8334l-2e-3 -18.667s-7.4617 1.6071-11.25 1.6071c-7.576 1e-6 -14.924-3.2142-22.499-3.2142-3.788 0-11.25 1.6071-11.25 1.6071z" color="#000000" fill="#81e9c0" opacity=".2"/>
 <path d="m12.75 18.392c-3.788 0-11.25 1.6074-11.25 1.6074v1s7.462-1.6074 11.25-1.6074c7.576 0 14.922 3.2148 22.498 3.2148 3.788 0 11.25-1.6074 11.25-1.6074v-1s-7.462 1.6074-11.25 1.6074c-7.576 1e-6 -14.922-3.2148-22.498-3.2148z" color="#000000" fill="#fff" opacity=".3"/>
 <rect x="23" y="40" width="2" height="2" rx=".5" ry=".5" enable-background="new" fill="#313131"/>
 <rect x="23" y="42" width="2" height="2" rx=".5" ry=".5" enable-background="new" fill="#313131"/>
 <rect x="23" y="44" width="2" height="2" rx=".5" ry=".5" enable-background="new" fill="#313131"/>
 <path d="m23.82 10.328c-1.0553-0.01174-1.4238 0.02673-1.5723 1.3027l-0.0566 0.45117c-0.13026 0.82758-0.15647 1.2015-0.93945 1.4043-0.0525 0.01173-0.10404 0.02468-0.15625 0.03711-0.0117 0.0024-0.0234 0.0054-0.0352 0.0078-0.19704 0.04757-0.39282 0.10083-0.58593 0.1582l2e-3 -2e-3c-0.0324 0.01105-0.0611 0.01974-0.0918 0.0293-0.0293 9e-3 -0.0587 0.01621-0.0879 0.02539-0.10995 0.03084-0.18753 0.02851-0.27734 0.03906a11.839 11.847 0 0 0-3.92 2.2188c-0.0841 0.13742-0.21444 0.28144-0.4043 0.44727l0.0195-0.0039c-0.15452 0.14646-0.30471 0.29665-0.45117 0.45117l4e-3 -0.01953c-0.65297 0.7476-0.97852 0.57798-1.8203 0.25391l-0.41797-0.17578c-0.36852-0.1592-0.644-0.23923-0.86328-0.24609-0.48242-0.0151-0.69696 0.32469-1.0527 0.95703-0.53781 0.90804-0.68904 1.2471 0.3418 2.0137l0.36328 0.27344c0.65406 0.52859 0.9668 0.73663 0.74609 1.5234-9e-3 0.02922-0.0184 0.05857-0.0273 0.08789-0.01 0.03064-0.0183 0.0614-0.0293 0.09375l2e-3 -2e-3c-0.0575 0.19371-0.11051 0.38826-0.1582 0.58594-2e-3 0.01266-5e-3 0.02282-8e-3 0.03516-0.0124 0.05221-0.0254 0.10378-0.0371 0.15625-0.0406 0.15666-0.0938 0.26431-0.15039 0.36719a11.839 11.847 0 0 0-0.22852 2.2031 11.839 11.847 0 0 0 0.21094 2.1524c0.0663 0.1093 0.1223 0.23576 0.16797 0.4121 0.0117 0.0525 0.0247 0.106 0.0371 0.15821 3e-3 0.0117 6e-3 0.0233 8e-3 0.0352 0.0476 0.19705 0.10083 0.39282 0.1582 0.58593l-2e-3 -2e-3c0.011 0.0323 0.0197 0.0612 0.0293 0.0918 9e-3 0.0293 0.0182 0.0587 0.0273 0.0879 0.22072 0.78681-0.0921 0.99485-0.74609 1.5234l-0.36133 0.27539c-1.0308 0.76656-0.87961 1.1056-0.3418 2.0137 0.51748 0.91978 0.73478 1.2204 1.9141 0.71094l0.41797-0.17773c0.84179-0.32408 1.1674-0.49174 1.8203 0.25586l-4e-3 -0.0195c0.14646 0.15451 0.29665 0.30471 0.45117 0.45117l-0.0195-4e-3c0.1869 0.16324 0.31613 0.30589 0.40039 0.4414a11.839 11.847 0 0 0 3.9648 2.2285c0.0788 0.0115 0.14259 7e-3 0.23633 0.0332 0.0292 9e-3 0.0586 0.0184 0.0879 0.0273 0.0306 0.01 0.0594 0.0182 0.0918 0.0293l-2e-3 -2e-3c0.19252 0.0572 0.38755 0.11074 0.58398 0.1582 0.0127 2e-3 0.0248 5e-3 0.0371 8e-3 0.0522 0.0124 0.10378 0.0254 0.15625 0.0371 0.78299 0.20279 0.8092 0.57672 0.93945 1.4043l0.0566 0.45117c0.14843 1.276 0.51697 1.3145 1.5723 1.3027 1.0553 0.0117 1.4238-0.0267 1.5723-1.3027l0.0566-0.45117c0.13026-0.82758 0.15451-1.2015 0.9375-1.4043 0.0525-0.0117 0.106-0.0247 0.1582-0.0371 0.0117-2e-3 0.0214-5e-3 0.0332-8e-3h2e-3c0.19705-0.0476 0.39281-0.10083 0.58593-0.1582l-2e-3 2e-3c0.0324-0.0111 0.0611-0.0197 0.0918-0.0293 0.0293-9e-3 0.0587-0.0181 0.0879-0.0273 0.0418-0.0117 0.0668-5e-3 0.10547-0.0137a11.839 11.847 0 0 0 4.4844-2.6758c6e-3 -5e-3 6e-3 -9e-3 0.0117-0.0137l-0.0195 4e-3c0.15452-0.14646 0.30471-0.29665 0.45117-0.45117l-4e-3 0.0195c0.65297-0.7476 0.97851-0.57994 1.8203-0.25586l0.41797 0.17773c1.1793 0.50945 1.3985 0.20884 1.916-0.71094 0.53781-0.90804 0.68709-1.2471-0.34375-2.0137l-0.36133-0.27536c-0.65405-0.52859-0.96681-0.73663-0.74609-1.5234 9e-3 -0.0292 0.0183-0.0586 0.0273-0.0879 0.01-0.0306 0.0183-0.0594 0.0293-0.0918l-2e-3 2e-3c0.0352-0.11849 0.0661-0.23943 0.0977-0.35937l-0.0176-0.01a11.839 11.847 0 0 0 0.39649-2.9746 11.839 11.847 0 0 0-0.39258-2.998l0.01-0.0059c-0.0305-0.11505-0.06-0.23003-0.0937-0.34375l2e-3 2e-3c-0.0111-0.03235-0.0198-0.0631-0.0293-0.09375-9e-3 -0.02932-0.0181-0.05867-0.0273-0.08789-0.22072-0.78681 0.0921-0.99484 0.74609-1.5234l0.36133-0.27344c1.0308-0.76655 0.87961-1.1056 0.3418-2.0137-0.35577-0.63234-0.56837-0.97212-1.0508-0.95703-0.21928 0.0069-0.49476 0.08689-0.86328 0.24609l-0.41797 0.17578c-0.92956 0.21874-1.7176-0.03986-2.1738-0.60156a11.839 11.847 0 0 0-4.627-2.7773c-0.0187-0.0048-0.0294-0.0024-0.0488-0.0078-0.0292-0.0092-0.0586-0.01642-0.0879-0.02539-0.0306-0.0096-0.0594-0.01824-0.0918-0.0293l2e-3 2e-3c-0.19312-0.05737-0.38888-0.11063-0.58593-0.1582h-2e-3c-0.0118-0.0024-0.0215-0.0054-0.0332-0.0078-0.0522-0.01243-0.10378-0.02538-0.15625-0.03711-0.78299-0.20279-0.80919-0.57672-0.93945-1.4043l-0.0566-0.45117c-0.14861-1.276-0.51705-1.3145-1.5723-1.3028z" color="#000000" opacity=".3"/>
 <path d="m23.82 9.328c-1.0553-0.01174-1.4238 0.02673-1.5723 1.3027l-0.0566 0.45117c-0.13026 0.82758-0.15647 1.2015-0.93945 1.4043-0.0525 0.01173-0.10404 0.02468-0.15625 0.03711-0.0117 0.0024-0.0234 0.0054-0.0352 0.0078-0.19704 0.04757-0.39282 0.10083-0.58593 0.1582l2e-3 -2e-3c-0.0324 0.01105-0.0611 0.01974-0.0918 0.0293-0.0293 9e-3 -0.0587 0.01621-0.0879 0.02539-0.10995 0.03084-0.18753 0.02851-0.27734 0.03906a11.839 11.847 0 0 0-3.92 2.2188c-0.0841 0.13742-0.21444 0.28144-0.4043 0.44727l0.0195-0.0039c-0.15452 0.14646-0.30471 0.29665-0.45117 0.45117l4e-3 -0.01953c-0.65297 0.7476-0.97852 0.57798-1.8203 0.25391l-0.41797-0.17578c-0.36852-0.1592-0.644-0.23923-0.86328-0.24609-0.48242-0.0151-0.69696 0.32469-1.0527 0.95703-0.53781 0.90804-0.68904 1.2471 0.3418 2.0137l0.36328 0.27344c0.65406 0.52859 0.9668 0.73663 0.74609 1.5234-9e-3 0.02922-0.0184 0.05857-0.0273 0.08789-0.01 0.03064-0.0183 0.0614-0.0293 0.09375l2e-3 -2e-3c-0.0575 0.19371-0.11051 0.38826-0.1582 0.58594-2e-3 0.01266-5e-3 0.02282-8e-3 0.03516-0.0124 0.05221-0.0254 0.10378-0.0371 0.15625-0.0406 0.15666-0.0938 0.26431-0.15039 0.36719a11.839 11.847 0 0 0-0.22852 2.2031 11.839 11.847 0 0 0 0.21094 2.1523c0.0663 0.1093 0.1223 0.23577 0.16797 0.41211 0.0117 0.0525 0.0247 0.106 0.0371 0.1582 3e-3 0.0117 6e-3 0.0233 8e-3 0.0352 0.0476 0.19706 0.10083 0.39283 0.1582 0.58594l-2e-3 -2e-3c0.011 0.0324 0.0197 0.0612 0.0293 0.0918 9e-3 0.0293 0.0182 0.0587 0.0273 0.0879 0.22072 0.78681-0.0921 0.99484-0.74609 1.5234l-0.36133 0.27539c-1.0308 0.76655-0.87961 1.1056-0.3418 2.0137 0.51748 0.91977 0.73478 1.2204 1.9141 0.71094l0.41797-0.17774c0.84179-0.32407 1.1674-0.49174 1.8203 0.25586l-4e-3 -0.0195c0.14646 0.15452 0.29665 0.30471 0.45117 0.45117l-0.0195-4e-3c0.1869 0.16325 0.31613 0.3059 0.40039 0.44141a11.839 11.847 0 0 0 3.9648 2.2285c0.0788 0.0115 0.14259 7e-3 0.23633 0.0332 0.0292 9e-3 0.0586 0.0184 0.0879 0.0273 0.0306 0.01 0.0594 0.0182 0.0918 0.0293l-2e-3 -2e-3c0.19252 0.0572 0.38755 0.11075 0.58398 0.15821 0.0127 2e-3 0.0248 5e-3 0.0371 8e-3 0.0522 0.0124 0.10378 0.0254 0.15625 0.0371 0.78299 0.20278 0.8092 0.57672 0.93945 1.4043l0.0566 0.45118c0.14843 1.276 0.51697 1.3145 1.5723 1.3027 1.0553 0.0117 1.4238-0.0267 1.5723-1.3027l0.0566-0.45118c0.13026-0.82757 0.15451-1.2015 0.9375-1.4043 0.0525-0.0117 0.106-0.0247 0.1582-0.0371 0.0117-2e-3 0.0214-5e-3 0.0332-8e-3h2e-3c0.19705-0.0476 0.39281-0.10083 0.58593-0.15821l-2e-3 2e-3c0.0324-0.011 0.0611-0.0197 0.0918-0.0293 0.0293-9e-3 0.0587-0.0181 0.0879-0.0273 0.0418-0.0117 0.0668-5e-3 0.10547-0.0137a11.839 11.847 0 0 0 4.4844-2.6758c6e-3 -5e-3 6e-3 -9e-3 0.0117-0.0137l-0.0195 4e-3c0.15452-0.14646 0.30471-0.29665 0.45117-0.45117l-4e-3 0.0195c0.65297-0.7476 0.97851-0.57993 1.8203-0.25586l0.41797 0.17774c1.1793 0.50945 1.3985 0.20883 1.916-0.71094 0.53781-0.90805 0.68709-1.2471-0.34375-2.0137l-0.36133-0.27539c-0.65405-0.52859-0.96681-0.73663-0.74609-1.5234 9e-3 -0.0292 0.0183-0.0586 0.0273-0.0879 0.01-0.0306 0.0183-0.0594 0.0293-0.0918l-2e-3 2e-3c0.0352-0.1185 0.0661-0.23944 0.0977-0.35938l-0.0176-0.01a11.839 11.847 0 0 0 0.39649-2.9746 11.839 11.847 0 0 0-0.39258-2.998l0.01-0.0059c-0.0305-0.11505-0.06-0.23003-0.0937-0.34375l2e-3 2e-3c-0.0111-0.03235-0.0198-0.0631-0.0293-0.09375-9e-3 -0.02932-0.0181-0.05867-0.0273-0.08789-0.22072-0.78681 0.0921-0.99484 0.74609-1.5234l0.36133-0.27344c1.0308-0.76655 0.87961-1.1056 0.3418-2.0137-0.35577-0.63234-0.56837-0.97212-1.0508-0.95703-0.21928 0.0069-0.49476 0.08689-0.86328 0.24609l-0.41797 0.17578c-0.92956 0.21874-1.7176-0.03986-2.1738-0.60156a11.839 11.847 0 0 0-4.627-2.7773c-0.0187-0.0048-0.0294-0.0024-0.0488-0.0078-0.0292-0.0092-0.0586-0.01642-0.0879-0.02539-0.0306-0.0096-0.0594-0.01824-0.0918-0.0293l2e-3 2e-3c-0.19312-0.05737-0.38888-0.11063-0.58593-0.1582h-2e-3c-0.0118-0.0024-0.0215-0.0054-0.0332-0.0078-0.0522-0.01243-0.10378-0.02538-0.15625-0.03711-0.78299-0.20279-0.80919-0.57672-0.93945-1.4043l-0.0566-0.45117c-0.14861-1.276-0.51705-1.3145-1.5723-1.3028z" color="#000000" fill="#313131"/>
 <path d="m1.4999 24 2e-3 14.667c-0.0347 7.105 0.72825 7.8334 7.8189 7.8334h29.361c7.0907 0 7.8199-0.72834 7.8189-7.8334l-2e-3 -14.667s-7.4617 1.6071-11.25 1.6071c-7.576 0-14.924-3.2142-22.499-3.2142-3.788 0-11.25 1.6071-11.25 1.6071z" color="#000000" fill="#81e9c0" opacity=".2"/>
 <path d="m1.4999 28 2e-3 10.667c-0.0347 7.105 0.72825 7.8334 7.8189 7.8334h29.361c7.0907 0 7.8203-0.72834 7.8189-7.8334l-2e-3 -10.667s-7.4617 1.6071-11.25 1.6071c-7.576 0-14.924-3.2142-22.499-3.2142-3.788 0-11.25 1.6071-11.25 1.6071z" color="#000000" fill="#81e9c0" opacity=".2"/>
 <path d="m23.82 9.328c-1.0553-0.01174-1.4238 0.02673-1.5723 1.3027l-0.0566 0.45117c-0.13026 0.82758-0.15647 1.2015-0.93945 1.4043-0.0525 0.01173-0.10404 0.02468-0.15625 0.03711-0.0117 0.0024-0.0234 0.0054-0.0352 0.0078-0.19704 0.04757-0.39282 0.10083-0.58593 0.1582l2e-3 -2e-3c-0.0324 0.01105-0.0611 0.01974-0.0918 0.0293-0.0293 9e-3 -0.0587 0.01621-0.0879 0.02539-0.10995 0.03084-0.18753 0.02851-0.27734 0.03906a11.839 11.847 0 0 0-3.92 2.2188c-0.0841 0.13742-0.21444 0.28144-0.4043 0.44727l0.0195-0.0039c-0.15452 0.14646-0.30471 0.29665-0.45117 0.45117l4e-3 -0.01953c-0.65297 0.7476-0.97852 0.57798-1.8203 0.25391l-0.41797-0.17578c-0.36852-0.1592-0.644-0.23923-0.86328-0.24609-0.48242-0.0151-0.69696 0.32469-1.0527 0.95703-0.39002 0.65851-0.56803 1.0189-0.24805 1.459 0.0695-0.14095 0.14339-0.28229 0.24805-0.45898 0.35577-0.63234 0.57031-0.97213 1.0527-0.95703 0.21928 0.0069 0.49476 0.08689 0.86328 0.24609l0.41797 0.17578c0.8418 0.32407 1.1674 0.4937 1.8203-0.25391l-4e-3 0.01953c0.14646-0.15452 0.29665-0.30471 0.45117-0.45117l-0.0195 0.0039c0.18986-0.16582 0.3202-0.30984 0.4043-0.44727a11.839 11.847 0 0 1 3.9199-2.2188c0.0898-0.01055 0.16739-0.0082 0.27734-0.03906 0.0292-0.0092 0.0586-0.01639 0.0879-0.02539 0.0307-0.0096 0.0594-0.01825 0.0918-0.0293l-2e-3 2e-3c0.19311-0.05738 0.38889-0.11063 0.58593-0.1582 0.0118-0.0024 0.0235-0.0054 0.0352-0.0078 0.0522-0.01243 0.10375-0.02538 0.15625-0.03711 0.78298-0.20279 0.80919-0.57672 0.93945-1.4043l0.0566-0.45117c0.14844-1.276 0.51698-1.3145 1.5723-1.3027 1.0553-0.01174 1.4237 0.0267 1.5723 1.3027l0.0566 0.45117c0.13026 0.82758 0.15646 1.2015 0.93945 1.4043 0.0525 0.01173 0.10405 0.02468 0.15625 0.03711 0.0117 0.0024 0.0214 0.0054 0.0332 0.0078h2e-3c0.19705 0.04757 0.39281 0.10083 0.58593 0.1582l-2e-3 -2e-3c0.0324 0.01106 0.0612 0.0197 0.0918 0.0293 0.0293 9e-3 0.0587 0.01619 0.0879 0.02539 0.0194 0.0054 0.0301 3e-3 0.0488 0.0078a11.839 11.847 0 0 1 4.627 2.7773c0.45618 0.5617 1.2443 0.8203 2.1738 0.60156l0.41797-0.17578c0.36852-0.1592 0.644-0.23919 0.86328-0.24609 0.48241-0.01509 0.69501 0.32469 1.0508 0.95703 0.105 0.17728 0.17844 0.31962 0.24804 0.46094 0.32215-0.44107 0.14261-0.80136-0.24804-1.4609-0.35577-0.63234-0.56837-0.97212-1.0508-0.95703-0.21928 0.0069-0.49476 0.08689-0.86328 0.24609l-0.41797 0.17578c-0.92956 0.21874-1.7176-0.03986-2.1738-0.60156a11.839 11.847 0 0 0-4.6268-2.7773c-0.0187-0.0048-0.0294-0.0024-0.0488-0.0078-0.0292-0.0092-0.0586-0.01642-0.0879-0.02539-0.0306-0.0096-0.0594-0.01824-0.0918-0.0293l2e-3 2e-3c-0.19312-0.05737-0.38888-0.11063-0.58593-0.1582h-2e-3c-0.0118-0.0024-0.0215-0.0054-0.0332-0.0078-0.0522-0.01243-0.10378-0.02538-0.15625-0.03711-0.78299-0.20279-0.80919-0.57672-0.93945-1.4043l-0.0566-0.45117c-0.14868-1.2761-0.51705-1.3145-1.5723-1.3028zm-11.301 11.289c-4e-3 0.01299-7e-3 0.02563-0.0117 0.03906l2e-3 -2e-3c-0.0575 0.19371-0.11051 0.38826-0.1582 0.58594-2e-3 0.01266-5e-3 0.02282-8e-3 0.03516-0.0124 0.05221-0.0254 0.10378-0.0371 0.15625-0.0406 0.15666-0.0938 0.26431-0.15039 0.36719a11.839 11.847 0 0 0-0.22852 2.2031 11.839 11.847 0 0 0 0.0274 0.48632 11.839 11.847 0 0 1 0.20117-1.6894c0.0566-0.10288 0.10979-0.21053 0.15039-0.36719 0.0117-0.05247 0.0247-0.10404 0.0371-0.15625 3e-3 -0.01234 6e-3 -0.0225 8e-3 -0.03516 0.0477-0.19768 0.1007-0.39222 0.1582-0.58594l-2e-3 2e-3c0.011-0.03235 0.0193-0.06311 0.0293-0.09375 9e-3 -0.02932 0.0183-0.05867 0.0273-0.08789 0.11009-0.39244 0.0866-0.64136-0.0449-0.85742zm22.602 0c-0.1315 0.21606-0.15501 0.46498-0.0449 0.85742 9e-3 0.02922 0.0183 0.05857 0.0273 0.08789 0.01 0.03065 0.0182 0.0614 0.0293 0.09375l-2e-3 -2e-3c0.0337 0.11372 0.0633 0.2287 0.0937 0.34375l-0.01 0.0059a11.839 11.847 0 0 1 0.37109 2.6094 11.839 11.847 0 0 0 0.0215-0.61132 11.839 11.847 0 0 0-0.39258-2.9981l0.01-0.0059c-0.0305-0.11505-0.06-0.23003-0.0937-0.34375l2e-3 2e-3c-5e-3 -0.01343-8e-3 -0.02608-0.0117-0.03906zm-22.602 7.7656c-0.13237 0.21644-0.37418 0.39977-0.70117 0.66406l-0.36133 0.2754c-0.82959 0.61689-0.87678 0.97019-0.58984 1.5527 0.12135-0.16615 0.30777-0.34298 0.58984-0.55273l0.36133-0.2754c0.65399-0.52859 0.96681-0.73662 0.74609-1.5234-9e-3 -0.0292-0.0183-0.0586-0.0273-0.0879-6e-3 -0.0177-0.012-0.0353-0.0176-0.0527zm22.602 0c-5e-3 0.0175-0.0118 0.0351-0.0176 0.0527-9e-3 0.0293-0.0183 0.0587-0.0273 0.0879-0.22072 0.78681 0.092 0.99485 0.74609 1.5234l0.36133 0.27539c0.28338 0.21073 0.47034 0.38787 0.5918 0.55469 0.28723-0.58339 0.23845-0.9373-0.5918-1.5547l-0.36133-0.27539c-0.32702-0.2643-0.56881-0.44763-0.70117-0.66406z" color="#000000" fill="#fff" opacity=".6"/>
 <path d="m1.4999 32 2e-3 6.6665c-0.0347 7.105 0.72825 7.8335 7.8189 7.8335h29.361c7.0907 0 7.8211-0.72834 7.8189-7.8335l-2e-3 -6.6665s-7.4617 1.6071-11.25 1.6071c-7.576 0-14.924-3.2142-22.499-3.2142-3.788 0-11.25 1.6071-11.25 1.6071z" color="#000000" fill="#81e9c0" opacity=".2"/>
 <path d="m12.75 30.392c-3.788 0-11.25 1.6074-11.25 1.6074v1s7.462-1.6074 11.25-1.6074c7.576 0 14.922 3.2148 22.498 3.2148 3.788 0 11.25-1.6074 11.25-1.6074v-1s-7.462 1.6074-11.25 1.6074c-7.576 0-14.922-3.2148-22.498-3.2148z" color="#000000" fill="#fff" opacity=".3"/>
 <path d="m12.75 26.392c-3.788 0-11.25 1.6074-11.25 1.6074v1s7.462-1.6074 11.25-1.6074c7.576 0 14.922 3.2148 22.498 3.2148 3.788 0 11.25-1.6074 11.25-1.6074v-1s-7.462 1.6074-11.25 1.6074c-7.576 0-14.922-3.2148-22.498-3.2148z" color="#000000" fill="#fff" opacity=".3"/>
 <path d="m12.75 22.392c-3.788 0-11.25 1.6074-11.25 1.6074v1s7.462-1.6074 11.25-1.6074c7.576 0 14.922 3.2148 22.498 3.2148 3.788 0 11.25-1.6074 11.25-1.6074v-1s-7.462 1.6074-11.25 1.6074c-7.576 0-14.922-3.2148-22.498-3.2148z" color="#000000" fill="#fff" opacity=".3"/>
 <path d="m13.335 1.5c-10.011 0-11.887 0.90635-11.834 9.7484v12.752 12.752c-0.0527 8.842 1.8229 9.7484 11.834 9.7484h21.331c10.009 0 11.834-0.90625 11.834-9.7484v-12.752-12.752c0-8.8421-1.8254-9.7484-11.834-9.7484z" color="#000000" fill="none" opacity=".4" stroke="#000"/>
 <path d="m13.336 2c-4.9905 0-7.8705 0.27628-9.3848 1.4531-0.75713 0.58842-1.2376 1.4035-1.5449 2.6602-0.3073 1.2566-0.4173 2.94-0.4043 5.1328v12.754 12.754c-0.0131 2.1928 0.097 3.8762 0.4043 5.1328 0.30731 1.2566 0.78779 2.0717 1.5449 2.6602 1.5143 1.1768 4.3943 1.4531 9.3848 1.4531h21.33c4.9892 0 7.855-0.27668 9.3633-1.4531 0.75412-0.58824 1.2329-1.4046 1.543-2.6621 0.31003-1.2575 0.42773-2.9395 0.42773-5.1328v-12.752-12.752c0-2.1933-0.1177-3.8753-0.42773-5.1328-0.31004-1.2575-0.78884-2.0739-1.543-2.6621-1.5083-1.1765-4.374-1.4531-9.3633-1.4531zm2.4023 1.0977c6.9474 8.3e-4 13.911 0.0034 20.85 0.05469 2.143 0.08293 4.4643-0.1477 6.4238 0.93164 1.2961 0.69523 1.5486 2.2503 1.7695 3.5645 0.17551 2.2029 0.0915 4.4422 0.13867 6.6699 0.0227 8.4795 0.077 16.969-0.0801 25.447-0.16151 1.4832-0.38135 3.3058-1.7988 4.1426-1.6055 0.82871-3.4755 0.90643-5.248 0.95313-9.4997 0.0678-19.024 0.0843-28.523-0.0176-1.5782-0.11413-3.2705-0.24014-4.6328-1.1211-1.2295-0.99538-1.3608-2.7274-1.5039-4.1934-0.1272-8.9986-0.0836-18.004-0.0527-27.008 0.0997-2.3813-0.24538-4.9 0.70508-7.1602 0.67165-1.5097 2.4657-1.86 3.9394-2.0566 2.6617-0.31658 5.3418-0.14702 8.0137-0.20703z" color="#000000" fill="url(#linearGradient1686-0)"/>
</svg>
