<svg width="48" height="48" version="1" xmlns="http://www.w3.org/2000/svg" xmlns:xlink="http://www.w3.org/1999/xlink">
 <defs>
  <linearGradient id="linearGradient3194" x1="335.23" x2="352.27" y1="61.5" y2="106" gradientTransform="translate(-320,-60)" gradientUnits="userSpaceOnUse">
   <stop stop-color="#e8e8e8" offset="0"/>
   <stop stop-color="#f5f5f5" offset="1"/>
  </linearGradient>
  <linearGradient id="linearGradient1004" x1="344" x2="344" y1="62" y2="106" gradientUnits="userSpaceOnUse">
   <stop stop-color="#fff" offset="0"/>
   <stop stop-color="#fff" stop-opacity=".098039" offset=".125"/>
   <stop stop-color="#fff" stop-opacity=".098039" offset=".925"/>
   <stop stop-color="#fff" stop-opacity=".49804" offset="1"/>
  </linearGradient>
  <clipPath id="clipPath994">
   <path d="m335.73 62c-8.8242 0-9.7736 0.90635-9.7304 9.7484v12.252 12.252c-0.0433 8.842 0.90622 9.7484 9.7304 9.7484h16.539c8.8242 0 9.7304-0.90625 9.7304-9.7484v-12.252-12.252c0-8.8421-0.90622-9.7484-9.7304-9.7484z" color="#000000" fill="#cdcdcd"/>
  </clipPath>
 </defs>
 <path d="m15.231 1.5c-2.2232 0-3.9737 0.05118-5.4141 0.29297-1.4404 0.24178-2.619 0.6953-3.4824 1.5566-0.86337 0.86134-1.3191 2.0395-1.5586 3.4805-0.23953 1.441-0.28629 3.1953-0.27539 5.4238v12.746 12.752c-0.0108 2.2251 0.0361 3.9785 0.27539 5.418 0.23953 1.441 0.69522 2.6191 1.5586 3.4805 0.86338 0.86134 2.042 1.3149 3.4824 1.5566 1.4404 0.24179 3.1909 0.29297 5.4141 0.29297h17.539c2.2232 0 3.9728-0.0511 5.4102-0.29297 1.4374-0.24189 2.6125-0.69694 3.4726-1.5586 0.8602-0.86165 1.3132-2.0389 1.5547-3.4785 0.24149-1.4396 0.29297-3.1904 0.29297-5.418v-12.752-12.752c0-2.2276-0.0515-3.9784-0.29297-5.418-0.24149-1.4396-0.69449-2.6169-1.5547-3.4785-0.86019-0.86165-2.0352-1.3167-3.4726-1.5586-1.4374-0.24189-3.187-0.29297-5.4102-0.29297z" color="#000000" color-rendering="auto" dominant-baseline="auto" image-rendering="auto" opacity=".1" shape-rendering="auto" solid-color="#000000" style="font-feature-settings:normal;font-variant-alternates:normal;font-variant-caps:normal;font-variant-ligatures:normal;font-variant-numeric:normal;font-variant-position:normal;isolation:auto;mix-blend-mode:normal;shape-padding:0;text-decoration-color:#000000;text-decoration-line:none;text-decoration-style:solid;text-indent:0;text-orientation:mixed;text-transform:none;white-space:normal"/>
 <path d="m15.232 1.5c-8.2315 0-9.7736 0.90635-9.7304 9.7484v12.752 12.752c-0.0433 8.842 1.4989 9.7484 9.7304 9.7484h17.539c8.2295 0 9.7304-0.90625 9.7304-9.7484v-12.752-12.752c0-8.8421-1.5009-9.7484-9.7304-9.7484z" color="#000000" fill="url(#linearGradient3194)"/>
 <path d="m15.232 1.5c-8.2315 0-9.7736 0.90635-9.7304 9.7484v12.752 12.752c-0.0433 8.842 1.4989 9.7484 9.7304 9.7484h17.539c8.2295 0 9.7304-0.90625 9.7304-9.7484v-12.752-12.752c0-8.8421-1.5009-9.7484-9.7304-9.7484z" color="#000000" fill="none" opacity=".4" stroke="#000"/>
 <path transform="translate(-320,-60)" d="m335.73 62c-8.8242 0-9.7736 0.90635-9.7304 9.7484v12.252 12.252c-0.0433 8.842 0.90622 9.7484 9.7304 9.7484h16.539c8.8242 0 9.7304-0.90625 9.7304-9.7484v-12.252-12.252c0-8.8421-0.90622-9.7484-9.7304-9.7484z" clip-path="url(#clipPath994)" color="#000000" fill="none" opacity=".7" stroke="url(#linearGradient1004)" stroke-width="2"/>
 <path d="m5.5018 24v12.752c-0.021 4.2865 0.3388 6.6974 1.6445 8.0547 2.2016 0.52529 5.0856 0.69336 8.9219 0.69336h15.863c3.8248 0 6.7031-0.166 8.9023-0.6875 1.3054-1.3563 1.666-3.7682 1.666-8.0606v-12.752z" enable-background="new" fill="#fff" opacity=".2"/>
 <g transform="translate(-316 -60)" enable-background="new">
  <path d="m329.56 86.002c-1.7952 0.12396-3.3474 1.5595-3.5407 3.4539-0.10582 1.2784 0.16239 2.56 0.85901 3.6554 2.1493 3.1372 4.7551 6.0075 7.1533 8.8883 2.2724-3.0107 4.9755-5.7993 7.1555-8.8883 0.72646-1.341 1.0448-2.8576 0.617-4.3423-0.64911-1.5374-1.5948-2.8169-3.3008-2.767-1.9565 8e-3 -4.0109 1.7291-4.4717 3.5536-0.55212-1.4786-2.3568-3.4068-4.053-3.5536z" enable-background="new" fill="#da1636"/>
  <path d="m333 67-5.7657 14.974h-1.2343v1.0256h4v-1.0256h-0.98777l1.2828-2.9949h6.521l1.184 2.9949h-1v1.0167l5 9e-3v-1.0167l-1-9e-3 -6-14.974zm0.55551 3.4502 2.915 7.5249h-5.8298z" enable-background="new" fill="#da1636"/>
  <path d="m333 67-5.7657 14.989h-1.2343v0.24211h1.2343l5.7657-15.009h2l6 15 1 9e-3v-0.22222l-1-9e-3 -6-15z" enable-background="new" fill="#fff" opacity=".495"/>
  <path d="m330.63 77.994-0.0856 0.22222h6.0302l-0.0855-0.22222z" enable-background="new" fill="#fff" opacity=".495"/>
  <path d="m329 81.989-0.049 0.24211h1.05v-0.24211z" enable-background="new" fill="#fff" opacity=".495"/>
  <path d="m337 82v0.22222l1.099 9e-3 -0.0856-0.22222z" enable-background="new" fill="#fff" opacity=".495"/>
  <path d="m329.56 86.001c-1.7952 0.12396-3.349 1.5598-3.5423 3.4541-0.017 0.20571-0.0204 0.41114-0.0179 0.61627 3e-3 -0.13131 7e-3 -0.26264 0.0179-0.39407 0.1933-1.8944 1.7472-3.3302 3.5423-3.4541h0.41791c1.6962 0.14674 3.5016 2.0766 4.0537 3.5552 0.46081-1.8244 2.5151-3.5478 4.4716-3.5552 1.7061-0.0499 2.6508 1.2306 3.3 2.768 0.12178 0.42263 0.18088 0.84769 0.18952 1.2707 0.0113-0.49609-0.0464-0.99625-0.18952-1.4929-0.64913-1.5374-1.5939-2.8179-3.3-2.768-1.9565 7e-3 -4.0108 1.7308-4.4716 3.5552-0.5521-1.4786-2.3575-3.4085-4.0537-3.5552z" enable-background="new" fill="#fff" opacity=".495"/>
  <path d="m327 92.607c0.12948 0.50287 0.33014 0.98792 0.61406 1.4371 1.9117 2.8077 4.2277 5.3778 6.3629 7.9559h0.0711c1.5784-2.0981 3.3818-4.0794 5.0199-6.1594z" enable-background="new" fill="#fff" opacity=".08"/>
 </g>
</svg>
