<svg width="48" height="48" version="1" xmlns="http://www.w3.org/2000/svg" xmlns:xlink="http://www.w3.org/1999/xlink">
 <defs>
  <linearGradient id="linearGradient1024" x1="459.03" x2="35.31" y1="419.23" y2="207.37" gradientTransform="matrix(0 -.11328 .11328 0 -11.49 52)" gradientUnits="userSpaceOnUse">
   <stop stop-color="#f2f2f2" offset="0"/>
   <stop stop-color="#f9f9f9" offset="1"/>
  </linearGradient>
  <linearGradient id="linearGradient1024-6" x1="462.96" x2="184.63" y1="301.35" y2="309.53" gradientTransform="matrix(0 -.11328 .11328 0 -11.49 52)" gradientUnits="userSpaceOnUse">
   <stop stop-color="#ff10ff" stop-opacity=".98824" offset="0"/>
   <stop stop-color="#ff0bff" stop-opacity=".009524" offset="1"/>
  </linearGradient>
  <linearGradient id="linearGradient1024-6-8" x1="258.63" x2="47.099" y1="317.07" y2="152.35" gradientTransform="matrix(0 -.11328 .11328 0 -11.49 52)" gradientUnits="userSpaceOnUse">
   <stop stop-color="#2ffffe" stop-opacity="0" offset="0"/>
   <stop stop-color="#14ffff" stop-opacity=".88628" offset="1"/>
  </linearGradient>
  <linearGradient id="linearGradient1024-6-8-9" x1="258.63" x2="49.063" y1="317.07" y2="466.71" gradientTransform="matrix(0 -.11328 .11328 0 -11.49 52)" gradientUnits="userSpaceOnUse">
   <stop stop-color="#fff755" stop-opacity="0" offset="0"/>
   <stop stop-color="#fffa3b" stop-opacity=".99216" offset="1"/>
  </linearGradient>
  <linearGradient id="linearGradient1664-5" x1="178.17" x2="-13.929" y1="137.54" y2="128.92" gradientUnits="userSpaceOnUse">
   <stop stop-color="#5995e8" offset="0"/>
   <stop stop-color="#63a0e6" stop-opacity=".01" offset="1"/>
  </linearGradient>
  <linearGradient id="linearGradient1004" x1="344" x2="344" y1="62" y2="106" gradientUnits="userSpaceOnUse">
   <stop stop-color="#fff" offset="0"/>
   <stop stop-color="#fff" stop-opacity=".098039" offset=".125"/>
   <stop stop-color="#fff" stop-opacity=".098039" offset=".925"/>
   <stop stop-color="#fff" stop-opacity=".49804" offset="1"/>
  </linearGradient>
  <clipPath id="clipPath994">
   <path d="m335.73 62c-8.8242 0-9.7736 0.90635-9.7304 9.7484v12.252 12.252c-0.0433 8.842 0.90622 9.7484 9.7304 9.7484h16.539c8.8242 0 9.7304-0.90625 9.7304-9.7484v-12.252-12.252c0-8.8421-0.90622-9.7484-9.7304-9.7484z" color="#000000" fill="#cdcdcd"/>
  </clipPath>
 </defs>
 <path d="m15.73 2c-2.2232 0-3.9737 0.05118-5.4141 0.29297-1.4404 0.24178-2.6191 0.6953-3.4824 1.5566-0.86337 0.86134-1.3191 2.0395-1.5586 3.4805-0.23953 1.441-0.28629 3.1953-0.27539 5.4238v12.246 12.252c-0.0108 2.2251 0.0361 3.9785 0.27539 5.418 0.23953 1.441 0.69522 2.6191 1.5586 3.4805 0.86338 0.86134 2.042 1.3149 3.4824 1.5566 1.4404 0.24179 3.1909 0.29297 5.4141 0.29297h16.539c2.2232 0 3.9728-0.0511 5.4102-0.29297 1.4374-0.24189 2.6125-0.69694 3.4726-1.5586 0.8602-0.86165 1.3132-2.0389 1.5547-3.4785 0.24149-1.4396 0.29297-3.1904 0.29297-5.418v-12.252-12.252c0-2.2276-0.0515-3.9784-0.29297-5.418-0.24149-1.4396-0.69449-2.6169-1.5547-3.4785-0.86019-0.86165-2.0352-1.3167-3.4726-1.5586-1.4374-0.24189-3.187-0.29297-5.4102-0.29297z" color="#000000" color-rendering="auto" dominant-baseline="auto" image-rendering="auto" opacity=".1" shape-rendering="auto" solid-color="#000000" style="font-feature-settings:normal;font-variant-alternates:normal;font-variant-caps:normal;font-variant-ligatures:normal;font-variant-numeric:normal;font-variant-position:normal;isolation:auto;mix-blend-mode:normal;shape-padding:0;text-decoration-color:#000000;text-decoration-line:none;text-decoration-style:solid;text-indent:0;text-orientation:mixed;text-transform:none;white-space:normal"/>
 <path d="m15.731 2c-8.8242 0-9.7737 0.90635-9.7304 9.7484v12.252 12.252c-0.0433 8.842 0.90622 9.7484 9.7304 9.7484h16.539c8.8242 0 9.7304-0.90625 9.7304-9.7484v-12.252-12.252c0-8.8421-0.90622-9.7484-9.7304-9.7484z" color="#000000" fill="none" opacity=".2" stroke="#000" stroke-width="2"/>
 <path d="m15.731 2c-8.8242 0-9.7737 0.90635-9.7304 9.7484v12.252 12.252c-0.0433 8.842 0.90622 9.7484 9.7304 9.7484h16.539c8.8242 0 9.7304-0.90625 9.7304-9.7484v-12.252-12.252c0-8.8421-0.90622-9.7484-9.7304-9.7484z" color="#000000" fill="url(#linearGradient1024)"/>
 <path d="m15.731 2c-8.8242 0-9.7737 0.90635-9.7304 9.7484v12.252 12.252c-0.0433 8.842 0.90622 9.7484 9.7304 9.7484h16.539c8.8242 0 9.7304-0.90625 9.7304-9.7484v-12.252-12.252c0-8.8421-0.90622-9.7484-9.7304-9.7484z" color="#000000" fill="url(#linearGradient1024-6)"/>
 <path d="m15.731 2c-8.8242 0-9.7737 0.90635-9.7304 9.7484v12.252 12.252c-0.0433 8.842 0.90622 9.7484 9.7304 9.7484h16.539c8.8242 0 9.7304-0.90625 9.7304-9.7484v-12.252-12.252c0-8.8421-0.90622-9.7484-9.7304-9.7484z" color="#000000" fill="url(#linearGradient1024-6-8)"/>
 <path d="m15.731 2c-8.8242 0-9.7737 0.90635-9.7304 9.7484v12.252 12.252c-0.0433 8.842 0.90622 9.7484 9.7304 9.7484h16.539c8.8242 0 9.7304-0.90625 9.7304-9.7484v-12.252-12.252c0-8.8421-0.90622-9.7484-9.7304-9.7484z" color="#000000" fill="url(#linearGradient1024-6-8-9)"/>
 <g transform="matrix(.088862 0 0 .088862 19.321 18.873)" enable-background="new">
  <path d="m-22.552 87.24c17.264 36.266 66.118 56.467 96.287 57.485 14.861-0.0446 30.777-3.8685 44.072-9.5808s26.716-22.497 40.719-20.12 16.727 20.392 19.641 31.617-0.77395 19.707-3.3533 25.868-2.4223 6.3797-8.6228 11.018-20.846 9.2706-30.18 11.976c-59.898 15.037-121.94-17.041-150.42-68.982-6.4245-11.957-11.469-26.354-12.455-34.012-0.9859-7.6578-1.6128-9.3818 0.95808-10.06s3.5928 2.8742 3.3533 4.7904z" fill="url(#linearGradient1664-5)"/>
  <path d="m120.67 64.465c1.9162 0.95809 37.365 36.407 37.365 36.407l3.3533 4.3114s-14.371 21.078-16.766 19.162c-2.3952-1.9162-47.425-34.012-47.425-34.012-6.5213-13.026 11.214-31.805 23.473-25.868z" opacity=".2"/>
  <path d="m-76.153-80.488c21.478 12.763 60.54 37.125 60.54 37.125s40.169 24.295 52.836 32.267c12.668 7.9718 14.423 8.6685 25.036 15.087 10.613 6.4183 23.467 16.593 23.467 16.593s13.021 11.469 17.01 16.204c3.9889 4.7355 7.4246 9.2153 9.9397 14.081s5.7162 14.517 5.7162 14.517l-16.384 28.308s-5.8841 1.653-13.276 0.63811c-7.3917-1.0149-18.169-6.2356-25.705-10.283-7.5354-4.0472-11.127-6.336-19.438-13.324-8.3114-6.988-16.419-15.755-29.685-29.296-6.1263-6.2534-16.854-18.539-27.257-29.637-12.125-12.935-23.6-24.362-23.6-24.362s-33.488-34.462-50.014-53.304c-6.0256-9.1578 2.4707-17.64 10.814-14.614z" fill="#180000" opacity=".2"/>
  <path d="m-73.434-83.207c21.478 12.763 60.54 37.125 60.54 37.125s40.169 24.295 52.836 32.267c12.668 7.9718 14.423 8.6685 25.036 15.087 10.613 6.4183 23.467 16.593 23.467 16.593s13.021 11.469 17.01 16.204c3.9889 4.7355 7.4246 9.2153 9.9397 14.081s5.7162 14.517 5.7162 14.517l-16.384 28.308s-5.8841 1.653-13.276 0.63811c-7.3917-1.0149-18.169-6.2356-25.705-10.283-7.5354-4.0472-11.127-6.336-19.438-13.324-8.3114-6.988-16.419-15.755-29.685-29.296-6.1263-6.2534-16.854-18.539-27.257-29.637-12.125-12.935-23.6-24.362-23.6-24.362s-33.488-34.462-50.014-53.304c-6.0256-9.1578 2.4707-17.64 10.814-14.614z" fill="#494949"/>
  <path d="m121.11 62.667c1.9162 0.95809 37.365 36.407 37.365 36.407l3.3533 4.3114s-14.371 21.078-16.766 19.162c-2.3952-1.9162-47.425-34.012-47.425-34.012-6.5213-13.026 11.214-31.805 23.473-25.868z" fill="#bfbebf"/>
  <path d="m163.35 181.96c3.9276-7.6987 2.4193-16.172-4.7188-26.508-13.3-19.26-15.981-24.623-16.451-32.918-0.46366-8.1764 5.9671-18.334 14.297-22.584 16.586-8.4618 37.835 11.464 37.835 35.48 0 17.823-9.5331 34.085-28.094 47.925-4.8478 3.6147-5.3088 3.3907-2.8681-1.3934z"/>
 </g>
 <path d="m6 24v12.252c-0.0433 8.842 0.90629 9.748 9.7305 9.748h16.539c8.8242 0 9.7305-0.90592 9.7305-9.748v-12.252z" color="#000000" fill="#fff" opacity=".2"/>
 <path d="m24 2v44h8.2695c8.8242 0 9.7305-0.90592 9.7305-9.748v-12.252-12.252c0-8.8421-0.90629-9.748-9.7305-9.748z" color="#000000" fill="#fff" opacity=".1"/>
 <path transform="translate(-320,-60)" d="m335.73 62c-8.8242 0-9.7736 0.90635-9.7304 9.7484v12.252 12.252c-0.0433 8.842 0.90622 9.7484 9.7304 9.7484h16.539c8.8242 0 9.7304-0.90625 9.7304-9.7484v-12.252-12.252c0-8.8421-0.90622-9.7484-9.7304-9.7484z" clip-path="url(#clipPath994)" color="#000000" fill="none" opacity=".4" stroke="url(#linearGradient1004)" stroke-width="2"/>
</svg>
