<svg width="48" height="48" version="1" xmlns="http://www.w3.org/2000/svg">
 <defs>
  <linearGradient id="linearGradient8588" x1="13.735" x2="38.1" y1="249.69" y2="292.77" gradientTransform="matrix(.94488 0 0 .94488 .50001 -233.13)" gradientUnits="userSpaceOnUse">
   <stop stop-color="#da1636" offset="0"/>
   <stop stop-color="#f22c42" offset="1"/>
  </linearGradient>
  <linearGradient id="linearGradient8590" x1="96" x2="96" y1="4" y2="188" gradientTransform="matrix(.23913 0 0 .23913 1.0435 1.0435)" gradientUnits="userSpaceOnUse">
   <stop stop-color="#fff" offset="0"/>
   <stop stop-color="#fff" stop-opacity=".098039" offset=".125"/>
   <stop stop-color="#fff" stop-opacity=".098039" offset=".925"/>
   <stop stop-color="#fff" stop-opacity=".49804" offset="1"/>
  </linearGradient>
 </defs>
 <circle transform="scale(-1)" cx="-24" cy="-25" r="23" enable-background="new" opacity=".1"/>
 <circle cx="24" cy="24" r="22.5" enable-background="new" fill="url(#linearGradient8588)"/>
 <path d="m17.587 31.924c-0.52021-0.07-1.4456-0.3712-2.0628-0.6683-4.0216-1.927-5.6663-6.7804-3.6855-10.868 2.2629-4.6743 8.4374-5.8659 12.153-2.3451 1.0744 1.0165 1.5516 1.8839 3.1693 5.7298 1.6887 4.022 2.0008 4.6544 2.548 5.1906 0.58624 0.5703 1.1295 0.7624 2.1689 0.7624 1.7077 0 2.9272-1.0555 2.9272-2.5283 0-1.2466-0.43818-1.6458-2.6731-2.4392-3.4034-1.2276-4.5058-2.3371-4.5098-4.5653 0-1.1886 0.30112-1.981 1.0664-2.8024 1.0984-1.1725 2.9932-1.5597 4.6699-0.9775 0.71529 0.2542 2.2119 1.5788 2.2119 1.958 0 0.1841-0.86735 0.7464-1.3485 0.8795-0.2541 0.066-0.47319-0.02-0.76631-0.3012-0.59424-0.5703-0.9964-0.7464-1.7077-0.7464-1.2275 0-1.9888 0.7384-1.9888 1.931 0 1.1886 0.48419 1.5908 2.9032 2.4072 3.3333 1.1256 4.3177 2.1421 4.3377 4.4943 0.02001 2.032-0.89536 3.4977-2.7161 4.3651-0.82833 0.3912-1.1094 0.4413-2.462 0.4413-1.9308 0-2.7981-0.3592-3.8806-1.5788-0.72729-0.8204-1.4656-2.3602-3.8295-7.981-0.98039-2.3292-2.2389-3.4708-4.3377-3.92-1.0634-0.2271-2.544-0.016-3.5094 0.4923-0.94138 0.4922-1.9928 1.6028-2.489 2.6183-0.41016 0.8244-0.44918 1.0555-0.44918 2.4892 0 1.3677 0.05502 1.6919 0.39816 2.4422 0.52021 1.1456 1.5436 2.2041 2.6691 2.7744 0.81333 0.4102 1.0664 0.4613 2.3639 0.4613 1.2465 0 1.5666-0.059 2.3099-0.4142 0.84834-0.4143 1.9888-1.4308 2.454-2.1921l0.2421-0.3952 0.47719 1.0905c0.26611 0.6023 0.48019 1.1686 0.48019 1.2706 0 0.3012-1.0784 1.2857-2.0668 1.899-1.5006 0.9265-3.2243 1.2736-5.065 1.0235" fill="#fff"/>
 <path d="m2.1085 26a22 22 0 0 0 21.891 20 22 22 0 0 0 21.9-20z" enable-background="new" fill="#fff" opacity=".05"/>
 <circle cx="24" cy="24" r="22.5" enable-background="new" fill="none" opacity=".4" stroke="#000" stroke-dashoffset="6.6" stroke-linejoin="round"/>
 <path d="m24 2a22 22 0 0 0-22 22 22 22 0 0 0 22 22 22 22 0 0 0 22-22 22 22 0 0 0-22-22zm0 0.95653a21.043 21.043 0 0 1 21.043 21.043 21.043 21.043 0 0 1-21.043 21.043 21.043 21.043 0 0 1-21.043-21.043 21.043 21.043 0 0 1 21.043-21.043z" enable-background="new" fill="url(#linearGradient8590)"/>
</svg>
