<svg width="48" height="48" version="1" xmlns="http://www.w3.org/2000/svg" xmlns:xlink="http://www.w3.org/1999/xlink">
 <defs>
  <linearGradient id="linearGradient3194" x1="335.73" x2="352.27" y1="62" y2="106" gradientTransform="translate(-320,-60)" gradientUnits="userSpaceOnUse">
   <stop stop-color="#f2f2f2" offset="0"/>
   <stop stop-color="#fff" offset="1"/>
  </linearGradient>
  <linearGradient id="linearGradient18935" x1="352.77" x2="335.23" y1="106.5" y2="61.5" gradientTransform="translate(-320,-60)" gradientUnits="userSpaceOnUse">
   <stop stop-color="#626262" offset="0"/>
   <stop stop-color="#4c4c4c" offset="1"/>
  </linearGradient>
  <linearGradient id="linearGradient54806" x1="3618.4" x2="3618.4" y1="-758.64" y2="-772.64" gradientTransform="matrix(1.5 0 0 1.5714 -1803 336.51)" gradientUnits="userSpaceOnUse">
   <stop stop-color="#fff" stop-opacity=".58824" offset="0"/>
   <stop stop-color="#fff" stop-opacity=".86274" offset="1"/>
  </linearGradient>
  <linearGradient id="linearGradient3008" x1="3716.2" x2="3716.2" y1="683.98" y2="705.13" gradientUnits="userSpaceOnUse" xlink:href="#linearGradient10292"/>
  <linearGradient id="linearGradient10292">
   <stop stop-color="#666" offset="0"/>
   <stop stop-color="#333" offset="1"/>
  </linearGradient>
  <linearGradient id="linearGradient54797" x1="195.75" x2="195.75" y1="1016.2" y2="1032.2" gradientTransform="translate(3435.5,-1891.5)" gradientUnits="userSpaceOnUse" xlink:href="#linearGradient10292"/>
  <linearGradient id="linearGradient54794" x1="195.75" x2="195.75" y1="1016.2" y2="1032.2" gradientTransform="matrix(-1,0,0,1,3830.5,-1892)" gradientUnits="userSpaceOnUse" xlink:href="#linearGradient10292"/>
  <linearGradient id="linearGradient1004" x1="344" x2="344" y1="62" y2="106" gradientUnits="userSpaceOnUse">
   <stop stop-color="#fff" offset="0"/>
   <stop stop-color="#fff" stop-opacity=".098039" offset=".125"/>
   <stop stop-color="#fff" stop-opacity=".098039" offset=".925"/>
   <stop stop-color="#fff" stop-opacity=".49804" offset="1"/>
  </linearGradient>
  <clipPath id="clipPath994-5">
   <path d="m335.73 62c-8.8242 0-9.7736 0.90635-9.7304 9.7484v12.252 12.252c-0.0433 8.842 0.90622 9.7484 9.7304 9.7484h16.539c8.8242 0 9.7304-0.90625 9.7304-9.7484v-12.252-12.252c0-8.8421-0.90622-9.7484-9.7304-9.7484z" color="#000000" fill="#cdcdcd"/>
  </clipPath>
 </defs>
 <path d="m33.503 1.3729c-0.13268 1.31e-4 -0.25604 0.01264-0.36719 0.0293l-0.0781 0.01172-0.0762 0.02344c-0.87574 0.27912-1.3941 1.0319-1.5644 1.793-0.1518 0.67813 0.0116 1.4446 0.51367 2.0508l-0.36328-0.36328-0.01-0.0078-2e-3 -0.0039s-2e-3 0.0038-2e-3 0.0039c-0.28283-0.2673-0.55686-0.52452-0.83398-0.76758h-2e-3l-2e-3 -0.0039-2e-3 -2e-3s-6e-3 -0.0019-6e-3 -2e-3c-0.2711-0.23754-0.5406-0.46096-0.81055-0.66992 0 0-6e-3 -0.0038-6e-3 -0.0039-1.8e-4 -8.7e-5 -6e-3 -0.0038-6e-3 -0.0039-0.26922-0.20801-0.54257-0.40597-0.82617-0.58789h-2e-3l-2e-3 -2e-3c0 1e-6 -4e-3 -0.0019-4e-3 -2e-3 -0.27684-0.17726-0.55998-0.34117-0.85742-0.48828 1e-5 0-6e-3 -0.0019-6e-3 -2e-3 -0.29595-0.14608-0.60404-0.27589-0.92383-0.38672l-4e-3 -2e-3h-2e-3 -2e-3c-0.31787-0.10978-0.64897-0.20279-0.99414-0.27539 0-1e-6 -9e-3 7.3e-5 -0.01 0-0.34183-0.07151-0.69666-0.12699-1.0703-0.16211h-2e-3c-0.37669-0.03533-0.76878-0.05072-1.1777-0.05078h-2e-3 -8.2674c-4.1516 0-6.8654 0.14456-8.6523 1.832-0.89392 0.84418-1.4205 2.0152-1.7129 3.4648-0.29235 1.4496-0.3762 2.7165-0.36524 4.9569v12.746 12.752c-0.0108 2.237 0.0732 4.0031 0.36524 5.4512 0.29236 1.4496 0.81896 2.6207 1.7129 3.4648 0.22046 0.20818 0.46372 0.3989 0.72656 0.5664l4e-3 2e-3 6e-3 4e-3s0.011 4e-3 0.0117 4e-3c0.24938 0.15738 0.51414 0.29744 0.79688 0.41797l6e-3 2e-3c1e-3 5.8e-4 3e-3 3e-3 4e-3 4e-3h2e-3c1e-3 2.9e-4 0.01 3e-3 0.0117 4e-3 0.28562 0.12045 0.58739 0.22665 0.90625 0.31446h2e-3 2e-3c0.31721 0.0872 0.65158 0.16192 1.0059 0.22265h4e-3 2e-3 2e-3c0.35215 0.0602 0.71743 0.1063 1.1016 0.14453 2e-5 0 5e-3 -1e-5 6e-3 0 0.38435 0.0381 0.78775 0.0683 1.2129 0.0899h4e-3 2e-3c4.7e-4 1e-5 5e-3 -1e-5 6e-3 0l4e-3 2e-3c3.5e-4 1e-5 0.0746-7e-5 0.0723 0 0.83602 0.0405 1.7448 0.0566 2.7539 0.0566h2e-3 17.037c4.123 0 6.3169-0.14165 8.102-1.8026 0.89298-0.83017 1.4241-1.9843 1.7246-3.4102 0.30048-1.4259 0.39703-3.1613 0.40234-5.3594v-18.908-2e-3c-9e-3 -1.9019-1.1888-3.3894-2.3223-4.541-0.37676-0.38288-0.75737-0.73361-1.1094-1.0508l-0.28515-0.25781h0.0273l-0.0117-0.01172h-2e-3l-0.0508-0.05078c0.7203 0.56264 1.6396 0.6136 2.3652 0.31836 0.78035-0.31751 1.5022-1.0454 1.541-2.0605v-0.01953-1.6307-0.0059c8e-3 -1.6279 0.0362-2.8672-0.0274-3.875-0.0638-1.0094-0.2058-1.8504-0.73633-2.5469s-1.3622-1.0292-2.2852-1.1816c-0.92293-0.15243-2.0353-0.17916-3.5234-0.21289h-0.0117l-2.8442-9.7e-5h-2e-3c-0.073-0.0069-0.14393-0.0174-0.2207-0.01758zm-24.572 43.877c7.7e-4 4.2e-4 1e-3 2e-3 2e-3 2e-3 -0.0334 3e-3 -0.0689 6e-3 -0.0684 6e-3 5.2e-4 -8e-5 0.0335-4e-3 0.0664-8e-3zm-0.0312 1.9844c5e-3 2.6e-4 0.0335 4e-3 0.0645 6e-3 -0.0263-1e-3 -0.0586-4e-3 -0.0586-4e-3z" color="#000000" color-rendering="auto" dominant-baseline="auto" image-rendering="auto" opacity=".1" shape-rendering="auto" solid-color="#000000" style="font-feature-settings:normal;font-variant-alternates:normal;font-variant-caps:normal;font-variant-ligatures:normal;font-variant-numeric:normal;font-variant-position:normal;isolation:auto;mix-blend-mode:normal;shape-padding:0;text-decoration-color:#000000;text-decoration-line:none;text-decoration-style:solid;text-indent:0;text-orientation:mixed;text-transform:none;white-space:normal"/>
 <path d="m16.473 2.5312c-2.546 0.12506-5.2087-0.17242-7.6543 0.73438-2.0692 0.92116-2.0181 3.3983-2.0625 5.2754-0.12434 10.502-0.11238 21.057-6e-3 31.578-0.12334 1.9829 0.63227 4.4679 2.8418 4.9082 2.6268 0.58433 5.4611 0.20883 8.1719 0.34375 6.4936-0.0369 12.997 0.17568 19.484-0.14257 1.7424-0.10485 3.5195-1.1491 3.7852-3.0039 0.68454-4.3014 0.39547-8.6914 0.47657-13.031-0.0649-3.9845 0.0576-8.0132-0.13672-11.969-0.97445-1.8126-2.6874-3.1157-4.0254-4.6562-3.0394-3.0472-6.0344-6.2164-9.3301-8.9375-2.1764-1.5049-4.9648-0.88722-7.4414-1.0781-1.3676-0.01595-2.7339-0.02666-4.1016-0.02148z" color="#000000" fill="url(#linearGradient3194)"/>
 <path d="m33.5 1.375c-0.0742 0-0.1474 0.0066-0.2207 0.01758-0.94065 0.29981-1.2603 1.7245-0.53516 2.3945l7.5137 7.5137c0.78643 0.74591 2.3531 0.10877 2.3945-0.97461v-2.1172c0.0336-6.5575 0.34204-6.6818-5.5957-6.8164h-3.334c-0.0733-0.011302-0.14848-0.01758-0.22266-0.01758zm-18.27 0.125c-8.2315 0-9.7737 0.90602-9.7305 9.748v12.752 12.752c-0.0433 8.842 1.4989 9.748 9.7305 9.748h17.539c8.1724 0 9.7056-0.9024 9.7266-9.5742v-18.904c-9e-3 -1.9553-1.7178-3.6067-3.1016-4.8535l-0.0117-0.0098-8.5176-8.5195c-2.2446-2.1216-3.7962-3.1386-6.8672-3.1386zm11.27 3.5 12.5 12.5v22.5s-0.1667 1.8333-0.6667 2.3333-2.3333 0.6667-2.3333 0.6667h-24s-1.8333-0.1667-2.3333-0.6667-0.6667-2.3333-0.6667-2.3333v-32s0.1667-1.8333 0.6667-2.3333 2.3333-0.6667 2.3333-0.6667z" color="#000000" fill="url(#linearGradient18935)"/>
 <path d="m5.502 24v12.752c-0.0433 8.842 1.4989 9.748 9.7305 9.748h17.539c8.1724 0 9.7056-0.9024 9.7266-9.5742v-12.926z" color="#000000" fill="#fff" opacity=".1"/>
 <g transform="translate(-3606 895.64)" enable-background="new">
  <rect x="3618" y="-877.64" width="24" height="22" fill="url(#linearGradient54806)"/>
  <rect x="3618" y="-858.64" width="24" height="1" fill="#f09e6f"/>
  <rect x="3618" y="-875.64" width="24" height="1" fill="#f09e6f"/>
  <rect transform="rotate(90)" x="-877.64" y="-3620" width="22" height="1" fill="#f09e6f"/>
  <rect transform="rotate(90)" x="-877.64" y="-3641" width="22" height="1" fill="#f09e6f"/>
  <g transform="matrix(1.5041 0 0 1.5041 -1963.9 -1914.2)" fill="url(#linearGradient3008)">
   <path d="m3725.1 691.79v1.9945h-0.9972v-0.93078h-6.1831l-1.3962 8.2441h-1.5956l-1.3297-4.1885h-0.7979v-1.1302l1.6622 2e-5 1.1634 3.3242 1.1635-7.3133" fill="url(#linearGradient3008)"/>
  </g>
  <path d="m3637-867.64-7 7" fill="none" stroke="url(#linearGradient54797)" stroke-linecap="round" stroke-linejoin="round" stroke-width="2"/>
  <path d="m3630-867.64 7 7" fill="none" stroke="url(#linearGradient54794)" stroke-linecap="round" stroke-linejoin="round" stroke-width="2"/>
 </g>
 <path d="m15.232 1.5c-4.1158 0-6.5597 0.22675-7.9688 1.5586-0.28725 0.27149-0.52183 0.60186-0.72851 0.97266-0.0468 0.08393-0.10154 0.15661-0.14454 0.24609-2.5e-4 5.28e-4 2.6e-4 0.0014 0 2e-3 -0.11616 0.24198-0.2184 0.50414-0.30859 0.78906-0.0904 0.28553-0.16955 0.59369-0.23633 0.92578-0.0668 0.3321-0.1223 0.68823-0.16797 1.0703-0.0913 0.76415-0.1422 1.6325-0.16406 2.6172-0.0109 0.49234-0.0144 1.0138-0.0117 1.5664v12.752 12.752c-3e-3 0.55263 8e-4 1.0741 0.0117 1.5664 0.0219 0.98469 0.0727 1.853 0.16406 2.6172 0.0457 0.38208 0.1012 0.73821 0.16797 1.0703 0.13356 0.66417 0.31198 1.232 0.54492 1.7168 0.23295 0.48482 0.52078 0.88581 0.87305 1.2188 0.17614 0.16648 0.36842 0.31556 0.57813 0.44921 0.41895 0.26701 0.90872 0.47238 1.4766 0.62891 6.2e-4 1.7e-4 1e-3 -1.7e-4 2e-3 0 1.4214 0.39113 3.3408 0.48047 5.9121 0.48047h17.539c1.0216 0 1.9396-0.015 2.7637-0.0566 0.34097-0.0172 0.65525-0.0427 0.96484-0.0703 0.0645-6e-3 0.13795-7e-3 0.20117-0.0137 1e-3 -1.4e-4 3e-3 1.3e-4 4e-3 0 0.73118-0.0725 1.375-0.17995 1.9394-0.33399 0.28273-0.0772 0.54639-0.16492 0.79102-0.26758 0.24462-0.10265 0.47066-0.22006 0.67968-0.35156 0.20903-0.1315 0.40024-0.27771 0.57618-0.44141 0.15581-0.14498 0.29602-0.30775 0.42773-0.48046 0.017-0.0223 0.0381-0.0397 0.0547-0.0625 1e-3 -2e-3 3e-3 -4e-3 4e-3 -6e-3 0.14374-0.19776 0.2725-0.41443 0.38868-0.6504 0.11725-0.23815 0.22082-0.49693 0.3125-0.77734 0.0917-0.28041 0.17164-0.58218 0.24023-0.9082 0.0686-0.32602 0.12581-0.6758 0.17383-1.0508 0.0428-0.33417 0.0752-0.6967 0.10351-1.0723 3e-3 -0.04534 0.0104-0.0849 0.0137-0.13086 4.2e-4 -0.0061-4.3e-4 -0.01341 0-0.01953 0.059-0.85002 0.0853-1.8046 0.0879-2.8809v-18.904c-9e-3 -1.9553-1.7178-3.6067-3.1016-4.8535l-0.0117-0.0098-8.5176-8.5195c-2.2448-2.1216-3.7965-3.1386-6.8675-3.1386z" color="#000000" fill="none" opacity=".4" stroke="#000"/>
 <path d="m33.499 1.3753c-0.0742 0-0.14719 7e-3 -0.22049 0.018-0.94065 0.29981-1.2594 1.723-0.53417 2.3931l7.5133 7.515c0.78643 0.74591 2.3531 0.10873 2.3946-0.97465v-2.118c0.0336-6.5575 0.34308-6.6808-5.5947-6.8154h-3.3356c-0.0733-0.0113-0.14877-0.018-0.22295-0.018z" color="#000000" fill="none" opacity=".4" stroke="#000"/>
 <path transform="translate(-320,-60)" d="m335.23 61.5c-8.2315 0-9.7737 0.90602-9.7305 9.748v12.752 12.752c-0.0433 8.842 1.4989 9.748 9.7305 9.748h17.539c8.1724 0 9.7056-0.9024 9.7266-9.5742v-17.904c-0.00559-1.214-0.66655-2.31-1.498-3.2656v8.2438 12.252c0 2.1935-0.0614 3.8707-0.26562 5.0879-0.20419 1.2172-0.52867 1.9244-0.99805 2.3945-0.46938 0.47016-1.1744 0.79564-2.3887 1-1.2143 0.20434-2.8892 0.26562-5.0781 0.26562h-16.539c-2.1889 0-3.8659-0.0612-5.084-0.26562-1.2181-0.20448-1.9288-0.5295-2.4004-1-0.47161-0.47052-0.79596-1.1768-0.99804-2.3926-0.20209-1.2158-0.25879-2.8934-0.24805-5.0859v-2e-3 -12.254-12.254-2e-3c-0.0107-2.1925 0.046-3.8702 0.24805-5.0859 0.20209-1.2158 0.52643-1.9221 0.99804-2.3926s1.1843-0.79553 2.4024-1c1.2181-0.20438 2.8931-0.26558 5.082-0.26558h12.27c-1.4018-1.0011-3.7989-1.5-5.922-1.5z" clip-path="url(#clipPath994-5)" color="#000000" color-rendering="auto" dominant-baseline="auto" fill="url(#linearGradient1004)" image-rendering="auto" opacity=".3" shape-rendering="auto" solid-color="#000000" style="font-feature-settings:normal;font-variant-alternates:normal;font-variant-caps:normal;font-variant-ligatures:normal;font-variant-numeric:normal;font-variant-position:normal;isolation:auto;mix-blend-mode:normal;shape-padding:0;text-decoration-color:#000000;text-decoration-line:none;text-decoration-style:solid;text-indent:0;text-orientation:mixed;text-transform:none;white-space:normal"/>
 <path d="m33.355 1.877-0.14453 0.12109c-0.28875 0.24296-0.43321 0.74858-0.31836 1.1113 7e-3 0.0217 0.07 0.0936 0.11523 0.15039 0.056-0.10122 0.12158-0.1931 0.20313-0.26172l0.14453-0.12109 2.7188 0.02539c2.7074 0.02522 3.5094 0.05935 4.2656 0.18555 1.3668 0.22808 1.678 0.65805 1.791 2.4746 0.0245 0.39397 0.0317 1.5527 0.0352 2.6367 7e-3 -1.4669-5.4e-4 -3.0805-0.0352-3.6367-0.11301-1.8166-0.42419-2.2465-1.791-2.4746-0.75626-0.1262-1.5582-0.16033-4.2656-0.18555z" enable-background="new" fill="#fff" opacity=".3"/>
</svg>
