<svg width="48" height="48" version="1" xmlns="http://www.w3.org/2000/svg" xmlns:xlink="http://www.w3.org/1999/xlink">
 <defs>
  <linearGradient id="linearGradient8588" x1="13.735" x2="38.1" y1="249.69" y2="292.77" gradientTransform="matrix(.94488 0 0 .94488 -47.5 -281.13)" gradientUnits="userSpaceOnUse">
   <stop stop-color="#f37e40" offset="0"/>
   <stop stop-color="#f34f17" offset="1"/>
  </linearGradient>
  <linearGradient id="linearGradient8590" x1="96" x2="96" y1="4" y2="188" gradientTransform="matrix(.23913 0 0 .23913 1.0435 1.0435)" gradientUnits="userSpaceOnUse">
   <stop stop-color="#fff" offset="0"/>
   <stop stop-color="#fff" stop-opacity=".098039" offset=".125"/>
   <stop stop-color="#fff" stop-opacity=".098039" offset=".925"/>
   <stop stop-color="#fff" stop-opacity=".49804" offset="1"/>
  </linearGradient>
 </defs>
 <circle transform="scale(-1)" cx="-24" cy="-25" r="23" enable-background="new" opacity=".1"/>
 <circle transform="scale(-1)" cx="-24" cy="-24" r="22.5" enable-background="new" fill="url(#linearGradient8588)"/>
 <path d="m23.125 11c-1.4498 0-2.625 1.1753-2.625 2.625 0 1.4498 1.1752 2.625 2.625 2.625 0.0986-9.84e-4 0.19698-0.0079 0.2948-0.01969 0.1721 0.0128 0.36448 0.01969 0.5802 0.01969a8.75 8.75 0 0 1 8.75 8.75 8.75 8.75 0 0 1-8.75 8.75 8.75 8.75 0 0 1-8.5637-7h3.007c0.90828-1.97e-4 1.4758-0.58934 1.022-1.0608l-5.3807-5.5854c-0.20094-0.20861-0.56497-0.34156-0.96643-0.35291-0.441-0.0124-0.85679 0.12376-1.0775 0.35291l-5.3807 5.5854c-0.45387 0.4715 0.11369 1.0607 1.022 1.0608h2.431c0.86181 6.9053 6.7484 12.25 13.887 12.25 7.732 0 14-6.268 14-14s-6.268-14-14-14c-0.19729 0-0.36763 0.01004-0.51911 0.02737-0.11787-0.01723-0.23678-0.02628-0.35589-0.02737z" enable-background="new" opacity=".15" stroke-width=".175"/>
 <path d="m23.125 10c-1.4498 0-2.625 1.1753-2.625 2.625 0 1.4498 1.1752 2.625 2.625 2.625 0.0986-9.84e-4 0.19698-0.0079 0.2948-0.01969 0.1721 0.0128 0.36448 0.01969 0.5802 0.01969a8.75 8.75 0 0 1 8.75 8.75 8.75 8.75 0 0 1-8.75 8.75 8.75 8.75 0 0 1-8.5637-7h3.007c0.90828-1.97e-4 1.4758-0.58934 1.022-1.0608l-5.3807-5.5854c-0.20094-0.20861-0.56497-0.34156-0.96643-0.35291-0.441-0.0124-0.85679 0.12376-1.0775 0.35291l-5.3807 5.5854c-0.45387 0.4715 0.11369 1.0607 1.022 1.0608h2.431c0.86181 6.9053 6.7484 12.25 13.887 12.25 7.732 0 14-6.268 14-14s-6.268-14-14-14c-0.19729 0-0.36763 0.01004-0.51911 0.02737-0.11787-0.01723-0.23678-0.02628-0.35589-0.02737z" enable-background="new" fill="#faf8f6" stroke-width=".175"/>
 <path d="m2.1085 26a22 22 0 0 0 21.891 20 22 22 0 0 0 21.9-20z" enable-background="new" fill="#fff" opacity=".1"/>
 <circle cx="24" cy="24" r="22.5" enable-background="new" fill="none" opacity=".4" stroke="#000" stroke-dashoffset="6.6" stroke-linejoin="round"/>
 <path d="m24 2a22 22 0 0 0-22 22 22 22 0 0 0 22 22 22 22 0 0 0 22-22 22 22 0 0 0-22-22zm0 0.95653a21.043 21.043 0 0 1 21.043 21.043 21.043 21.043 0 0 1-21.043 21.043 21.043 21.043 0 0 1-21.043-21.043 21.043 21.043 0 0 1 21.043-21.043z" enable-background="new" fill="url(#linearGradient8590)"/>
</svg>
