<svg width="48" height="48" version="1" xmlns="http://www.w3.org/2000/svg" xmlns:xlink="http://www.w3.org/1999/xlink">
 <defs>
  <linearGradient id="linearGradient1004" x1="344" x2="344" y1="66.001" y2="102" gradientTransform="rotate(-90,344,84)" gradientUnits="userSpaceOnUse">
   <stop stop-color="#fff" offset="0"/>
   <stop stop-color="#fff" stop-opacity=".098039" offset=".125"/>
   <stop stop-color="#fff" stop-opacity=".098039" offset=".925"/>
   <stop stop-color="#fff" stop-opacity=".49804" offset="1"/>
  </linearGradient>
  <clipPath id="clipPath994">
   <path d="m335.73 62c-8.8242 0-9.7736 0.90635-9.7304 9.7484v12.252 12.252c-0.0433 8.842 0.90622 9.7484 9.7304 9.7484h16.539c8.8242 0 9.7304-0.90625 9.7304-9.7484v-12.252-12.252c0-8.8421-0.90622-9.7484-9.7304-9.7484z" color="#000000" fill="#cdcdcd"/>
  </clipPath>
 </defs>
 <path d="m47.5 16.231c0-2.2232-0.0512-3.9737-0.29297-5.4141-0.24178-1.4404-0.69529-2.619-1.5566-3.4824-0.86134-0.86337-2.0395-1.3191-3.4805-1.5586-1.441-0.23953-3.1954-0.28629-5.4238-0.27539h-12.746-12.752c-2.2251-0.0108-3.9785 0.0361-5.418 0.27539-1.441 0.23953-2.6191 0.69522-3.4805 1.5586-0.86134 0.86338-1.3149 2.042-1.5566 3.4824-0.24179 1.4404-0.29297 3.1909-0.29297 5.4141v17.539c0 2.2232 0.0511 3.9728 0.29297 5.4102 0.24189 1.4374 0.69694 2.6125 1.5586 3.4727 0.86165 0.8602 2.0389 1.3132 3.4785 1.5547 1.4396 0.24149 3.1904 0.29297 5.418 0.29297h12.752 12.752c2.2276 0 3.9784-0.0515 5.418-0.29297 1.4396-0.24149 2.6169-0.69449 3.4785-1.5547 0.86165-0.86019 1.3167-2.0352 1.5586-3.4727 0.24189-1.4374 0.29297-3.187 0.29297-5.4102z" color="#000000" color-rendering="auto" dominant-baseline="auto" image-rendering="auto" opacity=".1" shape-rendering="auto" solid-color="#000000" style="font-feature-settings:normal;font-variant-alternates:normal;font-variant-caps:normal;font-variant-ligatures:normal;font-variant-numeric:normal;font-variant-position:normal;isolation:auto;mix-blend-mode:normal;shape-padding:0;text-decoration-color:#000000;text-decoration-line:none;text-decoration-style:solid;text-indent:0;text-orientation:mixed;text-transform:none;white-space:normal"/>
 <path d="m11.248 5.5c-8.842-0.0433-9.748 1.4989-9.748 9.7305v17.539c0 8.2295 0.90592 9.7305 9.748 9.7305h25.504c8.8421 0 9.748-1.501 9.748-9.7305v-17.539c0-8.2315-0.90602-9.7737-9.748-9.7305h-12.752z" enable-background="new" fill="#6dc7f1"/>
 <path d="m25.758 5.5-7.4102 29.463 7.1602 7.5371h11.244c8.8421 0 9.748-1.501 9.748-9.7305v-17.539c0-8.2315-0.90602-9.7737-9.748-9.7305z" color="#000000" fill="#e3dfd5"/>
 <path d="m11.248 5.5c-8.842-0.0433-9.748 1.4989-9.748 9.7305v2.3164l17.359 17.871 26.23-27.963c-1.2933-1.5576-3.734-1.9776-8.3379-1.9551h-12.752z" color="#000000" fill="#a6d74f"/>
 <path d="m1.5078 14.838c-6e-4 0.141-8e-3 0.24744-8e-3 0.39258v5.043l21.733 22.227h0.76758 4.5527z" color="#000000" fill="#f9f9f9" fill-opacity=".99608"/>
 <path d="m44.074 6.5957-35.996 35.805c0.92599 0.0685 1.9686 0.0996 3.1699 0.0996h2.1152l32.783-32.609c-0.32532-1.5793-0.945-2.6258-2.0723-3.2949z" color="#000000" fill="#fdc92b"/>
 <path d="m2 24v8.2695c0 8.8242 0.90592 9.7305 9.748 9.7305h24.504c8.8421 0 9.748-0.90629 9.748-9.7305v-8.2695z" enable-background="new" fill="#fff" opacity=".1"/>
 <path d="m16 5.5v37h16v-37h-8z" enable-background="new" fill="#fff" opacity=".1"/>
 <path d="m30.973 8.0133c-4.4165 0-7.9968 3.5803-7.9968 7.9968 0 0.87693 0.148 1.7184 0.4088 2.5079 0.026 0.08029 0.047 0.16257 0.076 0.24171 0.2037 0.674 3.1892 10.47 7.52 19.254 1e-3 0 0-7.89e-4 0-2e-3v-0.0044c0-0.0018 0-0.0034 0.01-0.0046v-0.0023c4.6271-9.5937 7.5683-19.482 7.5683-19.482 0.2605-0.78908 0.4035-1.6316 0.4035-2.508 0-4.4166-3.5803-7.9969-7.9968-7.9969z" color="#000000" opacity=".05"/>
 <path d="m30.973 9.0133c-4.4165 0-7.9968 3.5803-7.9968 7.9968 0 0.87693 0.148 1.7184 0.4088 2.5079 0.026 0.08029 0.047 0.16257 0.076 0.24171 0.2037 0.674 3.1892 10.47 7.52 19.254 1e-3 0 0-7.89e-4 0-2e-3v-0.0044c0-0.0018 0-0.0034 0.01-0.0046v-0.0023c4.6271-9.5937 7.5683-19.482 7.5683-19.482 0.2605-0.78908 0.4035-1.6316 0.4035-2.508 0-4.4166-3.5803-7.9969-7.9968-7.9969z" color="#000000" fill="#f22c42"/>
 <circle cx="30.911" cy="17.103" r="3.9464" color="#000000" fill="#bc1938"/>
 <path d="m46.501 15.231c0-8.2315-0.90635-9.7736-9.7484-9.7304h-12.752-12.752c-8.842-0.0433-9.7484 1.4989-9.7484 9.7304v17.539c0 8.2295 0.90625 9.7304 9.7484 9.7304h12.752 12.752c8.8421 0 9.7484-1.5009 9.7484-9.7304z" color="#000000" fill="none" opacity=".4" stroke="#000"/>
 <path transform="rotate(90,214,-106)" d="m335.73 62c-8.8242 0-9.7736 0.90635-9.7304 9.7484v12.252 12.252c-0.0433 8.842 0.90622 9.7484 9.7304 9.7484h16.539c8.8242 0 9.7304-0.90625 9.7304-9.7484v-12.252-12.252c0-8.8421-0.90622-9.7484-9.7304-9.7484z" clip-path="url(#clipPath994)" color="#000000" fill="none" opacity=".7" stroke="url(#linearGradient1004)" stroke-width="2"/>
</svg>
