<svg width="48" height="48" version="1" xmlns="http://www.w3.org/2000/svg" xmlns:xlink="http://www.w3.org/1999/xlink">
 <defs>
  <linearGradient id="linearGradient1686" x1="320" x2="368" y1="108" y2="60" gradientTransform="rotate(90 214 -106)" gradientUnits="userSpaceOnUse">
   <stop stop-color="#e72662" offset="0"/>
   <stop stop-color="#ec3c50" offset=".48272"/>
   <stop stop-color="#ff7b66" offset="1"/>
  </linearGradient>
  <linearGradient id="linearGradient29590" x1="288" x2="288" y1="296" y2="72" gradientTransform="matrix(.5 0 0 .5 56 144)" gradientUnits="userSpaceOnUse" xlink:href="#linearGradient4287"/>
  <linearGradient id="linearGradient4287">
   <stop stop-color="#ff9169" offset="0"/>
   <stop stop-color="#f09778" stop-opacity="0" offset="1"/>
  </linearGradient>
  <linearGradient id="linearGradient29592" x1="216" x2="218" y1="326.1" y2="-32" gradientTransform="matrix(.5 0 0 .5 40 128)" gradientUnits="userSpaceOnUse" xlink:href="#linearGradient4287"/>
  <linearGradient id="linearGradient29594" x1="177.6" x2="176" y1="264" y2="136" gradientTransform="matrix(.5 0 0 .5 40 128)" gradientUnits="userSpaceOnUse" xlink:href="#linearGradient4287"/>
  <linearGradient id="linearGradient29596" x1="136" x2="136" y1="312" y2="80" gradientTransform="matrix(.5 0 0 .5 40 128)" gradientUnits="userSpaceOnUse" xlink:href="#linearGradient4287"/>
  <linearGradient id="linearGradient29598" x1="96.8" x2="96.8" y1="352" y2="162.4" gradientTransform="matrix(.5 0 0 .5 40 128)" gradientUnits="userSpaceOnUse" xlink:href="#linearGradient4287"/>
  <linearGradient id="linearGradient29600" x1="296" x2="296" y1="280" y2="72" gradientTransform="matrix(.5 0 0 .5 40 128)" gradientUnits="userSpaceOnUse" xlink:href="#linearGradient4287"/>
  <linearGradient id="linearGradient29602" x1="336" x2="336" y1="288" y2="152" gradientTransform="matrix(.5 0 0 .5 40 128)" gradientUnits="userSpaceOnUse" xlink:href="#linearGradient4287"/>
  <linearGradient id="linearGradient29604" x1="376" x2="376" y1="304" y2="96" gradientTransform="matrix(.5 0 0 .5 40 128)" gradientUnits="userSpaceOnUse" xlink:href="#linearGradient4287"/>
  <linearGradient id="linearGradient29606" x1="416" x2="416" y1="336" y2="128" gradientTransform="matrix(.5 0 0 .5 40 128)" gradientUnits="userSpaceOnUse" xlink:href="#linearGradient4287"/>
  <linearGradient id="linearGradient29608" x1="256" x2="256" y1="232" y2="400" gradientTransform="matrix(.5 0 0 .5 40 128)" gradientUnits="userSpaceOnUse" xlink:href="#linearGradient4319"/>
  <linearGradient id="linearGradient4319">
   <stop stop-color="#fed965" offset="0"/>
   <stop stop-color="#fed965" stop-opacity="0" offset="1"/>
  </linearGradient>
  <linearGradient id="linearGradient29610" x1="256" x2="256" y1="232" y2="472" gradientTransform="matrix(.5 0 0 .5 20 128)" gradientUnits="userSpaceOnUse" xlink:href="#linearGradient4319"/>
  <linearGradient id="linearGradient29612" x1="256" x2="256" y1="200" y2="400" gradientTransform="matrix(.5 0 0 .5 0 128)" gradientUnits="userSpaceOnUse" xlink:href="#linearGradient4319"/>
  <linearGradient id="linearGradient29614" x1="256" x2="256" y1="152" y2="368" gradientTransform="matrix(.5 0 0 .5 -20 128)" gradientUnits="userSpaceOnUse" xlink:href="#linearGradient4319"/>
  <linearGradient id="linearGradient29616" x1="256" x2="256" y1="112" y2="408" gradientTransform="matrix(.5 0 0 .5 -40 128)" gradientUnits="userSpaceOnUse" xlink:href="#linearGradient4319"/>
  <linearGradient id="linearGradient29618" x1="256" x2="256" y1="160" y2="544" gradientTransform="matrix(.5 0 0 .5 60 128)" gradientUnits="userSpaceOnUse" xlink:href="#linearGradient4319"/>
  <linearGradient id="linearGradient29620" x1="256" x2="256" y1="208" y2="456" gradientTransform="matrix(.5 0 0 .5 80 128)" gradientUnits="userSpaceOnUse" xlink:href="#linearGradient4319"/>
  <linearGradient id="linearGradient29622" x1="256" x2="256" y1="176" y2="368" gradientTransform="matrix(.5 0 0 .5 100 128)" gradientUnits="userSpaceOnUse" xlink:href="#linearGradient4319"/>
  <linearGradient id="linearGradient29624" x1="256" x2="256" y1="185.9" y2="376" gradientTransform="matrix(.5 0 0 .5 120 128)" gradientUnits="userSpaceOnUse" xlink:href="#linearGradient4319"/>
  <linearGradient id="linearGradient1304" x1="351" x2="340" y1="84" y2="84" gradientTransform="translate(-320 -60)" gradientUnits="userSpaceOnUse">
   <stop stop-color="#ef5145" stop-opacity="0" offset="0"/>
   <stop stop-color="#ef5145" offset="1"/>
  </linearGradient>
  <linearGradient id="linearGradient1686-0" x1="322" x2="366" y1="84" y2="84" gradientTransform="rotate(90 214 -106)" gradientUnits="userSpaceOnUse">
   <stop stop-color="#fff" offset="0"/>
   <stop stop-color="#fff" stop-opacity=".098039" offset=".125"/>
   <stop stop-color="#fff" stop-opacity=".098039" offset=".925"/>
   <stop stop-color="#fff" stop-opacity=".49804" offset="1"/>
  </linearGradient>
 </defs>
 <path d="m13.658 2c-2.6221 0-4.6867 0.05009-6.3856 0.28674-1.6989 0.23664-3.089 0.6805-4.1074 1.5235-1.0183 0.84301-1.5558 1.9961-1.8383 3.4064-0.28252 1.4103-0.33767 3.1273-0.32482 5.3084v12.475 12.481c-0.0127 2.1777 0.0426 3.8939 0.32482 5.3027 0.28251 1.4103 0.81998 2.5634 1.8383 3.4064 1.0183 0.84301 2.4085 1.2869 4.1074 1.5235 1.6989 0.23665 3.7635 0.28674 6.3856 0.28674h20.686c2.6221 0 4.6857-0.05 6.381-0.28674 1.6953-0.23674 3.0813-0.6821 4.0958-1.5254 1.0146-0.84331 1.5488-1.9956 1.8337-3.4045 0.28483-1.4089 0.34554-3.1225 0.34554-5.3027v-12.481-12.481c0-2.1802-0.0608-3.8937-0.34554-5.3027-0.28482-1.4089-0.81911-2.5612-1.8337-3.4045-1.0146-0.84332-2.4005-1.2887-4.0958-1.5254-1.6953-0.23674-3.7589-0.28674-6.381-0.28674z" color="#000000" color-rendering="auto" dominant-baseline="auto" image-rendering="auto" opacity=".1" shape-rendering="auto" solid-color="#000000" style="font-feature-settings:normal;font-variant-alternates:normal;font-variant-caps:normal;font-variant-ligatures:normal;font-variant-numeric:normal;font-variant-position:normal;isolation:auto;mix-blend-mode:normal;shape-padding:0;text-decoration-color:#000000;text-decoration-line:none;text-decoration-style:solid;text-indent:0;text-orientation:mixed;text-transform:none;white-space:normal"/>
 <path d="m13.335 1.5c-10.011 0-11.887 0.90635-11.834 9.7484v12.752 12.752c-0.0527 8.842 1.8229 9.7484 11.834 9.7484h21.331c10.009 0 11.834-0.90625 11.834-9.7484v-12.752-12.752c0-8.8421-1.8254-9.7484-11.834-9.7484z" color="#000000" fill="url(#linearGradient1686)"/>
 <g transform="matrix(.25 0 0 .25 -14 -15)" enable-background="new">
  <g transform="matrix(.5 0 0 .5 24 28)" enable-background="new" opacity=".5" stroke-width="4">
   <path transform="translate(-32,-32)" d="m272 144v16h32v-16zm0 24v16h32v-16zm0 24v16h32v-16zm0 24v16h32v-16zm0 24v16h32v-16zm0 24v16h32v-16z" color="#000000" enable-background="accumulate" fill="url(#linearGradient29590)" opacity="1"/>
   <path d="m200 112v16h32v-16zm0 24v16h32v-16zm0 24v16h32v-16zm0 24v16h32v-16zm0 24v16h32v-16zm0 24v16h32v-16z" color="#000000" enable-background="accumulate" fill="url(#linearGradient29592)" opacity="1"/>
   <path d="m160 112v16h32v-16zm0 24v16h32v-16zm0 24v16h32v-16zm0 24v16h32v-16zm0 24v16h32v-16zm0 24v16h32v-16z" color="#000000" enable-background="accumulate" fill="url(#linearGradient29594)" opacity="1"/>
   <path d="m120 112v16h32v-16zm0 24v16h32v-16zm0 24v16h32v-16zm0 24v16h32v-16zm0 24v16h32v-16zm0 24v16h32v-16z" color="#000000" enable-background="accumulate" fill="url(#linearGradient29596)" opacity="1"/>
   <path d="m80 112v16h32v-16zm0 24v16h32v-16zm0 24v16h32v-16zm0 24v16h32v-16zm0 24v16h32v-16zm0 24v16h32v-16z" color="#000000" enable-background="accumulate" fill="url(#linearGradient29598)" opacity="1"/>
   <path d="m280 112v16h32v-16zm0 24v16h32v-16zm0 24v16h32v-16zm0 24v16h32v-16zm0 24v16h32v-16zm0 24v16h32v-16z" color="#000000" enable-background="accumulate" fill="url(#linearGradient29600)" opacity="1"/>
   <path d="m320 112v16h32v-16zm0 24v16h32v-16zm0 24v16h32v-16zm0 24v16h32v-16zm0 24v16h32v-16zm0 24v16h32v-16z" color="#000000" enable-background="accumulate" fill="url(#linearGradient29602)" opacity="1"/>
   <path d="m360 112v16h32v-16zm0 24v16h32v-16zm0 24v16h32v-16zm0 24v16h32v-16zm0 24v16h32v-16zm0 24v16h32v-16z" color="#000000" enable-background="accumulate" fill="url(#linearGradient29604)" opacity="1"/>
   <path d="m400 112v16h32v-16zm0 24v16h32v-16zm0 24v16h32v-16zm0 24v16h32v-16zm0 24v16h32v-16zm0 24v16h32v-16z" color="#000000" enable-background="accumulate" fill="url(#linearGradient29606)" opacity="1"/>
   <path d="m240 264v16h32v-16zm0 24v16h32v-16zm0 24v16h32v-16zm0 24v16h32v-16zm0 24v16h32v-16zm0 24v16h32v-16z" color="#000000" enable-background="accumulate" fill="url(#linearGradient29608)" opacity=".467"/>
   <path d="m200 264v16h32v-16zm0 24v16h32v-16zm0 24v16h32v-16zm0 24v16h32v-16zm0 24v16h32v-16zm0 24v16h32v-16z" color="#000000" enable-background="accumulate" fill="url(#linearGradient29610)" opacity=".467"/>
   <path d="m160 264v16h32v-16zm0 24v16h32v-16zm0 24v16h32v-16zm0 24v16h32v-16zm0 24v16h32v-16zm0 24v16h32v-16z" color="#000000" enable-background="accumulate" fill="url(#linearGradient29612)" opacity=".467"/>
   <path d="m120 264v16h32v-16zm0 24v16h32v-16zm0 24v16h32v-16zm0 24v16h32v-16zm0 24v16h32v-16zm0 24v16h32v-16z" color="#000000" enable-background="accumulate" fill="url(#linearGradient29614)" opacity=".467"/>
   <path d="m80 264v16h32v-16zm0 24v16h32v-16zm0 24v16h32v-16zm0 24v16h32v-16zm0 24v16h32v-16zm0 24v16h32v-16z" color="#000000" enable-background="accumulate" fill="url(#linearGradient29616)" opacity=".467"/>
   <path d="m280 264v16h32v-16zm0 24v16h32v-16zm0 24v16h32v-16zm0 24v16h32v-16zm0 24v16h32v-16zm0 24v16h32v-16z" color="#000000" enable-background="accumulate" fill="url(#linearGradient29618)" opacity=".467"/>
   <path d="m320 264v16h32v-16zm0 24v16h32v-16zm0 24v16h32v-16zm0 24v16h32v-16zm0 24v16h32v-16zm0 24v16h32v-16z" color="#000000" enable-background="accumulate" fill="url(#linearGradient29620)" opacity=".467"/>
   <path d="m360 264v16h32v-16zm0 24v16h32v-16zm0 24v16h32v-16zm0 24v16h32v-16zm0 24v16h32v-16zm0 24v16h32v-16z" color="#000000" enable-background="accumulate" fill="url(#linearGradient29622)" opacity=".467"/>
   <path d="m400 264v16h32v-16zm0 24v16h32v-16zm0 24v16h32v-16zm0 24v16h32v-16zm0 24v16h32v-16zm0 24v16h32v-16z" color="#000000" enable-background="accumulate" fill="url(#linearGradient29624)" opacity=".467"/>
  </g>
 </g>
 <path d="m31.95 9.866c-0.35223-0.0037-0.82053 0.051-1.4436 0.14465l-9.9884 1.5853c-2.5032 0.53302-2.4946 0.69881-2.503 2.8136v17.159c-0.1044-0.07313-0.20738-0.14666-0.31531-0.219v7.5e-4c-0.79528-0.53294-1.6429-0.91222-2.7814-0.91222-1.426 0-2.2764 0.54604-2.7913 1.2653-0.51479 0.71921-0.68554 1.6258-0.68554 2.3265 0 0.84504 0.28853 1.7469 0.91443 2.4342 0.6259 0.68728 1.5882 1.1686 2.9718 1.1686 1.5624 0 2.6614-0.43628 3.2827-1.2883 0.48918-0.67085 0.75967-1.5671 0.8562-2.6726v-3e-3c0.0135-0.13412 0.0233-0.27188 0.0319-0.41382 0.0131-0.21852 0.0103-0.62732 0.0103-0.62732v-13.139c0-1.8769-9e-5 -1.989 2.5038-2.417l6.9935-1.1565c2.5084-0.32819 2.5089-0.09806 2.5089 1.3096v12.057c-0.1016-0.07117-0.20192-0.14279-0.30689-0.21314v7.5e-4c-0.79528-0.53295-1.6425-0.91223-2.781-0.91223-1.426 0-2.2768 0.54604-2.7916 1.2653s-0.68555 1.6258-0.68555 2.3265c0 0.84504 0.28889 1.7469 0.91479 2.4342 0.62591 0.68728 1.5882 1.1689 2.9718 1.1689 1.5624 0 2.6614-0.43664 3.2827-1.2887 0.48917-0.67085 0.7593-1.5667 0.85583-2.6722v-3e-3c0.0135-0.13412 0.0233-0.27152 0.0319-0.41345 0.0131-0.21853 0.0106-0.62768 0.0106-0.62768v-18.279c0-1.6462-0.0108-2.1914-1.0675-2.2031z" enable-background="new" opacity=".05" stroke="#000" stroke-width="2"/>
 <path d="m31.95 10.866c-0.35223-0.0037-0.82053 0.051-1.4436 0.14465l-9.9884 1.5853c-2.5032 0.53302-2.4946 0.69881-2.503 2.8136v17.159c-0.1044-0.07313-0.20738-0.14666-0.31531-0.219v7.5e-4c-0.79528-0.53294-1.6429-0.91222-2.7814-0.91222-1.426 0-2.2764 0.54604-2.7913 1.2653-0.51479 0.71921-0.68554 1.6258-0.68554 2.3265 0 0.84504 0.28853 1.7469 0.91443 2.4342 0.6259 0.68728 1.5882 1.1686 2.9718 1.1686 1.5624 0 2.6614-0.43628 3.2827-1.2883 0.48918-0.67085 0.75967-1.5671 0.8562-2.6726v-3e-3c0.0135-0.13412 0.0233-0.27188 0.0319-0.41382 0.0131-0.21852 0.0103-0.62732 0.0103-0.62732v-13.139c0-1.8769-9e-5 -1.989 2.5038-2.417l6.9935-1.1565c2.5084-0.32819 2.5089-0.09806 2.5089 1.3096v12.057c-0.1016-0.07117-0.20192-0.14279-0.30689-0.21314v7.5e-4c-0.79528-0.53295-1.6425-0.91223-2.781-0.91223-1.426 0-2.2768 0.54604-2.7916 1.2653s-0.68555 1.6258-0.68555 2.3265c0 0.84504 0.28889 1.7469 0.91479 2.4342 0.62591 0.68728 1.5882 1.1689 2.9718 1.1689 1.5624 0 2.6614-0.43664 3.2827-1.2887 0.48917-0.67085 0.7593-1.5667 0.85583-2.6722v-3e-3c0.0135-0.13412 0.0233-0.27152 0.0319-0.41345 0.0131-0.21853 0.0106-0.62768 0.0106-0.62768v-18.279c0-1.6462-0.0108-2.1914-1.0675-2.2031z" enable-background="new" opacity=".1"/>
 <path d="m31.95 9.866c-0.35223-0.0037-0.82053 0.051-1.4436 0.14465l-9.9884 1.5853c-2.5032 0.53302-2.4946 0.69881-2.503 2.8136v17.159c-0.1044-0.07313-0.20738-0.14666-0.31531-0.219v7.5e-4c-0.79528-0.53294-1.6429-0.91222-2.7814-0.91222-1.426 0-2.2764 0.54604-2.7913 1.2653-0.51479 0.71921-0.68554 1.6258-0.68554 2.3265 0 0.84504 0.28853 1.7469 0.91443 2.4342 0.6259 0.68728 1.5882 1.1686 2.9718 1.1686 1.5624 0 2.6614-0.43628 3.2827-1.2883 0.48918-0.67085 0.75967-1.5671 0.8562-2.6726v-3e-3c0.0135-0.13412 0.0233-0.27188 0.0319-0.41382 0.0131-0.21852 0.0103-0.62732 0.0103-0.62732v-13.139c0-1.8769-9e-5 -1.989 2.5038-2.417l6.9935-1.1565c2.5084-0.32819 2.5089-0.09806 2.5089 1.3096v12.057c-0.1016-0.07117-0.20192-0.14279-0.30689-0.21314v7.5e-4c-0.79528-0.53295-1.6425-0.91223-2.781-0.91223-1.426 0-2.2768 0.54604-2.7916 1.2653s-0.68555 1.6258-0.68555 2.3265c0 0.84504 0.28889 1.7469 0.91479 2.4342 0.62591 0.68728 1.5882 1.1689 2.9718 1.1689 1.5624 0 2.6614-0.43664 3.2827-1.2887 0.48917-0.67085 0.7593-1.5667 0.85583-2.6722v-3e-3c0.0135-0.13412 0.0233-0.27152 0.0319-0.41345 0.0131-0.21853 0.0106-0.62768 0.0106-0.62768v-18.279c0-1.6462-0.0108-2.1914-1.0675-2.2031z" enable-background="new" fill="#fef8f8"/>
 <path d="m18.287 12.486c-0.25938 0.37336-0.26946 0.92938-0.27344 1.9238v17.158c-0.1044-0.07313-0.20652-0.14641-0.31445-0.21875-0.79528-0.53294-1.6428-0.91211-2.7812-0.91211-1.426 0-2.2762 0.5464-2.791 1.2656-0.51479 0.71921-0.68554 1.6254-0.68554 2.3262 0 0.84504 0.28816 1.7483 0.91406 2.4355 0.6259 0.68728 1.5871 1.1679 2.9707 1.168 1.5624 0 2.6619-0.43701 3.2832-1.2891 0.48917-0.67085 0.76089-1.5664 0.85742-2.6719v-4e-3c0.0135-0.13412 0.0226-0.27017 0.0312-0.41211 0.0131-0.21852 0.01-0.62891 0.01-0.62891v-13.139c0-1.8769 3e-5 -1.988 2.5039-2.416l6.9941-1.1562c0.55867-0.0731 0.95345-0.10828 1.291-0.11914-4.2606-1.2017-8.5497-2.392-12.01-3.3105zm13.096 3.6211c0.13153 0.22943 0.13086 0.59043 0.13086 1.1172v12.059c-0.1016-0.07117-0.20167-0.14255-0.30664-0.21289-0.79528-0.53295-1.6428-0.91211-2.7812-0.91211-1.426 0-2.2762 0.54641-2.791 1.2656s-0.68555 1.6254-0.68555 2.3262c0 0.84504 0.28816 1.7463 0.91406 2.4336 0.62591 0.68728 1.589 1.1699 2.9727 1.1699 1.5624 0 2.6619-0.43701 3.2832-1.2891 0.48917-0.67085 0.75894-1.5664 0.85547-2.6719v-4e-3c0.0135-0.13412 0.0226-0.27018 0.0312-0.41211 0.0131-0.21853 0.0117-0.62891 0.0117-0.62891v-13.775c-0.57785-0.16403-1.0426-0.29736-1.6348-0.46484z" enable-background="new" fill="url(#linearGradient1304)" opacity=".1"/>
 <path d="m1.5018 24v12.752c-0.0527 8.842 1.8228 9.748 11.834 9.748h21.33c10.009 0 11.834-0.90592 11.834-9.748v-12.752z" color="#000000" fill="#fff" opacity=".1"/>
 <path d="m13.335 1.5c-10.011 0-11.887 0.90635-11.834 9.7484v12.752 12.752c-0.0527 8.842 1.8229 9.7484 11.834 9.7484h21.331c10.009 0 11.834-0.90625 11.834-9.7484v-12.752-12.752c0-8.8421-1.8254-9.7484-11.834-9.7484z" color="#000000" fill="none" opacity=".4" stroke="#000"/>
 <path d="m13.336 2c-4.9905 0-7.8705 0.27628-9.3848 1.4531-0.75713 0.58842-1.2376 1.4035-1.5449 2.6602-0.3073 1.2566-0.4173 2.94-0.4043 5.1328v12.754 12.754c-0.0131 2.1928 0.097 3.8762 0.4043 5.1328 0.30731 1.2566 0.78779 2.0717 1.5449 2.6602 1.5143 1.1768 4.3943 1.4531 9.3848 1.4531h21.33c4.9892 0 7.855-0.27668 9.3633-1.4531 0.75412-0.58824 1.2329-1.4046 1.543-2.6621 0.31003-1.2575 0.42773-2.9395 0.42773-5.1328v-12.752-12.752c0-2.1933-0.1177-3.8753-0.42773-5.1328-0.31004-1.2575-0.78884-2.0739-1.543-2.6621-1.5083-1.1765-4.374-1.4531-9.3633-1.4531zm2.4023 1.0977c6.9474 8.3e-4 13.911 0.0034 20.85 0.05469 2.143 0.08293 4.4643-0.1477 6.4238 0.93164 1.2961 0.69523 1.5486 2.2503 1.7695 3.5645 0.17551 2.2029 0.0915 4.4422 0.13867 6.6699 0.0227 8.4795 0.077 16.969-0.0801 25.447-0.16151 1.4832-0.38135 3.3058-1.7988 4.1426-1.6055 0.82871-3.4755 0.90643-5.248 0.95313-9.4997 0.0678-19.024 0.0843-28.523-0.0176-1.5782-0.11413-3.2705-0.24014-4.6328-1.1211-1.2295-0.99538-1.3608-2.7274-1.5039-4.1934-0.1272-8.9986-0.0836-18.004-0.0527-27.008 0.0997-2.3813-0.24538-4.9 0.70508-7.1602 0.67165-1.5097 2.4657-1.86 3.9394-2.0566 2.6617-0.31658 5.3418-0.14702 8.0137-0.20703z" color="#000000" fill="url(#linearGradient1686-0)"/>
</svg>
