<svg width="48" height="48" version="1" xmlns="http://www.w3.org/2000/svg">
 <defs>
  <linearGradient id="linearGradient3194" x1="335.23" x2="352.27" y1="61.5" y2="106" gradientTransform="translate(-320 -60)" gradientUnits="userSpaceOnUse">
   <stop stop-color="#bc1938" offset="0"/>
   <stop stop-color="#da1636" offset="1"/>
  </linearGradient>
  <linearGradient id="linearGradient1004" x1="344" x2="344" y1="62" y2="106" gradientUnits="userSpaceOnUse">
   <stop stop-color="#fff" offset="0"/>
   <stop stop-color="#fff" stop-opacity=".098039" offset=".125"/>
   <stop stop-color="#fff" stop-opacity=".098039" offset=".925"/>
   <stop stop-color="#fff" stop-opacity=".49804" offset="1"/>
  </linearGradient>
  <clipPath id="clipPath994">
   <path d="m335.73 62c-8.8242 0-9.7736 0.90635-9.7304 9.7484v24.504c-0.0433 8.842 0.90622 9.7484 9.7304 9.7484h16.539c8.8242 0 9.7304-0.90625 9.7304-9.7484v-24.504c0-8.8421-0.90622-9.7484-9.7304-9.7484z" color="#000000" fill="#cdcdcd"/>
  </clipPath>
 </defs>
 <path d="m15.232 1.5c-2.2232 0-3.9737 0.05118-5.4141 0.29297-1.4404 0.24178-2.619 0.6953-3.4824 1.5566-0.86337 0.86134-1.3191 2.0395-1.5586 3.4805-0.23953 1.441-0.28629 3.1953-0.27539 5.4238v25.498c-0.0108 2.2251 0.0361 3.9785 0.27539 5.418 0.23953 1.441 0.69522 2.6191 1.5586 3.4805 0.86338 0.86134 2.042 1.3149 3.4824 1.5566 1.4404 0.24179 3.1909 0.29297 5.4141 0.29297h17.539c2.2232 0 3.9728-0.0511 5.4102-0.29297 1.4374-0.24189 2.6125-0.69694 3.4726-1.5586 0.8602-0.86165 1.3132-2.0389 1.5547-3.4785 0.24149-1.4396 0.29297-3.1904 0.29297-5.418v-25.504c0-2.2276-0.0515-3.9784-0.29297-5.418-0.24149-1.4396-0.69449-2.6169-1.5547-3.4785-0.86019-0.86165-2.0352-1.3167-3.4726-1.5586-1.4374-0.24189-3.187-0.29297-5.4102-0.29297z" color="#000000" color-rendering="auto" dominant-baseline="auto" image-rendering="auto" opacity=".1" shape-rendering="auto" solid-color="#000000" style="font-feature-settings:normal;font-variant-alternates:normal;font-variant-caps:normal;font-variant-ligatures:normal;font-variant-numeric:normal;font-variant-position:normal;isolation:auto;mix-blend-mode:normal;shape-padding:0;text-decoration-color:#000000;text-decoration-line:none;text-decoration-style:solid;text-indent:0;text-orientation:mixed;text-transform:none;white-space:normal"/>
 <path d="m15.233 1.5c-8.2315 0-9.7736 0.90635-9.7304 9.7484v25.504c-0.0433 8.842 1.4989 9.7484 9.7304 9.7484h17.539c8.2295 0 9.7304-0.90625 9.7304-9.7484v-25.504c0-8.8421-1.5009-9.7484-9.7304-9.7484z" color="#000000" fill="url(#linearGradient3194)"/>
 <path d="m15.233 1.5c-8.2315 0-9.7736 0.90635-9.7304 9.7484v25.504c-0.0433 8.842 1.4989 9.7484 9.7304 9.7484h17.539c8.2295 0 9.7304-0.90625 9.7304-9.7484v-25.504c0-8.8421-1.5009-9.7484-9.7304-9.7484z" color="#000000" fill="none" opacity=".4" stroke="#000"/>
 <path transform="translate(-320 -60)" d="m335.73 62c-8.8242 0-9.7736 0.90635-9.7304 9.7484v24.504c-0.0433 8.842 0.90622 9.7484 9.7304 9.7484h16.539c8.8242 0 9.7304-0.90625 9.7304-9.7484v-24.504c0-8.8421-0.90622-9.7484-9.7304-9.7484z" clip-path="url(#clipPath994)" color="#000000" fill="none" opacity=".4" stroke="url(#linearGradient1004)" stroke-width="2"/>
 <path d="m12.001 1.5898c-5.407 0.36231-6.5349 2.1326-6.498 9.6582v25.504c-0.0369 7.5256 1.091 9.2959 6.498 9.6582z" enable-background="new" opacity=".15"/>
 <path d="m5.5028 24v12.752c-0.021 4.2865 0.3388 6.6974 1.6445 8.0547 2.2016 0.52529 5.0856 0.69336 8.9219 0.69336h15.863c3.8248 0 6.7031-0.166 8.9023-0.6875 1.3054-1.3563 1.666-3.7682 1.666-8.0606v-12.752z" enable-background="new" fill="#fff" opacity=".03"/>
</svg>
