<?xml version="1.0" encoding="UTF-8" standalone="no"?>
<svg
   width="48"
   height="48"
   version="1"
   id="svg41"
   sodipodi:docname="calendar.svg"
   inkscape:version="1.1 (c4e8f9ed74, 2021-05-24)"
   xmlns:inkscape="http://www.inkscape.org/namespaces/inkscape"
   xmlns:sodipodi="http://sodipodi.sourceforge.net/DTD/sodipodi-0.dtd"
   xmlns="http://www.w3.org/2000/svg"
   xmlns:svg="http://www.w3.org/2000/svg">
  <sodipodi:namedview
     id="namedview43"
     pagecolor="#ffffff"
     bordercolor="#666666"
     borderopacity="1.0"
     inkscape:pageshadow="2"
     inkscape:pageopacity="0.0"
     inkscape:pagecheckerboard="0"
     showgrid="false"
     inkscape:zoom="1.3387152"
     inkscape:cx="-224.09546"
     inkscape:cy="58.638313"
     inkscape:window-width="1852"
     inkscape:window-height="1052"
     inkscape:window-x="68"
     inkscape:window-y="28"
     inkscape:window-maximized="1"
     inkscape:current-layer="svg41" />
  <defs
     id="defs21">
    <linearGradient
       id="linearGradient1686-3"
       x1="320"
       x2="368"
       y1="108"
       y2="108"
       gradientTransform="rotate(90,213.54209,-105.54209)"
       gradientUnits="userSpaceOnUse">
      <stop
         stop-color="#2b898f"
         offset="0"
         id="stop2" />
      <stop
         stop-color="#5bdbc1"
         offset="1"
         id="stop4" />
    </linearGradient>
    <linearGradient
       id="linearGradient1002"
       x1="16"
       x2="16"
       y1="304"
       y2="208"
       gradientTransform="matrix(.078125 0 0 .086806 .16669 1.7777)"
       gradientUnits="userSpaceOnUse">
      <stop
         stop-color="#d9d9d9"
         offset="0"
         id="stop7" />
      <stop
         stop-color="#ececec"
         offset="1"
         id="stop9" />
    </linearGradient>
    <linearGradient
       id="linearGradient1686-0"
       x1="322"
       x2="366"
       y1="84"
       y2="84"
       gradientTransform="rotate(90 214 -106)"
       gradientUnits="userSpaceOnUse">
      <stop
         stop-color="#fff"
         offset="0"
         id="stop12" />
      <stop
         stop-color="#fff"
         stop-opacity=".098039"
         offset=".125"
         id="stop14" />
      <stop
         stop-color="#fff"
         stop-opacity=".098039"
         offset=".925"
         id="stop16" />
      <stop
         stop-color="#fff"
         stop-opacity=".49804"
         offset="1"
         id="stop18" />
    </linearGradient>
  </defs>
  <path
     d="m13.658 2c-2.6221 0-4.6867 0.05009-6.3856 0.28674-1.6989 0.23664-3.089 0.6805-4.1074 1.5235-1.0183 0.84301-1.5558 1.9961-1.8383 3.4064-0.28252 1.4103-0.33767 3.1273-0.32482 5.3084v12.475 12.481c-0.0127 2.1777 0.0426 3.8939 0.32482 5.3027 0.28251 1.4103 0.81998 2.5634 1.8383 3.4064 1.0183 0.84301 2.4085 1.2869 4.1074 1.5235 1.6989 0.23665 3.7635 0.28674 6.3856 0.28674h20.686c2.6221 0 4.6857-0.05 6.381-0.28674 1.6953-0.23674 3.0813-0.6821 4.0958-1.5254 1.0146-0.84331 1.5488-1.9956 1.8337-3.4045 0.28483-1.4089 0.34554-3.1225 0.34554-5.3027v-12.481-12.481c0-2.1802-0.0608-3.8937-0.34554-5.3027-0.28482-1.4089-0.81911-2.5612-1.8337-3.4045-1.0146-0.84332-2.4005-1.2887-4.0958-1.5254-1.6953-0.23674-3.7589-0.28674-6.381-0.28674z"
     color="#000000"
     color-rendering="auto"
     dominant-baseline="auto"
     image-rendering="auto"
     opacity=".1"
     shape-rendering="auto"
     solid-color="#000000"
     style="font-feature-settings:normal;font-variant-alternates:normal;font-variant-caps:normal;font-variant-ligatures:normal;font-variant-numeric:normal;font-variant-position:normal;isolation:auto;mix-blend-mode:normal;shape-padding:0;text-decoration-color:#000000;text-decoration-line:none;text-decoration-style:solid;text-indent:0;text-orientation:mixed;text-transform:none;white-space:normal"
     id="path23" />
  <path
     d="m 13.335,2.4158176 c -10.011,0 -11.887,0.90635 -11.834,9.7484004 v 12.752 12.752 c -0.0527,8.842 1.8229,9.7484 11.834,9.7484 h 21.331 c 10.009,0 11.834,-0.90625 11.834,-9.7484 v -12.752 -12.752 C 46.5,3.3221176 44.6746,2.4158176 34.666,2.4158176 Z"
     color="#000000"
     fill="url(#linearGradient1686-3)"
     id="path25"
     style="fill:url(#linearGradient1686-3)" />
  <path
     d="m2 20v10h2v-10zm42 0v10h2v-10z"
     color="#000000"
     opacity=".1"
     id="path31" />
  <path
     d="m2 19v10h2v-10zm42 0v10h2v-10z"
     color="#000000"
     fill="url(#linearGradient1002)"
     id="path33" />
  <path
     d="m1.5566 24v12.924c0 8.8421 1.8273 9.748 11.836 9.748h21.33c10.011 0 11.887-0.90602 11.834-9.748v-12.924z"
     enable-background="new"
     fill="#fff"
     opacity=".08"
     id="path35" />
  <path
     id="path35-6"
     d="M 17.912109 24 C 17.811589 24.111409 17.720429 24.216326 17.611328 24.333984 C 16.979108 25.018888 15.855908 26.187094 14.240234 27.837891 C 12.624561 29.471126 11.544412 30.559105 11 31.103516 L 11 33.34375 L 22.380859 33.34375 L 22.380859 31.208984 L 13.871094 31.208984 L 19.271484 25.783203 C 19.860804 25.183169 20.357941 24.588655 20.767578 24 L 17.912109 24 z M 27.664062 24 C 26.845794 24.431016 26.172507 25.007189 25.646484 25.730469 C 25.102073 26.485621 24.830078 27.372049 24.830078 28.390625 C 24.830078 29.39164 25.094244 30.30546 25.621094 31.130859 C 26.147944 31.938695 26.875872 32.578569 27.806641 33.052734 C 28.737408 33.526899 29.772555 33.765625 30.914062 33.765625 C 32.038008 33.765625 33.065325 33.526899 33.996094 33.052734 C 34.926862 32.578569 35.656744 31.938695 36.183594 31.130859 C 36.728006 30.30546 37 29.39164 37 28.390625 C 37 27.372049 36.718223 26.485621 36.15625 25.730469 C 35.646666 25.007189 34.981385 24.431016 34.164062 24 L 27.664062 24 z M 30.914062 24.939453 C 31.985325 24.939453 32.881536 25.256452 33.601562 25.888672 C 34.339154 26.503331 34.708984 27.293875 34.708984 28.259766 C 34.708984 29.260781 34.339154 30.076764 33.601562 30.708984 C 32.881535 31.323642 31.985325 31.630859 30.914062 31.630859 C 29.8428 31.630859 28.938761 31.323642 28.201172 30.708984 C 27.463582 30.076764 27.095703 29.260781 27.095703 28.259766 C 27.095703 27.293875 27.463582 26.503331 28.201172 25.888672 C 28.938762 25.256452 29.842802 24.939453 30.914062 24.939453 z "
     style="fill:#f9f9f9;fill-opacity:1" />
  <path
     d="m13.335 1.5c-10.011 0-11.887 0.90635-11.834 9.7484v12.752 12.752c-0.0527 8.842 1.8229 9.7484 11.834 9.7484h21.331c10.009 0 11.834-0.90625 11.834-9.7484v-12.752-12.752c0-8.8421-1.8254-9.7484-11.834-9.7484z"
     color="#000000"
     fill="none"
     opacity=".4"
     stroke="#000"
     id="path37" />
  <path
     d="m13.336 2c-4.9905 0-7.8705 0.27628-9.3848 1.4531-0.75713 0.58842-1.2376 1.4035-1.5449 2.6602-0.3073 1.2566-0.4173 2.94-0.4043 5.1328v12.754 12.754c-0.0131 2.1928 0.097 3.8762 0.4043 5.1328 0.30731 1.2566 0.78779 2.0717 1.5449 2.6602 1.5143 1.1768 4.3943 1.4531 9.3848 1.4531h21.33c4.9892 0 7.855-0.27668 9.3633-1.4531 0.75412-0.58824 1.2329-1.4046 1.543-2.6621 0.31003-1.2575 0.42773-2.9395 0.42773-5.1328v-12.752-12.752c0-2.1933-0.1177-3.8753-0.42773-5.1328-0.31004-1.2575-0.78884-2.0739-1.543-2.6621-1.5083-1.1765-4.374-1.4531-9.3633-1.4531zm2.4023 1.0977c6.9474 8.3e-4 13.911 0.0034 20.85 0.05469 2.143 0.08293 4.4643-0.1477 6.4238 0.93164 1.2961 0.69523 1.5486 2.2503 1.7695 3.5645 0.17551 2.2029 0.0915 4.4422 0.13867 6.6699 0.0227 8.4795 0.077 16.969-0.0801 25.447-0.16151 1.4832-0.38135 3.3058-1.7988 4.1426-1.6055 0.82871-3.4755 0.90643-5.248 0.95313-9.4997 0.0678-19.024 0.0843-28.523-0.0176-1.5782-0.11413-3.2705-0.24014-4.6328-1.1211-1.2295-0.99538-1.3608-2.7274-1.5039-4.1934-0.1272-8.9986-0.0836-18.004-0.0527-27.008 0.0997-2.3813-0.24538-4.9 0.70508-7.1602 0.67165-1.5097 2.4657-1.86 3.9394-2.0566 2.6617-0.31658 5.3418-0.14702 8.0137-0.20703z"
     color="#000000"
     fill="url(#linearGradient1686-0)"
     id="path39" />
  <path
     id="path890"
     style="font-size:26.3425px;line-height:1.25;font-family:'Google Sans';-inkscape-font-specification:'Google Sans';fill:#ececec;stroke-width:0.8232"
     d="M 16.53125 14.904297 C 15.477549 14.904297 14.565682 15.123458 13.792969 15.5625 C 13.020255 15.98398 12.405822 16.50253 11.949219 17.117188 C 11.492615 17.714284 11.175617 18.293496 11 18.855469 L 13.054688 19.671875 C 13.230303 19.022093 13.600136 18.42527 14.162109 17.880859 C 14.741645 17.318885 15.504795 17.037109 16.453125 17.037109 C 17.173153 17.037109 17.787586 17.185827 18.296875 17.484375 C 18.823725 17.765362 19.218997 18.143021 19.482422 18.617188 C 19.763408 19.073791 19.904297 19.5669 19.904297 20.09375 C 19.904297 20.866464 19.745797 21.523947 19.429688 22.068359 C 19.152085 22.546455 18.636794 23.196822 17.912109 24 L 20.767578 24 C 21.700729 22.659049 22.169922 21.347849 22.169922 20.066406 C 22.169922 19.153199 21.933149 18.301994 21.458984 17.511719 C 20.984818 16.721444 20.315599 16.089398 19.455078 15.615234 C 18.612118 15.141068 17.637635 14.904297 16.53125 14.904297 z M 30.914062 14.904297 C 29.860363 14.904297 28.913273 15.123458 28.070312 15.5625 C 27.244916 16.001542 26.59526 16.606192 26.121094 17.378906 C 25.66449 18.151619 25.435547 19.012608 25.435547 19.960938 C 25.435547 20.716089 25.654708 21.445971 26.09375 22.148438 C 26.550353 22.833341 27.129564 23.38516 27.832031 23.806641 L 27.832031 23.912109 C 27.774734 23.940196 27.719988 23.970542 27.664062 24 L 34.164062 24 C 34.108202 23.970542 34.053391 23.940196 33.996094 23.912109 L 33.996094 23.806641 C 34.680998 23.38516 35.244552 22.833341 35.683594 22.148438 C 36.140197 21.445971 36.367188 20.716089 36.367188 19.960938 C 36.367188 19.012608 36.130415 18.151619 35.65625 17.378906 C 35.199647 16.606192 34.549991 16.001542 33.707031 15.5625 C 32.881632 15.123458 31.9502 14.904297 30.914062 14.904297 z M 30.914062 17.037109 C 31.827268 17.037109 32.582591 17.301275 33.179688 17.828125 C 33.794347 18.337413 34.101562 19.03012 34.101562 19.908203 C 34.101562 20.786287 33.804128 21.498557 33.207031 22.042969 C 32.609934 22.58738 31.844831 22.859375 30.914062 22.859375 C 29.983294 22.859375 29.212315 22.58738 28.597656 22.042969 C 28.000559 21.498557 27.701172 20.786287 27.701172 19.908203 C 27.701172 19.03012 28.000559 18.337413 28.597656 17.828125 C 29.212315 17.301275 29.983294 17.037109 30.914062 17.037109 z " />
</svg>
