<svg width="48" height="48" version="1" xmlns="http://www.w3.org/2000/svg">
 <defs>
  <linearGradient id="linearGradient1686" x1="321" x2="367" y1="92" y2="76" gradientTransform="rotate(-90 154 214)" gradientUnits="userSpaceOnUse">
   <stop stop-color="#f7f7f7" offset="0"/>
   <stop stop-color="#e6e6e6" offset="1"/>
  </linearGradient>
  <linearGradient id="linearGradient1686-0" x1="322" x2="366" y1="84" y2="84" gradientTransform="rotate(90 214 -106)" gradientUnits="userSpaceOnUse">
   <stop stop-color="#fff" offset="0"/>
   <stop stop-color="#fff" stop-opacity=".098039" offset=".125"/>
   <stop stop-color="#fff" stop-opacity=".098039" offset=".925"/>
   <stop stop-color="#fff" stop-opacity=".49804" offset="1"/>
  </linearGradient>
 </defs>
 <path d="m13.658 2c-2.6221 0-4.6868 0.05009-6.3856 0.28674-1.6989 0.23664-3.089 0.6805-4.1074 1.5235-1.0183 0.84301-1.5558 1.9961-1.8383 3.4064-0.28252 1.4103-0.33767 3.1273-0.32482 5.3084v24.956c-0.0127 2.1777 0.0426 3.8939 0.32482 5.3027 0.28251 1.4103 0.81998 2.5634 1.8383 3.4064 1.0183 0.84301 2.4085 1.2869 4.1074 1.5235 1.6989 0.23665 3.7635 0.28674 6.3856 0.28674h20.686c2.6221 0 4.6857-0.05 6.381-0.28674s3.0813-0.6821 4.0958-1.5254c1.0146-0.84331 1.5488-1.9956 1.8337-3.4045 0.28483-1.4089 0.34554-3.1225 0.34554-5.3027v-24.962c0-2.1802-0.0608-3.8937-0.34554-5.3027-0.28482-1.4089-0.81911-2.5612-1.8337-3.4045-1.0146-0.84332-2.4005-1.2887-4.0958-1.5254-1.6953-0.23674-3.7589-0.28674-6.381-0.28674z" color="#000000" color-rendering="auto" dominant-baseline="auto" image-rendering="auto" opacity=".1" shape-rendering="auto" solid-color="#000000" style="font-feature-settings:normal;font-variant-alternates:normal;font-variant-caps:normal;font-variant-ligatures:normal;font-variant-numeric:normal;font-variant-position:normal;isolation:auto;mix-blend-mode:normal;shape-padding:0;text-decoration-color:#000000;text-decoration-line:none;text-decoration-style:solid;text-indent:0;text-orientation:mixed;text-transform:none;white-space:normal"/>
 <path d="m34.665 46.5c10.011 0 11.887-0.90635 11.834-9.7484v-25.504c0.0527-8.842-1.8229-9.7484-11.834-9.7484h-21.331c-10.009 0-11.834 0.90625-11.834 9.7484v25.504c0 8.8421 1.8254 9.7484 11.834 9.7484z" color="#000000" fill="url(#linearGradient1686)"/>
 <path d="m13.335 1.5c-10.011 0-11.887 0.90635-11.834 9.7484v25.504c-0.0527 8.842 1.8229 9.7484 11.834 9.7484h21.331c10.009 0 11.834-0.90625 11.834-9.7484v-25.504c0-8.8421-1.8254-9.7484-11.834-9.7484z" color="#000000" fill="none" opacity=".4" stroke="#000"/>
 <path d="m13.336 2c-4.9905 0-7.8705 0.27628-9.3848 1.4531-0.75713 0.58842-1.2376 1.4035-1.5449 2.6602-0.3073 1.2566-0.4173 2.94-0.4043 5.1328v25.508c-0.0131 2.1928 0.097 3.8762 0.4043 5.1328 0.30731 1.2566 0.78779 2.0717 1.5449 2.6602 1.5143 1.1768 4.3943 1.4531 9.3848 1.4531h21.33c4.9892 0 7.855-0.27668 9.3633-1.4531 0.75412-0.58824 1.2329-1.4046 1.543-2.6621 0.31003-1.2575 0.42773-2.9395 0.42773-5.1328v-25.504c0-2.1933-0.1177-3.8753-0.42773-5.1328-0.31004-1.2575-0.78884-2.0739-1.543-2.6621-1.5083-1.1765-4.374-1.4531-9.3633-1.4531zm2.4023 1.0977c6.9474 8.3e-4 13.911 0.0034 20.85 0.05469 2.143 0.08293 4.4643-0.1477 6.4238 0.93164 1.2961 0.69523 1.5486 2.2503 1.7695 3.5645 0.17551 2.2029 0.0915 4.4422 0.13867 6.6699 0.0227 8.4795 0.077 16.969-0.0801 25.447-0.16151 1.4832-0.38135 3.3058-1.7988 4.1426-1.6055 0.82871-3.4755 0.90643-5.248 0.95313-9.4997 0.0678-19.024 0.0843-28.523-0.0176-1.5782-0.11413-3.2705-0.24014-4.6328-1.1211-1.2295-0.99538-1.3608-2.7274-1.5039-4.1934-0.1272-8.9986-0.0836-18.004-0.0527-27.008 0.0997-2.3813-0.24538-4.9 0.70508-7.1602 0.67165-1.5097 2.4657-1.86 3.9394-2.0566 2.6617-0.31658 5.3418-0.14702 8.0137-0.20703z" color="#000000" fill="url(#linearGradient1686-0)"/>
 <g transform="translate(-.073547 -1)">
  <path d="m9.0572 16.395 6.8744 6.0025c3.7809 3.3014 6.9719 6.0899 7.091 6.1967 0.51255 0.45952 1.158 0.55969 1.7299 0.26844 0.109-0.0555 3.1121-2.6497 6.9819-6.0312 3.7348-3.2636 6.899-6.0268 7.0316-6.1405l0.24103-0.20679v18.561l-0.12772 0.25268c-0.14337 0.28367-0.34231 0.47658-0.62466 0.60574l-0.19076 0.08726-13.958 0.0077c-10.864 6e-3 -14-0.0035-14.147-0.04281-0.39935-0.10682-0.74038-0.43824-0.86198-0.83772zm14.734 9.4685c-0.20515-0.0668-0.44325-0.20811-0.65757-0.39031-0.11959-0.10166-3.1143-2.3995-6.6549-5.1062-4.6984-3.5919-6.4445-4.9489-6.4634-5.0232-0.0173-0.0683 2e-3 -0.13823 0.0575-0.21223l0.0833-0.11036 27.807-0.0208 0.10295 0.10178c0.11356 0.11227 0.13056 0.22053 0.0506 0.32181-0.0288 0.0365-2.9384 2.2716-6.4657 4.9669-3.5273 2.6953-6.5055 4.9799-6.6181 5.0769-0.31868 0.27438-0.58166 0.39862-0.87935 0.41539-0.14147 8e-3 -0.30438-8.6e-4 -0.36201-0.0196z" fill="#43557d"/>
  <path d="m39 20.969c-2e-3 -3e-3 0 1.0599 0 3.1875l-0.34375-0.0312c-0.82798-0.0672-2.2202 0.24488-3.5312 0.75-0.2924 0.11266-0.86688 0.36039-1.2812 0.5625-1.1882 0.57952-1.8032 0.94564-4.8438 2.9062-0.53026 0.34192-1.22 0.75398-1.5312 0.9375-3.6813 2.1706-7.3968 3.4813-11.25 3.9375-0.66742 0.079-3.0556 0.11937-3.9688 0.0625-1.1227-0.0699-3.0653-0.28819-3.1562-0.34375l-0.0625-1.3125c0.0119 0.0912 0 0.27673 0 0.625 0 0.53538-0.0226 0.68753-0.0625 0.6875-0.10799-8e-5 -1.5358-0.2419-2-0.34375-0.6411-0.14066-1.2874-0.3797-1.7188-0.59375-0.19348-0.096-0.375-0.1636-0.375-0.15625 0 0.0273 0.8531 0.55548 1.1562 0.71875 0.66854 0.36005 1.5207 0.70852 2.4375 0.96875l0.53125 0.15625h0.0625c0.0104 0 0.35121 0.0777 0.75 0.15625 1.5729 0.31 2.9697 0.41009 4.9688 0.375 1.9767-0.0347 3.3429-0.16533 5.0625-0.5 3.3829-0.65839 6.5763-1.8589 10.812-4.0313 0.93673-0.48036 2.4036-1.2446 5-2.6562 0.93088-0.50613 1.5107-0.78292 2.0625-0.96875 0.37996-0.12797 0.9267-0.25 1.1562-0.25h0.125l0.1875 0.0312c0.52429 0.0863 0.94471 0.35538 1.1562 0.78125 0.10156 0.20446 0.0966 0.29784 0.0937 0.625-5e-3 0.58815-0.20486 1.0846-0.75 1.7188l-0.28125 0.3125 0.28125-0.21875c0.6175-0.46977 1.2701-1.1674 1.5-1.5938 0.29087-0.53955 0.25519-1.1358-0.0625-1.7812-0.33663-0.6839-1.1001-1.3026-1.8438-1.4688l-0.25-0.0312c-0.0111-2.1226-0.0287-3.216-0.0312-3.2188zm-29.969 10.656-0.03125-1.0312c-0.12936 0-1.6183-0.19462-2.1875-0.28125-0.91766-0.13966-1.6721-0.30685-2.3125-0.46875v0.40625c1.13 0.51242 2.4204 0.92333 3.8125 1.1562 0.28818 0.0482 0.57313 0.1145 0.625 0.125 0.0466 9e-3 0.0818 3e-3 0.0937 0.0937z" fill="#caa343"/>
 </g>
</svg>
