<svg width="48" height="48" version="1" xmlns="http://www.w3.org/2000/svg" xmlns:xlink="http://www.w3.org/1999/xlink">
 <defs>
  <linearGradient id="linearGradient962" x1="512" x2="-1e-6" y1="397.99" y2="125.99" gradientTransform="matrix(.11328 0 0 .11328 -4.0007 -9.4892)" gradientUnits="userSpaceOnUse">
   <stop stop-color="#aea795" offset="0"/>
   <stop stop-color="#e3dfd5" offset="1"/>
  </linearGradient>
  <linearGradient id="linearGradient945-3" x1="348" x2="348" y1="65" y2="105" gradientTransform="translate(-320,-60)" gradientUnits="userSpaceOnUse">
   <stop stop-color="#fff" offset="0"/>
   <stop stop-color="#fff" stop-opacity=".098039" offset=".125"/>
   <stop stop-color="#fff" stop-opacity=".098039" offset=".925"/>
   <stop stop-opacity=".49804" offset="1"/>
  </linearGradient>
 </defs>
 <path d="m0.99928 34.768c0 2.2232 0.0512 3.9737 0.29297 5.4141 0.24178 1.4404 0.69529 2.619 1.5566 3.4824 0.86134 0.86337 2.0395 1.3191 3.4805 1.5586 1.441 0.23953 3.1954 0.28629 5.4238 0.27539h12.246 12.252c2.2251 0.0108 3.9785-0.0361 5.418-0.27539 1.441-0.23953 2.6191-0.69522 3.4805-1.5586 0.86134-0.86338 1.3149-2.042 1.5566-3.4824 0.24179-1.4404 0.29297-3.1909 0.29297-5.4141v-16.539c0-2.2232-0.0511-3.9728-0.29297-5.4102-0.24189-1.4374-0.69694-2.6125-1.5586-3.4726-0.86165-0.8602-2.0389-1.3132-3.4785-1.5547-1.4396-0.24149-3.1904-0.29297-5.418-0.29297h-12.252-12.252c-2.2276 0-3.9784 0.0515-5.418 0.29297-1.4396 0.24149-2.6169 0.69449-3.4785 1.5547-0.86165 0.86019-1.3167 2.0352-1.5586 3.4726-0.24189 1.4374-0.29297 3.187-0.29297 5.4102z" color="#000000" color-rendering="auto" dominant-baseline="auto" image-rendering="auto" opacity=".1" shape-rendering="auto" solid-color="#000000" style="font-feature-settings:normal;font-variant-alternates:normal;font-variant-caps:normal;font-variant-ligatures:normal;font-variant-numeric:normal;font-variant-position:normal;isolation:auto;mix-blend-mode:normal;shape-padding:0;text-decoration-color:#000000;text-decoration-line:none;text-decoration-style:solid;text-indent:0;text-orientation:mixed;text-transform:none;white-space:normal"/>
 <path d="m11.748 4.4993c-2.227 0-3.981 0.04964-5.4199 0.29102-1.4403 0.2416-2.6144 0.69396-3.4766 1.5547-0.86248 0.86102-1.3166 2.0367-1.5586 3.4746-0.0861 0.51187-0.14148 1.0808-0.18555 1.6797-0.07958 1.0817-0.10742 2.2998-0.10742 3.7305v18.539c0 2.2228 0.0514 3.9747 0.29297 5.4141 0.24191 1.4411 0.69492 2.6167 1.5566 3.4805 0.86187 0.86391 2.0388 1.319 3.4805 1.5586 1.4392 0.23922 3.1928 0.2882 5.4199 0.27734h12.25 12.248c2.2271 0.0108 3.9827-0.0381 5.4219-0.27734 1.4416-0.23964 2.6166-0.69468 3.4785-1.5586 0.86171-0.86375 1.3147-2.0394 1.5566-3.4805 0.24161-1.4393 0.29492-3.1912 0.29492-5.4141v-18.539c0-1.4306-0.0273-2.6488-0.10742-3.7305-0.0444-0.59894-0.10136-1.1678-0.1875-1.6797-0.24198-1.438-0.69415-2.6136-1.5566-3.4746-0.86218-0.86073-2.0382-1.3131-3.4785-1.5547-1.4299-0.23988-2.9603-0.29102-5.418-0.29102h-12.252z" color="#000000" fill="url(#linearGradient962)"/>
 <path d="m1.0215 14.499h45.957c-9e-3 -1.0859-0.0215-2.1302-0.0859-3-0.0444-0.59894-0.10136-1.1678-0.1875-1.6797-0.24198-1.438-0.69415-2.6136-1.5566-3.4746-0.86218-0.86073-2.0382-1.3131-3.4785-1.5547-1.3088-0.21956-2.8479-0.25679-4.959-0.26562-0.43198-0.0036-0.74764-0.02539-1.2129-0.02539h-11.498-12.252c-2.227 0-3.981 0.04964-5.4199 0.29102-1.4403 0.2416-2.6144 0.69396-3.4766 1.5547-0.86248 0.86102-1.3166 2.0367-1.5586 3.4746-0.0861 0.51187-0.14148 1.0808-0.18555 1.6797-0.064 0.86986-0.0764 1.9141-0.0859 3z" color="#000000" fill="#234db8" opacity=".75"/>
 <path d="m2 33.53c0 2.1577 0.0457 3.8771 0.24167 5.242 0.22728 1.3727 0.55731 2.4242 1.304 3.17 0.74666 0.74576 1.8592 1.1462 3.2186 1.3429 1.3582 0.19648 3.0878 0.22346 5.258 0.21287h11.978 11.98c2.169 0.0106 3.8874-0.0228 5.2564-0.21571 1.3617-0.19303 2.4516-0.58111 3.1983-1.3269 0.74666-0.74581 1.1018-1.8476 1.3291-3.1969 0.2273-1.3492 0.23654-3.0705 0.23654-5.2283v-18.063c0-2.1577-9e-3 -3.8433-0.23654-5.1894-0.22733-1.3462-0.57836-2.4834-1.3252-3.2264-0.7468-0.74291-1.8395-1.1225-3.1982-1.3211-1.3698-0.19859-2.8643-0.23096-5.2603-0.23096h-11.98-11.98c-2.1698 0-3.8762 0.0305-5.2339 0.22812-1.3643 0.19858-2.4774 0.58701-3.2242 1.3299-0.74897 0.74508-1.1096 1.8468-1.3257 3.1816-0.16657 1.3351-0.23655 3.0703-0.23655 5.2281z" color="#000000" fill="none" opacity=".3" stroke="url(#linearGradient945-3)" stroke-linejoin="round"/>
 <path d="m11.748 4.4993c-2.227 0-3.981 0.04964-5.4199 0.29102-1.4403 0.2416-2.6144 0.69396-3.4766 1.5547-0.86248 0.86102-1.3166 2.0367-1.5586 3.4746-0.0861 0.51187-0.14148 1.0808-0.18555 1.6797-0.0796 1.0817-0.10742 2.2998-0.10742 3.7305v18.539c0 2.2228 0.0514 3.9747 0.29297 5.4141 0.24191 1.4411 0.69492 2.6167 1.5566 3.4805 0.86187 0.86391 2.0388 1.319 3.4805 1.5586 1.4392 0.23922 3.1928 0.2882 5.4199 0.27734h12.25 12.248c2.2271 0.0108 3.9827-0.0381 5.4219-0.27734 1.4416-0.23964 2.6166-0.69468 3.4785-1.5586 0.86171-0.86375 1.3147-2.0394 1.5566-3.4805 0.24161-1.4393 0.29492-3.1912 0.29492-5.4141v-18.539c0-1.4306-0.0273-2.6488-0.10742-3.7305-0.0444-0.59894-0.10136-1.1678-0.1875-1.6797-0.24198-1.438-0.69415-2.6136-1.5566-3.4746-0.86218-0.86073-2.0382-1.3131-3.4785-1.5547-1.4299-0.23988-2.9603-0.29102-5.418-0.29102h-12.252z" color="#000000" fill="none" opacity=".4" stroke="#000"/>
</svg>
