<svg width="48" height="48" version="1" xmlns="http://www.w3.org/2000/svg" xmlns:xlink="http://www.w3.org/1999/xlink">
 <defs>
  <linearGradient id="linearGradient4884" x1="325" x2="363" y1="96.001" y2="72.001" gradientTransform="rotate(90 214 -106)" gradientUnits="userSpaceOnUse">
   <stop stop-color="#d280b9" offset="0"/>
   <stop stop-color="#b549b5" offset=".52913"/>
   <stop stop-color="#8940a8" offset="1"/>
  </linearGradient>
  <linearGradient id="linearGradient4884-1" x1="326" x2="362" y1="85.001" y2="85.001" gradientTransform="rotate(90 214 -106)" gradientUnits="userSpaceOnUse">
   <stop stop-color="#fff" offset="0"/>
   <stop stop-color="#fff" stop-opacity=".098039" offset=".125"/>
   <stop stop-color="#fff" stop-opacity=".098039" offset=".925"/>
   <stop stop-color="#fff" stop-opacity=".49804" offset="1"/>
  </linearGradient>
 </defs>
 <path d="m47 16.456c0-2.1661-0.0501-3.8717-0.28674-5.2751-0.23663-1.4034-0.68049-2.5518-1.5235-3.393-0.84301-0.84121-1.9961-1.2852-3.4064-1.5186s-3.1274-0.27894-5.3084-0.26832h-12.475-12.481c-2.1777-0.01052-3.8939 0.03517-5.3027 0.26832-1.4103 0.23338-2.5634 0.67737-3.4064 1.5186-0.84301 0.84122-1.2869 1.9896-1.5235 3.393-0.23665 1.4034-0.28674 3.109-0.28674 5.2751v17.089c0 2.1661 0.05 3.8708 0.28674 5.2713 0.23674 1.4005 0.68211 2.5454 1.5254 3.3835 0.84331 0.83812 1.9956 1.2795 3.4045 1.5148 1.4089 0.23529 3.1225 0.28545 5.3027 0.28545h12.481 12.481c2.1802 0 3.8937-0.0502 5.3027-0.28545 1.4089-0.23529 2.5612-0.67666 3.4045-1.5148 0.84332-0.83811 1.2887-1.983 1.5254-3.3835 0.23675-1.4005 0.28674-3.1052 0.28674-5.2713z" color="#000000" color-rendering="auto" dominant-baseline="auto" image-rendering="auto" opacity=".1" shape-rendering="auto" solid-color="#000000" style="font-feature-settings:normal;font-variant-alternates:normal;font-variant-caps:normal;font-variant-ligatures:normal;font-variant-numeric:normal;font-variant-position:normal;isolation:auto;mix-blend-mode:normal;shape-padding:0;text-decoration-color:#000000;text-decoration-line:none;text-decoration-style:solid;text-indent:0;text-orientation:mixed;text-transform:none;white-space:normal"/>
 <path d="m46.501 15.231c0-8.2315-0.90635-9.7736-9.7484-9.7304h-12.752-12.752c-8.842-0.0433-9.7484 1.4989-9.7484 9.7304v17.539c0 8.2295 0.90625 9.7304 9.7484 9.7304h12.752 12.752c8.8421 0 9.7484-1.5009 9.7484-9.7304z" color="#000000" fill="url(#linearGradient4884)"/>
 <path d="m11 15v9h2v-9zm-4 2v7h2v-7zm8 0v7h2v-7zm24 0v7h2v-7zm-36 4v3h2v-3zm16 0v3h2v-3zm16-2v5h2v-5zm8 0v5h2v-5zm-20 4v1h2v-1zm8-1v2h2v-2zm-4 1v1h2v-1z" enable-background="new" fill="#f3e8f0"/>
 <path d="m11 33v-9h2v9zm-4-2v-7h2v7zm8 0v-7h2v7zm24 0v-7h2v7zm-36-4v-3h2v3zm16 0v-3h2v3zm16 2v-5h2v5zm8 0v-5h2v5zm-20-4v-1h2v1zm8 1v-2h2v2zm-4-1v-1h2v1z" enable-background="new" fill="#faf8f6" opacity=".7"/>
 <path d="m46.501 15.231c0-8.2315-0.90635-9.7736-9.7484-9.7304h-12.752-12.752c-8.842-0.0433-9.7484 1.4989-9.7484 9.7304v17.539c0 8.2295 0.90625 9.7304 9.7484 9.7304h12.752 12.752c8.8421 0 9.7484-1.5009 9.7484-9.7304z" color="#000000" fill="none" opacity=".4" stroke="#000"/>
 <path d="m11.246 6c-2.1959-0.01075-3.8846 0.08102-5.1523 0.33594-1.2677 0.25491-2.0954 0.65956-2.6719 1.2695-1.1531 1.2199-1.4219 3.5276-1.4219 7.625v17.539c0 4.0964 0.26904 6.3922 1.4219 7.6074 0.57641 0.60762 1.4054 1.0124 2.6738 1.2695 1.2684 0.25712 2.956 0.35352 5.1524 0.35352h12.752 12.752c2.1964 0 3.8859-0.0964 5.1543-0.35352 1.2684-0.25714 2.0974-0.66191 2.6738-1.2695 1.1528-1.2152 1.4199-3.511 1.4199-7.6074v-17.539c0-4.0974-0.26879-6.4051-1.4219-7.625-0.57652-0.60997-1.4041-1.0146-2.6719-1.2695-1.2677-0.25492-2.9564-0.34668-5.1523-0.33594h-12.754-12.752zm7.6426 1.1113v2e-3c5.7841 0.0012 11.567-0.0064 17.352 0.01172 2.1631 0.08861 4.4336-0.21993 6.5176 0.55078 1.1813 0.35195 1.6834 1.5758 1.9004 2.6816 0.29614 1.6098 0.13938 3.2657 0.20508 4.8945 0.0125 6.9017 0.10435 13.826-0.0156 20.723-0.14104 1.3678-0.20069 2.9948-1.3613 3.9297-1.4181 0.90532-3.1641 0.9496-4.7774 0.9629-10.013 0.0642-20.057 0.0737-30.07 8e-3 -1.4584-0.0882-3.0588-0.18772-4.2734-1.0938-1.0556-0.98956-1.1422-2.5659-1.1894-3.9238-0.1049-6.8395-0.0421-13.697-0.0391-20.547 0.0958-2.0715-0.23393-4.2718 0.5957-6.2422 0.57982-1.3982 2.2362-1.6782 3.5664-1.8613 3.8603-0.15272 7.7227-0.06502 11.59-0.0957z" color="#000000" fill="url(#linearGradient4884-1)"/>
</svg>
