<svg width="48" height="48" version="1" xmlns="http://www.w3.org/2000/svg" xmlns:xlink="http://www.w3.org/1999/xlink">
 <defs>
  <linearGradient id="linearGradient1686" x1="321" x2="367" y1="92" y2="76" gradientTransform="rotate(90 214 -106)" gradientUnits="userSpaceOnUse">
   <stop stop-color="#37a6e6" offset="0"/>
   <stop stop-color="#6dc7f1" offset="1"/>
  </linearGradient>
  <filter id="filter974" x="-.05" y="-.04" width="1.102" height="1.091" color-interpolation-filters="sRGB">
   <feGaussianBlur stdDeviation=".72"/>
  </filter>
  <linearGradient id="linearGradient1686-0" x1="322" x2="366" y1="84" y2="84" gradientTransform="rotate(90 214 -106)" gradientUnits="userSpaceOnUse">
   <stop stop-color="#fff" offset="0"/>
   <stop stop-color="#fff" stop-opacity=".098039" offset=".125"/>
   <stop stop-color="#fff" stop-opacity=".098039" offset=".925"/>
   <stop stop-color="#fff" stop-opacity=".49804" offset="1"/>
  </linearGradient>
 </defs>
 <path d="m13.658 2c-2.6221 0-4.6868 0.05009-6.3856 0.28674-1.6989 0.23664-3.089 0.6805-4.1074 1.5235-1.0183 0.84301-1.5558 1.9961-1.8383 3.4064-0.28252 1.4103-0.33767 3.1273-0.32482 5.3084v12.475 12.481c-0.0127 2.1777 0.0426 3.8939 0.32482 5.3027 0.28251 1.4103 0.81998 2.5634 1.8383 3.4064 1.0183 0.84301 2.4085 1.2869 4.1074 1.5235 1.6989 0.23665 3.7635 0.28674 6.3856 0.28674h20.686c2.6221 0 4.6857-0.05 6.381-0.28674 1.6953-0.23674 3.0813-0.6821 4.0958-1.5254 1.0146-0.84331 1.5488-1.9956 1.8337-3.4045 0.28483-1.4089 0.34554-3.1225 0.34554-5.3027v-12.481-12.481c0-2.1802-0.0608-3.8937-0.34554-5.3027-0.28482-1.4089-0.81911-2.5612-1.8337-3.4045-1.0146-0.84332-2.4005-1.2887-4.0958-1.5254-1.6953-0.23674-3.7589-0.28674-6.381-0.28674z" color="#000000" color-rendering="auto" dominant-baseline="auto" image-rendering="auto" opacity=".1" shape-rendering="auto" solid-color="#000000" style="font-feature-settings:normal;font-variant-alternates:normal;font-variant-caps:normal;font-variant-ligatures:normal;font-variant-numeric:normal;font-variant-position:normal;isolation:auto;mix-blend-mode:normal;shape-padding:0;text-decoration-color:#000000;text-decoration-line:none;text-decoration-style:solid;text-indent:0;text-orientation:mixed;text-transform:none;white-space:normal"/>
 <path d="m13.335 1.5c-10.011 0-11.887 0.90635-11.834 9.7484v12.752 12.752c-0.0527 8.842 1.8229 9.7484 11.834 9.7484h21.331c10.009 0 11.834-0.90625 11.834-9.7484v-12.752-12.752c0-8.8421-1.8254-9.7484-11.834-9.7484z" color="#000000" fill="url(#linearGradient1686)"/>
 <g transform="matrix(.80367 0 0 .80367 -.4696 -3.7151)" enable-background="new" stroke-width="4.9778">
  <path d="m30.413 15.277c-2.3504 0-4.2507 1.8881-4.25 4.2188-5.49e-4 1.8111 1.6342 3.307 3.25 3.9062 2e-3 0.29164-2e-3 0.58336 0 0.875h-7.5313c-0.26107 0-0.46875 0.20768-0.46875 0.46875v1.0625c0 0.26107 0.20768 0.46875 0.46875 0.46875h7.5313c0.0345 6.8119 0.0425 13.625 0 20.438 0.0107 0.16805-0.55059 0.33823-0.6875 0.4375-0.38758 0.28766-0.83623 0.39284-1.3125 0.40625-0.75734-0.0046-1.2441-0.20708-1.9688-0.40625-1.6364-0.47538-3.1878-1.142-4.6875-1.9375-0.6314-0.34777-1.2507-0.67378-1.8125-1.125-0.24214-0.20523-0.52574-0.50457-0.5-0.84375 0.03271-0.25676 0.15285-0.51553 0.4375-0.5625 0.25655-0.04037 0.49189 0.07118 0.71875 0.15625 0.19557 0.08379 0.34378-0.11976 0.3125-0.28125-0.03148-0.42544-0.18439-0.81924-0.40625-1.1875-0.46158-0.75428-1.169-1.3301-1.9062-1.8125-0.78716-0.4994-1.6263-1.045-2.125-1.8438-0.0992-0.14762-0.21524-0.39098-0.4375-0.3125-0.30897 0.09957-0.47367 0.39692-0.625 0.65625-0.42579 0.80499-0.65178 1.6794-0.84375 2.5625-0.15781 0.70262-0.18012 1.4403-0.125 2.1562 0.05707 0.71633 0.11423 1.4248 0.40625 2.0938 0.1839 0.4396 0.52134 0.81225 0.84375 1.1562 0.20573-0.2161 0.38328-0.44458 0.59375-0.65625 0.27274-0.27202 0.63207-0.45905 1.0312-0.40625 0.5433 0.06947 1.0418 0.40609 1.4688 0.71875 0.6014 0.4646 1.1685 0.95515 1.7812 1.4062 0.9696 0.73614 2.0264 1.2586 3.125 1.7812 0.91532 0.42228 1.8626 0.84407 2.8125 1.1875 0.1701 0.07381 0.35807 0.06351 0.53125 0.125 1.7095 0.70633 3.1604 1.5267 4.3438 3 2e-3 0.02022-2e-3 0.07448 0 0.09375 0.0136-0.01747 0.0176-0.01397 0.0312-0.03125 0.0136 0.01728 0.0177 0.01378 0.0312 0.03125 9e-3 -0.04069-9e-3 -0.08414 0-0.125 1.1796-1.4562 2.6446-2.2667 4.3438-2.9688 0.17318-0.06149 0.36114-0.05119 0.53125-0.125 0.94986-0.34343 1.8972-0.76522 2.8125-1.1875 1.0986-0.5227 2.1554-1.0451 3.125-1.7812 0.61275-0.4511 1.1798-0.94164 1.7812-1.4062 0.42695-0.31266 0.92545-0.64928 1.4688-0.71875 0.39917-0.0528 0.7585 0.13423 1.0312 0.40625 0.21047 0.21167 0.38802 0.44016 0.59375 0.65625 0.32241-0.344 0.65984-0.71665 0.84375-1.1562 0.29202-0.66895 0.34918-1.3774 0.40625-2.0938 0.0551-0.71592 0.0328-1.4536-0.125-2.1562-0.19197-0.88307-0.41796-1.7575-0.84375-2.5625-0.15134-0.25933-0.31603-0.55668-0.625-0.65625-0.22226-0.07848-0.3383 0.16488-0.4375 0.3125-0.4987 0.79874-1.3378 1.3443-2.125 1.8438-0.73727 0.48241-1.4447 1.0582-1.9062 1.8125-0.22186 0.36826-0.37478 0.76206-0.40625 1.1875-0.0313 0.16149 0.11693 0.36504 0.3125 0.28125 0.22686-0.08507 0.46219-0.19662 0.71875-0.15625 0.28465 0.04697 0.40479 0.30574 0.4375 0.5625 0.0257 0.33918-0.25786 0.63852-0.5 0.84375-0.5618 0.45123-1.1811 0.77723-1.8125 1.125-1.4997 0.79548-3.0511 1.4621-4.6875 1.9375-0.72461 0.19918-1.2114 0.4016-1.9688 0.40625-0.47627-0.0134-0.92492-0.11859-1.3125-0.40625-0.13692-0.09927-0.69818-0.26945-0.6875-0.4375v-20.438h7.5312c0.26106 0 0.46875-0.20768 0.46875-0.46875v-1.0625c0-0.26107-0.20768-0.46875-0.46875-0.46875h-7.5312v-0.875c1.6158-0.59925 3.2506-2.0952 3.25-3.9062 7e-4 -2.3306-1.8996-4.2188-4.25-4.2188zm-0.0937 2.0625c1.141 1e-6 2.0941 0.89988 2.0938 2.0312 3.4e-4 1.1314-0.95278 2.0625-2.0938 2.0625-1.141-1e-6 -2.0628-0.93112-2.0625-2.0625-3.5e-4 -1.1314 0.92152-2.0312 2.0625-2.0312z" fill="#181818" filter="url(#filter974)" opacity=".3"/>
  <path d="m30.413 15.277c-2.3504 0-4.2507 1.8881-4.25 4.2188-5.49e-4 1.8111 1.6342 3.307 3.25 3.9062 2e-3 0.29164-2e-3 0.58336 0 0.875h-7.5313c-0.26107 0-0.46875 0.20768-0.46875 0.46875v1.0625c0 0.26107 0.20768 0.46875 0.46875 0.46875h7.5313c0.0345 6.8119 0.0425 13.625 0 20.438 0.0107 0.16805-0.55059 0.33823-0.6875 0.4375-0.38758 0.28766-0.83623 0.39284-1.3125 0.40625-0.75734-0.0046-1.2441-0.20708-1.9688-0.40625-1.6364-0.47538-3.1878-1.142-4.6875-1.9375-0.6314-0.34777-1.2507-0.67378-1.8125-1.125-0.24214-0.20523-0.52574-0.50457-0.5-0.84375 0.03271-0.25676 0.15285-0.51553 0.4375-0.5625 0.25655-0.04037 0.49189 0.07118 0.71875 0.15625 0.19557 0.08379 0.34378-0.11976 0.3125-0.28125-0.03148-0.42544-0.18439-0.81924-0.40625-1.1875-0.46158-0.75428-1.169-1.3301-1.9062-1.8125-0.78716-0.4994-1.6263-1.045-2.125-1.8438-0.0992-0.14762-0.21524-0.39098-0.4375-0.3125-0.30897 0.09957-0.47367 0.39692-0.625 0.65625-0.42579 0.80499-0.65178 1.6794-0.84375 2.5625-0.15781 0.70262-0.18012 1.4403-0.125 2.1562 0.05707 0.71633 0.11423 1.4248 0.40625 2.0938 0.1839 0.4396 0.52134 0.81225 0.84375 1.1562 0.20573-0.2161 0.38328-0.44458 0.59375-0.65625 0.27274-0.27202 0.63207-0.45905 1.0312-0.40625 0.5433 0.06947 1.0418 0.40609 1.4688 0.71875 0.6014 0.4646 1.1685 0.95515 1.7812 1.4062 0.9696 0.73614 2.0264 1.2586 3.125 1.7812 0.91532 0.42228 1.8626 0.84407 2.8125 1.1875 0.1701 0.07381 0.35807 0.06351 0.53125 0.125 1.7095 0.70633 3.1604 1.5267 4.3438 3 2e-3 0.02022-2e-3 0.07448 0 0.09375 0.0136-0.01747 0.0176-0.01397 0.0312-0.03125 0.0136 0.01728 0.0177 0.01378 0.0312 0.03125 9e-3 -0.04069-9e-3 -0.08414 0-0.125 1.1796-1.4562 2.6446-2.2667 4.3438-2.9688 0.17318-0.06149 0.36114-0.05119 0.53125-0.125 0.94986-0.34343 1.8972-0.76522 2.8125-1.1875 1.0986-0.5227 2.1554-1.0451 3.125-1.7812 0.61275-0.4511 1.1798-0.94164 1.7812-1.4062 0.42695-0.31266 0.92545-0.64928 1.4688-0.71875 0.39917-0.0528 0.7585 0.13423 1.0312 0.40625 0.21047 0.21167 0.38802 0.44016 0.59375 0.65625 0.32241-0.344 0.65984-0.71665 0.84375-1.1562 0.29202-0.66895 0.34918-1.3774 0.40625-2.0938 0.0551-0.71592 0.0328-1.4536-0.125-2.1562-0.19197-0.88307-0.41796-1.7575-0.84375-2.5625-0.15134-0.25933-0.31603-0.55668-0.625-0.65625-0.22226-0.07848-0.3383 0.16488-0.4375 0.3125-0.4987 0.79874-1.3378 1.3443-2.125 1.8438-0.73727 0.48241-1.4447 1.0582-1.9062 1.8125-0.22186 0.36826-0.37478 0.76206-0.40625 1.1875-0.0313 0.16149 0.11693 0.36504 0.3125 0.28125 0.22686-0.08507 0.46219-0.19662 0.71875-0.15625 0.28465 0.04697 0.40479 0.30574 0.4375 0.5625 0.0257 0.33918-0.25786 0.63852-0.5 0.84375-0.5618 0.45123-1.1811 0.77723-1.8125 1.125-1.4997 0.79548-3.0511 1.4621-4.6875 1.9375-0.72461 0.19918-1.2114 0.4016-1.9688 0.40625-0.47627-0.0134-0.92492-0.11859-1.3125-0.40625-0.13692-0.09927-0.69818-0.26945-0.6875-0.4375v-20.438h7.5312c0.26106 0 0.46875-0.20768 0.46875-0.46875v-1.0625c0-0.26107-0.20768-0.46875-0.46875-0.46875h-7.5312v-0.875c1.6158-0.59925 3.2506-2.0952 3.25-3.9062 7e-4 -2.3306-1.8996-4.2188-4.25-4.2188zm-0.0937 2.0625c1.141 1e-6 2.0941 0.89988 2.0938 2.0312 3.4e-4 1.1314-0.95278 2.0625-2.0938 2.0625-1.141-1e-6 -2.0628-0.93112-2.0625-2.0625-3.5e-4 -1.1314 0.92152-2.0312 2.0625-2.0312z" fill="#2f739b"/>
 </g>
 <path d="m13.335 1.5c-10.011 0-11.887 0.90635-11.834 9.7484v12.752 12.752c-0.0527 8.842 1.8229 9.7484 11.834 9.7484h21.331c10.009 0 11.834-0.90625 11.834-9.7484v-12.752-12.752c0-8.8421-1.8254-9.7484-11.834-9.7484z" color="#000000" fill="none" opacity=".4" stroke="#000"/>
 <path d="m13.336 2c-4.9905 0-7.8705 0.27628-9.3848 1.4531-0.75713 0.58842-1.2376 1.4035-1.5449 2.6602-0.3073 1.2566-0.4173 2.94-0.4043 5.1328v12.754 12.754c-0.0131 2.1928 0.097 3.8762 0.4043 5.1328 0.30731 1.2566 0.78779 2.0717 1.5449 2.6602 1.5143 1.1768 4.3943 1.4531 9.3848 1.4531h21.33c4.9892 0 7.855-0.27668 9.3633-1.4531 0.75412-0.58824 1.2329-1.4046 1.543-2.6621 0.31003-1.2575 0.42773-2.9395 0.42773-5.1328v-12.752-12.752c0-2.1933-0.1177-3.8753-0.42773-5.1328-0.31004-1.2575-0.78884-2.0739-1.543-2.6621-1.5083-1.1765-4.374-1.4531-9.3633-1.4531zm2.4023 1.0977c6.9474 8.3e-4 13.911 0.0034 20.85 0.05469 2.143 0.08293 4.4643-0.1477 6.4238 0.93164 1.2961 0.69523 1.5486 2.2503 1.7695 3.5645 0.17551 2.2029 0.0915 4.4422 0.13867 6.6699 0.0227 8.4795 0.077 16.969-0.0801 25.447-0.16151 1.4832-0.38135 3.3058-1.7988 4.1426-1.6055 0.82871-3.4755 0.90643-5.248 0.95313-9.4997 0.0678-19.024 0.0843-28.523-0.0176-1.5782-0.11413-3.2705-0.24014-4.6328-1.1211-1.2295-0.99538-1.3608-2.7274-1.5039-4.1934-0.1272-8.9986-0.0836-18.004-0.0527-27.008 0.0997-2.3813-0.24538-4.9 0.70508-7.1602 0.67165-1.5097 2.4657-1.86 3.9394-2.0566 2.6617-0.31658 5.3418-0.14702 8.0137-0.20703z" color="#000000" fill="url(#linearGradient1686-0)"/>
</svg>
