<?xml version="1.0" encoding="UTF-8" standalone="no"?>
<svg
   width="48"
   height="48"
   version="1"
   id="svg30"
   sodipodi:docname="applications-featured.svg"
   inkscape:version="1.1 (c4e8f9ed74, 2021-05-24)"
   xmlns:inkscape="http://www.inkscape.org/namespaces/inkscape"
   xmlns:sodipodi="http://sodipodi.sourceforge.net/DTD/sodipodi-0.dtd"
   xmlns="http://www.w3.org/2000/svg"
   xmlns:svg="http://www.w3.org/2000/svg">
  <sodipodi:namedview
     id="namedview32"
     pagecolor="#ffffff"
     bordercolor="#666666"
     borderopacity="1.0"
     inkscape:pageshadow="2"
     inkscape:pageopacity="0.0"
     inkscape:pagecheckerboard="0"
     showgrid="false"
     inkscape:zoom="15.145833"
     inkscape:cx="23.966988"
     inkscape:cy="24"
     inkscape:window-width="1852"
     inkscape:window-height="1052"
     inkscape:window-x="68"
     inkscape:window-y="28"
     inkscape:window-maximized="1"
     inkscape:current-layer="svg30" />
  <defs
     id="defs16">
    <linearGradient
       id="linearGradient8588"
       x1="13.735"
       x2="38.1"
       y1="249.69"
       y2="292.77"
       gradientTransform="matrix(.94488 0 0 .94488 .50001 -233.13)"
       gradientUnits="userSpaceOnUse">
      <stop
         stop-color="#d85eca"
         offset="0"
         id="stop2"
         style="stop-color:#1abc93;stop-opacity:1" />
      <stop
         stop-color="#fb7c38"
         offset="1"
         id="stop4"
         style="stop-color:#34be5b;stop-opacity:1" />
    </linearGradient>
    <linearGradient
       id="linearGradient8590"
       x1="96"
       x2="96"
       y1="4"
       y2="188"
       gradientTransform="matrix(.23913 0 0 .23913 1.0435 1.0435)"
       gradientUnits="userSpaceOnUse">
      <stop
         stop-color="#fff"
         offset="0"
         id="stop7" />
      <stop
         stop-color="#fff"
         stop-opacity=".098039"
         offset=".125"
         id="stop9" />
      <stop
         stop-color="#fff"
         stop-opacity=".098039"
         offset=".925"
         id="stop11" />
      <stop
         stop-color="#fff"
         stop-opacity=".49804"
         offset="1"
         id="stop13" />
    </linearGradient>
  </defs>
  <circle
     transform="scale(-1)"
     cx="-24"
     cy="-25"
     r="23"
     enable-background="new"
     opacity=".1"
     id="circle18" />
  <circle
     cx="24"
     cy="24"
     enable-background="new"
     fill="url(#linearGradient8588)"
     id="circle20"
     r="22.5" />
  <path
     d="m32.849 37.95-8.9738-4.8332-9.0689 4.6524 1.8236-10.028-7.2271-7.1873 10.101-1.3645 4.6023-9.0944 4.4191 9.1848 10.071 1.5667-7.3697 7.0411z"
     enable-background="new"
     fill="#faf8f6"
     stroke="#fff"
     stroke-width=".20995"
     id="path22" />
  <path
     d="m2.1085 26a22 22 0 0 0 21.891 20 22 22 0 0 0 21.9-20z"
     enable-background="new"
     fill="#fff"
     opacity=".05"
     id="path24" />
  <circle
     cx="24"
     cy="24"
     r="22.5"
     enable-background="new"
     fill="none"
     opacity=".4"
     stroke="#000"
     stroke-dashoffset="6.6"
     stroke-linejoin="round"
     id="circle26" />
  <path
     d="m24 2a22 22 0 0 0-22 22 22 22 0 0 0 22 22 22 22 0 0 0 22-22 22 22 0 0 0-22-22zm0 0.95653a21.043 21.043 0 0 1 21.043 21.043 21.043 21.043 0 0 1-21.043 21.043 21.043 21.043 0 0 1-21.043-21.043 21.043 21.043 0 0 1 21.043-21.043z"
     enable-background="new"
     fill="url(#linearGradient8590)"
     id="path28" />
</svg>
