<svg width="48" height="48" version="1" xmlns="http://www.w3.org/2000/svg">
 <rect transform="matrix(0,-1,-1,0,0,0)" x="-46" y="-45" width="42" height="42" rx="21" ry="21" enable-background="new" opacity=".2"/>
 <rect transform="matrix(0,-1,-1,0,0,0)" x="-46" y="-45" width="42" height="42" rx="21" ry="21" enable-background="new" opacity=".1"/>
 <rect transform="matrix(0,-1,-1,0,0,0)" x="-45" y="-45" width="42" height="42" rx="21" ry="21" enable-background="new" fill="#5d5d5d"/>
 <rect transform="rotate(90)" x="7.9488" y="-40.117" width="32.263" height="32.263" color="#000000" fill="none"/>
 <path d="m23.994 8.1855-2.6504 0.39648v2.7285a13.085 13.061 43.146 0 1 2.6504-0.26562zm-8.2031 2.0039-4.043 3.4375 1.9922 2.375a13.085 13.061 43.146 0 1 4.0684-3.4102zm-7.0195 8.5293-0.88867 5.2324 3.0566 0.53906a13.085 13.061 43.146 0 1 0.91797-5.2285zm2.8301 9.4707-2.7246 1.5742h-2e-3l2.6836 4.5801 2.6992-1.5586a13.085 13.061 43.146 0 1-2.6562-4.5957zm5.5332 7.0078-1.0781 2.9609 5 1.7832 1.0586-2.9141a13.085 13.061 43.146 0 1-4.6445-1.6133 13.085 13.061 43.146 0 1-0.33593-0.2168z" color="#000000" fill="#faf8f6"/>
 <path d="m23.994 9.7849a14.278 14.278 0 0 0-14.27 14.279 14.278 14.278 0 0 0 14.27 14.279z" enable-background="new" fill="#faf8f6"/>
</svg>
