<svg width="48" height="48" version="1" xmlns="http://www.w3.org/2000/svg" xmlns:xlink="http://www.w3.org/1999/xlink">
 <defs>
  <linearGradient id="linearGradient1004" x1="344" x2="344" y1="62" y2="106" gradientUnits="userSpaceOnUse">
   <stop stop-color="#fff" offset="0"/>
   <stop stop-color="#fff" stop-opacity=".098039" offset=".125"/>
   <stop stop-color="#fff" stop-opacity=".098039" offset=".925"/>
   <stop stop-color="#fff" stop-opacity=".49804" offset="1"/>
  </linearGradient>
  <clipPath id="clipPath994">
   <path d="m335.73 62c-8.8242 0-9.7736 0.90635-9.7304 9.7484v12.252 12.252c-0.0433 8.842 0.90622 9.7484 9.7304 9.7484h16.539c8.8242 0 9.7304-0.90625 9.7304-9.7484v-12.252-12.252c0-8.8421-0.90622-9.7484-9.7304-9.7484z" color="#000000" fill="#cdcdcd"/>
  </clipPath>
 </defs>
 <path d="m13.433 1.5c-2.6791 0-4.7886 0.05118-6.5244 0.29297-1.7358 0.24178-3.1562 0.6953-4.1966 1.5566-1.0404 0.86134-1.5896 2.0395-1.8782 3.4805-0.28866 1.441-0.34501 3.1953-0.33188 5.4238v12.746 12.752c-0.013 2.2251 0.0435 3.9785 0.33188 5.418 0.28865 1.441 0.8378 2.6191 1.8782 3.4805 1.0404 0.86134 2.4608 1.3149 4.1966 1.5566 1.7358 0.24179 3.8453 0.29297 6.5244 0.29297h21.136c2.6791 0 4.7875-0.0511 6.5198-0.29297 1.7322-0.24189 3.1482-0.69694 4.1848-1.5586 1.0366-0.86165 1.5825-2.0389 1.8735-3.4785 0.29102-1.4396 0.35305-3.1904 0.35305-5.418v-12.752-12.752c0-2.2276-0.0621-3.9784-0.35305-5.418-0.29101-1.4396-0.83692-2.6169-1.8735-3.4785-1.0366-0.86165-2.4527-1.3167-4.1849-1.5586-1.7322-0.24189-3.8406-0.29297-6.5197-0.29297z" color="#000000" color-rendering="auto" dominant-baseline="auto" image-rendering="auto" opacity=".1" shape-rendering="auto" solid-color="#000000" style="font-feature-settings:normal;font-variant-alternates:normal;font-variant-caps:normal;font-variant-ligatures:normal;font-variant-numeric:normal;font-variant-position:normal;isolation:auto;mix-blend-mode:normal;shape-padding:0;text-decoration-color:#000000;text-decoration-line:none;text-decoration-style:solid;text-indent:0;text-orientation:mixed;text-transform:none;white-space:normal"/>
 <path d="m13.335 1.5c-10.011 0-11.887 0.90635-11.834 9.7484v12.752 12.752c-0.0527 8.842 1.8229 9.7484 11.834 9.7484h21.331c10.009 0 11.834-0.90625 11.834-9.7484v-12.752-12.752c0-8.8421-1.8254-9.7484-11.834-9.7484z" color="#000000" fill="#f7f7f7"/>
 <path d="m18.366 9.9242c-0.77687 0-1.4449 0.0541-2.0042 0.16291-0.54381 0.10876-0.94783 0.22526-1.212 0.34955l0.20967 1.3285c0.20199-0.0777 0.52049-0.1785 0.95555-0.30281 0.43504-0.12429 1.0956-0.18665 1.9812-0.18665 0.62149 0 1.1185 0.10114 1.4914 0.30318 0.38844 0.18645 0.6838 0.44297 0.88578 0.76926 0.21753 0.31074 0.35719 0.66808 0.41933 1.0721 0.0621 0.38843 0.0931 0.79207 0.0931 1.2116v0.74587c-0.0622-0.0311-0.17865-0.062-0.34957-0.0931-0.15537-0.0466-0.34954-0.0855-0.5826-0.11651-0.21752-0.0466-0.45052-0.0776-0.69913-0.0931-0.23305-0.0311-0.45821-0.0467-0.67574-0.0467-0.73026 0-1.4061 0.0699-2.0276 0.20966-0.62149 0.13984-1.1577 0.36537-1.6083 0.67612-0.45059 0.29521-0.80009 0.67571-1.0487 1.1418-0.2486 0.46613-0.37294 1.0255-0.37294 1.678 0 0.68364 0.10865 1.2665 0.32618 1.7482 0.23306 0.46612 0.54373 0.85446 0.93217 1.1652 0.40397 0.29521 0.87034 0.51252 1.3986 0.65236 0.5438 0.13984 1.1342 0.21004 1.7712 0.21004 0.49719 0 0.97888-0.0236 1.445-0.0702 0.48166-0.0311 0.91667-0.0778 1.3051-0.13991 0.38843-0.0621 0.73009-0.11629 1.0253-0.1629 0.29521-0.0621 0.52075-0.11667 0.67612-0.16327v-7.5976c0-0.63704-0.0777-1.2278-0.23304-1.7716-0.15538-0.54381-0.40406-1.0098-0.74588-1.3982-0.34182-0.40397-0.79252-0.71464-1.3519-0.93216-0.5438-0.23307-1.2118-0.34957-2.0042-0.34957zm8.6344 6.0754v16.49h1.7682l0.55143-0.71173c1.1024 0.64306 2.2048 0.94144 3.3301 0.94144 3.3072 0 5.259-2.4573 5.259-5.8105 0-3.3531-1.3549-5.7188-4.754-5.7188-1.3091 0-2.3885 0.32185-3.3301 0.80414v-5.9945zm-8.1683 0.3336c0.65257 0 1.1652 0.0467 1.5382 0.13989 0.37289 0.0777 0.64474 0.15536 0.81564 0.23305v4.2419c-0.31075 0.0621-0.69124 0.11629-1.1418 0.16291-0.43506 0.0311-0.94773 0.0467-1.5382 0.0467-0.48166 0-0.91667-0.0388-1.3051-0.11653-0.37289-0.0932-0.69925-0.23323-0.97892-0.41968-0.26413-0.18645-0.47398-0.43477-0.62936-0.74552-0.13983-0.31074-0.20967-0.69161-0.20967-1.1422 0-0.51274 0.10867-0.9246 0.32619-1.2354 0.21753-0.31074 0.4972-0.55122 0.83902-0.72213 0.34183-0.18645 0.71485-0.30332 1.1188-0.34993 0.40397-0.0621 0.7923-0.0931 1.1652-0.0931zm13.634 7.1534c1.9751 0 2.6184 1.424 2.6184 3.5828 0 2.1588-1.0105 3.4221-2.8937 3.4221-0.91865 0-1.6996-0.22952-2.3657-0.75776v-5.6268c0.5512-0.22968 1.6305-0.62046 2.641-0.62046zm-13.582 3.1379c-1.1736 0-2.2537 0.18387-3.2403 0.55144-0.9866 0.36755-1.8377 0.89641-2.5534 1.5864-0.70932 0.68996-1.2642 1.5346-1.664 2.5341-0.39979 0.99948-0.59968 2.128-0.59968 3.3854 0 0.7867 0.12271 1.5023 0.36775 2.1471 0.24503 0.64483 0.60602 1.1961 1.0832 1.6539 0.47717 0.45784 1.0672 0.81279 1.7701 1.0643 0.70287 0.25148 1.5156 0.37702 2.4377 0.37702 0.43203 0 0.86736-0.0256 1.3058-0.0771 0.43848-0.0451 0.86384-0.10671 1.2765-0.18406 0.4127-0.0838 0.80285-0.17736 1.1704-0.28053 0.374-0.10318 0.71259-0.20952 1.0157-0.31914l0.59003-3.0466h-0.62862l-0.69653 1.9441c-0.19989 0.15477-0.43854 0.30308-0.71582 0.44493-0.27727 0.13542-0.58349 0.25776-0.9188 0.36739-0.32887 0.10961-0.68345 0.19675-1.0639 0.26123-0.38045 0.0645-0.7706 0.0969-1.1704 0.0969-0.68998 0-1.28-0.10639-1.7701-0.31913-0.49008-0.2128-0.89304-0.50621-1.209-0.88021-0.31596-0.38046-0.54822-0.83215-0.69652-1.3545-0.14187-0.52232-0.213-1.0896-0.213-1.7022 0-1.1349 0.15187-2.1635 0.45495-3.0856 0.30306-0.92212 0.72202-1.7088 1.2572-2.3601 0.54166-0.65129 1.1832-1.151 1.9248-1.4992 0.74157-0.35466 1.551-0.53214 2.428-0.53214 0.61904 0 1.2123 0.0776 1.7797 0.2323 0.56746 0.14832 1.0508 0.36099 1.4506 0.63827v1.6832h0.629l0.43527-2.8344c-0.5739-0.12897-1.2027-0.2417-1.8862-0.33843-0.68352-0.10318-1.467-0.15474-2.3504-0.15474z" enable-background="new" fill="#fff"/>
 <path d="m18.366 8.9242c-0.77687 0-1.4449 0.0541-2.0042 0.16291-0.54381 0.10876-0.94783 0.22526-1.212 0.34955l0.20967 1.3285c0.20199-0.0777 0.52049-0.1785 0.95555-0.30281 0.43504-0.12429 1.0956-0.18665 1.9812-0.18665 0.62149 0 1.1185 0.10114 1.4914 0.30318 0.38844 0.18645 0.6838 0.44297 0.88578 0.76926 0.21753 0.31074 0.35719 0.66808 0.41933 1.0721 0.0621 0.38843 0.0931 0.79207 0.0931 1.2116v0.74587c-0.0622-0.0311-0.17865-0.062-0.34957-0.0931-0.15537-0.0466-0.34954-0.0855-0.5826-0.11651-0.21752-0.0466-0.45052-0.0776-0.69913-0.0931-0.23305-0.0311-0.45821-0.0467-0.67574-0.0467-0.73026 0-1.4061 0.0699-2.0276 0.20966-0.62149 0.13984-1.1577 0.36537-1.6083 0.67612-0.45059 0.29521-0.80009 0.67571-1.0487 1.1418-0.2486 0.46613-0.37294 1.0255-0.37294 1.678 0 0.68364 0.10865 1.2665 0.32618 1.7482 0.23306 0.46612 0.54373 0.85446 0.93217 1.1652 0.40397 0.29521 0.87034 0.51252 1.3986 0.65236 0.5438 0.13984 1.1342 0.21004 1.7712 0.21004 0.49719 0 0.97888-0.0236 1.445-0.0702 0.48166-0.0311 0.91667-0.0778 1.3051-0.13991 0.38843-0.0621 0.73009-0.11629 1.0253-0.1629 0.29521-0.0621 0.52075-0.11667 0.67612-0.16327v-7.5976c0-0.63704-0.0777-1.2278-0.23304-1.7716-0.15538-0.54381-0.40406-1.0098-0.74588-1.3982-0.34182-0.40397-0.79252-0.71464-1.3519-0.93216-0.5438-0.23307-1.2118-0.34957-2.0042-0.34957zm8.6344 6.0754v16.49h1.7682l0.55143-0.71173c1.1024 0.64306 2.2048 0.94144 3.3301 0.94144 3.3072 0 5.259-2.4573 5.259-5.8105 0-3.3531-1.3549-5.7188-4.754-5.7188-1.3091 0-2.3885 0.32185-3.3301 0.80414v-5.9945zm-8.1683 0.3336c0.65257 0 1.1652 0.0467 1.5382 0.13989 0.37289 0.0777 0.64474 0.15536 0.81564 0.23305v4.2419c-0.31075 0.0621-0.69124 0.11629-1.1418 0.16291-0.43506 0.0311-0.94773 0.0467-1.5382 0.0467-0.48166 0-0.91667-0.0388-1.3051-0.11653-0.37289-0.0932-0.69925-0.23323-0.97892-0.41968-0.26413-0.18645-0.47398-0.43477-0.62936-0.74552-0.13983-0.31074-0.20967-0.69161-0.20967-1.1422 0-0.51274 0.10867-0.9246 0.32619-1.2354 0.21753-0.31074 0.4972-0.55122 0.83902-0.72213 0.34183-0.18645 0.71485-0.30332 1.1188-0.34993 0.40397-0.0621 0.7923-0.0931 1.1652-0.0931zm13.634 7.1534c1.9751 0 2.6184 1.424 2.6184 3.5828 0 2.1588-1.0105 3.4221-2.8937 3.4221-0.91865 0-1.6996-0.22952-2.3657-0.75776v-5.6268c0.5512-0.22968 1.6305-0.62046 2.641-0.62046zm-13.582 3.1379c-1.1736 0-2.2537 0.18387-3.2403 0.55144-0.9866 0.36755-1.8377 0.89641-2.5534 1.5864-0.70932 0.68996-1.2642 1.5346-1.664 2.5341-0.39979 0.99948-0.59968 2.128-0.59968 3.3854 0 0.7867 0.12271 1.5023 0.36775 2.1471 0.24503 0.64483 0.60602 1.1961 1.0832 1.6539 0.47717 0.45784 1.0672 0.81279 1.7701 1.0643 0.70287 0.25148 1.5156 0.37702 2.4377 0.37702 0.43203 0 0.86736-0.0256 1.3058-0.0771 0.43848-0.0451 0.86384-0.10671 1.2765-0.18406 0.4127-0.0838 0.80285-0.17736 1.1704-0.28053 0.374-0.10318 0.71259-0.20952 1.0157-0.31914l0.59003-3.0466h-0.62862l-0.69653 1.9441c-0.19989 0.15477-0.43854 0.30308-0.71582 0.44493-0.27727 0.13542-0.58349 0.25776-0.9188 0.36739-0.32887 0.10961-0.68345 0.19675-1.0639 0.26123-0.38045 0.0645-0.7706 0.0969-1.1704 0.0969-0.68998 0-1.28-0.10639-1.7701-0.31913-0.49008-0.2128-0.89304-0.50621-1.209-0.88021-0.31596-0.38046-0.54822-0.83215-0.69652-1.3545-0.14187-0.52232-0.213-1.0896-0.213-1.7022 0-1.1349 0.15187-2.1635 0.45495-3.0856 0.30306-0.92212 0.72202-1.7088 1.2572-2.3601 0.54166-0.65129 1.1832-1.151 1.9248-1.4992 0.74157-0.35466 1.551-0.53214 2.428-0.53214 0.61904 0 1.2123 0.0776 1.7797 0.2323 0.56746 0.14832 1.0508 0.36099 1.4506 0.63827v1.6832h0.629l0.43527-2.8344c-0.5739-0.12897-1.2027-0.2417-1.8862-0.33843-0.68352-0.10318-1.467-0.15474-2.3504-0.15474z" enable-background="new" fill="#5d5d5d"/>
 <path d="m13.335 1.5c-10.011 0-11.887 0.90635-11.834 9.7484v12.752 12.752c-0.0527 8.842 1.8229 9.7484 11.834 9.7484h21.331c10.009 0 11.834-0.90625 11.834-9.7484v-12.752-12.752c0-8.8421-1.8254-9.7484-11.834-9.7484z" color="#000000" fill="none" opacity=".4" stroke="#000"/>
 <path transform="matrix(1.2162 0 0 1 -394.37 -60)" d="m335.73 62c-8.8242 0-9.7736 0.90635-9.7304 9.7484v12.252 12.252c-0.0433 8.842 0.90622 9.7484 9.7304 9.7484h16.539c8.8242 0 9.7304-0.90625 9.7304-9.7484v-12.252-12.252c0-8.8421-0.90622-9.7484-9.7304-9.7484z" clip-path="url(#clipPath994)" color="#000000" fill="none" opacity=".7" stroke="url(#linearGradient1004)" stroke-width="1.8136"/>
</svg>
