<svg width="48" height="48" version="1" xmlns="http://www.w3.org/2000/svg" xmlns:xlink="http://www.w3.org/1999/xlink">
 <defs>
  <clipPath id="clipPath983-7">
   <path d="m115.03 44c-72.649 0-83.031 10.357-83.031 82.938v58.125c0 72.581 10.383 82.938 83.031 82.938h36.969v-224z" fill="#4d4d4d"/>
  </clipPath>
  <filter id="filter973" x="-.1376" y="-.073714" width="1.2752" height="1.1474" color-interpolation-filters="sRGB">
   <feGaussianBlur stdDeviation="6.88"/>
  </filter>
  <filter id="filter967" x="-.0172" y="-.0092143" width="1.0344" height="1.0184" color-interpolation-filters="sRGB">
   <feGaussianBlur stdDeviation="0.86"/>
  </filter>
  <linearGradient id="linearGradient1004" x1="344" x2="344" y1="66.001" y2="102" gradientTransform="rotate(-90,344,84)" gradientUnits="userSpaceOnUse">
   <stop stop-color="#fff" offset="0"/>
   <stop stop-color="#fff" stop-opacity=".098039" offset=".125"/>
   <stop stop-color="#fff" stop-opacity=".098039" offset=".925"/>
   <stop stop-color="#fff" stop-opacity=".49804" offset="1"/>
  </linearGradient>
  <clipPath id="clipPath994">
   <path d="m335.73 62c-8.8242 0-9.7736 0.90635-9.7304 9.7484v12.252 12.252c-0.0433 8.842 0.90622 9.7484 9.7304 9.7484h16.539c8.8242 0 9.7304-0.90625 9.7304-9.7484v-12.252-12.252c0-8.8421-0.90622-9.7484-9.7304-9.7484z" color="#000000" fill="#cdcdcd"/>
  </clipPath>
 </defs>
 <path d="m47.5 16.231c0-2.2232-0.0512-3.9737-0.29297-5.4141-0.24178-1.4404-0.69529-2.619-1.5566-3.4824-0.86134-0.86337-2.0395-1.3191-3.4805-1.5586-1.441-0.23953-3.1954-0.28629-5.4238-0.27539h-12.746-12.752c-2.2251-0.0108-3.9785 0.0361-5.418 0.27539-1.441 0.23953-2.6191 0.69522-3.4805 1.5586-0.86134 0.86338-1.3149 2.042-1.5566 3.4824-0.24179 1.4404-0.29297 3.1909-0.29297 5.4141v17.539c0 2.2232 0.0511 3.9728 0.29297 5.4102 0.24189 1.4374 0.69694 2.6125 1.5586 3.4727 0.86165 0.8602 2.0389 1.3132 3.4785 1.5547 1.4396 0.24149 3.1904 0.29297 5.418 0.29297h12.752 12.752c2.2276 0 3.9784-0.0515 5.418-0.29297 1.4396-0.24149 2.6169-0.69449 3.4785-1.5547 0.86165-0.86019 1.3167-2.0352 1.5586-3.4727 0.24189-1.4374 0.29297-3.187 0.29297-5.4102z" color="#000000" color-rendering="auto" dominant-baseline="auto" image-rendering="auto" opacity=".1" shape-rendering="auto" solid-color="#000000" style="font-feature-settings:normal;font-variant-alternates:normal;font-variant-caps:normal;font-variant-ligatures:normal;font-variant-numeric:normal;font-variant-position:normal;isolation:auto;mix-blend-mode:normal;shape-padding:0;text-decoration-color:#000000;text-decoration-line:none;text-decoration-style:solid;text-indent:0;text-orientation:mixed;text-transform:none;white-space:normal"/>
 <path d="m46.501 15.231c0-8.2315-0.90635-9.7736-9.7484-9.7304h-12.752-12.752c-8.842-0.0433-9.7484 1.4989-9.7484 9.7304v17.539c0 8.2295 0.90625 9.7304 9.7484 9.7304h12.752 12.752c8.8421 0 9.7484-1.5009 9.7484-9.7304z" color="#000000" fill="#f6f5f4"/>
 <path d="m24 5.5v37h12.752c8.8421 0 9.748-1.501 9.748-9.7305v-17.539c0-8.2315-0.90602-9.7737-9.748-9.7305z" enable-background="new" fill="#3584e4"/>
 <path d="m24 24v18.5h12.752c8.8421 0 9.748-1.501 9.748-9.7305v-8.7695z" enable-background="new" fill="#fff" opacity=".1"/>
 <g transform="matrix(-.1875 0 0 .16518 52.508 -1.7679)" clip-path="url(#clipPath983-7)" enable-background="new" stroke-width="5.6823">
  <path d="m152 44v224h36.969c72.649 0 83.031-10.357 83.031-82.938v-58.125c0-72.581-10.383-82.938-83.031-82.938z" filter="url(#filter973)" opacity=".4"/>
  <path d="m152 44v224h36.969c72.649 0 83.031-10.357 83.031-82.938v-58.125c0-72.581-10.383-82.938-83.031-82.938z" filter="url(#filter967)" opacity=".1"/>
 </g>
 <path d="m34.907 16.785v2.2151h-5.907v1.4768h2.4434c0.87885 2.2686 1.9582 4.1924 3.2299 5.7625-1.4795 1.5324-3.192 2.5623-5.1405 3.1273l0.41136 1.4184c2.1654-0.62783 4.0694-1.7855 5.7014-3.4521 1.6319 1.6666 3.536 2.8243 5.7013 3.4521l0.41137-1.4184c-1.9486-0.56497-3.661-1.5949-5.1405-3.1273 1.2716-1.5701 2.351-3.4939 3.2299-5.7625h2.4434v-1.4768h-5.907v-2.2151zm-1.8746 3.6919h5.226c-0.74969 1.8252-1.6206 3.3669-2.613 4.641-0.99243-1.2741-1.8633-2.8158-2.613-4.641z" enable-background="new" fill="#fff"/>
 <path d="m17.431 29.995c-0.19625-0.51948-0.38095-1.0274-0.55411-1.5238-0.17316-0.50794-0.35209-0.98003-0.53679-1.4995h-5.4372l-1.0909 3.0233h-1.7489c0.46176-1.2698 0.89466-2.4416 1.2987-3.5152 0.40404-1.0851 0.79654-2.1126 1.1775-3.0823 0.3925-0.9697 0.77922-1.8932 1.1602-2.7706 0.38096-0.88889 0.77922-1.7662 1.1948-2.632h1.5411c0.41558 0.8658 0.81385 1.7431 1.1948 2.632 0.38095 0.87734 0.7619 1.8009 1.1429 2.7706 0.39249 0.9697 0.79076 1.9971 1.1948 3.0823 0.40404 1.0736 0.83694 2.2453 1.2987 3.5152zm-1.5758-4.4c-0.36942-1.0043-0.73882-2.0242-1.1082-2.9593-0.35786-0.94661-0.73305-1.8528-1.1255-2.7186-0.40404 0.8658-0.79076 1.772-1.1602 2.7186-0.35786 0.93506-0.71573 1.955-1.0736 2.9593z" enable-background="new" fill="#77767b"/>
 <path d="m46.501 15.231c0-8.2315-0.90635-9.7736-9.7484-9.7304h-12.752-12.752c-8.842-0.0433-9.7484 1.4989-9.7484 9.7304v17.539c0 8.2295 0.90625 9.7304 9.7484 9.7304h12.752 12.752c8.8421 0 9.7484-1.5009 9.7484-9.7304z" color="#000000" fill="none" opacity=".4" stroke="#000"/>
 <path transform="rotate(90 214 -106)" d="m335.73 62c-8.8242 0-9.7736 0.90635-9.7304 9.7484v12.252 12.252c-0.0433 8.842 0.90622 9.7484 9.7304 9.7484h16.539c8.8242 0 9.7304-0.90625 9.7304-9.7484v-12.252-12.252c0-8.8421-0.90622-9.7484-9.7304-9.7484z" clip-path="url(#clipPath994)" color="#000000" fill="none" opacity=".7" stroke="url(#linearGradient1004)" stroke-width="2"/>
</svg>
