<?xml version="1.0" encoding="UTF-8" standalone="no"?>
<svg
   width="48"
   height="48"
   version="1"
   id="svg37"
   sodipodi:docname="background.svg"
   inkscape:version="1.1 (c4e8f9ed74, 2021-05-24)"
   xmlns:inkscape="http://www.inkscape.org/namespaces/inkscape"
   xmlns:sodipodi="http://sodipodi.sourceforge.net/DTD/sodipodi-0.dtd"
   xmlns="http://www.w3.org/2000/svg"
   xmlns:svg="http://www.w3.org/2000/svg">
  <sodipodi:namedview
     id="namedview39"
     pagecolor="#ffffff"
     bordercolor="#666666"
     borderopacity="1.0"
     inkscape:pageshadow="2"
     inkscape:pageopacity="0.0"
     inkscape:pagecheckerboard="0"
     showgrid="false"
     inkscape:zoom="15.145833"
     inkscape:cx="23.966988"
     inkscape:cy="24"
     inkscape:window-width="1852"
     inkscape:window-height="1052"
     inkscape:window-x="68"
     inkscape:window-y="28"
     inkscape:window-maximized="1"
     inkscape:current-layer="svg37" />
  <defs
     id="defs19">
    <linearGradient
       id="linearGradient16503"
       x1="320.79"
       x2="367.21"
       y1="99.18"
       y2="70.817"
       gradientTransform="matrix(-1 0 0 1 368 -60)"
       gradientUnits="userSpaceOnUse">
      <stop
         stop-color="#fb7c38"
         offset="0"
         id="stop2"
         style="stop-color:#1abc93;stop-opacity:1" />
      <stop
         stop-color="#9b33ae"
         offset="1"
         id="stop4"
         style="stop-color:#34be5b;stop-opacity:1" />
    </linearGradient>
    <linearGradient
       id="linearGradient1004"
       x1="344"
       x2="344"
       y1="66.001"
       y2="102"
       gradientTransform="rotate(-90,344,84)"
       gradientUnits="userSpaceOnUse">
      <stop
         stop-color="#fff"
         offset="0"
         id="stop7" />
      <stop
         stop-color="#fff"
         stop-opacity=".098039"
         offset=".125"
         id="stop9" />
      <stop
         stop-color="#fff"
         stop-opacity=".098039"
         offset=".925"
         id="stop11" />
      <stop
         stop-color="#fff"
         stop-opacity=".49804"
         offset="1"
         id="stop13" />
    </linearGradient>
    <clipPath
       id="clipPath994-3">
      <path
         d="m335.73 62c-8.8242 0-9.7736 0.90635-9.7304 9.7484v12.252 12.252c-0.0433 8.842 0.90622 9.7484 9.7304 9.7484h16.539c8.8242 0 9.7304-0.90625 9.7304-9.7484v-12.252-12.252c0-8.8421-0.90622-9.7484-9.7304-9.7484z"
         color="#000000"
         fill="#cdcdcd"
         id="path16" />
    </clipPath>
  </defs>
  <path
     d="m47.5 16.231c0-2.2232-0.0512-3.9737-0.29297-5.4141-0.24178-1.4404-0.69529-2.619-1.5566-3.4824-0.86134-0.86337-2.0395-1.3191-3.4805-1.5586-1.441-0.23953-3.1954-0.28629-5.4238-0.27539h-12.746-12.752c-2.2251-0.0108-3.9785 0.0361-5.418 0.27539-1.441 0.23953-2.6191 0.69522-3.4805 1.5586-0.86134 0.86338-1.3149 2.042-1.5566 3.4824-0.24179 1.4404-0.29297 3.1909-0.29297 5.4141v17.539c0 2.2232 0.0511 3.9728 0.29297 5.4102 0.24189 1.4374 0.69694 2.6125 1.5586 3.4727 0.86165 0.8602 2.0389 1.3132 3.4785 1.5547 1.4396 0.24149 3.1904 0.29297 5.418 0.29297h12.752 12.752c2.2276 0 3.9784-0.0515 5.418-0.29297 1.4396-0.24149 2.6169-0.69449 3.4785-1.5547 0.86165-0.86019 1.3167-2.0352 1.5586-3.4727 0.24189-1.4374 0.29297-3.187 0.29297-5.4102z"
     color="#000000"
     color-rendering="auto"
     dominant-baseline="auto"
     image-rendering="auto"
     opacity=".1"
     shape-rendering="auto"
     solid-color="#000000"
     style="font-feature-settings:normal;font-variant-alternates:normal;font-variant-caps:normal;font-variant-ligatures:normal;font-variant-numeric:normal;font-variant-position:normal;isolation:auto;mix-blend-mode:normal;shape-padding:0;text-decoration-color:#000000;text-decoration-line:none;text-decoration-style:solid;text-indent:0;text-orientation:mixed;text-transform:none;white-space:normal"
     id="path21" />
  <path
     d="m1.5009 15.231c0-8.2315 0.90635-9.7736 9.7484-9.7304h12.752 12.752c8.842-0.0433 9.7484 1.4989 9.7484 9.7304v17.539c0 8.2295-0.90625 9.7304-9.7484 9.7304h-12.752-12.752c-8.8421 0-9.7484-1.5009-9.7484-9.7304z"
     color="#000000"
     fill="url(#linearGradient16503)"
     id="path23" />
  <path
     d="m10.673 5.0026c-1.9733 0.0018-3.5448 0.052-4.8295 0.28906-1.3093 0.2416-2.3767 0.69396-3.1605 1.5547-0.78408 0.86102-1.1969 2.0367-1.4169 3.4746-0.0783 0.51188-0.12862 1.0808-0.16869 1.6797-0.07234 1.0817-0.09765 2.2998-0.09765 3.7305v16.539c0 2.2228 0.0467 3.9747 0.26634 5.4141 0.21991 1.4411 0.63174 2.6167 1.4151 3.4805 0.78352 0.86391 1.8535 1.319 3.1641 1.5586 1.3083 0.23922 2.9025 0.2882 4.9272 0.27734h0.22727v-37.998z"
     enable-background="new"
     opacity=".3"
     id="path25" />
  <path
     d="m30.5 5.4994 16 16v-5.2695c0-1.4306-0.0273-2.6488-0.10742-3.7305-0.0444-0.59894-0.10136-1.1678-0.1875-1.6797-0.24198-1.438-0.69415-2.6136-1.5566-3.4746-0.86218-0.86073-2.0382-1.3131-3.4785-1.5547-1.4299-0.23988-2.9603-0.29102-5.418-0.29102z"
     color="#000000"
     fill="#5d5d5d"
     id="path27" />
  <path
     d="m29.5 6.0001 0.5 0.5 1.1e-4 5.7479v0.25 0.13476c0 8.8244 0.40719 9.4104 9.25 9.3672h6.2498l0.5 0.5v-0.5-4.7695c0-1.4306-0.0273-2.6488-0.10742-3.7305-0.0444-0.59894-0.10136-1.1678-0.1875-1.6797-0.24198-1.438-0.69426-3.1134-1.5568-3.9745-0.86218-0.86073-2.538-1.3131-3.9783-1.5547-1.4299-0.23988-2.9603-0.29102-5.418-0.29102h-4.75-2e-3z"
     color="#000000"
     opacity=".3"
     id="path29" />
  <path
     d="m46.5 21-15.5-15.501v5.75 0.25002 0.13428c0 8.8244 0.4066 9.4101 9.2494 9.3668z"
     color="#000000"
     fill="#faf8f6"
     id="path31" />
  <path
     transform="rotate(90 214 -106)"
     d="m335.73 62c-8.8242 0-9.7736 0.90635-9.7304 9.7484v12.252 12.252c-0.0433 8.842 0.90622 9.7484 9.7304 9.7484h16.539c8.8242 0 9.7304-0.90625 9.7304-9.7484v-12.252-12.252c0-8.8421-0.90622-9.7484-9.7304-9.7484z"
     clip-path="url(#clipPath994-3)"
     color="#000000"
     fill="none"
     opacity=".5"
     stroke="url(#linearGradient1004)"
     stroke-width="2"
     id="path33" />
  <path
     d="m46.501 15.231c0-8.2315-0.90635-9.7736-9.7484-9.7304h-12.752-12.752c-8.842-0.0433-9.7484 1.4989-9.7484 9.7304v17.539c0 8.2295 0.90625 9.7304 9.7484 9.7304h12.752 12.752c8.8421 0 9.7484-1.5009 9.7484-9.7304z"
     color="#000000"
     fill="none"
     opacity=".4"
     stroke="#000"
     id="path35" />
</svg>
