<svg width="48" height="48" version="1" xmlns="http://www.w3.org/2000/svg" xmlns:xlink="http://www.w3.org/1999/xlink">
 <defs>
  <linearGradient id="linearGradient1686" x1="321" x2="367" y1="92" y2="76" gradientTransform="rotate(90 214 -106)" gradientUnits="userSpaceOnUse">
   <stop stop-color="#2b898f" offset="0"/>
   <stop stop-color="#5bdbc1" offset="1"/>
  </linearGradient>
  <linearGradient id="linearGradient6891" x1="-75" x2="7" y1="-96" y2="-96" gradientTransform="matrix(.25612 0 0 .25467 354.04 108.76)" gradientUnits="userSpaceOnUse" xlink:href="#linearGradient4780"/>
  <linearGradient id="linearGradient4780">
   <stop stop-color="#fdc92b" offset="0"/>
   <stop stop-color="#ffda64" offset="1"/>
  </linearGradient>
  <linearGradient id="linearGradient1502" x1="-75" x2="7" y1="-96" y2="-96" gradientTransform="matrix(.25612 0 0 .25467 423.04 119.76)" gradientUnits="userSpaceOnUse" xlink:href="#linearGradient4780"/>
  <linearGradient id="linearGradient1686-0" x1="322" x2="366" y1="84" y2="84" gradientTransform="rotate(90 214 -106)" gradientUnits="userSpaceOnUse">
   <stop stop-color="#fff" offset="0"/>
   <stop stop-color="#fff" stop-opacity=".098039" offset=".125"/>
   <stop stop-color="#fff" stop-opacity=".098039" offset=".925"/>
   <stop stop-color="#fff" stop-opacity=".49804" offset="1"/>
  </linearGradient>
 </defs>
 <path d="m13.658 2c-2.6221 0-4.6867 0.05009-6.3856 0.28674-1.6989 0.23664-3.089 0.6805-4.1074 1.5235-1.0183 0.84301-1.5558 1.9961-1.8383 3.4064-0.28252 1.4103-0.33767 3.1273-0.32482 5.3084v12.475 12.481c-0.0127 2.1777 0.0426 3.8939 0.32482 5.3027 0.28251 1.4103 0.81998 2.5634 1.8383 3.4064 1.0183 0.84301 2.4085 1.2869 4.1074 1.5235 1.6989 0.23665 3.7635 0.28674 6.3856 0.28674h20.686c2.6221 0 4.6857-0.05 6.381-0.28674 1.6953-0.23674 3.0813-0.6821 4.0958-1.5254 1.0146-0.84331 1.5488-1.9956 1.8337-3.4045 0.28483-1.4089 0.34554-3.1225 0.34554-5.3027v-12.481-12.481c0-2.1802-0.0608-3.8937-0.34554-5.3027-0.28482-1.4089-0.81911-2.5612-1.8337-3.4045-1.0146-0.84332-2.4005-1.2887-4.0958-1.5254-1.6953-0.23674-3.7589-0.28674-6.381-0.28674z" color="#000000" color-rendering="auto" dominant-baseline="auto" image-rendering="auto" opacity=".1" shape-rendering="auto" solid-color="#000000" style="font-feature-settings:normal;font-variant-alternates:normal;font-variant-caps:normal;font-variant-ligatures:normal;font-variant-numeric:normal;font-variant-position:normal;isolation:auto;mix-blend-mode:normal;shape-padding:0;text-decoration-color:#000000;text-decoration-line:none;text-decoration-style:solid;text-indent:0;text-orientation:mixed;text-transform:none;white-space:normal"/>
 <path d="m13.335 1.5c-10.011 0-11.887 0.90635-11.834 9.7484v12.752 12.752c-0.0527 8.842 1.8229 9.7484 11.834 9.7484h21.331c10.009 0 11.834-0.90625 11.834-9.7484v-12.752-12.752c0-8.8421-1.8254-9.7484-11.834-9.7484z" color="#000000" fill="url(#linearGradient1686)"/>
 <g transform="translate(-320 -60)" enable-background="new">
  <path d="m354.01 69-7.9434 0.01172c-0.56755 3e-3 -1.0699 0.40833-1.0644 0.97266l0.0684 8.0156c5e-3 0.56431 0.42463 0.99725 0.99219 1h7.9474c0.56757 3e-3 0.99219-0.43566 0.99219-1v-8c0-0.56435-0.42462-1.0028-0.99219-1z" enable-background="new" opacity=".4"/>
  <path d="m343.07 80-7.9966 0.01172c-0.57187 3e-3 -1.0778 0.40833-1.0723 0.97266l0.0684 8.0156c5e-3 0.56431 0.42813 0.99725 1 1h8.0005c0.57187 3e-3 1-0.43566 1-1v-8c0-0.56435-0.42813-1.0028-1-1z" enable-background="new" opacity=".4"/>
  <path d="m354.01 80-7.9434 0.01172c-0.56755 3e-3 -1.0699 0.40833-1.0644 0.97266l0.0684 8.0156c5e-3 0.56431 0.42463 0.99725 0.99219 1h7.9474c0.56757 3e-3 0.99219-0.43566 0.99219-1v-8c0-0.56435-0.42462-1.0028-0.99219-1z" enable-background="new" opacity=".4"/>
  <path d="m343.14 91-7.9966 0.01172c-0.57186 3e-3 -1.0778 0.40833-1.0723 0.97266l0.0684 8.0156c5e-3 0.56432 0.42813 0.99725 1 1h8.0005c0.57187 3e-3 1-0.43566 1-1v-8c0-0.56435-0.42813-1.0028-1-1z" enable-background="new" opacity=".4"/>
  <path d="m354.01 68-7.9434 0.01172c-0.56755 3e-3 -1.0699 0.40833-1.0644 0.97266l0.06836 8.0156c5e-3 0.56431 0.42463 0.99725 0.99219 1h7.9474c0.56756 3e-3 0.99219-0.43566 0.99219-1v-8c0-0.56435-0.42463-1.0028-0.99219-1zm-10.94 11-7.9966 0.01172c-0.57187 3e-3 -1.0778 0.40833-1.0723 0.97266l0.06836 8.0156c5e-3 0.56431 0.42813 0.99725 1 1h8.0005c0.57187 3e-3 1-0.43566 1-1v-8c0-0.56435-0.42813-1.0028-1-1zm10.94 0-7.9434 0.01172c-0.56755 3e-3 -1.0699 0.40833-1.0644 0.97266l0.06836 8.0156c5e-3 0.56431 0.42463 0.99725 0.99219 1h7.9474c0.56756 3e-3 0.99219-0.43566 0.99219-1v-8c0-0.56435-0.42463-1.0028-0.99219-1zm-10.871 11-7.9966 0.01172c-0.57186 3e-3 -1.0778 0.40833-1.0723 0.97266l0.0684 8.0156c5e-3 0.56431 0.42813 0.99725 1 1h8.0005c0.57187 3e-3 1-0.43566 1-1v-8c0-0.56435-0.42813-1.0028-1-1z" enable-background="new" fill="url(#linearGradient6891)"/>
  <path d="m354.01 68-7.9434 0.01172c-0.56755 3e-3 -1.0699 0.40833-1.0644 0.97266l0.01 0.95703c0.0217-0.53994 0.50286-0.92677 1.0547-0.92969l7.9432-0.01172c0.56756-0.0028 0.99219 0.43565 0.99219 1v-1s-0.42463-1.0028-0.99219-1z" enable-background="new" fill="#fff" opacity=".7"/>
  <path d="m343.07 79-7.9966 0.01172c-0.57187 3e-3 -1.0778 0.40833-1.0723 0.97266l0.01 0.95703c0.0219-0.53994 0.50647-0.92677 1.0625-0.92969l7.9963-0.01172c0.57187-0.0028 1 0.43565 1 1v-1c0-0.56435-0.42813-1.0028-1-1z" enable-background="new" fill="#fff" opacity=".7"/>
  <path d="m354.01 79-7.9434 0.01172c-0.56755 3e-3 -1.0699 0.40833-1.0644 0.97266l0.01 0.95703c0.0217-0.53994 0.50286-0.92677 1.0547-0.92969l7.9432-0.01172c0.56756-0.0028 0.99219 0.43565 0.99219 1v-1c0-0.56435-0.42463-1.0028-0.99219-1z" enable-background="new" fill="#fff" opacity=".7"/>
  <path d="m343.14 90-7.9961 0.01172c-0.57186 3e-3 -1.0778 0.40833-1.0723 0.97266l0.01 0.95703c0.0219-0.53994 0.50649-0.92677 1.0625-0.92969l7.9959-0.01172c0.57187-0.0028 1 0.43565 1 1v-1c0-0.56435-0.42813-1.0028-1-1z" enable-background="new" fill="#fff" opacity=".7"/>
 </g>
 <g transform="translate(-378 -60)" enable-background="new" opacity=".3">
  <path d="m423.01 80-7.9418 0.01172c-0.56794 3e-3 -1.0704 0.40833-1.0649 0.97266l0.0679 8.0156c5e-3 0.56433 0.4252 0.99726 0.99316 1h7.9457c0.56799 3e-3 0.99319-0.43566 0.99319-1v-8c0-0.56435-0.4252-1.0028-0.99316-1z" enable-background="new" opacity=".4"/>
  <path d="m412.01 91-7.9418 0.01172c-0.56794 3e-3 -1.0704 0.40833-1.0649 0.97266l0.0679 8.0156c5e-3 0.56433 0.4252 0.99726 0.99316 1h7.9457c0.56799 3e-3 0.99319-0.43566 0.99319-1v-8c0-0.56435-0.4252-1.0028-0.99316-1z" enable-background="new" opacity=".4"/>
  <path d="m423.01 91-7.9418 0.01172c-0.56794 3e-3 -1.0704 0.40833-1.0649 0.97266l0.0679 8.0156c5e-3 0.56433 0.4252 0.99726 0.99316 1h7.9457c0.56799 3e-3 0.99319-0.43566 0.99319-1v-8c0-0.56435-0.4252-1.0028-0.99316-1z" enable-background="new" opacity=".4"/>
  <path d="m390.01 91-7.9418 0.01172c-0.56794 3e-3 -1.0704 0.40833-1.0649 0.97266l0.0679 8.0156c5e-3 0.56433 0.4252 0.99726 0.99316 1h7.9457c0.56799 3e-3 0.99319-0.43566 0.99319-1v-8c0-0.56435-0.4252-1.0028-0.99316-1z" enable-background="new" opacity=".4"/>
  <path d="m390.01 102-7.9414 0.0117c-0.46453 2e-3 -0.8692 0.28183-1.0039 0.68945 1.8205 1.9257 4.8944 2.5855 9.9394 2.748v-2.4492c0-0.56435-0.42423-1.0028-0.99219-1zm11 0-7.9414 0.0117c-0.56794 3e-3 -1.0699 0.40833-1.0644 0.97266l0.0215 2.4941c0.6563 0.0123 1.3268 0.0215 2.0469 0.0215h7.9316v-2.5c0-0.56435-0.42423-1.0028-0.99219-1zm11 0-7.9414 0.0117c-0.56794 3e-3 -1.0699 0.40833-1.0644 0.97266l0.0215 2.5156h6.9102c1.1069 0 2.1104-0.0199 3.0684-0.0508v-2.4492c0-0.56435-0.42423-1.0028-0.99219-1zm11 0-7.9414 0.0117c-0.56794 3e-3 -1.0699 0.40833-1.0644 0.97266l0.0215 2.4258c4.9094-0.24201 7.7832-1.0691 9.416-3.3106-0.12961-0.0606-0.27185-0.10038-0.42969-0.0996z" enable-background="new" opacity=".4"/>
  <path d="m423.01 79-7.9434 0.01172c-0.56755 3e-3 -1.0699 0.40833-1.0644 0.97266l0.06836 8.0156c5e-3 0.56431 0.42463 0.99725 0.99219 1h7.9473c0.56756 3e-3 0.99219-0.43566 0.99219-1v-8c0-0.56435-0.42463-1.0028-0.99219-1zm-33 11-7.9434 0.01172c-0.56755 3e-3 -1.0699 0.40833-1.0644 0.97266l0.06836 8.0156c5e-3 0.56431 0.42463 0.99725 0.99219 1h7.9473c0.56756 3e-3 0.99219-0.43566 0.99219-1v-8c0-0.56435-0.42463-1.0028-0.99219-1zm22 0-7.9434 0.01172c-0.56755 3e-3 -1.0699 0.40833-1.0644 0.97266l0.06836 8.0156c5e-3 0.56431 0.42463 0.99725 0.99219 1h7.9473c0.56756 3e-3 0.99219-0.43566 0.99219-1v-8c0-0.56435-0.42463-1.0028-0.99219-1zm11 0-7.9434 0.01172c-0.56755 3e-3 -1.0699 0.40833-1.0644 0.97266l0.06836 8.0156c5e-3 0.56431 0.42463 0.99725 0.99219 1h7.9473c0.56756 3e-3 0.99219-0.43566 0.99219-1v-8c0-0.56435-0.42463-1.0028-0.99219-1zm-33 11-7.9434 0.0117c-0.56755 3e-3 -1.0699 0.40833-1.0644 0.97266l6e-3 0.65624c1.8138 1.9717 4.8974 2.6444 9.9941 2.8086v-3.4492c0-0.56435-0.42463-1.0028-0.99219-1zm11 0-7.9434 0.0117c-0.56755 3e-3 -1.0699 0.40833-1.0644 0.97266l0.0293 3.4941c0.65402 0.0122 1.3217 0.0215 2.0391 0.0215h7.9316v-3.5c0-0.56435-0.42463-1.0028-0.99219-1zm11 0-7.9434 0.0117c-0.56755 3e-3 -1.0699 0.40833-1.0644 0.97266l0.0293 3.5156h6.9023c1.1069 0 2.1104-0.0199 3.0684-0.0508v-3.4492c0-0.56435-0.42463-1.0028-0.99219-1zm11 0-7.9434 0.0117c-0.56755 3e-3 -1.0699 0.40833-1.0644 0.97266l0.0293 3.4258c5.3342-0.26372 8.2634-1.2174 9.8125-3.9297-0.17052-0.2856-0.46418-0.48227-0.83399-0.48047z" enable-background="new" fill="url(#linearGradient1502)" opacity="1"/>
  <path d="m423 78.988-7.9961 0.011719c-0.57186 3e-3 -1.0778 0.40833-1.0723 0.97266l0.01 0.95703c0.02167-0.53995 0.50626-0.92677 1.0623-0.92969l7.9961-0.01172c0.57187-0.0028 1 0.43565 1 1v-1c0-0.56435-0.42813-1.0028-1-1z" enable-background="new" fill="#fff" opacity=".7"/>
  <path d="m390 89.988-7.9961 0.011719c-0.57186 3e-3 -1.0778 0.40833-1.0723 0.97266l0.01 0.95703c0.02167-0.53995 0.50626-0.92677 1.0623-0.92969l7.9961-0.01172c0.57187-0.0028 1 0.43565 1 1v-1c0-0.56435-0.42813-1.0028-1-1z" enable-background="new" fill="#fff" opacity=".7"/>
  <path d="m412.01 89.988-7.9434 0.011719c-0.56795 3e-3 -1.0699 0.40833-1.0644 0.97266l0.01 0.95703c0.0217-0.53995 0.50247-0.92677 1.0547-0.92969l7.9434-0.01172c0.56796-0.0028 0.99219 0.43565 0.99219 1v-1c0-0.56435-0.42423-1.0028-0.99219-1z" enable-background="new" fill="#fff" opacity=".7"/>
  <path d="m423 89.988-7.9961 0.011719c-0.57186 3e-3 -1.0778 0.40833-1.0723 0.97266l0.01 0.95703c0.02167-0.53995 0.50626-0.92677 1.0623-0.92969l7.9961-0.01172c0.57187-0.0028 1 0.43565 1 1v-1c0-0.56435-0.42813-1.0028-1-1z" enable-background="new" fill="#fff" opacity=".7"/>
  <path d="m390 100.99-7.9961 0.01172c-0.57186 3e-3 -1.0778 0.40834-1.0723 0.97266l6e-3 0.58984c0.0254 0.0286 0.0522 0.0559 0.0781 0.084 0.14863-0.38363 0.5378-0.64411 0.98828-0.64648l7.9961-0.0117c0.57187-3e-3 1 0.43565 1 1v-1c0-0.56435-0.42813-1.0028-1-1z" enable-background="new" fill="#fff" opacity=".7"/>
  <path d="m401 100.99-7.9961 0.01172c-0.57186 3e-3 -1.0778 0.40834-1.0723 0.97266l0.01 0.95703c0.02167-0.53994 0.50626-0.92677 1.0623-0.92969l7.9961-0.0117c0.57187-3e-3 1 0.43565 1 1v-1c0-0.56435-0.42813-1.0028-1-1z" enable-background="new" fill="#fff" opacity=".7"/>
  <path d="m412 100.99-7.9961 0.01172c-0.57186 3e-3 -1.0778 0.40834-1.0723 0.97266l0.01 0.95703c0.02167-0.53994 0.50626-0.92677 1.0623-0.92969l7.9961-0.0117c0.57187-3e-3 1 0.43565 1 1v-1c0-0.56435-0.42813-1.0028-1-1z" enable-background="new" fill="#fff" opacity=".7"/>
  <path d="m423 100.99-7.9961 0.01172c-0.57186 3e-3 -1.0778 0.40834-1.0723 0.97266l0.01 0.95703c0.02167-0.53994 0.50626-0.92677 1.0623-0.92969l7.9961-0.0117c0.16415-8.6e-4 0.31158 0.043 0.44532 0.10742 0.14248-0.19595 0.27796-0.40104 0.40234-0.61914-0.17076-0.29058-0.47122-0.4901-0.84766-0.48828z" enable-background="new" fill="#fff" opacity=".7"/>
 </g>
 <path d="m13.335 1.5c-10.011 0-11.887 0.90635-11.834 9.7484v12.752 12.752c-0.0527 8.842 1.8229 9.7484 11.834 9.7484h21.331c10.009 0 11.834-0.90625 11.834-9.7484v-12.752-12.752c0-8.8421-1.8254-9.7484-11.834-9.7484z" color="#000000" fill="none" opacity=".4" stroke="#000"/>
 <path d="m13.336 2c-4.9905 0-7.8705 0.27628-9.3848 1.4531-0.75713 0.58842-1.2376 1.4035-1.5449 2.6602-0.3073 1.2566-0.4173 2.94-0.4043 5.1328v12.754 12.754c-0.0131 2.1928 0.097 3.8762 0.4043 5.1328 0.30731 1.2566 0.78779 2.0717 1.5449 2.6602 1.5143 1.1768 4.3943 1.4531 9.3848 1.4531h21.33c4.9892 0 7.855-0.27668 9.3633-1.4531 0.75412-0.58824 1.2329-1.4046 1.543-2.6621 0.31003-1.2575 0.42773-2.9395 0.42773-5.1328v-12.752-12.752c0-2.1933-0.1177-3.8753-0.42773-5.1328-0.31004-1.2575-0.78884-2.0739-1.543-2.6621-1.5083-1.1765-4.374-1.4531-9.3633-1.4531zm2.4023 1.0977c6.9474 8.3e-4 13.911 0.0034 20.85 0.05469 2.143 0.08293 4.4643-0.1477 6.4238 0.93164 1.2961 0.69523 1.5486 2.2503 1.7695 3.5645 0.17551 2.2029 0.0915 4.4422 0.13867 6.6699 0.0227 8.4795 0.077 16.969-0.0801 25.447-0.16151 1.4832-0.38135 3.3058-1.7988 4.1426-1.6055 0.82871-3.4755 0.90643-5.248 0.95313-9.4997 0.0678-19.024 0.0843-28.523-0.0176-1.5782-0.11413-3.2705-0.24014-4.6328-1.1211-1.2295-0.99538-1.3608-2.7274-1.5039-4.1934-0.1272-8.9986-0.0836-18.004-0.0527-27.008 0.0997-2.3813-0.24538-4.9 0.70508-7.1602 0.67165-1.5097 2.4657-1.86 3.9394-2.0566 2.6617-0.31658 5.3418-0.14702 8.0137-0.20703z" color="#000000" fill="url(#linearGradient1686-0)"/>
</svg>
