<svg width="48" height="48" version="1" xmlns="http://www.w3.org/2000/svg" xmlns:xlink="http://www.w3.org/1999/xlink">
 <defs>
  <linearGradient id="linearGradient8590" x1="96" x2="96" y1="4" y2="188" gradientTransform="matrix(.23913 0 0 .23913 1.0435 1.0435)" gradientUnits="userSpaceOnUse">
   <stop stop-color="#fff" offset="0"/>
   <stop stop-color="#fff" stop-opacity=".098039" offset=".125"/>
   <stop stop-color="#fff" stop-opacity=".098039" offset=".925"/>
   <stop stop-color="#fff" stop-opacity=".49804" offset="1"/>
  </linearGradient>
 </defs>
 <circle transform="scale(-1)" cx="-24" cy="-25" r="23" enable-background="new" opacity=".1"/>
 <path d="m24 1.5a22.5 22.5 0 0 0-2.7305 0.19531 22.5 22.5 0 0 0-0.18555 0.02148 22.5 22.5 0 0 0-0.0273 0.0039 22.5 22.5 0 0 0-0.18164 0.02734 22.5 22.5 0 0 0-1.7188 0.30859 22.5 22.5 0 0 0-0.1582 0.03516 22.5 22.5 0 0 0-0.0117 2e-3 22.5 22.5 0 0 0-0.21875 0.05664 22.5 22.5 0 0 0-1.6524 0.45703 22.5 22.5 0 0 0-0.16992 0.05664 22.5 22.5 0 0 0-0.01 0.0039 22.5 22.5 0 0 0-0.15625 0.05664 22.5 22.5 0 0 0-1.6621 0.63086 22.5 22.5 0 0 0-0.1875 0.08398 22.5 22.5 0 0 0-0.01 0.0039 22.5 22.5 0 0 0-0.21875 0.10547 22.5 22.5 0 0 0-1.3984 0.67969 22.5 22.5 0 0 0-0.0742 0.04297 22.5 22.5 0 0 0-0.19141 0.10938 22.5 22.5 0 0 0-0.0254 0.01563 22.5 22.5 0 0 0-0.20313 0.125 22.5 22.5 0 0 0-1.4512 0.89258 22.5 22.5 0 0 0-2e-3 2e-3 22.5 22.5 0 0 0-0.25781 0.18359 22.5 22.5 0 0 0-4e-3 0.0039 22.5 22.5 0 0 0-8e-3 0.0039 22.5 22.5 0 0 0-1.0852 0.80658v0.0059a22.5 22.5 0 0 0-0.24414 0.17969 22.5 22.5 0 0 0-0.46094 0.40625 22.5 22.5 0 0 0-0.33594 0.29297 22.5 22.5 0 0 0-0.0273 0.02539 22.5 22.5 0 0 0-0.83789 0.78125 22.5 22.5 0 0 0-0.74414 0.79883 22.5 22.5 0 0 0-0.0254 0.02734 22.5 22.5 0 0 0-0.32422 0.37109 22.5 22.5 0 0 0-0.4082 0.46484 22.5 22.5 0 0 0-0.67774 0.89258 22.5 22.5 0 0 0-0.66601 0.92969 22.5 22.5 0 0 0-0.56055 0.91406 22.5 22.5 0 0 0-0.0117 0.01953 22.5 22.5 0 0 0-0.5664 0.99023 22.5 22.5 0 0 0-0.47852 0.99023 22.5 22.5 0 0 0-0.4707 1.0527 22.5 22.5 0 0 0-0.38477 1.0527 22.5 22.5 0 0 1 0 2e-3 22.5 22.5 0 0 0-0.0566 0.17188 22.5 22.5 0 0 0-0.0918 0.23828 22.5 22.5 0 0 0-4e-3 0.0078 22.5 22.5 0 0 0-0.0254 0.06836 22.5 22.5 0 0 0-2e-3 0.0078 22.5 22.5 0 0 0-0.0703 0.25586 22.5 22.5 0 0 0-0.0977 0.29688 22.5 22.5 0 0 0-0.27929 1.0859 22.5 22.5 0 0 0-6e-3 0.02539 22.5 22.5 0 0 0-8e-3 0.0332 22.5 22.5 0 0 0-0.0176 0.06641 22.5 22.5 0 0 0-0.0156 0.06055 22.5 22.5 0 0 0-0.0976 0.38281 22.5 22.5 0 0 0-2e-3 0.0078 22.5 22.5 0 0 0-0.0508 0.30274 22.5 22.5 0 0 0-0.0508 0.23242 22.5 22.5 0 0 0-0.16797 1.1016 22.5 22.5 0 0 0-2e-3 0.01758 22.5 22.5 0 0 0-4e-3 0.0293 22.5 22.5 0 0 0-0.0859 0.57227 22.5 22.5 0 0 0-0.0195 0.30859 22.5 22.5 0 0 0-0.0234 0.19141 22.5 22.5 0 0 0-0.0391 0.77539 22.5 22.5 0 0 0-0.05808 1.1484 22.5 22.5 0 0 0 0.0586 1.1484 22.5 22.5 0 0 0 0.0391 0.77539 22.5 22.5 0 0 0 0.0234 0.19141 22.5 22.5 0 0 0 0.0195 0.30859 22.5 22.5 0 0 0 0.0859 0.57227 22.5 22.5 0 0 0 4e-3 0.0293 22.5 22.5 0 0 0 2e-3 0.01758 22.5 22.5 0 0 0 0.16797 1.1016 22.5 22.5 0 0 0 0.0508 0.23242 22.5 22.5 0 0 0 0.0508 0.30274 22.5 22.5 0 0 0 2e-3 0.0078 22.5 22.5 0 0 0 0.11328 0.44336 22.5 22.5 0 0 0 0.0176 0.06641 22.5 22.5 0 0 0 8e-3 0.0332 22.5 22.5 0 0 0 6e-3 0.02539 22.5 22.5 0 0 0 0.27929 1.0859 22.5 22.5 0 0 0 0.0977 0.29688 22.5 22.5 0 0 0 0.0703 0.25586 22.5 22.5 0 0 0 2e-3 0.0078 22.5 22.5 0 0 0 0.0293 0.07617 22.5 22.5 0 0 0 0.0918 0.23828 22.5 22.5 0 0 0 0.0566 0.17188 22.5 22.5 0 0 0 0 2e-3 22.5 22.5 0 0 0 0.38477 1.0527 22.5 22.5 0 0 0 0.4707 1.0527 22.5 22.5 0 0 0 0.47852 0.99023 22.5 22.5 0 0 0 0.5664 0.99023 22.5 22.5 0 0 0 0.0117 0.01953 22.5 22.5 0 0 0 0.56055 0.91406 22.5 22.5 0 0 0 6e-3 0.0098 22.5 22.5 0 0 0 0.66015 0.91992 22.5 22.5 0 0 0 0.67774 0.89258 22.5 22.5 0 0 0 4e-3 0.0059 22.5 22.5 0 0 0 0.4043 0.45898 22.5 22.5 0 0 0 0.32422 0.37109 22.5 22.5 0 0 0 0.0254 0.02734 22.5 22.5 0 0 0 0.74414 0.79883 22.5 22.5 0 0 0 6e-3 0.0059 22.5 22.5 0 0 0 0.83203 0.77538 22.5 22.5 0 0 0 0.0273 0.0254 22.5 22.5 0 0 0 0.33594 0.29297 22.5 22.5 0 0 0 0.46094 0.40625 22.5 22.5 0 0 0 6e-3 4e-3 22.5 22.5 0 0 0 0.23828 0.18164 22.5 22.5 0 0 0 0.0566 0.041 22.5 22.5 0 0 0 0.60352 0.45899 22.5 22.5 0 0 0 0.375 0.26953 22.5 22.5 0 0 0 4e-3 4e-3 22.5 22.5 0 0 0 4e-3 2e-3 22.5 22.5 0 0 0 8e-3 6e-3 22.5 22.5 0 0 0 0.0332 0.0254 22.5 22.5 0 0 0 2e-3 0 22.5 22.5 0 0 0 0.01 8e-3 22.5 22.5 0 0 0 0.0645 0.0449 22.5 22.5 0 0 0 0.41015 0.29492 22.5 22.5 0 0 0 0.01 6e-3 22.5 22.5 0 0 0 0.94336 0.57813 22.5 22.5 0 0 0 0.0195 0.0117 22.5 22.5 0 0 0 0.63476 0.36328 22.5 22.5 0 0 0 0.0586 0.0332 22.5 22.5 0 0 0 0.27734 0.1582 22.5 22.5 0 0 0 0.99024 0.47852 22.5 22.5 0 0 0 0.5625 0.25195 22.5 22.5 0 0 0 0.25781 0.11524 22.5 22.5 0 0 0 0.23242 0.10351 22.5 22.5 0 0 0 1.0547 0.38477 22.5 22.5 0 0 0 0.4082 0.13477 22.5 22.5 0 0 0 0.49219 0.16406 22.5 22.5 0 0 0 0.14648 0.0488 22.5 22.5 0 0 0 1.1113 0.28515 22.5 22.5 0 0 0 0.0254 6e-3 22.5 22.5 0 0 0 0.26953 0.0605 22.5 22.5 0 0 0 0.69336 0.15429 22.5 22.5 0 0 0 0.0977 0.0215 22.5 22.5 0 0 0 1.1191 0.16992 22.5 22.5 0 0 0 0.0156 2e-3 22.5 22.5 0 0 0 0.15821 0.0195 22.5 22.5 0 0 0 0.88867 0.10742 22.5 22.5 0 0 0 0.0391 4e-3 22.5 22.5 0 0 0 1.8516 0.0937 22.5 22.5 0 0 0 0.0723 4e-3 22.5 22.5 0 0 0 0.0703-4e-3 22.5 22.5 0 0 0 1.8516-0.0937 22.5 22.5 0 0 0 0.0391-4e-3 22.5 22.5 0 0 0 0.89062-0.10742 22.5 22.5 0 0 0 0.15625-0.0195 22.5 22.5 0 0 0 0.0156-2e-3 22.5 22.5 0 0 0 1.1191-0.16992 22.5 22.5 0 0 0 0.0937-0.0215 22.5 22.5 0 0 0 0.71094-0.1582 22.5 22.5 0 0 0 0.25585-0.0566 22.5 22.5 0 0 0 0.0254-6e-3 22.5 22.5 0 0 0 1.1113-0.28515 22.5 22.5 0 0 0 0.13868-0.0469 22.5 22.5 0 0 0 0.51953-0.17187 22.5 22.5 0 0 0 0.38867-0.12891 22.5 22.5 0 0 0 1.0547-0.38477 22.5 22.5 0 0 0 0.22265-0.0996 22.5 22.5 0 0 0 0.29102-0.13085 22.5 22.5 0 0 0 0.53906-0.24024 22.5 22.5 0 0 0 0.99024-0.47852 22.5 22.5 0 0 0 0.27734-0.1582 22.5 22.5 0 0 0 0.0586-0.0332 22.5 22.5 0 0 0 0.63477-0.36328 22.5 22.5 0 0 0 0.0195-0.0117 22.5 22.5 0 0 0 0.94336-0.57813 22.5 22.5 0 0 0 0.01-6e-3 22.5 22.5 0 0 0 0.26954-0.19531 22.5 22.5 0 0 0 0.10937-0.0781 22.5 22.5 0 0 0 0.0957-0.0664 22.5 22.5 0 0 0 0.0117-8e-3 22.5 22.5 0 0 0 0.082-0.0605 22.5 22.5 0 0 0 0.3418-0.24609 22.5 22.5 0 0 0 0.51563-0.39063 22.5 22.5 0 0 0 0.14438-0.10989v-2e-3a22.5 22.5 0 0 0 0.23633-0.17968 22.5 22.5 0 0 0 6e-3 -4e-3 22.5 22.5 0 0 0 0.46289-0.40625 22.5 22.5 0 0 0 0.33398-0.29297 22.5 22.5 0 0 0 0.0274-0.0254 22.5 22.5 0 0 0 0.83203-0.77539 22.5 22.5 0 0 0 6e-3 -0.0059 22.5 22.5 0 0 0 0.35547-0.38281 22.5 22.5 0 0 0 0.38867-0.41602 22.5 22.5 0 0 0 0.0273-0.02734 22.5 22.5 0 0 0 0.32422-0.37109 22.5 22.5 0 0 0 0.4043-0.45898 22.5 22.5 0 0 0 4e-3 -0.0059 22.5 22.5 0 0 0 0.67774-0.89258 22.5 22.5 0 0 0 0.66015-0.91992 22.5 22.5 0 0 0 6e-3 -0.0098 22.5 22.5 0 0 0 0.56055-0.91406 22.5 22.5 0 0 0 0.0117-0.01953 22.5 22.5 0 0 0 0.5664-0.99023 22.5 22.5 0 0 0 0.47852-0.99023 22.5 22.5 0 0 0 0.4707-1.0527 22.5 22.5 0 0 0 0.38477-1.0527 22.5 22.5 0 0 1 0-2e-3 22.5 22.5 0 0 0 0.0566-0.17188 22.5 22.5 0 0 0 0.0918-0.23828 22.5 22.5 0 0 0 0.0293-0.07617 22.5 22.5 0 0 0 2e-3 -0.0078 22.5 22.5 0 0 0 0.0703-0.25586 22.5 22.5 0 0 0 0.0977-0.29688 22.5 22.5 0 0 0 0.27929-1.0859 22.5 22.5 0 0 0 6e-3 -0.02539 22.5 22.5 0 0 0 8e-3 -0.0332 22.5 22.5 0 0 0 0.0176-0.06641 22.5 22.5 0 0 0 0.11328-0.44336 22.5 22.5 0 0 0 2e-3 -0.0078 22.5 22.5 0 0 0 0.0508-0.30274 22.5 22.5 0 0 0 0.0508-0.23242 22.5 22.5 0 0 0 0.16797-1.1016 22.5 22.5 0 0 0 2e-3 -0.01758 22.5 22.5 0 0 0 4e-3 -0.0293 22.5 22.5 0 0 0 0.0859-0.57227 22.5 22.5 0 0 0 0.0195-0.30859 22.5 22.5 0 0 0 0.0234-0.19141 22.5 22.5 0 0 0 0.0391-0.77539 22.5 22.5 0 0 0 0.05754-1.1482 22.5 22.5 0 0 0-0.0586-1.1484 22.5 22.5 0 0 0-0.0391-0.77539 22.5 22.5 0 0 0-0.0234-0.19141 22.5 22.5 0 0 0-0.0195-0.30859 22.5 22.5 0 0 0-0.0859-0.57227 22.5 22.5 0 0 0-4e-3 -0.0293 22.5 22.5 0 0 0-2e-3 -0.01758 22.5 22.5 0 0 0-0.16797-1.1016 22.5 22.5 0 0 0-0.0508-0.23242 22.5 22.5 0 0 0-0.0508-0.30274 22.5 22.5 0 0 0-2e-3 -0.0078 22.5 22.5 0 0 0-0.0976-0.38281 22.5 22.5 0 0 0-0.0156-0.06055 22.5 22.5 0 0 0-0.0176-0.06641 22.5 22.5 0 0 0-8e-3 -0.0332 22.5 22.5 0 0 0-6e-3 -0.02539 22.5 22.5 0 0 0-0.27929-1.0859 22.5 22.5 0 0 0-0.0977-0.29688 22.5 22.5 0 0 0-0.0703-0.25586 22.5 22.5 0 0 0-2e-3 -0.0078 22.5 22.5 0 0 0-0.0254-0.06836 22.5 22.5 0 0 0-4e-3 -0.0078 22.5 22.5 0 0 0-0.0918-0.23828 22.5 22.5 0 0 0-0.0566-0.17188 22.5 22.5 0 0 0 0-2e-3 22.5 22.5 0 0 0-0.38477-1.0527 22.5 22.5 0 0 0-0.4707-1.0527 22.5 22.5 0 0 0-0.47852-0.99023 22.5 22.5 0 0 0-0.5664-0.99023 22.5 22.5 0 0 0-0.0117-0.01953 22.5 22.5 0 0 0-0.56055-0.91406 22.5 22.5 0 0 0-0.66601-0.92969 22.5 22.5 0 0 0-0.67774-0.89258 22.5 22.5 0 0 0-0.4082-0.46484 22.5 22.5 0 0 0-0.32422-0.37109 22.5 22.5 0 0 0-0.0254-0.02734 22.5 22.5 0 0 0-0.74414-0.79883 22.5 22.5 0 0 0-0.83789-0.78125 22.5 22.5 0 0 0-0.0273-0.02539 22.5 22.5 0 0 0-0.33594-0.29297 22.5 22.5 0 0 0-0.46094-0.40625 22.5 22.5 0 0 0-0.24362-0.17968v-0.0059a22.5 22.5 0 0 0-1.0859-0.80664 22.5 22.5 0 0 0-8e-3 -0.0039 22.5 22.5 0 0 0-4e-3 -0.0039 22.5 22.5 0 0 0-0.25781-0.18359 22.5 22.5 0 0 0-2e-3 -2e-3 22.5 22.5 0 0 0-1.4512-0.89258 22.5 22.5 0 0 0-0.20313-0.125 22.5 22.5 0 0 0-0.0254-0.01563 22.5 22.5 0 0 0-0.19141-0.10938 22.5 22.5 0 0 0-0.0742-0.04297 22.5 22.5 0 0 0-1.3984-0.67969 22.5 22.5 0 0 0-0.21875-0.10547 22.5 22.5 0 0 0-0.01-0.0039 22.5 22.5 0 0 0-0.1875-0.08398 22.5 22.5 0 0 0-1.6621-0.63086 22.5 22.5 0 0 0-0.15625-0.05664 22.5 22.5 0 0 0-0.01-0.0039 22.5 22.5 0 0 0-0.16992-0.05664 22.5 22.5 0 0 0-1.6387-0.45312 22.5 22.5 0 0 0-0.23242-0.06055 22.5 22.5 0 0 0-0.0117-2e-3 22.5 22.5 0 0 0-0.17578-0.03906 22.5 22.5 0 0 0-1.6914-0.30273 22.5 22.5 0 0 0-0.19141-0.0293 22.5 22.5 0 0 0-0.0273-0.0039 22.5 22.5 0 0 0-0.19141-0.02344 22.5 22.5 0 0 0-2.7239-0.19325zm0 4.5a18 18 0 0 1 1.6016 0.08008 18 18 0 0 1 0.97656 0.12695 18 18 0 0 1 0.77735 0.11719 18 18 0 0 1 1.082 0.25391 18 18 0 0 1 0.64844 0.16602 18 18 0 0 1 1.0957 0.37305 18 18 0 0 1 0.59766 0.21875 18 18 0 0 1 1.0762 0.49219 18 18 0 0 1 0.55273 0.26758 18 18 0 0 1 1.0547 0.61719 18 18 0 0 1 0.47461 0.29297 18 18 0 0 1 1.0566 0.76953 18 18 0 0 1 3.2402 3.2246h-0.0156a18 18 0 0 1 1.5586 2.375 18 18 0 0 1 0.72852 1.498 18 18 0 0 1 0.0801 0.17969 18 18 0 0 1 0.52148 1.4238 18 18 0 0 1 0.0996 0.29883 18 18 0 0 1 0.3457 1.3359 18 18 0 0 1 0.10157 0.45703 18 18 0 0 1 0.1875 1.2285 18 18 0 0 1 0.0723 0.58984 18 18 0 0 1 0.084 1.6133 18 18 0 0 1-4e-3 0.11523 18 18 0 0 1-0.0762 1.4414 18 18 0 0 1-0.0918 0.75586 18 18 0 0 1-0.16601 1.0879 18 18 0 0 1-0.12696 0.55859 18 18 0 0 1-0.3125 1.2227 18 18 0 0 1-0.13867 0.41406 18 18 0 0 1-0.49414 1.3477 18 18 0 0 1-0.0879 0.19727 18 18 0 0 1-0.70312 1.4492 18 18 0 0 1-0.0625 0.10938 18 18 0 0 1-0.89844 1.457 18 18 0 0 1-0.6152 0.84375h0.0117a18 18 0 0 1-3.3047 3.2734 18 18 0 0 1-0.96484 0.70312 18 18 0 0 1-0.56641 0.34961 18 18 0 0 1-0.98632 0.57617 18 18 0 0 1-0.57422 0.27735 18 18 0 0 1-1.0469 0.48047 18 18 0 0 1-0.67773 0.24609 18 18 0 0 1-0.99414 0.33984 18 18 0 0 1-0.80469 0.20703 18 18 0 0 1-0.92773 0.2168 18 18 0 0 1-0.86719 0.13086 18 18 0 0 1-0.91406 0.11914 18 18 0 0 1-1.6035 0.08008 18 18 0 0 1-2e-3 0 18 18 0 0 1-1.6035-0.0801 18 18 0 0 1-0.91406-0.11914 18 18 0 0 1-0.86524-0.13086 18 18 0 0 1-0.92773-0.2168 18 18 0 0 1-0.80469-0.20703 18 18 0 0 1-0.97461-0.33203 18 18 0 0 1-0.70508-0.25781 18 18 0 0 1-1.0293-0.4707 18 18 0 0 1-0.58399-0.28321 18 18 0 0 1-0.98632-0.57617 18 18 0 0 1-0.56836-0.34961 18 18 0 0 1-0.95308-0.69529 18 18 0 0 1-3.3164-3.2812h0.0137a18 18 0 0 1-1.5234-2.3164 18 18 0 0 1-0.0488-0.08594 18 18 0 0 1-0.70703-1.457 18 18 0 0 1-0.0879-0.19727 18 18 0 0 1-0.50586-1.377 18 18 0 0 1-0.12109-0.36719 18 18 0 0 1-0.31641-1.2246 18 18 0 0 1-0.13281-0.59375 18 18 0 0 1-0.16016-1.0508 18 18 0 0 1-0.0937-0.77344 18 18 0 0 1-0.08212-1.5566 18 18 0 0 1 0.082-1.584 18 18 0 0 1 0.082-0.66602 18 18 0 0 1 0.17969-1.1797 18 18 0 0 1 0.10742-0.4707 18 18 0 0 1 0.33399-1.3066 18 18 0 0 1 0.11328-0.3418 18 18 0 0 1 0.52148-1.416 18 18 0 0 1 0.0606-0.13281 18 18 0 0 1 0.73242-1.5117 18 18 0 0 1 0.0273-0.04883 18 18 0 0 1 0.92383-1.5 18 18 0 0 1 0.61529-0.8418h-0.0137a18 18 0 0 1 3.2305-3.2188 18 18 0 0 1 1.0645-0.77539 18 18 0 0 1 0.48437-0.29688 18 18 0 0 1 1.0469-0.61328 18 18 0 0 1 0.55273-0.26758 18 18 0 0 1 1.0762-0.49219 18 18 0 0 1 0.60742-0.2207 18 18 0 0 1 1.0781-0.36914 18 18 0 0 1 0.67773-0.17383 18 18 0 0 1 1.0547-0.24805 18 18 0 0 1 0.79102-0.11719 18 18 0 0 1 0.96875-0.12695 18 18 0 0 1 1.6016-0.080078z" enable-background="new" fill="#ebebeb"/>
 <circle transform="matrix(.25882 .96593 .96593 -.25882 0 0)" cx="29.394" cy="16.971" r="18" enable-background="new" fill="#641c5d"/>
 <path d="m2.1085 26c1.0335 11.321 10.523 19.991 21.891 20 11.372-5e-3 20.866-8.6752 21.9-20z" enable-background="new" fill="#fff" opacity=".1"/>
 <path d="m21.379 10.97c-0.96969 2.0202-1.699 3.4669-2.5879 5.541-0.88889 2.0471-1.7932 4.2022-2.709 6.4648-0.34279 0.87254-0.69223 1.7828-1.043 2.6953-0.21612 0.49365-0.45931 1.0854-0.83983 2.1074-0.63767 1.6944-1.0658 2.7146-1.7774 4.5938-0.25923 0.65575-0.5421 1.3892-0.99218 2.627h5.3144l2.2461-6.252 5.0098-0.2168 3.4766 0.15039 1.5332 0.0664 2.2461 6.252h5.3144c-0.45008-1.2377-0.73294-1.9712-0.9922-2.627-0.71154-1.8792-1.1397-2.8994-1.7773-4.5938-0.38054-1.022-0.62373-1.6138-0.83984-2.1074-0.35075-0.91257-0.70019-1.8228-1.043-2.6953-0.91582-2.2626-1.6209-3.8162-2.5098-5.8633-0.57813-1.349-1.1787-2.6834-1.791-4.0098-0.0666-0.14413-0.12836-0.29168-0.19532-0.43555l-0.0762-0.14453c-0.24153-0.51763-0.47784-1.0386-0.7246-1.5527h-5.1621zm2.6211 4.9668c0.0176 0.0411 0.035 0.0819 0.0527 0.12305v0.0312c0.73973 1.6435 1.4563 3.3438 2.1445 5.1074 0.41751 1.0909 0.62817 1.584 0.83983 2.0977 0.21165 0.51361 0.42431 1.047 0.8418 2.2188l-1.25 0.0469-0.0586 2e-3 -2.5703 0.0918-3.8789-0.13868c0.835-2.3434 0.84662-2.1365 1.6816-4.3184 0.68824-1.7636 1.4048-3.4639 2.1445-5.1074v-0.0312c0.0176-0.0411 0.0351-0.082 0.0527-0.12304z" enable-background="new" opacity=".2"/>
 <path d="m21.378 9.9705c-0.96969 2.0202-1.6992 3.4672-2.588 5.5413-0.88891 2.0471-1.7916 4.2022-2.7074 6.4648-0.34277 0.87253-0.69314 1.7828-1.0439 2.6954-0.21612 0.49366-0.4591 1.0847-0.83963 2.1067-0.63766 1.6944-1.0653 2.7138-1.7768 4.593-0.25924 0.65575-0.54354 1.3905-0.99362 2.6282h5.3159l2.2453-6.2517 5.0095-0.21794 5.0099 0.21794 2.2453 6.2517h5.3159c-0.45007-1.2377-0.73438-1.9725-0.99362-2.6282-0.71155-1.8792-1.1392-2.8986-1.7768-4.593-0.38054-1.022-0.6235-1.613-0.83961-2.1067-0.35075-0.91257-0.70111-1.8228-1.0439-2.6954-0.91581-2.2626-1.619-3.8178-2.5079-5.8649-0.88887-2.0741-1.8181-4.1217-2.7878-6.1419h-0.0804l-2.6874 3.2e-4h-0.10652l-2.288 8.6e-4zm2.6213 4.9663c0.0176 0.0411 0.0359 0.0815 0.0536 0.12265v0.0314c0.73973 1.6435 1.455 3.3444 2.1433 5.108 0.83502 2.1818 0.84661 1.9737 1.6816 4.3171l-3.8784 0.13993-3.878-0.13993c0.835-2.3434 0.84661-2.1353 1.6816-4.3171 0.68824-1.7636 1.4035-3.4646 2.1433-5.108v-0.0314c0.0176-0.0411 0.0355-0.0816 0.0531-0.12265z" enable-background="new" fill="#ebebeb"/>
 <path d="m26.567 10.042-2.567 4.858c0.72575 1.6163 1.5206 3.5669 2.1966 5.2991 0.83502 2.1818 0.84663 1.9736 1.6816 4.3171l-1.3081 0.047 0.90717 3.1184 1.5325 0.0667 2.2453 6.2517h5.3159c-0.45008-1.2377-0.73439-1.9725-0.99363-2.6282-0.71154-1.8792-1.1392-2.8986-1.7768-4.593-0.38054-1.022-0.6235-1.613-0.83961-2.1067-0.35074-0.91257-0.70111-1.8228-1.0439-2.6954-0.91581-2.2626-1.619-3.8178-2.5079-5.8649-0.64092-1.4955-1.3035-2.9767-1.9864-4.4442z" enable-background="new" fill="#c43ac4" opacity=".2"/>
 <rect x="9.9467" y="24.9" width="28" height="5" rx="2.4706" ry="2.5" color="#000000" opacity=".2"/>
 <rect x="9.9467" y="23.9" width="28" height="5" rx="2.4706" ry="2.5" color="#000000" fill="#ebebeb"/>
 <path d="m12.801 26c-0.4432 0-0.80078 0.223-0.80078 0.5s0.35758 0.5 0.80078 0.5h7.9238 6.4746 8.0762c0.40165 0 0.72461-0.20209 0.72461-0.45312v-0.0937c0-0.25103-0.32296-0.45313-0.72461-0.45313h-8.0762-6.4746z" color="#000000" fill="#999"/>
 <path d="m12.801 26c-0.4432 0-0.80078 0.223-0.80078 0.5s0.35758 0.5 0.80078 0.5h5.9238 2.4746 7.0765c0.40165 0 0.72461-0.20209 0.72461-0.45312v-0.0937c0-0.25103-0.32296-0.45313-0.72461-0.45313h-7.0765-2.4746z" color="#000000" fill="#77216f"/>
 <circle cx="28.5" cy="26.5" r="2.5" enable-background="new" opacity=".4"/>
 <circle cx="28.5" cy="26.5" r="1.5" enable-background="new" fill="#ebebeb"/>
 <circle cx="24" cy="24" r="22.5" enable-background="new" fill="none" opacity=".4" stroke="#000" stroke-dashoffset="6.6" stroke-linejoin="round"/>
 <path d="m24 2a22 22 0 0 0-22 22 22 22 0 0 0 22 22 22 22 0 0 0 22-22 22 22 0 0 0-22-22zm0 0.95653a21.043 21.043 0 0 1 21.043 21.043 21.043 21.043 0 0 1-21.043 21.043 21.043 21.043 0 0 1-21.043-21.043 21.043 21.043 0 0 1 21.043-21.043z" enable-background="new" fill="url(#linearGradient8590)"/>
</svg>
