<svg width="48" height="48" version="1" xmlns="http://www.w3.org/2000/svg" xmlns:xlink="http://www.w3.org/1999/xlink">
 <defs>
  <linearGradient id="linearGradient4884" x1="325" x2="372.25" y1="107" y2="51.777" gradientTransform="rotate(-90 154 214)" gradientUnits="userSpaceOnUse">
   <stop stop-color="#f37e40" offset="0"/>
   <stop stop-color="#f34f17" offset="1"/>
  </linearGradient>
  <linearGradient id="linearGradient1004" x1="344" x2="344" y1="66.001" y2="102" gradientTransform="rotate(-90,344,84)" gradientUnits="userSpaceOnUse">
   <stop stop-color="#fff" offset="0"/>
   <stop stop-color="#fff" stop-opacity=".098039" offset=".125"/>
   <stop stop-color="#fff" stop-opacity=".098039" offset=".925"/>
   <stop stop-color="#fff" stop-opacity=".49804" offset="1"/>
  </linearGradient>
  <clipPath id="clipPath994">
   <path d="m335.73 62c-8.8242 0-9.7736 0.90635-9.7304 9.7484v12.252 12.252c-0.0433 8.842 0.90622 9.7484 9.7304 9.7484h16.539c8.8242 0 9.7304-0.90625 9.7304-9.7484v-12.252-12.252c0-8.8421-0.90622-9.7484-9.7304-9.7484z" color="#000000" fill="#cdcdcd"/>
  </clipPath>
 </defs>
 <path d="m47.5 16.231c0-2.2232-0.0512-3.9737-0.29297-5.4141-0.24178-1.4404-0.69529-2.619-1.5566-3.4824-0.86134-0.86337-2.0395-1.3191-3.4805-1.5586-1.441-0.23953-3.1954-0.28629-5.4238-0.27539h-12.746-12.752c-2.2251-0.0108-3.9785 0.0361-5.418 0.27539-1.441 0.23953-2.6191 0.69522-3.4805 1.5586-0.86134 0.86338-1.3149 2.042-1.5566 3.4824-0.24179 1.4404-0.29297 3.1909-0.29297 5.4141v17.539c0 2.2232 0.0511 3.9728 0.29297 5.4102 0.24189 1.4374 0.69694 2.6125 1.5586 3.4727 0.86165 0.8602 2.0389 1.3132 3.4785 1.5547 1.4396 0.24149 3.1904 0.29297 5.418 0.29297h12.752 12.752c2.2276 0 3.9784-0.0515 5.418-0.29297 1.4396-0.24149 2.6169-0.69449 3.4785-1.5547 0.86165-0.86019 1.3167-2.0352 1.5586-3.4727 0.24189-1.4374 0.29297-3.187 0.29297-5.4102z" color="#000000" color-rendering="auto" dominant-baseline="auto" image-rendering="auto" opacity=".1" shape-rendering="auto" solid-color="#000000" style="font-feature-settings:normal;font-variant-alternates:normal;font-variant-caps:normal;font-variant-ligatures:normal;font-variant-numeric:normal;font-variant-position:normal;isolation:auto;mix-blend-mode:normal;shape-padding:0;text-decoration-color:#000000;text-decoration-line:none;text-decoration-style:solid;text-indent:0;text-orientation:mixed;text-transform:none;white-space:normal"/>
 <path d="m1.5005 32.769c0 8.2315 0.90635 9.7736 9.7484 9.7304h12.752 12.752c8.842 0.0433 9.7484-1.4989 9.7484-9.7304v-17.539c0-8.2295-0.90625-9.7304-9.7484-9.7304h-12.752-12.752c-8.8421 0-9.7484 1.5009-9.7484 9.7304z" color="#000000" fill="url(#linearGradient4884)"/>
 <path d="m1.5078 24v8.752c-0.0317 9.6511 1.8228 9.748 11.834 9.748h21.33c10.009 0 11.834-0.15592 11.834-9.748v-8.752z" color="#000000" fill="#fff" opacity=".1"/>
 <path d="m21.379 13.071c-0.9697 2.0202-1.699 3.4669-2.5879 5.541-0.8889 2.0471-1.7932 4.2022-2.709 6.4648-0.34278 0.87253-0.69223 1.7828-1.043 2.6953-0.21612 0.49366-0.45931 1.0854-0.83984 2.1074-0.63766 1.6944-1.0658 2.7146-1.7773 4.5938-0.25924 0.65574-0.54211 1.3892-0.99219 2.627h5.3144l2.2461-6.252 5.0098-0.2168 3.4766 0.15039 1.5332 0.0664 2.2461 6.252h5.3144c-0.45008-1.2377-0.73294-1.9712-0.99219-2.627-0.71154-1.8792-1.1397-2.8994-1.7773-4.5938-0.38054-1.022-0.62373-1.6138-0.83984-2.1074-0.35075-0.91257-0.70019-1.8228-1.043-2.6953-0.91582-2.2626-1.6209-3.8162-2.5098-5.8633-0.57813-1.349-1.1787-2.6834-1.791-4.0098-0.0666-0.14413-0.12836-0.29168-0.19531-0.43555l-0.0762-0.14453c-0.24153-0.51763-0.47784-1.0386-0.72461-1.5527h-5.1621zm2.6211 4.9668c0.0176 0.0411 0.035 0.0819 0.0527 0.12305v0.0312c0.73973 1.6435 1.4563 3.3438 2.1445 5.1074 0.41751 1.0909 0.62818 1.584 0.83984 2.0976 0.21165 0.51362 0.4243 1.047 0.8418 2.2188l-1.25 0.0469-0.0586 2e-3 -2.5703 0.0918-3.8789-0.13867c0.835-2.3434 0.84662-2.1365 1.6816-4.3184 0.68824-1.7636 1.4048-3.4639 2.1445-5.1074v-0.0312c0.0176-0.0411 0.0351-0.082 0.0527-0.12305z" enable-background="new" opacity=".2"/>
 <path d="m21.378 12.071c-0.9697 2.0202-1.6992 3.4672-2.5881 5.5413-0.8889 2.0471-1.7916 4.2022-2.7074 6.4648-0.34278 0.87253-0.69314 1.7828-1.0439 2.6954-0.21612 0.49366-0.45909 1.0847-0.83962 2.1067-0.63766 1.6944-1.0653 2.7138-1.7768 4.593-0.25924 0.65575-0.54354 1.3905-0.99362 2.6282h5.3159l2.2453-6.2517 5.0095-0.21794 5.0099 0.21794 2.2453 6.2517h5.3159c-0.45008-1.2377-0.73438-1.9725-0.99362-2.6282-0.71155-1.8792-1.1392-2.8986-1.7768-4.593-0.38054-1.022-0.6235-1.613-0.83961-2.1067-0.35075-0.91257-0.70111-1.8228-1.0439-2.6954-0.91582-2.2626-1.619-3.8178-2.5079-5.8649-0.88888-2.0741-1.8182-4.1217-2.7878-6.1419h-0.0804l-2.6874 3.2e-4h-0.10652l-2.288 8.6e-4zm2.6213 4.9663c0.0176 0.0411 0.0359 0.0815 0.0536 0.12264v0.0314c0.73973 1.6435 1.455 3.3444 2.1433 5.1081 0.83502 2.1818 0.84662 1.9737 1.6816 4.3171l-3.8784 0.13994-3.878-0.13994c0.835-2.3434 0.84661-2.1353 1.6816-4.3171 0.68824-1.7636 1.4035-3.4646 2.1433-5.1081v-0.0314c0.0176-0.0411 0.0355-0.0816 0.0531-0.12264z" enable-background="new" fill="#fff9f2"/>
 <path d="m26.567 12.142-2.567 4.858c0.72575 1.6163 1.5206 3.5669 2.1966 5.2991 0.83502 2.1818 0.84663 1.9737 1.6816 4.3171l-1.3081 0.0471 0.90717 3.1184 1.5325 0.0667 2.2453 6.2517h5.3159c-0.45008-1.2377-0.73438-1.9725-0.99362-2.6282-0.71155-1.8792-1.1392-2.8986-1.7768-4.593-0.38054-1.022-0.6235-1.613-0.83961-2.1067-0.35075-0.91257-0.70111-1.8228-1.0439-2.6954-0.91582-2.2626-1.619-3.8178-2.5079-5.8649-0.64092-1.4955-1.3035-2.9767-1.9864-4.4442z" enable-background="new" fill="#f34f17" opacity=".1"/>
 <rect x="9.9467" y="27" width="28" height="5" rx="2.4706" ry="2.5" color="#000000" opacity=".2"/>
 <rect x="9.9467" y="26" width="28" height="5" rx="2.4706" ry="2.5" color="#000000" fill="#fff"/>
 <path d="m12.801 28c-0.4432 0-0.80078 0.223-0.80078 0.5s0.35758 0.5 0.80078 0.5h7.9238 6.4746 8.0762c0.40165 0 0.72461-0.20209 0.72461-0.45312v-0.0937c0-0.25103-0.32296-0.45313-0.72461-0.45313h-8.0762-6.4746z" color="#000000" fill="#f34f17" opacity=".2"/>
 <path d="m46.501 15.231c0-8.2315-0.90635-9.7736-9.7484-9.7304h-12.752-12.752c-8.842-0.0433-9.7484 1.4989-9.7484 9.7304v17.539c0 8.2295 0.90625 9.7304 9.7484 9.7304h12.752 12.752c8.8421 0 9.7484-1.5009 9.7484-9.7304z" color="#000000" fill="none" opacity=".4" stroke="#000"/>
 <path transform="rotate(90,214,-106)" d="m335.73 62c-8.8242 0-9.7736 0.90635-9.7304 9.7484v12.252 12.252c-0.0433 8.842 0.90622 9.7484 9.7304 9.7484h16.539c8.8242 0 9.7304-0.90625 9.7304-9.7484v-12.252-12.252c0-8.8421-0.90622-9.7484-9.7304-9.7484z" clip-path="url(#clipPath994)" color="#000000" fill="none" opacity=".7" stroke="url(#linearGradient1004)" stroke-width="2"/>
 <path d="m17 8s0-7 7-7 7 7 7 7" enable-background="new" fill="none" stroke="#fee8bc" stroke-linecap="round" stroke-width="2"/>
</svg>
