<svg width="48" height="48" version="1" xmlns="http://www.w3.org/2000/svg">
 <defs>
  <linearGradient id="linearGradient8588" x1="13.735" x2="38.1" y1="249.69" y2="292.77" gradientTransform="matrix(.94488 0 0 .94488 .50001 -233.13)" gradientUnits="userSpaceOnUse">
   <stop stop-color="#1a7fd4" offset="0"/>
   <stop stop-color="#37a6e6" offset="1"/>
  </linearGradient>
  <linearGradient id="linearGradient8590" x1="96" x2="96" y1="4" y2="188" gradientTransform="matrix(.23913 0 0 .23913 1.0435 1.0435)" gradientUnits="userSpaceOnUse">
   <stop stop-color="#fff" offset="0"/>
   <stop stop-color="#fff" stop-opacity=".098039" offset=".125"/>
   <stop stop-color="#fff" stop-opacity=".098039" offset=".925"/>
   <stop stop-color="#fff" stop-opacity=".49804" offset="1"/>
  </linearGradient>
 </defs>
 <circle transform="scale(-1)" cx="-24" cy="-25" r="23" enable-background="new" opacity=".1"/>
 <circle cx="24" cy="24" r="22.5" enable-background="new" fill="url(#linearGradient8588)"/>
 <g transform="translate(-319.64 -58.147)" enable-background="new" fill="#fff">
  <path d="m330.96 73.158 8.0881-0.0037v9.4397l3.0659 0.0017c-1.2537 2.5024-3.5132 6.8948-7.11 12.251-3.5975-5.357-5.8562-9.7518-7.11-12.254l3.066 0.0017z" color="#000000" enable-background="accumulate"/>
  <path d="m346.96 94.842 8.0881 0.0037v-9.4397l3.0659-0.0017c-1.2537-2.5024-3.5132-6.8948-7.11-12.251-3.5975 5.357-5.8562 9.7518-7.11 12.254l3.066-0.0017z" color="#000000" enable-background="accumulate"/>
 </g>
 <path d="m2.1085 26a22 22 0 0 0 21.891 20 22 22 0 0 0 21.9-20z" enable-background="new" fill="#fff" opacity=".1"/>
 <circle cx="24" cy="24" r="22.5" enable-background="new" fill="none" opacity=".4" stroke="#000" stroke-dashoffset="6.6" stroke-linejoin="round"/>
 <path d="m24 2a22 22 0 0 0-22 22 22 22 0 0 0 22 22 22 22 0 0 0 22-22 22 22 0 0 0-22-22zm0 0.95653a21.043 21.043 0 0 1 21.043 21.043 21.043 21.043 0 0 1-21.043 21.043 21.043 21.043 0 0 1-21.043-21.043 21.043 21.043 0 0 1 21.043-21.043z" enable-background="new" fill="url(#linearGradient8590)"/>
</svg>
