<svg width="48" height="48" version="1" xmlns="http://www.w3.org/2000/svg" xmlns:xlink="http://www.w3.org/1999/xlink">
 <defs>
  <linearGradient id="linearGradient8590-0" x1="96" x2="96" y1="4" y2="188" gradientTransform="matrix(.23913 0 0 .23913 1.0435 1.0435)" gradientUnits="userSpaceOnUse">
   <stop stop-color="#fff" offset="0"/>
   <stop stop-color="#fff" stop-opacity=".098039" offset=".125"/>
   <stop stop-color="#fff" stop-opacity=".098039" offset=".925"/>
   <stop stop-color="#fff" stop-opacity=".49804" offset="1"/>
  </linearGradient>
 </defs>
 <circle transform="scale(-1)" cx="-24" cy="-25" r="23" enable-background="new" opacity=".1"/>
 <path d="m24 1.4994a22.5 22.5 0 0 0-1.9434 0.09961 22.5 22.5 0 0 0-0.97266 0.11719 22.5 22.5 0 0 0-0.0273 0.0039 22.5 22.5 0 0 0-1.2793 0.19727 22.5 22.5 0 0 0-0.77929 0.17383 22.5 22.5 0 0 0-0.0117 2e-3 22.5 22.5 0 0 0-1.4512 0.375 22.5 22.5 0 0 0-0.58985 0.19531 22.5 22.5 0 0 0-0.01 0.0039 22.5 22.5 0 0 0-1.5352 0.5625 22.5 22.5 0 0 0-0.0137 0.0039 22.5 22.5 0 0 0-0.45703 0.20508 22.5 22.5 0 0 0-0.01 0.0039 22.5 22.5 0 0 0-1.6172 0.78516 22.5 22.5 0 0 0-2e-3 2e-3 22.5 22.5 0 0 0-0.26367 0.15039 22.5 22.5 0 0 0-0.0254 0.01563 22.5 22.5 0 0 0-1.6562 1.0195 22.5 22.5 0 0 0-0.25781 0.18359 22.5 22.5 0 0 0-4e-3 0.0039 22.5 22.5 0 0 0-8e-3 0.0039 22.5 22.5 0 0 0-1.0859 0.8457v3.5469h2.6973a18 18 0 0 1 11.303-4 18 18 0 0 1 18 18 18 18 0 0 1-3.7793 11h2.7793v3.6602a22.5 22.5 0 0 0 0.33789-0.39454 22.5 22.5 0 0 0 0.73047-0.92773 22.5 22.5 0 0 0 0.5957-0.85351 22.5 22.5 0 0 0 0.6543-1.0293 22.5 22.5 0 0 0 0.51172-0.91602 22.5 22.5 0 0 0 0.52539-1.043 22.5 22.5 0 0 0 0.43945-1.0098 22.5 22.5 0 0 0 0.57813-1.5078 22.5 22.5 0 0 0 0.0293-0.0762 22.5 22.5 0 0 0 2e-3 -8e-3 22.5 22.5 0 0 0 0.47851-1.7637 22.5 22.5 0 0 0 0.11328-0.44336 22.5 22.5 0 0 0 2e-3 -0.0078 22.5 22.5 0 0 0 0.25586-1.5566 22.5 22.5 0 0 0 0.10547-0.69922 22.5 22.5 0 0 0 0.082-1.2754 22.5 22.5 0 0 0 0.0586-1.1484 22.5 22.5 0 0 0-0.0977-1.9238 22.5 22.5 0 0 0-0.13281-1.1016 22.5 22.5 0 0 0-2e-3 -0.01758 22.5 22.5 0 0 0-0.16797-1.1016 22.5 22.5 0 0 0-0.24219-1.0859 22.5 22.5 0 0 0-6e-3 -0.02539 22.5 22.5 0 0 0-0.27929-1.0859 22.5 22.5 0 0 0-0.34766-1.0469 22.5 22.5 0 0 0 0-2e-3 22.5 22.5 0 0 0-0.38477-1.0527 22.5 22.5 0 0 0-0.4707-1.0527 22.5 22.5 0 0 0-0.47852-0.99023 22.5 22.5 0 0 0-0.5664-0.99023 22.5 22.5 0 0 0-0.0117-0.01953 22.5 22.5 0 0 0-0.56055-0.91406 22.5 22.5 0 0 0-0.66601-0.92969 22.5 22.5 0 0 0-0.67774-0.89258 22.5 22.5 0 0 0-0.73242-0.83594 22.5 22.5 0 0 0-0.0254-0.02734 22.5 22.5 0 0 0-0.74414-0.79883 22.5 22.5 0 0 0-0.83789-0.78125 22.5 22.5 0 0 0-0.0273-0.02539 22.5 22.5 0 0 0-0.79688-0.69922 22.5 22.5 0 0 0-14.244-5.0996zm20.795 30.986a22.5 22.5 0 0 1-0.43945 1.0098 22.5 22.5 0 0 1-0.12695 0.29297 22.5 22.5 0 0 0 0.75195-1.7305 22.5 22.5 0 0 1-0.18555 0.42774zm-0.96484 2.0527a22.5 22.5 0 0 1-0.51172 0.91602 22.5 22.5 0 0 1-0.18164 0.32617 22.5 22.5 0 0 0 0.95898-1.7168 22.5 22.5 0 0 1-0.26562 0.47461zm-1.166 1.9453a22.5 22.5 0 0 1-0.5957 0.85351 22.5 22.5 0 0 1-0.23633 0.33789 22.5 22.5 0 0 0 1.166-1.6699 22.5 22.5 0 0 1-0.33399 0.47852zm-1.3262 1.7812a22.5 22.5 0 0 1-0.33789 0.43165v-0.0371a22.5 22.5 0 0 1-0.63281 0.73828 22.5 22.5 0 0 0 1.3594-1.584 22.5 22.5 0 0 1-0.38867 0.45117zm-31.338-31.812v-0.03906a22.5 22.5 0 0 1 1.0859-0.80664 22.5 22.5 0 0 0-1.7441 1.3574 22.5 22.5 0 0 1 0.6582-0.51172zm-0.70508 0.55273a22.5 22.5 0 0 0-1.5547 1.4824 22.5 22.5 0 0 1 1.5547-1.4824zm-1.6621 1.5957a22.5 22.5 0 0 0-1.3594 1.584 22.5 22.5 0 0 1 0.38867-0.45117 22.5 22.5 0 0 1 0.33789-0.43164v0.03711a22.5 22.5 0 0 1 0.63281-0.73828zm-0.63281 0.73828a22.5 22.5 0 0 0-0.33789 0.39453 22.5 22.5 0 0 0-0.73047 0.92773 22.5 22.5 0 0 0-0.5957 0.85352 22.5 22.5 0 0 0-0.6543 1.0293 22.5 22.5 0 0 0-0.51172 0.91602 22.5 22.5 0 0 0-0.52539 1.043 22.5 22.5 0 0 0-0.43945 1.0098 22.5 22.5 0 0 0-0.57813 1.5078 22.5 22.5 0 0 0-4e-3 0.0078 22.5 22.5 0 0 0-0.0254 0.06836 22.5 22.5 0 0 0-2e-3 0.0078 22.5 22.5 0 0 0-0.47851 1.7637 22.5 22.5 0 0 0-0.0156 0.06055 22.5 22.5 0 0 0-0.0977 0.38281 22.5 22.5 0 0 0-2e-3 0.0078 22.5 22.5 0 0 0-0.25586 1.5566 22.5 22.5 0 0 0-0.10547 0.69922 22.5 22.5 0 0 0-0.082 1.2754 22.5 22.5 0 0 0-0.0586 1.1484 22.5 22.5 0 0 0 0.0977 1.9238 22.5 22.5 0 0 0 0.13281 1.1016 22.5 22.5 0 0 0 2e-3 0.01758 22.5 22.5 0 0 0 0.16797 1.1016 22.5 22.5 0 0 0 0.24219 1.0859 22.5 22.5 0 0 0 6e-3 0.0254 22.5 22.5 0 0 0 0.27929 1.0859 22.5 22.5 0 0 0 0.34766 1.0469 22.5 22.5 0 0 0 0 2e-3 22.5 22.5 0 0 0 0.38477 1.0527 22.5 22.5 0 0 0 0.4707 1.0527 22.5 22.5 0 0 0 0.47852 0.99024 22.5 22.5 0 0 0 0.5664 0.99023 22.5 22.5 0 0 0 0.0117 0.0195 22.5 22.5 0 0 0 0.56055 0.91407 22.5 22.5 0 0 0 6e-3 0.01 22.5 22.5 0 0 0 0.66015 0.91992 22.5 22.5 0 0 0 0.67774 0.89258 22.5 22.5 0 0 0 4e-3 6e-3 22.5 22.5 0 0 0 0.72852 0.83008 22.5 22.5 0 0 0 0.0254 0.0273 22.5 22.5 0 0 0 0.74414 0.79883 22.5 22.5 0 0 0 6e-3 6e-3 22.5 22.5 0 0 0 0.83203 0.77539 22.5 22.5 0 0 0 0.0273 0.0254 22.5 22.5 0 0 0 0.79688 0.69922 22.5 22.5 0 0 0 6e-3 4e-3 22.5 22.5 0 0 0 0.89844 0.68164 22.5 22.5 0 0 0 0.91015 0.65429 22.5 22.5 0 0 0 0.01 6e-3 22.5 22.5 0 0 0 0.94336 0.57813 22.5 22.5 0 0 0 0.0195 0.0117 22.5 22.5 0 0 0 0.9707 0.55468 22.5 22.5 0 0 0 0.99024 0.47852 22.5 22.5 0 0 0 1.0527 0.4707 22.5 22.5 0 0 0 1.0547 0.38477 22.5 22.5 0 0 0 1.0469 0.34766 22.5 22.5 0 0 0 1.1113 0.28515 22.5 22.5 0 0 0 0.0254 6e-3 22.5 22.5 0 0 0 1.0606 0.23633 22.5 22.5 0 0 0 1.1191 0.16992 22.5 22.5 0 0 0 0.0156 2e-3 22.5 22.5 0 0 0 1.0859 0.13086 22.5 22.5 0 0 0 1.9238 0.0977 22.5 22.5 0 0 0 12.902-4.0996 22.5 22.5 0 0 0 0.0117-8e-3 22.5 22.5 0 0 0 1.0859-0.8457v-3.5469h-2.6973a18 18 0 0 1-11.303 4 18 18 0 0 1-18-18 18 18 0 0 1 3.7793-11h-2.7793v-3zm31 32.207v0.0391a22.5 22.5 0 0 1-1.0859 0.80664 22.5 22.5 0 0 0 1.7441-1.3574 22.5 22.5 0 0 1-0.6582 0.51172zm-34.795-26.033a22.5 22.5 0 0 1 0.43945-1.0098 22.5 22.5 0 0 1 0.12695-0.29297 22.5 22.5 0 0 0-0.75195 1.7305 22.5 22.5 0 0 1 0.18555-0.42773zm0.96484-2.0527a22.5 22.5 0 0 1 0.51172-0.91602 22.5 22.5 0 0 1 0.18164-0.32617 22.5 22.5 0 0 0-0.95898 1.7168 22.5 22.5 0 0 1 0.26562-0.47461zm1.166-1.9453a22.5 22.5 0 0 1 0.5957-0.85352 22.5 22.5 0 0 1 0.23633-0.33789 22.5 22.5 0 0 0-1.166 1.6699 22.5 22.5 0 0 1 0.33399-0.47852zm34.924 27.996a22.5 22.5 0 0 1-1.5547 1.4824 22.5 22.5 0 0 0 1.5547-1.4824z" enable-background="new" fill="#ebebeb"/>
 <path d="m24 1.5a22.5 22.5 0 0 0-1.9473 0.09961 22.5 22.5 0 0 1 1.9473-0.09961zm1.9238 0.09766a22.5 22.5 0 0 1 1.1016 0.13281 22.5 22.5 0 0 0-1.1016-0.13281zm-4.8398 0.11914a22.5 22.5 0 0 0-1.3066 0.20117 22.5 22.5 0 0 1 1.3066-0.20117zm7.0606 0.18359a22.5 22.5 0 0 1 1.0859 0.24219 22.5 22.5 0 0 0-1.0859-0.24219zm-9.1465 0.19141a22.5 22.5 0 0 0-1.4629 0.37695 22.5 22.5 0 0 1 1.4629-0.37695zm11.344 0.33594a22.5 22.5 0 0 1 1.0469 0.34766 22.5 22.5 0 0 0-1.0469-0.34766zm-13.396 0.23633a22.5 22.5 0 0 0-1.5586 0.57031 22.5 22.5 0 0 1 1.5586-0.57031zm15.498 0.49609a22.5 22.5 0 0 1 1.0527 0.4707 22.5 22.5 0 0 0-1.0527-0.4707zm-17.514 0.2793a22.5 22.5 0 0 0-1.6289 0.79102 22.5 22.5 0 0 1 1.6289-0.79102zm19.557 0.66992a22.5 22.5 0 0 1 0.99023 0.56641 22.5 22.5 0 0 0-0.99023-0.56641zm-21.449 0.27148a22.5 22.5 0 0 0-1.6816 1.0352 22.5 22.5 0 0 1 1.6816-1.0352zm23.383 0.87305a22.5 22.5 0 0 1 0.91992 0.66016 22.5 22.5 0 0 0-0.91992-0.66016zm-25.322 0.3457a22.5 22.5 0 0 0-8.4746 11.43 22.5 22.5 0 0 1 4.377-7.7266v3.6973h2.7793a18 18 0 0 0-3.7793 11 18 18 0 0 0 18 18 18 18 0 0 0 11.303-4h2.6973v3.5859a22.5 22.5 0 0 1-1.0977 0.81445 22.5 22.5 0 0 0 8.4746-11.43 22.5 22.5 0 0 1-4.377 7.7266v-3.6973h-2.7793a18 18 0 0 0 3.7793-11 18 18 0 0 0-18-18 18 18 0 0 0-11.303 4h-2.6973v-3.5859a22.5 22.5 0 0 1 1.0977-0.81445zm27.141 0.99609a22.5 22.5 0 0 1 0.83008 0.72852 22.5 22.5 0 0 0-0.83008-0.72852zm1.6621 1.5039a22.5 22.5 0 0 1 0.77539 0.83203 22.5 22.5 0 0 0-0.77539-0.83203zm1.5039 1.6621a22.5 22.5 0 0 1 0.68164 0.89844 22.5 22.5 0 0 0-0.68164-0.89844zm1.3418 1.8184a22.5 22.5 0 0 1 0.57813 0.94336 22.5 22.5 0 0 0-0.57813-0.94336zm1.1445 1.9336a22.5 22.5 0 0 1 0.47852 0.99023 22.5 22.5 0 0 0-0.47852-0.99023zm0.94922 2.043a22.5 22.5 0 0 1 0.38477 1.0547 22.5 22.5 0 0 0-0.38477-1.0547zm-42.242 1.541a22.5 22.5 0 0 0-0.4961 1.832 22.5 22.5 0 0 1 0.4961-1.832zm42.975 0.56055a22.5 22.5 0 0 1 0.28515 1.1113 22.5 22.5 0 0 0-0.28515-1.1113zm-43.568 1.6543a22.5 22.5 0 0 0-0.25782 1.5645 22.5 22.5 0 0 1 0.25782-1.5645zm44.096 0.54297a22.5 22.5 0 0 1 0.16992 1.1191 22.5 22.5 0 0 0-0.16992-1.1191zm-44.459 1.7207a22.5 22.5 0 0 0-0.082 1.2754 22.5 22.5 0 0 1 0.082-1.2754zm44.762 0.5a22.5 22.5 0 0 1 0.09766 1.9238 22.5 22.5 0 0 0-0.09766-1.9238zm-44.902 1.9238a22.5 22.5 0 0 0 0.0977 1.9238 22.5 22.5 0 0 1-0.0977-1.9238zm44.941 1.1484a22.5 22.5 0 0 1-0.082 1.2754 22.5 22.5 0 0 0 0.082-1.2754zm-44.711 1.877a22.5 22.5 0 0 0 0.16992 1.1191 22.5 22.5 0 0 1-0.16992-1.1191zm44.523 0.09766a22.5 22.5 0 0 1-0.25782 1.5645 22.5 22.5 0 0 0 0.25782-1.5645zm-0.35547 1.9473a22.5 22.5 0 0 1-0.4961 1.832 22.5 22.5 0 0 0 0.4961-1.832zm-43.756 0.16015a22.5 22.5 0 0 0 0.28515 1.1113 22.5 22.5 0 0 1-0.28515-1.1113zm0.63281 2.1582a22.5 22.5 0 0 0 0.38477 1.0547 22.5 22.5 0 0 1-0.38477-1.0547zm0.85547 2.1074a22.5 22.5 0 0 0 0.47852 0.99023 22.5 22.5 0 0 1-0.47852-0.99023zm1.0449 1.9805a22.5 22.5 0 0 0 0.57813 0.94336 22.5 22.5 0 0 1-0.57813-0.94336zm1.2383 1.8633a22.5 22.5 0 0 0 0.68164 0.89843 22.5 22.5 0 0 1-0.68164-0.89843zm1.4102 1.7285a22.5 22.5 0 0 0 0.77539 0.83204 22.5 22.5 0 0 1-0.77539-0.83204zm1.6074 1.6074a22.5 22.5 0 0 0 0.83008 0.72852 22.5 22.5 0 0 1-0.83008-0.72852zm1.7285 1.4102a22.5 22.5 0 0 0 0.91992 0.66015 22.5 22.5 0 0 1-0.91992-0.66015zm25.984 0.49804a22.5 22.5 0 0 1-1.6816 1.0352 22.5 22.5 0 0 0 1.6816-1.0352zm-24.121 0.74024a22.5 22.5 0 0 0 0.99023 0.5664 22.5 22.5 0 0 1-0.99023-0.5664zm22.176 0.44531a22.5 22.5 0 0 1-1.6289 0.79102 22.5 22.5 0 0 0 1.6289-0.79102zm-20.195 0.59961a22.5 22.5 0 0 0 1.0527 0.4707 22.5 22.5 0 0 1-1.0527-0.4707zm18.109 0.39648a22.5 22.5 0 0 1-1.5586 0.57032 22.5 22.5 0 0 0 1.5586-0.57032zm-16.002 0.45899a22.5 22.5 0 0 0 1.0469 0.34766 22.5 22.5 0 0 1-1.0469-0.34766zm13.854 0.30664a22.5 22.5 0 0 1-1.4629 0.37695 22.5 22.5 0 0 0 1.4629-0.37695zm-11.695 0.32617a22.5 22.5 0 0 0 1.0859 0.24219 22.5 22.5 0 0 1-1.0859-0.24219zm9.4531 0.22461a22.5 22.5 0 0 1-1.3066 0.20117 22.5 22.5 0 0 0 1.3066-0.20117zm-7.248 0.1875a22.5 22.5 0 0 0 1.1016 0.13281 22.5 22.5 0 0 1-1.1016-0.13281zm4.9727 0.13086a22.5 22.5 0 0 1-1.9473 0.09961 22.5 22.5 0 0 0 1.9473-0.0996z" enable-background="new" fill="#4d4d4d"/>
 <circle cx="24" cy="24" r="18" enable-background="new" fill="#babeb4" opacity=".1"/>
 <path d="m2.1085 26c1.0335 11.321 10.523 19.991 21.891 20 11.372-5e-3 20.866-8.6752 21.9-20z" enable-background="new" fill="#fff" opacity=".1"/>
 <path d="m21.379 10.97c-0.96969 2.0202-1.699 3.4669-2.5879 5.541-0.88889 2.0471-1.7932 4.2022-2.709 6.4648-0.34279 0.87254-0.69223 1.7828-1.043 2.6953-0.21612 0.49365-0.45931 1.0854-0.83983 2.1074-0.63767 1.6944-1.0658 2.7146-1.7774 4.5938-0.25923 0.65575-0.5421 1.3892-0.99218 2.627h5.3144l2.2461-6.252 5.0098-0.2168 3.4766 0.15039 1.5332 0.0664 2.2461 6.252h5.3144c-0.45008-1.2377-0.73294-1.9712-0.9922-2.627-0.71154-1.8792-1.1397-2.8994-1.7773-4.5938-0.38054-1.022-0.62373-1.6138-0.83984-2.1074-0.35075-0.91257-0.70019-1.8228-1.043-2.6953-0.91582-2.2626-1.6209-3.8162-2.5098-5.8633-0.57813-1.349-1.1787-2.6834-1.791-4.0098-0.0666-0.14413-0.12836-0.29168-0.19532-0.43555l-0.0762-0.14453c-0.24153-0.51763-0.47784-1.0386-0.7246-1.5527h-5.1621zm2.6211 4.9668c0.0176 0.0411 0.035 0.0819 0.0527 0.12305v0.0312c0.73973 1.6435 1.4563 3.3438 2.1445 5.1074 0.41751 1.0909 0.62817 1.584 0.83983 2.0977 0.21165 0.51361 0.42431 1.047 0.8418 2.2188l-1.25 0.0469-0.0586 2e-3 -2.5703 0.0918-3.8789-0.13868c0.835-2.3434 0.84662-2.1365 1.6816-4.3184 0.68824-1.7636 1.4048-3.4639 2.1445-5.1074v-0.0312c0.0176-0.0411 0.0351-0.082 0.0527-0.12304z" enable-background="new" opacity=".2"/>
 <path d="m21.378 9.9705c-0.96969 2.0202-1.6992 3.4672-2.588 5.5413-0.88891 2.0471-1.7916 4.2022-2.7074 6.4648-0.34277 0.87253-0.69314 1.7828-1.0439 2.6954-0.21612 0.49366-0.4591 1.0847-0.83963 2.1067-0.63766 1.6944-1.0653 2.7138-1.7768 4.593-0.25924 0.65575-0.54354 1.3905-0.99362 2.6282h5.3159l2.2453-6.2517 5.0095-0.21794 5.0099 0.21794 2.2453 6.2517h5.3159c-0.45007-1.2377-0.73438-1.9725-0.99362-2.6282-0.71155-1.8792-1.1392-2.8986-1.7768-4.593-0.38054-1.022-0.6235-1.613-0.83961-2.1067-0.35075-0.91257-0.70111-1.8228-1.0439-2.6954-0.91581-2.2626-1.619-3.8178-2.5079-5.8649-0.88887-2.0741-1.8181-4.1217-2.7878-6.1419h-0.0804l-2.6874 3.2e-4h-0.10652l-2.288 8.6e-4zm2.6213 4.9663c0.0176 0.0411 0.0359 0.0815 0.0536 0.12265v0.0314c0.73973 1.6435 1.455 3.3444 2.1433 5.108 0.83502 2.1818 0.84661 1.9737 1.6816 4.3171l-3.8784 0.13993-3.878-0.13993c0.835-2.3434 0.84661-2.1353 1.6816-4.3171 0.68824-1.7636 1.4035-3.4646 2.1433-5.108v-0.0314c0.0176-0.0411 0.0355-0.0816 0.0531-0.12265z" enable-background="new" fill="#ececec"/>
 <path d="m26.567 10.042-2.567 4.858c0.72575 1.6163 1.5206 3.5669 2.1966 5.2991 0.83502 2.1818 0.84663 1.9736 1.6816 4.3171l-1.3081 0.047 0.90717 3.1184 1.5325 0.0667 2.2453 6.2517h5.3159c-0.45008-1.2377-0.73439-1.9725-0.99363-2.6282-0.71154-1.8792-1.1392-2.8986-1.7768-4.593-0.38054-1.022-0.6235-1.613-0.83961-2.1067-0.35074-0.91257-0.70111-1.8228-1.0439-2.6954-0.91581-2.2626-1.619-3.8178-2.5079-5.8649-0.64092-1.4955-1.3035-2.9767-1.9864-4.4442z" enable-background="new" fill="#4d4d4d" opacity=".1"/>
 <rect x="9.9467" y="24.9" width="28" height="5" rx="2.4706" ry="2.5" color="#000000" opacity=".2"/>
 <rect x="9.9467" y="23.9" width="28" height="5" rx="2.4706" ry="2.5" color="#000000" fill="#ececec"/>
 <path d="m12.801 25.899c-0.4432 0-0.80078 0.223-0.80078 0.5s0.35758 0.5 0.80078 0.5h7.9238 6.4746 8.0762c0.40165 0 0.72461-0.20209 0.72461-0.45312v-0.0937c0-0.25103-0.32296-0.45313-0.72461-0.45313h-8.0762-6.4746z" color="#000000" fill="#4d4d4d" opacity=".2"/>
 <rect x="12" y="26" width="16" height="1" rx=".8" ry=".5" color="#000000" fill="#77216f"/>
 <circle cx="24" cy="24" r="22.5" enable-background="new" fill="none" opacity=".4" stroke="#000" stroke-dashoffset="6.6" stroke-linejoin="round"/>
 <path d="m24 2a22 22 0 0 0-14 5.043v1.2793a21.043 21.043 0 0 1 14-5.3652 21.043 21.043 0 0 1 21.043 21.043 21.043 21.043 0 0 1-4.043 12.365v1.5742a22 22 0 0 0 5-13.939 22 22 0 0 0-22-22zm-17 8.0605a22 22 0 0 0-5 13.939 22 22 0 0 0 22 22 22 22 0 0 0 14-5.043v-1.2793a21.043 21.043 0 0 1-14 5.3652 21.043 21.043 0 0 1-21.043-21.043 21.043 21.043 0 0 1 4.043-12.365z" enable-background="new" fill="url(#linearGradient8590-0)"/>
</svg>
