<svg width="48" height="48" version="1" xmlns="http://www.w3.org/2000/svg" xmlns:xlink="http://www.w3.org/1999/xlink">
 <defs>
  <linearGradient id="linearGradient1686" x1="320" x2="368" y1="108" y2="60" gradientTransform="rotate(90 214 -106)" gradientUnits="userSpaceOnUse">
   <stop stop-color="#948b74" offset="0"/>
   <stop stop-color="#aea795" offset="1"/>
  </linearGradient>
  <filter id="filter987" x="-.048375" y="-.055286" width="1.0967" height="1.1106" color-interpolation-filters="sRGB">
   <feGaussianBlur stdDeviation="0.6450015"/>
  </filter>
  <linearGradient id="linearGradient1686-0" x1="322" x2="366" y1="84" y2="84" gradientTransform="rotate(90 214 -106)" gradientUnits="userSpaceOnUse">
   <stop stop-color="#fff" offset="0"/>
   <stop stop-color="#fff" stop-opacity=".098039" offset=".125"/>
   <stop stop-color="#fff" stop-opacity=".098039" offset=".925"/>
   <stop stop-color="#fff" stop-opacity=".49804" offset="1"/>
  </linearGradient>
 </defs>
 <path d="m13.658 2c-2.6221 0-4.6868 0.05009-6.3856 0.28674-1.6989 0.23664-3.089 0.6805-4.1074 1.5235-1.0183 0.84301-1.5558 1.9961-1.8383 3.4064-0.28252 1.4103-0.33767 3.1273-0.32482 5.3084v12.475 12.481c-0.0127 2.1777 0.0426 3.8939 0.32482 5.3027 0.28251 1.4103 0.81998 2.5634 1.8383 3.4064 1.0183 0.84301 2.4085 1.2869 4.1074 1.5235 1.6989 0.23665 3.7635 0.28674 6.3856 0.28674h20.686c2.6221 0 4.6857-0.05 6.381-0.28674 1.6953-0.23674 3.0813-0.6821 4.0958-1.5254 1.0146-0.84331 1.5488-1.9956 1.8337-3.4045 0.28483-1.4089 0.34554-3.1225 0.34554-5.3027v-12.481-12.481c0-2.1802-0.0608-3.8937-0.34554-5.3027-0.28482-1.4089-0.81911-2.5612-1.8337-3.4045-1.0146-0.84332-2.4005-1.2887-4.0958-1.5254-1.6953-0.23674-3.7589-0.28674-6.381-0.28674z" color="#000000" color-rendering="auto" dominant-baseline="auto" image-rendering="auto" opacity=".1" shape-rendering="auto" solid-color="#000000" style="font-feature-settings:normal;font-variant-alternates:normal;font-variant-caps:normal;font-variant-ligatures:normal;font-variant-numeric:normal;font-variant-position:normal;isolation:auto;mix-blend-mode:normal;shape-padding:0;text-decoration-color:#000000;text-decoration-line:none;text-decoration-style:solid;text-indent:0;text-orientation:mixed;text-transform:none;white-space:normal"/>
 <path d="m13.335 1.5c-10.011 0-11.887 0.90635-11.834 9.7484v12.752 12.752c-0.0527 8.842 1.8229 9.7484 11.834 9.7484h21.331c10.009 0 11.834-0.90625 11.834-9.7484v-12.752-12.752c0-8.8421-1.8254-9.7484-11.834-9.7484z" color="#000000" fill="url(#linearGradient1686)"/>
 <path d="m36.442 1.5293-34.941 33.102v2.1211c0 8.8421 1.8253 9.748 11.834 9.748h21.33c10.011 0 11.887-0.90601 11.834-9.748v-25.504c0.0492-8.2617-1.6755-9.5793-10.057-9.7188z" enable-background="new" fill="#fff" opacity=".05"/>
 <path d="m13.989 11c-1.8873 0.0219-3.2692-0.04301-4.3984 0.58008-0.5646 0.31151-1.0108 0.83621-1.2578 1.4941-0.24698 0.65794-0.33594 1.4394-0.33594 2.4258v6 2.5 10.5c0 0.98638 0.089 1.7679 0.33594 2.4258 0.24697 0.65793 0.69319 1.1846 1.2578 1.4961 0.80751 0.44553 1.7482 0.5377 2.9062 0.5625l18.502 0.01562h3.002 6e-3c1.8873-0.0218 3.2673 0.0449 4.3965-0.57812 0.56461-0.31152 1.0108-0.83816 1.2578-1.4961 0.24698-0.65793 0.33593-1.4394 0.33593-2.4258v-10.5-5.5c0-0.98638-0.0889-1.7678-0.33593-2.4258-0.18524-0.49345-0.48202-0.91228-0.85743-1.2227-0.12513-0.10346-0.25923-0.19556-0.40039-0.27344-0.2823-0.15576-0.58068-0.26786-0.89843-0.34961-0.95339-0.24524-2.0827-0.21216-3.4982-0.22852h-6e-3 -9.9688-0.12109l-3.0332-3h-6.8848z" color="#000000" color-rendering="auto" filter="url(#filter987)" image-rendering="auto" opacity=".3" shape-rendering="auto" solid-color="#000000" style="isolation:auto;mix-blend-mode:normal;shape-padding:0;text-decoration-color:#000000;text-decoration-line:none;text-decoration-style:solid;text-indent:0;text-transform:none;white-space:normal"/>
 <path d="m13.989 10c-1.8873 0.0219-3.2682-0.0435-4.3975 0.57959-0.5646 0.31151-1.0113 0.83767-1.2583 1.4956-0.24698 0.65794-0.33643 1.4384-0.33643 2.4248v8.5h32.001v-5.5c0-0.98638-0.0894-1.7674-0.33642-2.4253-0.24698-0.65793-0.69369-1.1846-1.2583-1.4961-1.1292-0.62303-2.5102-0.5568-4.3975-0.57861h-5e-3 -10.091l-3.0322-3h-6.8849z" color="#000000" color-rendering="auto" fill="#e3dfd5" image-rendering="auto" shape-rendering="auto" solid-color="#000000" style="isolation:auto;mix-blend-mode:normal;shape-padding:0;text-decoration-color:#000000;text-decoration-line:none;text-decoration-style:solid;text-indent:0;text-transform:none;white-space:normal"/>
 <path d="m34.006 13c1.8873 0.0219 3.2682-0.0437 4.3975 0.57934 0.56461 0.31152 1.0113 0.83767 1.2583 1.4956s0.33618 1.4387 0.33618 2.425v16.001c0 0.98639-0.0892 1.7664-0.33618 2.4243-0.24697 0.65794-0.69369 1.1856-1.2583 1.4971-1.1292 0.62303-2.5102 0.55606-4.3975 0.57788h-5e-3 -3.0022l-18.502-0.0161c-1.1581-0.0248-2.098-0.11623-2.9055-0.56177-0.56462-0.31152-1.0113-0.83914-1.2583-1.4971-0.24698-0.65793-0.33619-1.4379-0.33619-2.4243v-13.001c0-0.98638 0.0892-1.7671 0.33619-2.425 0.24697-0.65794 0.69368-1.1848 1.2583-1.4963 1.1292-0.62303 2.5102-0.5568 4.3975-0.57861h5e-3 7.0073l3.0322-3h9.9685 5e-3z" color="#000000" color-rendering="auto" fill="#faf8f6" image-rendering="auto" shape-rendering="auto" solid-color="#000000" style="isolation:auto;mix-blend-mode:normal;shape-padding:0;text-decoration-color:#000000;text-decoration-line:none;text-decoration-style:solid;text-indent:0;text-transform:none;white-space:normal"/>
 <path d="m13.989 10c-1.8873 0.0219-3.2692-0.04301-4.3984 0.58008-0.5646 0.31151-1.0108 0.83621-1.2578 1.4941-0.24698 0.65794-0.33594 1.4394-0.33594 2.4258v1c0-0.98639 0.089-1.7678 0.33594-2.4258 0.24697-0.65793 0.69321-1.1826 1.2578-1.4941 1.1292-0.62309 2.5112-0.55818 4.3984-0.58008h4e-3 6.8848l2.5879 2.5605 0.56632-0.56055h-0.12109l-3.0332-3h-6.8848z" color="#000000" color-rendering="auto" fill="#fff" image-rendering="auto" opacity=".4" shape-rendering="auto" solid-color="#000000" style="isolation:auto;mix-blend-mode:normal;shape-padding:0;text-decoration-color:#000000;text-decoration-line:none;text-decoration-style:solid;text-indent:0;text-transform:none;white-space:normal"/>
 <path d="m24.032 13-3.0312 3h-7.0078-4e-3c-1.8873 0.02181-3.2692-0.0449-4.3984 0.57812-0.56462 0.31152-1.0108 0.83815-1.2578 1.4961-0.24699 0.65794-0.33594 1.4394-0.33594 2.4258v1c0-0.98638 0.089-1.7678 0.33594-2.4258 0.24697-0.65794 0.69319-1.1846 1.2578-1.4961 1.1292-0.62303 2.5112-0.55632 4.3984-0.57812h4e-3 7.0078l3.0312-3h9.9688 6e-3c1.8873 0.0219 3.2673-0.04296 4.3965 0.58008 0.56461 0.31152 1.0108 0.8362 1.2578 1.4941s0.33593 1.4394 0.33593 2.4258v-1c0-0.98638-0.0889-1.7678-0.33593-2.4258-0.24698-0.65794-0.69321-1.1826-1.2578-1.4941-1.1294-0.62304-2.5093-0.55818-4.3966-0.58008h-6e-3z" color="#000000" color-rendering="auto" fill="#fdfdfd" image-rendering="auto" shape-rendering="auto" solid-color="#000000" style="isolation:auto;mix-blend-mode:normal;shape-padding:0;text-decoration-color:#000000;text-decoration-line:none;text-decoration-style:solid;text-indent:0;text-transform:none;white-space:normal"/>
 <path d="m13.335 1.5c-10.011 0-11.887 0.90635-11.834 9.7484v12.752 12.752c-0.0527 8.842 1.8229 9.7484 11.834 9.7484h21.331c10.009 0 11.834-0.90625 11.834-9.7484v-12.752-12.752c0-8.8421-1.8254-9.7484-11.834-9.7484z" color="#000000" fill="none" opacity=".4" stroke="#000"/>
 <path d="m13.336 2c-4.9905 0-7.8705 0.27628-9.3848 1.4531-0.75713 0.58842-1.2376 1.4035-1.5449 2.6602-0.3073 1.2566-0.4173 2.94-0.4043 5.1328v12.754 12.754c-0.0131 2.1928 0.097 3.8762 0.4043 5.1328 0.30731 1.2566 0.78779 2.0717 1.5449 2.6602 1.5143 1.1768 4.3943 1.4531 9.3848 1.4531h21.33c4.9892 0 7.855-0.27668 9.3633-1.4531 0.75412-0.58824 1.2329-1.4046 1.543-2.6621 0.31003-1.2575 0.42773-2.9395 0.42773-5.1328v-12.752-12.752c0-2.1933-0.1177-3.8753-0.42773-5.1328-0.31004-1.2575-0.78884-2.0739-1.543-2.6621-1.5083-1.1765-4.374-1.4531-9.3633-1.4531zm2.4023 1.0977c6.9474 8.3e-4 13.911 0.0034 20.85 0.05469 2.143 0.08293 4.4643-0.1477 6.4238 0.93164 1.2961 0.69523 1.5486 2.2503 1.7695 3.5645 0.17551 2.2029 0.0915 4.4422 0.13867 6.6699 0.0227 8.4795 0.077 16.969-0.0801 25.447-0.16151 1.4832-0.38135 3.3058-1.7988 4.1426-1.6055 0.82871-3.4755 0.90643-5.248 0.95313-9.4997 0.0678-19.024 0.0843-28.523-0.0176-1.5782-0.11413-3.2705-0.24014-4.6328-1.1211-1.2295-0.99538-1.3608-2.7274-1.5039-4.1934-0.1272-8.9986-0.0836-18.004-0.0527-27.008 0.0997-2.3813-0.24538-4.9 0.70508-7.1602 0.67165-1.5097 2.4657-1.86 3.9394-2.0566 2.6617-0.31658 5.3418-0.14702 8.0137-0.20703z" color="#000000" fill="url(#linearGradient1686-0)"/>
</svg>
