<svg width="48" height="48" version="1" xmlns="http://www.w3.org/2000/svg" xmlns:xlink="http://www.w3.org/1999/xlink">
 <defs>
  <linearGradient id="linearGradient8588" x1="13.735" x2="38.1" y1="249.69" y2="292.77" gradientTransform="matrix(.94488 0 0 .94488 .50001 -233.13)" gradientUnits="userSpaceOnUse">
   <stop stop-color="#da1636" offset="0"/>
   <stop stop-color="#f22c42" offset="1"/>
  </linearGradient>
  <linearGradient id="linearGradient8590" x1="96" x2="96" y1="4" y2="188" gradientTransform="matrix(.23913 0 0 .23913 1.0435 1.0435)" gradientUnits="userSpaceOnUse">
   <stop stop-color="#fff" offset="0"/>
   <stop stop-color="#fff" stop-opacity=".098039" offset=".125"/>
   <stop stop-color="#fff" stop-opacity=".098039" offset=".925"/>
   <stop stop-color="#fff" stop-opacity=".49804" offset="1"/>
  </linearGradient>
 </defs>
 <circle transform="scale(-1)" cx="-24" cy="-25" r="23" enable-background="new" opacity=".1"/>
 <circle cx="24" cy="24" r="22.5" enable-background="new" fill="url(#linearGradient8588)"/>
 <path d="m2.1085 26a22 22 0 0 0 21.891 20 22 22 0 0 0 21.9-20z" enable-background="new" fill="#fff" opacity=".05"/>
 <path d="m23.597 36.281c-4.4639-1.2382-6.1792-6.552-3.8299-11.864 0.36495-0.82521 0.66234-1.5758 0.66087-1.668-1e-3 -0.09216-0.91861-0.19295-2.0381-0.22398-3.6042-0.09988-6.4807-1.3857-7.5023-3.3537-0.58161-1.1204-0.59379-3.5545-0.0233-4.6532 0.72888-1.4038 2.1502-2.4415 3.8184-2.7878 1.7908-0.37177 1.9151-0.35236 8.8285 1.3791 4.887 1.2239 5.5691 1.3322 7.7682 1.2331 1.9716-0.08886 2.6858-0.24629 3.92-0.8641 0.83126-0.4161 1.7036-0.68084 1.9421-0.58935 1.9354 0.7427-3.291 3.4463-7.3782 3.8167-2.4317 0.22036-4.7362-0.11892-10.18-1.4988-5.2206-1.3233-6.0939-1.353-7.031-0.23934-0.52506 0.62401-0.69348 1.122-0.69348 2.0505 0 1.0824 0.12585 1.3461 1.072 2.2461 1.3963 1.3283 3.1604 1.8452 6.2761 1.839l2.4292-0.0046 0.88766-1.3572c0.67665-1.0346 1.2119-1.5003 2.2515-1.9591 0.7501-0.33104 1.6393-0.54923 1.976-0.48486 0.60668 0.11597 0.60354 0.13-0.35002 1.5662-0.5292 0.79703-0.91377 1.4898-0.85461 1.5396 0.0592 0.04973 0.95137-0.12362 1.9827-0.38522 1.7105-0.43389 1.9041-0.43823 2.2054-0.04951 0.62883 0.81136-0.13791 1.1891-4.0805 2.0104l-1.6072 0.33481-0.95473 1.9257c-2.8344 5.7168-1.8032 10.798 2.1914 10.798 0.79138 0 1.7456-0.2123 2.3576-0.52454 3.5105-1.7909 5.5925-8.0473 2.6779-8.0473-1.5801 0-3.5038 1.5938-4.4833 3.7144-0.52018 1.1262-0.79641 1.3794-1.2958 1.1877-1.2937-0.49644 1.1674-4.5713 3.4706-5.7463 2.9309-1.4952 5.6612-0.0023 5.6601 3.0947-2e-3 4.585-5.6162 8.8015-10.074 7.5651z" enable-background="new" opacity=".1" stroke-width="3.7797"/>
 <path d="m23.597 35.281c-4.4639-1.2382-6.1792-6.552-3.8299-11.864 0.36495-0.82521 0.66234-1.5758 0.66087-1.668-1e-3 -0.09216-0.91861-0.19295-2.0381-0.22398-3.6042-0.09988-6.4807-1.3857-7.5023-3.3537-0.58161-1.1204-0.59379-3.5545-0.0233-4.6532 0.72888-1.4038 2.1502-2.4415 3.8184-2.7878 1.7908-0.37177 1.9151-0.35236 8.8285 1.3791 4.887 1.2239 5.5691 1.3322 7.7682 1.2331 1.9716-0.08886 2.6858-0.24629 3.92-0.8641 0.83126-0.4161 1.7036-0.68084 1.9421-0.58935 1.9354 0.7427-3.291 3.4463-7.3782 3.8167-2.4317 0.22036-4.7362-0.11892-10.18-1.4988-5.2206-1.3233-6.0939-1.353-7.031-0.23934-0.52506 0.62401-0.69348 1.122-0.69348 2.0505 0 1.0824 0.12585 1.3461 1.072 2.2461 1.3963 1.3283 3.1604 1.8452 6.2761 1.839l2.4292-0.0046 0.88766-1.3572c0.67665-1.0346 1.2119-1.5003 2.2515-1.9591 0.7501-0.33104 1.6393-0.54923 1.976-0.48486 0.60668 0.11597 0.60354 0.13-0.35002 1.5662-0.5292 0.79703-0.91377 1.4898-0.85461 1.5396 0.0592 0.04973 0.95137-0.12362 1.9827-0.38522 1.7105-0.43389 1.9041-0.43823 2.2054-0.04951 0.62883 0.81136-0.13791 1.1891-4.0805 2.0104l-1.6072 0.33481-0.95473 1.9257c-2.8344 5.7168-1.8032 10.798 2.1914 10.798 0.79138 0 1.7456-0.2123 2.3576-0.52454 3.5105-1.7909 5.5925-8.0473 2.6779-8.0473-1.5801 0-3.5038 1.5938-4.4833 3.7144-0.52018 1.1262-0.79641 1.3794-1.2958 1.1877-1.2937-0.49644 1.1674-4.5713 3.4706-5.7463 2.9309-1.4952 5.6612-0.0023 5.6601 3.0947-2e-3 4.585-5.6162 8.8015-10.074 7.5651z" enable-background="new" fill="#fff" stroke-width="3.7797"/>
 <circle cx="24" cy="24" r="22.5" enable-background="new" fill="none" opacity=".4" stroke="#000" stroke-dashoffset="6.6" stroke-linejoin="round"/>
 <path d="m24 2a22 22 0 0 0-22 22 22 22 0 0 0 22 22 22 22 0 0 0 22-22 22 22 0 0 0-22-22zm0 0.95653a21.043 21.043 0 0 1 21.043 21.043 21.043 21.043 0 0 1-21.043 21.043 21.043 21.043 0 0 1-21.043-21.043 21.043 21.043 0 0 1 21.043-21.043z" enable-background="new" fill="url(#linearGradient8590)"/>
</svg>
