<svg width="48" height="48" version="1" xmlns="http://www.w3.org/2000/svg" xmlns:xlink="http://www.w3.org/1999/xlink">
 <defs>
  <linearGradient id="linearGradient1686" x1="322" x2="367" y1="84" y2="84" gradientTransform="matrix(0 1 1 0 -60 -320)" gradientUnits="userSpaceOnUse">
   <stop stop-color="#8c8c8c" offset="0"/>
   <stop stop-color="#b8b8b8" offset="1"/>
  </linearGradient>
  <linearGradient id="linearGradient4655-4" x1="72" x2="232" y1="156" y2="156" gradientTransform="matrix(0 -.2 .2 0 -7.2 54.2)" gradientUnits="userSpaceOnUse">
   <stop stop-color="#fdfdfd" offset="0"/>
   <stop stop-color="#f1f0e9" offset="1"/>
  </linearGradient>
  <filter id="filter2357" x="-1.5603e-9" y="-4.8628e-9" width="1" height="1" color-interpolation-filters="sRGB">
   <feGaussianBlur stdDeviation="1.0806258e-07"/>
  </filter>
  <linearGradient id="linearGradient1686-0" x1="322" x2="366" y1="84" y2="84" gradientTransform="rotate(90 214 -106)" gradientUnits="userSpaceOnUse">
   <stop stop-color="#fff" offset="0"/>
   <stop stop-color="#fff" stop-opacity=".098039" offset=".125"/>
   <stop stop-color="#fff" stop-opacity=".098039" offset=".925"/>
   <stop stop-color="#fff" stop-opacity=".49804" offset="1"/>
  </linearGradient>
 </defs>
 <path d="m13.658 2c-2.6221 0-4.6868 0.05009-6.3856 0.28674-1.6989 0.23664-3.089 0.6805-4.1074 1.5235-1.0183 0.84301-1.5558 1.9961-1.8383 3.4064-0.28252 1.4103-0.33767 3.1273-0.32482 5.3084v12.475 12.481c-0.0127 2.1777 0.0426 3.8939 0.32482 5.3027 0.28251 1.4103 0.81998 2.5634 1.8383 3.4064 1.0183 0.84301 2.4085 1.2869 4.1074 1.5235 1.6989 0.23665 3.7635 0.28674 6.3856 0.28674h20.686c2.6221 0 4.6857-0.05 6.381-0.28674 1.6953-0.23674 3.0813-0.6821 4.0958-1.5254 1.0146-0.84331 1.5488-1.9956 1.8337-3.4045 0.28483-1.4089 0.34554-3.1225 0.34554-5.3027v-12.481-12.481c0-2.1802-0.0608-3.8937-0.34554-5.3027-0.28482-1.4089-0.81911-2.5612-1.8337-3.4045-1.0146-0.84332-2.4005-1.2887-4.0958-1.5254-1.6953-0.23674-3.7589-0.28674-6.381-0.28674z" color="#000000" color-rendering="auto" dominant-baseline="auto" image-rendering="auto" opacity=".1" shape-rendering="auto" solid-color="#000000" style="font-feature-settings:normal;font-variant-alternates:normal;font-variant-caps:normal;font-variant-ligatures:normal;font-variant-numeric:normal;font-variant-position:normal;isolation:auto;mix-blend-mode:normal;shape-padding:0;text-decoration-color:#000000;text-decoration-line:none;text-decoration-style:solid;text-indent:0;text-orientation:mixed;text-transform:none;white-space:normal"/>
 <path d="m34.665 1.5c10.011 0 11.887 0.90635 11.834 9.7484v12.752 12.752c0.0527 8.842-1.8229 9.7484-11.834 9.7484h-21.331c-10.009 0-11.834-0.90625-11.834-9.7484v-12.752-12.752c0-8.8421 1.8254-9.7484 11.834-9.7484z" color="#000000" fill="url(#linearGradient1686)"/>
 <path d="m24 1.5v45h10.664c10.011 0 11.887-0.90602 11.834-9.748v-12.752-12.752c0.0527-8.842-1.8228-9.748-11.834-9.748z" color="#000000" opacity=".03"/>
 <path d="m9.6 13.4c-0.8864 0-1.6 0.7136-1.6 1.6v24.4c0 0.88641 0.7136 1.6 1.6 1.6h28.8c0.8864 0 1.6-0.71359 1.6-1.6v-24.4c0-0.8864-0.7136-1.6-1.6-1.6zm18.4 3.6v11h5.6l-9.6 11-9.6-11h5.6v-11h1.1951z" enable-background="new" opacity=".1" stroke-width=".8"/>
 <path d="m9.6 12.4c-0.8864 0-1.6 0.7136-1.6 1.6v24.4c0 0.88641 0.7136 1.6 1.6 1.6h28.8c0.8864 0 1.6-0.71359 1.6-1.6v-24.4c0-0.8864-0.7136-1.6-1.6-1.6zm18.4 5.6v9h5.6l-9.6 11-9.6-11h5.6v-9z" enable-background="new" fill="url(#linearGradient4655-4)" stroke-width=".8"/>
 <path d="m9.6 12.6c-0.8864 0-1.6 0.7136-1.6 1.6v12.8h12v-9h8v9h12v-12.8c0-0.8864-0.7136-1.6-1.6-1.6z" enable-background="new" opacity=".05" stroke-width=".8"/>
 <circle cx="11.5" cy="36.5" r="1.5" enable-background="new" fill="#c8c4b7" stroke-width=".75"/>
 <circle cx="36.5" cy="36.5" r="1.5" enable-background="new" fill="#c8c4b7" stroke-width=".75"/>
 <path d="m23.867 8c-2.6964 0-4.8672 0.446-4.8672 1h-3.293c-4.5941 0-8.0701 0.77025-8.293 1.666 0 0-0.0604 0.27371-0.0918 0.39062-0.75468 0.26792-1.3223 1.4792-1.3223 2.9434s0.56758 2.6754 1.3223 2.9434c0.0314 0.11692 0.0918 0.39062 0.0918 0.39062 0 0.92333 3.6988 1.666 8.293 1.666h3.293c0 0.554 2.1708 1 4.8672 1h0.26562c2.6964 0 4.8672-0.446 4.8672-1h3.293c4.5941 0 8.0701-0.77025 8.293-1.666 0 0 0.0547-0.28363 0.0781-0.38867 0.76131-0.25837 1.336-1.4726 1.336-2.9453s-0.57465-2.6869-1.3359-2.9453c-0.0234-0.10504-0.0781-0.38867-0.0781-0.38867-2e-5 -0.92333-3.6988-1.666-8.293-1.666h-3.293c0-0.554-2.1708-1-4.8672-1z" enable-background="new" opacity=".25" stroke-width=".78335"/>
 <g transform="matrix(.20455 0 0 .1875 -67.636 14.5)" enable-background="new">
  <g transform="translate(296 -108)" enable-background="new">
   <rect x="64" y="84" width="176" height="32" rx="8" ry="16" enable-background="new" fill="#fdfdfd" stroke-width="4"/>
   <path d="m111.46 73.333h81.084c22.46 0 40.542 3.9644 40.542 8.8889 0 0 2.0271 8.8889 2.0271 17.778 0 8.8889-2.0271 17.778-2.0271 17.778-1.0895 4.7774-18.082 8.8889-40.542 8.8889h-81.084c-22.46 0-40.542-3.9644-40.542-8.8889 0 0-2.0271-6.6667-2.0271-17.778s2.0271-17.778 2.0271-17.778c1.0895-4.7774 18.082-8.8889 40.542-8.8889z" enable-background="new" fill="#ff2a2a" filter="url(#filter2357)" stroke-width="4.2448"/>
   <rect x="127.56" y="68" width="48.889" height="64" rx="23.795" ry="5.3333" enable-background="new" fill="#fdfdfd" stroke-width="4"/>
  </g>
 </g>
 <path d="m23.867 7c-2.6964 0-4.8672 0.446-4.8672 1h-3.293c-4.5941 0-8.0701 0.77025-8.293 1.666 0 0-0.0604 0.27371-0.0918 0.39062-0.75468 0.26792-1.3223 1.4792-1.3223 2.9434 0 0.171 9e-3 0.337 0.0234 0.5 0.1125-1.2327 0.63228-2.2067 1.2988-2.4434 0.0314-0.11692 0.0918-0.39062 0.0918-0.39062 0.22288-0.89576 3.6989-1.666 8.293-1.666h3.293c0-0.554 2.1708-1 4.8672-1h0.26562c2.6964 0 4.8672 0.446 4.8672 1h3.293c4.5941 0 8.293 0.74268 8.293 1.666 0 0 0.0547 0.28363 0.0781 0.38867 0.67304 0.22842 1.1993 1.2046 1.3125 2.4453 0.01487-0.16271 0.02346-0.32925 0.02346-0.5 0-1.4727-0.57464-2.6869-1.3359-2.9453-0.0234-0.10504-0.0781-0.38867-0.0781-0.38867-2e-5 -0.92333-3.6988-1.666-8.293-1.666h-3.293c0-0.554-2.1708-1-4.8672-1z" enable-background="new" fill="#fdfdfd" opacity=".6" stroke-width=".78335"/>
 <path d="m13.335 1.5c-10.011 0-11.887 0.90635-11.834 9.7484v12.752 12.752c-0.0527 8.842 1.8229 9.7484 11.834 9.7484h21.331c10.009 0 11.834-0.90625 11.834-9.7484v-12.752-12.752c0-8.8421-1.8254-9.7484-11.834-9.7484z" color="#000000" fill="none" opacity=".5" stroke="#000"/>
 <path d="m13.336 2c-4.9905 0-7.8705 0.27628-9.3848 1.4531-0.75713 0.58842-1.2376 1.4035-1.5449 2.6602-0.3073 1.2566-0.4173 2.94-0.4043 5.1328v12.754 12.754c-0.0131 2.1928 0.097 3.8762 0.4043 5.1328 0.30731 1.2566 0.78779 2.0717 1.5449 2.6602 1.5143 1.1768 4.3943 1.4531 9.3848 1.4531h21.33c4.9892 0 7.855-0.27668 9.3633-1.4531 0.75412-0.58824 1.2329-1.4046 1.543-2.6621 0.31003-1.2575 0.42773-2.9395 0.42773-5.1328v-12.752-12.752c0-2.1933-0.1177-3.8753-0.42773-5.1328-0.31004-1.2575-0.78884-2.0739-1.543-2.6621-1.5083-1.1765-4.374-1.4531-9.3633-1.4531zm2.4023 1.0977c6.9474 8.3e-4 13.911 0.0034 20.85 0.05469 2.143 0.08293 4.4643-0.1477 6.4238 0.93164 1.2961 0.69523 1.5486 2.2503 1.7695 3.5645 0.17551 2.2029 0.0915 4.4422 0.13867 6.6699 0.0227 8.4795 0.077 16.969-0.0801 25.447-0.16151 1.4832-0.38135 3.3058-1.7988 4.1426-1.6055 0.82871-3.4755 0.90643-5.248 0.95313-9.4997 0.0678-19.024 0.0843-28.523-0.0176-1.5782-0.11413-3.2705-0.24014-4.6328-1.1211-1.2295-0.99538-1.3608-2.7274-1.5039-4.1934-0.1272-8.9986-0.0836-18.004-0.0527-27.008 0.0997-2.3813-0.24538-4.9 0.70508-7.1602 0.67165-1.5097 2.4657-1.86 3.9394-2.0566 2.6617-0.31658 5.3418-0.14702 8.0137-0.20703z" color="#000000" fill="url(#linearGradient1686-0)" filter="url(#filter2970)"/>
</svg>
