<svg width="48" height="48" version="1" xmlns="http://www.w3.org/2000/svg" xmlns:xlink="http://www.w3.org/1999/xlink">
 <defs>
  <linearGradient id="linearGradient3802" x1="348" x2="348" y1="64" y2="104" gradientTransform="translate(-320,-60)" gradientUnits="userSpaceOnUse">
   <stop stop-color="#fff" offset="0"/>
   <stop stop-color="#fff" stop-opacity="0" offset=".090625"/>
   <stop stop-color="#fff" stop-opacity="0" offset="1"/>
  </linearGradient>
  <linearGradient id="linearGradient3558" x1="344" x2="344" y1="68" y2="100" gradientTransform="translate(-320,-60)" gradientUnits="userSpaceOnUse">
   <stop stop-color="#0b508a" offset="0"/>
   <stop stop-color="#083d6a" offset="1"/>
  </linearGradient>
  <clipPath id="clipPath3574">
   <path d="m342.38 64h3.2366c6.4123 0 9.6956 0.56194 11.255 2.1045 1.559 1.5426 2.1272 4.2484 2.1272 9.8954 0 5.6471-0.5682 8.3528-2.1272 9.8955-1.559 1.5426-4.8422 2.1046-11.255 2.1046h-3.2366c-6.4123 0-9.6956-0.56194-11.255-2.1046-1.559-1.5426-2.1271-4.2484-2.1271-9.8955 0-5.6471 0.56818-8.3528 2.1271-9.8954 1.559-1.5426 4.8422-2.1045 11.255-2.1045z" color="#000000" color-rendering="auto" dominant-baseline="auto" enable-background="new" fill="#083d6a" image-rendering="auto" shape-rendering="auto" solid-color="#000000" style="font-feature-settings:normal;font-variant-alternates:normal;font-variant-caps:normal;font-variant-ligatures:normal;font-variant-numeric:normal;font-variant-position:normal;isolation:auto;mix-blend-mode:normal;shape-padding:0;text-decoration-color:#000000;text-decoration-line:none;text-decoration-style:solid;text-indent:0;text-orientation:mixed;text-transform:none;white-space:normal"/>
  </clipPath>
 </defs>
 <path d="m22.305 3.5c-6.6294 0-10.284 0.51342-12.238 2.4707-1.9548 1.9573-2.4668 5.6163-2.4668 12.252v13.555c0 6.6357 0.51202 10.295 2.4668 12.252 1.9548 1.9573 5.6089 2.4707 12.238 2.4707h3.5898c6.6294 0 10.284-0.51343 12.238-2.4707 1.9548-1.9573 2.4668-5.6163 2.4668-12.252v-13.555c0-6.6357-0.51203-10.295-2.4668-12.252-1.9548-1.9573-5.6089-2.4707-12.238-2.4707z" enable-background="new" opacity=".1" stroke="#000" stroke-linecap="round" stroke-linejoin="round"/>
 <path d="m22.205 2.5c-6.6294 0-10.284 0.51342-12.238 2.4707-1.9548 1.9573-2.4668 5.6163-2.4668 12.252v13.555c0 6.6357 0.51202 10.295 2.4668 12.252 1.9548 1.9573 5.6089 2.4707 12.238 2.4707h3.5898c6.6294 0 10.284-0.51343 12.238-2.4707 1.9548-1.9573 2.4668-5.6163 2.4668-12.252v-13.555c0-6.6357-0.51203-10.295-2.4668-12.252-1.9548-1.9573-5.6089-2.4707-12.238-2.4707z" enable-background="new" fill="#1a7fd4" stroke="#0b3457" stroke-linecap="round" stroke-linejoin="round" stroke-opacity=".68372"/>
 <path d="m21.475 30.5-0.975 1.675 2.775 1.6 1.875-3.275zm4.15 0-1.4 2.425 0.9 1.525-0.675 0.4 3.275 0.9 0.875-3.3-0.7 0.4-1.375-2.35zm-4.15 3.15-3.275 0.9 0.7 0.4-1.2 2.025 0.65 1.125h2.425l0.9-1.55 0.675 0.4zm8.025 1.975-2.775 1.6 1.7 3.025 0.25-0.425 0.575-1.025 0.175-0.3 0.875-1.525zm-4.7 2.075-2.4 2.4 2.4 2.4v-0.8h2.8l0.625-1.075-1.225-2.125h-2.2zm-6.225 0.8 0.225 0.4 0.75 1.325 0.85 1.475h1.2v-3.2z" enable-background="new" fill="#fff"/>
 <path d="m22.205 3.5h3.5898c6.5778 0 9.955 0.59948 11.531 2.1777 1.5761 1.5781 2.1738 4.9607 2.1738 11.545v13.555c0 6.5843-0.5977 9.9668-2.1738 11.545-1.5762 1.5782-4.9535 2.1777-11.531 2.1777h-3.5898c-6.5778 0-9.955-0.59948-11.531-2.1777-1.5761-1.5782-2.1738-4.9607-2.1738-11.545v-13.555c0-6.5843 0.59769-9.9668 2.1738-11.545 1.5762-1.5783 4.9535-2.1777 11.531-2.1777z" color="#000000" color-rendering="auto" dominant-baseline="auto" enable-background="new" fill="none" image-rendering="auto" opacity=".4" shape-rendering="auto" solid-color="#000000" stroke="url(#linearGradient3802)" stroke-linecap="round" stroke-linejoin="round" stroke-opacity=".50196" style="font-feature-settings:normal;font-variant-alternates:normal;font-variant-caps:normal;font-variant-ligatures:normal;font-variant-numeric:normal;font-variant-position:normal;isolation:auto;mix-blend-mode:normal;shape-padding:0;text-decoration-color:#000000;text-decoration-line:none;text-decoration-style:solid;text-indent:0;text-orientation:mixed;text-transform:none;white-space:normal"/>
 <path d="m22.382 4h3.2366c6.4123 0 9.6956 0.56194 11.255 2.1045 1.559 1.5426 2.1272 4.2484 2.1272 9.8954 0 5.6471-0.5682 8.3528-2.1272 9.8955-1.559 1.5426-4.8422 2.1046-11.255 2.1046h-3.2366c-6.4123 0-9.6956-0.56194-11.255-2.1046-1.559-1.5426-2.1271-4.2484-2.1271-9.8955 0-5.6471 0.56818-8.3528 2.1271-9.8954 1.559-1.5426 4.8422-2.1045 11.255-2.1045z" color="#000000" color-rendering="auto" dominant-baseline="auto" enable-background="new" fill="url(#linearGradient3558)" image-rendering="auto" shape-rendering="auto" solid-color="#000000" style="font-feature-settings:normal;font-variant-alternates:normal;font-variant-caps:normal;font-variant-ligatures:normal;font-variant-numeric:normal;font-variant-position:normal;isolation:auto;mix-blend-mode:normal;shape-padding:0;text-decoration-color:#000000;text-decoration-line:none;text-decoration-style:solid;text-indent:0;text-orientation:mixed;text-transform:none;white-space:normal"/>
 <path d="m9.0078 16.5c-1e-3 0.17225-8e-3 0.32196-8e-3 0.5 0 5.6471 0.56799 8.3519 2.1269 9.8945 1.5592 1.5426 4.8418 2.1055 11.254 2.1055h3.2363c6.4123 0 9.6969-0.56287 11.256-2.1055 1.559-1.5426 2.127-4.2475 2.127-9.8945 0-0.17804-7e-3 -0.32775-8e-3 -0.5-0.0351 5.2911-0.60932 7.9006-2.1191 9.3945-1.5588 1.5426-4.8433 2.1055-11.256 2.1055h-3.2363c-6.4123 0-9.6949-0.56286-11.254-2.1055-1.5098-1.494-2.084-4.1034-2.1191-9.3945z" color="#000000" color-rendering="auto" dominant-baseline="auto" enable-background="new" fill="#fff" image-rendering="auto" opacity=".2" shape-rendering="auto" solid-color="#000000" style="font-feature-settings:normal;font-variant-alternates:normal;font-variant-caps:normal;font-variant-ligatures:normal;font-variant-numeric:normal;font-variant-position:normal;isolation:auto;mix-blend-mode:normal;shape-padding:0;text-decoration-color:#000000;text-decoration-line:none;text-decoration-style:solid;text-indent:0;text-orientation:mixed;text-transform:none;white-space:normal"/>
 <path transform="translate(-320,-60)" d="m342.38 64h3.2366c6.4123 0 9.6956 0.56194 11.255 2.1045 1.559 1.5426 2.1272 4.2484 2.1272 9.8954 0 5.6471-0.5682 8.3528-2.1272 9.8955-1.559 1.5426-4.8422 2.1046-11.255 2.1046h-3.2366c-6.4123 0-9.6956-0.56194-11.255-2.1046-1.559-1.5426-2.1271-4.2484-2.1271-9.8955 0-5.6471 0.56818-8.3528 2.1271-9.8954 1.559-1.5426 4.8422-2.1045 11.255-2.1045z" clip-path="url(#clipPath3574)" color="#000000" color-rendering="auto" dominant-baseline="auto" enable-background="new" fill="none" image-rendering="auto" opacity=".2" shape-rendering="auto" solid-color="#000000" stroke="#000" stroke-linecap="round" stroke-linejoin="round" stroke-width="2" style="font-feature-settings:normal;font-variant-alternates:normal;font-variant-caps:normal;font-variant-ligatures:normal;font-variant-numeric:normal;font-variant-position:normal;isolation:auto;mix-blend-mode:normal;shape-padding:0;text-decoration-color:#000000;text-decoration-line:none;text-decoration-style:solid;text-indent:0;text-orientation:mixed;text-transform:none;white-space:normal"/>
</svg>
