<svg width="48" height="48" version="1" xmlns="http://www.w3.org/2000/svg" xmlns:xlink="http://www.w3.org/1999/xlink">
 <defs>
  <linearGradient id="linearGradient1686" x1="321" x2="367" y1="92" y2="76" gradientTransform="rotate(90 214 -106)" gradientUnits="userSpaceOnUse">
   <stop stop-color="#4d4d4d" offset="0"/>
   <stop stop-color="#4d4d4d" offset="1"/>
  </linearGradient>
  <linearGradient id="linearGradient1686-0" x1="322" x2="366" y1="84" y2="84" gradientTransform="rotate(90 214 -106)" gradientUnits="userSpaceOnUse">
   <stop stop-color="#fff" offset="0"/>
   <stop stop-color="#fff" stop-opacity=".098039" offset=".125"/>
   <stop stop-color="#fff" stop-opacity=".098039" offset=".925"/>
   <stop stop-color="#fff" stop-opacity=".49804" offset="1"/>
  </linearGradient>
 </defs>
 <path d="m13.658 2c-2.6221 0-4.6868 0.05009-6.3856 0.28674-1.6989 0.23664-3.089 0.6805-4.1074 1.5235-1.0183 0.84301-1.5558 1.9961-1.8383 3.4064-0.28252 1.4103-0.33767 3.1273-0.32482 5.3084v12.475 12.481c-0.0127 2.1777 0.0426 3.8939 0.32482 5.3027 0.28251 1.4103 0.81998 2.5634 1.8383 3.4064 1.0183 0.84301 2.4085 1.2869 4.1074 1.5235 1.6989 0.23665 3.7635 0.28674 6.3856 0.28674h20.686c2.6221 0 4.6857-0.05 6.381-0.28674 1.6953-0.23674 3.0813-0.6821 4.0958-1.5254 1.0146-0.84331 1.5488-1.9956 1.8337-3.4045 0.28483-1.4089 0.34554-3.1225 0.34554-5.3027v-12.481-12.481c0-2.1802-0.0608-3.8937-0.34554-5.3027-0.28482-1.4089-0.81911-2.5612-1.8337-3.4045-1.0146-0.84332-2.4005-1.2887-4.0958-1.5254-1.6953-0.23674-3.7589-0.28674-6.381-0.28674z" color="#000000" color-rendering="auto" dominant-baseline="auto" image-rendering="auto" opacity=".1" shape-rendering="auto" solid-color="#000000" style="font-feature-settings:normal;font-variant-alternates:normal;font-variant-caps:normal;font-variant-ligatures:normal;font-variant-numeric:normal;font-variant-position:normal;isolation:auto;mix-blend-mode:normal;shape-padding:0;text-decoration-color:#000000;text-decoration-line:none;text-decoration-style:solid;text-indent:0;text-orientation:mixed;text-transform:none;white-space:normal"/>
 <path d="m13.335 1.5c-10.011 0-11.887 0.90635-11.834 9.7484v12.752 12.752c-0.0527 8.842 1.8229 9.7484 11.834 9.7484h21.331c10.009 0 11.834-0.90625 11.834-9.7484v-12.752-12.752c0-8.8421-1.8254-9.7484-11.834-9.7484z" color="#000000" fill="url(#linearGradient1686)"/>
 <path d="m10.354 13.911h22.122v17.908h-22.122z" enable-background="new" fill="none" stroke-width="1.0462" style="isolation:isolate"/>
 <path d="m31.004 10.002a1.8488 1.8488 0 0 0-1.5143 0.92296 1.8488 1.8488 0 0 0 0.6764 2.5267 1.8488 1.8488 0 0 0 2.5267-0.6764 1.8488 1.8488 0 0 0-0.6764-2.5267 1.8488 1.8488 0 0 0-1.0124-0.24656zm-11.9 2.8911a1.1667 1.1667 0 0 0-1.1673 1.1673 1.1667 1.1667 0 0 0 1.1673 1.1652 1.1667 1.1667 0 0 0 1.1652-1.1652 1.1667 1.1667 0 0 0-1.1652-1.1673zm2.9369 0.29674a1.0184 1.0184 0 0 0-1.019 1.019 1.0184 1.0184 0 0 0 1.019 1.0168 1.0184 1.0184 0 0 0 1.0168-1.0168 1.0184 1.0184 0 0 0-1.0168-1.019zm-6.3494 0.11782a1.3744 1.3744 0 0 0-1.3746 1.3746 1.3744 1.3744 0 0 0 1.3746 1.3746 1.3744 1.3744 0 0 0 1.3746-1.3746 1.3744 1.3744 0 0 0-1.3746-1.3746zm8.767 0.71349a0.8849 0.8849 0 0 0-0.88587 0.88369 0.8849 0.8849 0 0 0 0.88587 0.88586 0.8849 0.8849 0 0 0 0.88368-0.88586 0.8849 0.8849 0 0 0-0.88368-0.88369zm7.0564 0.96005a1.582 1.582 0 0 0-1.2961 0.78986 1.582 1.582 0 0 0 0.5804 2.1601 1.582 1.582 0 0 0 2.1601-0.57821 1.582 1.582 0 0 0-0.57821-2.1623 1.582 1.582 0 0 0-0.86623-0.20947zm-5.217 0.16583a0.76624 0.76624 0 0 0-0.76804 0.76586 0.76624 0.76624 0 0 0 0.76804 0.76804 0.76624 0.76624 0 0 0 0.76586-0.76804 0.76624 0.76624 0 0 0-0.76586-0.76586zm9.2383 0.40148a1.582 1.582 0 0 0-1.2939 0.78986 1.582 1.582 0 0 0 0.57821 2.1601 1.582 1.582 0 0 0 2.1623-0.57821 1.582 1.582 0 0 0-0.58039-2.1601 1.582 1.582 0 0 0-0.86623-0.21165zm-15.9 0.72658a1.1667 1.1667 0 0 0-1.1652 1.1673 1.1667 1.1667 0 0 0 1.1652 1.1652 1.1667 1.1667 0 0 0 1.1673-1.1652 1.1667 1.1667 0 0 0-1.1673-1.1673zm8.0252 0.20728a0.64759 0.64759 0 0 0-0.64803 0.64804 0.64759 0.64759 0 0 0 0.64803 0.64804 0.64759 0.64759 0 0 0 0.64803-0.64804 0.64759 0.64759 0 0 0-0.64803-0.64804zm-5.0883 0.08946a1.0184 1.0184 0 0 0-1.0168 1.019 1.0184 1.0184 0 0 0 1.0168 1.0168 1.0184 1.0184 0 0 0 1.019-1.0168 1.0184 1.0184 0 0 0-1.019-1.019zm-6.3473 0.11782a1.3744 1.3744 0 0 0-1.3746 1.3746 1.3744 1.3744 0 0 0 1.3746 1.3746 1.3744 1.3744 0 0 0 1.3746-1.3746 1.3744 1.3744 0 0 0-1.3746-1.3746zm8.7648 0.71349a0.8849 0.8849 0 0 0-0.88368 0.88368 0.8849 0.8849 0 0 0 0.88368 0.88587 0.8849 0.8849 0 0 0 0.88587-0.88587 0.8849 0.8849 0 0 0-0.88587-0.88368zm-12.502 0.6524a1.582 1.582 0 0 0-1.5819 1.5819 1.582 1.582 0 0 0 1.5819 1.5819 1.582 1.582 0 0 0 1.5819-1.5819 1.582 1.582 0 0 0-1.5819-1.5819zm14.342 0.47348a0.76624 0.76624 0 0 0-0.76586 0.76586 0.76624 0.76624 0 0 0 0.76586 0.76586 0.76624 0.76624 0 0 0 0.76586-0.76586 0.76624 0.76624 0 0 0-0.76586-0.76586zm4.1871 0.68295a1.3744 1.3744 0 0 0-1.1259 0.68513 1.3744 1.3744 0 0 0 0.50403 1.8786 1.3744 1.3744 0 0 0 1.8765-0.50403 1.3744 1.3744 0 0 0-0.50184-1.8765 1.3744 1.3744 0 0 0-0.75277-0.18328zm4.0213 0.5673a1.3744 1.3744 0 0 0-1.1237 0.68513 1.3744 1.3744 0 0 0 0.50185 1.8786 1.3744 1.3744 0 0 0 1.8786-0.50403 1.3744 1.3744 0 0 0-0.50402-1.8765 1.3744 1.3744 0 0 0-0.75277-0.18328zm-13.881 0.26401a1.1667 1.1667 0 0 0-1.1673 1.1652 1.1667 1.1667 0 0 0 1.1673 1.1673 1.1667 1.1667 0 0 0 1.1673-1.1673 1.1667 1.1667 0 0 0-1.1673-1.1652zm2.9369 0.29456a1.0184 1.0184 0 0 0-1.019 1.019 1.0184 1.0184 0 0 0 1.019 1.019 1.0184 1.0184 0 0 0 1.0168-1.019 1.0184 1.0184 0 0 0-1.0168-1.019zm-6.3494 0.12001a1.3744 1.3744 0 0 0-1.3746 1.3746 1.3744 1.3744 0 0 0 1.3746 1.3746 1.3744 1.3744 0 0 0 1.3746-1.3746 1.3744 1.3744 0 0 0-1.3746-1.3746zm20.491 0.54985a1.3744 1.3744 0 0 0-1.1259 0.68513 1.3744 1.3744 0 0 0 0.50403 1.8786 1.3744 1.3744 0 0 0 1.8765-0.50403 1.3744 1.3744 0 0 0-0.50185-1.8765 1.3744 1.3744 0 0 0-0.75277-0.18328zm-11.724 0.16147a0.8849 0.8849 0 0 0-0.88587 0.88587 0.8849 0.8849 0 0 0 0.88587 0.88368 0.8849 0.8849 0 0 0 0.88369-0.88368 0.8849 0.8849 0 0 0-0.88369-0.88587zm-12.505 0.6524a1.582 1.582 0 0 0-1.5819 1.5819 1.582 1.582 0 0 0 1.5819 1.5819 1.582 1.582 0 0 0 1.5819-1.5819 1.582 1.582 0 0 0-1.5819-1.5819zm15.854 0.86405a1.1667 1.1667 0 0 0-0.95569 0.58258 1.1667 1.1667 0 0 0 0.42766 1.5928 1.1667 1.1667 0 0 0 1.5928-0.42766 1.1667 1.1667 0 0 0-0.42548-1.5928 1.1667 1.1667 0 0 0-0.63931-0.15492zm4.0213 0.5673a1.1667 1.1667 0 0 0-0.9535 0.58258 1.1667 1.1667 0 0 0 0.42547 1.5928 1.1667 1.1667 0 0 0 1.595-0.42766 1.1667 1.1667 0 0 0-0.42766-1.5928 1.1667 1.1667 0 0 0-0.63931-0.15492zm-12.577 0.92514a0.8849 0.8849 0 0 0-0.4233 0.12001 0.8849 0.8849 0 0 0-0.32292 1.2088 0.8849 0.8849 0 0 0 1.2088 0.32293 0.8849 0.8849 0 0 0 0.32293-1.2088 0.8849 0.8849 0 0 0-0.7855-0.44293zm-11.13 0.16365a1.8488 1.8488 0 0 0-1.8481 1.8503 1.8488 1.8488 0 0 0 1.8481 1.8481 1.8488 1.8488 0 0 0 1.8503-1.8481 1.8488 1.8488 0 0 0-1.8503-1.8503zm26.903 0.13964a1.1667 1.1667 0 0 0-0.95569 0.58258 1.1667 1.1667 0 0 0 0.42766 1.5928 1.1667 1.1667 0 0 0 1.5928-0.42766 1.1667 1.1667 0 0 0-0.42548-1.5928 1.1667 1.1667 0 0 0-0.6393-0.15492zm-8.8085 0.82041a1.0184 1.0184 0 0 0-0.8335 0.50839 1.0184 1.0184 0 0 0 0.37311 1.3921 1.0184 1.0184 0 0 0 1.3921-0.37311 1.0184 1.0184 0 0 0-0.37311-1.3921 1.0184 1.0184 0 0 0-0.55858-0.13528zm-9.5111 0.09818a0.76624 0.76624 0 0 0-0.36657 0.10254 0.76624 0.76624 0 0 0-0.27928 1.0473 0.76624 0.76624 0 0 0 1.0473 0.27929 0.76624 0.76624 0 0 0 0.27928-1.0451 0.76624 0.76624 0 0 0-0.68076-0.38402zm13.535 0.4713a1.0184 1.0184 0 0 0-0.8335 0.50621 1.0184 1.0184 0 0 0 0.37093 1.3921 1.0184 1.0184 0 0 0 1.3921-0.37311 1.0184 1.0184 0 0 0-0.37311-1.3899 1.0184 1.0184 0 0 0-0.55639-0.13528zm-15.823 0.01086a0.64759 0.64759 0 0 0-0.30765 0.08728 0.64759 0.64759 0 0 0-0.23783 0.88368 0.64759 0.64759 0 0 0 0.88586 0.23783 0.64759 0.64759 0 0 0 0.23565-0.88586 0.64759 0.64759 0 0 0-0.57603-0.32293zm5.4374 0.60658a1.0184 1.0184 0 0 0-0.48657 0.13528 1.0184 1.0184 0 0 0-0.37311 1.3921 1.0184 1.0184 0 0 0 1.3921 0.37093 1.0184 1.0184 0 0 0 0.37311-1.3899 1.0184 1.0184 0 0 0-0.90551-0.50839zm13.58 0.61094a1.0184 1.0184 0 0 0-0.8335 0.50621 1.0184 1.0184 0 0 0 0.37311 1.3921 1.0184 1.0184 0 0 0 1.3921-0.37311 1.0184 1.0184 0 0 0-0.37311-1.3899 1.0184 1.0184 0 0 0-0.55857-0.13528zm-9.0245 0.08073a0.8849 0.8849 0 0 0-0.72441 0.44293 0.8849 0.8849 0 0 0 0.32511 1.2088 0.8849 0.8849 0 0 0 1.2088-0.32511 0.8849 0.8849 0 0 0-0.32511-1.2088 0.8849 0.8849 0 0 0-0.48439-0.11782zm-7.6608 0.19856a0.8849 0.8849 0 0 0-0.4233 0.11782 0.8849 0.8849 0 0 0-0.32292 1.2088 0.8849 0.8849 0 0 0 1.2088 0.32293 0.8849 0.8849 0 0 0 0.32293-1.2088 0.8849 0.8849 0 0 0-0.7855-0.44075zm-2.7056 0.17456a0.76624 0.76624 0 0 0-0.36439 0.10255 0.76624 0.76624 0 0 0-0.28147 1.0473 0.76624 0.76624 0 0 0 1.0473 0.27929 0.76624 0.76624 0 0 0 0.27929-1.0473 0.76624 0.76624 0 0 0-0.68076-0.38184zm14.39 0.19419a0.8849 0.8849 0 0 0-0.72441 0.44293 0.8849 0.8849 0 0 0 0.32293 1.2088 0.8849 0.8849 0 0 0 1.2088-0.32511 0.8849 0.8849 0 0 0-0.32292-1.2088 0.8849 0.8849 0 0 0-0.48439-0.11782zm-7.244 1.2088a1.1667 1.1667 0 0 0-0.55639 0.1571 1.1667 1.1667 0 0 0-0.42548 1.5928 1.1667 1.1667 0 0 0 1.5928 0.42766 1.1667 1.1667 0 0 0 0.42766-1.595 1.1667 1.1667 0 0 0-1.0386-0.58258zm5.457 0a0.76624 0.76624 0 0 0-0.6284 0.38184 0.76624 0.76624 0 0 0 0.28148 1.0473 0.76624 0.76624 0 0 0 1.0451-0.28147 0.76624 0.76624 0 0 0-0.27929-1.0473 0.76624 0.76624 0 0 0-0.41893-0.10036zm4.9836 0.01964a0.8849 0.8849 0 0 0-0.72659 0.44293 0.8849 0.8849 0 0 0 0.32511 1.2088 0.8849 0.8849 0 0 0 1.2088-0.32511 0.8849 0.8849 0 0 0-0.32511-1.2088 0.8849 0.8849 0 0 0-0.4822-0.11782zm-17.543 0.55638a0.8849 0.8849 0 0 0-0.42112 0.11782 0.8849 0.8849 0 0 0-0.32511 1.2088 0.8849 0.8849 0 0 0 1.2088 0.32293 0.8849 0.8849 0 0 0 0.32511-1.2088 0.8849 0.8849 0 0 0-0.78768-0.44075zm3.262 0.15492a1.0184 1.0184 0 0 0-0.48439 0.13528 1.0184 1.0184 0 0 0-0.37311 1.3921 1.0184 1.0184 0 0 0 1.3921 0.37311 1.0184 1.0184 0 0 0 0.37311-1.3921 1.0184 1.0184 0 0 0-0.90769-0.50839zm12.492 0.49748a0.76624 0.76624 0 0 0-0.62622 0.38184 0.76624 0.76624 0 0 0 0.27929 1.0473 0.76624 0.76624 0 0 0 1.0473-0.28147 0.76624 0.76624 0 0 0-0.27929-1.0473 0.76624 0.76624 0 0 0-0.42111-0.10036zm-1.7303 0.69168a0.64759 0.64759 0 0 0-0.53021 0.32293 0.64759 0.64759 0 0 0 0.23783 0.88368 0.64759 0.64759 0 0 0 0.88587-0.23565 0.64759 0.64759 0 0 0-0.23783-0.88587 0.64759 0.64759 0 0 0-0.35566-0.0851zm-4.6802 0.51494a1.3744 1.3744 0 0 0-0.65458 0.18546 1.3744 1.3744 0 0 0-0.50403 1.8765 1.3744 1.3744 0 0 0 1.8786 0.50403 1.3744 1.3744 0 0 0 0.50184-1.8786 1.3744 1.3744 0 0 0-1.2219-0.68731zm-8.7408 0.44948a1.0184 1.0184 0 0 0-0.48657 0.13528 1.0184 1.0184 0 0 0-0.37311 1.3921 1.0184 1.0184 0 0 0 1.3921 0.37311 1.0184 1.0184 0 0 0 0.37311-1.3921 1.0184 1.0184 0 0 0-0.9055-0.50839zm3.9973 0.31638a1.1667 1.1667 0 0 0-0.5564 0.15492 1.1667 1.1667 0 0 0-0.42547 1.595 1.1667 1.1667 0 0 0 1.5928 0.42548 1.1667 1.1667 0 0 0 0.42766-1.5928 1.1667 1.1667 0 0 0-1.0386-0.58258zm7.9684 1.4772a1.582 1.582 0 0 0-0.75277 0.21165 1.582 1.582 0 0 0-0.58039 2.1623 1.582 1.582 0 0 0 2.1623 0.57821 1.582 1.582 0 0 0 0.57822-2.1601 1.582 1.582 0 0 0-1.4074-0.79204zm-10.63 0.67422a1.1667 1.1667 0 0 0-0.5564 0.1571 1.1667 1.1667 0 0 0-0.42548 1.5928 1.1667 1.1667 0 0 0 1.5928 0.42766 1.1667 1.1667 0 0 0 0.42766-1.5928 1.1667 1.1667 0 0 0-1.0386-0.58476zm4.9028 0.28365a1.3744 1.3744 0 0 0-0.65459 0.18328 1.3744 1.3744 0 0 0-0.50402 1.8765 1.3744 1.3744 0 0 0 1.8786 0.50403 1.3744 1.3744 0 0 0 0.50184-1.8786 1.3744 1.3744 0 0 0-1.2219-0.68513zm10.05 0.7004a1.8488 1.8488 0 0 0-0.87932 0.24874 1.8488 1.8488 0 0 0-0.6764 2.5245 1.8488 1.8488 0 0 0 2.5245 0.6764 1.8488 1.8488 0 0 0 0.67641-2.5245 1.8488 1.8488 0 0 0-1.6452-0.92514zm-12.712 1.4532a1.3744 1.3744 0 0 0-0.65458 0.18328 1.3744 1.3744 0 0 0-0.50402 1.8765 1.3744 1.3744 0 0 0 1.8786 0.50403 1.3744 1.3744 0 0 0 0.50185-1.8786 1.3744 1.3744 0 0 0-1.2219-0.68513zm5.8869 0.08946a1.582 1.582 0 0 0-0.75277 0.21165 1.582 1.582 0 0 0-0.5804 2.1601 1.582 1.582 0 0 0 2.1623 0.58039 1.582 1.582 0 0 0 0.57822-2.1623 1.582 1.582 0 0 0-1.4074-0.78986z" enable-background="new" opacity=".1" stroke-width="0"/>
 <path d="m31.004 9.0021a1.8488 1.8488 0 0 0-1.5143 0.92296 1.8488 1.8488 0 0 0 0.6764 2.5267 1.8488 1.8488 0 0 0 2.5267-0.6764 1.8488 1.8488 0 0 0-0.6764-2.5267 1.8488 1.8488 0 0 0-1.0124-0.24656zm-11.9 2.8911a1.1667 1.1667 0 0 0-1.1673 1.1673 1.1667 1.1667 0 0 0 1.1673 1.1652 1.1667 1.1667 0 0 0 1.1652-1.1652 1.1667 1.1667 0 0 0-1.1652-1.1673zm2.9369 0.29674a1.0184 1.0184 0 0 0-1.019 1.019 1.0184 1.0184 0 0 0 1.019 1.0168 1.0184 1.0184 0 0 0 1.0168-1.0168 1.0184 1.0184 0 0 0-1.0168-1.019zm-6.3494 0.11782a1.3744 1.3744 0 0 0-1.3746 1.3746 1.3744 1.3744 0 0 0 1.3746 1.3746 1.3744 1.3744 0 0 0 1.3746-1.3746 1.3744 1.3744 0 0 0-1.3746-1.3746zm8.767 0.71349a0.8849 0.8849 0 0 0-0.88587 0.88369 0.8849 0.8849 0 0 0 0.88587 0.88586 0.8849 0.8849 0 0 0 0.88368-0.88586 0.8849 0.8849 0 0 0-0.88368-0.88369zm7.0564 0.96005a1.582 1.582 0 0 0-1.2961 0.78986 1.582 1.582 0 0 0 0.5804 2.1601 1.582 1.582 0 0 0 2.1601-0.57821 1.582 1.582 0 0 0-0.57821-2.1623 1.582 1.582 0 0 0-0.86623-0.20947zm-5.217 0.16583a0.76624 0.76624 0 0 0-0.76804 0.76586 0.76624 0.76624 0 0 0 0.76804 0.76804 0.76624 0.76624 0 0 0 0.76586-0.76804 0.76624 0.76624 0 0 0-0.76586-0.76586zm9.2383 0.40148a1.582 1.582 0 0 0-1.2939 0.78986 1.582 1.582 0 0 0 0.57821 2.1601 1.582 1.582 0 0 0 2.1623-0.57821 1.582 1.582 0 0 0-0.58039-2.1601 1.582 1.582 0 0 0-0.86623-0.21165zm-15.9 0.72658a1.1667 1.1667 0 0 0-1.1652 1.1673 1.1667 1.1667 0 0 0 1.1652 1.1652 1.1667 1.1667 0 0 0 1.1673-1.1652 1.1667 1.1667 0 0 0-1.1673-1.1673zm8.0252 0.20728a0.64759 0.64759 0 0 0-0.64803 0.64804 0.64759 0.64759 0 0 0 0.64803 0.64804 0.64759 0.64759 0 0 0 0.64803-0.64804 0.64759 0.64759 0 0 0-0.64803-0.64804zm-5.0883 0.08946a1.0184 1.0184 0 0 0-1.0168 1.019 1.0184 1.0184 0 0 0 1.0168 1.0168 1.0184 1.0184 0 0 0 1.019-1.0168 1.0184 1.0184 0 0 0-1.019-1.019zm-6.3473 0.11782a1.3744 1.3744 0 0 0-1.3746 1.3746 1.3744 1.3744 0 0 0 1.3746 1.3746 1.3744 1.3744 0 0 0 1.3746-1.3746 1.3744 1.3744 0 0 0-1.3746-1.3746zm8.7648 0.71349a0.8849 0.8849 0 0 0-0.88368 0.88368 0.8849 0.8849 0 0 0 0.88368 0.88587 0.8849 0.8849 0 0 0 0.88587-0.88587 0.8849 0.8849 0 0 0-0.88587-0.88368zm-12.502 0.6524a1.582 1.582 0 0 0-1.5819 1.5819 1.582 1.582 0 0 0 1.5819 1.5819 1.582 1.582 0 0 0 1.5819-1.5819 1.582 1.582 0 0 0-1.5819-1.5819zm14.342 0.47348a0.76624 0.76624 0 0 0-0.76586 0.76586 0.76624 0.76624 0 0 0 0.76586 0.76586 0.76624 0.76624 0 0 0 0.76586-0.76586 0.76624 0.76624 0 0 0-0.76586-0.76586zm4.1871 0.68295a1.3744 1.3744 0 0 0-1.1259 0.68513 1.3744 1.3744 0 0 0 0.50403 1.8786 1.3744 1.3744 0 0 0 1.8765-0.50403 1.3744 1.3744 0 0 0-0.50184-1.8765 1.3744 1.3744 0 0 0-0.75277-0.18328zm4.0213 0.5673a1.3744 1.3744 0 0 0-1.1237 0.68513 1.3744 1.3744 0 0 0 0.50185 1.8786 1.3744 1.3744 0 0 0 1.8786-0.50403 1.3744 1.3744 0 0 0-0.50402-1.8765 1.3744 1.3744 0 0 0-0.75277-0.18328zm-13.881 0.26401a1.1667 1.1667 0 0 0-1.1673 1.1652 1.1667 1.1667 0 0 0 1.1673 1.1673 1.1667 1.1667 0 0 0 1.1673-1.1673 1.1667 1.1667 0 0 0-1.1673-1.1652zm2.9369 0.29456a1.0184 1.0184 0 0 0-1.019 1.019 1.0184 1.0184 0 0 0 1.019 1.019 1.0184 1.0184 0 0 0 1.0168-1.019 1.0184 1.0184 0 0 0-1.0168-1.019zm-6.3494 0.12001a1.3744 1.3744 0 0 0-1.3746 1.3746 1.3744 1.3744 0 0 0 1.3746 1.3746 1.3744 1.3744 0 0 0 1.3746-1.3746 1.3744 1.3744 0 0 0-1.3746-1.3746zm20.491 0.54985a1.3744 1.3744 0 0 0-1.1259 0.68513 1.3744 1.3744 0 0 0 0.50403 1.8786 1.3744 1.3744 0 0 0 1.8765-0.50403 1.3744 1.3744 0 0 0-0.50185-1.8765 1.3744 1.3744 0 0 0-0.75277-0.18328zm-11.724 0.16147a0.8849 0.8849 0 0 0-0.88587 0.88587 0.8849 0.8849 0 0 0 0.88587 0.88368 0.8849 0.8849 0 0 0 0.88369-0.88368 0.8849 0.8849 0 0 0-0.88369-0.88587zm-12.505 0.6524a1.582 1.582 0 0 0-1.5819 1.5819 1.582 1.582 0 0 0 1.5819 1.5819 1.582 1.582 0 0 0 1.5819-1.5819 1.582 1.582 0 0 0-1.5819-1.5819zm15.854 0.86405a1.1667 1.1667 0 0 0-0.95569 0.58258 1.1667 1.1667 0 0 0 0.42766 1.5928 1.1667 1.1667 0 0 0 1.5928-0.42766 1.1667 1.1667 0 0 0-0.42548-1.5928 1.1667 1.1667 0 0 0-0.63931-0.15492zm4.0213 0.5673a1.1667 1.1667 0 0 0-0.9535 0.58258 1.1667 1.1667 0 0 0 0.42547 1.5928 1.1667 1.1667 0 0 0 1.595-0.42766 1.1667 1.1667 0 0 0-0.42766-1.5928 1.1667 1.1667 0 0 0-0.63931-0.15492zm-12.577 0.92514a0.8849 0.8849 0 0 0-0.4233 0.12001 0.8849 0.8849 0 0 0-0.32292 1.2088 0.8849 0.8849 0 0 0 1.2088 0.32293 0.8849 0.8849 0 0 0 0.32293-1.2088 0.8849 0.8849 0 0 0-0.7855-0.44293zm-11.13 0.16365a1.8488 1.8488 0 0 0-1.8481 1.8503 1.8488 1.8488 0 0 0 1.8481 1.8481 1.8488 1.8488 0 0 0 1.8503-1.8481 1.8488 1.8488 0 0 0-1.8503-1.8503zm26.903 0.13964a1.1667 1.1667 0 0 0-0.95569 0.58258 1.1667 1.1667 0 0 0 0.42766 1.5928 1.1667 1.1667 0 0 0 1.5928-0.42766 1.1667 1.1667 0 0 0-0.42548-1.5928 1.1667 1.1667 0 0 0-0.6393-0.15492zm-8.8085 0.82041a1.0184 1.0184 0 0 0-0.8335 0.50839 1.0184 1.0184 0 0 0 0.37311 1.3921 1.0184 1.0184 0 0 0 1.3921-0.37311 1.0184 1.0184 0 0 0-0.37311-1.3921 1.0184 1.0184 0 0 0-0.55858-0.13528zm-9.5111 0.09818a0.76624 0.76624 0 0 0-0.36657 0.10254 0.76624 0.76624 0 0 0-0.27928 1.0473 0.76624 0.76624 0 0 0 1.0473 0.27929 0.76624 0.76624 0 0 0 0.27928-1.0451 0.76624 0.76624 0 0 0-0.68076-0.38402zm13.535 0.4713a1.0184 1.0184 0 0 0-0.8335 0.50621 1.0184 1.0184 0 0 0 0.37093 1.3921 1.0184 1.0184 0 0 0 1.3921-0.37311 1.0184 1.0184 0 0 0-0.37311-1.3899 1.0184 1.0184 0 0 0-0.55639-0.13528zm-15.823 0.01086a0.64759 0.64759 0 0 0-0.30765 0.08728 0.64759 0.64759 0 0 0-0.23783 0.88368 0.64759 0.64759 0 0 0 0.88586 0.23783 0.64759 0.64759 0 0 0 0.23565-0.88586 0.64759 0.64759 0 0 0-0.57603-0.32293zm5.4374 0.60658a1.0184 1.0184 0 0 0-0.48657 0.13528 1.0184 1.0184 0 0 0-0.37311 1.3921 1.0184 1.0184 0 0 0 1.3921 0.37093 1.0184 1.0184 0 0 0 0.37311-1.3899 1.0184 1.0184 0 0 0-0.90551-0.50839zm13.58 0.61094a1.0184 1.0184 0 0 0-0.8335 0.50621 1.0184 1.0184 0 0 0 0.37311 1.3921 1.0184 1.0184 0 0 0 1.3921-0.37311 1.0184 1.0184 0 0 0-0.37311-1.3899 1.0184 1.0184 0 0 0-0.55857-0.13528zm-9.0245 0.08073a0.8849 0.8849 0 0 0-0.72441 0.44293 0.8849 0.8849 0 0 0 0.32511 1.2088 0.8849 0.8849 0 0 0 1.2088-0.32511 0.8849 0.8849 0 0 0-0.32511-1.2088 0.8849 0.8849 0 0 0-0.48439-0.11782zm-7.6608 0.19856a0.8849 0.8849 0 0 0-0.4233 0.11782 0.8849 0.8849 0 0 0-0.32292 1.2088 0.8849 0.8849 0 0 0 1.2088 0.32293 0.8849 0.8849 0 0 0 0.32293-1.2088 0.8849 0.8849 0 0 0-0.7855-0.44075zm-2.7056 0.17456a0.76624 0.76624 0 0 0-0.36439 0.10255 0.76624 0.76624 0 0 0-0.28147 1.0473 0.76624 0.76624 0 0 0 1.0473 0.27929 0.76624 0.76624 0 0 0 0.27929-1.0473 0.76624 0.76624 0 0 0-0.68076-0.38184zm14.39 0.19419a0.8849 0.8849 0 0 0-0.72441 0.44293 0.8849 0.8849 0 0 0 0.32293 1.2088 0.8849 0.8849 0 0 0 1.2088-0.32511 0.8849 0.8849 0 0 0-0.32292-1.2088 0.8849 0.8849 0 0 0-0.48439-0.11782zm-7.244 1.2088a1.1667 1.1667 0 0 0-0.55639 0.1571 1.1667 1.1667 0 0 0-0.42548 1.5928 1.1667 1.1667 0 0 0 1.5928 0.42766 1.1667 1.1667 0 0 0 0.42766-1.595 1.1667 1.1667 0 0 0-1.0386-0.58258zm5.457 0a0.76624 0.76624 0 0 0-0.6284 0.38184 0.76624 0.76624 0 0 0 0.28148 1.0473 0.76624 0.76624 0 0 0 1.0451-0.28147 0.76624 0.76624 0 0 0-0.27929-1.0473 0.76624 0.76624 0 0 0-0.41893-0.10036zm4.9836 0.01964a0.8849 0.8849 0 0 0-0.72659 0.44293 0.8849 0.8849 0 0 0 0.32511 1.2088 0.8849 0.8849 0 0 0 1.2088-0.32511 0.8849 0.8849 0 0 0-0.32511-1.2088 0.8849 0.8849 0 0 0-0.4822-0.11782zm-17.543 0.55638a0.8849 0.8849 0 0 0-0.42112 0.11782 0.8849 0.8849 0 0 0-0.32511 1.2088 0.8849 0.8849 0 0 0 1.2088 0.32293 0.8849 0.8849 0 0 0 0.32511-1.2088 0.8849 0.8849 0 0 0-0.78768-0.44075zm3.262 0.15492a1.0184 1.0184 0 0 0-0.48439 0.13528 1.0184 1.0184 0 0 0-0.37311 1.3921 1.0184 1.0184 0 0 0 1.3921 0.37311 1.0184 1.0184 0 0 0 0.37311-1.3921 1.0184 1.0184 0 0 0-0.90769-0.50839zm12.492 0.49748a0.76624 0.76624 0 0 0-0.62622 0.38184 0.76624 0.76624 0 0 0 0.27929 1.0473 0.76624 0.76624 0 0 0 1.0473-0.28147 0.76624 0.76624 0 0 0-0.27929-1.0473 0.76624 0.76624 0 0 0-0.42111-0.10036zm-1.7303 0.69168a0.64759 0.64759 0 0 0-0.53021 0.32293 0.64759 0.64759 0 0 0 0.23783 0.88368 0.64759 0.64759 0 0 0 0.88587-0.23565 0.64759 0.64759 0 0 0-0.23783-0.88587 0.64759 0.64759 0 0 0-0.35566-0.0851zm-4.6802 0.51494a1.3744 1.3744 0 0 0-0.65458 0.18546 1.3744 1.3744 0 0 0-0.50403 1.8765 1.3744 1.3744 0 0 0 1.8786 0.50403 1.3744 1.3744 0 0 0 0.50184-1.8786 1.3744 1.3744 0 0 0-1.2219-0.68731zm-8.7408 0.44948a1.0184 1.0184 0 0 0-0.48657 0.13528 1.0184 1.0184 0 0 0-0.37311 1.3921 1.0184 1.0184 0 0 0 1.3921 0.37311 1.0184 1.0184 0 0 0 0.37311-1.3921 1.0184 1.0184 0 0 0-0.9055-0.50839zm3.9973 0.31638a1.1667 1.1667 0 0 0-0.5564 0.15492 1.1667 1.1667 0 0 0-0.42547 1.595 1.1667 1.1667 0 0 0 1.5928 0.42548 1.1667 1.1667 0 0 0 0.42766-1.5928 1.1667 1.1667 0 0 0-1.0386-0.58258zm7.9684 1.4772a1.582 1.582 0 0 0-0.75277 0.21165 1.582 1.582 0 0 0-0.58039 2.1623 1.582 1.582 0 0 0 2.1623 0.57821 1.582 1.582 0 0 0 0.57822-2.1601 1.582 1.582 0 0 0-1.4074-0.79204zm-10.63 0.67422a1.1667 1.1667 0 0 0-0.5564 0.1571 1.1667 1.1667 0 0 0-0.42548 1.5928 1.1667 1.1667 0 0 0 1.5928 0.42766 1.1667 1.1667 0 0 0 0.42766-1.5928 1.1667 1.1667 0 0 0-1.0386-0.58476zm4.9028 0.28365a1.3744 1.3744 0 0 0-0.65459 0.18328 1.3744 1.3744 0 0 0-0.50402 1.8765 1.3744 1.3744 0 0 0 1.8786 0.50403 1.3744 1.3744 0 0 0 0.50184-1.8786 1.3744 1.3744 0 0 0-1.2219-0.68513zm10.05 0.7004a1.8488 1.8488 0 0 0-0.87932 0.24874 1.8488 1.8488 0 0 0-0.6764 2.5245 1.8488 1.8488 0 0 0 2.5245 0.6764 1.8488 1.8488 0 0 0 0.67641-2.5245 1.8488 1.8488 0 0 0-1.6452-0.92514zm-12.712 1.4532a1.3744 1.3744 0 0 0-0.65458 0.18328 1.3744 1.3744 0 0 0-0.50402 1.8765 1.3744 1.3744 0 0 0 1.8786 0.50403 1.3744 1.3744 0 0 0 0.50185-1.8786 1.3744 1.3744 0 0 0-1.2219-0.68513zm5.8869 0.08946a1.582 1.582 0 0 0-0.75277 0.21165 1.582 1.582 0 0 0-0.5804 2.1601 1.582 1.582 0 0 0 2.1623 0.58039 1.582 1.582 0 0 0 0.57822-2.1623 1.582 1.582 0 0 0-1.4074-0.78986z" enable-background="new" fill="#e8e8e8" stroke-width="0"/>
 <path d="m13.335 1.5c-10.011 0-11.887 0.90635-11.834 9.7484v12.752 12.752c-0.0527 8.842 1.8229 9.7484 11.834 9.7484h21.331c10.009 0 11.834-0.90625 11.834-9.7484v-12.752-12.752c0-8.8421-1.8254-9.7484-11.834-9.7484z" color="#000000" fill="none" opacity=".4" stroke="#000"/>
 <path d="m13.336 2c-4.9905 0-7.8705 0.27628-9.3848 1.4531-0.75713 0.58842-1.2376 1.4035-1.5449 2.6602-0.3073 1.2566-0.4173 2.94-0.4043 5.1328v12.754 12.754c-0.0131 2.1928 0.097 3.8762 0.4043 5.1328 0.30731 1.2566 0.78779 2.0717 1.5449 2.6602 1.5143 1.1768 4.3943 1.4531 9.3848 1.4531h21.33c4.9892 0 7.855-0.27668 9.3633-1.4531 0.75412-0.58824 1.2329-1.4046 1.543-2.6621 0.31003-1.2575 0.42773-2.9395 0.42773-5.1328v-12.752-12.752c0-2.1933-0.1177-3.8753-0.42773-5.1328-0.31004-1.2575-0.78884-2.0739-1.543-2.6621-1.5083-1.1765-4.374-1.4531-9.3633-1.4531zm2.4023 1.0977c6.9474 8.3e-4 13.911 0.0034 20.85 0.05469 2.143 0.08293 4.4643-0.1477 6.4238 0.93164 1.2961 0.69523 1.5486 2.2503 1.7695 3.5645 0.17551 2.2029 0.0915 4.4422 0.13867 6.6699 0.0227 8.4795 0.077 16.969-0.0801 25.447-0.16151 1.4832-0.38135 3.3058-1.7988 4.1426-1.6055 0.82871-3.4755 0.90643-5.248 0.95313-9.4997 0.0678-19.024 0.0843-28.523-0.0176-1.5782-0.11413-3.2705-0.24014-4.6328-1.1211-1.2295-0.99538-1.3608-2.7274-1.5039-4.1934-0.1272-8.9986-0.0836-18.004-0.0527-27.008 0.0997-2.3813-0.24538-4.9 0.70508-7.1602 0.67165-1.5097 2.4657-1.86 3.9394-2.0566 2.6617-0.31658 5.3418-0.14702 8.0137-0.20703z" color="#000000" fill="url(#linearGradient1686-0)"/>
</svg>
