<svg width="48" height="48" version="1" xmlns="http://www.w3.org/2000/svg" xmlns:xlink="http://www.w3.org/1999/xlink">
 <defs>
  <linearGradient id="linearGradient8588" x1="13.735" x2="38.1" y1="249.69" y2="292.77" gradientTransform="matrix(.94488 0 0 .94488 .50001 -233.13)" gradientUnits="userSpaceOnUse">
   <stop stop-color="#28851e" offset="0"/>
   <stop stop-color="#46a926" offset="1"/>
  </linearGradient>
  <linearGradient id="linearGradient8590" x1="96" x2="96" y1="4" y2="188" gradientTransform="matrix(.23913 0 0 .23913 1.0435 1.0435)" gradientUnits="userSpaceOnUse">
   <stop stop-color="#fff" offset="0"/>
   <stop stop-color="#fff" stop-opacity=".098039" offset=".125"/>
   <stop stop-color="#fff" stop-opacity=".098039" offset=".925"/>
   <stop stop-color="#fff" stop-opacity=".49804" offset="1"/>
  </linearGradient>
 </defs>
 <circle transform="scale(-1)" cx="-24" cy="-25" r="23" enable-background="new" opacity=".1"/>
 <circle cx="24" cy="24" r="22.5" enable-background="new" fill="url(#linearGradient8588)"/>
 <path d="m10.58 25.292c1.2226-0.5841 2.4584-1.2106 3.7044-1.8851 1.2516-0.68559 2.4423-1.3835 3.5724-2.0946 0 0-0.81866-0.5299-6.6872-4.286-0.18772 1.3151-0.33297 2.6851-0.43444 4.1077-0.0938 1.4138-0.14607 2.7994-0.15492 4.1621z" enable-background="new" opacity=".1"/>
 <path d="m34.911 27.877a11.249 11.249 0 0 1-10.314 8.3242 11.249 11.249 0 0 1-11.08-7.2732" enable-background="new" fill="none" opacity=".1" stroke="#000" stroke-width="2"/>
 <path transform="scale(-1)" d="m-13.089-22.122a11.249 11.249 0 0 1-10.314 8.3242 11.249 11.249 0 0 1-11.08-7.2732" enable-background="new" fill="none" opacity=".1" stroke="#000" stroke-width="2"/>
 <path d="m37.42 24.708c-1.2226 0.5841-2.4584 1.2106-3.7044 1.8851-1.2516 0.68559-2.4423 1.3835-3.5724 2.0946 0 0 0.81866 0.5299 6.6872 4.286 0.18772-1.3151 0.33297-2.6851 0.43444-4.1077 0.0938-1.4138 0.14607-2.7994 0.15492-4.1621z" enable-background="new" opacity=".1"/>
 <g transform="translate(-319.83 -60)" enable-background="new">
  <path d="m330.41 84.292c1.2226-0.5841 2.4584-1.2106 3.7044-1.8851 1.2516-0.68559 2.4423-1.3835 3.5724-2.0946 0 0-0.81866-0.5299-6.6872-4.286-0.18772 1.3151-0.33297 2.6851-0.43444 4.1077-0.0938 1.4138-0.14607 2.7994-0.15492 4.1621z" enable-background="new" fill="#fff"/>
  <path d="m354.74 86.877a11.249 11.249 0 0 1-10.314 8.3242 11.249 11.249 0 0 1-11.08-7.2732" enable-background="new" fill="none" stroke="#fff" stroke-width="2"/>
  <path transform="scale(-1)" d="m-332.92-81.123a11.249 11.249 0 0 1-10.314 8.3242 11.249 11.249 0 0 1-11.08-7.2732" enable-background="new" fill="none" stroke="#fff" stroke-width="2"/>
  <path d="m357.25 83.708c-1.2226 0.5841-2.4584 1.2106-3.7044 1.8851-1.2516 0.68559-2.4423 1.3835-3.5724 2.0946 0 0 0.81866 0.5299 6.6872 4.286 0.18772-1.3151 0.33297-2.6851 0.43444-4.1077 0.0938-1.4138 0.14607-2.7994 0.15492-4.1621z" enable-background="new" fill="#fff"/>
 </g>
 <path d="m4.6348 12.594a22.5 22.5 0 0 0-3.1348 11.406 22.5 22.5 0 0 0 15.875 21.5h13.186a22.5 22.5 0 0 0 12.904-10.256z" enable-background="new" fill="#fff" opacity=".05"/>
 <circle cx="24" cy="24" r="22.5" enable-background="new" fill="none" opacity=".4" stroke="#000" stroke-dashoffset="6.6" stroke-linejoin="round"/>
 <path d="m24 2a22 22 0 0 0-22 22 22 22 0 0 0 22 22 22 22 0 0 0 22-22 22 22 0 0 0-22-22zm0 0.95653a21.043 21.043 0 0 1 21.043 21.043 21.043 21.043 0 0 1-21.043 21.043 21.043 21.043 0 0 1-21.043-21.043 21.043 21.043 0 0 1 21.043-21.043z" enable-background="new" fill="url(#linearGradient8590)"/>
</svg>
