<svg width="48" height="48" version="1" xmlns="http://www.w3.org/2000/svg" xmlns:xlink="http://www.w3.org/1999/xlink">
 <defs>
  <linearGradient id="linearGradient1686" x1="321" x2="367" y1="92" y2="76" gradientTransform="rotate(90 214 -106)" gradientUnits="userSpaceOnUse">
   <stop stop-color="#e6e6e6" offset="0"/>
   <stop stop-color="#f7f7f7" offset="1"/>
  </linearGradient>
  <linearGradient id="linearGradient942" x1="359" x2="359" y1="85" y2="107" gradientTransform="translate(-320 -60)" gradientUnits="userSpaceOnUse">
   <stop stop-color="#7b0619" offset="0"/>
   <stop stop-color="#bb0212" offset="1"/>
  </linearGradient>
  <linearGradient id="linearGradient1686-0" x1="322" x2="366" y1="84" y2="84" gradientTransform="rotate(90 214 -106)" gradientUnits="userSpaceOnUse">
   <stop stop-color="#fff" offset="0"/>
   <stop stop-color="#fff" stop-opacity=".098039" offset=".125"/>
   <stop stop-color="#fff" stop-opacity=".098039" offset=".925"/>
   <stop stop-color="#fff" stop-opacity=".49804" offset="1"/>
  </linearGradient>
  <linearGradient id="linearGradient4505" x1="25.765" x2="3" y1="41.882" y2="34" gradientTransform="translate(320,59)" gradientUnits="userSpaceOnUse">
   <stop stop-color="#a40000" offset="0"/>
   <stop stop-color="#f57900" offset=".15979"/>
   <stop stop-color="#edd400" offset=".34339"/>
   <stop stop-color="#73d216" offset=".5544"/>
   <stop stop-color="#3465a4" offset="1"/>
   <stop stop-color="#5c3566" offset="1"/>
  </linearGradient>
  <filter id="filter1061" x="-.087641" y="-.14394" width="1.1753" height="1.2879" color-interpolation-filters="sRGB">
   <feGaussianBlur stdDeviation="1.4101066"/>
  </filter>
  <linearGradient id="linearGradient5044" x1="9.6968" x2="33.232" y1="24.661" y2="24.661" gradientTransform="matrix(.75237 .43551 -.43438 .75433 22.987 -2.4861)" gradientUnits="userSpaceOnUse" xlink:href="#linearGradient4387"/>
  <linearGradient id="linearGradient4387">
   <stop stop-color="#2e3436" offset="0"/>
   <stop offset="1"/>
  </linearGradient>
  <linearGradient id="linearGradient5046" x1="19.5" x2="23.5" y1="28.5" y2="28.5" gradientTransform="matrix(.75237 .43551 -.43438 .75433 22.987 -2.4861)" gradientUnits="userSpaceOnUse" xlink:href="#linearGradient4387"/>
 </defs>
 <path d="m13.658 2c-2.6221 0-4.6868 0.05009-6.3856 0.28674-1.6989 0.23664-3.089 0.6805-4.1074 1.5235-1.0183 0.84301-1.5558 1.9961-1.8383 3.4064-0.28252 1.4103-0.33767 3.1273-0.32482 5.3084v12.475 12.481c-0.0127 2.1777 0.0426 3.8939 0.32482 5.3027 0.28251 1.4103 0.81998 2.5634 1.8383 3.4064 1.0183 0.84301 2.4085 1.2869 4.1074 1.5235 1.6989 0.23665 3.7635 0.28674 6.3856 0.28674h20.686c2.6221 0 4.6857-0.05 6.381-0.28674 1.6953-0.23674 3.0813-0.6821 4.0958-1.5254 1.0146-0.84331 1.5488-1.9956 1.8337-3.4045 0.28483-1.4089 0.34554-3.1225 0.34554-5.3027v-12.481-12.481c0-2.1802-0.0608-3.8937-0.34554-5.3027-0.28482-1.4089-0.81911-2.5612-1.8337-3.4045-1.0146-0.84332-2.4005-1.2887-4.0958-1.5254-1.6953-0.23674-3.7589-0.28674-6.381-0.28674z" color="#000000" color-rendering="auto" dominant-baseline="auto" image-rendering="auto" opacity=".1" shape-rendering="auto" solid-color="#000000" style="font-feature-settings:normal;font-variant-alternates:normal;font-variant-caps:normal;font-variant-ligatures:normal;font-variant-numeric:normal;font-variant-position:normal;isolation:auto;mix-blend-mode:normal;shape-padding:0;text-decoration-color:#000000;text-decoration-line:none;text-decoration-style:solid;text-indent:0;text-orientation:mixed;text-transform:none;white-space:normal"/>
 <path d="m13.335 1.5c-10.011 0-11.887 0.90635-11.834 9.7484v12.752 12.752c-0.0527 8.842 1.8229 9.7484 11.834 9.7484h21.331c10.009 0 11.834-0.90625 11.834-9.7484v-12.752-12.752c0-8.8421-1.8254-9.7484-11.834-9.7484z" color="#000000" fill="url(#linearGradient1686)"/>
 <path d="m17.572 34.643c-11.25 0-16.07-5.625-16.07-5.625l-2e-3 2.4824h2e-3v5.252c-0.0527 8.842 1.8228 9.748 11.834 9.748h21.33c10.009 0 11.834-0.90592 11.834-9.748v0.74805h-2e-3v-8.4824s4e-3 -4.0176-5.621-4.0176-12.055 9.6426-23.305 9.6426z" color="#000000" fill="url(#linearGradient942)"/>
 <path d="m13.335 1.5c-10.011 0-11.887 0.90635-11.834 9.7484v12.752 12.752c-0.0527 8.842 1.8229 9.7484 11.834 9.7484h21.331c10.009 0 11.834-0.90625 11.834-9.7484v-12.752-12.752c0-8.8421-1.8254-9.7484-11.834-9.7484z" color="#000000" fill="none" opacity=".4" stroke="#000"/>
 <path d="m13.336 2c-4.9905 0-7.8705 0.27628-9.3848 1.4531-0.75713 0.58842-1.2376 1.4035-1.5449 2.6602-0.3073 1.2566-0.4173 2.94-0.4043 5.1328v12.754 12.754c-0.0131 2.1928 0.097 3.8762 0.4043 5.1328 0.30731 1.2566 0.78779 2.0717 1.5449 2.6602 1.5143 1.1768 4.3943 1.4531 9.3848 1.4531h21.33c4.9892 0 7.855-0.27668 9.3633-1.4531 0.75412-0.58824 1.2329-1.4046 1.543-2.6621 0.31003-1.2575 0.42773-2.9395 0.42773-5.1328v-12.752-12.752c0-2.1933-0.1177-3.8753-0.42773-5.1328-0.31004-1.2575-0.78884-2.0739-1.543-2.6621-1.5083-1.1765-4.374-1.4531-9.3633-1.4531zm2.4023 1.0977c6.9474 8.3e-4 13.911 0.0034 20.85 0.05469 2.143 0.08293 4.4643-0.1477 6.4238 0.93164 1.2961 0.69523 1.5486 2.2503 1.7695 3.5645 0.17551 2.2029 0.0915 4.4422 0.13867 6.6699 0.0227 8.4795 0.077 16.969-0.0801 25.447-0.16151 1.4832-0.38135 3.3058-1.7988 4.1426-1.6055 0.82871-3.4755 0.90643-5.248 0.95313-9.4997 0.0678-19.024 0.0843-28.523-0.0176-1.5782-0.11413-3.2705-0.24014-4.6328-1.1211-1.2295-0.99538-1.3608-2.7274-1.5039-4.1934-0.1272-8.9986-0.0836-18.004-0.0527-27.008 0.0997-2.3813-0.24538-4.9 0.70508-7.1602 0.67165-1.5097 2.4657-1.86 3.9394-2.0566 2.6617-0.31658 5.3418-0.14702 8.0137-0.20703z" color="#000000" fill="url(#linearGradient1686-0)"/>
 <path d="m36.268 11.155-16.506 28.665c-0.23991 0.4166 0.23931 1.1443 1.0704 1.6254 0.83103 0.48106 1.6992 0.5333 1.9391 0.1167l16.506-28.665z" enable-background="new" opacity=".1" stroke="#000" stroke-linejoin="round"/>
 <path transform="matrix(.66841 0 0 .63089 -205.73 -31.276)" d="m357.63 78.463 5.3713-9.4632s-11.432-5.9128-16.485-2.6545c-11.324 7.3012-9.3238-0.69884-19.324-0.69884-4.1356 0-3.3251 19.562 0 22 4.5916 3.3665 8.8466-0.49665 16.809-7.6467 7.9093-7.1023 13.629-1.5368 13.629-1.5368z" enable-background="new" fill="url(#linearGradient4505)" filter="url(#filter1061)"/>
 <path d="m35.269 10.155-16.506 28.665c-0.23991 0.4166 0.23931 1.1443 1.0704 1.6254 0.83103 0.48106 1.6992 0.5333 1.9391 0.1167l16.506-28.665z" enable-background="new" fill="url(#linearGradient5044)" stroke="url(#linearGradient5046)" stroke-linejoin="round"/>
 <path d="m35.269 10.155-4.3438 7.5433c-0.23991 0.41661 0.23931 1.1443 1.0704 1.6254 0.83104 0.48105 1.6992 0.5333 1.9391 0.1167l4.3438-7.5433z" enable-background="new" fill="#eeeeec" stroke="#eeeeec" stroke-linejoin="round"/>
 <ellipse transform="matrix(.86546 .50098 -.49902 .86659 0 0)" cx="37.37" cy="-8.8799" rx="1.7387" ry=".87046" enable-background="new" fill="#d3d7cf" stroke="#d3d7cf"/>
</svg>
