<svg width="48" height="48" version="1" xmlns="http://www.w3.org/2000/svg" xmlns:xlink="http://www.w3.org/1999/xlink">
 <defs>
  <linearGradient id="linearGradient1686" x1="321" x2="367" y1="92" y2="76" gradientTransform="rotate(-90 154 214)" gradientUnits="userSpaceOnUse">
   <stop stop-color="#f7f7f7" offset="0"/>
   <stop stop-color="#e6e6e6" offset="1"/>
  </linearGradient>
  <linearGradient id="linearGradient224" x1="10.973" x2="36.937" y1="24" y2="24" gradientTransform="matrix(6.5945 0 0 6.6021 -407.3 154.05)" gradientUnits="userSpaceOnUse">
   <stop stop-color="#2a2c2f" offset="0"/>
   <stop stop-color="#424649" offset="1"/>
  </linearGradient>
  <linearGradient id="linearGradient226" x1="319.21" x2="657.65" y1="235.15" y2="269.49" gradientTransform="matrix(.58106 0 0 .57405 -531.98 173.49)" gradientUnits="userSpaceOnUse">
   <stop stop-color="#e54c18" offset="0"/>
   <stop stop-color="#fec350" offset="1"/>
  </linearGradient>
  <linearGradient id="linearGradient1686-0" x1="322" x2="366" y1="84" y2="84" gradientTransform="rotate(90 214 -106)" gradientUnits="userSpaceOnUse">
   <stop stop-color="#fff" offset="0"/>
   <stop stop-color="#fff" stop-opacity=".098039" offset=".125"/>
   <stop stop-color="#fff" stop-opacity=".098039" offset=".925"/>
   <stop stop-color="#fff" stop-opacity=".49804" offset="1"/>
  </linearGradient>
 </defs>
 <path d="m13.658 2c-2.6221 0-4.6868 0.05009-6.3856 0.28674-1.6989 0.23664-3.089 0.6805-4.1074 1.5235-1.0183 0.84301-1.5558 1.9961-1.8383 3.4064-0.28252 1.4103-0.33767 3.1273-0.32482 5.3084v12.475 12.481c-0.0127 2.1777 0.0426 3.8939 0.32482 5.3027 0.28251 1.4103 0.81998 2.5634 1.8383 3.4064 1.0183 0.84301 2.4085 1.2869 4.1074 1.5235 1.6989 0.23665 3.7635 0.28674 6.3856 0.28674h20.686c2.6221 0 4.6857-0.05 6.381-0.28674 1.6953-0.23674 3.0813-0.6821 4.0958-1.5254 1.0146-0.84331 1.5488-1.9956 1.8337-3.4045 0.28483-1.4089 0.34554-3.1225 0.34554-5.3027v-12.481-12.481c0-2.1802-0.0608-3.8937-0.34554-5.3027-0.28482-1.4089-0.81911-2.5612-1.8337-3.4045-1.0146-0.84332-2.4005-1.2887-4.0958-1.5254-1.6953-0.23674-3.7589-0.28674-6.381-0.28674z" color="#000000" color-rendering="auto" dominant-baseline="auto" image-rendering="auto" opacity=".1" shape-rendering="auto" solid-color="#000000" style="font-feature-settings:normal;font-variant-alternates:normal;font-variant-caps:normal;font-variant-ligatures:normal;font-variant-numeric:normal;font-variant-position:normal;isolation:auto;mix-blend-mode:normal;shape-padding:0;text-decoration-color:#000000;text-decoration-line:none;text-decoration-style:solid;text-indent:0;text-orientation:mixed;text-transform:none;white-space:normal"/>
 <path d="m34.665 46.5c10.011 0 11.887-0.90635 11.834-9.7484v-12.752-12.752c0.0527-8.842-1.8229-9.7484-11.834-9.7484h-21.331c-10.009 0-11.834 0.90625-11.834 9.7484v12.752 12.752c0 8.8421 1.8254 9.7484 11.834 9.7484z" color="#000000" fill="url(#linearGradient1686)"/>
 <path d="m11.232 38.99 9.8611-12.908-10.152-14.193 6.5252 0.0046 8.0895 11.16-12.096 15.935h-2.2282zm19.301 0.0096-8.0337-11.179 12.196-15.943h2.173l-9.9014 12.969 10.091 14.153z" enable-background="new" opacity=".1" stroke-width="3.7797"/>
 <path d="m23.999 16.829c-0.78452 0-1.6227 0.06006-2.3772 0.1315 1.3442 1.7321 2.4597 3.1987 3.7434 4.8645-0.7205-1.5318-2.2013-3.0007-1.6894-3.7561 0.50675-0.7478 1.4404-0.62193 1.5116-0.62193 1.4969 0 2.9379 0.16702 4.285 0.47614l0.31576-0.42962c-1.7967-0.45694-3.7483-0.6645-5.789-0.6645zm8.1074 1.3979-0.29083 0.41046c4.1504 1.6057 6.9579 4.6726 6.9579 8.1874 0 5.1757-6.0862 9.3751-13.586 9.3751s-13.589-4.1994-13.589-9.3751c0-2.8186 1.8057-5.3485 4.6617-7.0682l-0.87805-1.3217c-4.4802 1.8767-7.4537 5.1708-7.4537 8.9208 0 5.8349 7.1992 10.568 16.071 10.568 8.8716 0 16.074-4.7333 16.074-10.568 0-3.8908-3.2018-7.2936-7.9662-9.1288z" enable-background="new" opacity=".1" stroke-width="3.7797"/>
 <g transform="matrix(.75932 0 0 .75932 -2.6702 -173.52)" enable-background="new" stroke-width="4.9778">
  <path d="m18.309 278.56 12.987-16.999-13.37-18.691 8.5935 6e-3 10.654 14.697-15.929 20.987h-2.9344zm25.419 0.0127-10.58-14.722 16.062-20.996h2.8618l-13.04 17.08 13.29 18.639z" fill="url(#linearGradient224)"/>
  <path d="m35.122 249.37c-1.0332 0-2.137 0.0791-3.1307 0.17318 1.7703 2.2811 3.2393 4.2126 4.9299 6.4064-0.94888-2.0173-2.8991-3.9518-2.2249-4.9467 0.66738-0.98483 1.897-0.81907 1.9907-0.81907 1.9714 0 3.8691 0.21996 5.6432 0.62707l0.41585-0.5658c-2.3662-0.60178-4.9364-0.87513-7.624-0.87513zm10.677 1.841-0.38302 0.54057c5.466 2.1146 9.1634 6.1536 9.1634 10.783 0 6.8162-8.0153 12.347-17.893 12.347-9.8774 0-17.896-5.5305-17.896-12.347 2e-6 -3.712 2.378-7.0439 6.1393-9.3086l-1.1564-1.7407c-5.9003 2.4716-9.8164 6.8097-9.8164 11.748 0 7.6843 9.4812 13.918 21.165 13.918 11.684 0 21.168-6.2336 21.168-13.918 0-5.1241-4.2166-9.6055-10.491-12.022z" fill="url(#linearGradient226)"/>
 </g>
 <path d="m13.335 1.5c-10.011 0-11.887 0.90635-11.834 9.7484v12.752 12.752c-0.0527 8.842 1.8229 9.7484 11.834 9.7484h21.331c10.009 0 11.834-0.90625 11.834-9.7484v-12.752-12.752c0-8.8421-1.8254-9.7484-11.834-9.7484z" color="#000000" fill="none" opacity=".4" stroke="#000"/>
 <path d="m13.336 2c-4.9905 0-7.8705 0.27628-9.3848 1.4531-0.75713 0.58842-1.2376 1.4035-1.5449 2.6602-0.3073 1.2566-0.4173 2.94-0.4043 5.1328v12.754 12.754c-0.0131 2.1928 0.097 3.8762 0.4043 5.1328 0.30731 1.2566 0.78779 2.0717 1.5449 2.6602 1.5143 1.1768 4.3943 1.4531 9.3848 1.4531h21.33c4.9892 0 7.855-0.27668 9.3633-1.4531 0.75412-0.58824 1.2329-1.4046 1.543-2.6621 0.31003-1.2575 0.42773-2.9395 0.42773-5.1328v-12.752-12.752c0-2.1933-0.1177-3.8753-0.42773-5.1328-0.31004-1.2575-0.78884-2.0739-1.543-2.6621-1.5083-1.1765-4.374-1.4531-9.3633-1.4531zm2.4023 1.0977c6.9474 8.3e-4 13.911 0.0034 20.85 0.05469 2.143 0.08293 4.4643-0.1477 6.4238 0.93164 1.2961 0.69523 1.5486 2.2503 1.7695 3.5645 0.17551 2.2029 0.0915 4.4422 0.13867 6.6699 0.0227 8.4795 0.077 16.969-0.0801 25.447-0.16151 1.4832-0.38135 3.3058-1.7988 4.1426-1.6055 0.82871-3.4755 0.90643-5.248 0.95313-9.4997 0.0678-19.024 0.0843-28.523-0.0176-1.5782-0.11413-3.2705-0.24014-4.6328-1.1211-1.2295-0.99538-1.3608-2.7274-1.5039-4.1934-0.1272-8.9986-0.0836-18.004-0.0527-27.008 0.0997-2.3813-0.24538-4.9 0.70508-7.1602 0.67165-1.5097 2.4657-1.86 3.9394-2.0566 2.6617-0.31658 5.3418-0.14702 8.0137-0.20703z" color="#000000" fill="url(#linearGradient1686-0)"/>
</svg>
