<svg width="32" height="32" version="1" xmlns="http://www.w3.org/2000/svg" xmlns:xlink="http://www.w3.org/1999/xlink">
 <defs>
  <linearGradient id="linearGradient1228" x1="336" x2="336" y1="134" y2="162" gradientUnits="userSpaceOnUse">
   <stop stop-color="#fff" offset="0"/>
   <stop stop-color="#fff" stop-opacity=".098039" offset=".125"/>
   <stop stop-color="#fff" stop-opacity=".098039" offset=".925"/>
   <stop stop-color="#fff" stop-opacity=".49804" offset="1"/>
  </linearGradient>
  <clipPath id="clipPath959">
   <path d="m330.19 134c-5.6154 0-6.2196 0.57678-6.1921 6.2035v15.593c-0.0276 5.6267 0.57668 6.2035 6.1921 6.2035h11.615c5.6154 0 6.1921-0.5767 6.1921-6.2035v-15.593c0-5.6268-0.5767-6.2035-6.1921-6.2035z" color="#000000" fill="#46a926"/>
  </clipPath>
  <linearGradient id="linearGradient907" x1="524.61" x2="-30.266" y1="320.85" y2="320.85" gradientTransform="matrix(0 -.072088 -.072086 0 39.128 33.818)" gradientUnits="userSpaceOnUse">
   <stop stop-color="#b3b3b3" offset="0"/>
   <stop stop-color="#d9d9d9" offset="1"/>
  </linearGradient>
 </defs>
 <path d="m10.193 2c-1.421 0-2.5488 0.0308-3.5059 0.19141-0.95703 0.16064-1.7915 0.4726-2.4121 1.0918s-0.93647 1.4561-1.0957 2.4141c-0.15924 0.95795-0.18666 2.087-0.17969 3.5117v15.588c-7e-3 1.4213 0.0207 2.5495 0.17969 3.5058 0.15923 0.95796 0.47505 1.7949 1.0957 2.4141s1.4551 0.93115 2.4121 1.0918c0.95703 0.16065 2.0849 0.19141 3.5059 0.19141h11.615c1.421 0 2.5467-0.0307 3.502-0.19141 0.95527-0.16075 1.7878-0.47425 2.4062-1.0938 0.61845-0.6195 0.93134-1.4536 1.0918-2.4102 0.16046-0.95653 0.19141-2.084 0.19141-3.5078v-15.594c0-1.4238-0.031-2.5513-0.19141-3.5078-0.16045-0.95653-0.47334-1.7906-1.0918-2.4102-0.61846-0.61951-1.451-0.933-2.4062-1.0938-0.95527-0.16076-2.081-0.19141-3.502-0.19141z" color="#000000" color-rendering="auto" dominant-baseline="auto" image-rendering="auto" opacity=".1" shape-rendering="auto" solid-color="#000000" style="font-feature-settings:normal;font-variant-alternates:normal;font-variant-caps:normal;font-variant-ligatures:normal;font-variant-numeric:normal;font-variant-position:normal;isolation:auto;mix-blend-mode:normal;shape-padding:0;text-decoration-color:#000000;text-decoration-line:none;text-decoration-style:solid;text-indent:0;text-orientation:mixed;text-transform:none;white-space:normal"/>
 <path d="m10.189 1.5c-1.4124 0-2.5185 0.034177-3.418 0.18555-0.8995 0.15137-1.616 0.4315-2.1367 0.95312-0.52075 0.5217-0.80004 1.2377-0.95117 2.1387-0.15115 0.901-0.18555 2.0106-0.18555 3.4258v15.594c0 1.4152 0.03442 2.5248 0.18555 3.4258s0.43047 1.617 0.95117 2.1387 1.2372 0.80176 2.1367 0.95312c0.8995 0.15135 2.0056 0.18555 3.418 0.18555h11.615c1.4124 0 2.5223-0.03423 3.4238-0.18555s1.6199-0.43164 2.1426-0.95312c0.52271-0.5214 0.80326-1.239 0.95312-2.1406 0.14983-0.9011 0.18083-2.0093 0.17383-3.4238v-15.592c0.0069-1.4157-0.02395-2.5241-0.17383-3.4258-0.14987-0.9016-0.43042-1.6191-0.95312-2.1406s-1.2411-0.8018-2.1426-0.95312c-0.9014-0.15135-2.0114-0.18555-3.4238-0.18555zm-0.99219 2.5h13.606c1.3433 0.0156 2.2253 0.063597 2.6152 0.2793 0.19508 0.10794 0.30771 0.22659 0.41211 0.50391 0.10337 0.27726 0.16988 0.71824 0.16988 1.2168 0 0.18025-0.017333 0.33982-0.033203 0.5 0.015987 0.16018 0.033203 0.31975 0.033203 0.5 0 0.49856-0.06546 0.93952-0.16992 1.2168-0.10386 0.27728-0.21691 0.39591-0.41211 0.50391-0.3897 0.2156-1.2705 0.2633-2.6113 0.2793h-13.613c-1.3407-0.016-2.2216-0.063737-2.6113-0.2793-0.1952-0.108-0.30825-0.22663-0.41211-0.50391-0.10442-0.27728-0.16992-0.71824-0.16992-1.2168 0-0.18029 0.017211-0.33979 0.033203-0.5-0.01587-0.16021-0.033203-0.31971-0.033203-0.5 0-0.49856 0.06652-0.93954 0.16992-1.2168 0.1044-0.27732 0.21703-0.39597 0.41211-0.50391 0.3899-0.2157 1.2719-0.2637 2.6152-0.2793z" fill="url(#linearGradient907)"/>
 <path d="m9.1967 4c-1.3433 0.0156-2.2253 0.0636-2.6152 0.2793-0.19508 0.10794-0.30771 0.22658-0.41211 0.5039-0.1034 0.27726-0.16992 0.71824-0.16992 1.2168s0.0655 0.93952 0.16992 1.2168c0.10386 0.27728 0.21691 0.3959 0.41211 0.5039 0.3897 0.21556 1.2706 0.2633 2.6113 0.2793h13.613c1.3408-0.016 2.2216-0.0637 2.6113-0.2793 0.1952-0.108 0.30825-0.22662 0.41211-0.5039 0.10446-0.27728 0.16996-0.71824 0.16996-1.2168s-0.0665-0.93954-0.16992-1.2168c-0.1044-0.27732-0.21703-0.39596-0.41211-0.5039-0.38997-0.2157-1.2719-0.2637-2.6152-0.2793h-13.604z" color="#000000" color-rendering="auto" image-rendering="auto" opacity=".3" shape-rendering="auto" solid-color="#000000" style="isolation:auto;mix-blend-mode:normal;text-decoration-color:#000000;text-decoration-line:none;text-decoration-style:solid;text-indent:0;text-transform:none;white-space:normal"/>
 <g transform="translate(28)">
  <g transform="translate(-789,-132)">
   <path d="m785 137.21c0-2.0054-0.22652-2.2212-2.4371-2.2114h-11.126c-2.2105-0.01-2.4371 0.20596-2.4371 2.2114v5.5769c0 2.0054 0.22652 2.2114 2.4371 2.2114h11.126c2.2106 0 2.4371-0.20586 2.4371-2.2114z" color="#000000" fill="none" opacity=".2" stroke="#000" stroke-width="2"/>
   <path d="m785 137.21c0-2.0054-0.22652-2.2212-2.4371-2.2114h-11.126c-2.2105-0.01-2.4371 0.20596-2.4371 2.2114v5.5769c0 2.0054 0.22652 2.2114 2.4371 2.2114h11.126c2.2106 0 2.4371-0.20586 2.4371-2.2114z" color="#000000" fill="#fff"/>
  </g>
  <g transform="translate(-788,-130)">
   <path d="m785 137.21c0-2.0054-0.22652-2.2212-2.4371-2.2114h-11.126c-2.2105-0.01-2.4371 0.20596-2.4371 2.2114v5.5769c0 2.0054 0.22652 2.2114 2.4371 2.2114h11.126c2.2106 0 2.4371-0.20586 2.4371-2.2114z" color="#000000" fill="none" opacity=".2" stroke="#000" stroke-width="2"/>
   <path d="m785 137.21c0-2.0054-0.22652-2.2212-2.4371-2.2114h-11.126c-2.2105-0.01-2.4371 0.20596-2.4371 2.2114v5.5769c0 2.0054 0.22652 2.2114 2.4371 2.2114h11.126c2.2106 0 2.4371-0.20586 2.4371-2.2114z" color="#000000" fill="#fff"/>
  </g>
  <g transform="translate(-790,-128)">
   <path d="m785 137.21c0-2.0054-0.22652-2.2212-2.4371-2.2114h-11.126c-2.2105-0.01-2.4371 0.20596-2.4371 2.2114v5.5769c0 2.0054 0.22652 2.2114 2.4371 2.2114h11.126c2.2106 0 2.4371-0.20586 2.4371-2.2114z" color="#000000" fill="none" opacity=".2" stroke="#000" stroke-width="2"/>
   <path d="m785 137.21c0-2.0054-0.22652-2.2212-2.4371-2.2114h-11.126c-2.2105-0.01-2.4371 0.20596-2.4371 2.2114v5.5769c0 2.0054 0.22652 2.2114 2.4371 2.2114h11.126c2.2106 0 2.4371-0.20586 2.4371-2.2114z" color="#000000" fill="#fff"/>
  </g>
 </g>
 <path d="m3.5195 7c-0.0094 0.38877-0.02148 0.75653-0.02148 1.2031v15.594c0 1.4152 0.03442 2.5248 0.18555 3.4258s0.43047 1.617 0.95117 2.1387 1.2372 0.80176 2.1367 0.95312c0.8995 0.15135 2.0056 0.18555 3.418 0.18555h11.615c1.4124 0 2.5223-0.03423 3.4238-0.18555s1.6199-0.43164 2.1426-0.95312c0.52271-0.5214 0.80326-1.239 0.95312-2.1406 0.14983-0.9011 0.18083-2.0093 0.17383-3.4238v-15.592c0.002183-0.44748-0.009654-0.81582-0.017582-1.2051h-2.4805c0 0.49856-0.06546 0.93952-0.16992 1.2168-0.10386 0.27728-0.21691 0.39591-0.41211 0.50391-0.3897 0.2156-1.2705 0.2633-2.6113 0.2793h-13.613c-1.3407-0.016-2.2216-0.063737-2.6113-0.2793-0.1952-0.108-0.30825-0.22663-0.41211-0.50391-0.10442-0.27728-0.16992-0.71824-0.16992-1.2168z" fill="url(#linearGradient907)"/>
 <path d="m10.192 1.5c-1.4124 0-2.5224 0.0342-3.4238 0.18555-0.90145 0.15132-1.6199 0.43164-2.1426 0.95312s-0.80325 1.239-0.95312 2.1406c-0.14988 0.90164-0.18075 2.0101-0.17383 3.4258v15.592c-7e-3 1.4145 0.024 2.5227 0.17383 3.4238 0.14987 0.90165 0.43041 1.6192 0.95312 2.1406 0.52272 0.52148 1.2411 0.8018 2.1426 0.95312s2.0114 0.18555 3.4238 0.18555h11.615c1.4124 0 2.5185-0.0342 3.418-0.18555 0.8995-0.15137 1.616-0.43149 2.1367-0.95312s0.80004-1.2377 0.95117-2.1387c0.15113-0.90094 0.18555-2.0106 0.18555-3.4258v-15.594c0-1.4152-0.0344-2.5248-0.18555-3.4258-0.15113-0.90093-0.43042-1.617-0.95117-2.1387-0.52075-0.52163-1.2372-0.80175-2.1367-0.95312s-2.0056-0.18555-3.418-0.18555z" color="#000000" fill="none" opacity=".4" stroke="#000"/>
 <path transform="translate(-320 -132)" d="m330.19 134c-5.6154 0-6.2196 0.57678-6.1921 6.2035v15.593c-0.0276 5.6267 0.57668 6.2035 6.1921 6.2035h11.615c5.6154 0 6.1921-0.5767 6.1921-6.2035v-15.593c0-5.6268-0.5767-6.2035-6.1921-6.2035z" clip-path="url(#clipPath959)" color="#000000" fill="none" opacity=".4" stroke="url(#linearGradient1228)" stroke-width="2"/>
 <path d="m15.023 13.084c0.20056 0.0365 0.41946 0.21868 0.52885 0.36454l1.7686 3.0632-0.91152 0.54698h3.0266l1.5133-2.6254-0.93002 0.52848-0.92965-1.641c-0.0912-0.16409-0.27352-0.23686-0.47409-0.23686zm-1.0436 0.18463c-0.46494 0.016-0.91631 0.189-1.1078 0.52632l-1.3856 2.4252 2.6617 1.5496 1.6957-2.9537-0.67467-1.1302c-0.24614-0.29173-0.72443-0.43308-1.1894-0.41713zm7.2062 3.7538-2.6802 1.5314 1.6957 2.8989h1.4404c0.58345-0.10939 1.4587-1.0576 0.94816-2.0421zm-11.869 0.63803 0.96629 0.56512-0.61989 1.0392c-0.54698 1.021 0.36455 2.1472 0.91153 2.2064h1.4222l0.96629-1.6776 0.96631 0.52885-1.5496-2.662zm8.697 3.1176-1.5499 2.662 1.5499 2.6439v-1.1121h1.8963c0.2188 0 0.36451-0.12763 0.43745-0.2735l1.7139-3.0266c-0.0912 0.0547-0.1458 0.14562-0.49222 0.18208h-3.5554zm-7.8765 0.93002c0.0729 0.0912 0.0546 0.0731 1.6591 2.9174 0.1094 0.1641 0.25539 0.36464 0.45595 0.34641h3.4096v-3.118h-5.0687c-0.27349 0-0.36933-0.0729-0.45594-0.14581z" enable-background="new" fill="#28851e"/>
 <path d="m9.1967 5c-1.3433 0.0156-2.2253 0.0636-2.6152 0.2793-0.19508 0.10794-0.30771 0.22658-0.41211 0.5039-0.1034 0.27726-0.16992 0.71824-0.16992 1.2168s0.0655 0.93952 0.16992 1.2168c0.10386 0.27728 0.21691 0.3959 0.41211 0.5039 0.3897 0.21556 1.2706 0.2633 2.6113 0.2793h13.613c1.3408-0.016 2.2216-0.0637 2.6113-0.2793 0.1952-0.108 0.30825-0.22662 0.41211-0.5039 0.10446-0.27728 0.16996-0.71824 0.16996-1.2168s-0.0665-0.93954-0.16992-1.2168c-0.1044-0.27732-0.21703-0.39596-0.41211-0.5039-0.38997-0.2157-1.2719-0.2637-2.6152-0.2793h-13.604z" color="#000000" color-rendering="auto" fill="#fff" image-rendering="auto" opacity=".2" shape-rendering="auto" solid-color="#000000" style="isolation:auto;mix-blend-mode:normal;text-decoration-color:#000000;text-decoration-line:none;text-decoration-style:solid;text-indent:0;text-transform:none;white-space:normal"/>
</svg>
